<svg width="40" height="40" viewBox="0 0 40 40" fill="none" xmlns="http://www.w3.org/2000/svg">
<circle cx="20" cy="20" r="20" fill="#EA670F"/>
<g clip-path="url(#clip0_2961_63709)">
<path d="M20.0056 14.8733C18.9916 14.8733 18.0004 15.174 17.1573 15.7375C16.3143 16.3009 15.6572 17.1018 15.2691 18.0388C14.8811 18.9758 14.7796 20.0068 14.9774 21.0015C15.1752 21.9962 15.6635 22.9099 16.3805 23.627C17.0974 24.3442 18.0109 24.8325 19.0054 25.0304C19.9999 25.2282 21.0307 25.1267 21.9674 24.7386C22.9042 24.3505 23.7049 23.6932 24.2682 22.85C24.8315 22.0067 25.1322 21.0153 25.1322 20.0011C25.1332 19.3274 25.0013 18.6602 24.7441 18.0376C24.4868 17.415 24.1092 16.8493 23.6329 16.3729C23.1567 15.8966 22.5911 15.5189 21.9687 15.2615C21.3462 15.0042 20.6791 14.8723 20.0056 14.8733ZM20.0056 23.3352C19.3463 23.3352 18.7018 23.1396 18.1537 22.7733C17.6055 22.4069 17.1782 21.8862 16.926 21.277C16.6737 20.6678 16.6077 19.9974 16.7363 19.3507C16.8649 18.7039 17.1824 18.1098 17.6485 17.6436C18.1147 17.1773 18.7087 16.8597 19.3553 16.7311C20.0019 16.6025 20.6721 16.6685 21.2812 16.9208C21.8903 17.1732 22.4108 17.6005 22.7771 18.1488C23.1434 18.6971 23.3389 19.3417 23.3389 20.0011C23.3371 20.8847 22.9853 21.7316 22.3606 22.3563C21.7358 22.981 20.889 23.3326 20.0056 23.3341V23.3352ZM26.5378 14.6666C26.5371 14.9028 26.4665 15.1336 26.3349 15.3297C26.2033 15.5258 26.0165 15.6786 25.7982 15.7687C25.5799 15.8588 25.3398 15.8822 25.1082 15.8359C24.8766 15.7897 24.6638 15.6759 24.4968 15.5088C24.3298 15.3418 24.216 15.129 24.1698 14.8974C24.1236 14.6657 24.147 14.4255 24.237 14.2072C24.3271 13.9888 24.4798 13.802 24.6759 13.6704C24.872 13.5387 25.1027 13.4681 25.3389 13.4674C25.496 13.4671 25.6516 13.4979 25.7968 13.5579C25.9419 13.6179 26.0739 13.7059 26.1849 13.817C26.296 13.9281 26.3841 14.0601 26.444 14.2053C26.504 14.3505 26.5347 14.5061 26.5344 14.6633L26.5378 14.6666ZM29.9333 15.8802C29.9662 14.3252 29.3859 12.8197 28.3178 11.6893C27.1851 10.6225 25.68 10.0413 24.1244 10.07C22.4733 9.97666 17.5256 9.97666 15.8744 10.07C14.321 10.0391 12.8171 10.6175 11.6844 11.6815C10.6185 12.8132 10.0388 14.3179 10.07 15.8724C9.97667 17.5239 9.97667 22.4728 10.07 24.1243C10.0371 25.6793 10.6174 27.1848 11.6856 28.3152C12.8183 29.3786 14.3212 29.9579 15.8744 29.93C17.5256 30.0233 22.4733 30.0233 24.1244 29.93C25.6791 29.9629 27.1843 29.3824 28.3144 28.3141C29.379 27.1814 29.9587 25.6774 29.93 24.1231C30.0233 22.4717 30.0233 17.5272 29.93 15.8758L29.9333 15.8802ZM27.7967 25.8958C27.6269 26.3262 27.3704 26.7171 27.0431 27.0443C26.7159 27.3714 26.3249 27.6277 25.8944 27.7973C24.5778 28.3196 21.45 28.1985 20.0056 28.1985C18.5611 28.1985 15.4233 28.3096 14.1167 27.7973C13.6848 27.6286 13.2923 27.3727 12.9636 27.0455C12.635 26.7183 12.3773 26.327 12.2067 25.8958C11.6844 24.5788 11.8056 21.4503 11.8056 20.0056C11.8056 18.5608 11.6944 15.4223 12.2067 14.1154C12.3752 13.6832 12.631 13.2904 12.9581 12.9615C13.2852 12.6326 13.6766 12.3747 14.1078 12.2038C15.4244 11.6815 18.5522 11.8026 19.9967 11.8026C21.4411 11.8026 24.5789 11.6915 25.8856 12.2038C26.3158 12.3735 26.7066 12.6299 27.0336 12.957C27.3607 13.2841 27.617 13.675 27.7867 14.1054C28.3089 15.4223 28.1878 18.5508 28.1878 19.9956C28.1878 21.4403 28.3189 24.5844 27.7967 25.8958Z" fill="white"/>
</g>
<defs>
<clipPath id="clip0_2961_63709">
<rect width="20" height="20" fill="white" transform="translate(10 10)"/>
</clipPath>
</defs>
</svg>
