<svg width="12" height="12" viewBox="0 0 12 12" fill="none" xmlns="http://www.w3.org/2000/svg">
<path d="M10.3677 1.24625C10.3541 1.24665 10.3406 1.24779 10.3271 1.24967H6.875C6.82531 1.24896 6.77597 1.25814 6.72986 1.27667C6.68375 1.2952 6.64178 1.32271 6.60639 1.35761C6.571 1.3925 6.5429 1.43407 6.52372 1.47992C6.50454 1.52577 6.49466 1.57497 6.49466 1.62467C6.49466 1.67436 6.50454 1.72356 6.52372 1.76941C6.5429 1.81526 6.571 1.85683 6.60639 1.89173C6.64178 1.92662 6.68375 1.95413 6.72986 1.97266C6.77597 1.99119 6.82531 2.00037 6.875 1.99967H9.46973L5.60986 5.85953C5.57387 5.89408 5.54514 5.93547 5.52535 5.98127C5.50555 6.02707 5.4951 6.07636 5.49459 6.12625C5.49408 6.17613 5.50354 6.22562 5.52239 6.27182C5.54125 6.31801 5.56914 6.35997 5.60442 6.39525C5.6397 6.43053 5.68166 6.45841 5.72785 6.47727C5.77404 6.49613 5.82353 6.50558 5.87342 6.50508C5.92331 6.50457 5.9726 6.49411 6.0184 6.47432C6.06419 6.45452 6.10558 6.42579 6.14014 6.3898L10 2.52994V5.12467C9.9993 5.17436 10.0085 5.22369 10.027 5.26981C10.0455 5.31592 10.073 5.35789 10.1079 5.39328C10.1428 5.42867 10.1844 5.45677 10.2303 5.47595C10.2761 5.49513 10.3253 5.50501 10.375 5.50501C10.4247 5.50501 10.4739 5.49513 10.5197 5.47595C10.5656 5.45677 10.6072 5.42867 10.6421 5.39328C10.677 5.35789 10.7045 5.31592 10.723 5.26981C10.7415 5.22369 10.7507 5.17436 10.75 5.12467V1.67203C10.7574 1.61808 10.7529 1.56316 10.737 1.5111C10.721 1.45904 10.6939 1.41108 10.6575 1.37056C10.6211 1.33004 10.5763 1.29793 10.5263 1.27647C10.4762 1.255 10.4221 1.24469 10.3677 1.24625ZM3.125 1.99967C2.09387 1.99967 1.25 2.84354 1.25 3.87467V8.87467C1.25 9.90579 2.09387 10.7497 3.125 10.7497H8.125C9.15613 10.7497 10 9.90579 10 8.87467V6.37467C10.0007 6.32497 9.99152 6.27564 9.97299 6.22953C9.95446 6.18341 9.92695 6.14144 9.89206 6.10605C9.85717 6.07066 9.81559 6.04256 9.76974 6.02338C9.7239 6.0042 9.6747 5.99433 9.625 5.99433C9.5753 5.99433 9.5261 6.0042 9.48026 6.02338C9.43441 6.04256 9.39283 6.07066 9.35794 6.10605C9.32305 6.14144 9.29554 6.18341 9.27701 6.22953C9.25848 6.27564 9.2493 6.32497 9.25 6.37467V8.87467C9.25 9.50054 8.75087 9.99967 8.125 9.99967H3.125C2.49913 9.99967 2 9.50054 2 8.87467V3.87467C2 3.24879 2.49913 2.74967 3.125 2.74967H5.625C5.67469 2.75037 5.72403 2.74119 5.77014 2.72266C5.81625 2.70413 5.85822 2.67662 5.89361 2.64173C5.929 2.60683 5.9571 2.56526 5.97628 2.51941C5.99546 2.47356 6.00534 2.42436 6.00534 2.37467C6.00534 2.32497 5.99546 2.27577 5.97628 2.22992C5.9571 2.18407 5.929 2.1425 5.89361 2.10761C5.85822 2.07271 5.81625 2.0452 5.77014 2.02667C5.72403 2.00814 5.67469 1.99896 5.625 1.99967H3.125Z" fill="#F04E11"/>
</svg>
