<svg width="260" height="40" viewBox="0 0 260 40" fill="none" xmlns="http://www.w3.org/2000/svg">
<rect x="0.5" y="0.5" width="259" height="39" rx="19.5" stroke="#F04E11"/>
<path d="M68.456 26.008V22.158C68.148 22.578 67.798 22.998 67.406 23.418C67.014 23.8287 66.6127 24.202 66.202 24.538C65.7913 24.874 65.404 25.1447 65.04 25.35C64.984 25.266 64.9 25.1587 64.788 25.028C64.676 24.8973 64.564 24.776 64.452 24.664C64.34 24.5427 64.2467 24.4587 64.172 24.412C64.5827 24.2067 65.0167 23.9173 65.474 23.544C65.9407 23.1707 66.3793 22.7647 66.79 22.326C67.21 21.878 67.5553 21.4487 67.826 21.038H65.124V19.932H68.456V18.56H69.674V19.932H73.146V21.038H70.276C70.5747 21.4393 70.9293 21.8453 71.34 22.256C71.76 22.6667 72.1893 23.04 72.628 23.376C73.076 23.712 73.4867 23.9733 73.86 24.16C73.7947 24.2067 73.7013 24.2953 73.58 24.426C73.468 24.5567 73.356 24.692 73.244 24.832C73.1413 24.9627 73.062 25.07 73.006 25.154C72.6607 24.958 72.2873 24.6967 71.886 24.37C71.4847 24.0433 71.0927 23.684 70.71 23.292C70.3273 22.9 69.982 22.5033 69.674 22.102V26.008H68.456ZM61.302 26.008C61.2833 25.84 61.246 25.6253 61.19 25.364C61.134 25.112 61.078 24.9207 61.022 24.79H61.96C62.1467 24.79 62.2773 24.7573 62.352 24.692C62.4267 24.6173 62.464 24.496 62.464 24.328V21.136C62.128 21.2853 61.82 21.416 61.54 21.528C61.26 21.64 61.05 21.7193 60.91 21.766L60.574 20.478C60.7793 20.422 61.05 20.338 61.386 20.226C61.7313 20.1047 62.0907 19.9693 62.464 19.82V17.034H60.714V15.886H62.464V13.31H63.682V15.886H64.984V17.034H63.682V19.33C63.9527 19.218 64.2 19.1153 64.424 19.022C64.648 18.9193 64.8207 18.8353 64.942 18.77V19.974C64.7927 20.0487 64.606 20.142 64.382 20.254C64.1673 20.3567 63.934 20.4687 63.682 20.59V24.748C63.682 25.1867 63.556 25.504 63.304 25.7C63.0613 25.9053 62.6927 26.008 62.198 26.008H61.302ZM65.348 15.368C65.3387 15.2747 65.3107 15.1533 65.264 15.004C65.2267 14.8547 65.1847 14.7053 65.138 14.556C65.0913 14.4067 65.0447 14.29 64.998 14.206C65.586 14.206 66.216 14.1827 66.888 14.136C67.5693 14.0893 68.2413 14.0287 68.904 13.954C69.5667 13.87 70.178 13.772 70.738 13.66C71.3073 13.548 71.7787 13.4267 72.152 13.296L72.922 14.36C72.418 14.5 71.844 14.6307 71.2 14.752C70.556 14.864 69.884 14.9667 69.184 15.06C68.4933 15.144 67.8167 15.214 67.154 15.27C66.4913 15.3167 65.8893 15.3493 65.348 15.368ZM71.382 18.882C71.3073 18.826 71.1953 18.7653 71.046 18.7C70.906 18.6253 70.766 18.56 70.626 18.504C70.486 18.4387 70.374 18.3967 70.29 18.378C70.4487 18.126 70.626 17.8087 70.822 17.426C71.018 17.034 71.2047 16.642 71.382 16.25C71.5593 15.8487 71.69 15.508 71.774 15.228L72.964 15.662C72.852 15.97 72.7027 16.32 72.516 16.712C72.3387 17.0947 72.152 17.4773 71.956 17.86C71.76 18.2427 71.5687 18.5833 71.382 18.882ZM66.538 18.798C66.4633 18.5833 66.356 18.3267 66.216 18.028C66.0853 17.72 65.9453 17.4167 65.796 17.118C65.6467 16.81 65.516 16.558 65.404 16.362L66.468 15.942C66.608 16.1567 66.748 16.4087 66.888 16.698C67.0373 16.9873 67.1773 17.2767 67.308 17.566C67.448 17.8553 67.56 18.112 67.644 18.336C67.56 18.3547 67.4433 18.3967 67.294 18.462C67.154 18.518 67.014 18.5787 66.874 18.644C66.734 18.7 66.622 18.7513 66.538 18.798ZM68.708 18.308C68.6613 18.084 68.5913 17.8133 68.498 17.496C68.4047 17.1787 68.3067 16.866 68.204 16.558C68.1013 16.2407 68.008 15.984 67.924 15.788L69.044 15.508C69.1467 15.732 69.2493 15.998 69.352 16.306C69.4547 16.6047 69.5527 16.9033 69.646 17.202C69.7393 17.5007 69.8093 17.762 69.856 17.986C69.772 17.9953 69.6553 18.0233 69.506 18.07C69.3567 18.1073 69.2073 18.1493 69.058 18.196C68.9087 18.2333 68.792 18.2707 68.708 18.308ZM75.68 26.036C75.5307 25.9333 75.33 25.812 75.078 25.672C74.826 25.5413 74.6253 25.4527 74.476 25.406C75.036 24.7247 75.442 23.9033 75.694 22.942C75.9553 21.9713 76.086 20.8373 76.086 19.54V13.786H86.376V24.622C86.376 25.0513 86.25 25.378 85.998 25.602C85.746 25.8353 85.354 25.952 84.822 25.952H83.772C83.7533 25.7653 83.716 25.5367 83.66 25.266C83.6133 25.0047 83.562 24.7993 83.506 24.65H84.542C84.738 24.65 84.8733 24.6173 84.948 24.552C85.032 24.4773 85.074 24.3513 85.074 24.174V21.29H81.812V25.532H80.538V21.29H77.332C77.248 22.27 77.0753 23.1427 76.814 23.908C76.5527 24.664 76.1747 25.3733 75.68 26.036ZM81.812 20.156H85.074V18.126H81.812V20.156ZM81.812 16.964H85.074V14.948H81.812V16.964ZM77.402 20.156H80.538V18.126H77.402V20.156ZM77.402 16.964H80.538V14.948H77.402V16.964ZM90.562 26.022V13.324H91.822V15.858L92.55 15.354C92.69 15.5313 92.8393 15.732 92.998 15.956C93.1567 16.1707 93.306 16.3807 93.446 16.586C93.586 16.7913 93.6933 16.9687 93.768 17.118L92.886 17.734H96.33V16.95H93.852V16.054H96.33V15.312H93.166V14.388H96.33V13.296H97.604V14.388H100.88V15.312H97.604V16.054H100.124V16.95H97.604V17.734H101.412V18.644H92.676V17.734H92.886C92.7647 17.5007 92.6013 17.2207 92.396 16.894C92.1907 16.558 91.9993 16.2733 91.822 16.04V26.022H90.562ZM93.936 26.022V19.316H100.138V24.734C100.138 25.182 100.012 25.5087 99.76 25.714C99.5173 25.9193 99.1393 26.022 98.626 26.022H97.604C97.5947 25.8447 97.5713 25.6487 97.534 25.434C97.506 25.2193 97.4593 25.028 97.394 24.86H98.388C98.584 24.86 98.71 24.832 98.766 24.776C98.8313 24.7107 98.864 24.5893 98.864 24.412V23.642H95.224V26.022H93.936ZM89.414 20.002C89.3487 19.974 89.2413 19.9367 89.092 19.89C88.952 19.8433 88.812 19.8013 88.672 19.764C88.5413 19.7173 88.4387 19.6893 88.364 19.68C88.4387 19.4653 88.5087 19.1947 88.574 18.868C88.6487 18.5413 88.7093 18.1913 88.756 17.818C88.812 17.4353 88.854 17.0713 88.882 16.726C88.9193 16.3807 88.938 16.0913 88.938 15.858L90.044 15.97C90.0347 16.2873 90.0067 16.642 89.96 17.034C89.9227 17.4167 89.8713 17.804 89.806 18.196C89.7407 18.588 89.6707 18.9427 89.596 19.26C89.5307 19.5773 89.47 19.8247 89.414 20.002ZM95.224 22.76H98.864V21.934H95.224V22.76ZM95.224 21.052H98.864V20.254H95.224V21.052ZM109.476 26.008V13.688H114.586V16.348C114.586 16.8613 114.465 17.2393 114.222 17.482C113.979 17.7247 113.611 17.846 113.116 17.846H112.01C111.991 17.6593 111.954 17.4493 111.898 17.216C111.851 16.9733 111.8 16.7867 111.744 16.656H112.85C113.037 16.656 113.172 16.6233 113.256 16.558C113.34 16.4927 113.382 16.3713 113.382 16.194V14.822H110.68V18.434H114.838C114.782 20.1607 114.381 21.6913 113.634 23.026C113.905 23.3713 114.208 23.698 114.544 24.006C114.88 24.3047 115.235 24.58 115.608 24.832C115.515 24.916 115.379 25.0607 115.202 25.266C115.034 25.4713 114.908 25.6393 114.824 25.77C114.115 25.2847 113.499 24.7153 112.976 24.062C112.743 24.37 112.486 24.664 112.206 24.944C111.935 25.2147 111.637 25.4667 111.31 25.7C111.245 25.6253 111.151 25.5227 111.03 25.392C110.909 25.2707 110.792 25.1633 110.68 25.07V26.008H109.476ZM105.29 26.008V23.404H102.952V22.326H105.29V21.08H102.728V20.002H104.254C104.17 19.75 104.072 19.4887 103.96 19.218C103.848 18.938 103.745 18.714 103.652 18.546L104.716 18.238C104.828 18.4713 104.949 18.7653 105.08 19.12C105.211 19.4653 105.309 19.7593 105.374 20.002H106.354C106.466 19.7313 106.583 19.4233 106.704 19.078C106.825 18.7233 106.909 18.4387 106.956 18.224L108.048 18.49C107.983 18.7047 107.894 18.952 107.782 19.232C107.679 19.5027 107.572 19.7593 107.46 20.002H109V21.08H106.48V22.326H108.762V23.404H106.48V26.008H105.29ZM102.56 18.084V17.006H105.29V15.83H103.134V14.794H105.29V13.282H106.48V14.794H108.608V15.83H106.48V17.006H109.154V18.084H102.56ZM110.68 24.692C111.296 24.2347 111.823 23.6887 112.262 23.054C111.646 21.9993 111.231 20.828 111.016 19.54H110.68V24.692ZM112.92 21.92C113.265 21.164 113.485 20.3707 113.578 19.54H112.108C112.183 19.9693 112.285 20.3847 112.416 20.786C112.556 21.178 112.724 21.556 112.92 21.92ZM128.04 23.362C127.816 23.2127 127.513 22.9887 127.13 22.69C126.747 22.3913 126.327 22.0553 125.87 21.682C125.422 21.3087 124.974 20.9353 124.526 20.562C124.087 20.1793 123.691 19.834 123.336 19.526C122.991 19.2087 122.729 18.966 122.552 18.798C122.403 18.6487 122.281 18.574 122.188 18.574C122.095 18.574 121.955 18.644 121.768 18.784C121.525 18.98 121.231 19.1947 120.886 19.428C120.541 19.652 120.177 19.876 119.794 20.1C119.411 20.3147 119.043 20.5153 118.688 20.702C118.343 20.8793 118.039 21.0193 117.778 21.122L116.98 19.932C117.279 19.8293 117.629 19.6847 118.03 19.498C118.431 19.302 118.847 19.0873 119.276 18.854C119.715 18.6113 120.125 18.364 120.508 18.112C120.891 17.86 121.213 17.622 121.474 17.398C121.763 17.146 122.015 17.0247 122.23 17.034C122.454 17.034 122.715 17.1833 123.014 17.482C123.191 17.6593 123.462 17.9067 123.826 18.224C124.199 18.5413 124.619 18.8913 125.086 19.274C125.562 19.6473 126.047 20.0253 126.542 20.408C127.037 20.7907 127.508 21.1407 127.956 21.458C128.404 21.766 128.782 22.004 129.09 22.172C128.931 22.3027 128.74 22.4893 128.516 22.732C128.301 22.9747 128.143 23.1847 128.04 23.362ZM126.318 17.706C125.945 17.706 125.623 17.5753 125.352 17.314C125.081 17.0433 124.946 16.7213 124.946 16.348C124.946 15.9653 125.081 15.6433 125.352 15.382C125.623 15.1113 125.945 14.976 126.318 14.976C126.701 14.976 127.023 15.1113 127.284 15.382C127.555 15.6433 127.69 15.9653 127.69 16.348C127.69 16.7213 127.555 17.0433 127.284 17.314C127.023 17.5753 126.701 17.706 126.318 17.706ZM126.318 17.188C126.551 17.188 126.752 17.1087 126.92 16.95C127.088 16.782 127.172 16.5813 127.172 16.348C127.172 16.1053 127.088 15.9047 126.92 15.746C126.752 15.578 126.551 15.494 126.318 15.494C126.085 15.494 125.884 15.578 125.716 15.746C125.548 15.9047 125.464 16.1053 125.464 16.348C125.464 16.5813 125.548 16.782 125.716 16.95C125.884 17.1087 126.085 17.188 126.318 17.188ZM131.33 20.38C131.33 20.296 131.33 20.1653 131.33 19.988C131.33 19.8013 131.33 19.6193 131.33 19.442C131.33 19.2647 131.325 19.134 131.316 19.05C131.549 19.0593 131.899 19.0687 132.366 19.078C132.833 19.078 133.374 19.0827 133.99 19.092C134.615 19.092 135.273 19.0967 135.964 19.106C136.664 19.106 137.359 19.106 138.05 19.106C138.75 19.106 139.408 19.106 140.024 19.106C140.64 19.0967 141.181 19.0873 141.648 19.078C142.115 19.0687 142.46 19.0593 142.684 19.05C142.684 19.078 142.684 19.12 142.684 19.176C142.684 19.232 142.684 19.2927 142.684 19.358C142.684 19.526 142.679 19.7173 142.67 19.932C142.67 20.1373 142.675 20.282 142.684 20.366C142.395 20.3567 141.965 20.3473 141.396 20.338C140.827 20.3287 140.173 20.324 139.436 20.324C138.708 20.3147 137.947 20.31 137.154 20.31C136.361 20.31 135.586 20.3147 134.83 20.324C134.074 20.324 133.388 20.3287 132.772 20.338C132.165 20.3473 131.685 20.3613 131.33 20.38ZM147.514 24.832L146.814 23.53C147.486 23.3433 148.181 23.0913 148.9 22.774C149.619 22.4473 150.328 22.0693 151.028 21.64C151.737 21.2107 152.414 20.758 153.058 20.282C153.702 19.7967 154.285 19.3067 154.808 18.812C155.331 18.3173 155.765 17.8413 156.11 17.384C156.138 17.496 156.185 17.6453 156.25 17.832C156.325 18.0093 156.404 18.1867 156.488 18.364C156.572 18.5413 156.637 18.672 156.684 18.756C156.217 19.3253 155.643 19.904 154.962 20.492C154.281 21.0707 153.529 21.6353 152.708 22.186C151.896 22.7273 151.047 23.2267 150.16 23.684C149.283 24.1413 148.401 24.524 147.514 24.832ZM150.16 17.426C150.067 17.3327 149.908 17.2067 149.684 17.048C149.46 16.8893 149.217 16.726 148.956 16.558C148.695 16.3807 148.443 16.222 148.2 16.082C147.967 15.942 147.78 15.844 147.64 15.788L148.368 14.668C148.536 14.7613 148.741 14.8873 148.984 15.046C149.227 15.1953 149.474 15.354 149.726 15.522C149.987 15.69 150.225 15.8533 150.44 16.012C150.664 16.1613 150.832 16.278 150.944 16.362L150.16 17.426ZM148.284 20.268C148.163 20.1653 147.99 20.0487 147.766 19.918C147.551 19.7873 147.313 19.6567 147.052 19.526C146.791 19.386 146.534 19.26 146.282 19.148C146.039 19.036 145.834 18.952 145.666 18.896L146.338 17.734C146.525 17.8087 146.739 17.9067 146.982 18.028C147.234 18.1493 147.486 18.28 147.738 18.42C147.999 18.5507 148.242 18.6813 148.466 18.812C148.69 18.9333 148.863 19.036 148.984 19.12L148.284 20.268ZM155.984 15.718C155.853 15.5313 155.685 15.3307 155.48 15.116C155.284 14.9013 155.079 14.696 154.864 14.5C154.659 14.2947 154.467 14.1313 154.29 14.01L154.878 13.464C155.037 13.576 155.228 13.7393 155.452 13.954C155.676 14.1687 155.895 14.388 156.11 14.612C156.325 14.8267 156.488 15.0087 156.6 15.158L155.984 15.718ZM154.836 16.796C154.705 16.6093 154.542 16.4087 154.346 16.194C154.15 15.97 153.949 15.76 153.744 15.564C153.539 15.3587 153.352 15.1907 153.184 15.06L153.772 14.514C153.921 14.6353 154.103 14.8033 154.318 15.018C154.542 15.2327 154.757 15.452 154.962 15.676C155.177 15.9 155.34 16.0913 155.452 16.25L154.836 16.796ZM166.022 25.616C165.303 25.616 164.659 25.5413 164.09 25.392C163.521 25.252 163.068 25.028 162.732 24.72C162.405 24.412 162.242 24.006 162.242 23.502C162.242 23.082 162.377 22.6993 162.648 22.354C162.919 21.9993 163.287 21.6727 163.754 21.374C164.23 21.0753 164.757 20.8047 165.336 20.562V20.408C165.336 19.988 165.247 19.694 165.07 19.526C164.902 19.358 164.683 19.2647 164.412 19.246C163.936 19.218 163.46 19.2927 162.984 19.47C162.508 19.6473 162.074 19.9413 161.682 20.352C161.514 20.5293 161.313 20.7347 161.08 20.968C160.847 21.2013 160.637 21.3973 160.45 21.556L159.512 20.618C160.175 20.1513 160.795 19.5727 161.374 18.882C161.962 18.1913 162.452 17.468 162.844 16.712C162.275 16.74 161.752 16.7587 161.276 16.768C160.809 16.7773 160.459 16.7773 160.226 16.768L160.17 15.522C160.469 15.55 160.907 15.564 161.486 15.564C162.074 15.564 162.709 15.5453 163.39 15.508C163.511 15.1813 163.605 14.8593 163.67 14.542C163.745 14.2247 163.787 13.9213 163.796 13.632L165.084 13.716C165.056 14.2853 164.944 14.8547 164.748 15.424C165.467 15.3773 166.139 15.3167 166.764 15.242C167.399 15.1673 167.879 15.088 168.206 15.004L168.29 16.208C168.029 16.264 167.683 16.32 167.254 16.376C166.834 16.4227 166.367 16.4693 165.854 16.516C165.35 16.5533 164.832 16.5907 164.3 16.628C164.16 16.9453 163.987 17.272 163.782 17.608C163.577 17.9347 163.367 18.2473 163.152 18.546C163.376 18.4247 163.623 18.336 163.894 18.28C164.174 18.2147 164.435 18.182 164.678 18.182C165.229 18.182 165.667 18.336 165.994 18.644C166.321 18.952 166.517 19.4373 166.582 20.1C167.133 19.904 167.688 19.7313 168.248 19.582C168.817 19.4233 169.34 19.288 169.816 19.176L170.194 20.366C169.55 20.4593 168.925 20.5853 168.318 20.744C167.711 20.8933 167.142 21.0613 166.61 21.248V23.166H165.336V21.724C164.785 21.9853 164.337 22.2607 163.992 22.55C163.656 22.83 163.488 23.1053 163.488 23.376C163.488 23.7307 163.698 23.9873 164.118 24.146C164.547 24.3047 165.154 24.384 165.938 24.384C166.237 24.384 166.568 24.3653 166.932 24.328C167.296 24.2813 167.66 24.2253 168.024 24.16C168.397 24.0853 168.733 24.006 169.032 23.922C169.013 24.006 169.004 24.132 169.004 24.3C169.004 24.4587 169.009 24.622 169.018 24.79C169.027 24.958 169.037 25.0933 169.046 25.196C169.046 25.224 169.046 25.2427 169.046 25.252C168.579 25.3733 168.075 25.462 167.534 25.518C166.993 25.5833 166.489 25.616 166.022 25.616ZM173.036 26.106C173.008 26.0033 172.957 25.8727 172.882 25.714C172.817 25.5647 172.747 25.4153 172.672 25.266C172.597 25.126 172.527 25.0187 172.462 24.944C173.321 24.8787 174.081 24.692 174.744 24.384C175.407 24.076 175.939 23.6747 176.34 23.18C176.741 22.676 176.979 22.1207 177.054 21.514H174.954V13.716H182.99V21.514H180.918V24.132C180.918 24.2813 180.951 24.3887 181.016 24.454C181.091 24.5193 181.24 24.552 181.464 24.552H183.214C183.475 24.552 183.681 24.51 183.83 24.426C183.989 24.342 184.105 24.1787 184.18 23.936C184.264 23.6933 184.325 23.334 184.362 22.858C184.511 22.942 184.712 23.0307 184.964 23.124C185.216 23.208 185.431 23.2733 185.608 23.32C185.524 24.0293 185.403 24.5613 185.244 24.916C185.085 25.2707 184.871 25.504 184.6 25.616C184.329 25.7373 183.979 25.798 183.55 25.798H181.002C180.479 25.798 180.111 25.714 179.896 25.546C179.691 25.3873 179.588 25.1167 179.588 24.734V21.514H178.37C178.277 22.6527 177.791 23.6373 176.914 24.468C176.037 25.2893 174.744 25.8353 173.036 26.106ZM176.284 16.068H181.646V14.836H176.284V16.068ZM176.284 20.38H181.646V19.162H176.284V20.38ZM176.284 18.224H181.646V17.006H176.284V18.224ZM193.378 25.238C192.342 25.238 191.577 25.0467 191.082 24.664C190.597 24.2813 190.354 23.81 190.354 23.25C190.354 22.8953 190.443 22.592 190.62 22.34C190.797 22.088 191.031 21.8967 191.32 21.766C191.609 21.6353 191.913 21.57 192.23 21.57C192.846 21.57 193.35 21.7847 193.742 22.214C194.143 22.634 194.381 23.1707 194.456 23.824C194.904 23.6747 195.282 23.4227 195.59 23.068C195.898 22.704 196.052 22.242 196.052 21.682C196.052 21.2527 195.949 20.8747 195.744 20.548C195.548 20.2213 195.273 19.9647 194.918 19.778C194.563 19.5913 194.153 19.498 193.686 19.498C192.463 19.498 191.446 19.848 190.634 20.548C190.466 20.6973 190.242 20.8887 189.962 21.122C189.682 21.346 189.421 21.5467 189.178 21.724L188.31 20.786C188.749 20.5247 189.22 20.1887 189.724 19.778C190.228 19.3673 190.727 18.9147 191.222 18.42C191.726 17.9253 192.202 17.4167 192.65 16.894C193.098 16.3713 193.49 15.8627 193.826 15.368C193.434 15.4613 192.986 15.5547 192.482 15.648C191.978 15.732 191.483 15.8067 190.998 15.872C190.522 15.928 190.116 15.9653 189.78 15.984L189.556 14.752C189.808 14.7613 190.121 14.7567 190.494 14.738C190.877 14.71 191.278 14.6727 191.698 14.626C192.127 14.5793 192.543 14.528 192.944 14.472C193.355 14.4067 193.719 14.3367 194.036 14.262C194.363 14.1873 194.601 14.1173 194.75 14.052L195.716 14.71C195.501 15.13 195.221 15.578 194.876 16.054C194.54 16.5207 194.167 16.992 193.756 17.468C193.345 17.944 192.921 18.4013 192.482 18.84C192.697 18.7373 192.935 18.6533 193.196 18.588C193.457 18.5227 193.709 18.49 193.952 18.49C194.633 18.49 195.231 18.6253 195.744 18.896C196.257 19.1667 196.659 19.54 196.948 20.016C197.247 20.492 197.396 21.0473 197.396 21.682C197.396 22.3633 197.223 22.9747 196.878 23.516C196.542 24.048 196.071 24.468 195.464 24.776C194.867 25.084 194.171 25.238 193.378 25.238ZM193.14 24.048H193.308C193.28 23.6373 193.168 23.3013 192.972 23.04C192.776 22.7787 192.529 22.648 192.23 22.648C192.034 22.648 191.871 22.6993 191.74 22.802C191.619 22.8953 191.558 23.0353 191.558 23.222C191.558 23.4553 191.679 23.6467 191.922 23.796C192.165 23.9453 192.571 24.0293 193.14 24.048Z" fill="#F04E11"/>
<path d="M215.368 15.2462C215.354 15.2467 215.341 15.2478 215.327 15.2497H211.875C211.825 15.249 211.776 15.2581 211.73 15.2767C211.684 15.2952 211.642 15.3227 211.606 15.3576C211.571 15.3925 211.543 15.4341 211.524 15.4799C211.505 15.5258 211.495 15.575 211.495 15.6247C211.495 15.6744 211.505 15.7236 211.524 15.7694C211.543 15.8153 211.571 15.8568 211.606 15.8917C211.642 15.9266 211.684 15.9541 211.73 15.9727C211.776 15.9912 211.825 16.0004 211.875 15.9997H214.47L210.61 19.8595C210.574 19.8941 210.545 19.9355 210.525 19.9813C210.506 20.0271 210.495 20.0764 210.495 20.1262C210.494 20.1761 210.504 20.2256 210.522 20.2718C210.541 20.318 210.569 20.36 210.604 20.3952C210.64 20.4305 210.682 20.4584 210.728 20.4773C210.774 20.4961 210.824 20.5056 210.873 20.5051C210.923 20.5046 210.973 20.4941 211.018 20.4743C211.064 20.4545 211.106 20.4258 211.14 20.3898L215 16.5299V19.1247C214.999 19.1744 215.008 19.2237 215.027 19.2698C215.046 19.3159 215.073 19.3579 215.108 19.3933C215.143 19.4287 215.184 19.4568 215.23 19.4759C215.276 19.4951 215.325 19.505 215.375 19.505C215.425 19.505 215.474 19.4951 215.52 19.4759C215.566 19.4568 215.607 19.4287 215.642 19.3933C215.677 19.3579 215.704 19.3159 215.723 19.2698C215.742 19.2237 215.751 19.1744 215.75 19.1247V15.672C215.757 15.6181 215.753 15.5632 215.737 15.5111C215.721 15.459 215.694 15.4111 215.657 15.3706C215.621 15.33 215.576 15.2979 215.526 15.2765C215.476 15.255 215.422 15.2447 215.368 15.2462ZM208.125 15.9997C207.094 15.9997 206.25 16.8435 206.25 17.8747V22.8747C206.25 23.9058 207.094 24.7497 208.125 24.7497H213.125C214.156 24.7497 215 23.9058 215 22.8747V20.3747C215.001 20.325 214.992 20.2756 214.973 20.2295C214.954 20.1834 214.927 20.1414 214.892 20.1061C214.857 20.0707 214.816 20.0426 214.77 20.0234C214.724 20.0042 214.675 19.9943 214.625 19.9943C214.575 19.9943 214.526 20.0042 214.48 20.0234C214.434 20.0426 214.393 20.0707 214.358 20.1061C214.323 20.1414 214.296 20.1834 214.277 20.2295C214.258 20.2756 214.249 20.325 214.25 20.3747V22.8747C214.25 23.5005 213.751 23.9997 213.125 23.9997H208.125C207.499 23.9997 207 23.5005 207 22.8747V17.8747C207 17.2488 207.499 16.7497 208.125 16.7497H210.625C210.675 16.7504 210.724 16.7412 210.77 16.7227C210.816 16.7041 210.858 16.6766 210.894 16.6417C210.929 16.6068 210.957 16.5653 210.976 16.5194C210.995 16.4736 211.005 16.4244 211.005 16.3747C211.005 16.325 210.995 16.2758 210.976 16.2299C210.957 16.1841 210.929 16.1425 210.894 16.1076C210.858 16.0727 210.816 16.0452 210.77 16.0267C210.724 16.0081 210.675 15.999 210.625 15.9997H208.125Z" fill="#F04E11"/>
</svg>
