<svg width="12" height="170" viewBox="0 0 12 170" fill="none" xmlns="http://www.w3.org/2000/svg">
<path d="M0.0762501 169.027C0.0762501 168.822 0.136917 168.654 0.25825 168.523C0.388917 168.402 0.556917 168.341 0.76225 168.341C0.95825 168.341 1.11225 168.402 1.22425 168.523C1.34558 168.654 1.40625 168.822 1.40625 169.027C1.40625 169.242 1.34558 169.405 1.22425 169.517C1.11225 169.639 0.95825 169.699 0.76225 169.699C0.547583 169.699 0.379584 169.639 0.25825 169.517C0.136917 169.405 0.0762501 169.242 0.0762501 169.027Z" fill="#421D12"/>
<path d="M0.244469 159.726C0.207135 159.717 0.188469 159.666 0.188469 159.572C0.188469 159.479 0.207135 159.428 0.244469 159.418L7.81847 155.904C8.21047 155.727 8.4718 155.559 8.60247 155.4C8.74247 155.251 8.81247 155.036 8.81247 154.756C8.81247 154.728 8.84047 154.714 8.89647 154.714C8.95247 154.714 8.98047 154.728 8.98047 154.756L8.96647 155.19C8.9478 155.433 8.93847 155.662 8.93847 155.876C8.93847 156.296 8.9478 156.712 8.96647 157.122C8.9758 157.253 8.98047 157.43 8.98047 157.654C8.98047 157.682 8.95247 157.696 8.89647 157.696C8.84047 157.696 8.81247 157.682 8.81247 157.654C8.81247 157.384 8.78447 157.188 8.72847 157.066C8.67247 156.945 8.56514 156.884 8.40647 156.884C8.2758 156.884 8.0658 156.95 7.77647 157.08L1.43447 160.048L0.664469 159.516L5.14447 161.28L4.82247 161.504L0.244469 159.726ZM8.98047 167.748C8.98047 167.776 8.95247 167.79 8.89647 167.79C8.84047 167.79 8.81247 167.776 8.81247 167.748C8.81247 167.086 8.3878 166.582 7.53847 166.236L0.244469 163.38C0.207135 163.371 0.188469 163.32 0.188469 163.226C0.188469 163.133 0.207135 163.082 0.244469 163.072L7.81847 159.558C8.1638 159.4 8.4158 159.236 8.57447 159.068C8.73314 158.91 8.81247 158.714 8.81247 158.48C8.81247 158.452 8.84047 158.438 8.89647 158.438C8.95247 158.438 8.98047 158.452 8.98047 158.48L8.96647 158.914C8.9478 159.138 8.93847 159.344 8.93847 159.53C8.93847 159.885 8.9478 160.212 8.96647 160.51C8.9758 160.604 8.98047 160.73 8.98047 160.888C8.98047 160.916 8.95247 160.93 8.89647 160.93C8.84047 160.93 8.81247 160.916 8.81247 160.888C8.81247 160.73 8.7938 160.613 8.75647 160.538C8.72847 160.473 8.67247 160.44 8.58847 160.44C8.4578 160.44 8.18714 160.538 7.77647 160.734L1.43447 163.702L0.664469 163.17L7.53847 165.872C7.76247 165.956 7.9538 165.998 8.11247 165.998C8.33647 165.998 8.50914 165.914 8.63047 165.746C8.7518 165.588 8.81247 165.35 8.81247 165.032C8.81247 165.004 8.84047 164.99 8.89647 164.99C8.95247 164.99 8.98047 165.004 8.98047 165.032L8.96647 165.634C8.9478 165.952 8.93847 166.241 8.93847 166.502C8.93847 166.698 8.9478 166.918 8.96647 167.16L8.98047 167.748ZM7.60847 162.316C7.94447 162.447 8.20114 162.512 8.37847 162.512C8.6678 162.512 8.81247 162.34 8.81247 161.994C8.81247 161.976 8.84047 161.966 8.89647 161.966C8.95247 161.966 8.98047 161.976 8.98047 161.994L8.96647 162.274C8.9478 162.461 8.93847 162.676 8.93847 162.918C8.93847 163.086 8.9478 163.292 8.96647 163.534L8.98047 164.094C8.98047 164.113 8.95247 164.122 8.89647 164.122C8.84047 164.122 8.81247 164.113 8.81247 164.094C8.81247 163.777 8.71447 163.502 8.51847 163.268C8.32247 163.035 7.9958 162.83 7.53847 162.652L4.82247 161.574L5.14447 161.35L7.60847 162.316Z" fill="#421D12"/>
<path d="M0.230469 146.357C0.230469 146.329 0.258469 146.315 0.314468 146.315C0.370468 146.315 0.398469 146.329 0.398469 146.357C0.398469 146.693 0.421802 146.936 0.468469 147.085C0.515136 147.244 0.603802 147.351 0.734468 147.407C0.874469 147.463 1.08447 147.491 1.36447 147.491H7.84647C8.12647 147.491 8.3318 147.463 8.46247 147.407C8.59314 147.351 8.6818 147.244 8.72847 147.085C8.78447 146.936 8.81247 146.693 8.81247 146.357C8.81247 146.329 8.84047 146.315 8.89647 146.315C8.95247 146.315 8.98047 146.329 8.98047 146.357V152.069C8.98047 152.162 8.93847 152.209 8.85447 152.209L7.09047 152.237C7.06247 152.237 7.0438 152.209 7.03447 152.153C7.03447 152.106 7.04847 152.078 7.07647 152.069C7.5898 152.004 7.9818 151.822 8.25247 151.523C8.52314 151.224 8.65847 150.832 8.65847 150.347V149.633C8.65847 149.222 8.5978 148.947 8.47647 148.807C8.35514 148.667 8.12647 148.597 7.79047 148.597H1.42047C1.08447 148.597 0.855802 148.658 0.734468 148.779C0.613135 148.91 0.552469 149.166 0.552469 149.549V150.473C0.552469 150.996 0.70647 151.43 1.01447 151.775C1.3318 152.13 1.7798 152.372 2.35847 152.503C2.37714 152.503 2.38647 152.522 2.38647 152.559C2.38647 152.587 2.37714 152.61 2.35847 152.629C2.34914 152.657 2.3398 152.671 2.33047 152.671C1.65847 152.578 1.02847 152.531 0.440469 152.531C0.365802 152.531 0.309802 152.517 0.272469 152.489C0.244469 152.461 0.230469 152.405 0.230469 152.321V146.357ZM3.45047 151.537C3.8518 151.537 4.1458 151.42 4.33247 151.187C4.52847 150.963 4.62647 150.604 4.62647 150.109V148.065H4.94847V150.137C4.94847 150.613 5.0278 150.963 5.18647 151.187C5.35447 151.411 5.61114 151.523 5.95647 151.523C5.97514 151.523 5.98447 151.546 5.98447 151.593C5.98447 151.649 5.97514 151.677 5.95647 151.677L4.78047 151.663L4.15047 151.677C3.8518 151.696 3.61847 151.705 3.45047 151.705C3.4318 151.705 3.42247 151.677 3.42247 151.621C3.42247 151.565 3.4318 151.537 3.45047 151.537Z" fill="#421D12"/>
<path d="M1.36447 142.577C1.07514 142.577 0.865135 142.6 0.734468 142.647C0.603802 142.703 0.515136 142.806 0.468469 142.955C0.421802 143.114 0.398469 143.366 0.398469 143.711C0.398469 143.73 0.370468 143.739 0.314468 143.739C0.258469 143.739 0.230469 143.73 0.230469 143.711C0.230469 143.412 0.235135 143.179 0.244469 143.011L0.258469 142.003L0.244469 141.023C0.235135 140.846 0.230469 140.603 0.230469 140.295C0.230469 140.276 0.258469 140.267 0.314468 140.267C0.370468 140.267 0.398469 140.276 0.398469 140.295C0.398469 140.631 0.421802 140.878 0.468469 141.037C0.515136 141.196 0.603802 141.303 0.734468 141.359C0.874469 141.424 1.08447 141.457 1.36447 141.457H7.84647C8.12647 141.457 8.3318 141.424 8.46247 141.359C8.59314 141.303 8.6818 141.196 8.72847 141.037C8.78447 140.878 8.81247 140.631 8.81247 140.295C8.81247 140.276 8.84047 140.267 8.89647 140.267C8.95247 140.267 8.98047 140.276 8.98047 140.295L8.96647 141.023C8.9478 141.434 8.93847 141.76 8.93847 142.003C8.93847 142.274 8.9478 142.614 8.96647 143.025L8.98047 143.711C8.98047 143.73 8.95247 143.739 8.89647 143.739C8.84047 143.739 8.81247 143.73 8.81247 143.711C8.81247 143.375 8.78447 143.128 8.72847 142.969C8.67247 142.82 8.57447 142.717 8.43447 142.661C8.3038 142.605 8.09847 142.577 7.81847 142.577H1.36447Z" fill="#421D12"/>
<path d="M8.98047 138.32C8.98047 138.348 8.95247 138.362 8.89647 138.362C8.84047 138.362 8.81247 138.348 8.81247 138.32C8.81247 137.648 8.3878 137.144 7.53847 136.808L0.244469 133.952C0.207135 133.943 0.188469 133.891 0.188469 133.798C0.188469 133.705 0.207135 133.653 0.244469 133.644L7.81847 130.13C8.17314 129.962 8.42514 129.789 8.57447 129.612C8.73314 129.444 8.81247 129.234 8.81247 128.982C8.81247 128.954 8.84047 128.94 8.89647 128.94C8.95247 128.94 8.98047 128.954 8.98047 128.982L8.96647 129.416C8.9478 129.659 8.93847 129.887 8.93847 130.102C8.93847 130.606 8.9478 131.091 8.96647 131.558C8.9758 131.707 8.98047 131.899 8.98047 132.132C8.98047 132.16 8.95247 132.174 8.89647 132.174C8.84047 132.174 8.81247 132.16 8.81247 132.132C8.81247 131.553 8.63514 131.264 8.28047 131.264C8.13114 131.264 7.96314 131.311 7.77647 131.404L1.53247 134.274L0.720469 133.77L7.60847 136.472C7.8138 136.547 7.98647 136.584 8.12647 136.584C8.5838 136.584 8.81247 136.229 8.81247 135.52C8.81247 135.492 8.84047 135.478 8.89647 135.478C8.95247 135.478 8.98047 135.492 8.98047 135.52L8.96647 136.15C8.9478 136.505 8.93847 136.813 8.93847 137.074C8.93847 137.27 8.9478 137.489 8.96647 137.732L8.98047 138.32Z" fill="#421D12"/>
<path d="M0.227531 126.681C0.227531 126.448 0.633532 126.019 1.44553 125.394C2.25753 124.768 3.39153 124.003 4.84753 123.097L5.15553 124.035C3.9422 124.829 2.99486 125.491 2.31353 126.023C1.64153 126.565 1.15153 127.045 0.843531 127.465C0.544864 127.885 0.395531 128.291 0.395531 128.683C0.395531 128.711 0.367531 128.726 0.311531 128.726C0.255531 128.726 0.227531 128.711 0.227531 128.683V126.681ZM9.01953 123.055C9.01953 123.849 8.86086 124.46 8.54353 124.889C8.23553 125.319 7.8062 125.534 7.25553 125.534C6.7982 125.534 6.36886 125.394 5.96753 125.114C5.5662 124.843 5.2442 124.479 5.00153 124.021C4.75886 123.564 4.63753 123.079 4.63753 122.565C4.63753 122.369 4.64686 122.141 4.66553 121.88H1.36153C1.08153 121.88 0.871531 121.908 0.731531 121.964C0.600864 122.02 0.512197 122.122 0.46553 122.271C0.418863 122.43 0.395531 122.677 0.395531 123.013C0.395531 123.041 0.367531 123.055 0.311531 123.055C0.255531 123.055 0.227531 123.041 0.227531 123.013C0.227531 122.724 0.232198 122.495 0.241531 122.327L0.255531 121.319L0.241531 120.34C0.232198 120.162 0.227531 119.924 0.227531 119.625C0.227531 119.597 0.255531 119.583 0.311531 119.583C0.367531 119.583 0.395531 119.597 0.395531 119.625C0.395531 119.961 0.418863 120.209 0.46553 120.368C0.512197 120.526 0.600864 120.633 0.731531 120.689C0.871531 120.745 1.08153 120.773 1.36153 120.773H7.84353C8.12353 120.773 8.32886 120.745 8.45953 120.689C8.5902 120.633 8.67886 120.526 8.72553 120.368C8.78153 120.218 8.80953 119.975 8.80953 119.639C8.80953 119.621 8.83753 119.611 8.89353 119.611C8.94953 119.611 8.97753 119.621 8.97753 119.639L8.96353 120.34C8.94486 120.75 8.93553 121.077 8.93553 121.319C8.93553 121.487 8.9402 121.646 8.94953 121.796C8.95886 121.945 8.9682 122.076 8.97753 122.188C9.00553 122.495 9.01953 122.785 9.01953 123.055ZM6.75153 124.371C7.48886 124.371 8.01153 124.232 8.31953 123.951C8.62753 123.671 8.78153 123.284 8.78153 122.789C8.78153 122.547 8.7582 122.36 8.71153 122.229C8.66486 122.108 8.57153 122.02 8.43153 121.964C8.30086 121.908 8.09553 121.88 7.81553 121.88H5.02953C4.9922 122.234 4.97353 122.509 4.97353 122.705C4.97353 123.303 5.1042 123.727 5.36553 123.979C5.6362 124.241 6.0982 124.371 6.75153 124.371Z" fill="#421D12"/>
<path d="M0.230469 110.637C0.230469 110.609 0.258469 110.595 0.314468 110.595C0.370468 110.595 0.398469 110.609 0.398469 110.637C0.398469 110.973 0.421802 111.216 0.468469 111.365C0.515136 111.524 0.603802 111.631 0.734468 111.687C0.874469 111.743 1.08447 111.771 1.36447 111.771H7.84647C8.12647 111.771 8.3318 111.743 8.46247 111.687C8.59314 111.631 8.6818 111.524 8.72847 111.365C8.78447 111.216 8.81247 110.973 8.81247 110.637C8.81247 110.609 8.84047 110.595 8.89647 110.595C8.95247 110.595 8.98047 110.609 8.98047 110.637V116.349C8.98047 116.443 8.93847 116.489 8.85447 116.489L7.09047 116.517C7.06247 116.517 7.0438 116.489 7.03447 116.433C7.03447 116.387 7.04847 116.359 7.07647 116.349C7.5898 116.284 7.9818 116.102 8.25247 115.803C8.52314 115.505 8.65847 115.113 8.65847 114.627V113.913C8.65847 113.503 8.5978 113.227 8.47647 113.087C8.35514 112.947 8.12647 112.877 7.79047 112.877H1.42047C1.08447 112.877 0.855802 112.938 0.734468 113.059C0.613135 113.19 0.552469 113.447 0.552469 113.829V114.753C0.552469 115.276 0.70647 115.71 1.01447 116.055C1.3318 116.41 1.7798 116.653 2.35847 116.783C2.37714 116.783 2.38647 116.802 2.38647 116.839C2.38647 116.867 2.37714 116.891 2.35847 116.909C2.34914 116.937 2.3398 116.951 2.33047 116.951C1.65847 116.858 1.02847 116.811 0.440469 116.811C0.365802 116.811 0.309802 116.797 0.272469 116.769C0.244469 116.741 0.230469 116.685 0.230469 116.601V110.637ZM3.45047 115.817C3.8518 115.817 4.1458 115.701 4.33247 115.467C4.52847 115.243 4.62647 114.884 4.62647 114.389V112.345H4.94847V114.417C4.94847 114.893 5.0278 115.243 5.18647 115.467C5.35447 115.691 5.61114 115.803 5.95647 115.803C5.97514 115.803 5.98447 115.827 5.98447 115.873C5.98447 115.929 5.97514 115.957 5.95647 115.957L4.78047 115.943L4.15047 115.957C3.8518 115.976 3.61847 115.985 3.45047 115.985C3.4318 115.985 3.42247 115.957 3.42247 115.901C3.42247 115.845 3.4318 115.817 3.45047 115.817Z" fill="#421D12"/>
<path d="M8.70072 102.507C8.70072 101.929 8.53738 101.476 8.21072 101.149C7.89338 100.823 7.38005 100.58 6.67072 100.421C6.65205 100.412 6.64272 100.379 6.64272 100.323C6.64272 100.277 6.65672 100.253 6.68472 100.253C6.94605 100.291 7.37072 100.333 7.95872 100.379C8.54672 100.426 8.99005 100.449 9.28872 100.449C9.33538 100.449 9.35872 100.477 9.35872 100.533C9.35872 100.589 9.33538 100.617 9.28872 100.617C9.08338 100.617 8.98072 100.874 8.98072 101.387C8.95272 102.19 8.93872 103.128 8.93872 104.201C8.93872 104.752 8.94805 105.335 8.96672 105.951L8.98072 106.903C8.98072 107.249 9.00405 107.501 9.05072 107.659C9.09739 107.818 9.19072 107.921 9.33072 107.967C9.36805 107.977 9.38672 108.005 9.38672 108.051C9.38672 108.107 9.36805 108.135 9.33072 108.135C9.06939 108.107 8.64939 108.075 8.07072 108.037C7.49205 108.009 7.03005 107.995 6.68472 107.995C6.65672 107.995 6.64272 107.967 6.64272 107.911C6.64272 107.865 6.65672 107.841 6.68472 107.841C7.40339 107.776 7.91672 107.589 8.22472 107.281C8.54205 106.973 8.70072 106.516 8.70072 105.909C8.70072 105.564 8.67739 105.317 8.63072 105.167C8.59339 105.018 8.51405 104.915 8.39272 104.859C8.28072 104.803 8.08939 104.775 7.81872 104.775H1.36472C1.07538 104.775 0.865385 104.803 0.734718 104.859C0.604052 104.925 0.515385 105.046 0.468718 105.223C0.42205 105.401 0.398718 105.685 0.398718 106.077C0.398718 106.096 0.370718 106.105 0.314718 106.105C0.258718 106.105 0.230719 106.096 0.230719 106.077C0.230719 105.751 0.235385 105.494 0.244719 105.307L0.258718 104.201L0.244719 103.123C0.235385 102.937 0.230719 102.675 0.230719 102.339C0.230719 102.311 0.258718 102.297 0.314718 102.297C0.370718 102.297 0.398718 102.311 0.398718 102.339C0.398718 102.722 0.42205 103.002 0.468718 103.179C0.515385 103.366 0.604052 103.492 0.734718 103.557C0.874719 103.623 1.08472 103.655 1.36472 103.655H7.84672C8.10805 103.655 8.29472 103.627 8.40672 103.571C8.52805 103.515 8.60738 103.408 8.64472 103.249C8.68205 103.1 8.70072 102.853 8.70072 102.507Z" fill="#421D12"/>
<path d="M8.65847 89.8031L8.63047 90.1671H1.82647C1.34114 90.1671 0.981802 90.2558 0.748468 90.4331C0.515135 90.6198 0.398469 90.8998 0.398469 91.2731C0.398469 91.2918 0.370468 91.3011 0.314468 91.3011C0.258469 91.3011 0.230469 91.2918 0.230469 91.2731C0.230469 91.0305 0.235135 90.8438 0.244469 90.7131L0.258469 89.9991L0.244469 89.2431C0.235135 89.1031 0.230469 88.8978 0.230469 88.6271C0.230469 88.6085 0.258469 88.5991 0.314468 88.5991C0.370468 88.5991 0.398469 88.6085 0.398469 88.6271C0.398469 89.0285 0.515135 89.3225 0.748468 89.5091C0.981802 89.7051 1.34114 89.8031 1.82647 89.8031H8.65847ZM0.0484686 96.8871C0.0298023 96.8871 0.0158024 96.8638 0.00646877 96.8171C-0.00286484 96.7798 0.00180244 96.7518 0.0204687 96.7331L7.83247 90.1391C8.19647 89.8311 8.44847 89.5558 8.58847 89.3131C8.7378 89.0705 8.81247 88.8278 8.81247 88.5851C8.81247 88.5665 8.84047 88.5571 8.89647 88.5571C8.95247 88.5571 8.98047 88.5665 8.98047 88.5851L8.96647 89.1311C8.95714 89.2431 8.95247 89.4018 8.95247 89.6071L8.96647 90.3211C8.9758 90.4145 8.98047 90.5218 8.98047 90.6431C8.98047 90.7178 8.9618 90.7738 8.92447 90.8111C8.88714 90.8485 8.81247 90.9045 8.70047 90.9791L8.25247 91.3151L1.67247 96.7751L0.0484686 96.8871ZM0.0484686 96.8871L0.482469 96.5371H7.37047C7.8558 96.5371 8.21514 96.4485 8.44847 96.2711C8.69114 96.0938 8.81247 95.8185 8.81247 95.4451C8.81247 95.4265 8.84047 95.4171 8.89647 95.4171C8.95247 95.4171 8.98047 95.4265 8.98047 95.4451L8.96647 96.0051C8.9478 96.2851 8.93847 96.5231 8.93847 96.7191C8.93847 96.8871 8.9478 97.1298 8.96647 97.4471L8.98047 98.0351C8.98047 98.0538 8.95247 98.0631 8.89647 98.0631C8.84047 98.0631 8.81247 98.0538 8.81247 98.0351C8.81247 97.2698 8.3318 96.8871 7.37047 96.8871H0.0484686Z" fill="#421D12"/>
<path d="M1.36447 84.9174C1.07514 84.9174 0.865135 84.9408 0.734468 84.9874C0.603802 85.0434 0.515136 85.1461 0.468469 85.2954C0.421802 85.4541 0.398469 85.7061 0.398469 86.0514C0.398469 86.0701 0.370468 86.0794 0.314468 86.0794C0.258469 86.0794 0.230469 86.0701 0.230469 86.0514C0.230469 85.7528 0.235135 85.5194 0.244469 85.3514L0.258469 84.3434L0.244469 83.3634C0.235135 83.1861 0.230469 82.9434 0.230469 82.6354C0.230469 82.6168 0.258469 82.6074 0.314468 82.6074C0.370468 82.6074 0.398469 82.6168 0.398469 82.6354C0.398469 82.9714 0.421802 83.2188 0.468469 83.3774C0.515136 83.5361 0.603802 83.6434 0.734468 83.6994C0.874469 83.7648 1.08447 83.7974 1.36447 83.7974H7.84647C8.12647 83.7974 8.3318 83.7648 8.46247 83.6994C8.59314 83.6434 8.6818 83.5361 8.72847 83.3774C8.78447 83.2188 8.81247 82.9714 8.81247 82.6354C8.81247 82.6168 8.84047 82.6074 8.89647 82.6074C8.95247 82.6074 8.98047 82.6168 8.98047 82.6354L8.96647 83.3634C8.9478 83.7741 8.93847 84.1008 8.93847 84.3434C8.93847 84.6141 8.9478 84.9548 8.96647 85.3654L8.98047 86.0514C8.98047 86.0701 8.95247 86.0794 8.89647 86.0794C8.84047 86.0794 8.81247 86.0701 8.81247 86.0514C8.81247 85.7154 8.78447 85.4681 8.72847 85.3094C8.67247 85.1601 8.57447 85.0574 8.43447 85.0014C8.3038 84.9454 8.09847 84.9174 7.81847 84.9174H1.36447Z" fill="#421D12"/>
<path d="M0.227531 74.0526C0.227531 73.8193 0.633532 73.3899 1.44553 72.7646C2.25753 72.1393 3.39153 71.3739 4.84753 70.4686L5.15553 71.4066C3.9422 72.1999 2.99486 72.8626 2.31353 73.3946C1.64153 73.9359 1.15153 74.4166 0.843531 74.8366C0.544864 75.2566 0.395531 75.6626 0.395531 76.0546C0.395531 76.0826 0.367531 76.0966 0.311531 76.0966C0.255531 76.0966 0.227531 76.0826 0.227531 76.0546V74.0526ZM9.01953 70.4266C9.01953 71.2199 8.86086 71.8313 8.54353 72.2606C8.23553 72.6899 7.8062 72.9046 7.25553 72.9046C6.7982 72.9046 6.36886 72.7646 5.96753 72.4846C5.5662 72.2139 5.2442 71.8499 5.00153 71.3926C4.75886 70.9353 4.63753 70.4499 4.63753 69.9366C4.63753 69.7406 4.64686 69.5119 4.66553 69.2506H1.36153C1.08153 69.2506 0.871531 69.2786 0.731531 69.3346C0.600864 69.3906 0.512197 69.4933 0.46553 69.6426C0.418863 69.8013 0.395531 70.0486 0.395531 70.3846C0.395531 70.4126 0.367531 70.4266 0.311531 70.4266C0.255531 70.4266 0.227531 70.4126 0.227531 70.3846C0.227531 70.0953 0.232198 69.8666 0.241531 69.6986L0.255531 68.6906L0.241531 67.7106C0.232198 67.5333 0.227531 67.2953 0.227531 66.9966C0.227531 66.9686 0.255531 66.9546 0.311531 66.9546C0.367531 66.9546 0.395531 66.9686 0.395531 66.9966C0.395531 67.3326 0.418863 67.5799 0.46553 67.7386C0.512197 67.8973 0.600864 68.0046 0.731531 68.0606C0.871531 68.1166 1.08153 68.1446 1.36153 68.1446H7.84353C8.12353 68.1446 8.32886 68.1166 8.45953 68.0606C8.5902 68.0046 8.67886 67.8973 8.72553 67.7386C8.78153 67.5893 8.80953 67.3466 8.80953 67.0106C8.80953 66.9919 8.83753 66.9826 8.89353 66.9826C8.94953 66.9826 8.97753 66.9919 8.97753 67.0106L8.96353 67.7106C8.94486 68.1213 8.93553 68.4479 8.93553 68.6906C8.93553 68.8586 8.9402 69.0173 8.94953 69.1666C8.95886 69.3159 8.9682 69.4466 8.97753 69.5586C9.00553 69.8666 9.01953 70.1559 9.01953 70.4266ZM6.75153 71.7426C7.48886 71.7426 8.01153 71.6026 8.31953 71.3226C8.62753 71.0426 8.78153 70.6553 8.78153 70.1606C8.78153 69.9179 8.7582 69.7313 8.71153 69.6006C8.66486 69.4793 8.57153 69.3906 8.43153 69.3346C8.30086 69.2786 8.09553 69.2506 7.81553 69.2506H5.02953C4.9922 69.6053 4.97353 69.8806 4.97353 70.0766C4.97353 70.6739 5.1042 71.0986 5.36553 71.3506C5.6362 71.6119 6.0982 71.7426 6.75153 71.7426Z" fill="#421D12"/>
<path d="M0.230469 58.0093C0.230469 57.9813 0.258469 57.9673 0.314468 57.9673C0.370468 57.9673 0.398469 57.9813 0.398469 58.0093C0.398469 58.3453 0.421802 58.588 0.468469 58.7373C0.515136 58.896 0.603802 59.0033 0.734468 59.0593C0.874469 59.1153 1.08447 59.1433 1.36447 59.1433H7.84647C8.12647 59.1433 8.3318 59.1153 8.46247 59.0593C8.59314 59.0033 8.6818 58.896 8.72847 58.7373C8.78447 58.588 8.81247 58.3453 8.81247 58.0093C8.81247 57.9813 8.84047 57.9673 8.89647 57.9673C8.95247 57.9673 8.98047 57.9813 8.98047 58.0093V63.7213C8.98047 63.8146 8.93847 63.8613 8.85447 63.8613L7.09047 63.8893C7.06247 63.8893 7.0438 63.8613 7.03447 63.8053C7.03447 63.7586 7.04847 63.7306 7.07647 63.7213C7.5898 63.6559 7.9818 63.474 8.25247 63.1753C8.52314 62.8766 8.65847 62.4846 8.65847 61.9993V61.2853C8.65847 60.8746 8.5978 60.5993 8.47647 60.4593C8.35514 60.3193 8.12647 60.2493 7.79047 60.2493H1.42047C1.08447 60.2493 0.855802 60.3099 0.734468 60.4313C0.613135 60.5619 0.552469 60.8186 0.552469 61.2013V62.1253C0.552469 62.6479 0.70647 63.082 1.01447 63.4273C1.3318 63.782 1.7798 64.0246 2.35847 64.1553C2.37714 64.1553 2.38647 64.1739 2.38647 64.2113C2.38647 64.2393 2.37714 64.2626 2.35847 64.2813C2.34914 64.3093 2.3398 64.3233 2.33047 64.3233C1.65847 64.2299 1.02847 64.1833 0.440469 64.1833C0.365802 64.1833 0.309802 64.1693 0.272469 64.1413C0.244469 64.1133 0.230469 64.0573 0.230469 63.9733V58.0093ZM3.45047 63.1893C3.8518 63.1893 4.1458 63.0726 4.33247 62.8393C4.52847 62.6153 4.62647 62.256 4.62647 61.7613V59.7173H4.94847V61.7893C4.94847 62.2653 5.0278 62.6153 5.18647 62.8393C5.35447 63.0633 5.61114 63.1753 5.95647 63.1753C5.97514 63.1753 5.98447 63.1986 5.98447 63.2453C5.98447 63.3013 5.97514 63.3293 5.95647 63.3293L4.78047 63.3153L4.15047 63.3293C3.8518 63.348 3.61847 63.3573 3.45047 63.3573C3.4318 63.3573 3.42247 63.3293 3.42247 63.2733C3.42247 63.2173 3.4318 63.1893 3.45047 63.1893Z" fill="#421D12"/>
<path d="M1.36447 54.2294C1.07514 54.2294 0.865135 54.2528 0.734468 54.2994C0.603802 54.3554 0.515136 54.4581 0.468469 54.6074C0.421802 54.7661 0.398469 55.0181 0.398469 55.3634C0.398469 55.3821 0.370468 55.3914 0.314468 55.3914C0.258469 55.3914 0.230469 55.3821 0.230469 55.3634C0.230469 55.0648 0.235135 54.8314 0.244469 54.6634L0.258469 53.6554L0.244469 52.6754C0.235135 52.4981 0.230469 52.2554 0.230469 51.9474C0.230469 51.9288 0.258469 51.9194 0.314468 51.9194C0.370468 51.9194 0.398469 51.9288 0.398469 51.9474C0.398469 52.2834 0.421802 52.5308 0.468469 52.6894C0.515136 52.8481 0.603802 52.9554 0.734468 53.0114C0.874469 53.0768 1.08447 53.1094 1.36447 53.1094H7.84647C8.12647 53.1094 8.3318 53.0768 8.46247 53.0114C8.59314 52.9554 8.6818 52.8481 8.72847 52.6894C8.78447 52.5308 8.81247 52.2834 8.81247 51.9474C8.81247 51.9288 8.84047 51.9194 8.89647 51.9194C8.95247 51.9194 8.98047 51.9288 8.98047 51.9474L8.96647 52.6754C8.9478 53.0861 8.93847 53.4128 8.93847 53.6554C8.93847 53.9261 8.9478 54.2668 8.96647 54.6774L8.98047 55.3634C8.98047 55.3821 8.95247 55.3914 8.89647 55.3914C8.84047 55.3914 8.81247 55.3821 8.81247 55.3634C8.81247 55.0274 8.78447 54.7801 8.72847 54.6214C8.67247 54.4721 8.57447 54.3694 8.43447 54.3134C8.3038 54.2574 8.09847 54.2294 7.81847 54.2294H1.36447Z" fill="#421D12"/>
<path d="M7.41081 45.087C7.05615 45.087 6.74348 45.1757 6.47281 45.353C6.21148 45.5304 5.98281 45.745 5.78681 45.997C5.60015 46.249 5.37148 46.599 5.10081 47.047C4.81148 47.5137 4.55948 47.8824 4.34481 48.153C4.13948 48.433 3.88281 48.671 3.57481 48.867C3.26681 49.063 2.90281 49.161 2.48281 49.161C2.02548 49.161 1.61015 49.0397 1.23681 48.797C0.872812 48.5637 0.583479 48.223 0.368813 47.775C0.163479 47.3364 0.060812 46.823 0.060812 46.235C0.060812 45.8617 0.107479 45.493 0.200812 45.129C0.284812 44.765 0.410812 44.4477 0.578813 44.177C0.606812 44.1304 0.639479 44.0977 0.676812 44.079C0.714146 44.0604 0.770145 44.051 0.844812 44.051L2.84681 43.911C2.88415 43.9017 2.90748 43.9204 2.91681 43.967C2.92615 44.023 2.91215 44.0557 2.87481 44.065C2.16548 44.289 1.56348 44.6017 1.06881 45.003C0.574145 45.4044 0.326812 45.927 0.326812 46.571C0.326812 47.0097 0.443479 47.3784 0.676812 47.677C0.919478 47.9757 1.31148 48.125 1.85281 48.125C2.26348 48.125 2.62281 48.0317 2.93081 47.845C3.23881 47.6584 3.49548 47.4297 3.70081 47.159C3.91548 46.8884 4.15815 46.529 4.42881 46.081C4.70881 45.6424 4.94681 45.2924 5.14281 45.031C5.34815 44.779 5.59548 44.5644 5.88481 44.387C6.18348 44.2097 6.52881 44.121 6.92081 44.121C7.39681 44.121 7.80281 44.247 8.13881 44.499C8.47481 44.7604 8.72215 45.0964 8.88081 45.507C9.04881 45.927 9.13281 46.3657 9.13281 46.823C9.13281 47.439 9.02548 48.0037 8.81081 48.517C8.74548 48.657 8.66148 48.727 8.55881 48.727L6.80881 48.797C6.77148 48.797 6.74815 48.769 6.73881 48.713C6.73881 48.6664 6.75748 48.6384 6.79481 48.629C7.29881 48.5264 7.77481 48.307 8.22281 47.971C8.67081 47.6444 8.89481 47.173 8.89481 46.557C8.89481 46.0904 8.75481 45.7264 8.47481 45.465C8.19481 45.213 7.84015 45.087 7.41081 45.087Z" fill="#421D12"/>
<path d="M7.41081 36.7008C7.05615 36.7008 6.74348 36.7895 6.47281 36.9668C6.21148 37.1441 5.98281 37.3588 5.78681 37.6108C5.60015 37.8628 5.37148 38.2128 5.10081 38.6608C4.81148 39.1275 4.55948 39.4961 4.34481 39.7668C4.13948 40.0468 3.88281 40.2848 3.57481 40.4808C3.26681 40.6768 2.90281 40.7748 2.48281 40.7748C2.02548 40.7748 1.61015 40.6535 1.23681 40.4108C0.872812 40.1775 0.583479 39.8368 0.368813 39.3888C0.163479 38.9501 0.060812 38.4368 0.060812 37.8488C0.060812 37.4755 0.107479 37.1068 0.200812 36.7428C0.284812 36.3788 0.410812 36.0615 0.578813 35.7908C0.606812 35.7441 0.639479 35.7115 0.676812 35.6928C0.714146 35.6741 0.770145 35.6648 0.844812 35.6648L2.84681 35.5248C2.88415 35.5155 2.90748 35.5341 2.91681 35.5808C2.92615 35.6368 2.91215 35.6695 2.87481 35.6788C2.16548 35.9028 1.56348 36.2155 1.06881 36.6168C0.574145 37.0181 0.326812 37.5408 0.326812 38.1848C0.326812 38.6235 0.443479 38.9921 0.676812 39.2908C0.919478 39.5895 1.31148 39.7388 1.85281 39.7388C2.26348 39.7388 2.62281 39.6455 2.93081 39.4588C3.23881 39.2721 3.49548 39.0435 3.70081 38.7728C3.91548 38.5021 4.15815 38.1428 4.42881 37.6948C4.70881 37.2561 4.94681 36.9061 5.14281 36.6448C5.34815 36.3928 5.59548 36.1781 5.88481 36.0008C6.18348 35.8235 6.52881 35.7348 6.92081 35.7348C7.39681 35.7348 7.80281 35.8608 8.13881 36.1128C8.47481 36.3741 8.72215 36.7101 8.88081 37.1208C9.04881 37.5408 9.13281 37.9795 9.13281 38.4368C9.13281 39.0528 9.02548 39.6175 8.81081 40.1308C8.74548 40.2708 8.66148 40.3408 8.55881 40.3408L6.80881 40.4108C6.77148 40.4108 6.74815 40.3828 6.73881 40.3268C6.73881 40.2801 6.75748 40.2521 6.79481 40.2428C7.29881 40.1401 7.77481 39.9208 8.22281 39.5848C8.67081 39.2581 8.89481 38.7868 8.89481 38.1708C8.89481 37.7041 8.75481 37.3401 8.47481 37.0788C8.19481 36.8268 7.84015 36.7008 7.41081 36.7008Z" fill="#421D12"/>
<path d="M1.36447 31.3671C1.07514 31.3671 0.865135 31.3905 0.734468 31.4371C0.603802 31.4931 0.515136 31.5958 0.468469 31.7451C0.421802 31.9038 0.398469 32.1558 0.398469 32.5011C0.398469 32.5198 0.370468 32.5291 0.314468 32.5291C0.258469 32.5291 0.230469 32.5198 0.230469 32.5011C0.230469 32.2025 0.235135 31.9691 0.244469 31.8011L0.258469 30.7931L0.244469 29.8131C0.235135 29.6358 0.230469 29.3931 0.230469 29.0851C0.230469 29.0665 0.258469 29.0571 0.314468 29.0571C0.370468 29.0571 0.398469 29.0665 0.398469 29.0851C0.398469 29.4211 0.421802 29.6685 0.468469 29.8271C0.515136 29.9858 0.603802 30.0931 0.734468 30.1491C0.874469 30.2145 1.08447 30.2471 1.36447 30.2471H7.84647C8.12647 30.2471 8.3318 30.2145 8.46247 30.1491C8.59314 30.0931 8.6818 29.9858 8.72847 29.8271C8.78447 29.6685 8.81247 29.4211 8.81247 29.0851C8.81247 29.0665 8.84047 29.0571 8.89647 29.0571C8.95247 29.0571 8.98047 29.0665 8.98047 29.0851L8.96647 29.8131C8.9478 30.2238 8.93847 30.5505 8.93847 30.7931C8.93847 31.0638 8.9478 31.4045 8.96647 31.8151L8.98047 32.5011C8.98047 32.5198 8.95247 32.5291 8.89647 32.5291C8.84047 32.5291 8.81247 32.5198 8.81247 32.5011C8.81247 32.1651 8.78447 31.9178 8.72847 31.7591C8.67247 31.6098 8.57447 31.5071 8.43447 31.4511C8.3038 31.3951 8.09847 31.3671 7.81847 31.3671H1.36447Z" fill="#421D12"/>
<path d="M8.70072 20.9273C8.70072 20.3487 8.53738 19.896 8.21072 19.5693C7.89338 19.2427 7.38005 19 6.67072 18.8413C6.65205 18.832 6.64272 18.7993 6.64272 18.7433C6.64272 18.6967 6.65672 18.6733 6.68472 18.6733C6.94605 18.7107 7.37072 18.7527 7.95872 18.7993C8.54672 18.846 8.99005 18.8693 9.28872 18.8693C9.33538 18.8693 9.35872 18.8973 9.35872 18.9533C9.35872 19.0093 9.33538 19.0373 9.28872 19.0373C9.08338 19.0373 8.98072 19.294 8.98072 19.8073C8.95272 20.61 8.93872 21.548 8.93872 22.6213C8.93872 23.172 8.94805 23.7553 8.96672 24.3713L8.98072 25.3233C8.98072 25.6687 9.00405 25.9207 9.05072 26.0793C9.09739 26.238 9.19072 26.3407 9.33072 26.3873C9.36805 26.3967 9.38672 26.4247 9.38672 26.4713C9.38672 26.5273 9.36805 26.5553 9.33072 26.5553C9.06939 26.5273 8.64939 26.4947 8.07072 26.4573C7.49205 26.4293 7.03005 26.4153 6.68472 26.4153C6.65672 26.4153 6.64272 26.3873 6.64272 26.3313C6.64272 26.2847 6.65672 26.2613 6.68472 26.2613C7.40339 26.196 7.91672 26.0093 8.22472 25.7013C8.54205 25.3933 8.70072 24.936 8.70072 24.3293C8.70072 23.984 8.67739 23.7367 8.63072 23.5873C8.59339 23.438 8.51405 23.3353 8.39272 23.2793C8.28072 23.2233 8.08939 23.1953 7.81872 23.1953H1.36472C1.07538 23.1953 0.865385 23.2233 0.734718 23.2793C0.604052 23.3447 0.515385 23.466 0.468718 23.6433C0.42205 23.8207 0.398718 24.1053 0.398718 24.4973C0.398718 24.516 0.370718 24.5253 0.314718 24.5253C0.258718 24.5253 0.230719 24.516 0.230719 24.4973C0.230719 24.1707 0.235385 23.914 0.244719 23.7273L0.258718 22.6213L0.244719 21.5433C0.235385 21.3567 0.230719 21.0953 0.230719 20.7593C0.230719 20.7313 0.258718 20.7173 0.314718 20.7173C0.370718 20.7173 0.398718 20.7313 0.398718 20.7593C0.398718 21.142 0.42205 21.422 0.468718 21.5993C0.515385 21.786 0.604052 21.912 0.734718 21.9773C0.874719 22.0427 1.08472 22.0753 1.36472 22.0753H7.84672C8.10805 22.0753 8.29472 22.0473 8.40672 21.9913C8.52805 21.9353 8.60738 21.828 8.64472 21.6693C8.68205 21.52 8.70072 21.2727 8.70072 20.9273Z" fill="#421D12"/>
<path d="M5.04375 11.061V13.945L4.72175 14.043V10.851L5.04375 11.061ZM0.39575 17.697C0.39575 17.7437 0.367749 17.767 0.311749 17.767C0.25575 17.767 0.22775 17.7437 0.22775 17.697C0.22775 17.5197 0.237083 17.2443 0.25575 16.871C0.274416 16.479 0.28375 16.199 0.28375 16.031C0.28375 15.8163 0.274416 15.5503 0.25575 15.233C0.237083 14.9157 0.22775 14.6777 0.22775 14.519C0.22775 14.4817 0.25575 14.463 0.311749 14.463C0.367749 14.463 0.39575 14.4817 0.39575 14.519C0.39575 14.8363 0.42375 15.065 0.47975 15.205C0.545083 15.345 0.657084 15.415 0.81575 15.415C0.974417 15.415 1.19375 15.345 1.47375 15.205L7.73175 12.195L8.40375 12.643L2.07575 9.913C1.75842 9.78233 1.49708 9.717 1.29175 9.717C0.993083 9.717 0.769083 9.83366 0.61975 10.067C0.470417 10.3003 0.39575 10.6363 0.39575 11.075C0.39575 11.1217 0.367749 11.145 0.311749 11.145C0.25575 11.145 0.22775 11.1217 0.22775 11.075C0.22775 10.907 0.237083 10.6643 0.25575 10.347C0.274416 9.99233 0.28375 9.68433 0.28375 9.423C0.28375 9.18033 0.274416 8.891 0.25575 8.555C0.237083 8.25633 0.22775 8.01366 0.22775 7.827C0.22775 7.78966 0.25575 7.771 0.311749 7.771C0.367749 7.771 0.39575 7.78966 0.39575 7.827C0.39575 8.08833 0.447083 8.30766 0.54975 8.485C0.652417 8.67166 0.82975 8.849 1.08175 9.017C1.33375 9.185 1.70708 9.37633 2.20175 9.591L9.07575 12.573C9.10375 12.5823 9.11775 12.615 9.11775 12.671C9.12708 12.727 9.11308 12.7597 9.07575 12.769L2.14575 16.129C1.46442 16.4557 1.00242 16.7263 0.759749 16.941C0.517083 17.165 0.39575 17.417 0.39575 17.697ZM11.2738 12.503C11.3204 12.5497 11.3438 12.6057 11.3438 12.671C11.3438 12.727 11.3204 12.7783 11.2738 12.825L9.84575 14.253C9.84575 14.2623 9.83642 14.267 9.81775 14.267C9.79908 14.267 9.78042 14.253 9.76175 14.225C9.74308 14.2063 9.73842 14.1923 9.74775 14.183L10.4617 12.671L9.74775 11.145C9.73842 11.1263 9.74775 11.103 9.77575 11.075C9.81308 11.047 9.83642 11.0423 9.84575 11.061L11.2738 12.503Z" fill="#421D12"/>
<path d="M1.41753 2.282C1.11886 2.282 0.899531 2.31933 0.759531 2.394C0.628864 2.46867 0.53553 2.60867 0.47953 2.814C0.423531 3.02867 0.395531 3.36933 0.395531 3.836C0.395531 3.864 0.367531 3.878 0.311531 3.878C0.255531 3.878 0.227531 3.864 0.227531 3.836C0.227531 3.45333 0.232198 3.15467 0.241531 2.94L0.255531 1.722L0.241531 0.756C0.232198 0.578667 0.227531 0.340667 0.227531 0.0420001C0.227531 0.014 0.255531 0 0.311531 0C0.367531 0 0.395531 0.014 0.395531 0.0420001C0.395531 0.378 0.418863 0.620667 0.46553 0.77C0.512197 0.919333 0.600864 1.022 0.731531 1.078C0.871531 1.134 1.08153 1.162 1.36153 1.162H7.84353C8.12353 1.162 8.32886 1.134 8.45953 1.078C8.5902 1.022 8.67886 0.914667 8.72553 0.756C8.78153 0.606667 8.80953 0.368667 8.80953 0.0420001C8.80953 0.014 8.83753 0 8.89353 0C8.94953 0 8.97753 0.014 8.97753 0.0420001L8.96353 0.742C8.94486 1.15267 8.93553 1.47467 8.93553 1.708C8.93553 1.932 8.94953 2.198 8.97753 2.506C8.97753 2.618 8.9822 2.79067 8.99153 3.024C9.0102 3.26667 9.01953 3.47667 9.01953 3.654C9.01953 4.53133 8.82353 5.236 8.43153 5.768C8.04886 6.3 7.46553 6.566 6.68153 6.566C6.07486 6.566 5.56153 6.412 5.14153 6.104C4.72153 5.80533 4.40886 5.418 4.20353 4.942C3.9982 4.47533 3.89553 3.99 3.89553 3.486C3.89553 3.21533 3.91886 2.99133 3.96553 2.814C3.96553 2.786 3.98886 2.772 4.03553 2.772C4.06353 2.772 4.09153 2.77667 4.11953 2.786C4.14753 2.80467 4.15686 2.82333 4.14753 2.842C4.1102 2.99133 4.09153 3.15467 4.09153 3.332C4.09153 3.892 4.2922 4.36333 4.69353 4.746C5.09486 5.12867 5.67353 5.32 6.42953 5.32C7.16686 5.32 7.74086 5.13333 8.15153 4.76C8.57153 4.38667 8.78153 3.892 8.78153 3.276C8.78153 2.98667 8.7582 2.77667 8.71153 2.646C8.6742 2.51533 8.58553 2.422 8.44553 2.366C8.31486 2.31 8.10486 2.282 7.81553 2.282H1.41753Z" fill="#421D12"/>
</svg>
