<svg width="10" height="284" viewBox="0 0 10 284" fill="none" xmlns="http://www.w3.org/2000/svg">
<path d="M0.0762501 282.368C0.0762501 282.162 0.136917 281.994 0.25825 281.864C0.388917 281.742 0.556917 281.682 0.76225 281.682C0.95825 281.682 1.11225 281.742 1.22425 281.864C1.34558 281.994 1.40625 282.162 1.40625 282.368C1.40625 282.582 1.34558 282.746 1.22425 282.858C1.11225 282.979 0.95825 283.04 0.76225 283.04C0.547583 283.04 0.379584 282.979 0.25825 282.858C0.136917 282.746 0.0762501 282.582 0.0762501 282.368Z" fill="#421D12"/>
<path d="M0.244469 273.067C0.207135 273.057 0.188469 273.006 0.188469 272.913C0.188469 272.819 0.207135 272.768 0.244469 272.759L7.81847 269.245C8.21047 269.067 8.4718 268.899 8.60247 268.741C8.74247 268.591 8.81247 268.377 8.81247 268.097C8.81247 268.069 8.84047 268.055 8.89647 268.055C8.95247 268.055 8.98047 268.069 8.98047 268.097L8.96647 268.531C8.9478 268.773 8.93847 269.002 8.93847 269.217C8.93847 269.637 8.9478 270.052 8.96647 270.463C8.9758 270.593 8.98047 270.771 8.98047 270.995C8.98047 271.023 8.95247 271.037 8.89647 271.037C8.84047 271.037 8.81247 271.023 8.81247 270.995C8.81247 270.724 8.78447 270.528 8.72847 270.407C8.67247 270.285 8.56514 270.225 8.40647 270.225C8.2758 270.225 8.0658 270.29 7.77647 270.421L1.43447 273.389L0.664469 272.857L5.14447 274.621L4.82247 274.845L0.244469 273.067ZM8.98047 281.089C8.98047 281.117 8.95247 281.131 8.89647 281.131C8.84047 281.131 8.81247 281.117 8.81247 281.089C8.81247 280.426 8.3878 279.922 7.53847 279.577L0.244469 276.721C0.207135 276.711 0.188469 276.66 0.188469 276.567C0.188469 276.473 0.207135 276.422 0.244469 276.413L7.81847 272.899C8.1638 272.74 8.4158 272.577 8.57447 272.409C8.73314 272.25 8.81247 272.054 8.81247 271.821C8.81247 271.793 8.84047 271.779 8.89647 271.779C8.95247 271.779 8.98047 271.793 8.98047 271.821L8.96647 272.255C8.9478 272.479 8.93847 272.684 8.93847 272.871C8.93847 273.225 8.9478 273.552 8.96647 273.851C8.9758 273.944 8.98047 274.07 8.98047 274.229C8.98047 274.257 8.95247 274.271 8.89647 274.271C8.84047 274.271 8.81247 274.257 8.81247 274.229C8.81247 274.07 8.7938 273.953 8.75647 273.879C8.72847 273.813 8.67247 273.781 8.58847 273.781C8.4578 273.781 8.18714 273.879 7.77647 274.075L1.43447 277.043L0.664469 276.511L7.53847 279.213C7.76247 279.297 7.9538 279.339 8.11247 279.339C8.33647 279.339 8.50914 279.255 8.63047 279.087C8.7518 278.928 8.81247 278.69 8.81247 278.373C8.81247 278.345 8.84047 278.331 8.89647 278.331C8.95247 278.331 8.98047 278.345 8.98047 278.373L8.96647 278.975C8.9478 279.292 8.93847 279.581 8.93847 279.843C8.93847 280.039 8.9478 280.258 8.96647 280.501L8.98047 281.089ZM7.60847 275.657C7.94447 275.787 8.20114 275.853 8.37847 275.853C8.6678 275.853 8.81247 275.68 8.81247 275.335C8.81247 275.316 8.84047 275.307 8.89647 275.307C8.95247 275.307 8.98047 275.316 8.98047 275.335L8.96647 275.615C8.9478 275.801 8.93847 276.016 8.93847 276.259C8.93847 276.427 8.9478 276.632 8.96647 276.875L8.98047 277.435C8.98047 277.453 8.95247 277.463 8.89647 277.463C8.84047 277.463 8.81247 277.453 8.81247 277.435C8.81247 277.117 8.71447 276.842 8.51847 276.609C8.32247 276.375 7.9958 276.17 7.53847 275.993L4.82247 274.915L5.14447 274.691L7.60847 275.657Z" fill="#421D12"/>
<path d="M0.230469 259.697C0.230469 259.669 0.258468 259.655 0.314468 259.655C0.370468 259.655 0.398469 259.669 0.398469 259.697C0.398469 260.033 0.421802 260.276 0.468469 260.425C0.515135 260.584 0.603802 260.691 0.734468 260.747C0.874468 260.803 1.08447 260.831 1.36447 260.831H7.84647C8.12647 260.831 8.3318 260.803 8.46247 260.747C8.59314 260.691 8.6818 260.584 8.72847 260.425C8.78447 260.276 8.81247 260.033 8.81247 259.697C8.81247 259.669 8.84047 259.655 8.89647 259.655C8.95247 259.655 8.98047 259.669 8.98047 259.697V265.409C8.98047 265.503 8.93847 265.549 8.85447 265.549L7.09047 265.577C7.06247 265.577 7.0438 265.549 7.03447 265.493C7.03447 265.447 7.04847 265.419 7.07647 265.409C7.5898 265.344 7.9818 265.162 8.25247 264.863C8.52314 264.565 8.65847 264.173 8.65847 263.687V262.973C8.65847 262.563 8.5978 262.287 8.47647 262.147C8.35514 262.007 8.12647 261.937 7.79047 261.937H1.42047C1.08447 261.937 0.855802 261.998 0.734468 262.119C0.613135 262.25 0.552469 262.507 0.552469 262.889V263.813C0.552469 264.336 0.706469 264.77 1.01447 265.115C1.3318 265.47 1.7798 265.713 2.35847 265.843C2.37714 265.843 2.38647 265.862 2.38647 265.899C2.38647 265.927 2.37714 265.951 2.35847 265.969C2.34914 265.997 2.3398 266.011 2.33047 266.011C1.65847 265.918 1.02847 265.871 0.440469 265.871C0.365802 265.871 0.309802 265.857 0.272469 265.829C0.244469 265.801 0.230469 265.745 0.230469 265.661V259.697ZM3.45047 264.877C3.8518 264.877 4.1458 264.761 4.33247 264.527C4.52847 264.303 4.62647 263.944 4.62647 263.449V261.405H4.94847V263.477C4.94847 263.953 5.0278 264.303 5.18647 264.527C5.35447 264.751 5.61114 264.863 5.95647 264.863C5.97514 264.863 5.98447 264.887 5.98447 264.933C5.98447 264.989 5.97514 265.017 5.95647 265.017L4.78047 265.003L4.15047 265.017C3.8518 265.036 3.61847 265.045 3.45047 265.045C3.4318 265.045 3.42247 265.017 3.42247 264.961C3.42247 264.905 3.4318 264.877 3.45047 264.877Z" fill="#421D12"/>
<path d="M1.36447 255.917C1.07514 255.917 0.865135 255.941 0.734468 255.987C0.603802 256.043 0.515135 256.146 0.468469 256.295C0.421802 256.454 0.398469 256.706 0.398469 257.051C0.398469 257.07 0.370468 257.079 0.314468 257.079C0.258468 257.079 0.230469 257.07 0.230469 257.051C0.230469 256.753 0.235135 256.519 0.244469 256.351L0.258469 255.343L0.244469 254.363C0.235135 254.186 0.230469 253.943 0.230469 253.635C0.230469 253.617 0.258468 253.607 0.314468 253.607C0.370468 253.607 0.398469 253.617 0.398469 253.635C0.398469 253.971 0.421802 254.219 0.468469 254.377C0.515135 254.536 0.603802 254.643 0.734468 254.699C0.874468 254.765 1.08447 254.797 1.36447 254.797H7.84647C8.12647 254.797 8.3318 254.765 8.46247 254.699C8.59314 254.643 8.6818 254.536 8.72847 254.377C8.78447 254.219 8.81247 253.971 8.81247 253.635C8.81247 253.617 8.84047 253.607 8.89647 253.607C8.95247 253.607 8.98047 253.617 8.98047 253.635L8.96647 254.363C8.9478 254.774 8.93847 255.101 8.93847 255.343C8.93847 255.614 8.9478 255.955 8.96647 256.365L8.98047 257.051C8.98047 257.07 8.95247 257.079 8.89647 257.079C8.84047 257.079 8.81247 257.07 8.81247 257.051C8.81247 256.715 8.78447 256.468 8.72847 256.309C8.67247 256.16 8.57447 256.057 8.43447 256.001C8.3038 255.945 8.09847 255.917 7.81847 255.917H1.36447Z" fill="#421D12"/>
<path d="M8.98047 251.66C8.98047 251.688 8.95247 251.702 8.89647 251.702C8.84047 251.702 8.81247 251.688 8.81247 251.66C8.81247 250.988 8.3878 250.484 7.53847 250.148L0.244469 247.292C0.207135 247.283 0.188469 247.232 0.188469 247.138C0.188469 247.045 0.207135 246.994 0.244469 246.984L7.81847 243.47C8.17314 243.302 8.42514 243.13 8.57447 242.952C8.73314 242.784 8.81247 242.574 8.81247 242.322C8.81247 242.294 8.84047 242.28 8.89647 242.28C8.95247 242.28 8.98047 242.294 8.98047 242.322L8.96647 242.756C8.9478 242.999 8.93847 243.228 8.93847 243.442C8.93847 243.946 8.9478 244.432 8.96647 244.898C8.9758 245.048 8.98047 245.239 8.98047 245.472C8.98047 245.5 8.95247 245.514 8.89647 245.514C8.84047 245.514 8.81247 245.5 8.81247 245.472C8.81247 244.894 8.63514 244.604 8.28047 244.604C8.13114 244.604 7.96314 244.651 7.77647 244.744L1.53247 247.614L0.720469 247.11L7.60847 249.812C7.8138 249.887 7.98647 249.924 8.12647 249.924C8.5838 249.924 8.81247 249.57 8.81247 248.86C8.81247 248.832 8.84047 248.818 8.89647 248.818C8.95247 248.818 8.98047 248.832 8.98047 248.86L8.96647 249.49C8.9478 249.845 8.93847 250.153 8.93847 250.414C8.93847 250.61 8.9478 250.83 8.96647 251.072L8.98047 251.66Z" fill="#421D12"/>
<path d="M0.231438 240.022C0.231438 239.789 0.637438 239.359 1.44944 238.734C2.26144 238.108 3.39544 237.343 4.85144 236.438L5.15944 237.376C3.9461 238.169 2.99877 238.832 2.31744 239.364C1.64544 239.905 1.15544 240.386 0.847437 240.806C0.54877 241.226 0.399437 241.632 0.399437 242.024C0.399437 242.052 0.371437 242.066 0.315437 242.066C0.259437 242.066 0.231438 242.052 0.231438 242.024V240.022ZM9.02344 236.396C9.02344 237.189 8.86477 237.8 8.54744 238.23C8.23944 238.659 7.8101 238.874 7.25944 238.874C6.8021 238.874 6.37277 238.734 5.97144 238.454C5.5701 238.183 5.2481 237.819 5.00544 237.362C4.76277 236.904 4.64144 236.419 4.64144 235.906C4.64144 235.71 4.65077 235.481 4.66944 235.22H1.36544C1.08544 235.22 0.875437 235.248 0.735437 235.304C0.604771 235.36 0.516103 235.462 0.469437 235.612C0.42277 235.77 0.399437 236.018 0.399437 236.354C0.399437 236.382 0.371437 236.396 0.315437 236.396C0.259437 236.396 0.231438 236.382 0.231438 236.354C0.231438 236.065 0.236104 235.836 0.245438 235.668L0.259438 234.66L0.245438 233.68C0.236104 233.502 0.231438 233.265 0.231438 232.966C0.231438 232.938 0.259437 232.924 0.315437 232.924C0.371437 232.924 0.399437 232.938 0.399437 232.966C0.399437 233.302 0.42277 233.549 0.469437 233.708C0.516103 233.866 0.604771 233.974 0.735437 234.03C0.875437 234.086 1.08544 234.114 1.36544 234.114H7.84744C8.12744 234.114 8.33277 234.086 8.46344 234.03C8.5941 233.974 8.68277 233.866 8.72944 233.708C8.78544 233.558 8.81344 233.316 8.81344 232.98C8.81344 232.961 8.84144 232.952 8.89744 232.952C8.95344 232.952 8.98144 232.961 8.98144 232.98L8.96744 233.68C8.94877 234.09 8.93944 234.417 8.93944 234.66C8.93944 234.828 8.9441 234.987 8.95344 235.136C8.96277 235.285 8.9721 235.416 8.98144 235.528C9.00944 235.836 9.02344 236.125 9.02344 236.396ZM6.75544 237.712C7.49277 237.712 8.01544 237.572 8.32344 237.292C8.63144 237.012 8.78544 236.625 8.78544 236.13C8.78544 235.887 8.7621 235.7 8.71544 235.57C8.66877 235.448 8.57544 235.36 8.43544 235.304C8.30477 235.248 8.09944 235.22 7.81944 235.22H5.03344C4.9961 235.575 4.97744 235.85 4.97744 236.046C4.97744 236.643 5.1081 237.068 5.36944 237.32C5.6401 237.581 6.1021 237.712 6.75544 237.712Z" fill="#421D12"/>
<path d="M0.230469 223.978C0.230469 223.95 0.258468 223.936 0.314468 223.936C0.370468 223.936 0.398469 223.95 0.398469 223.978C0.398469 224.314 0.421802 224.556 0.468469 224.706C0.515135 224.864 0.603802 224.972 0.734468 225.028C0.874468 225.084 1.08447 225.112 1.36447 225.112H7.84647C8.12647 225.112 8.3318 225.084 8.46247 225.028C8.59314 224.972 8.6818 224.864 8.72847 224.706C8.78447 224.556 8.81247 224.314 8.81247 223.978C8.81247 223.95 8.84047 223.936 8.89647 223.936C8.95247 223.936 8.98047 223.95 8.98047 223.978V229.69C8.98047 229.783 8.93847 229.83 8.85447 229.83L7.09047 229.858C7.06247 229.858 7.0438 229.83 7.03447 229.774C7.03447 229.727 7.04847 229.699 7.07647 229.69C7.5898 229.624 7.9818 229.442 8.25247 229.144C8.52314 228.845 8.65847 228.453 8.65847 227.968V227.254C8.65847 226.843 8.5978 226.568 8.47647 226.428C8.35514 226.288 8.12647 226.218 7.79047 226.218H1.42047C1.08447 226.218 0.855802 226.278 0.734468 226.4C0.613135 226.53 0.552469 226.787 0.552469 227.17V228.094C0.552469 228.616 0.706469 229.05 1.01447 229.396C1.3318 229.75 1.7798 229.993 2.35847 230.124C2.37714 230.124 2.38647 230.142 2.38647 230.18C2.38647 230.208 2.37714 230.231 2.35847 230.25C2.34914 230.278 2.3398 230.292 2.33047 230.292C1.65847 230.198 1.02847 230.152 0.440469 230.152C0.365802 230.152 0.309802 230.138 0.272469 230.11C0.244469 230.082 0.230469 230.026 0.230469 229.942V223.978ZM3.45047 229.158C3.8518 229.158 4.1458 229.041 4.33247 228.808C4.52847 228.584 4.62647 228.224 4.62647 227.73V225.686H4.94847V227.758C4.94847 228.234 5.0278 228.584 5.18647 228.808C5.35447 229.032 5.61114 229.144 5.95647 229.144C5.97514 229.144 5.98447 229.167 5.98447 229.214C5.98447 229.27 5.97514 229.298 5.95647 229.298L4.78047 229.284L4.15047 229.298C3.8518 229.316 3.61847 229.326 3.45047 229.326C3.4318 229.326 3.42247 229.298 3.42247 229.242C3.42247 229.186 3.4318 229.158 3.45047 229.158Z" fill="#421D12"/>
<path d="M8.70072 215.848C8.70072 215.269 8.53738 214.816 8.21072 214.49C7.89338 214.163 7.38005 213.92 6.67072 213.762C6.65205 213.752 6.64272 213.72 6.64272 213.664C6.64272 213.617 6.65672 213.594 6.68472 213.594C6.94605 213.631 7.37072 213.673 7.95872 213.72C8.54672 213.766 8.99005 213.79 9.28872 213.79C9.33538 213.79 9.35872 213.818 9.35872 213.874C9.35872 213.93 9.33538 213.958 9.28872 213.958C9.08338 213.958 8.98072 214.214 8.98072 214.728C8.95272 215.53 8.93872 216.468 8.93872 217.542C8.93872 218.092 8.94805 218.676 8.96672 219.292L8.98072 220.244C8.98072 220.589 9.00405 220.841 9.05072 221C9.09739 221.158 9.19072 221.261 9.33072 221.308C9.36805 221.317 9.38672 221.345 9.38672 221.392C9.38672 221.448 9.36805 221.476 9.33072 221.476C9.06939 221.448 8.64939 221.415 8.07072 221.378C7.49205 221.35 7.03005 221.336 6.68472 221.336C6.65672 221.336 6.64272 221.308 6.64272 221.252C6.64272 221.205 6.65672 221.182 6.68472 221.182C7.40339 221.116 7.91672 220.93 8.22472 220.622C8.54205 220.314 8.70072 219.856 8.70072 219.25C8.70072 218.904 8.67739 218.657 8.63072 218.508C8.59339 218.358 8.51405 218.256 8.39272 218.2C8.28072 218.144 8.08939 218.116 7.81872 218.116H1.36472C1.07538 218.116 0.865385 218.144 0.734718 218.2C0.604052 218.265 0.515384 218.386 0.468718 218.564C0.422051 218.741 0.398718 219.026 0.398718 219.418C0.398718 219.436 0.370718 219.446 0.314718 219.446C0.258718 219.446 0.230719 219.436 0.230719 219.418C0.230719 219.091 0.235385 218.834 0.244719 218.648L0.258718 217.542L0.244719 216.464C0.235385 216.277 0.230719 216.016 0.230719 215.68C0.230719 215.652 0.258718 215.638 0.314718 215.638C0.370718 215.638 0.398718 215.652 0.398718 215.68C0.398718 216.062 0.422051 216.342 0.468718 216.52C0.515384 216.706 0.604052 216.832 0.734718 216.898C0.874718 216.963 1.08472 216.996 1.36472 216.996H7.84672C8.10805 216.996 8.29472 216.968 8.40672 216.912C8.52805 216.856 8.60738 216.748 8.64472 216.59C8.68205 216.44 8.70072 216.193 8.70072 215.848Z" fill="#421D12"/>
<path d="M8.65847 203.143L8.63047 203.507H1.82647C1.34114 203.507 0.981802 203.596 0.748468 203.773C0.515135 203.96 0.398469 204.24 0.398469 204.613C0.398469 204.632 0.370468 204.641 0.314468 204.641C0.258468 204.641 0.230469 204.632 0.230469 204.613C0.230469 204.371 0.235135 204.184 0.244469 204.053L0.258469 203.339L0.244469 202.583C0.235135 202.443 0.230469 202.238 0.230469 201.967C0.230469 201.949 0.258468 201.939 0.314468 201.939C0.370468 201.939 0.398469 201.949 0.398469 201.967C0.398469 202.369 0.515135 202.663 0.748468 202.849C0.981802 203.045 1.34114 203.143 1.82647 203.143H8.65847ZM0.0484686 210.227C0.0298019 210.227 0.0158021 210.204 0.00646877 210.157C-0.00286456 210.12 0.00180204 210.092 0.0204687 210.073L7.83247 203.479C8.19647 203.171 8.44847 202.896 8.58847 202.653C8.7378 202.411 8.81247 202.168 8.81247 201.925C8.81247 201.907 8.84047 201.897 8.89647 201.897C8.95247 201.897 8.98047 201.907 8.98047 201.925L8.96647 202.471C8.95714 202.583 8.95247 202.742 8.95247 202.947L8.96647 203.661C8.9758 203.755 8.98047 203.862 8.98047 203.983C8.98047 204.058 8.9618 204.114 8.92447 204.151C8.88714 204.189 8.81247 204.245 8.70047 204.319L8.25247 204.655L1.67247 210.115L0.0484686 210.227ZM0.0484686 210.227L0.482469 209.877H7.37047C7.8558 209.877 8.21514 209.789 8.44847 209.611C8.69114 209.434 8.81247 209.159 8.81247 208.785C8.81247 208.767 8.84047 208.757 8.89647 208.757C8.95247 208.757 8.98047 208.767 8.98047 208.785L8.96647 209.345C8.9478 209.625 8.93847 209.863 8.93847 210.059C8.93847 210.227 8.9478 210.47 8.96647 210.787L8.98047 211.375C8.98047 211.394 8.95247 211.403 8.89647 211.403C8.84047 211.403 8.81247 211.394 8.81247 211.375C8.81247 210.61 8.3318 210.227 7.37047 210.227H0.0484686Z" fill="#421D12"/>
<path d="M1.36447 198.257C1.07514 198.257 0.865135 198.281 0.734468 198.327C0.603802 198.383 0.515135 198.486 0.468469 198.635C0.421802 198.794 0.398469 199.046 0.398469 199.391C0.398469 199.41 0.370468 199.419 0.314468 199.419C0.258468 199.419 0.230469 199.41 0.230469 199.391C0.230469 199.093 0.235135 198.859 0.244469 198.691L0.258469 197.683L0.244469 196.703C0.235135 196.526 0.230469 196.283 0.230469 195.975C0.230469 195.957 0.258468 195.947 0.314468 195.947C0.370468 195.947 0.398469 195.957 0.398469 195.975C0.398469 196.311 0.421802 196.559 0.468469 196.717C0.515135 196.876 0.603802 196.983 0.734468 197.039C0.874468 197.105 1.08447 197.137 1.36447 197.137H7.84647C8.12647 197.137 8.3318 197.105 8.46247 197.039C8.59314 196.983 8.6818 196.876 8.72847 196.717C8.78447 196.559 8.81247 196.311 8.81247 195.975C8.81247 195.957 8.84047 195.947 8.89647 195.947C8.95247 195.947 8.98047 195.957 8.98047 195.975L8.96647 196.703C8.9478 197.114 8.93847 197.441 8.93847 197.683C8.93847 197.954 8.9478 198.295 8.96647 198.705L8.98047 199.391C8.98047 199.41 8.95247 199.419 8.89647 199.419C8.84047 199.419 8.81247 199.41 8.81247 199.391C8.81247 199.055 8.78447 198.808 8.72847 198.649C8.67247 198.5 8.57447 198.397 8.43447 198.341C8.3038 198.285 8.09847 198.257 7.81847 198.257H1.36447Z" fill="#421D12"/>
<path d="M0.231438 182.712C0.231438 182.479 0.637438 182.05 1.44944 181.424C2.26144 180.799 3.39544 180.034 4.85144 179.128L5.15944 180.066C3.9461 180.86 2.99877 181.522 2.31744 182.054C1.64544 182.596 1.15544 183.076 0.847437 183.496C0.54877 183.916 0.399437 184.322 0.399437 184.714C0.399437 184.742 0.371437 184.756 0.315437 184.756C0.259437 184.756 0.231438 184.742 0.231438 184.714V182.712ZM9.02344 179.086C9.02344 179.88 8.86477 180.491 8.54744 180.92C8.23944 181.35 7.8101 181.564 7.25944 181.564C6.8021 181.564 6.37277 181.424 5.97144 181.144C5.5701 180.874 5.2481 180.51 5.00544 180.052C4.76277 179.595 4.64144 179.11 4.64144 178.596C4.64144 178.4 4.65077 178.172 4.66944 177.91H1.36544C1.08544 177.91 0.875437 177.938 0.735437 177.994C0.604771 178.05 0.516103 178.153 0.469437 178.302C0.42277 178.461 0.399437 178.708 0.399437 179.044C0.399437 179.072 0.371437 179.086 0.315437 179.086C0.259437 179.086 0.231438 179.072 0.231438 179.044C0.231438 178.755 0.236104 178.526 0.245438 178.358L0.259438 177.35L0.245438 176.37C0.236104 176.193 0.231438 175.955 0.231438 175.656C0.231438 175.628 0.259437 175.614 0.315437 175.614C0.371437 175.614 0.399437 175.628 0.399437 175.656C0.399437 175.992 0.42277 176.24 0.469437 176.398C0.516103 176.557 0.604771 176.664 0.735437 176.72C0.875437 176.776 1.08544 176.804 1.36544 176.804H7.84744C8.12744 176.804 8.33277 176.776 8.46344 176.72C8.5941 176.664 8.68277 176.557 8.72944 176.398C8.78544 176.249 8.81344 176.006 8.81344 175.67C8.81344 175.652 8.84144 175.642 8.89744 175.642C8.95344 175.642 8.98144 175.652 8.98144 175.67L8.96744 176.37C8.94877 176.781 8.93944 177.108 8.93944 177.35C8.93944 177.518 8.9441 177.677 8.95344 177.826C8.96277 177.976 8.9721 178.106 8.98144 178.218C9.00944 178.526 9.02344 178.816 9.02344 179.086ZM6.75544 180.402C7.49277 180.402 8.01544 180.262 8.32344 179.982C8.63144 179.702 8.78544 179.315 8.78544 178.82C8.78544 178.578 8.7621 178.391 8.71544 178.26C8.66877 178.139 8.57544 178.05 8.43544 177.994C8.30477 177.938 8.09944 177.91 7.81944 177.91H5.03344C4.9961 178.265 4.97744 178.54 4.97744 178.736C4.97744 179.334 5.1081 179.758 5.36944 180.01C5.6401 180.272 6.1021 180.402 6.75544 180.402Z" fill="#421D12"/>
<path d="M0.060812 168.059C0.060812 167.191 0.261479 166.416 0.662812 165.735C1.07348 165.063 1.62415 164.54 2.31481 164.167C3.01481 163.803 3.77548 163.621 4.59681 163.621C5.55815 163.621 6.37948 163.864 7.06081 164.349C7.75148 164.834 8.26948 165.455 8.61481 166.211C8.96015 166.976 9.13281 167.756 9.13281 168.549C9.13281 169.436 8.92281 170.215 8.50281 170.887C8.09215 171.559 7.54615 172.072 6.86481 172.427C6.18348 172.791 5.46015 172.973 4.69481 172.973C3.84548 172.973 3.06615 172.749 2.35681 172.301C1.64748 171.853 1.08748 171.251 0.676812 170.495C0.266145 169.748 0.060812 168.936 0.060812 168.059ZM0.368813 168.549C0.368813 169.146 0.522812 169.683 0.830812 170.159C1.13881 170.635 1.58681 171.008 2.17481 171.279C2.77215 171.559 3.48148 171.699 4.30281 171.699C5.17081 171.699 5.94548 171.545 6.62681 171.237C7.30815 170.938 7.84015 170.504 8.22281 169.935C8.60548 169.375 8.79681 168.722 8.79681 167.975C8.79681 167.004 8.46548 166.248 7.80281 165.707C7.14948 165.166 6.24415 164.895 5.08681 164.895C4.20015 164.895 3.39748 165.049 2.67881 165.357C1.96015 165.665 1.39548 166.094 0.984812 166.645C0.574145 167.205 0.368813 167.84 0.368813 168.549Z" fill="#421D12"/>
<path d="M8.70072 155.599C8.70072 155.02 8.53738 154.567 8.21072 154.241C7.89338 153.914 7.38005 153.671 6.67072 153.513C6.65205 153.503 6.64272 153.471 6.64272 153.415C6.64272 153.368 6.65672 153.345 6.68472 153.345C6.94605 153.382 7.37072 153.424 7.95872 153.471C8.54672 153.517 8.99005 153.541 9.28872 153.541C9.33538 153.541 9.35872 153.569 9.35872 153.625C9.35872 153.681 9.33538 153.709 9.28872 153.709C9.08338 153.709 8.98072 153.965 8.98072 154.479C8.95272 155.281 8.93872 156.219 8.93872 157.293C8.93872 157.843 8.94805 158.427 8.96672 159.043L8.98072 159.995C8.98072 160.34 9.00405 160.592 9.05072 160.751C9.09739 160.909 9.19072 161.012 9.33072 161.059C9.36805 161.068 9.38672 161.096 9.38672 161.143C9.38672 161.199 9.36805 161.227 9.33072 161.227C9.06939 161.199 8.64939 161.166 8.07072 161.129C7.49205 161.101 7.03005 161.087 6.68472 161.087C6.65672 161.087 6.64272 161.059 6.64272 161.003C6.64272 160.956 6.65672 160.933 6.68472 160.933C7.40339 160.867 7.91672 160.681 8.22472 160.373C8.54205 160.065 8.70072 159.607 8.70072 159.001C8.70072 158.655 8.67739 158.408 8.63072 158.259C8.59339 158.109 8.51405 158.007 8.39272 157.951C8.28072 157.895 8.08939 157.867 7.81872 157.867H1.36472C1.07538 157.867 0.865385 157.895 0.734718 157.951C0.604052 158.016 0.515384 158.137 0.468718 158.315C0.422051 158.492 0.398718 158.777 0.398718 159.169C0.398718 159.187 0.370718 159.197 0.314718 159.197C0.258718 159.197 0.230719 159.187 0.230719 159.169C0.230719 158.842 0.235385 158.585 0.244719 158.399L0.258718 157.293L0.244719 156.215C0.235385 156.028 0.230719 155.767 0.230719 155.431C0.230719 155.403 0.258718 155.389 0.314718 155.389C0.370718 155.389 0.398718 155.403 0.398718 155.431C0.398718 155.813 0.422051 156.093 0.468718 156.271C0.515384 156.457 0.604052 156.583 0.734718 156.649C0.874718 156.714 1.08472 156.747 1.36472 156.747H7.84672C8.10805 156.747 8.29472 156.719 8.40672 156.663C8.52805 156.607 8.60738 156.499 8.64472 156.341C8.68205 156.191 8.70072 155.944 8.70072 155.599Z" fill="#421D12"/>
<path d="M5.0482 145.732V148.616L4.7262 148.714V145.522L5.0482 145.732ZM0.4002 152.368C0.4002 152.415 0.372199 152.438 0.316199 152.438C0.260199 152.438 0.2322 152.415 0.2322 152.368C0.2322 152.191 0.241533 151.916 0.2602 151.542C0.278866 151.15 0.288199 150.87 0.288199 150.702C0.288199 150.488 0.278866 150.222 0.2602 149.904C0.241533 149.587 0.2322 149.349 0.2322 149.19C0.2322 149.153 0.260199 149.134 0.316199 149.134C0.372199 149.134 0.4002 149.153 0.4002 149.19C0.4002 149.508 0.4282 149.736 0.4842 149.876C0.549533 150.016 0.661533 150.086 0.8202 150.086C0.978867 150.086 1.1982 150.016 1.4782 149.876L7.7362 146.866L8.4082 147.314L2.0802 144.584C1.76287 144.454 1.50153 144.388 1.2962 144.388C0.997533 144.388 0.773533 144.505 0.6242 144.738C0.474867 144.972 0.4002 145.308 0.4002 145.746C0.4002 145.793 0.372199 145.816 0.316199 145.816C0.260199 145.816 0.2322 145.793 0.2322 145.746C0.2322 145.578 0.241533 145.336 0.2602 145.018C0.278866 144.664 0.288199 144.356 0.288199 144.094C0.288199 143.852 0.278866 143.562 0.2602 143.226C0.241533 142.928 0.2322 142.685 0.2322 142.498C0.2322 142.461 0.260199 142.442 0.316199 142.442C0.372199 142.442 0.4002 142.461 0.4002 142.498C0.4002 142.76 0.451533 142.979 0.5542 143.156C0.656867 143.343 0.8342 143.52 1.0862 143.688C1.3382 143.856 1.71153 144.048 2.2062 144.262L9.0802 147.244C9.1082 147.254 9.1222 147.286 9.1222 147.342C9.13153 147.398 9.11753 147.431 9.0802 147.44L2.1502 150.8C1.46887 151.127 1.00687 151.398 0.764199 151.612C0.521533 151.836 0.4002 152.088 0.4002 152.368Z" fill="#421D12"/>
<path d="M8.65847 132.594L8.63047 132.958H1.82647C1.34114 132.958 0.981802 133.046 0.748468 133.224C0.515135 133.41 0.398469 133.69 0.398469 134.064C0.398469 134.082 0.370468 134.092 0.314468 134.092C0.258468 134.092 0.230469 134.082 0.230469 134.064C0.230469 133.821 0.235135 133.634 0.244469 133.504L0.258469 132.79L0.244469 132.034C0.235135 131.894 0.230469 131.688 0.230469 131.418C0.230469 131.399 0.258468 131.39 0.314468 131.39C0.370468 131.39 0.398469 131.399 0.398469 131.418C0.398469 131.819 0.515135 132.113 0.748468 132.3C0.981802 132.496 1.34114 132.594 1.82647 132.594H8.65847ZM0.0484686 139.678C0.0298019 139.678 0.0158021 139.654 0.00646877 139.608C-0.00286456 139.57 0.00180204 139.542 0.0204687 139.524L7.83247 132.93C8.19647 132.622 8.44847 132.346 8.58847 132.104C8.7378 131.861 8.81247 131.618 8.81247 131.376C8.81247 131.357 8.84047 131.348 8.89647 131.348C8.95247 131.348 8.98047 131.357 8.98047 131.376L8.96647 131.922C8.95714 132.034 8.95247 132.192 8.95247 132.398L8.96647 133.112C8.9758 133.205 8.98047 133.312 8.98047 133.434C8.98047 133.508 8.9618 133.564 8.92447 133.602C8.88714 133.639 8.81247 133.695 8.70047 133.77L8.25247 134.106L1.67247 139.566L0.0484686 139.678ZM0.0484686 139.678L0.482469 139.328H7.37047C7.8558 139.328 8.21514 139.239 8.44847 139.062C8.69114 138.884 8.81247 138.609 8.81247 138.236C8.81247 138.217 8.84047 138.208 8.89647 138.208C8.95247 138.208 8.98047 138.217 8.98047 138.236L8.96647 138.796C8.9478 139.076 8.93847 139.314 8.93847 139.51C8.93847 139.678 8.9478 139.92 8.96647 140.238L8.98047 140.826C8.98047 140.844 8.95247 140.854 8.89647 140.854C8.84047 140.854 8.81247 140.844 8.81247 140.826C8.81247 140.06 8.3318 139.678 7.37047 139.678H0.0484686Z" fill="#421D12"/>
<path d="M1.36447 127.708C1.07514 127.708 0.865135 127.732 0.734468 127.778C0.603802 127.834 0.515135 127.937 0.468469 128.086C0.421802 128.245 0.398469 128.497 0.398469 128.842C0.398469 128.861 0.370468 128.87 0.314468 128.87C0.258468 128.87 0.230469 128.861 0.230469 128.842C0.230469 128.544 0.235135 128.31 0.244469 128.142L0.258469 127.134L0.244469 126.154C0.235135 125.977 0.230469 125.734 0.230469 125.426C0.230469 125.408 0.258468 125.398 0.314468 125.398C0.370468 125.398 0.398469 125.408 0.398469 125.426C0.398469 125.762 0.421802 126.01 0.468469 126.168C0.515135 126.327 0.603802 126.434 0.734468 126.49C0.874468 126.556 1.08447 126.588 1.36447 126.588H7.84647C8.12647 126.588 8.3318 126.556 8.46247 126.49C8.59314 126.434 8.6818 126.327 8.72847 126.168C8.78447 126.01 8.81247 125.762 8.81247 125.426C8.81247 125.408 8.84047 125.398 8.89647 125.398C8.95247 125.398 8.98047 125.408 8.98047 125.426L8.96647 126.154C8.9478 126.565 8.93847 126.892 8.93847 127.134C8.93847 127.405 8.9478 127.746 8.96647 128.156L8.98047 128.842C8.98047 128.861 8.95247 128.87 8.89647 128.87C8.84047 128.87 8.81247 128.861 8.81247 128.842C8.81247 128.506 8.78447 128.259 8.72847 128.1C8.67247 127.951 8.57447 127.848 8.43447 127.792C8.3038 127.736 8.09847 127.708 7.81847 127.708H1.36447Z" fill="#421D12"/>
<path d="M0.173813 117.988C0.173813 117.699 0.187813 117.372 0.215813 117.008C0.225146 116.868 0.234479 116.695 0.243813 116.49C0.253146 116.294 0.257812 116.07 0.257812 115.818L0.243813 114.838C0.234479 114.661 0.229813 114.418 0.229813 114.11C0.229813 114.091 0.257812 114.082 0.313812 114.082C0.369812 114.082 0.397812 114.091 0.397812 114.11C0.397812 114.446 0.421145 114.693 0.467812 114.852C0.514478 115.011 0.603146 115.118 0.733812 115.174C0.873812 115.239 1.08381 115.272 1.36381 115.272H7.84581C8.12581 115.272 8.33115 115.244 8.46181 115.188C8.59248 115.132 8.68115 115.025 8.72781 114.866C8.78381 114.717 8.81181 114.474 8.81181 114.138C8.81181 114.11 8.83981 114.096 8.89581 114.096C8.95181 114.096 8.97981 114.11 8.97981 114.138L8.96581 114.838C8.94715 115.249 8.93781 115.575 8.93781 115.818C8.93781 116.163 8.95181 116.518 8.97981 116.882C8.99848 117.33 9.00781 117.633 9.00781 117.792C9.00781 118.753 8.82115 119.607 8.44781 120.354C8.07448 121.101 7.56581 121.679 6.92181 122.09C6.27781 122.501 5.55448 122.706 4.75181 122.706C3.84648 122.706 3.04381 122.491 2.34381 122.062C1.65315 121.642 1.11648 121.068 0.733812 120.34C0.360479 119.621 0.173813 118.837 0.173813 117.988ZM0.425812 117.848C0.425812 118.548 0.579812 119.169 0.887812 119.71C1.20514 120.251 1.66248 120.671 2.25981 120.97C2.86648 121.278 3.59448 121.432 4.44381 121.432C5.25581 121.432 5.98848 121.287 6.64181 120.998C7.30448 120.709 7.82248 120.298 8.19581 119.766C8.57848 119.243 8.76981 118.632 8.76981 117.932C8.76981 117.531 8.74648 117.223 8.69981 117.008C8.65315 116.793 8.55981 116.635 8.41981 116.532C8.28915 116.429 8.08848 116.378 7.81781 116.378H1.51781C1.24715 116.378 1.03248 116.415 0.873812 116.49C0.724478 116.574 0.612478 116.719 0.537811 116.924C0.463145 117.139 0.425812 117.447 0.425812 117.848Z" fill="#421D12"/>
<path d="M0.231438 110.376C0.231438 110.143 0.637438 109.714 1.44944 109.088C2.26144 108.463 3.39544 107.698 4.85144 106.792L5.15944 107.73C3.9461 108.524 2.99877 109.186 2.31744 109.718C1.64544 110.26 1.15544 110.74 0.847437 111.16C0.54877 111.58 0.399437 111.986 0.399437 112.378C0.399437 112.406 0.371437 112.42 0.315437 112.42C0.259437 112.42 0.231438 112.406 0.231438 112.378V110.376ZM9.02344 106.75C9.02344 107.544 8.86477 108.155 8.54744 108.584C8.23944 109.014 7.8101 109.228 7.25944 109.228C6.8021 109.228 6.37277 109.088 5.97144 108.808C5.5701 108.538 5.2481 108.174 5.00544 107.716C4.76277 107.259 4.64144 106.774 4.64144 106.26C4.64144 106.064 4.65077 105.836 4.66944 105.574H1.36544C1.08544 105.574 0.875437 105.602 0.735437 105.658C0.604771 105.714 0.516103 105.817 0.469437 105.966C0.42277 106.125 0.399437 106.372 0.399437 106.708C0.399437 106.736 0.371437 106.75 0.315437 106.75C0.259437 106.75 0.231438 106.736 0.231438 106.708C0.231438 106.419 0.236104 106.19 0.245438 106.022L0.259438 105.014L0.245438 104.034C0.236104 103.857 0.231438 103.619 0.231438 103.32C0.231438 103.292 0.259437 103.278 0.315437 103.278C0.371437 103.278 0.399437 103.292 0.399437 103.32C0.399437 103.656 0.42277 103.904 0.469437 104.062C0.516103 104.221 0.604771 104.328 0.735437 104.384C0.875437 104.44 1.08544 104.468 1.36544 104.468H7.84744C8.12744 104.468 8.33277 104.44 8.46344 104.384C8.5941 104.328 8.68277 104.221 8.72944 104.062C8.78544 103.913 8.81344 103.67 8.81344 103.334C8.81344 103.316 8.84144 103.306 8.89744 103.306C8.95344 103.306 8.98144 103.316 8.98144 103.334L8.96744 104.034C8.94877 104.445 8.93944 104.772 8.93944 105.014C8.93944 105.182 8.9441 105.341 8.95344 105.49C8.96277 105.64 8.9721 105.77 8.98144 105.882C9.00944 106.19 9.02344 106.48 9.02344 106.75ZM6.75544 108.066C7.49277 108.066 8.01544 107.926 8.32344 107.646C8.63144 107.366 8.78544 106.979 8.78544 106.484C8.78544 106.242 8.7621 106.055 8.71544 105.924C8.66877 105.803 8.57544 105.714 8.43544 105.658C8.30477 105.602 8.09944 105.574 7.81944 105.574H5.03344C4.9961 105.929 4.97744 106.204 4.97744 106.4C4.97744 106.998 5.1081 107.422 5.36944 107.674C5.6401 107.936 6.1021 108.066 6.75544 108.066Z" fill="#421D12"/>
<path d="M0.060812 95.7241C0.060812 94.8561 0.261479 94.0815 0.662812 93.4001C1.07348 92.7281 1.62415 92.2055 2.31481 91.8321C3.01481 91.4681 3.77548 91.2861 4.59681 91.2861C5.55815 91.2861 6.37948 91.5288 7.06081 92.0141C7.75148 92.4995 8.26948 93.1201 8.61481 93.8761C8.96015 94.6415 9.13281 95.4208 9.13281 96.2141C9.13281 97.1008 8.92281 97.8801 8.50281 98.5521C8.09215 99.2241 7.54615 99.7375 6.86481 100.092C6.18348 100.456 5.46015 100.638 4.69481 100.638C3.84548 100.638 3.06615 100.414 2.35681 99.9661C1.64748 99.5181 1.08748 98.9161 0.676812 98.1601C0.266145 97.4135 0.060812 96.6015 0.060812 95.7241ZM0.368813 96.2141C0.368813 96.8115 0.522812 97.3481 0.830812 97.8241C1.13881 98.3001 1.58681 98.6735 2.17481 98.9441C2.77215 99.2241 3.48148 99.3641 4.30281 99.3641C5.17081 99.3641 5.94548 99.2101 6.62681 98.9021C7.30815 98.6035 7.84015 98.1695 8.22281 97.6001C8.60548 97.0401 8.79681 96.3868 8.79681 95.6401C8.79681 94.6695 8.46548 93.9135 7.80281 93.3721C7.14948 92.8308 6.24415 92.5601 5.08681 92.5601C4.20015 92.5601 3.39748 92.7141 2.67881 93.0221C1.96015 93.3301 1.39548 93.7595 0.984812 94.3101C0.574145 94.8701 0.368813 95.5048 0.368813 96.2141Z" fill="#421D12"/>
<path d="M0.060812 83.605C0.060812 82.737 0.261479 81.9623 0.662812 81.281C1.07348 80.609 1.62415 80.0863 2.31481 79.713C3.01481 79.349 3.77548 79.167 4.59681 79.167C5.55815 79.167 6.37948 79.4097 7.06081 79.895C7.75148 80.3803 8.26948 81.001 8.61481 81.757C8.96015 82.5223 9.13281 83.3017 9.13281 84.095C9.13281 84.9817 8.92281 85.761 8.50281 86.433C8.09215 87.105 7.54615 87.6183 6.86481 87.973C6.18348 88.337 5.46015 88.519 4.69481 88.519C3.84548 88.519 3.06615 88.295 2.35681 87.847C1.64748 87.399 1.08748 86.797 0.676812 86.041C0.266145 85.2943 0.060812 84.4823 0.060812 83.605ZM0.368813 84.095C0.368813 84.6923 0.522812 85.229 0.830812 85.705C1.13881 86.181 1.58681 86.5543 2.17481 86.825C2.77215 87.105 3.48148 87.245 4.30281 87.245C5.17081 87.245 5.94548 87.091 6.62681 86.783C7.30815 86.4843 7.84015 86.0503 8.22281 85.481C8.60548 84.921 8.79681 84.2677 8.79681 83.521C8.79681 82.5503 8.46548 81.7943 7.80281 81.253C7.14948 80.7117 6.24415 80.441 5.08681 80.441C4.20015 80.441 3.39748 80.595 2.67881 80.903C1.96015 81.211 1.39548 81.6403 0.984812 82.191C0.574145 82.751 0.368813 83.3857 0.368813 84.095Z" fill="#421D12"/>
<path d="M9.13281 73.5543C9.13281 73.9837 9.09081 74.427 9.00681 74.8843C8.93215 75.3417 8.82481 75.7057 8.68481 75.9763C8.64748 76.051 8.60548 76.0977 8.55881 76.1163C8.52148 76.1443 8.45148 76.1677 8.34881 76.1863L6.66881 76.3403C6.64081 76.3403 6.62215 76.317 6.61281 76.2703C6.60348 76.2237 6.61748 76.1957 6.65481 76.1863C7.37348 75.9437 7.91015 75.547 8.26481 74.9963C8.62881 74.4457 8.81081 73.783 8.81081 73.0083C8.81081 72.327 8.65215 71.7343 8.33481 71.2303C8.02681 70.7263 7.58815 70.339 7.01881 70.0683C6.44948 69.807 5.79148 69.6763 5.04481 69.6763C4.17681 69.6763 3.37881 69.8397 2.65081 70.1663C1.92281 70.5023 1.34415 70.955 0.914812 71.5243C0.494812 72.103 0.284812 72.7377 0.284812 73.4283C0.284812 74.7723 1.05015 75.7337 2.58081 76.3123C2.60881 76.3123 2.62281 76.3357 2.62281 76.3823C2.62281 76.401 2.61348 76.4197 2.59481 76.4383C2.58548 76.4663 2.57615 76.4803 2.56681 76.4803L0.886812 76.2843C0.774812 76.2657 0.700146 76.2423 0.662812 76.2143C0.634812 76.1957 0.602146 76.1443 0.564813 76.0603C0.228813 75.2017 0.060812 74.3243 0.060812 73.4283C0.060812 72.299 0.284812 71.3563 0.732812 70.6003C1.19015 69.8443 1.76881 69.289 2.46881 68.9343C3.16881 68.5797 3.90148 68.4023 4.66681 68.4023C5.53481 68.4023 6.30481 68.6403 6.97681 69.1163C7.65815 69.6017 8.18548 70.2363 8.55881 71.0203C8.94148 71.8137 9.13281 72.6583 9.13281 73.5543Z" fill="#421D12"/>
<path d="M0.231438 59.763C0.231438 59.5297 0.637438 59.1004 1.44944 58.475C2.26144 57.8497 3.39544 57.0844 4.85144 56.179L5.15944 57.117C3.9461 57.9104 2.99877 58.573 2.31744 59.105C1.64544 59.6464 1.15544 60.127 0.847437 60.547C0.54877 60.967 0.399437 61.373 0.399437 61.765C0.399437 61.793 0.371437 61.807 0.315437 61.807C0.259437 61.807 0.231438 61.793 0.231438 61.765V59.763ZM9.02344 56.137C9.02344 56.9304 8.86477 57.5417 8.54744 57.971C8.23944 58.4004 7.8101 58.615 7.25944 58.615C6.8021 58.615 6.37277 58.475 5.97144 58.195C5.5701 57.9244 5.2481 57.5604 5.00544 57.103C4.76277 56.6457 4.64144 56.1604 4.64144 55.647C4.64144 55.451 4.65077 55.2224 4.66944 54.961H1.36544C1.08544 54.961 0.875437 54.989 0.735437 55.045C0.604771 55.101 0.516103 55.2037 0.469437 55.353C0.42277 55.5117 0.399437 55.759 0.399437 56.095C0.399437 56.123 0.371437 56.137 0.315437 56.137C0.259437 56.137 0.231438 56.123 0.231438 56.095C0.231438 55.8057 0.236104 55.577 0.245438 55.409L0.259438 54.401L0.245438 53.421C0.236104 53.2437 0.231438 53.0057 0.231438 52.707C0.231438 52.679 0.259437 52.665 0.315437 52.665C0.371437 52.665 0.399437 52.679 0.399437 52.707C0.399437 53.043 0.42277 53.2904 0.469437 53.449C0.516103 53.6077 0.604771 53.715 0.735437 53.771C0.875437 53.827 1.08544 53.855 1.36544 53.855H7.84744C8.12744 53.855 8.33277 53.827 8.46344 53.771C8.5941 53.715 8.68277 53.6077 8.72944 53.449C8.78544 53.2997 8.81344 53.057 8.81344 52.721C8.81344 52.7024 8.84144 52.693 8.89744 52.693C8.95344 52.693 8.98144 52.7024 8.98144 52.721L8.96744 53.421C8.94877 53.8317 8.93944 54.1584 8.93944 54.401C8.93944 54.569 8.9441 54.7277 8.95344 54.877C8.96277 55.0264 8.9721 55.157 8.98144 55.269C9.00944 55.577 9.02344 55.8664 9.02344 56.137ZM6.75544 57.453C7.49277 57.453 8.01544 57.313 8.32344 57.033C8.63144 56.753 8.78544 56.3657 8.78544 55.871C8.78544 55.6284 8.7621 55.4417 8.71544 55.311C8.66877 55.1897 8.57544 55.101 8.43544 55.045C8.30477 54.989 8.09944 54.961 7.81944 54.961H5.03344C4.9961 55.3157 4.97744 55.591 4.97744 55.787C4.97744 56.3844 5.1081 56.809 5.36944 57.061C5.6401 57.3224 6.1021 57.453 6.75544 57.453Z" fill="#421D12"/>
<path d="M0.230469 43.7197C0.230469 43.6917 0.258468 43.6777 0.314468 43.6777C0.370468 43.6777 0.398469 43.6917 0.398469 43.7197C0.398469 44.0557 0.421802 44.2984 0.468469 44.4477C0.515135 44.6064 0.603802 44.7137 0.734468 44.7697C0.874468 44.8257 1.08447 44.8537 1.36447 44.8537H7.84647C8.12647 44.8537 8.3318 44.8257 8.46247 44.7697C8.59314 44.7137 8.6818 44.6064 8.72847 44.4477C8.78447 44.2984 8.81247 44.0557 8.81247 43.7197C8.81247 43.6917 8.84047 43.6777 8.89647 43.6777C8.95247 43.6777 8.98047 43.6917 8.98047 43.7197V49.4317C8.98047 49.5251 8.93847 49.5717 8.85447 49.5717L7.09047 49.5997C7.06247 49.5997 7.0438 49.5717 7.03447 49.5157C7.03447 49.4691 7.04847 49.4411 7.07647 49.4317C7.5898 49.3664 7.9818 49.1844 8.25247 48.8857C8.52314 48.5871 8.65847 48.1951 8.65847 47.7097V46.9957C8.65847 46.5851 8.5978 46.3097 8.47647 46.1697C8.35514 46.0297 8.12647 45.9597 7.79047 45.9597H1.42047C1.08447 45.9597 0.855802 46.0204 0.734468 46.1417C0.613135 46.2724 0.552469 46.5291 0.552469 46.9117V47.8357C0.552469 48.3584 0.706469 48.7924 1.01447 49.1377C1.3318 49.4924 1.7798 49.7351 2.35847 49.8657C2.37714 49.8657 2.38647 49.8844 2.38647 49.9217C2.38647 49.9497 2.37714 49.9731 2.35847 49.9917C2.34914 50.0197 2.3398 50.0337 2.33047 50.0337C1.65847 49.9404 1.02847 49.8937 0.440469 49.8937C0.365802 49.8937 0.309802 49.8797 0.272469 49.8517C0.244469 49.8237 0.230469 49.7677 0.230469 49.6837V43.7197ZM3.45047 48.8997C3.8518 48.8997 4.1458 48.7831 4.33247 48.5497C4.52847 48.3257 4.62647 47.9664 4.62647 47.4717V45.4277H4.94847V47.4997C4.94847 47.9757 5.0278 48.3257 5.18647 48.5497C5.35447 48.7737 5.61114 48.8857 5.95647 48.8857C5.97514 48.8857 5.98447 48.9091 5.98447 48.9557C5.98447 49.0117 5.97514 49.0397 5.95647 49.0397L4.78047 49.0257L4.15047 49.0397C3.8518 49.0584 3.61847 49.0677 3.45047 49.0677C3.4318 49.0677 3.42247 49.0397 3.42247 48.9837C3.42247 48.9277 3.4318 48.8997 3.45047 48.8997Z" fill="#421D12"/>
<path d="M0.244469 33.7542C0.207135 33.7449 0.188469 33.6935 0.188469 33.6002C0.188469 33.5069 0.207135 33.4555 0.244469 33.4462L7.81847 29.9322C8.21047 29.7549 8.4718 29.5869 8.60247 29.4282C8.74247 29.2789 8.81247 29.0642 8.81247 28.7842C8.81247 28.7562 8.84047 28.7422 8.89647 28.7422C8.95247 28.7422 8.98047 28.7562 8.98047 28.7842L8.96647 29.2182C8.9478 29.4609 8.93847 29.6895 8.93847 29.9042C8.93847 30.3242 8.9478 30.7395 8.96647 31.1502C8.9758 31.2809 8.98047 31.4582 8.98047 31.6822C8.98047 31.7102 8.95247 31.7242 8.89647 31.7242C8.84047 31.7242 8.81247 31.7102 8.81247 31.6822C8.81247 31.4115 8.78447 31.2155 8.72847 31.0942C8.67247 30.9729 8.56514 30.9122 8.40647 30.9122C8.2758 30.9122 8.0658 30.9775 7.77647 31.1082L1.43447 34.0762L0.664469 33.5442L5.14447 35.3082L4.82247 35.5322L0.244469 33.7542ZM8.98047 41.7762C8.98047 41.8042 8.95247 41.8182 8.89647 41.8182C8.84047 41.8182 8.81247 41.8042 8.81247 41.7762C8.81247 41.1135 8.3878 40.6095 7.53847 40.2642L0.244469 37.4082C0.207135 37.3989 0.188469 37.3475 0.188469 37.2542C0.188469 37.1609 0.207135 37.1095 0.244469 37.1002L7.81847 33.5862C8.1638 33.4275 8.4158 33.2642 8.57447 33.0962C8.73314 32.9375 8.81247 32.7415 8.81247 32.5082C8.81247 32.4802 8.84047 32.4662 8.89647 32.4662C8.95247 32.4662 8.98047 32.4802 8.98047 32.5082L8.96647 32.9422C8.9478 33.1662 8.93847 33.3715 8.93847 33.5582C8.93847 33.9129 8.9478 34.2395 8.96647 34.5382C8.9758 34.6315 8.98047 34.7575 8.98047 34.9162C8.98047 34.9442 8.95247 34.9582 8.89647 34.9582C8.84047 34.9582 8.81247 34.9442 8.81247 34.9162C8.81247 34.7575 8.7938 34.6409 8.75647 34.5662C8.72847 34.5009 8.67247 34.4682 8.58847 34.4682C8.4578 34.4682 8.18714 34.5662 7.77647 34.7622L1.43447 37.7302L0.664469 37.1982L7.53847 39.9002C7.76247 39.9842 7.9538 40.0262 8.11247 40.0262C8.33647 40.0262 8.50914 39.9422 8.63047 39.7742C8.7518 39.6155 8.81247 39.3775 8.81247 39.0602C8.81247 39.0322 8.84047 39.0182 8.89647 39.0182C8.95247 39.0182 8.98047 39.0322 8.98047 39.0602L8.96647 39.6622C8.9478 39.9795 8.93847 40.2689 8.93847 40.5302C8.93847 40.7262 8.9478 40.9455 8.96647 41.1882L8.98047 41.7762ZM7.60847 36.3442C7.94447 36.4749 8.20114 36.5402 8.37847 36.5402C8.6678 36.5402 8.81247 36.3675 8.81247 36.0222C8.81247 36.0035 8.84047 35.9942 8.89647 35.9942C8.95247 35.9942 8.98047 36.0035 8.98047 36.0222L8.96647 36.3022C8.9478 36.4889 8.93847 36.7035 8.93847 36.9462C8.93847 37.1142 8.9478 37.3195 8.96647 37.5622L8.98047 38.1222C8.98047 38.1409 8.95247 38.1502 8.89647 38.1502C8.84047 38.1502 8.81247 38.1409 8.81247 38.1222C8.81247 37.8049 8.71447 37.5295 8.51847 37.2962C8.32247 37.0629 7.9958 36.8575 7.53847 36.6802L4.82247 35.6022L5.14447 35.3782L7.60847 36.3442Z" fill="#421D12"/>
<path d="M0.060812 22.104C0.060812 21.236 0.261479 20.4613 0.662812 19.78C1.07348 19.108 1.62415 18.5853 2.31481 18.212C3.01481 17.848 3.77548 17.666 4.59681 17.666C5.55815 17.666 6.37948 17.9087 7.06081 18.394C7.75148 18.8793 8.26948 19.5 8.61481 20.256C8.96015 21.0213 9.13281 21.8007 9.13281 22.594C9.13281 23.4807 8.92281 24.26 8.50281 24.932C8.09215 25.604 7.54615 26.1173 6.86481 26.472C6.18348 26.836 5.46015 27.018 4.69481 27.018C3.84548 27.018 3.06615 26.794 2.35681 26.346C1.64748 25.898 1.08748 25.296 0.676812 24.54C0.266145 23.7933 0.060812 22.9813 0.060812 22.104ZM0.368813 22.594C0.368813 23.1913 0.522812 23.728 0.830812 24.204C1.13881 24.68 1.58681 25.0533 2.17481 25.324C2.77215 25.604 3.48148 25.744 4.30281 25.744C5.17081 25.744 5.94548 25.59 6.62681 25.282C7.30815 24.9833 7.84015 24.5493 8.22281 23.98C8.60548 23.42 8.79681 22.7667 8.79681 22.02C8.79681 21.0493 8.46548 20.2933 7.80281 19.752C7.14948 19.2107 6.24415 18.94 5.08681 18.94C4.20015 18.94 3.39748 19.094 2.67881 19.402C1.96015 19.71 1.39548 20.1393 0.984812 20.69C0.574145 21.25 0.368813 21.8847 0.368813 22.594Z" fill="#421D12"/>
<path d="M1.42047 10.7761C1.15914 10.7761 0.967802 10.7995 0.846469 10.8461C0.734469 10.9021 0.655136 11.0001 0.608469 11.1401C0.571136 11.2801 0.552469 11.4995 0.552469 11.7981V12.9881C0.552469 13.5761 0.725136 14.0615 1.07047 14.4441C1.42514 14.8361 1.90114 15.0975 2.49847 15.2281C2.52647 15.2281 2.5358 15.2515 2.52647 15.2981C2.52647 15.3541 2.51247 15.3821 2.48447 15.3821C1.66314 15.2981 0.981802 15.2561 0.440469 15.2561C0.365802 15.2561 0.309802 15.2375 0.272469 15.2001C0.244469 15.1721 0.230469 15.1208 0.230469 15.0461V8.52214C0.230469 8.50347 0.258468 8.49414 0.314468 8.49414C0.370468 8.49414 0.398469 8.50347 0.398469 8.52214C0.398469 8.85814 0.421802 9.10547 0.468469 9.26414C0.515135 9.42281 0.603802 9.53014 0.734468 9.58614C0.874468 9.64214 1.08447 9.67014 1.36447 9.67014H7.84647C8.12647 9.67014 8.3318 9.64214 8.46247 9.58614C8.59314 9.53014 8.6818 9.42281 8.72847 9.26414C8.78447 9.10547 8.81247 8.85814 8.81247 8.52214C8.81247 8.50347 8.84047 8.49414 8.89647 8.49414C8.95247 8.49414 8.98047 8.50347 8.98047 8.52214L8.96647 9.22214C8.9478 9.63281 8.93847 9.96414 8.93847 10.2161C8.93847 10.4681 8.9478 10.7995 8.96647 11.2101L8.98047 11.9101C8.98047 11.9288 8.95247 11.9381 8.89647 11.9381C8.84047 11.9381 8.81247 11.9288 8.81247 11.9101C8.81247 11.5741 8.78447 11.3268 8.72847 11.1681C8.6818 11.0188 8.58847 10.9161 8.44847 10.8601C8.3178 10.8041 8.11247 10.7761 7.83247 10.7761H1.42047Z" fill="#421D12"/>
<path d="M0.230469 0.0420001C0.230469 0.014 0.258468 0 0.314468 0C0.370468 0 0.398469 0.014 0.398469 0.0420001C0.398469 0.387333 0.421802 0.639333 0.468469 0.798C0.515135 0.956667 0.603802 1.064 0.734468 1.12C0.874468 1.18533 1.08447 1.218 1.36447 1.218H7.84647C8.12647 1.218 8.3318 1.19 8.46247 1.134C8.59314 1.078 8.6818 0.970667 8.72847 0.812C8.78447 0.662667 8.81247 0.42 8.81247 0.084C8.81247 0.056 8.84047 0.0420001 8.89647 0.0420001C8.95247 0.0420001 8.98047 0.056 8.98047 0.084V5.796C8.98047 5.88933 8.93847 5.936 8.85447 5.936L7.09047 5.964C7.06247 5.964 7.0438 5.936 7.03447 5.88C7.03447 5.83333 7.04847 5.80533 7.07647 5.796C7.5898 5.73067 7.9818 5.54867 8.25247 5.25C8.52314 4.95133 8.65847 4.55933 8.65847 4.074V3.36C8.65847 2.95867 8.5978 2.68333 8.47647 2.534C8.36447 2.394 8.1498 2.324 7.83247 2.324H1.42047C1.1218 2.324 0.902468 2.36133 0.762468 2.436C0.631802 2.52 0.538469 2.674 0.482469 2.898C0.426469 3.122 0.398469 3.47667 0.398469 3.962C0.398469 3.98067 0.370468 3.99 0.314468 3.99C0.258468 3.99 0.230469 3.98067 0.230469 3.962C0.230469 3.57933 0.235135 3.28067 0.244469 3.066L0.258469 1.75L0.244469 0.77C0.235135 0.592667 0.230469 0.35 0.230469 0.0420001ZM3.28247 5.096C3.6838 5.096 3.9778 4.97467 4.16447 4.732C4.36047 4.48933 4.45847 4.102 4.45847 3.57V1.792H4.78047V3.612C4.78047 4.116 4.86447 4.48467 5.03247 4.718C5.20047 4.96067 5.45247 5.082 5.78847 5.082C5.80714 5.082 5.81647 5.11 5.81647 5.166C5.81647 5.222 5.80714 5.25 5.78847 5.25L4.61247 5.236C4.33247 5.236 4.12247 5.24067 3.98247 5.25L3.28247 5.264C3.2638 5.264 3.25447 5.236 3.25447 5.18C3.25447 5.124 3.2638 5.096 3.28247 5.096Z" fill="#421D12"/>
</svg>
