<svg width="9" height="157" viewBox="0 0 9 157" fill="none" xmlns="http://www.w3.org/2000/svg">
<path d="M0.0631251 156.045C0.0631251 155.869 0.115125 155.725 0.219125 155.613C0.331125 155.509 0.475125 155.457 0.651125 155.457C0.819125 155.457 0.951125 155.509 1.04713 155.613C1.15113 155.725 1.20312 155.869 1.20312 156.045C1.20312 156.229 1.15113 156.369 1.04713 156.465C0.951125 156.569 0.819125 156.621 0.651125 156.621C0.467125 156.621 0.323125 156.569 0.219125 156.465C0.115125 156.369 0.0631251 156.229 0.0631251 156.045Z" fill="#421D12"/>
<path d="M0.207313 148.073C0.175313 148.065 0.159312 148.021 0.159312 147.941C0.159312 147.861 0.175313 147.817 0.207313 147.809L6.69931 144.797C7.03531 144.645 7.25931 144.501 7.37131 144.365C7.49131 144.237 7.55131 144.053 7.55131 143.813C7.55131 143.789 7.57531 143.777 7.62331 143.777C7.67131 143.777 7.69531 143.789 7.69531 143.813L7.68331 144.185C7.66731 144.393 7.65931 144.589 7.65931 144.773C7.65931 145.133 7.66731 145.489 7.68331 145.841C7.69131 145.953 7.69531 146.105 7.69531 146.297C7.69531 146.321 7.67131 146.333 7.62331 146.333C7.57531 146.333 7.55131 146.321 7.55131 146.297C7.55131 146.065 7.52731 145.897 7.47931 145.793C7.43131 145.689 7.33931 145.637 7.20331 145.637C7.09131 145.637 6.91131 145.693 6.66331 145.805L1.22731 148.349L0.567313 147.893L4.40731 149.405L4.13131 149.597L0.207313 148.073ZM7.69531 154.949C7.69531 154.973 7.67131 154.985 7.62331 154.985C7.57531 154.985 7.55131 154.973 7.55131 154.949C7.55131 154.381 7.18731 153.949 6.45931 153.653L0.207313 151.205C0.175313 151.197 0.159312 151.153 0.159312 151.073C0.159312 150.993 0.175313 150.949 0.207313 150.941L6.69931 147.929C6.99531 147.793 7.21131 147.653 7.34731 147.509C7.48331 147.373 7.55131 147.205 7.55131 147.005C7.55131 146.981 7.57531 146.969 7.62331 146.969C7.67131 146.969 7.69531 146.981 7.69531 147.005L7.68331 147.377C7.66731 147.569 7.65931 147.745 7.65931 147.905C7.65931 148.209 7.66731 148.489 7.68331 148.745C7.69131 148.825 7.69531 148.933 7.69531 149.069C7.69531 149.093 7.67131 149.105 7.62331 149.105C7.57531 149.105 7.55131 149.093 7.55131 149.069C7.55131 148.933 7.53531 148.833 7.50331 148.769C7.47931 148.713 7.43131 148.685 7.35931 148.685C7.24731 148.685 7.01531 148.769 6.66331 148.937L1.22731 151.481L0.567313 151.025L6.45931 153.341C6.65131 153.413 6.81531 153.449 6.95131 153.449C7.14331 153.449 7.29131 153.377 7.39531 153.233C7.49931 153.097 7.55131 152.893 7.55131 152.621C7.55131 152.597 7.57531 152.585 7.62331 152.585C7.67131 152.585 7.69531 152.597 7.69531 152.621L7.68331 153.137C7.66731 153.409 7.65931 153.657 7.65931 153.881C7.65931 154.049 7.66731 154.237 7.68331 154.445L7.69531 154.949ZM6.51931 150.293C6.80731 150.405 7.02731 150.461 7.17931 150.461C7.42731 150.461 7.55131 150.313 7.55131 150.017C7.55131 150.001 7.57531 149.993 7.62331 149.993C7.67131 149.993 7.69531 150.001 7.69531 150.017L7.68331 150.257C7.66731 150.417 7.65931 150.601 7.65931 150.809C7.65931 150.953 7.66731 151.129 7.68331 151.337L7.69531 151.817C7.69531 151.833 7.67131 151.841 7.62331 151.841C7.57531 151.841 7.55131 151.833 7.55131 151.817C7.55131 151.545 7.46731 151.309 7.29931 151.109C7.13131 150.909 6.85131 150.733 6.45931 150.581L4.13131 149.657L4.40731 149.465L6.51931 150.293Z" fill="#421D12"/>
<path d="M0.195312 136.613C0.195312 136.589 0.219313 136.577 0.267313 136.577C0.315313 136.577 0.339313 136.589 0.339313 136.613C0.339313 136.901 0.359312 137.109 0.399312 137.237C0.439313 137.373 0.515313 137.465 0.627313 137.513C0.747313 137.561 0.927313 137.585 1.16731 137.585H6.72331C6.96331 137.585 7.13931 137.561 7.25131 137.513C7.36331 137.465 7.43931 137.373 7.47931 137.237C7.52731 137.109 7.55131 136.901 7.55131 136.613C7.55131 136.589 7.57531 136.577 7.62331 136.577C7.67131 136.577 7.69531 136.589 7.69531 136.613V141.509C7.69531 141.589 7.65931 141.629 7.58731 141.629L6.07531 141.653C6.05131 141.653 6.03531 141.629 6.02731 141.581C6.02731 141.541 6.03931 141.517 6.06331 141.509C6.50331 141.453 6.83931 141.297 7.07131 141.041C7.30331 140.785 7.41931 140.449 7.41931 140.033V139.421C7.41931 139.069 7.36731 138.833 7.26331 138.713C7.15931 138.593 6.96331 138.533 6.67531 138.533H1.21531C0.927312 138.533 0.731313 138.585 0.627313 138.689C0.523313 138.801 0.471313 139.021 0.471313 139.349V140.141C0.471313 140.589 0.603312 140.961 0.867312 141.257C1.13931 141.561 1.52331 141.769 2.01931 141.881C2.03531 141.881 2.04331 141.897 2.04331 141.929C2.04331 141.953 2.03531 141.973 2.01931 141.989C2.01131 142.013 2.00331 142.025 1.99531 142.025C1.41931 141.945 0.879312 141.905 0.375312 141.905C0.311312 141.905 0.263312 141.893 0.231312 141.869C0.207312 141.845 0.195312 141.797 0.195312 141.725V136.613ZM2.95531 141.053C3.29931 141.053 3.55131 140.953 3.71131 140.753C3.87931 140.561 3.96331 140.253 3.96331 139.829V138.077H4.23931V139.853C4.23931 140.261 4.30731 140.561 4.44331 140.753C4.58731 140.945 4.80731 141.041 5.10331 141.041C5.11931 141.041 5.12731 141.061 5.12731 141.101C5.12731 141.149 5.11931 141.173 5.10331 141.173L4.09531 141.161L3.55531 141.173C3.29931 141.189 3.09931 141.197 2.95531 141.197C2.93931 141.197 2.93131 141.173 2.93131 141.125C2.93131 141.077 2.93931 141.053 2.95531 141.053Z" fill="#421D12"/>
<path d="M1.16731 133.374C0.919313 133.374 0.739313 133.394 0.627313 133.434C0.515313 133.482 0.439313 133.57 0.399312 133.698C0.359312 133.834 0.339313 134.05 0.339313 134.346C0.339313 134.362 0.315313 134.37 0.267313 134.37C0.219313 134.37 0.195312 134.362 0.195312 134.346C0.195312 134.09 0.199313 133.89 0.207313 133.746L0.219313 132.882L0.207313 132.042C0.199313 131.89 0.195312 131.682 0.195312 131.418C0.195312 131.402 0.219313 131.394 0.267313 131.394C0.315313 131.394 0.339313 131.402 0.339313 131.418C0.339313 131.706 0.359312 131.918 0.399312 132.054C0.439313 132.19 0.515313 132.282 0.627313 132.33C0.747313 132.386 0.927313 132.414 1.16731 132.414H6.72331C6.96331 132.414 7.13931 132.386 7.25131 132.33C7.36331 132.282 7.43931 132.19 7.47931 132.054C7.52731 131.918 7.55131 131.706 7.55131 131.418C7.55131 131.402 7.57531 131.394 7.62331 131.394C7.67131 131.394 7.69531 131.402 7.69531 131.418L7.68331 132.042C7.66731 132.394 7.65931 132.674 7.65931 132.882C7.65931 133.114 7.66731 133.406 7.68331 133.758L7.69531 134.346C7.69531 134.362 7.67131 134.37 7.62331 134.37C7.57531 134.37 7.55131 134.362 7.55131 134.346C7.55131 134.058 7.52731 133.846 7.47931 133.71C7.43131 133.582 7.34731 133.494 7.22731 133.446C7.11531 133.398 6.93931 133.374 6.69931 133.374H1.16731Z" fill="#421D12"/>
<path d="M7.69531 129.726C7.69531 129.75 7.67131 129.762 7.62331 129.762C7.57531 129.762 7.55131 129.75 7.55131 129.726C7.55131 129.15 7.18731 128.718 6.45931 128.43L0.207313 125.982C0.175313 125.974 0.159312 125.93 0.159312 125.85C0.159312 125.77 0.175313 125.726 0.207313 125.718L6.69931 122.706C7.00331 122.562 7.21931 122.414 7.34731 122.262C7.48331 122.118 7.55131 121.938 7.55131 121.722C7.55131 121.698 7.57531 121.686 7.62331 121.686C7.67131 121.686 7.69531 121.698 7.69531 121.722L7.68331 122.094C7.66731 122.302 7.65931 122.498 7.65931 122.682C7.65931 123.114 7.66731 123.53 7.68331 123.93C7.69131 124.058 7.69531 124.222 7.69531 124.422C7.69531 124.446 7.67131 124.458 7.62331 124.458C7.57531 124.458 7.55131 124.446 7.55131 124.422C7.55131 123.926 7.39931 123.678 7.09531 123.678C6.96731 123.678 6.82331 123.718 6.66331 123.798L1.31131 126.258L0.615313 125.826L6.51931 128.142C6.69531 128.206 6.84331 128.238 6.96331 128.238C7.35531 128.238 7.55131 127.934 7.55131 127.326C7.55131 127.302 7.57531 127.29 7.62331 127.29C7.67131 127.29 7.69531 127.302 7.69531 127.326L7.68331 127.866C7.66731 128.17 7.65931 128.434 7.65931 128.658C7.65931 128.826 7.66731 129.014 7.68331 129.222L7.69531 129.726Z" fill="#421D12"/>
<path d="M0.198375 119.748C0.198375 119.548 0.546375 119.18 1.24237 118.644C1.93837 118.108 2.91037 117.452 4.15837 116.676L4.42238 117.48C3.38238 118.16 2.57037 118.728 1.98637 119.184C1.41037 119.648 0.990375 120.06 0.726375 120.42C0.470375 120.78 0.342375 121.128 0.342375 121.464C0.342375 121.488 0.318375 121.5 0.270375 121.5C0.222375 121.5 0.198375 121.488 0.198375 121.464V119.748ZM7.73438 116.64C7.73438 117.32 7.59838 117.844 7.32638 118.212C7.06238 118.58 6.69438 118.764 6.22238 118.764C5.83037 118.764 5.46237 118.644 5.11838 118.404C4.77437 118.172 4.49837 117.86 4.29037 117.468C4.08238 117.076 3.97837 116.66 3.97837 116.22C3.97837 116.052 3.98637 115.856 4.00237 115.632H1.17037C0.930375 115.632 0.750375 115.656 0.630375 115.704C0.518375 115.752 0.442375 115.84 0.402375 115.968C0.362375 116.104 0.342375 116.316 0.342375 116.604C0.342375 116.628 0.318375 116.64 0.270375 116.64C0.222375 116.64 0.198375 116.628 0.198375 116.604C0.198375 116.356 0.202375 116.16 0.210375 116.016L0.222375 115.152L0.210375 114.312C0.202375 114.16 0.198375 113.956 0.198375 113.7C0.198375 113.676 0.222375 113.664 0.270375 113.664C0.318375 113.664 0.342375 113.676 0.342375 113.7C0.342375 113.988 0.362375 114.2 0.402375 114.336C0.442375 114.472 0.518375 114.564 0.630375 114.612C0.750375 114.66 0.930375 114.684 1.17037 114.684H6.72638C6.96637 114.684 7.14237 114.66 7.25437 114.612C7.36638 114.564 7.44238 114.472 7.48238 114.336C7.53038 114.208 7.55438 114 7.55438 113.712C7.55438 113.696 7.57838 113.688 7.62637 113.688C7.67437 113.688 7.69837 113.696 7.69837 113.712L7.68637 114.312C7.67038 114.664 7.66238 114.944 7.66238 115.152C7.66238 115.296 7.66638 115.432 7.67438 115.56C7.68237 115.688 7.69037 115.8 7.69837 115.896C7.72237 116.16 7.73438 116.408 7.73438 116.64ZM5.79037 117.768C6.42237 117.768 6.87037 117.648 7.13437 117.408C7.39837 117.168 7.53037 116.836 7.53037 116.412C7.53037 116.204 7.51037 116.044 7.47037 115.932C7.43037 115.828 7.35037 115.752 7.23038 115.704C7.11838 115.656 6.94238 115.632 6.70238 115.632H4.31437C4.28237 115.936 4.26638 116.172 4.26638 116.34C4.26638 116.852 4.37838 117.216 4.60238 117.432C4.83438 117.656 5.23038 117.768 5.79037 117.768Z" fill="#421D12"/>
<path d="M0.195312 105.997C0.195312 105.973 0.219313 105.961 0.267313 105.961C0.315313 105.961 0.339313 105.973 0.339313 105.997C0.339313 106.285 0.359312 106.493 0.399312 106.621C0.439313 106.757 0.515313 106.849 0.627313 106.897C0.747313 106.945 0.927313 106.969 1.16731 106.969H6.72331C6.96331 106.969 7.13931 106.945 7.25131 106.897C7.36331 106.849 7.43931 106.757 7.47931 106.621C7.52731 106.493 7.55131 106.285 7.55131 105.997C7.55131 105.973 7.57531 105.961 7.62331 105.961C7.67131 105.961 7.69531 105.973 7.69531 105.997V110.893C7.69531 110.973 7.65931 111.013 7.58731 111.013L6.07531 111.037C6.05131 111.037 6.03531 111.013 6.02731 110.965C6.02731 110.925 6.03931 110.901 6.06331 110.893C6.50331 110.837 6.83931 110.681 7.07131 110.425C7.30331 110.169 7.41931 109.833 7.41931 109.417V108.805C7.41931 108.453 7.36731 108.217 7.26331 108.097C7.15931 107.977 6.96331 107.917 6.67531 107.917H1.21531C0.927312 107.917 0.731313 107.969 0.627313 108.073C0.523313 108.185 0.471313 108.405 0.471313 108.733V109.525C0.471313 109.973 0.603312 110.345 0.867312 110.641C1.13931 110.945 1.52331 111.153 2.01931 111.265C2.03531 111.265 2.04331 111.281 2.04331 111.313C2.04331 111.337 2.03531 111.357 2.01931 111.373C2.01131 111.397 2.00331 111.409 1.99531 111.409C1.41931 111.329 0.879312 111.289 0.375312 111.289C0.311312 111.289 0.263312 111.277 0.231312 111.253C0.207312 111.229 0.195312 111.181 0.195312 111.109V105.997ZM2.95531 110.437C3.29931 110.437 3.55131 110.337 3.71131 110.137C3.87931 109.945 3.96331 109.637 3.96331 109.213V107.461H4.23931V109.237C4.23931 109.645 4.30731 109.945 4.44331 110.137C4.58731 110.329 4.80731 110.425 5.10331 110.425C5.11931 110.425 5.12731 110.445 5.12731 110.485C5.12731 110.533 5.11931 110.557 5.10331 110.557L4.09531 110.545L3.55531 110.557C3.29931 110.573 3.09931 110.581 2.95531 110.581C2.93931 110.581 2.93131 110.557 2.93131 110.509C2.93131 110.461 2.93931 110.437 2.95531 110.437Z" fill="#421D12"/>
<path d="M7.45497 99.0277C7.45497 98.5317 7.31497 98.1437 7.03497 97.8637C6.76297 97.5837 6.32297 97.3757 5.71497 97.2397C5.69897 97.2317 5.69097 97.2037 5.69097 97.1557C5.69097 97.1157 5.70297 97.0957 5.72697 97.0957C5.95097 97.1277 6.31497 97.1637 6.81897 97.2037C7.32297 97.2437 7.70297 97.2637 7.95897 97.2637C7.99897 97.2637 8.01897 97.2877 8.01897 97.3357C8.01897 97.3837 7.99897 97.4077 7.95897 97.4077C7.78297 97.4077 7.69497 97.6277 7.69497 98.0677C7.67097 98.7557 7.65897 99.5597 7.65897 100.48C7.65897 100.952 7.66697 101.452 7.68297 101.98L7.69497 102.796C7.69497 103.092 7.71497 103.308 7.75497 103.444C7.79497 103.58 7.87497 103.668 7.99497 103.708C8.02697 103.716 8.04297 103.74 8.04297 103.78C8.04297 103.828 8.02697 103.852 7.99497 103.852C7.77097 103.828 7.41097 103.8 6.91497 103.768C6.41897 103.744 6.02297 103.732 5.72697 103.732C5.70297 103.732 5.69097 103.708 5.69097 103.66C5.69097 103.62 5.70297 103.6 5.72697 103.6C6.34297 103.544 6.78297 103.384 7.04697 103.12C7.31897 102.856 7.45497 102.464 7.45497 101.944C7.45497 101.648 7.43497 101.436 7.39497 101.308C7.36297 101.18 7.29497 101.092 7.19097 101.044C7.09497 100.996 6.93097 100.972 6.69897 100.972H1.16697C0.918968 100.972 0.738968 100.996 0.626968 101.044C0.514968 101.1 0.438968 101.204 0.398968 101.356C0.358968 101.508 0.338968 101.752 0.338968 102.088C0.338968 102.104 0.314968 102.112 0.266968 102.112C0.218968 102.112 0.194968 102.104 0.194968 102.088C0.194968 101.808 0.198968 101.588 0.206968 101.428L0.218968 100.48L0.206968 99.5557C0.198968 99.3957 0.194968 99.1717 0.194968 98.8837C0.194968 98.8597 0.218968 98.8477 0.266968 98.8477C0.314968 98.8477 0.338968 98.8597 0.338968 98.8837C0.338968 99.2117 0.358968 99.4517 0.398968 99.6037C0.438968 99.7637 0.514968 99.8717 0.626968 99.9277C0.746968 99.9837 0.926968 100.012 1.16697 100.012H6.72297C6.94697 100.012 7.10697 99.9877 7.20297 99.9397C7.30697 99.8917 7.37497 99.7997 7.40697 99.6637C7.43897 99.5357 7.45497 99.3237 7.45497 99.0277Z" fill="#421D12"/>
<path d="M7.41931 88.1383L7.39531 88.4503H1.56331C1.14731 88.4503 0.839313 88.5263 0.639313 88.6783C0.439313 88.8383 0.339313 89.0783 0.339313 89.3983C0.339313 89.4143 0.315313 89.4223 0.267313 89.4223C0.219313 89.4223 0.195312 89.4143 0.195312 89.3983C0.195312 89.1903 0.199313 89.0303 0.207313 88.9183L0.219313 88.3063L0.207313 87.6583C0.199313 87.5383 0.195312 87.3623 0.195312 87.1303C0.195312 87.1143 0.219313 87.1063 0.267313 87.1063C0.315313 87.1063 0.339313 87.1143 0.339313 87.1303C0.339313 87.4743 0.439313 87.7263 0.639313 87.8863C0.839313 88.0543 1.14731 88.1383 1.56331 88.1383H7.41931ZM0.0393124 94.2103C0.0233124 94.2103 0.0113121 94.1903 0.00331211 94.1503C-0.00468789 94.1183 -0.000687808 94.0943 0.0153122 94.0783L6.71131 88.4263C7.02331 88.1623 7.23931 87.9263 7.35931 87.7183C7.48731 87.5103 7.55131 87.3023 7.55131 87.0943C7.55131 87.0783 7.57531 87.0703 7.62331 87.0703C7.67131 87.0703 7.69531 87.0783 7.69531 87.0943L7.68331 87.5623C7.67531 87.6583 7.67131 87.7943 7.67131 87.9703L7.68331 88.5823C7.69131 88.6623 7.69531 88.7543 7.69531 88.8583C7.69531 88.9223 7.67931 88.9703 7.64731 89.0023C7.61531 89.0343 7.55131 89.0823 7.45531 89.1463L7.07131 89.4343L1.43131 94.1143L0.0393124 94.2103ZM0.0393124 94.2103L0.411313 93.9103H6.31531C6.73131 93.9103 7.03931 93.8343 7.23931 93.6823C7.44731 93.5303 7.55131 93.2943 7.55131 92.9743C7.55131 92.9583 7.57531 92.9503 7.62331 92.9503C7.67131 92.9503 7.69531 92.9583 7.69531 92.9743L7.68331 93.4543C7.66731 93.6943 7.65931 93.8983 7.65931 94.0663C7.65931 94.2103 7.66731 94.4183 7.68331 94.6903L7.69531 95.1943C7.69531 95.2103 7.67131 95.2183 7.62331 95.2183C7.57531 95.2183 7.55131 95.2103 7.55131 95.1943C7.55131 94.5383 7.13931 94.2103 6.31531 94.2103H0.0393124Z" fill="#421D12"/>
<path d="M1.16731 83.9507C0.919313 83.9507 0.739313 83.9707 0.627313 84.0107C0.515313 84.0587 0.439313 84.1467 0.399312 84.2747C0.359312 84.4107 0.339313 84.6267 0.339313 84.9227C0.339313 84.9387 0.315313 84.9467 0.267313 84.9467C0.219313 84.9467 0.195312 84.9387 0.195312 84.9227C0.195312 84.6667 0.199313 84.4667 0.207313 84.3227L0.219313 83.4587L0.207313 82.6187C0.199313 82.4667 0.195312 82.2587 0.195312 81.9947C0.195312 81.9787 0.219313 81.9707 0.267313 81.9707C0.315313 81.9707 0.339313 81.9787 0.339313 81.9947C0.339313 82.2827 0.359312 82.4947 0.399312 82.6307C0.439313 82.7667 0.515313 82.8587 0.627313 82.9067C0.747313 82.9627 0.927313 82.9907 1.16731 82.9907H6.72331C6.96331 82.9907 7.13931 82.9627 7.25131 82.9067C7.36331 82.8587 7.43931 82.7667 7.47931 82.6307C7.52731 82.4947 7.55131 82.2827 7.55131 81.9947C7.55131 81.9787 7.57531 81.9707 7.62331 81.9707C7.67131 81.9707 7.69531 81.9787 7.69531 81.9947L7.68331 82.6187C7.66731 82.9707 7.65931 83.2507 7.65931 83.4587C7.65931 83.6907 7.66731 83.9827 7.68331 84.3347L7.69531 84.9227C7.69531 84.9387 7.67131 84.9467 7.62331 84.9467C7.57531 84.9467 7.55131 84.9387 7.55131 84.9227C7.55131 84.6347 7.52731 84.4227 7.47931 84.2867C7.43131 84.1587 7.34731 84.0707 7.22731 84.0227C7.11531 83.9747 6.93931 83.9507 6.69931 83.9507H1.16731Z" fill="#421D12"/>
<path d="M0.195312 70.2547C0.195312 70.2307 0.219313 70.2188 0.267313 70.2188C0.315313 70.2188 0.339313 70.2307 0.339313 70.2547C0.339313 70.5427 0.359312 70.7507 0.399312 70.8787C0.439313 71.0147 0.515313 71.1067 0.627313 71.1547C0.747313 71.2027 0.927313 71.2267 1.16731 71.2267H6.72331C6.96331 71.2267 7.13931 71.2027 7.25131 71.1547C7.36331 71.1067 7.43931 71.0147 7.47931 70.8787C7.52731 70.7507 7.55131 70.5427 7.55131 70.2547C7.55131 70.2307 7.57531 70.2188 7.62331 70.2188C7.67131 70.2188 7.69531 70.2307 7.69531 70.2547V75.1507C7.69531 75.2307 7.65931 75.2707 7.58731 75.2707L6.07531 75.2947C6.05131 75.2947 6.03531 75.2707 6.02731 75.2227C6.02731 75.1827 6.03931 75.1587 6.06331 75.1507C6.50331 75.0947 6.83931 74.9387 7.07131 74.6827C7.30331 74.4267 7.41931 74.0907 7.41931 73.6747V73.0627C7.41931 72.7107 7.36731 72.4747 7.26331 72.3547C7.15931 72.2347 6.96331 72.1747 6.67531 72.1747H1.21531C0.927312 72.1747 0.731313 72.2267 0.627313 72.3307C0.523313 72.4427 0.471313 72.6627 0.471313 72.9907V73.7827C0.471313 74.2307 0.603312 74.6028 0.867312 74.8988C1.13931 75.2028 1.52331 75.4107 2.01931 75.5227C2.03531 75.5227 2.04331 75.5387 2.04331 75.5707C2.04331 75.5947 2.03531 75.6147 2.01931 75.6307C2.01131 75.6547 2.00331 75.6667 1.99531 75.6667C1.41931 75.5867 0.879312 75.5467 0.375312 75.5467C0.311312 75.5467 0.263312 75.5347 0.231312 75.5107C0.207312 75.4867 0.195312 75.4387 0.195312 75.3667V70.2547ZM2.95531 74.6947C3.29931 74.6947 3.55131 74.5947 3.71131 74.3947C3.87931 74.2027 3.96331 73.8947 3.96331 73.4707V71.7188H4.23931V73.4947C4.23931 73.9027 4.30731 74.2027 4.44331 74.3947C4.58731 74.5867 4.80731 74.6827 5.10331 74.6827C5.11931 74.6827 5.12731 74.7027 5.12731 74.7427C5.12731 74.7907 5.11931 74.8147 5.10331 74.8147L4.09531 74.8027L3.55531 74.8147C3.29931 74.8307 3.09931 74.8387 2.95531 74.8387C2.93931 74.8387 2.93131 74.8147 2.93131 74.7667C2.93131 74.7187 2.93931 74.6947 2.95531 74.6947Z" fill="#421D12"/>
<path d="M0.0521245 64.8211C0.0521245 63.9491 0.220125 63.1891 0.556125 62.5411C0.892125 61.8931 1.34812 61.3971 1.92412 61.0531C2.50012 60.7091 3.14412 60.5371 3.85612 60.5371C4.63212 60.5371 5.32012 60.7331 5.92013 61.1251C6.52013 61.5251 6.98813 62.0691 7.32413 62.7571C7.66013 63.4531 7.82812 64.2331 7.82812 65.0971C7.82812 65.4811 7.79212 65.8531 7.72012 66.2131C7.64812 66.5811 7.55212 66.8811 7.43213 67.1131C7.39213 67.1771 7.35613 67.2171 7.32413 67.2331C7.29212 67.2491 7.23612 67.2611 7.15613 67.2691L5.71612 67.4251C5.69212 67.4251 5.67612 67.4011 5.66812 67.3531C5.66012 67.3131 5.67212 67.2891 5.70412 67.2811C6.29613 67.0731 6.74813 66.7331 7.06012 66.2611C7.38013 65.7891 7.54013 65.2251 7.54013 64.5691C7.54013 63.6171 7.25213 62.8851 6.67612 62.3731C6.10012 61.8611 5.30812 61.6051 4.30012 61.6051C3.51612 61.6051 2.81612 61.7571 2.20012 62.0611C1.59212 62.3651 1.11612 62.7811 0.772125 63.3091C0.428125 63.8451 0.256124 64.4491 0.256124 65.1211C0.256124 65.5051 0.292125 65.8011 0.364125 66.0091C0.436125 66.2171 0.576124 66.3691 0.784124 66.4651C0.992124 66.5611 1.30012 66.6091 1.70812 66.6091C2.12412 66.6091 2.41212 66.5811 2.57212 66.5251C2.74012 66.4771 2.85212 66.3651 2.90812 66.1891C2.96412 66.0211 2.99212 65.7251 2.99212 65.3011C2.99212 65.2531 3.02412 65.2291 3.08812 65.2291C3.11212 65.2291 3.13212 65.2331 3.14812 65.2411C3.17212 65.2571 3.18412 65.2731 3.18412 65.2891C3.14412 65.9291 3.12413 66.4491 3.12413 66.8491C3.12413 67.2331 3.13612 67.6331 3.16012 68.0491C3.16012 68.0651 3.14812 68.0771 3.12413 68.0851C3.10812 68.1011 3.09212 68.1091 3.07612 68.1091C3.02012 68.1091 2.99212 68.0891 2.99212 68.0491C3.00012 67.8731 2.97212 67.7491 2.90812 67.6771C2.85212 67.6051 2.73212 67.5571 2.54812 67.5331C2.36412 67.5171 2.04412 67.5091 1.58812 67.5091C1.22812 67.5091 0.972125 67.5211 0.820125 67.5451C0.668125 67.5771 0.572125 67.5931 0.532125 67.5931C0.484125 67.5931 0.452125 67.5851 0.436125 67.5691C0.428125 67.5531 0.412124 67.5131 0.388124 67.4491C0.164124 66.4731 0.0521245 65.5971 0.0521245 64.8211Z" fill="#421D12"/>
<path d="M0.198375 57.707C0.198375 57.507 0.546375 57.139 1.24237 56.603C1.93837 56.067 2.91037 55.411 4.15837 54.635L4.42238 55.439C3.38238 56.119 2.57037 56.687 1.98637 57.143C1.41037 57.607 0.990375 58.019 0.726375 58.379C0.470375 58.739 0.342375 59.087 0.342375 59.423C0.342375 59.447 0.318375 59.459 0.270375 59.459C0.222375 59.459 0.198375 59.447 0.198375 59.423V57.707ZM7.73438 54.599C7.73438 55.279 7.59838 55.803 7.32638 56.171C7.06238 56.539 6.69438 56.723 6.22238 56.723C5.83037 56.723 5.46237 56.603 5.11838 56.363C4.77437 56.131 4.49837 55.819 4.29037 55.427C4.08238 55.035 3.97837 54.619 3.97837 54.179C3.97837 54.011 3.98637 53.815 4.00237 53.591H1.17037C0.930375 53.591 0.750375 53.615 0.630375 53.663C0.518375 53.711 0.442375 53.799 0.402375 53.927C0.362375 54.063 0.342375 54.275 0.342375 54.563C0.342375 54.587 0.318375 54.599 0.270375 54.599C0.222375 54.599 0.198375 54.587 0.198375 54.563C0.198375 54.315 0.202375 54.119 0.210375 53.975L0.222375 53.111L0.210375 52.271C0.202375 52.119 0.198375 51.915 0.198375 51.659C0.198375 51.635 0.222375 51.623 0.270375 51.623C0.318375 51.623 0.342375 51.635 0.342375 51.659C0.342375 51.947 0.362375 52.159 0.402375 52.295C0.442375 52.431 0.518375 52.523 0.630375 52.571C0.750375 52.619 0.930375 52.643 1.17037 52.643H6.72638C6.96637 52.643 7.14237 52.619 7.25437 52.571C7.36638 52.523 7.44238 52.431 7.48238 52.295C7.53038 52.167 7.55438 51.959 7.55438 51.671C7.55438 51.655 7.57838 51.647 7.62637 51.647C7.67437 51.647 7.69837 51.655 7.69837 51.671L7.68637 52.271C7.67038 52.623 7.66238 52.903 7.66238 53.111C7.66238 53.255 7.66638 53.391 7.67438 53.519C7.68237 53.647 7.69037 53.759 7.69837 53.855C7.72237 54.119 7.73438 54.367 7.73438 54.599ZM5.79037 55.727C6.42237 55.727 6.87037 55.607 7.13437 55.367C7.39837 55.127 7.53037 54.795 7.53037 54.371C7.53037 54.163 7.51037 54.003 7.47037 53.891C7.43037 53.787 7.35037 53.711 7.23038 53.663C7.11838 53.615 6.94238 53.591 6.70238 53.591H4.31437C4.28237 53.895 4.26638 54.131 4.26638 54.299C4.26638 54.811 4.37838 55.175 4.60238 55.391C4.83438 55.615 5.23038 55.727 5.79037 55.727Z" fill="#421D12"/>
<path d="M0.195312 43.9559C0.195312 43.9319 0.219313 43.9199 0.267313 43.9199C0.315313 43.9199 0.339313 43.9319 0.339313 43.9559C0.339313 44.2439 0.359312 44.4519 0.399312 44.5799C0.439313 44.7159 0.515313 44.8079 0.627313 44.8559C0.747313 44.9039 0.927313 44.9279 1.16731 44.9279H6.72331C6.96331 44.9279 7.13931 44.9039 7.25131 44.8559C7.36331 44.8079 7.43931 44.7159 7.47931 44.5799C7.52731 44.4519 7.55131 44.2439 7.55131 43.9559C7.55131 43.9319 7.57531 43.9199 7.62331 43.9199C7.67131 43.9199 7.69531 43.9319 7.69531 43.9559V48.8519C7.69531 48.9319 7.65931 48.9719 7.58731 48.9719L6.07531 48.9959C6.05131 48.9959 6.03531 48.9719 6.02731 48.9239C6.02731 48.8839 6.03931 48.8599 6.06331 48.8519C6.50331 48.7959 6.83931 48.6399 7.07131 48.3839C7.30331 48.1279 7.41931 47.7919 7.41931 47.3759V46.7639C7.41931 46.4119 7.36731 46.1759 7.26331 46.0559C7.15931 45.9359 6.96331 45.8759 6.67531 45.8759H1.21531C0.927312 45.8759 0.731313 45.9279 0.627313 46.0319C0.523313 46.1439 0.471313 46.3639 0.471313 46.6919V47.4839C0.471313 47.9319 0.603312 48.3039 0.867312 48.5999C1.13931 48.9039 1.52331 49.1119 2.01931 49.2239C2.03531 49.2239 2.04331 49.2399 2.04331 49.2719C2.04331 49.2959 2.03531 49.3159 2.01931 49.3319C2.01131 49.3559 2.00331 49.3679 1.99531 49.3679C1.41931 49.2879 0.879312 49.2479 0.375312 49.2479C0.311312 49.2479 0.263312 49.2359 0.231312 49.2119C0.207312 49.1879 0.195312 49.1399 0.195312 49.0679V43.9559ZM2.95531 48.3959C3.29931 48.3959 3.55131 48.2959 3.71131 48.0959C3.87931 47.9039 3.96331 47.5959 3.96331 47.1719V45.4199H4.23931V47.1959C4.23931 47.6039 4.30731 47.9039 4.44331 48.0959C4.58731 48.2879 4.80731 48.3839 5.10331 48.3839C5.11931 48.3839 5.12731 48.4039 5.12731 48.4439C5.12731 48.4919 5.11931 48.5159 5.10331 48.5159L4.09531 48.5039L3.55531 48.5159C3.29931 48.5319 3.09931 48.5399 2.95531 48.5399C2.93931 48.5399 2.93131 48.5159 2.93131 48.4679C2.93131 48.4199 2.93931 48.3959 2.95531 48.3959Z" fill="#421D12"/>
<path d="M1.16731 40.7163C0.919313 40.7163 0.739313 40.7363 0.627313 40.7763C0.515313 40.8243 0.439313 40.9123 0.399312 41.0403C0.359312 41.1763 0.339313 41.3923 0.339313 41.6883C0.339313 41.7043 0.315313 41.7123 0.267313 41.7123C0.219313 41.7123 0.195312 41.7043 0.195312 41.6883C0.195312 41.4323 0.199313 41.2323 0.207313 41.0883L0.219313 40.2243L0.207313 39.3843C0.199313 39.2323 0.195312 39.0243 0.195312 38.7603C0.195312 38.7443 0.219313 38.7363 0.267313 38.7363C0.315313 38.7363 0.339313 38.7443 0.339313 38.7603C0.339313 39.0483 0.359312 39.2603 0.399312 39.3963C0.439313 39.5323 0.515313 39.6243 0.627313 39.6723C0.747313 39.7283 0.927313 39.7563 1.16731 39.7563H6.72331C6.96331 39.7563 7.13931 39.7283 7.25131 39.6723C7.36331 39.6243 7.43931 39.5323 7.47931 39.3963C7.52731 39.2603 7.55131 39.0483 7.55131 38.7603C7.55131 38.7443 7.57531 38.7363 7.62331 38.7363C7.67131 38.7363 7.69531 38.7443 7.69531 38.7603L7.68331 39.3843C7.66731 39.7363 7.65931 40.0163 7.65931 40.2243C7.65931 40.4563 7.66731 40.7483 7.68331 41.1003L7.69531 41.6883C7.69531 41.7043 7.67131 41.7123 7.62331 41.7123C7.57531 41.7123 7.55131 41.7043 7.55131 41.6883C7.55131 41.4003 7.52731 41.1883 7.47931 41.0523C7.43131 40.9243 7.34731 40.8363 7.22731 40.7883C7.11531 40.7403 6.93931 40.7163 6.69931 40.7163H1.16731Z" fill="#421D12"/>
<path d="M7.82812 33.9961C7.82812 34.3641 7.79212 34.7441 7.72012 35.1361C7.65612 35.5281 7.56412 35.8401 7.44412 36.0721C7.41212 36.1361 7.37612 36.1761 7.33612 36.1921C7.30412 36.2161 7.24412 36.2361 7.15613 36.2521L5.71612 36.3841C5.69212 36.3841 5.67612 36.3641 5.66812 36.3241C5.66012 36.2841 5.67212 36.2601 5.70412 36.2521C6.32012 36.0441 6.78012 35.7041 7.08412 35.2321C7.39612 34.7601 7.55212 34.1921 7.55212 33.5281C7.55212 32.9441 7.41613 32.4361 7.14413 32.0041C6.88012 31.5721 6.50412 31.2401 6.01612 31.0081C5.52812 30.7841 4.96412 30.6721 4.32412 30.6721C3.58012 30.6721 2.89612 30.8121 2.27212 31.0921C1.64812 31.3801 1.15212 31.7681 0.784124 32.2561C0.424124 32.7521 0.244124 33.2961 0.244124 33.8881C0.244124 35.0401 0.900125 35.8641 2.21212 36.3601C2.23612 36.3601 2.24812 36.3801 2.24812 36.4201C2.24812 36.4361 2.24012 36.4521 2.22412 36.4681C2.21612 36.4921 2.20812 36.5041 2.20012 36.5041L0.760125 36.3361C0.664125 36.3201 0.600125 36.3001 0.568125 36.2761C0.544125 36.2601 0.516125 36.2161 0.484125 36.1441C0.196125 35.4081 0.0521245 34.6561 0.0521245 33.8881C0.0521245 32.9201 0.244125 32.1121 0.628125 31.4641C1.02012 30.8161 1.51612 30.3401 2.11612 30.0361C2.71612 29.7321 3.34412 29.5801 4.00012 29.5801C4.74412 29.5801 5.40412 29.7841 5.98012 30.1921C6.56412 30.6081 7.01612 31.1521 7.33612 31.8241C7.66412 32.5041 7.82812 33.2281 7.82812 33.9961Z" fill="#421D12"/>
<path d="M7.41931 20.4909L7.39531 20.8029H1.56331C1.14731 20.8029 0.839313 20.8789 0.639313 21.0309C0.439313 21.1909 0.339313 21.4309 0.339313 21.7509C0.339313 21.7669 0.315313 21.7749 0.267313 21.7749C0.219313 21.7749 0.195312 21.7669 0.195312 21.7509C0.195312 21.5429 0.199313 21.3829 0.207313 21.2709L0.219313 20.6589L0.207313 20.0109C0.199313 19.8909 0.195312 19.7149 0.195312 19.4829C0.195312 19.4669 0.219313 19.4589 0.267313 19.4589C0.315313 19.4589 0.339313 19.4669 0.339313 19.4829C0.339313 19.8269 0.439313 20.0789 0.639313 20.2389C0.839313 20.4069 1.14731 20.4909 1.56331 20.4909H7.41931ZM0.0393124 26.5629C0.0233124 26.5629 0.0113121 26.5429 0.00331211 26.5029C-0.00468789 26.4709 -0.000687808 26.4469 0.0153122 26.4309L6.71131 20.7789C7.02331 20.5149 7.23931 20.2789 7.35931 20.0709C7.48731 19.8629 7.55131 19.6549 7.55131 19.4469C7.55131 19.4309 7.57531 19.4229 7.62331 19.4229C7.67131 19.4229 7.69531 19.4309 7.69531 19.4469L7.68331 19.9149C7.67531 20.0109 7.67131 20.1469 7.67131 20.3229L7.68331 20.9349C7.69131 21.0149 7.69531 21.1069 7.69531 21.2109C7.69531 21.2749 7.67931 21.3229 7.64731 21.3549C7.61531 21.3869 7.55131 21.4349 7.45531 21.4989L7.07131 21.7869L1.43131 26.4669L0.0393124 26.5629ZM0.0393124 26.5629L0.411313 26.2629H6.31531C6.73131 26.2629 7.03931 26.1869 7.23931 26.0349C7.44731 25.8829 7.55131 25.6469 7.55131 25.3269C7.55131 25.3109 7.57531 25.3029 7.62331 25.3029C7.67131 25.3029 7.69531 25.3109 7.69531 25.3269L7.68331 25.8069C7.66731 26.0469 7.65931 26.2509 7.65931 26.4189C7.65931 26.5629 7.66731 26.7709 7.68331 27.0429L7.69531 27.5469C7.69531 27.5629 7.67131 27.5709 7.62331 27.5709C7.57531 27.5709 7.55131 27.5629 7.55131 27.5469C7.55131 26.8909 7.13931 26.5629 6.31531 26.5629H0.0393124Z" fill="#421D12"/>
<path d="M0.0521245 13.0315C0.0521245 12.2875 0.224125 11.6235 0.568125 11.0395C0.920125 10.4635 1.39212 10.0155 1.98412 9.69554C2.58412 9.38354 3.23612 9.22754 3.94012 9.22754C4.76412 9.22754 5.46812 9.43554 6.05212 9.85154C6.64412 10.2675 7.08812 10.7995 7.38412 11.4475C7.68012 12.1035 7.82812 12.7715 7.82812 13.4515C7.82812 14.2115 7.64812 14.8795 7.28812 15.4555C6.93613 16.0315 6.46813 16.4715 5.88412 16.7755C5.30012 17.0875 4.68012 17.2435 4.02412 17.2435C3.29612 17.2435 2.62812 17.0515 2.02012 16.6675C1.41212 16.2835 0.932124 15.7675 0.580124 15.1195C0.228124 14.4795 0.0521245 13.7835 0.0521245 13.0315ZM0.316124 13.4515C0.316124 13.9635 0.448124 14.4235 0.712124 14.8315C0.976124 15.2395 1.36012 15.5595 1.86412 15.7915C2.37612 16.0315 2.98412 16.1515 3.68812 16.1515C4.43212 16.1515 5.09612 16.0195 5.68012 15.7555C6.26412 15.4995 6.72012 15.1275 7.04813 14.6395C7.37613 14.1595 7.54013 13.5995 7.54013 12.9595C7.54013 12.1275 7.25612 11.4795 6.68812 11.0155C6.12812 10.5515 5.35212 10.3195 4.36012 10.3195C3.60012 10.3195 2.91212 10.4515 2.29612 10.7155C1.68012 10.9795 1.19612 11.3475 0.844125 11.8195C0.492125 12.2995 0.316124 12.8435 0.316124 13.4515Z" fill="#421D12"/>
<path d="M7.82812 4.416C7.82812 4.784 7.79212 5.164 7.72012 5.556C7.65612 5.948 7.56412 6.26 7.44412 6.492C7.41212 6.556 7.37612 6.596 7.33612 6.612C7.30412 6.636 7.24412 6.656 7.15613 6.672L5.71612 6.804C5.69212 6.804 5.67612 6.784 5.66812 6.744C5.66012 6.704 5.67212 6.68 5.70412 6.672C6.32012 6.464 6.78012 6.124 7.08412 5.652C7.39612 5.18 7.55212 4.612 7.55212 3.948C7.55212 3.364 7.41613 2.856 7.14413 2.424C6.88012 1.992 6.50412 1.66 6.01612 1.428C5.52812 1.204 4.96412 1.092 4.32412 1.092C3.58012 1.092 2.89612 1.232 2.27212 1.512C1.64812 1.8 1.15212 2.188 0.784124 2.676C0.424124 3.172 0.244124 3.716 0.244124 4.308C0.244124 5.46 0.900125 6.284 2.21212 6.78C2.23612 6.78 2.24812 6.8 2.24812 6.84C2.24812 6.856 2.24012 6.872 2.22412 6.888C2.21612 6.912 2.20812 6.924 2.20012 6.924L0.760125 6.756C0.664125 6.74 0.600125 6.72 0.568125 6.696C0.544125 6.68 0.516125 6.636 0.484125 6.564C0.196125 5.828 0.0521245 5.076 0.0521245 4.308C0.0521245 3.34 0.244125 2.532 0.628125 1.884C1.02012 1.236 1.51612 0.76 2.11612 0.456C2.71612 0.152 3.34412 0 4.00012 0C4.74412 0 5.40412 0.204 5.98012 0.612C6.56412 1.028 7.01612 1.572 7.33612 2.244C7.66412 2.924 7.82812 3.648 7.82812 4.416Z" fill="#421D12"/>
</svg>
