<svg width="9" height="243" viewBox="0 0 9 243" fill="none" xmlns="http://www.w3.org/2000/svg">
<path d="M0.0631251 242.028C0.0631251 241.852 0.115125 241.708 0.219125 241.596C0.331125 241.492 0.475125 241.44 0.651125 241.44C0.819125 241.44 0.951125 241.492 1.04713 241.596C1.15113 241.708 1.20312 241.852 1.20312 242.028C1.20312 242.212 1.15113 242.352 1.04713 242.448C0.951125 242.552 0.819125 242.604 0.651125 242.604C0.467125 242.604 0.323125 242.552 0.219125 242.448C0.115125 242.352 0.0631251 242.212 0.0631251 242.028Z" fill="#421D12"/>
<path d="M0.207313 234.057C0.175313 234.049 0.159312 234.005 0.159312 233.925C0.159312 233.845 0.175313 233.801 0.207313 233.793L6.69931 230.781C7.03531 230.629 7.25931 230.485 7.37131 230.349C7.49131 230.221 7.55131 230.037 7.55131 229.797C7.55131 229.773 7.57531 229.761 7.62331 229.761C7.67131 229.761 7.69531 229.773 7.69531 229.797L7.68331 230.169C7.66731 230.377 7.65931 230.573 7.65931 230.757C7.65931 231.117 7.66731 231.473 7.68331 231.825C7.69131 231.937 7.69531 232.089 7.69531 232.281C7.69531 232.305 7.67131 232.317 7.62331 232.317C7.57531 232.317 7.55131 232.305 7.55131 232.281C7.55131 232.049 7.52731 231.881 7.47931 231.777C7.43131 231.673 7.33931 231.621 7.20331 231.621C7.09131 231.621 6.91131 231.677 6.66331 231.789L1.22731 234.333L0.567313 233.877L4.40731 235.389L4.13131 235.581L0.207313 234.057ZM7.69531 240.933C7.69531 240.957 7.67131 240.969 7.62331 240.969C7.57531 240.969 7.55131 240.957 7.55131 240.933C7.55131 240.365 7.18731 239.933 6.45931 239.637L0.207313 237.189C0.175313 237.181 0.159312 237.137 0.159312 237.057C0.159312 236.977 0.175313 236.933 0.207313 236.925L6.69931 233.913C6.99531 233.777 7.21131 233.637 7.34731 233.493C7.48331 233.357 7.55131 233.189 7.55131 232.989C7.55131 232.965 7.57531 232.953 7.62331 232.953C7.67131 232.953 7.69531 232.965 7.69531 232.989L7.68331 233.361C7.66731 233.553 7.65931 233.729 7.65931 233.889C7.65931 234.193 7.66731 234.473 7.68331 234.729C7.69131 234.809 7.69531 234.917 7.69531 235.053C7.69531 235.077 7.67131 235.089 7.62331 235.089C7.57531 235.089 7.55131 235.077 7.55131 235.053C7.55131 234.917 7.53531 234.817 7.50331 234.753C7.47931 234.697 7.43131 234.669 7.35931 234.669C7.24731 234.669 7.01531 234.753 6.66331 234.921L1.22731 237.465L0.567313 237.009L6.45931 239.325C6.65131 239.397 6.81531 239.433 6.95131 239.433C7.14331 239.433 7.29131 239.361 7.39531 239.217C7.49931 239.081 7.55131 238.877 7.55131 238.605C7.55131 238.581 7.57531 238.569 7.62331 238.569C7.67131 238.569 7.69531 238.581 7.69531 238.605L7.68331 239.121C7.66731 239.393 7.65931 239.641 7.65931 239.865C7.65931 240.033 7.66731 240.221 7.68331 240.429L7.69531 240.933ZM6.51931 236.277C6.80731 236.389 7.02731 236.445 7.17931 236.445C7.42731 236.445 7.55131 236.297 7.55131 236.001C7.55131 235.985 7.57531 235.977 7.62331 235.977C7.67131 235.977 7.69531 235.985 7.69531 236.001L7.68331 236.241C7.66731 236.401 7.65931 236.585 7.65931 236.793C7.65931 236.937 7.66731 237.113 7.68331 237.321L7.69531 237.801C7.69531 237.817 7.67131 237.825 7.62331 237.825C7.57531 237.825 7.55131 237.817 7.55131 237.801C7.55131 237.529 7.46731 237.293 7.29931 237.093C7.13131 236.893 6.85131 236.717 6.45931 236.565L4.13131 235.641L4.40731 235.449L6.51931 236.277Z" fill="#421D12"/>
<path d="M0.195312 222.597C0.195312 222.573 0.219313 222.561 0.267313 222.561C0.315313 222.561 0.339313 222.573 0.339313 222.597C0.339313 222.885 0.359312 223.093 0.399312 223.221C0.439313 223.357 0.515313 223.449 0.627313 223.497C0.747313 223.545 0.927313 223.569 1.16731 223.569H6.72331C6.96331 223.569 7.13931 223.545 7.25131 223.497C7.36331 223.449 7.43931 223.357 7.47931 223.221C7.52731 223.093 7.55131 222.885 7.55131 222.597C7.55131 222.573 7.57531 222.561 7.62331 222.561C7.67131 222.561 7.69531 222.573 7.69531 222.597V227.493C7.69531 227.573 7.65931 227.613 7.58731 227.613L6.07531 227.637C6.05131 227.637 6.03531 227.613 6.02731 227.565C6.02731 227.525 6.03931 227.501 6.06331 227.493C6.50331 227.437 6.83931 227.281 7.07131 227.025C7.30331 226.769 7.41931 226.433 7.41931 226.017V225.405C7.41931 225.053 7.36731 224.817 7.26331 224.697C7.15931 224.577 6.96331 224.517 6.67531 224.517H1.21531C0.927312 224.517 0.731313 224.569 0.627313 224.673C0.523313 224.785 0.471313 225.005 0.471313 225.333V226.125C0.471313 226.573 0.603312 226.945 0.867312 227.241C1.13931 227.545 1.52331 227.753 2.01931 227.865C2.03531 227.865 2.04331 227.881 2.04331 227.913C2.04331 227.937 2.03531 227.957 2.01931 227.973C2.01131 227.997 2.00331 228.009 1.99531 228.009C1.41931 227.929 0.879312 227.889 0.375312 227.889C0.311312 227.889 0.263312 227.877 0.231312 227.853C0.207312 227.829 0.195312 227.781 0.195312 227.709V222.597ZM2.95531 227.037C3.29931 227.037 3.55131 226.937 3.71131 226.737C3.87931 226.545 3.96331 226.237 3.96331 225.813V224.061H4.23931V225.837C4.23931 226.245 4.30731 226.545 4.44331 226.737C4.58731 226.929 4.80731 227.025 5.10331 227.025C5.11931 227.025 5.12731 227.045 5.12731 227.085C5.12731 227.133 5.11931 227.157 5.10331 227.157L4.09531 227.145L3.55531 227.157C3.29931 227.173 3.09931 227.181 2.95531 227.181C2.93931 227.181 2.93131 227.157 2.93131 227.109C2.93131 227.061 2.93931 227.037 2.95531 227.037Z" fill="#421D12"/>
<path d="M1.16731 219.357C0.919313 219.357 0.739313 219.377 0.627313 219.417C0.515313 219.465 0.439313 219.553 0.399312 219.681C0.359312 219.817 0.339313 220.033 0.339313 220.329C0.339313 220.345 0.315313 220.353 0.267313 220.353C0.219313 220.353 0.195312 220.345 0.195312 220.329C0.195312 220.073 0.199313 219.873 0.207313 219.729L0.219313 218.865L0.207313 218.025C0.199313 217.873 0.195312 217.665 0.195312 217.401C0.195312 217.385 0.219313 217.377 0.267313 217.377C0.315313 217.377 0.339313 217.385 0.339313 217.401C0.339313 217.689 0.359312 217.901 0.399312 218.037C0.439313 218.173 0.515313 218.265 0.627313 218.313C0.747313 218.369 0.927313 218.397 1.16731 218.397H6.72331C6.96331 218.397 7.13931 218.369 7.25131 218.313C7.36331 218.265 7.43931 218.173 7.47931 218.037C7.52731 217.901 7.55131 217.689 7.55131 217.401C7.55131 217.385 7.57531 217.377 7.62331 217.377C7.67131 217.377 7.69531 217.385 7.69531 217.401L7.68331 218.025C7.66731 218.377 7.65931 218.657 7.65931 218.865C7.65931 219.097 7.66731 219.389 7.68331 219.741L7.69531 220.329C7.69531 220.345 7.67131 220.353 7.62331 220.353C7.57531 220.353 7.55131 220.345 7.55131 220.329C7.55131 220.041 7.52731 219.829 7.47931 219.693C7.43131 219.565 7.34731 219.477 7.22731 219.429C7.11531 219.381 6.93931 219.357 6.69931 219.357H1.16731Z" fill="#421D12"/>
<path d="M7.69531 215.708C7.69531 215.732 7.67131 215.744 7.62331 215.744C7.57531 215.744 7.55131 215.732 7.55131 215.708C7.55131 215.132 7.18731 214.7 6.45931 214.412L0.207313 211.964C0.175313 211.956 0.159312 211.912 0.159312 211.832C0.159312 211.752 0.175313 211.708 0.207313 211.7L6.69931 208.688C7.00331 208.544 7.21931 208.396 7.34731 208.244C7.48331 208.1 7.55131 207.92 7.55131 207.704C7.55131 207.68 7.57531 207.668 7.62331 207.668C7.67131 207.668 7.69531 207.68 7.69531 207.704L7.68331 208.076C7.66731 208.284 7.65931 208.48 7.65931 208.664C7.65931 209.096 7.66731 209.512 7.68331 209.912C7.69131 210.04 7.69531 210.204 7.69531 210.404C7.69531 210.428 7.67131 210.44 7.62331 210.44C7.57531 210.44 7.55131 210.428 7.55131 210.404C7.55131 209.908 7.39931 209.66 7.09531 209.66C6.96731 209.66 6.82331 209.7 6.66331 209.78L1.31131 212.24L0.615313 211.808L6.51931 214.124C6.69531 214.188 6.84331 214.22 6.96331 214.22C7.35531 214.22 7.55131 213.916 7.55131 213.308C7.55131 213.284 7.57531 213.272 7.62331 213.272C7.67131 213.272 7.69531 213.284 7.69531 213.308L7.68331 213.848C7.66731 214.152 7.65931 214.416 7.65931 214.64C7.65931 214.808 7.66731 214.996 7.68331 215.204L7.69531 215.708Z" fill="#421D12"/>
<path d="M0.194468 205.732C0.194468 205.532 0.542469 205.164 1.23847 204.628C1.93447 204.092 2.90647 203.436 4.15447 202.66L4.41847 203.464C3.37847 204.144 2.56647 204.712 1.98247 205.168C1.40647 205.632 0.986468 206.044 0.722468 206.404C0.466468 206.764 0.338469 207.112 0.338469 207.448C0.338469 207.472 0.314469 207.484 0.266469 207.484C0.218469 207.484 0.194468 207.472 0.194468 207.448V205.732ZM7.73047 202.624C7.73047 203.304 7.59447 203.828 7.32247 204.196C7.05847 204.564 6.69047 204.748 6.21847 204.748C5.82647 204.748 5.45847 204.628 5.11447 204.388C4.77047 204.156 4.49447 203.844 4.28647 203.452C4.07847 203.06 3.97447 202.644 3.97447 202.204C3.97447 202.036 3.98247 201.84 3.99847 201.616H1.16647C0.926469 201.616 0.746469 201.64 0.626469 201.688C0.514469 201.736 0.438469 201.824 0.398468 201.952C0.358468 202.088 0.338469 202.3 0.338469 202.588C0.338469 202.612 0.314469 202.624 0.266469 202.624C0.218469 202.624 0.194468 202.612 0.194468 202.588C0.194468 202.34 0.198469 202.144 0.206469 202L0.218469 201.136L0.206469 200.296C0.198469 200.144 0.194468 199.94 0.194468 199.684C0.194468 199.66 0.218469 199.648 0.266469 199.648C0.314469 199.648 0.338469 199.66 0.338469 199.684C0.338469 199.972 0.358468 200.184 0.398468 200.32C0.438469 200.456 0.514469 200.548 0.626469 200.596C0.746469 200.644 0.926469 200.668 1.16647 200.668H6.72247C6.96247 200.668 7.13847 200.644 7.25047 200.596C7.36247 200.548 7.43847 200.456 7.47847 200.32C7.52647 200.192 7.55047 199.984 7.55047 199.696C7.55047 199.68 7.57447 199.672 7.62247 199.672C7.67047 199.672 7.69447 199.68 7.69447 199.696L7.68247 200.296C7.66647 200.648 7.65847 200.928 7.65847 201.136C7.65847 201.28 7.66247 201.416 7.67047 201.544C7.67847 201.672 7.68647 201.784 7.69447 201.88C7.71847 202.144 7.73047 202.392 7.73047 202.624ZM5.78647 203.752C6.41847 203.752 6.86647 203.632 7.13047 203.392C7.39447 203.152 7.52647 202.82 7.52647 202.396C7.52647 202.188 7.50647 202.028 7.46647 201.916C7.42647 201.812 7.34647 201.736 7.22647 201.688C7.11447 201.64 6.93847 201.616 6.69847 201.616H4.31047C4.27847 201.92 4.26247 202.156 4.26247 202.324C4.26247 202.836 4.37447 203.2 4.59847 203.416C4.83047 203.64 5.22647 203.752 5.78647 203.752Z" fill="#421D12"/>
<path d="M0.195312 191.98C0.195312 191.956 0.219313 191.944 0.267313 191.944C0.315313 191.944 0.339313 191.956 0.339313 191.98C0.339313 192.268 0.359312 192.476 0.399312 192.604C0.439313 192.74 0.515313 192.832 0.627313 192.88C0.747313 192.928 0.927313 192.952 1.16731 192.952H6.72331C6.96331 192.952 7.13931 192.928 7.25131 192.88C7.36331 192.832 7.43931 192.74 7.47931 192.604C7.52731 192.476 7.55131 192.268 7.55131 191.98C7.55131 191.956 7.57531 191.944 7.62331 191.944C7.67131 191.944 7.69531 191.956 7.69531 191.98V196.876C7.69531 196.956 7.65931 196.996 7.58731 196.996L6.07531 197.02C6.05131 197.02 6.03531 196.996 6.02731 196.948C6.02731 196.908 6.03931 196.884 6.06331 196.876C6.50331 196.82 6.83931 196.664 7.07131 196.408C7.30331 196.152 7.41931 195.816 7.41931 195.4V194.788C7.41931 194.436 7.36731 194.2 7.26331 194.08C7.15931 193.96 6.96331 193.9 6.67531 193.9H1.21531C0.927312 193.9 0.731313 193.952 0.627313 194.056C0.523313 194.168 0.471313 194.388 0.471313 194.716V195.508C0.471313 195.956 0.603312 196.328 0.867312 196.624C1.13931 196.928 1.52331 197.136 2.01931 197.248C2.03531 197.248 2.04331 197.264 2.04331 197.296C2.04331 197.32 2.03531 197.34 2.01931 197.356C2.01131 197.38 2.00331 197.392 1.99531 197.392C1.41931 197.312 0.879312 197.272 0.375312 197.272C0.311312 197.272 0.263312 197.26 0.231312 197.236C0.207312 197.212 0.195312 197.164 0.195312 197.092V191.98ZM2.95531 196.42C3.29931 196.42 3.55131 196.32 3.71131 196.12C3.87931 195.928 3.96331 195.62 3.96331 195.196V193.444H4.23931V195.22C4.23931 195.628 4.30731 195.928 4.44331 196.12C4.58731 196.312 4.80731 196.408 5.10331 196.408C5.11931 196.408 5.12731 196.428 5.12731 196.468C5.12731 196.516 5.11931 196.54 5.10331 196.54L4.09531 196.528L3.55531 196.54C3.29931 196.556 3.09931 196.564 2.95531 196.564C2.93931 196.564 2.93131 196.54 2.93131 196.492C2.93131 196.444 2.93931 196.42 2.95531 196.42Z" fill="#421D12"/>
<path d="M7.45497 185.012C7.45497 184.516 7.31497 184.128 7.03497 183.848C6.76297 183.568 6.32297 183.36 5.71497 183.224C5.69897 183.216 5.69097 183.188 5.69097 183.14C5.69097 183.1 5.70297 183.08 5.72697 183.08C5.95097 183.112 6.31497 183.148 6.81897 183.188C7.32297 183.228 7.70297 183.248 7.95897 183.248C7.99897 183.248 8.01897 183.272 8.01897 183.32C8.01897 183.368 7.99897 183.392 7.95897 183.392C7.78297 183.392 7.69497 183.612 7.69497 184.052C7.67097 184.74 7.65897 185.544 7.65897 186.464C7.65897 186.936 7.66697 187.436 7.68297 187.964L7.69497 188.78C7.69497 189.076 7.71497 189.292 7.75497 189.428C7.79497 189.564 7.87497 189.652 7.99497 189.692C8.02697 189.7 8.04297 189.724 8.04297 189.764C8.04297 189.812 8.02697 189.836 7.99497 189.836C7.77097 189.812 7.41097 189.784 6.91497 189.752C6.41897 189.728 6.02297 189.716 5.72697 189.716C5.70297 189.716 5.69097 189.692 5.69097 189.644C5.69097 189.604 5.70297 189.584 5.72697 189.584C6.34297 189.528 6.78297 189.368 7.04697 189.104C7.31897 188.84 7.45497 188.448 7.45497 187.928C7.45497 187.632 7.43497 187.42 7.39497 187.292C7.36297 187.164 7.29497 187.076 7.19097 187.028C7.09497 186.98 6.93097 186.956 6.69897 186.956H1.16697C0.918968 186.956 0.738968 186.98 0.626968 187.028C0.514968 187.084 0.438968 187.188 0.398968 187.34C0.358968 187.492 0.338968 187.736 0.338968 188.072C0.338968 188.088 0.314968 188.096 0.266968 188.096C0.218968 188.096 0.194968 188.088 0.194968 188.072C0.194968 187.792 0.198968 187.572 0.206968 187.412L0.218968 186.464L0.206968 185.54C0.198968 185.38 0.194968 185.156 0.194968 184.868C0.194968 184.844 0.218968 184.832 0.266968 184.832C0.314968 184.832 0.338968 184.844 0.338968 184.868C0.338968 185.196 0.358968 185.436 0.398968 185.588C0.438968 185.748 0.514968 185.856 0.626968 185.912C0.746968 185.968 0.926968 185.996 1.16697 185.996H6.72297C6.94697 185.996 7.10697 185.972 7.20297 185.924C7.30697 185.876 7.37497 185.784 7.40697 185.648C7.43897 185.52 7.45497 185.308 7.45497 185.012Z" fill="#421D12"/>
<path d="M7.41931 174.122L7.39531 174.434H1.56331C1.14731 174.434 0.839313 174.51 0.639313 174.662C0.439313 174.822 0.339313 175.062 0.339313 175.382C0.339313 175.398 0.315313 175.406 0.267313 175.406C0.219313 175.406 0.195312 175.398 0.195312 175.382C0.195312 175.174 0.199313 175.014 0.207313 174.902L0.219313 174.29L0.207313 173.642C0.199313 173.522 0.195312 173.346 0.195312 173.114C0.195312 173.098 0.219313 173.09 0.267313 173.09C0.315313 173.09 0.339313 173.098 0.339313 173.114C0.339313 173.458 0.439313 173.71 0.639313 173.87C0.839313 174.038 1.14731 174.122 1.56331 174.122H7.41931ZM0.0393124 180.194C0.0233124 180.194 0.0113121 180.174 0.00331211 180.134C-0.00468789 180.102 -0.000687808 180.078 0.0153122 180.062L6.71131 174.41C7.02331 174.146 7.23931 173.91 7.35931 173.702C7.48731 173.494 7.55131 173.286 7.55131 173.078C7.55131 173.062 7.57531 173.054 7.62331 173.054C7.67131 173.054 7.69531 173.062 7.69531 173.078L7.68331 173.546C7.67531 173.642 7.67131 173.778 7.67131 173.954L7.68331 174.566C7.69131 174.646 7.69531 174.738 7.69531 174.842C7.69531 174.906 7.67931 174.954 7.64731 174.986C7.61531 175.018 7.55131 175.066 7.45531 175.13L7.07131 175.418L1.43131 180.098L0.0393124 180.194ZM0.0393124 180.194L0.411313 179.894H6.31531C6.73131 179.894 7.03931 179.818 7.23931 179.666C7.44731 179.514 7.55131 179.278 7.55131 178.958C7.55131 178.942 7.57531 178.934 7.62331 178.934C7.67131 178.934 7.69531 178.942 7.69531 178.958L7.68331 179.438C7.66731 179.678 7.65931 179.882 7.65931 180.05C7.65931 180.194 7.66731 180.402 7.68331 180.674L7.69531 181.178C7.69531 181.194 7.67131 181.202 7.62331 181.202C7.57531 181.202 7.55131 181.194 7.55131 181.178C7.55131 180.522 7.13931 180.194 6.31531 180.194H0.0393124Z" fill="#421D12"/>
<path d="M1.16731 169.934C0.919313 169.934 0.739313 169.954 0.627313 169.994C0.515313 170.042 0.439313 170.13 0.399312 170.258C0.359312 170.394 0.339313 170.61 0.339313 170.906C0.339313 170.922 0.315313 170.93 0.267313 170.93C0.219313 170.93 0.195312 170.922 0.195312 170.906C0.195312 170.65 0.199313 170.45 0.207313 170.306L0.219313 169.442L0.207313 168.602C0.199313 168.45 0.195312 168.242 0.195312 167.978C0.195312 167.962 0.219313 167.954 0.267313 167.954C0.315313 167.954 0.339313 167.962 0.339313 167.978C0.339313 168.266 0.359312 168.478 0.399312 168.614C0.439313 168.75 0.515313 168.842 0.627313 168.89C0.747313 168.946 0.927313 168.974 1.16731 168.974H6.72331C6.96331 168.974 7.13931 168.946 7.25131 168.89C7.36331 168.842 7.43931 168.75 7.47931 168.614C7.52731 168.478 7.55131 168.266 7.55131 167.978C7.55131 167.962 7.57531 167.954 7.62331 167.954C7.67131 167.954 7.69531 167.962 7.69531 167.978L7.68331 168.602C7.66731 168.954 7.65931 169.234 7.65931 169.442C7.65931 169.674 7.66731 169.966 7.68331 170.318L7.69531 170.906C7.69531 170.922 7.67131 170.93 7.62331 170.93C7.57531 170.93 7.55131 170.922 7.55131 170.906C7.55131 170.618 7.52731 170.406 7.47931 170.27C7.43131 170.142 7.34731 170.054 7.22731 170.006C7.11531 169.958 6.93931 169.934 6.69931 169.934H1.16731Z" fill="#421D12"/>
<path d="M0.194468 156.609C0.194468 156.409 0.542469 156.041 1.23847 155.505C1.93447 154.969 2.90647 154.313 4.15447 153.537L4.41847 154.341C3.37847 155.021 2.56647 155.589 1.98247 156.045C1.40647 156.509 0.986468 156.921 0.722468 157.281C0.466468 157.641 0.338469 157.989 0.338469 158.325C0.338469 158.349 0.314469 158.361 0.266469 158.361C0.218469 158.361 0.194468 158.349 0.194468 158.325V156.609ZM7.73047 153.501C7.73047 154.181 7.59447 154.705 7.32247 155.073C7.05847 155.441 6.69047 155.625 6.21847 155.625C5.82647 155.625 5.45847 155.505 5.11447 155.265C4.77047 155.033 4.49447 154.721 4.28647 154.329C4.07847 153.937 3.97447 153.521 3.97447 153.081C3.97447 152.913 3.98247 152.717 3.99847 152.493H1.16647C0.926469 152.493 0.746469 152.517 0.626469 152.565C0.514469 152.613 0.438469 152.701 0.398468 152.829C0.358468 152.965 0.338469 153.177 0.338469 153.465C0.338469 153.489 0.314469 153.501 0.266469 153.501C0.218469 153.501 0.194468 153.489 0.194468 153.465C0.194468 153.217 0.198469 153.021 0.206469 152.877L0.218469 152.013L0.206469 151.173C0.198469 151.021 0.194468 150.817 0.194468 150.561C0.194468 150.537 0.218469 150.525 0.266469 150.525C0.314469 150.525 0.338469 150.537 0.338469 150.561C0.338469 150.849 0.358468 151.061 0.398468 151.197C0.438469 151.333 0.514469 151.425 0.626469 151.473C0.746469 151.521 0.926469 151.545 1.16647 151.545H6.72247C6.96247 151.545 7.13847 151.521 7.25047 151.473C7.36247 151.425 7.43847 151.333 7.47847 151.197C7.52647 151.069 7.55047 150.861 7.55047 150.573C7.55047 150.557 7.57447 150.549 7.62247 150.549C7.67047 150.549 7.69447 150.557 7.69447 150.573L7.68247 151.173C7.66647 151.525 7.65847 151.805 7.65847 152.013C7.65847 152.157 7.66247 152.293 7.67047 152.421C7.67847 152.549 7.68647 152.661 7.69447 152.757C7.71847 153.021 7.73047 153.269 7.73047 153.501ZM5.78647 154.629C6.41847 154.629 6.86647 154.509 7.13047 154.269C7.39447 154.029 7.52647 153.697 7.52647 153.273C7.52647 153.065 7.50647 152.905 7.46647 152.793C7.42647 152.689 7.34647 152.613 7.22647 152.565C7.11447 152.517 6.93847 152.493 6.69847 152.493H4.31047C4.27847 152.797 4.26247 153.033 4.26247 153.201C4.26247 153.713 4.37447 154.077 4.59847 154.293C4.83047 154.517 5.22647 154.629 5.78647 154.629Z" fill="#421D12"/>
<path d="M0.0521245 144.05C0.0521245 143.306 0.224125 142.642 0.568125 142.058C0.920125 141.482 1.39212 141.034 1.98412 140.714C2.58412 140.402 3.23612 140.246 3.94012 140.246C4.76412 140.246 5.46812 140.454 6.05212 140.87C6.64412 141.286 7.08812 141.818 7.38412 142.466C7.68012 143.122 7.82812 143.79 7.82812 144.47C7.82812 145.23 7.64812 145.898 7.28812 146.474C6.93613 147.05 6.46813 147.49 5.88412 147.794C5.30012 148.106 4.68012 148.262 4.02412 148.262C3.29612 148.262 2.62812 148.07 2.02012 147.686C1.41212 147.302 0.932124 146.786 0.580124 146.138C0.228124 145.498 0.0521245 144.802 0.0521245 144.05ZM0.316124 144.47C0.316124 144.982 0.448124 145.442 0.712124 145.85C0.976124 146.258 1.36012 146.578 1.86412 146.81C2.37612 147.05 2.98412 147.17 3.68812 147.17C4.43212 147.17 5.09612 147.038 5.68012 146.774C6.26412 146.518 6.72012 146.146 7.04813 145.658C7.37613 145.178 7.54013 144.618 7.54013 143.978C7.54013 143.146 7.25612 142.498 6.68812 142.034C6.12812 141.57 5.35212 141.338 4.36012 141.338C3.60012 141.338 2.91212 141.47 2.29612 141.734C1.68012 141.998 1.19612 142.366 0.844125 142.838C0.492125 143.318 0.316124 143.862 0.316124 144.47Z" fill="#421D12"/>
<path d="M7.45497 133.37C7.45497 132.874 7.31497 132.486 7.03497 132.206C6.76297 131.926 6.32297 131.718 5.71497 131.582C5.69897 131.574 5.69097 131.546 5.69097 131.498C5.69097 131.458 5.70297 131.438 5.72697 131.438C5.95097 131.47 6.31497 131.506 6.81897 131.546C7.32297 131.586 7.70297 131.605 7.95897 131.605C7.99897 131.605 8.01897 131.63 8.01897 131.678C8.01897 131.726 7.99897 131.75 7.95897 131.75C7.78297 131.75 7.69497 131.97 7.69497 132.41C7.67097 133.098 7.65897 133.902 7.65897 134.822C7.65897 135.294 7.66697 135.794 7.68297 136.322L7.69497 137.138C7.69497 137.434 7.71497 137.65 7.75497 137.786C7.79497 137.922 7.87497 138.009 7.99497 138.049C8.02697 138.057 8.04297 138.082 8.04297 138.122C8.04297 138.17 8.02697 138.194 7.99497 138.194C7.77097 138.17 7.41097 138.142 6.91497 138.11C6.41897 138.086 6.02297 138.074 5.72697 138.074C5.70297 138.074 5.69097 138.05 5.69097 138.002C5.69097 137.962 5.70297 137.942 5.72697 137.942C6.34297 137.886 6.78297 137.726 7.04697 137.462C7.31897 137.198 7.45497 136.806 7.45497 136.286C7.45497 135.99 7.43497 135.778 7.39497 135.65C7.36297 135.522 7.29497 135.434 7.19097 135.386C7.09497 135.338 6.93097 135.314 6.69897 135.314H1.16697C0.918968 135.314 0.738968 135.338 0.626968 135.386C0.514968 135.442 0.438968 135.546 0.398968 135.698C0.358968 135.85 0.338968 136.094 0.338968 136.43C0.338968 136.446 0.314968 136.454 0.266968 136.454C0.218968 136.454 0.194968 136.446 0.194968 136.43C0.194968 136.15 0.198968 135.93 0.206968 135.77L0.218968 134.822L0.206968 133.898C0.198968 133.738 0.194968 133.514 0.194968 133.226C0.194968 133.202 0.218968 133.19 0.266968 133.19C0.314968 133.19 0.338968 133.202 0.338968 133.226C0.338968 133.554 0.358968 133.794 0.398968 133.946C0.438968 134.106 0.514968 134.214 0.626968 134.27C0.746968 134.326 0.926968 134.354 1.16697 134.354H6.72297C6.94697 134.354 7.10697 134.33 7.20297 134.282C7.30697 134.234 7.37497 134.142 7.40697 134.006C7.43897 133.878 7.45497 133.666 7.45497 133.37Z" fill="#421D12"/>
<path d="M4.32591 124.913V127.385L4.04991 127.469V124.733L4.32591 124.913ZM0.341912 130.601C0.341912 130.641 0.317912 130.661 0.269912 130.661C0.221912 130.661 0.197912 130.641 0.197912 130.601C0.197912 130.449 0.205912 130.213 0.221912 129.893C0.237912 129.557 0.245912 129.317 0.245912 129.173C0.245912 128.989 0.237912 128.761 0.221912 128.489C0.205912 128.217 0.197912 128.013 0.197912 127.877C0.197912 127.845 0.221912 127.829 0.269912 127.829C0.317912 127.829 0.341912 127.845 0.341912 127.877C0.341912 128.149 0.365912 128.345 0.413912 128.465C0.469912 128.585 0.565912 128.645 0.701912 128.645C0.837912 128.645 1.02591 128.585 1.26591 128.465L6.62991 125.885L7.20591 126.269L1.78191 123.929C1.50991 123.817 1.28591 123.761 1.10991 123.761C0.853912 123.761 0.661912 123.861 0.533912 124.061C0.405912 124.261 0.341912 124.549 0.341912 124.925C0.341912 124.965 0.317912 124.985 0.269912 124.985C0.221912 124.985 0.197912 124.965 0.197912 124.925C0.197912 124.781 0.205912 124.573 0.221912 124.301C0.237912 123.997 0.245912 123.733 0.245912 123.509C0.245912 123.301 0.237912 123.053 0.221912 122.765C0.205912 122.509 0.197912 122.301 0.197912 122.141C0.197912 122.109 0.221912 122.093 0.269912 122.093C0.317912 122.093 0.341912 122.109 0.341912 122.141C0.341912 122.365 0.385912 122.553 0.473912 122.705C0.561912 122.865 0.713912 123.017 0.929912 123.161C1.14591 123.305 1.46591 123.469 1.88991 123.653L7.78191 126.209C7.80591 126.217 7.81791 126.245 7.81791 126.293C7.82591 126.341 7.81391 126.369 7.78191 126.377L1.84191 129.257C1.25791 129.537 0.861912 129.769 0.653912 129.953C0.445912 130.145 0.341912 130.361 0.341912 130.601Z" fill="#421D12"/>
<path d="M7.41931 113.651L7.39531 113.963H1.56331C1.14731 113.963 0.839313 114.039 0.639313 114.191C0.439313 114.351 0.339313 114.591 0.339313 114.911C0.339313 114.927 0.315313 114.935 0.267313 114.935C0.219313 114.935 0.195312 114.927 0.195312 114.911C0.195312 114.703 0.199313 114.543 0.207313 114.431L0.219313 113.819L0.207313 113.171C0.199313 113.051 0.195312 112.875 0.195312 112.643C0.195312 112.627 0.219313 112.619 0.267313 112.619C0.315313 112.619 0.339313 112.627 0.339313 112.643C0.339313 112.987 0.439313 113.239 0.639313 113.399C0.839313 113.567 1.14731 113.651 1.56331 113.651H7.41931ZM0.0393124 119.723C0.0233124 119.723 0.0113121 119.703 0.00331211 119.663C-0.00468789 119.631 -0.000687808 119.607 0.0153122 119.591L6.71131 113.939C7.02331 113.675 7.23931 113.439 7.35931 113.231C7.48731 113.023 7.55131 112.815 7.55131 112.607C7.55131 112.591 7.57531 112.583 7.62331 112.583C7.67131 112.583 7.69531 112.591 7.69531 112.607L7.68331 113.075C7.67531 113.171 7.67131 113.307 7.67131 113.483L7.68331 114.095C7.69131 114.175 7.69531 114.267 7.69531 114.371C7.69531 114.435 7.67931 114.483 7.64731 114.515C7.61531 114.547 7.55131 114.595 7.45531 114.659L7.07131 114.947L1.43131 119.627L0.0393124 119.723ZM0.0393124 119.723L0.411313 119.423H6.31531C6.73131 119.423 7.03931 119.347 7.23931 119.195C7.44731 119.043 7.55131 118.807 7.55131 118.487C7.55131 118.471 7.57531 118.463 7.62331 118.463C7.67131 118.463 7.69531 118.471 7.69531 118.487L7.68331 118.967C7.66731 119.207 7.65931 119.411 7.65931 119.579C7.65931 119.723 7.66731 119.931 7.68331 120.203L7.69531 120.707C7.69531 120.723 7.67131 120.731 7.62331 120.731C7.57531 120.731 7.55131 120.723 7.55131 120.707C7.55131 120.051 7.13931 119.723 6.31531 119.723H0.0393124Z" fill="#421D12"/>
<path d="M1.16731 109.463C0.919313 109.463 0.739313 109.483 0.627313 109.523C0.515313 109.571 0.439313 109.659 0.399312 109.787C0.359312 109.923 0.339313 110.139 0.339313 110.435C0.339313 110.451 0.315313 110.459 0.267313 110.459C0.219313 110.459 0.195312 110.451 0.195312 110.435C0.195312 110.179 0.199313 109.979 0.207313 109.835L0.219313 108.971L0.207313 108.131C0.199313 107.979 0.195312 107.771 0.195312 107.507C0.195312 107.491 0.219313 107.483 0.267313 107.483C0.315313 107.483 0.339313 107.491 0.339313 107.507C0.339313 107.795 0.359312 108.007 0.399312 108.143C0.439313 108.279 0.515313 108.371 0.627313 108.419C0.747313 108.475 0.927313 108.503 1.16731 108.503H6.72331C6.96331 108.503 7.13931 108.475 7.25131 108.419C7.36331 108.371 7.43931 108.279 7.47931 108.143C7.52731 108.007 7.55131 107.795 7.55131 107.507C7.55131 107.491 7.57531 107.483 7.62331 107.483C7.67131 107.483 7.69531 107.491 7.69531 107.507L7.68331 108.131C7.66731 108.483 7.65931 108.763 7.65931 108.971C7.65931 109.203 7.66731 109.495 7.68331 109.847L7.69531 110.435C7.69531 110.451 7.67131 110.459 7.62331 110.459C7.57531 110.459 7.55131 110.451 7.55131 110.435C7.55131 110.147 7.52731 109.935 7.47931 109.799C7.43131 109.671 7.34731 109.583 7.22731 109.535C7.11531 109.487 6.93931 109.463 6.69931 109.463H1.16731Z" fill="#421D12"/>
<path d="M0.146749 101.132C0.146749 100.884 0.15875 100.604 0.18275 100.292C0.19075 100.172 0.19875 100.024 0.20675 99.8482C0.21475 99.6802 0.21875 99.4882 0.21875 99.2722L0.20675 98.4322C0.19875 98.2802 0.19475 98.0722 0.19475 97.8082C0.19475 97.7922 0.218749 97.7842 0.266749 97.7842C0.314749 97.7842 0.33875 97.7922 0.33875 97.8082C0.33875 98.0962 0.358749 98.3082 0.398749 98.4442C0.438749 98.5802 0.51475 98.6722 0.62675 98.7202C0.74675 98.7762 0.92675 98.8042 1.16675 98.8042H6.72275C6.96275 98.8042 7.13875 98.7802 7.25075 98.7322C7.36275 98.6842 7.43875 98.5922 7.47875 98.4562C7.52675 98.3282 7.55075 98.1202 7.55075 97.8322C7.55075 97.8082 7.57475 97.7962 7.62275 97.7962C7.67075 97.7962 7.69475 97.8082 7.69475 97.8322L7.68275 98.4322C7.66675 98.7842 7.65875 99.0642 7.65875 99.2722C7.65875 99.5682 7.67075 99.8722 7.69475 100.184C7.71075 100.568 7.71875 100.828 7.71875 100.964C7.71875 101.788 7.55875 102.52 7.23875 103.16C6.91875 103.8 6.48275 104.296 5.93075 104.648C5.37875 105 4.75875 105.176 4.07075 105.176C3.29475 105.176 2.60675 104.992 2.00675 104.624C1.41475 104.264 0.95475 103.772 0.62675 103.148C0.30675 102.532 0.146749 101.86 0.146749 101.132ZM0.36275 101.012C0.36275 101.612 0.49475 102.144 0.75875 102.608C1.03075 103.072 1.42275 103.432 1.93475 103.688C2.45475 103.952 3.07875 104.084 3.80675 104.084C4.50275 104.084 5.13075 103.96 5.69075 103.712C6.25875 103.464 6.70275 103.112 7.02275 102.656C7.35075 102.208 7.51475 101.684 7.51475 101.084C7.51475 100.74 7.49475 100.476 7.45475 100.292C7.41475 100.108 7.33475 99.9722 7.21475 99.8842C7.10275 99.7962 6.93075 99.7522 6.69875 99.7522H1.29875C1.06675 99.7522 0.88275 99.7842 0.74675 99.8482C0.61875 99.9202 0.52275 100.044 0.45875 100.22C0.39475 100.404 0.36275 100.668 0.36275 101.012Z" fill="#421D12"/>
<path d="M0.194468 94.6084C0.194468 94.4084 0.542469 94.0404 1.23847 93.5044C1.93447 92.9684 2.90647 92.3124 4.15447 91.5364L4.41847 92.3404C3.37847 93.0204 2.56647 93.5884 1.98247 94.0444C1.40647 94.5084 0.986468 94.9204 0.722468 95.2804C0.466468 95.6404 0.338469 95.9884 0.338469 96.3244C0.338469 96.3484 0.314469 96.3604 0.266469 96.3604C0.218469 96.3604 0.194468 96.3484 0.194468 96.3244V94.6084ZM7.73047 91.5004C7.73047 92.1804 7.59447 92.7044 7.32247 93.0724C7.05847 93.4404 6.69047 93.6244 6.21847 93.6244C5.82647 93.6244 5.45847 93.5044 5.11447 93.2644C4.77047 93.0324 4.49447 92.7204 4.28647 92.3284C4.07847 91.9364 3.97447 91.5204 3.97447 91.0804C3.97447 90.9124 3.98247 90.7164 3.99847 90.4924H1.16647C0.926469 90.4924 0.746469 90.5164 0.626469 90.5644C0.514469 90.6124 0.438469 90.7004 0.398468 90.8284C0.358468 90.9644 0.338469 91.1764 0.338469 91.4644C0.338469 91.4884 0.314469 91.5004 0.266469 91.5004C0.218469 91.5004 0.194468 91.4884 0.194468 91.4644C0.194468 91.2164 0.198469 91.0204 0.206469 90.8764L0.218469 90.0124L0.206469 89.1724C0.198469 89.0204 0.194468 88.8164 0.194468 88.5604C0.194468 88.5364 0.218469 88.5244 0.266469 88.5244C0.314469 88.5244 0.338469 88.5364 0.338469 88.5604C0.338469 88.8484 0.358468 89.0604 0.398468 89.1964C0.438469 89.3324 0.514469 89.4244 0.626469 89.4724C0.746469 89.5204 0.926469 89.5444 1.16647 89.5444H6.72247C6.96247 89.5444 7.13847 89.5204 7.25047 89.4724C7.36247 89.4244 7.43847 89.3324 7.47847 89.1964C7.52647 89.0684 7.55047 88.8604 7.55047 88.5724C7.55047 88.5564 7.57447 88.5484 7.62247 88.5484C7.67047 88.5484 7.69447 88.5564 7.69447 88.5724L7.68247 89.1724C7.66647 89.5244 7.65847 89.8044 7.65847 90.0124C7.65847 90.1564 7.66247 90.2924 7.67047 90.4204C7.67847 90.5484 7.68647 90.6604 7.69447 90.7564C7.71847 91.0204 7.73047 91.2684 7.73047 91.5004ZM5.78647 92.6284C6.41847 92.6284 6.86647 92.5084 7.13047 92.2684C7.39447 92.0284 7.52647 91.6964 7.52647 91.2724C7.52647 91.0644 7.50647 90.9044 7.46647 90.7924C7.42647 90.6884 7.34647 90.6124 7.22647 90.5644C7.11447 90.5164 6.93847 90.4924 6.69847 90.4924H4.31047C4.27847 90.7964 4.26247 91.0324 4.26247 91.2004C4.26247 91.7124 4.37447 92.0764 4.59847 92.2924C4.83047 92.5164 5.22647 92.6284 5.78647 92.6284Z" fill="#421D12"/>
<path d="M0.0521245 82.0481C0.0521245 81.3041 0.224125 80.6401 0.568125 80.0561C0.920125 79.4801 1.39212 79.0321 1.98412 78.7121C2.58412 78.4001 3.23612 78.2441 3.94012 78.2441C4.76412 78.2441 5.46812 78.4521 6.05212 78.8681C6.64412 79.2841 7.08812 79.8161 7.38412 80.4641C7.68012 81.1201 7.82812 81.7881 7.82812 82.4681C7.82812 83.2281 7.64812 83.8961 7.28812 84.4721C6.93613 85.0481 6.46813 85.4881 5.88412 85.7921C5.30012 86.1041 4.68012 86.2601 4.02412 86.2601C3.29612 86.2601 2.62812 86.0681 2.02012 85.6841C1.41212 85.3001 0.932124 84.7841 0.580124 84.1361C0.228124 83.4961 0.0521245 82.8001 0.0521245 82.0481ZM0.316124 82.4681C0.316124 82.9801 0.448124 83.4401 0.712124 83.8481C0.976124 84.2561 1.36012 84.5761 1.86412 84.8081C2.37612 85.0481 2.98412 85.1681 3.68812 85.1681C4.43212 85.1681 5.09612 85.0361 5.68012 84.7721C6.26412 84.5161 6.72012 84.1441 7.04813 83.6561C7.37613 83.1761 7.54013 82.6161 7.54013 81.9761C7.54013 81.1441 7.25612 80.4961 6.68812 80.0321C6.12812 79.5681 5.35212 79.3361 4.36012 79.3361C3.60012 79.3361 2.91212 79.4681 2.29612 79.7321C1.68012 79.9961 1.19612 80.3641 0.844125 80.8361C0.492125 81.3161 0.316124 81.8601 0.316124 82.4681Z" fill="#421D12"/>
<path d="M0.0521245 71.6614C0.0521245 70.9174 0.224125 70.2534 0.568125 69.6694C0.920125 69.0934 1.39212 68.6454 1.98412 68.3254C2.58412 68.0134 3.23612 67.8574 3.94012 67.8574C4.76412 67.8574 5.46812 68.0654 6.05212 68.4814C6.64412 68.8974 7.08812 69.4294 7.38412 70.0774C7.68012 70.7334 7.82812 71.4014 7.82812 72.0814C7.82812 72.8414 7.64812 73.5094 7.28812 74.0854C6.93613 74.6614 6.46813 75.1014 5.88412 75.4054C5.30012 75.7174 4.68012 75.8734 4.02412 75.8734C3.29612 75.8734 2.62812 75.6814 2.02012 75.2974C1.41212 74.9134 0.932124 74.3974 0.580124 73.7494C0.228124 73.1094 0.0521245 72.4134 0.0521245 71.6614ZM0.316124 72.0814C0.316124 72.5934 0.448124 73.0534 0.712124 73.4614C0.976124 73.8694 1.36012 74.1894 1.86412 74.4214C2.37612 74.6614 2.98412 74.7814 3.68812 74.7814C4.43212 74.7814 5.09612 74.6494 5.68012 74.3854C6.26412 74.1294 6.72012 73.7574 7.04813 73.2694C7.37613 72.7894 7.54013 72.2294 7.54013 71.5894C7.54013 70.7574 7.25612 70.1094 6.68812 69.6454C6.12812 69.1814 5.35212 68.9494 4.36012 68.9494C3.60012 68.9494 2.91212 69.0814 2.29612 69.3454C1.68012 69.6094 1.19612 69.9774 0.844125 70.4494C0.492125 70.9294 0.316124 71.4734 0.316124 72.0814Z" fill="#421D12"/>
<path d="M7.82812 63.0459C7.82812 63.4139 7.79212 63.7939 7.72012 64.1859C7.65612 64.5779 7.56412 64.8899 7.44412 65.1219C7.41212 65.1859 7.37612 65.2259 7.33612 65.2419C7.30412 65.2659 7.24412 65.2859 7.15613 65.3019L5.71612 65.4339C5.69212 65.4339 5.67612 65.4139 5.66812 65.3739C5.66012 65.3339 5.67212 65.3099 5.70412 65.3019C6.32012 65.0939 6.78012 64.7539 7.08412 64.2819C7.39612 63.8099 7.55212 63.2419 7.55212 62.5779C7.55212 61.9939 7.41613 61.4859 7.14413 61.0539C6.88012 60.6219 6.50412 60.2899 6.01612 60.0579C5.52812 59.8339 4.96412 59.7219 4.32412 59.7219C3.58012 59.7219 2.89612 59.8619 2.27212 60.1419C1.64812 60.4299 1.15212 60.8179 0.784124 61.3059C0.424124 61.8019 0.244124 62.3459 0.244124 62.9379C0.244124 64.0899 0.900125 64.9139 2.21212 65.4099C2.23612 65.4099 2.24812 65.4299 2.24812 65.4699C2.24812 65.4859 2.24012 65.5019 2.22412 65.5179C2.21612 65.5419 2.20812 65.5539 2.20012 65.5539L0.760125 65.3859C0.664125 65.3699 0.600125 65.3499 0.568125 65.3259C0.544125 65.3099 0.516125 65.2659 0.484125 65.1939C0.196125 64.4579 0.0521245 63.7059 0.0521245 62.9379C0.0521245 61.9699 0.244125 61.1619 0.628125 60.5139C1.02012 59.8659 1.51612 59.3899 2.11612 59.0859C2.71612 58.7819 3.34412 58.6299 4.00012 58.6299C4.74412 58.6299 5.40412 58.8339 5.98012 59.2419C6.56412 59.6579 7.01612 60.2019 7.33612 60.8739C7.66412 61.5539 7.82812 62.2779 7.82812 63.0459Z" fill="#421D12"/>
<path d="M0.194468 51.2256C0.194468 51.0256 0.542469 50.6576 1.23847 50.1216C1.93447 49.5856 2.90647 48.9296 4.15447 48.1536L4.41847 48.9576C3.37847 49.6376 2.56647 50.2056 1.98247 50.6616C1.40647 51.1256 0.986468 51.5376 0.722468 51.8976C0.466468 52.2576 0.338469 52.6056 0.338469 52.9416C0.338469 52.9656 0.314469 52.9776 0.266469 52.9776C0.218469 52.9776 0.194468 52.9656 0.194468 52.9416V51.2256ZM7.73047 48.1176C7.73047 48.7976 7.59447 49.3216 7.32247 49.6896C7.05847 50.0576 6.69047 50.2416 6.21847 50.2416C5.82647 50.2416 5.45847 50.1216 5.11447 49.8816C4.77047 49.6496 4.49447 49.3376 4.28647 48.9456C4.07847 48.5536 3.97447 48.1376 3.97447 47.6976C3.97447 47.5296 3.98247 47.3336 3.99847 47.1096H1.16647C0.926469 47.1096 0.746469 47.1336 0.626469 47.1816C0.514469 47.2296 0.438469 47.3176 0.398468 47.4456C0.358468 47.5816 0.338469 47.7936 0.338469 48.0816C0.338469 48.1056 0.314469 48.1176 0.266469 48.1176C0.218469 48.1176 0.194468 48.1056 0.194468 48.0816C0.194468 47.8336 0.198469 47.6376 0.206469 47.4936L0.218469 46.6296L0.206469 45.7896C0.198469 45.6376 0.194468 45.4336 0.194468 45.1776C0.194468 45.1536 0.218469 45.1416 0.266469 45.1416C0.314469 45.1416 0.338469 45.1536 0.338469 45.1776C0.338469 45.4656 0.358468 45.6776 0.398468 45.8136C0.438469 45.9496 0.514469 46.0416 0.626469 46.0896C0.746469 46.1376 0.926469 46.1616 1.16647 46.1616H6.72247C6.96247 46.1616 7.13847 46.1376 7.25047 46.0896C7.36247 46.0416 7.43847 45.9496 7.47847 45.8136C7.52647 45.6856 7.55047 45.4776 7.55047 45.1896C7.55047 45.1736 7.57447 45.1656 7.62247 45.1656C7.67047 45.1656 7.69447 45.1736 7.69447 45.1896L7.68247 45.7896C7.66647 46.1416 7.65847 46.4216 7.65847 46.6296C7.65847 46.7736 7.66247 46.9096 7.67047 47.0376C7.67847 47.1656 7.68647 47.2776 7.69447 47.3736C7.71847 47.6376 7.73047 47.8856 7.73047 48.1176ZM5.78647 49.2456C6.41847 49.2456 6.86647 49.1256 7.13047 48.8856C7.39447 48.6456 7.52647 48.3136 7.52647 47.8896C7.52647 47.6816 7.50647 47.5216 7.46647 47.4096C7.42647 47.3056 7.34647 47.2296 7.22647 47.1816C7.11447 47.1336 6.93847 47.1096 6.69847 47.1096H4.31047C4.27847 47.4136 4.26247 47.6496 4.26247 47.8176C4.26247 48.3296 4.37447 48.6936 4.59847 48.9096C4.83047 49.1336 5.22647 49.2456 5.78647 49.2456Z" fill="#421D12"/>
<path d="M0.195312 37.4735C0.195312 37.4495 0.219313 37.4375 0.267313 37.4375C0.315313 37.4375 0.339313 37.4495 0.339313 37.4735C0.339313 37.7615 0.359312 37.9695 0.399312 38.0975C0.439313 38.2335 0.515313 38.3255 0.627313 38.3735C0.747313 38.4215 0.927313 38.4455 1.16731 38.4455H6.72331C6.96331 38.4455 7.13931 38.4215 7.25131 38.3735C7.36331 38.3255 7.43931 38.2335 7.47931 38.0975C7.52731 37.9695 7.55131 37.7615 7.55131 37.4735C7.55131 37.4495 7.57531 37.4375 7.62331 37.4375C7.67131 37.4375 7.69531 37.4495 7.69531 37.4735V42.3695C7.69531 42.4495 7.65931 42.4895 7.58731 42.4895L6.07531 42.5135C6.05131 42.5135 6.03531 42.4895 6.02731 42.4415C6.02731 42.4015 6.03931 42.3775 6.06331 42.3695C6.50331 42.3135 6.83931 42.1575 7.07131 41.9015C7.30331 41.6455 7.41931 41.3095 7.41931 40.8935V40.2815C7.41931 39.9295 7.36731 39.6935 7.26331 39.5735C7.15931 39.4535 6.96331 39.3935 6.67531 39.3935H1.21531C0.927312 39.3935 0.731313 39.4455 0.627313 39.5495C0.523313 39.6615 0.471313 39.8815 0.471313 40.2095V41.0015C0.471313 41.4495 0.603312 41.8215 0.867312 42.1175C1.13931 42.4215 1.52331 42.6295 2.01931 42.7415C2.03531 42.7415 2.04331 42.7575 2.04331 42.7895C2.04331 42.8135 2.03531 42.8335 2.01931 42.8495C2.01131 42.8735 2.00331 42.8855 1.99531 42.8855C1.41931 42.8055 0.879312 42.7655 0.375312 42.7655C0.311312 42.7655 0.263312 42.7535 0.231312 42.7295C0.207312 42.7055 0.195312 42.6575 0.195312 42.5855V37.4735ZM2.95531 41.9135C3.29931 41.9135 3.55131 41.8135 3.71131 41.6135C3.87931 41.4215 3.96331 41.1135 3.96331 40.6895V38.9375H4.23931V40.7135C4.23931 41.1215 4.30731 41.4215 4.44331 41.6135C4.58731 41.8055 4.80731 41.9015 5.10331 41.9015C5.11931 41.9015 5.12731 41.9215 5.12731 41.9615C5.12731 42.0095 5.11931 42.0335 5.10331 42.0335L4.09531 42.0215L3.55531 42.0335C3.29931 42.0495 3.09931 42.0575 2.95531 42.0575C2.93931 42.0575 2.93131 42.0335 2.93131 41.9855C2.93131 41.9375 2.93931 41.9135 2.95531 41.9135Z" fill="#421D12"/>
<path d="M0.207313 28.9317C0.175313 28.9237 0.159312 28.8797 0.159312 28.7997C0.159312 28.7197 0.175313 28.6757 0.207313 28.6677L6.69931 25.6557C7.03531 25.5037 7.25931 25.3597 7.37131 25.2237C7.49131 25.0957 7.55131 24.9117 7.55131 24.6717C7.55131 24.6477 7.57531 24.6357 7.62331 24.6357C7.67131 24.6357 7.69531 24.6477 7.69531 24.6717L7.68331 25.0437C7.66731 25.2517 7.65931 25.4477 7.65931 25.6317C7.65931 25.9917 7.66731 26.3477 7.68331 26.6997C7.69131 26.8117 7.69531 26.9637 7.69531 27.1557C7.69531 27.1797 7.67131 27.1917 7.62331 27.1917C7.57531 27.1917 7.55131 27.1797 7.55131 27.1557C7.55131 26.9237 7.52731 26.7557 7.47931 26.6517C7.43131 26.5477 7.33931 26.4957 7.20331 26.4957C7.09131 26.4957 6.91131 26.5517 6.66331 26.6637L1.22731 29.2077L0.567313 28.7517L4.40731 30.2637L4.13131 30.4557L0.207313 28.9317ZM7.69531 35.8077C7.69531 35.8317 7.67131 35.8437 7.62331 35.8437C7.57531 35.8437 7.55131 35.8317 7.55131 35.8077C7.55131 35.2397 7.18731 34.8077 6.45931 34.5117L0.207313 32.0637C0.175313 32.0557 0.159312 32.0117 0.159312 31.9317C0.159312 31.8517 0.175313 31.8077 0.207313 31.7997L6.69931 28.7877C6.99531 28.6517 7.21131 28.5117 7.34731 28.3677C7.48331 28.2317 7.55131 28.0637 7.55131 27.8637C7.55131 27.8397 7.57531 27.8277 7.62331 27.8277C7.67131 27.8277 7.69531 27.8397 7.69531 27.8637L7.68331 28.2357C7.66731 28.4277 7.65931 28.6037 7.65931 28.7637C7.65931 29.0677 7.66731 29.3477 7.68331 29.6037C7.69131 29.6837 7.69531 29.7917 7.69531 29.9277C7.69531 29.9517 7.67131 29.9637 7.62331 29.9637C7.57531 29.9637 7.55131 29.9517 7.55131 29.9277C7.55131 29.7917 7.53531 29.6917 7.50331 29.6277C7.47931 29.5717 7.43131 29.5437 7.35931 29.5437C7.24731 29.5437 7.01531 29.6277 6.66331 29.7957L1.22731 32.3397L0.567313 31.8837L6.45931 34.1997C6.65131 34.2717 6.81531 34.3077 6.95131 34.3077C7.14331 34.3077 7.29131 34.2357 7.39531 34.0917C7.49931 33.9557 7.55131 33.7517 7.55131 33.4797C7.55131 33.4557 7.57531 33.4437 7.62331 33.4437C7.67131 33.4437 7.69531 33.4557 7.69531 33.4797L7.68331 33.9957C7.66731 34.2677 7.65931 34.5157 7.65931 34.7397C7.65931 34.9077 7.66731 35.0957 7.68331 35.3037L7.69531 35.8077ZM6.51931 31.1517C6.80731 31.2637 7.02731 31.3197 7.17931 31.3197C7.42731 31.3197 7.55131 31.1717 7.55131 30.8757C7.55131 30.8597 7.57531 30.8517 7.62331 30.8517C7.67131 30.8517 7.69531 30.8597 7.69531 30.8757L7.68331 31.1157C7.66731 31.2757 7.65931 31.4597 7.65931 31.6677C7.65931 31.8117 7.66731 31.9877 7.68331 32.1957L7.69531 32.6757C7.69531 32.6917 7.67131 32.6997 7.62331 32.6997C7.57531 32.6997 7.55131 32.6917 7.55131 32.6757C7.55131 32.4037 7.46731 32.1677 7.29931 31.9677C7.13131 31.7677 6.85131 31.5917 6.45931 31.4397L4.13131 30.5157L4.40731 30.3237L6.51931 31.1517Z" fill="#421D12"/>
<path d="M0.0521245 18.9456C0.0521245 18.2016 0.224125 17.5376 0.568125 16.9536C0.920125 16.3776 1.39212 15.9296 1.98412 15.6096C2.58412 15.2976 3.23612 15.1416 3.94012 15.1416C4.76412 15.1416 5.46812 15.3496 6.05212 15.7656C6.64412 16.1816 7.08812 16.7136 7.38412 17.3616C7.68012 18.0176 7.82812 18.6856 7.82812 19.3656C7.82812 20.1256 7.64812 20.7936 7.28812 21.3696C6.93613 21.9456 6.46813 22.3856 5.88412 22.6896C5.30012 23.0016 4.68012 23.1576 4.02412 23.1576C3.29612 23.1576 2.62812 22.9656 2.02012 22.5816C1.41212 22.1976 0.932124 21.6816 0.580124 21.0336C0.228124 20.3936 0.0521245 19.6976 0.0521245 18.9456ZM0.316124 19.3656C0.316124 19.8776 0.448124 20.3376 0.712124 20.7456C0.976124 21.1536 1.36012 21.4736 1.86412 21.7056C2.37612 21.9456 2.98412 22.0656 3.68812 22.0656C4.43212 22.0656 5.09612 21.9336 5.68012 21.6696C6.26412 21.4136 6.72012 21.0416 7.04813 20.5536C7.37613 20.0736 7.54013 19.5136 7.54013 18.8736C7.54013 18.0416 7.25612 17.3936 6.68812 16.9296C6.12812 16.4656 5.35212 16.2336 4.36012 16.2336C3.60012 16.2336 2.91212 16.3656 2.29612 16.6296C1.68012 16.8936 1.19612 17.2616 0.844125 17.7336C0.492125 18.2136 0.316124 18.7576 0.316124 19.3656Z" fill="#421D12"/>
<path d="M1.21531 9.23627C0.991313 9.23627 0.827312 9.25627 0.723312 9.29627C0.627312 9.34427 0.559312 9.42827 0.519312 9.54827C0.487312 9.66827 0.471313 9.85627 0.471313 10.1123V11.1323C0.471313 11.6363 0.619313 12.0523 0.915313 12.3803C1.21931 12.7163 1.62731 12.9403 2.13931 13.0523C2.16331 13.0523 2.17131 13.0723 2.16331 13.1123C2.16331 13.1603 2.15131 13.1843 2.12731 13.1843C1.42331 13.1123 0.839312 13.0763 0.375312 13.0763C0.311312 13.0763 0.263312 13.0603 0.231312 13.0283C0.207312 13.0043 0.195312 12.9603 0.195312 12.8963V7.30427C0.195312 7.28827 0.219313 7.28027 0.267313 7.28027C0.315313 7.28027 0.339313 7.28827 0.339313 7.30427C0.339313 7.59227 0.359312 7.80427 0.399312 7.94027C0.439313 8.07627 0.515313 8.16827 0.627313 8.21627C0.747313 8.26427 0.927313 8.28827 1.16731 8.28827H6.72331C6.96331 8.28827 7.13931 8.26427 7.25131 8.21627C7.36331 8.16827 7.43931 8.07627 7.47931 7.94027C7.52731 7.80427 7.55131 7.59227 7.55131 7.30427C7.55131 7.28827 7.57531 7.28027 7.62331 7.28027C7.67131 7.28027 7.69531 7.28827 7.69531 7.30427L7.68331 7.90427C7.66731 8.25627 7.65931 8.54027 7.65931 8.75627C7.65931 8.97227 7.66731 9.25627 7.68331 9.60827L7.69531 10.2083C7.69531 10.2243 7.67131 10.2323 7.62331 10.2323C7.57531 10.2323 7.55131 10.2243 7.55131 10.2083C7.55131 9.92027 7.52731 9.70827 7.47931 9.57227C7.43931 9.44427 7.35931 9.35627 7.23931 9.30827C7.12731 9.26027 6.95131 9.23627 6.71131 9.23627H1.21531Z" fill="#421D12"/>
<path d="M0.195312 0.036C0.195312 0.012 0.219313 0 0.267313 0C0.315313 0 0.339313 0.012 0.339313 0.036C0.339313 0.332 0.359312 0.548 0.399312 0.684C0.439313 0.82 0.515313 0.912 0.627313 0.96C0.747313 1.016 0.927313 1.044 1.16731 1.044H6.72331C6.96331 1.044 7.13931 1.02 7.25131 0.972C7.36331 0.924 7.43931 0.832 7.47931 0.696C7.52731 0.568 7.55131 0.36 7.55131 0.072C7.55131 0.048 7.57531 0.036 7.62331 0.036C7.67131 0.036 7.69531 0.048 7.69531 0.072V4.968C7.69531 5.048 7.65931 5.088 7.58731 5.088L6.07531 5.112C6.05131 5.112 6.03531 5.088 6.02731 5.04C6.02731 5 6.03931 4.976 6.06331 4.968C6.50331 4.912 6.83931 4.756 7.07131 4.5C7.30331 4.244 7.41931 3.908 7.41931 3.492V2.88C7.41931 2.536 7.36731 2.3 7.26331 2.172C7.16731 2.052 6.98331 1.992 6.71131 1.992H1.21531C0.959312 1.992 0.771312 2.024 0.651312 2.088C0.539312 2.16 0.459313 2.292 0.411313 2.484C0.363313 2.676 0.339313 2.98 0.339313 3.396C0.339313 3.412 0.315313 3.42 0.267313 3.42C0.219313 3.42 0.195312 3.412 0.195312 3.396C0.195312 3.068 0.199313 2.812 0.207313 2.628L0.219313 1.5L0.207313 0.66C0.199313 0.508 0.195312 0.3 0.195312 0.036ZM2.81131 4.368C3.15531 4.368 3.40731 4.264 3.56731 4.056C3.73531 3.848 3.81931 3.516 3.81931 3.06V1.536H4.09531V3.096C4.09531 3.528 4.16731 3.844 4.31131 4.044C4.45531 4.252 4.67131 4.356 4.95931 4.356C4.97531 4.356 4.98331 4.38 4.98331 4.428C4.98331 4.476 4.97531 4.5 4.95931 4.5L3.95131 4.488C3.71131 4.488 3.53131 4.492 3.41131 4.5L2.81131 4.512C2.79531 4.512 2.78731 4.488 2.78731 4.44C2.78731 4.392 2.79531 4.368 2.81131 4.368Z" fill="#421D12"/>
</svg>
