<svg width="10" height="146" viewBox="0 0 10 146" fill="none" xmlns="http://www.w3.org/2000/svg">
<path d="M0.0631251 144.88C0.0631251 144.704 0.115125 144.56 0.219125 144.448C0.331125 144.344 0.475125 144.292 0.651125 144.292C0.819125 144.292 0.951125 144.344 1.04713 144.448C1.15113 144.56 1.20312 144.704 1.20312 144.88C1.20312 145.064 1.15113 145.204 1.04713 145.3C0.951125 145.404 0.819125 145.456 0.651125 145.456C0.467125 145.456 0.323125 145.404 0.219125 145.3C0.115125 145.204 0.0631251 145.064 0.0631251 144.88Z" fill="#421D12"/>
<path d="M0.207313 136.908C0.175313 136.9 0.159312 136.856 0.159312 136.776C0.159312 136.696 0.175313 136.652 0.207313 136.644L6.69931 133.632C7.03531 133.48 7.25931 133.336 7.37131 133.2C7.49131 133.072 7.55131 132.888 7.55131 132.648C7.55131 132.624 7.57531 132.612 7.62331 132.612C7.67131 132.612 7.69531 132.624 7.69531 132.648L7.68331 133.02C7.66731 133.228 7.65931 133.424 7.65931 133.608C7.65931 133.968 7.66731 134.324 7.68331 134.676C7.69131 134.788 7.69531 134.94 7.69531 135.132C7.69531 135.156 7.67131 135.168 7.62331 135.168C7.57531 135.168 7.55131 135.156 7.55131 135.132C7.55131 134.9 7.52731 134.732 7.47931 134.628C7.43131 134.524 7.33931 134.472 7.20331 134.472C7.09131 134.472 6.91131 134.528 6.66331 134.64L1.22731 137.184L0.567313 136.728L4.40731 138.24L4.13131 138.432L0.207313 136.908ZM7.69531 143.784C7.69531 143.808 7.67131 143.82 7.62331 143.82C7.57531 143.82 7.55131 143.808 7.55131 143.784C7.55131 143.216 7.18731 142.784 6.45931 142.488L0.207313 140.04C0.175313 140.032 0.159312 139.988 0.159312 139.908C0.159312 139.828 0.175313 139.784 0.207313 139.776L6.69931 136.764C6.99531 136.628 7.21131 136.488 7.34731 136.344C7.48331 136.208 7.55131 136.04 7.55131 135.84C7.55131 135.816 7.57531 135.804 7.62331 135.804C7.67131 135.804 7.69531 135.816 7.69531 135.84L7.68331 136.212C7.66731 136.404 7.65931 136.58 7.65931 136.74C7.65931 137.044 7.66731 137.324 7.68331 137.58C7.69131 137.66 7.69531 137.768 7.69531 137.904C7.69531 137.928 7.67131 137.94 7.62331 137.94C7.57531 137.94 7.55131 137.928 7.55131 137.904C7.55131 137.768 7.53531 137.668 7.50331 137.604C7.47931 137.548 7.43131 137.52 7.35931 137.52C7.24731 137.52 7.01531 137.604 6.66331 137.772L1.22731 140.316L0.567313 139.86L6.45931 142.176C6.65131 142.248 6.81531 142.284 6.95131 142.284C7.14331 142.284 7.29131 142.212 7.39531 142.068C7.49931 141.932 7.55131 141.728 7.55131 141.456C7.55131 141.432 7.57531 141.42 7.62331 141.42C7.67131 141.42 7.69531 141.432 7.69531 141.456L7.68331 141.972C7.66731 142.244 7.65931 142.492 7.65931 142.716C7.65931 142.884 7.66731 143.072 7.68331 143.28L7.69531 143.784ZM6.51931 139.128C6.80731 139.24 7.02731 139.296 7.17931 139.296C7.42731 139.296 7.55131 139.148 7.55131 138.852C7.55131 138.836 7.57531 138.828 7.62331 138.828C7.67131 138.828 7.69531 138.836 7.69531 138.852L7.68331 139.092C7.66731 139.252 7.65931 139.436 7.65931 139.644C7.65931 139.788 7.66731 139.964 7.68331 140.172L7.69531 140.652C7.69531 140.668 7.67131 140.676 7.62331 140.676C7.57531 140.676 7.55131 140.668 7.55131 140.652C7.55131 140.38 7.46731 140.144 7.29931 139.944C7.13131 139.744 6.85131 139.568 6.45931 139.416L4.13131 138.492L4.40731 138.3L6.51931 139.128Z" fill="#421D12"/>
<path d="M0.195312 125.448C0.195312 125.424 0.219313 125.412 0.267313 125.412C0.315313 125.412 0.339313 125.424 0.339313 125.448C0.339313 125.736 0.359312 125.944 0.399312 126.072C0.439313 126.208 0.515313 126.3 0.627313 126.348C0.747313 126.396 0.927313 126.42 1.16731 126.42H6.72331C6.96331 126.42 7.13931 126.396 7.25131 126.348C7.36331 126.3 7.43931 126.208 7.47931 126.072C7.52731 125.944 7.55131 125.736 7.55131 125.448C7.55131 125.424 7.57531 125.412 7.62331 125.412C7.67131 125.412 7.69531 125.424 7.69531 125.448V130.344C7.69531 130.424 7.65931 130.464 7.58731 130.464L6.07531 130.488C6.05131 130.488 6.03531 130.464 6.02731 130.416C6.02731 130.376 6.03931 130.352 6.06331 130.344C6.50331 130.288 6.83931 130.132 7.07131 129.876C7.30331 129.62 7.41931 129.284 7.41931 128.868V128.256C7.41931 127.904 7.36731 127.668 7.26331 127.548C7.15931 127.428 6.96331 127.368 6.67531 127.368H1.21531C0.927312 127.368 0.731313 127.42 0.627313 127.524C0.523313 127.636 0.471313 127.856 0.471313 128.184V128.976C0.471313 129.424 0.603312 129.796 0.867312 130.092C1.13931 130.396 1.52331 130.604 2.01931 130.716C2.03531 130.716 2.04331 130.732 2.04331 130.764C2.04331 130.788 2.03531 130.808 2.01931 130.824C2.01131 130.848 2.00331 130.86 1.99531 130.86C1.41931 130.78 0.879312 130.74 0.375312 130.74C0.311312 130.74 0.263312 130.728 0.231312 130.704C0.207312 130.68 0.195312 130.632 0.195312 130.56V125.448ZM2.95531 129.888C3.29931 129.888 3.55131 129.788 3.71131 129.588C3.87931 129.396 3.96331 129.088 3.96331 128.664V126.912H4.23931V128.688C4.23931 129.096 4.30731 129.396 4.44331 129.588C4.58731 129.78 4.80731 129.876 5.10331 129.876C5.11931 129.876 5.12731 129.896 5.12731 129.936C5.12731 129.984 5.11931 130.008 5.10331 130.008L4.09531 129.996L3.55531 130.008C3.29931 130.024 3.09931 130.032 2.95531 130.032C2.93931 130.032 2.93131 130.008 2.93131 129.96C2.93131 129.912 2.93931 129.888 2.95531 129.888Z" fill="#421D12"/>
<path d="M1.16731 122.209C0.919313 122.209 0.739313 122.229 0.627313 122.269C0.515313 122.317 0.439313 122.405 0.399312 122.533C0.359312 122.669 0.339313 122.885 0.339313 123.181C0.339313 123.197 0.315313 123.205 0.267313 123.205C0.219313 123.205 0.195312 123.197 0.195312 123.181C0.195312 122.925 0.199313 122.725 0.207313 122.581L0.219313 121.717L0.207313 120.877C0.199313 120.725 0.195312 120.517 0.195312 120.253C0.195312 120.237 0.219313 120.229 0.267313 120.229C0.315313 120.229 0.339313 120.237 0.339313 120.253C0.339313 120.541 0.359312 120.753 0.399312 120.889C0.439313 121.025 0.515313 121.117 0.627313 121.165C0.747313 121.221 0.927313 121.249 1.16731 121.249H6.72331C6.96331 121.249 7.13931 121.221 7.25131 121.165C7.36331 121.117 7.43931 121.025 7.47931 120.889C7.52731 120.753 7.55131 120.541 7.55131 120.253C7.55131 120.237 7.57531 120.229 7.62331 120.229C7.67131 120.229 7.69531 120.237 7.69531 120.253L7.68331 120.877C7.66731 121.229 7.65931 121.509 7.65931 121.717C7.65931 121.949 7.66731 122.241 7.68331 122.593L7.69531 123.181C7.69531 123.197 7.67131 123.205 7.62331 123.205C7.57531 123.205 7.55131 123.197 7.55131 123.181C7.55131 122.893 7.52731 122.681 7.47931 122.545C7.43131 122.417 7.34731 122.329 7.22731 122.281C7.11531 122.233 6.93931 122.209 6.69931 122.209H1.16731Z" fill="#421D12"/>
<path d="M7.69531 118.56C7.69531 118.584 7.67131 118.596 7.62331 118.596C7.57531 118.596 7.55131 118.584 7.55131 118.56C7.55131 117.984 7.18731 117.552 6.45931 117.264L0.207313 114.816C0.175313 114.808 0.159312 114.764 0.159312 114.684C0.159312 114.604 0.175313 114.56 0.207313 114.552L6.69931 111.54C7.00331 111.396 7.21931 111.248 7.34731 111.096C7.48331 110.952 7.55131 110.772 7.55131 110.556C7.55131 110.532 7.57531 110.52 7.62331 110.52C7.67131 110.52 7.69531 110.532 7.69531 110.556L7.68331 110.928C7.66731 111.136 7.65931 111.332 7.65931 111.516C7.65931 111.948 7.66731 112.364 7.68331 112.764C7.69131 112.892 7.69531 113.056 7.69531 113.256C7.69531 113.28 7.67131 113.292 7.62331 113.292C7.57531 113.292 7.55131 113.28 7.55131 113.256C7.55131 112.76 7.39931 112.512 7.09531 112.512C6.96731 112.512 6.82331 112.552 6.66331 112.632L1.31131 115.092L0.615313 114.66L6.51931 116.976C6.69531 117.04 6.84331 117.072 6.96331 117.072C7.35531 117.072 7.55131 116.768 7.55131 116.16C7.55131 116.136 7.57531 116.124 7.62331 116.124C7.67131 116.124 7.69531 116.136 7.69531 116.16L7.68331 116.7C7.66731 117.004 7.65931 117.268 7.65931 117.492C7.65931 117.66 7.66731 117.848 7.68331 118.056L7.69531 118.56Z" fill="#421D12"/>
<path d="M0.194468 108.584C0.194468 108.384 0.542469 108.016 1.23847 107.48C1.93447 106.944 2.90647 106.288 4.15447 105.512L4.41847 106.316C3.37847 106.996 2.56647 107.564 1.98247 108.02C1.40647 108.484 0.986468 108.896 0.722468 109.256C0.466468 109.616 0.338469 109.964 0.338469 110.3C0.338469 110.324 0.314469 110.336 0.266469 110.336C0.218469 110.336 0.194468 110.324 0.194468 110.3V108.584ZM7.73047 105.476C7.73047 106.156 7.59447 106.68 7.32247 107.048C7.05847 107.416 6.69047 107.6 6.21847 107.6C5.82647 107.6 5.45847 107.48 5.11447 107.24C4.77047 107.008 4.49447 106.696 4.28647 106.304C4.07847 105.912 3.97447 105.496 3.97447 105.056C3.97447 104.888 3.98247 104.692 3.99847 104.468H1.16647C0.926469 104.468 0.746469 104.492 0.626469 104.54C0.514469 104.588 0.438469 104.676 0.398468 104.804C0.358468 104.94 0.338469 105.152 0.338469 105.44C0.338469 105.464 0.314469 105.476 0.266469 105.476C0.218469 105.476 0.194468 105.464 0.194468 105.44C0.194468 105.192 0.198469 104.996 0.206469 104.852L0.218469 103.988L0.206469 103.148C0.198469 102.996 0.194468 102.792 0.194468 102.536C0.194468 102.512 0.218469 102.5 0.266469 102.5C0.314469 102.5 0.338469 102.512 0.338469 102.536C0.338469 102.824 0.358468 103.036 0.398468 103.172C0.438469 103.308 0.514469 103.4 0.626469 103.448C0.746469 103.496 0.926469 103.52 1.16647 103.52H6.72247C6.96247 103.52 7.13847 103.496 7.25047 103.448C7.36247 103.4 7.43847 103.308 7.47847 103.172C7.52647 103.044 7.55047 102.836 7.55047 102.548C7.55047 102.532 7.57447 102.524 7.62247 102.524C7.67047 102.524 7.69447 102.532 7.69447 102.548L7.68247 103.148C7.66647 103.5 7.65847 103.78 7.65847 103.988C7.65847 104.132 7.66247 104.268 7.67047 104.396C7.67847 104.524 7.68647 104.636 7.69447 104.732C7.71847 104.996 7.73047 105.244 7.73047 105.476ZM5.78647 106.604C6.41847 106.604 6.86647 106.484 7.13047 106.244C7.39447 106.004 7.52647 105.672 7.52647 105.248C7.52647 105.04 7.50647 104.88 7.46647 104.768C7.42647 104.664 7.34647 104.588 7.22647 104.54C7.11447 104.492 6.93847 104.468 6.69847 104.468H4.31047C4.27847 104.772 4.26247 105.008 4.26247 105.176C4.26247 105.688 4.37447 106.052 4.59847 106.268C4.83047 106.492 5.22647 106.604 5.78647 106.604Z" fill="#421D12"/>
<path d="M0.195312 94.8319C0.195312 94.8079 0.219313 94.7959 0.267313 94.7959C0.315313 94.7959 0.339313 94.8079 0.339313 94.8319C0.339313 95.1199 0.359312 95.3279 0.399312 95.4559C0.439313 95.5919 0.515313 95.6839 0.627313 95.7319C0.747313 95.7799 0.927313 95.8039 1.16731 95.8039H6.72331C6.96331 95.8039 7.13931 95.7799 7.25131 95.7319C7.36331 95.6839 7.43931 95.5919 7.47931 95.4559C7.52731 95.3279 7.55131 95.1199 7.55131 94.8319C7.55131 94.8079 7.57531 94.7959 7.62331 94.7959C7.67131 94.7959 7.69531 94.8079 7.69531 94.8319V99.7279C7.69531 99.8079 7.65931 99.8479 7.58731 99.8479L6.07531 99.8719C6.05131 99.8719 6.03531 99.8479 6.02731 99.7999C6.02731 99.7599 6.03931 99.7359 6.06331 99.7279C6.50331 99.6719 6.83931 99.5159 7.07131 99.2599C7.30331 99.0039 7.41931 98.6679 7.41931 98.2519V97.6399C7.41931 97.2879 7.36731 97.0519 7.26331 96.9319C7.15931 96.8119 6.96331 96.7519 6.67531 96.7519H1.21531C0.927312 96.7519 0.731313 96.8039 0.627313 96.9079C0.523313 97.0199 0.471313 97.2399 0.471313 97.5679V98.3599C0.471313 98.8079 0.603312 99.1799 0.867312 99.4759C1.13931 99.7799 1.52331 99.9879 2.01931 100.1C2.03531 100.1 2.04331 100.116 2.04331 100.148C2.04331 100.172 2.03531 100.192 2.01931 100.208C2.01131 100.232 2.00331 100.244 1.99531 100.244C1.41931 100.164 0.879312 100.124 0.375312 100.124C0.311312 100.124 0.263312 100.112 0.231312 100.088C0.207312 100.064 0.195312 100.016 0.195312 99.9439V94.8319ZM2.95531 99.2719C3.29931 99.2719 3.55131 99.1719 3.71131 98.9719C3.87931 98.7799 3.96331 98.4719 3.96331 98.0479V96.2959H4.23931V98.0719C4.23931 98.4799 4.30731 98.7799 4.44331 98.9719C4.58731 99.1639 4.80731 99.2599 5.10331 99.2599C5.11931 99.2599 5.12731 99.2799 5.12731 99.3199C5.12731 99.3679 5.11931 99.3919 5.10331 99.3919L4.09531 99.3799L3.55531 99.3919C3.29931 99.4079 3.09931 99.4159 2.95531 99.4159C2.93931 99.4159 2.93131 99.3919 2.93131 99.3439C2.93131 99.2959 2.93931 99.2719 2.95531 99.2719Z" fill="#421D12"/>
<path d="M7.45497 87.8632C7.45497 87.3672 7.31497 86.9792 7.03497 86.6992C6.76297 86.4192 6.32297 86.2111 5.71497 86.0751C5.69897 86.0671 5.69097 86.0391 5.69097 85.9911C5.69097 85.9511 5.70297 85.9312 5.72697 85.9312C5.95097 85.9632 6.31497 85.9992 6.81897 86.0392C7.32297 86.0792 7.70297 86.0992 7.95897 86.0992C7.99897 86.0992 8.01897 86.1232 8.01897 86.1712C8.01897 86.2192 7.99897 86.2431 7.95897 86.2431C7.78297 86.2431 7.69497 86.4632 7.69497 86.9032C7.67097 87.5912 7.65897 88.3952 7.65897 89.3152C7.65897 89.7872 7.66697 90.2872 7.68297 90.8152L7.69497 91.6311C7.69497 91.9271 7.71497 92.1432 7.75497 92.2792C7.79497 92.4152 7.87497 92.5032 7.99497 92.5432C8.02697 92.5512 8.04297 92.5752 8.04297 92.6152C8.04297 92.6632 8.02697 92.6871 7.99497 92.6871C7.77097 92.6631 7.41097 92.6351 6.91497 92.6031C6.41897 92.5791 6.02297 92.5672 5.72697 92.5672C5.70297 92.5672 5.69097 92.5431 5.69097 92.4951C5.69097 92.4551 5.70297 92.4352 5.72697 92.4352C6.34297 92.3791 6.78297 92.2192 7.04697 91.9552C7.31897 91.6912 7.45497 91.2992 7.45497 90.7792C7.45497 90.4832 7.43497 90.2712 7.39497 90.1432C7.36297 90.0152 7.29497 89.9272 7.19097 89.8792C7.09497 89.8312 6.93097 89.8072 6.69897 89.8072H1.16697C0.918968 89.8072 0.738968 89.8312 0.626968 89.8792C0.514968 89.9352 0.438968 90.0392 0.398968 90.1912C0.358968 90.3432 0.338968 90.5871 0.338968 90.9231C0.338968 90.9391 0.314968 90.9472 0.266968 90.9472C0.218968 90.9472 0.194968 90.9391 0.194968 90.9231C0.194968 90.6431 0.198968 90.4232 0.206968 90.2632L0.218968 89.3152L0.206968 88.3912C0.198968 88.2312 0.194968 88.0072 0.194968 87.7192C0.194968 87.6952 0.218968 87.6832 0.266968 87.6832C0.314968 87.6832 0.338968 87.6952 0.338968 87.7192C0.338968 88.0472 0.358968 88.2871 0.398968 88.4391C0.438968 88.5991 0.514968 88.7072 0.626968 88.7632C0.746968 88.8192 0.926968 88.8472 1.16697 88.8472H6.72297C6.94697 88.8472 7.10697 88.8232 7.20297 88.7752C7.30697 88.7272 7.37497 88.6352 7.40697 88.4992C7.43897 88.3712 7.45497 88.1592 7.45497 87.8632Z" fill="#421D12"/>
<path d="M7.41931 76.9733L7.39531 77.2853H1.56331C1.14731 77.2853 0.839313 77.3613 0.639313 77.5133C0.439313 77.6733 0.339313 77.9133 0.339313 78.2333C0.339313 78.2493 0.315313 78.2573 0.267313 78.2573C0.219313 78.2573 0.195312 78.2493 0.195312 78.2333C0.195312 78.0253 0.199313 77.8653 0.207313 77.7533L0.219313 77.1413L0.207313 76.4933C0.199313 76.3733 0.195312 76.1973 0.195312 75.9653C0.195312 75.9493 0.219313 75.9413 0.267313 75.9413C0.315313 75.9413 0.339313 75.9493 0.339313 75.9653C0.339313 76.3093 0.439313 76.5613 0.639313 76.7213C0.839313 76.8893 1.14731 76.9733 1.56331 76.9733H7.41931ZM0.0393124 83.0453C0.0233124 83.0453 0.0113121 83.0253 0.00331211 82.9853C-0.00468789 82.9533 -0.000687808 82.9293 0.0153122 82.9133L6.71131 77.2613C7.02331 76.9973 7.23931 76.7613 7.35931 76.5533C7.48731 76.3453 7.55131 76.1373 7.55131 75.9293C7.55131 75.9133 7.57531 75.9053 7.62331 75.9053C7.67131 75.9053 7.69531 75.9133 7.69531 75.9293L7.68331 76.3973C7.67531 76.4933 7.67131 76.6293 7.67131 76.8053L7.68331 77.4173C7.69131 77.4973 7.69531 77.5893 7.69531 77.6933C7.69531 77.7573 7.67931 77.8053 7.64731 77.8373C7.61531 77.8693 7.55131 77.9173 7.45531 77.9813L7.07131 78.2693L1.43131 82.9493L0.0393124 83.0453ZM0.0393124 83.0453L0.411313 82.7453H6.31531C6.73131 82.7453 7.03931 82.6693 7.23931 82.5173C7.44731 82.3653 7.55131 82.1293 7.55131 81.8093C7.55131 81.7933 7.57531 81.7853 7.62331 81.7853C7.67131 81.7853 7.69531 81.7933 7.69531 81.8093L7.68331 82.2893C7.66731 82.5293 7.65931 82.7333 7.65931 82.9013C7.65931 83.0453 7.66731 83.2533 7.68331 83.5253L7.69531 84.0293C7.69531 84.0453 7.67131 84.0533 7.62331 84.0533C7.57531 84.0533 7.55131 84.0453 7.55131 84.0293C7.55131 83.3733 7.13931 83.0453 6.31531 83.0453H0.0393124Z" fill="#421D12"/>
<path d="M1.16731 72.7862C0.919313 72.7862 0.739313 72.8062 0.627313 72.8462C0.515313 72.8942 0.439313 72.9822 0.399312 73.1102C0.359312 73.2462 0.339313 73.4622 0.339313 73.7582C0.339313 73.7742 0.315313 73.7822 0.267313 73.7822C0.219313 73.7822 0.195312 73.7742 0.195312 73.7582C0.195312 73.5022 0.199313 73.3022 0.207313 73.1582L0.219313 72.2942L0.207313 71.4542C0.199313 71.3022 0.195312 71.0942 0.195312 70.8302C0.195312 70.8142 0.219313 70.8062 0.267313 70.8062C0.315313 70.8062 0.339313 70.8142 0.339313 70.8302C0.339313 71.1182 0.359312 71.3302 0.399312 71.4662C0.439313 71.6022 0.515313 71.6942 0.627313 71.7422C0.747313 71.7982 0.927313 71.8262 1.16731 71.8262H6.72331C6.96331 71.8262 7.13931 71.7982 7.25131 71.7422C7.36331 71.6942 7.43931 71.6022 7.47931 71.4662C7.52731 71.3302 7.55131 71.1182 7.55131 70.8302C7.55131 70.8142 7.57531 70.8062 7.62331 70.8062C7.67131 70.8062 7.69531 70.8142 7.69531 70.8302L7.68331 71.4542C7.66731 71.8062 7.65931 72.0862 7.65931 72.2942C7.65931 72.5262 7.66731 72.8182 7.68331 73.1702L7.69531 73.7582C7.69531 73.7742 7.67131 73.7822 7.62331 73.7822C7.57531 73.7822 7.55131 73.7742 7.55131 73.7582C7.55131 73.4702 7.52731 73.2582 7.47931 73.1222C7.43131 72.9942 7.34731 72.9062 7.22731 72.8582C7.11531 72.8102 6.93931 72.7862 6.69931 72.7862H1.16731Z" fill="#421D12"/>
<path d="M0.194468 63.4736C0.194468 63.2736 0.542469 62.9056 1.23847 62.3696C1.93447 61.8336 2.90647 61.1776 4.15447 60.4016L4.41847 61.2057C3.37847 61.8857 2.56647 62.4536 1.98247 62.9096C1.40647 63.3736 0.986468 63.7856 0.722468 64.1456C0.466468 64.5056 0.338469 64.8536 0.338469 65.1896C0.338469 65.2136 0.314469 65.2257 0.266469 65.2257C0.218469 65.2257 0.194468 65.2136 0.194468 65.1896V63.4736ZM7.73047 60.3657C7.73047 61.0457 7.59447 61.5696 7.32247 61.9376C7.05847 62.3056 6.69047 62.4897 6.21847 62.4897C5.82647 62.4897 5.45847 62.3697 5.11447 62.1297C4.77047 61.8977 4.49447 61.5856 4.28647 61.1936C4.07847 60.8016 3.97447 60.3856 3.97447 59.9456C3.97447 59.7776 3.98247 59.5817 3.99847 59.3577H1.16647C0.926469 59.3577 0.746469 59.3816 0.626469 59.4296C0.514469 59.4776 0.438469 59.5656 0.398468 59.6936C0.358468 59.8296 0.338469 60.0417 0.338469 60.3297C0.338469 60.3537 0.314469 60.3657 0.266469 60.3657C0.218469 60.3657 0.194468 60.3537 0.194468 60.3297C0.194468 60.0817 0.198469 59.8856 0.206469 59.7416L0.218469 58.8776L0.206469 58.0376C0.198469 57.8856 0.194468 57.6816 0.194468 57.4256C0.194468 57.4016 0.218469 57.3896 0.266469 57.3896C0.314469 57.3896 0.338469 57.4016 0.338469 57.4256C0.338469 57.7136 0.358468 57.9256 0.398468 58.0616C0.438469 58.1976 0.514469 58.2897 0.626469 58.3377C0.746469 58.3857 0.926469 58.4096 1.16647 58.4096H6.72247C6.96247 58.4096 7.13847 58.3857 7.25047 58.3377C7.36247 58.2897 7.43847 58.1976 7.47847 58.0616C7.52647 57.9336 7.55047 57.7256 7.55047 57.4376C7.55047 57.4216 7.57447 57.4137 7.62247 57.4137C7.67047 57.4137 7.69447 57.4216 7.69447 57.4376L7.68247 58.0376C7.66647 58.3896 7.65847 58.6696 7.65847 58.8776C7.65847 59.0216 7.66247 59.1576 7.67047 59.2856C7.67847 59.4136 7.68647 59.5257 7.69447 59.6217C7.71847 59.8857 7.73047 60.1337 7.73047 60.3657ZM5.78647 61.4936C6.41847 61.4936 6.86647 61.3736 7.13047 61.1336C7.39447 60.8936 7.52647 60.5616 7.52647 60.1376C7.52647 59.9296 7.50647 59.7696 7.46647 59.6576C7.42647 59.5536 7.34647 59.4776 7.22647 59.4296C7.11447 59.3816 6.93847 59.3577 6.69847 59.3577H4.31047C4.27847 59.6617 4.26247 59.8976 4.26247 60.0656C4.26247 60.5776 4.37447 60.9417 4.59847 61.1576C4.83047 61.3817 5.22647 61.4936 5.78647 61.4936Z" fill="#421D12"/>
<path d="M0.195312 49.7215C0.195312 49.6975 0.219313 49.6855 0.267313 49.6855C0.315313 49.6855 0.339313 49.6975 0.339313 49.7215C0.339313 50.0095 0.359312 50.2175 0.399312 50.3455C0.439313 50.4815 0.515313 50.5735 0.627313 50.6215C0.747313 50.6695 0.927313 50.6935 1.16731 50.6935H6.72331C6.96331 50.6935 7.13931 50.6695 7.25131 50.6215C7.36331 50.5735 7.43931 50.4815 7.47931 50.3455C7.52731 50.2175 7.55131 50.0095 7.55131 49.7215C7.55131 49.6975 7.57531 49.6855 7.62331 49.6855C7.67131 49.6855 7.69531 49.6975 7.69531 49.7215V54.6175C7.69531 54.6975 7.65931 54.7375 7.58731 54.7375L6.07531 54.7615C6.05131 54.7615 6.03531 54.7375 6.02731 54.6895C6.02731 54.6495 6.03931 54.6255 6.06331 54.6175C6.50331 54.5615 6.83931 54.4055 7.07131 54.1495C7.30331 53.8935 7.41931 53.5575 7.41931 53.1415V52.5295C7.41931 52.1775 7.36731 51.9415 7.26331 51.8215C7.15931 51.7015 6.96331 51.6415 6.67531 51.6415H1.21531C0.927312 51.6415 0.731313 51.6935 0.627313 51.7975C0.523313 51.9095 0.471313 52.1295 0.471313 52.4575V53.2495C0.471313 53.6975 0.603312 54.0695 0.867312 54.3655C1.13931 54.6695 1.52331 54.8775 2.01931 54.9895C2.03531 54.9895 2.04331 55.0055 2.04331 55.0375C2.04331 55.0615 2.03531 55.0815 2.01931 55.0975C2.01131 55.1215 2.00331 55.1335 1.99531 55.1335C1.41931 55.0535 0.879312 55.0135 0.375312 55.0135C0.311312 55.0135 0.263312 55.0015 0.231312 54.9775C0.207312 54.9535 0.195312 54.9055 0.195312 54.8335V49.7215ZM2.95531 54.1615C3.29931 54.1615 3.55131 54.0615 3.71131 53.8615C3.87931 53.6695 3.96331 53.3615 3.96331 52.9375V51.1855H4.23931V52.9615C4.23931 53.3695 4.30731 53.6695 4.44331 53.8615C4.58731 54.0535 4.80731 54.1495 5.10331 54.1495C5.11931 54.1495 5.12731 54.1695 5.12731 54.2095C5.12731 54.2575 5.11931 54.2815 5.10331 54.2815L4.09531 54.2695L3.55531 54.2815C3.29931 54.2975 3.09931 54.3055 2.95531 54.3055C2.93931 54.3055 2.93131 54.2815 2.93131 54.2335C2.93131 54.1855 2.93931 54.1615 2.95531 54.1615Z" fill="#421D12"/>
<path d="M1.16731 46.482C0.919313 46.482 0.739313 46.502 0.627313 46.542C0.515313 46.59 0.439313 46.678 0.399312 46.806C0.359312 46.942 0.339313 47.158 0.339313 47.454C0.339313 47.47 0.315313 47.478 0.267313 47.478C0.219313 47.478 0.195312 47.47 0.195312 47.454C0.195312 47.198 0.199313 46.998 0.207313 46.854L0.219313 45.99L0.207313 45.15C0.199313 44.998 0.195312 44.79 0.195312 44.526C0.195312 44.51 0.219313 44.502 0.267313 44.502C0.315313 44.502 0.339313 44.51 0.339313 44.526C0.339313 44.814 0.359312 45.026 0.399312 45.162C0.439313 45.298 0.515313 45.39 0.627313 45.438C0.747313 45.494 0.927313 45.522 1.16731 45.522H6.72331C6.96331 45.522 7.13931 45.494 7.25131 45.438C7.36331 45.39 7.43931 45.298 7.47931 45.162C7.52731 45.026 7.55131 44.814 7.55131 44.526C7.55131 44.51 7.57531 44.502 7.62331 44.502C7.67131 44.502 7.69531 44.51 7.69531 44.526L7.68331 45.15C7.66731 45.502 7.65931 45.782 7.65931 45.99C7.65931 46.222 7.66731 46.514 7.68331 46.866L7.69531 47.454C7.69531 47.47 7.67131 47.478 7.62331 47.478C7.57531 47.478 7.55131 47.47 7.55131 47.454C7.55131 47.166 7.52731 46.954 7.47931 46.818C7.43131 46.69 7.34731 46.602 7.22731 46.554C7.11531 46.506 6.93931 46.482 6.69931 46.482H1.16731Z" fill="#421D12"/>
<path d="M6.35212 38.6457C6.04812 38.6457 5.78012 38.7217 5.54812 38.8737C5.32412 39.0257 5.12812 39.2097 4.96012 39.4257C4.80012 39.6417 4.60412 39.9417 4.37212 40.3257C4.12412 40.7257 3.90812 41.0417 3.72412 41.2737C3.54812 41.5137 3.32812 41.7177 3.06412 41.8857C2.80012 42.0537 2.48812 42.1377 2.12812 42.1377C1.73612 42.1377 1.38012 42.0337 1.06012 41.8257C0.748124 41.6257 0.500124 41.3337 0.316124 40.9497C0.140124 40.5737 0.0521245 40.1337 0.0521245 39.6297C0.0521245 39.3097 0.0921244 38.9937 0.172124 38.6817C0.244124 38.3697 0.352125 38.0977 0.496125 37.8657C0.520125 37.8257 0.548124 37.7977 0.580124 37.7817C0.612124 37.7657 0.660124 37.7577 0.724124 37.7577L2.44012 37.6377C2.47212 37.6297 2.49212 37.6457 2.50012 37.6857C2.50812 37.7337 2.49612 37.7617 2.46412 37.7697C1.85612 37.9617 1.34012 38.2297 0.916125 38.5737C0.492125 38.9177 0.280125 39.3657 0.280125 39.9177C0.280125 40.2937 0.380124 40.6097 0.580124 40.8657C0.788124 41.1217 1.12412 41.2497 1.58812 41.2497C1.94012 41.2497 2.24812 41.1697 2.51212 41.0097C2.77612 40.8497 2.99612 40.6537 3.17212 40.4217C3.35612 40.1897 3.56413 39.8817 3.79612 39.4977C4.03612 39.1217 4.24012 38.8217 4.40812 38.5977C4.58412 38.3817 4.79612 38.1977 5.04412 38.0457C5.30012 37.8937 5.59612 37.8177 5.93212 37.8177C6.34012 37.8177 6.68812 37.9257 6.97612 38.1417C7.26412 38.3657 7.47612 38.6537 7.61212 39.0057C7.75612 39.3657 7.82812 39.7417 7.82812 40.1337C7.82812 40.6617 7.73612 41.1457 7.55212 41.5857C7.49612 41.7057 7.42412 41.7657 7.33612 41.7657L5.83612 41.8257C5.80412 41.8257 5.78412 41.8017 5.77612 41.7537C5.77612 41.7137 5.79212 41.6897 5.82412 41.6817C6.25612 41.5937 6.66412 41.4057 7.04813 41.1177C7.43212 40.8377 7.62412 40.4337 7.62412 39.9057C7.62412 39.5057 7.50412 39.1937 7.26413 38.9697C7.02412 38.7537 6.72012 38.6457 6.35212 38.6457Z" fill="#421D12"/>
<path d="M6.35212 31.4573C6.04812 31.4573 5.78012 31.5333 5.54812 31.6853C5.32412 31.8373 5.12812 32.0213 4.96012 32.2373C4.80012 32.4533 4.60412 32.7533 4.37212 33.1373C4.12412 33.5373 3.90812 33.8533 3.72412 34.0853C3.54812 34.3253 3.32812 34.5293 3.06412 34.6973C2.80012 34.8653 2.48812 34.9493 2.12812 34.9493C1.73612 34.9493 1.38012 34.8453 1.06012 34.6373C0.748124 34.4373 0.500124 34.1453 0.316124 33.7613C0.140124 33.3853 0.0521245 32.9453 0.0521245 32.4413C0.0521245 32.1213 0.0921244 31.8053 0.172124 31.4933C0.244124 31.1813 0.352125 30.9093 0.496125 30.6773C0.520125 30.6373 0.548124 30.6093 0.580124 30.5933C0.612124 30.5773 0.660124 30.5693 0.724124 30.5693L2.44012 30.4493C2.47212 30.4413 2.49212 30.4573 2.50012 30.4973C2.50812 30.5453 2.49612 30.5733 2.46412 30.5813C1.85612 30.7733 1.34012 31.0413 0.916125 31.3853C0.492125 31.7293 0.280125 32.1773 0.280125 32.7293C0.280125 33.1053 0.380124 33.4213 0.580124 33.6773C0.788124 33.9333 1.12412 34.0613 1.58812 34.0613C1.94012 34.0613 2.24812 33.9813 2.51212 33.8213C2.77612 33.6613 2.99612 33.4653 3.17212 33.2333C3.35612 33.0013 3.56413 32.6933 3.79612 32.3093C4.03612 31.9333 4.24012 31.6333 4.40812 31.4093C4.58412 31.1933 4.79612 31.0093 5.04412 30.8573C5.30012 30.7053 5.59612 30.6293 5.93212 30.6293C6.34012 30.6293 6.68812 30.7373 6.97612 30.9533C7.26412 31.1773 7.47612 31.4653 7.61212 31.8173C7.75612 32.1773 7.82812 32.5533 7.82812 32.9453C7.82812 33.4733 7.73612 33.9573 7.55212 34.3973C7.49612 34.5173 7.42412 34.5773 7.33612 34.5773L5.83612 34.6373C5.80412 34.6373 5.78412 34.6133 5.77612 34.5653C5.77612 34.5253 5.79212 34.5013 5.82412 34.4933C6.25612 34.4053 6.66412 34.2173 7.04813 33.9293C7.43212 33.6493 7.62412 33.2453 7.62412 32.7173C7.62412 32.3173 7.50412 32.0053 7.26413 31.7813C7.02412 31.5653 6.72012 31.4573 6.35212 31.4573Z" fill="#421D12"/>
<path d="M1.16731 26.8862C0.919313 26.8862 0.739313 26.9062 0.627313 26.9462C0.515313 26.9942 0.439313 27.0822 0.399312 27.2102C0.359312 27.3462 0.339313 27.5622 0.339313 27.8582C0.339313 27.8742 0.315313 27.8822 0.267313 27.8822C0.219313 27.8822 0.195312 27.8742 0.195312 27.8582C0.195312 27.6022 0.199313 27.4022 0.207313 27.2582L0.219313 26.3942L0.207313 25.5542C0.199313 25.4022 0.195312 25.1943 0.195312 24.9303C0.195312 24.9143 0.219313 24.9062 0.267313 24.9062C0.315313 24.9062 0.339313 24.9143 0.339313 24.9303C0.339313 25.2183 0.359312 25.4302 0.399312 25.5662C0.439313 25.7022 0.515313 25.7942 0.627313 25.8422C0.747313 25.8982 0.927313 25.9262 1.16731 25.9262H6.72331C6.96331 25.9262 7.13931 25.8982 7.25131 25.8422C7.36331 25.7942 7.43931 25.7022 7.47931 25.5662C7.52731 25.4302 7.55131 25.2183 7.55131 24.9303C7.55131 24.9143 7.57531 24.9062 7.62331 24.9062C7.67131 24.9062 7.69531 24.9143 7.69531 24.9303L7.68331 25.5542C7.66731 25.9062 7.65931 26.1862 7.65931 26.3942C7.65931 26.6262 7.66731 26.9182 7.68331 27.2702L7.69531 27.8582C7.69531 27.8742 7.67131 27.8822 7.62331 27.8822C7.57531 27.8822 7.55131 27.8742 7.55131 27.8582C7.55131 27.5702 7.52731 27.3583 7.47931 27.2222C7.43131 27.0942 7.34731 27.0063 7.22731 26.9583C7.11531 26.9102 6.93931 26.8862 6.69931 26.8862H1.16731Z" fill="#421D12"/>
<path d="M7.45497 17.9374C7.45497 17.4414 7.31497 17.0534 7.03497 16.7734C6.76297 16.4934 6.32297 16.2854 5.71497 16.1494C5.69897 16.1414 5.69097 16.1134 5.69097 16.0654C5.69097 16.0254 5.70297 16.0054 5.72697 16.0054C5.95097 16.0374 6.31497 16.0734 6.81897 16.1134C7.32297 16.1534 7.70297 16.1734 7.95897 16.1734C7.99897 16.1734 8.01897 16.1974 8.01897 16.2454C8.01897 16.2934 7.99897 16.3174 7.95897 16.3174C7.78297 16.3174 7.69497 16.5374 7.69497 16.9774C7.67097 17.6654 7.65897 18.4694 7.65897 19.3894C7.65897 19.8614 7.66697 20.3614 7.68297 20.8894L7.69497 21.7054C7.69497 22.0014 7.71497 22.2174 7.75497 22.3534C7.79497 22.4894 7.87497 22.5774 7.99497 22.6174C8.02697 22.6254 8.04297 22.6494 8.04297 22.6894C8.04297 22.7374 8.02697 22.7614 7.99497 22.7614C7.77097 22.7374 7.41097 22.7094 6.91497 22.6774C6.41897 22.6534 6.02297 22.6414 5.72697 22.6414C5.70297 22.6414 5.69097 22.6174 5.69097 22.5694C5.69097 22.5294 5.70297 22.5094 5.72697 22.5094C6.34297 22.4534 6.78297 22.2934 7.04697 22.0294C7.31897 21.7654 7.45497 21.3734 7.45497 20.8534C7.45497 20.5574 7.43497 20.3454 7.39497 20.2174C7.36297 20.0894 7.29497 20.0014 7.19097 19.9534C7.09497 19.9054 6.93097 19.8814 6.69897 19.8814H1.16697C0.918968 19.8814 0.738968 19.9054 0.626968 19.9534C0.514968 20.0094 0.438968 20.1134 0.398968 20.2654C0.358968 20.4174 0.338968 20.6614 0.338968 20.9974C0.338968 21.0134 0.314968 21.0214 0.266968 21.0214C0.218968 21.0214 0.194968 21.0134 0.194968 20.9974C0.194968 20.7174 0.198968 20.4974 0.206968 20.3374L0.218968 19.3894L0.206968 18.4654C0.198968 18.3054 0.194968 18.0814 0.194968 17.7934C0.194968 17.7694 0.218968 17.7574 0.266968 17.7574C0.314968 17.7574 0.338968 17.7694 0.338968 17.7934C0.338968 18.1214 0.358968 18.3614 0.398968 18.5134C0.438968 18.6734 0.514968 18.7814 0.626968 18.8374C0.746968 18.8934 0.926968 18.9214 1.16697 18.9214H6.72297C6.94697 18.9214 7.10697 18.8974 7.20297 18.8494C7.30697 18.8014 7.37497 18.7094 7.40697 18.5734C7.43897 18.4454 7.45497 18.2334 7.45497 17.9374Z" fill="#421D12"/>
<path d="M4.32266 9.48016V11.9522L4.04666 12.0362V9.30016L4.32266 9.48016ZM0.338655 15.1682C0.338655 15.2082 0.314656 15.2282 0.266656 15.2282C0.218656 15.2282 0.194656 15.2082 0.194656 15.1682C0.194656 15.0162 0.202657 14.7802 0.218657 14.4602C0.234657 14.1242 0.242656 13.8842 0.242656 13.7402C0.242656 13.5562 0.234657 13.3282 0.218657 13.0562C0.202657 12.7842 0.194656 12.5802 0.194656 12.4442C0.194656 12.4122 0.218656 12.3962 0.266656 12.3962C0.314656 12.3962 0.338655 12.4122 0.338655 12.4442C0.338655 12.7162 0.362656 12.9122 0.410656 13.0322C0.466656 13.1522 0.562656 13.2122 0.698656 13.2122C0.834656 13.2122 1.02266 13.1522 1.26266 13.0322L6.62666 10.4522L7.20266 10.8362L1.77866 8.49616C1.50666 8.38416 1.28266 8.32816 1.10666 8.32816C0.850656 8.32816 0.658656 8.42816 0.530656 8.62816C0.402656 8.82816 0.338655 9.11616 0.338655 9.49216C0.338655 9.53216 0.314656 9.55216 0.266656 9.55216C0.218656 9.55216 0.194656 9.53216 0.194656 9.49216C0.194656 9.34816 0.202657 9.14016 0.218657 8.86816C0.234657 8.56416 0.242656 8.30016 0.242656 8.07616C0.242656 7.86816 0.234657 7.62016 0.218657 7.33216C0.202657 7.07616 0.194656 6.86816 0.194656 6.70816C0.194656 6.67616 0.218656 6.66016 0.266656 6.66016C0.314656 6.66016 0.338655 6.67616 0.338655 6.70816C0.338655 6.93216 0.382655 7.12016 0.470655 7.27216C0.558655 7.43216 0.710656 7.58416 0.926656 7.72816C1.14266 7.87216 1.46266 8.03616 1.88666 8.22016L7.77866 10.7762C7.80266 10.7842 7.81466 10.8122 7.81466 10.8602C7.82266 10.9082 7.81066 10.9362 7.77866 10.9442L1.83866 13.8242C1.25466 14.1042 0.858656 14.3362 0.650656 14.5202C0.442656 14.7122 0.338655 14.9282 0.338655 15.1682ZM9.66266 10.7162C9.70266 10.7562 9.72266 10.8042 9.72266 10.8602C9.72266 10.9082 9.70266 10.9522 9.66266 10.9922L8.43866 12.2162C8.43866 12.2242 8.43066 12.2282 8.41466 12.2282C8.39866 12.2282 8.38266 12.2162 8.36666 12.1922C8.35066 12.1762 8.34666 12.1642 8.35466 12.1562L8.96666 10.8602L8.35466 9.55216C8.34666 9.53616 8.35466 9.51616 8.37866 9.49216C8.41066 9.46816 8.43066 9.46416 8.43866 9.48016L9.66266 10.7162Z" fill="#421D12"/>
<path d="M1.21447 1.956C0.958468 1.956 0.770468 1.988 0.650468 2.052C0.538468 2.116 0.458469 2.236 0.410469 2.412C0.362469 2.596 0.338469 2.888 0.338469 3.288C0.338469 3.312 0.314469 3.324 0.266469 3.324C0.218469 3.324 0.194468 3.312 0.194468 3.288C0.194468 2.96 0.198469 2.704 0.206469 2.52L0.218469 1.476L0.206469 0.648C0.198469 0.496 0.194468 0.292 0.194468 0.036C0.194468 0.012 0.218469 0 0.266469 0C0.314469 0 0.338469 0.012 0.338469 0.036C0.338469 0.324 0.358468 0.532 0.398468 0.66C0.438469 0.788 0.514469 0.876 0.626469 0.924C0.746469 0.972 0.926469 0.996 1.16647 0.996H6.72247C6.96247 0.996 7.13847 0.972 7.25047 0.924C7.36247 0.876 7.43847 0.784 7.47847 0.648C7.52647 0.52 7.55047 0.316 7.55047 0.036C7.55047 0.012 7.57447 0 7.62247 0C7.67047 0 7.69447 0.012 7.69447 0.036L7.68247 0.636C7.66647 0.988 7.65847 1.264 7.65847 1.464C7.65847 1.656 7.67047 1.884 7.69447 2.148C7.69447 2.244 7.69847 2.392 7.70647 2.592C7.72247 2.8 7.73047 2.98 7.73047 3.132C7.73047 3.884 7.56247 4.488 7.22647 4.944C6.89847 5.4 6.39847 5.628 5.72647 5.628C5.20647 5.628 4.76647 5.496 4.40647 5.232C4.04647 4.976 3.77847 4.644 3.60247 4.236C3.42647 3.836 3.33847 3.42 3.33847 2.988C3.33847 2.756 3.35847 2.564 3.39847 2.412C3.39847 2.388 3.41847 2.376 3.45847 2.376C3.48247 2.376 3.50647 2.38 3.53047 2.388C3.55447 2.404 3.56247 2.42 3.55447 2.436C3.52247 2.564 3.50647 2.704 3.50647 2.856C3.50647 3.336 3.67847 3.74 4.02247 4.068C4.36647 4.396 4.86247 4.56 5.51047 4.56C6.14247 4.56 6.63447 4.4 6.98647 4.08C7.34647 3.76 7.52647 3.336 7.52647 2.808C7.52647 2.56 7.50647 2.38 7.46647 2.268C7.43447 2.156 7.35847 2.076 7.23847 2.028C7.12647 1.98 6.94647 1.956 6.69847 1.956H1.21447Z" fill="#421D12"/>
</svg>
