<svg width="10" height="183" viewBox="0 0 10 183" fill="none" xmlns="http://www.w3.org/2000/svg">
<path d="M0.0762501 182.053C0.0762501 181.847 0.136917 181.679 0.25825 181.549C0.388917 181.427 0.556917 181.367 0.76225 181.367C0.95825 181.367 1.11225 181.427 1.22425 181.549C1.34558 181.679 1.40625 181.847 1.40625 182.053C1.40625 182.267 1.34558 182.431 1.22425 182.543C1.11225 182.664 0.95825 182.725 0.76225 182.725C0.547583 182.725 0.379584 182.664 0.25825 182.543C0.136917 182.431 0.0762501 182.267 0.0762501 182.053Z" fill="#421D12"/>
<path d="M0.244469 172.752C0.207135 172.742 0.188469 172.691 0.188469 172.598C0.188469 172.504 0.207135 172.453 0.244469 172.444L7.81847 168.93C8.21047 168.752 8.4718 168.584 8.60247 168.426C8.74247 168.276 8.81247 168.062 8.81247 167.782C8.81247 167.754 8.84047 167.74 8.89647 167.74C8.95247 167.74 8.98047 167.754 8.98047 167.782L8.96647 168.216C8.9478 168.458 8.93847 168.687 8.93847 168.902C8.93847 169.322 8.9478 169.737 8.96647 170.148C8.9758 170.278 8.98047 170.456 8.98047 170.68C8.98047 170.708 8.95247 170.722 8.89647 170.722C8.84047 170.722 8.81247 170.708 8.81247 170.68C8.81247 170.409 8.78447 170.213 8.72847 170.092C8.67247 169.97 8.56514 169.91 8.40647 169.91C8.2758 169.91 8.0658 169.975 7.77647 170.106L1.43447 173.074L0.664469 172.542L5.14447 174.306L4.82247 174.53L0.244469 172.752ZM8.98047 180.774C8.98047 180.802 8.95247 180.816 8.89647 180.816C8.84047 180.816 8.81247 180.802 8.81247 180.774C8.81247 180.111 8.3878 179.607 7.53847 179.262L0.244469 176.406C0.207135 176.396 0.188469 176.345 0.188469 176.252C0.188469 176.158 0.207135 176.107 0.244469 176.098L7.81847 172.584C8.1638 172.425 8.4158 172.262 8.57447 172.094C8.73314 171.935 8.81247 171.739 8.81247 171.506C8.81247 171.478 8.84047 171.464 8.89647 171.464C8.95247 171.464 8.98047 171.478 8.98047 171.506L8.96647 171.94C8.9478 172.164 8.93847 172.369 8.93847 172.556C8.93847 172.91 8.9478 173.237 8.96647 173.536C8.9758 173.629 8.98047 173.755 8.98047 173.914C8.98047 173.942 8.95247 173.956 8.89647 173.956C8.84047 173.956 8.81247 173.942 8.81247 173.914C8.81247 173.755 8.7938 173.638 8.75647 173.564C8.72847 173.498 8.67247 173.466 8.58847 173.466C8.4578 173.466 8.18714 173.564 7.77647 173.76L1.43447 176.728L0.664469 176.196L7.53847 178.898C7.76247 178.982 7.9538 179.024 8.11247 179.024C8.33647 179.024 8.50914 178.94 8.63047 178.772C8.7518 178.613 8.81247 178.375 8.81247 178.058C8.81247 178.03 8.84047 178.016 8.89647 178.016C8.95247 178.016 8.98047 178.03 8.98047 178.058L8.96647 178.66C8.9478 178.977 8.93847 179.266 8.93847 179.528C8.93847 179.724 8.9478 179.943 8.96647 180.186L8.98047 180.774ZM7.60847 175.342C7.94447 175.472 8.20114 175.538 8.37847 175.538C8.6678 175.538 8.81247 175.365 8.81247 175.02C8.81247 175.001 8.84047 174.992 8.89647 174.992C8.95247 174.992 8.98047 175.001 8.98047 175.02L8.96647 175.3C8.9478 175.486 8.93847 175.701 8.93847 175.944C8.93847 176.112 8.9478 176.317 8.96647 176.56L8.98047 177.12C8.98047 177.138 8.95247 177.148 8.89647 177.148C8.84047 177.148 8.81247 177.138 8.81247 177.12C8.81247 176.802 8.71447 176.527 8.51847 176.294C8.32247 176.06 7.9958 175.855 7.53847 175.678L4.82247 174.6L5.14447 174.376L7.60847 175.342Z" fill="#421D12"/>
<path d="M0.230469 159.382C0.230469 159.354 0.258468 159.34 0.314468 159.34C0.370468 159.34 0.398469 159.354 0.398469 159.382C0.398469 159.718 0.421802 159.961 0.468469 160.11C0.515135 160.269 0.603802 160.376 0.734468 160.432C0.874468 160.488 1.08447 160.516 1.36447 160.516H7.84647C8.12647 160.516 8.3318 160.488 8.46247 160.432C8.59314 160.376 8.6818 160.269 8.72847 160.11C8.78447 159.961 8.81247 159.718 8.81247 159.382C8.81247 159.354 8.84047 159.34 8.89647 159.34C8.95247 159.34 8.98047 159.354 8.98047 159.382V165.094C8.98047 165.187 8.93847 165.234 8.85447 165.234L7.09047 165.262C7.06247 165.262 7.0438 165.234 7.03447 165.178C7.03447 165.131 7.04847 165.103 7.07647 165.094C7.5898 165.029 7.9818 164.847 8.25247 164.548C8.52314 164.249 8.65847 163.857 8.65847 163.372V162.658C8.65847 162.247 8.5978 161.972 8.47647 161.832C8.35514 161.692 8.12647 161.622 7.79047 161.622H1.42047C1.08447 161.622 0.855802 161.683 0.734468 161.804C0.613135 161.935 0.552469 162.191 0.552469 162.574V163.498C0.552469 164.021 0.706469 164.455 1.01447 164.8C1.3318 165.155 1.7798 165.397 2.35847 165.528C2.37714 165.528 2.38647 165.547 2.38647 165.584C2.38647 165.612 2.37714 165.635 2.35847 165.654C2.34914 165.682 2.3398 165.696 2.33047 165.696C1.65847 165.603 1.02847 165.556 0.440469 165.556C0.365802 165.556 0.309802 165.542 0.272469 165.514C0.244469 165.486 0.230469 165.43 0.230469 165.346V159.382ZM3.45047 164.562C3.8518 164.562 4.1458 164.445 4.33247 164.212C4.52847 163.988 4.62647 163.629 4.62647 163.134V161.09H4.94847V163.162C4.94847 163.638 5.0278 163.988 5.18647 164.212C5.35447 164.436 5.61114 164.548 5.95647 164.548C5.97514 164.548 5.98447 164.571 5.98447 164.618C5.98447 164.674 5.97514 164.702 5.95647 164.702L4.78047 164.688L4.15047 164.702C3.8518 164.721 3.61847 164.73 3.45047 164.73C3.4318 164.73 3.42247 164.702 3.42247 164.646C3.42247 164.59 3.4318 164.562 3.45047 164.562Z" fill="#421D12"/>
<path d="M1.36447 155.602C1.07514 155.602 0.865135 155.626 0.734468 155.672C0.603802 155.728 0.515135 155.831 0.468469 155.98C0.421802 156.139 0.398469 156.391 0.398469 156.736C0.398469 156.755 0.370468 156.764 0.314468 156.764C0.258468 156.764 0.230469 156.755 0.230469 156.736C0.230469 156.438 0.235135 156.204 0.244469 156.036L0.258469 155.028L0.244469 154.048C0.235135 153.871 0.230469 153.628 0.230469 153.32C0.230469 153.302 0.258468 153.292 0.314468 153.292C0.370468 153.292 0.398469 153.302 0.398469 153.32C0.398469 153.656 0.421802 153.904 0.468469 154.062C0.515135 154.221 0.603802 154.328 0.734468 154.384C0.874468 154.45 1.08447 154.482 1.36447 154.482H7.84647C8.12647 154.482 8.3318 154.45 8.46247 154.384C8.59314 154.328 8.6818 154.221 8.72847 154.062C8.78447 153.904 8.81247 153.656 8.81247 153.32C8.81247 153.302 8.84047 153.292 8.89647 153.292C8.95247 153.292 8.98047 153.302 8.98047 153.32L8.96647 154.048C8.9478 154.459 8.93847 154.786 8.93847 155.028C8.93847 155.299 8.9478 155.64 8.96647 156.05L8.98047 156.736C8.98047 156.755 8.95247 156.764 8.89647 156.764C8.84047 156.764 8.81247 156.755 8.81247 156.736C8.81247 156.4 8.78447 156.153 8.72847 155.994C8.67247 155.845 8.57447 155.742 8.43447 155.686C8.3038 155.63 8.09847 155.602 7.81847 155.602H1.36447Z" fill="#421D12"/>
<path d="M8.98047 151.346C8.98047 151.374 8.95247 151.388 8.89647 151.388C8.84047 151.388 8.81247 151.374 8.81247 151.346C8.81247 150.674 8.3878 150.17 7.53847 149.834L0.244469 146.978C0.207135 146.968 0.188469 146.917 0.188469 146.824C0.188469 146.73 0.207135 146.679 0.244469 146.67L7.81847 143.156C8.17314 142.988 8.42514 142.815 8.57447 142.638C8.73314 142.47 8.81247 142.26 8.81247 142.008C8.81247 141.98 8.84047 141.966 8.89647 141.966C8.95247 141.966 8.98047 141.98 8.98047 142.008L8.96647 142.442C8.9478 142.684 8.93847 142.913 8.93847 143.128C8.93847 143.632 8.9478 144.117 8.96647 144.584C8.9758 144.733 8.98047 144.924 8.98047 145.158C8.98047 145.186 8.95247 145.2 8.89647 145.2C8.84047 145.2 8.81247 145.186 8.81247 145.158C8.81247 144.579 8.63514 144.29 8.28047 144.29C8.13114 144.29 7.96314 144.336 7.77647 144.43L1.53247 147.3L0.720469 146.796L7.60847 149.498C7.8138 149.572 7.98647 149.61 8.12647 149.61C8.5838 149.61 8.81247 149.255 8.81247 148.546C8.81247 148.518 8.84047 148.504 8.89647 148.504C8.95247 148.504 8.98047 148.518 8.98047 148.546L8.96647 149.176C8.9478 149.53 8.93847 149.838 8.93847 150.1C8.93847 150.296 8.9478 150.515 8.96647 150.758L8.98047 151.346Z" fill="#421D12"/>
<path d="M0.231438 139.707C0.231438 139.474 0.637438 139.044 1.44944 138.419C2.26144 137.794 3.39544 137.028 4.85144 136.123L5.15944 137.061C3.9461 137.854 2.99877 138.517 2.31744 139.049C1.64544 139.59 1.15544 140.071 0.847437 140.491C0.54877 140.911 0.399437 141.317 0.399437 141.709C0.399437 141.737 0.371437 141.751 0.315437 141.751C0.259437 141.751 0.231438 141.737 0.231438 141.709V139.707ZM9.02344 136.081C9.02344 136.874 8.86477 137.486 8.54744 137.915C8.23944 138.344 7.8101 138.559 7.25944 138.559C6.8021 138.559 6.37277 138.419 5.97144 138.139C5.5701 137.868 5.2481 137.504 5.00544 137.047C4.76277 136.59 4.64144 136.104 4.64144 135.591C4.64144 135.395 4.65077 135.166 4.66944 134.905H1.36544C1.08544 134.905 0.875437 134.933 0.735437 134.989C0.604771 135.045 0.516103 135.148 0.469437 135.297C0.42277 135.456 0.399437 135.703 0.399437 136.039C0.399437 136.067 0.371437 136.081 0.315437 136.081C0.259437 136.081 0.231438 136.067 0.231438 136.039C0.231438 135.75 0.236104 135.521 0.245438 135.353L0.259438 134.345L0.245438 133.365C0.236104 133.188 0.231438 132.95 0.231438 132.651C0.231438 132.623 0.259437 132.609 0.315437 132.609C0.371437 132.609 0.399437 132.623 0.399437 132.651C0.399437 132.987 0.42277 133.234 0.469437 133.393C0.516103 133.552 0.604771 133.659 0.735437 133.715C0.875437 133.771 1.08544 133.799 1.36544 133.799H7.84744C8.12744 133.799 8.33277 133.771 8.46344 133.715C8.5941 133.659 8.68277 133.552 8.72944 133.393C8.78544 133.244 8.81344 133.001 8.81344 132.665C8.81344 132.646 8.84144 132.637 8.89744 132.637C8.95344 132.637 8.98144 132.646 8.98144 132.665L8.96744 133.365C8.94877 133.776 8.93944 134.102 8.93944 134.345C8.93944 134.513 8.9441 134.672 8.95344 134.821C8.96277 134.97 8.9721 135.101 8.98144 135.213C9.00944 135.521 9.02344 135.81 9.02344 136.081ZM6.75544 137.397C7.49277 137.397 8.01544 137.257 8.32344 136.977C8.63144 136.697 8.78544 136.31 8.78544 135.815C8.78544 135.572 8.7621 135.386 8.71544 135.255C8.66877 135.134 8.57544 135.045 8.43544 134.989C8.30477 134.933 8.09944 134.905 7.81944 134.905H5.03344C4.9961 135.26 4.97744 135.535 4.97744 135.731C4.97744 136.328 5.1081 136.753 5.36944 137.005C5.6401 137.266 6.1021 137.397 6.75544 137.397Z" fill="#421D12"/>
<path d="M0.230469 123.663C0.230469 123.635 0.258468 123.621 0.314468 123.621C0.370468 123.621 0.398469 123.635 0.398469 123.663C0.398469 123.999 0.421802 124.241 0.468469 124.391C0.515135 124.549 0.603802 124.657 0.734468 124.713C0.874468 124.769 1.08447 124.797 1.36447 124.797H7.84647C8.12647 124.797 8.3318 124.769 8.46247 124.713C8.59314 124.657 8.6818 124.549 8.72847 124.391C8.78447 124.241 8.81247 123.999 8.81247 123.663C8.81247 123.635 8.84047 123.621 8.89647 123.621C8.95247 123.621 8.98047 123.635 8.98047 123.663V129.375C8.98047 129.468 8.93847 129.515 8.85447 129.515L7.09047 129.543C7.06247 129.543 7.0438 129.515 7.03447 129.459C7.03447 129.412 7.04847 129.384 7.07647 129.375C7.5898 129.309 7.9818 129.127 8.25247 128.829C8.52314 128.53 8.65847 128.138 8.65847 127.653V126.939C8.65847 126.528 8.5978 126.253 8.47647 126.113C8.35514 125.973 8.12647 125.903 7.79047 125.903H1.42047C1.08447 125.903 0.855802 125.963 0.734468 126.085C0.613135 126.215 0.552469 126.472 0.552469 126.855V127.779C0.552469 128.301 0.706469 128.735 1.01447 129.081C1.3318 129.435 1.7798 129.678 2.35847 129.809C2.37714 129.809 2.38647 129.827 2.38647 129.865C2.38647 129.893 2.37714 129.916 2.35847 129.935C2.34914 129.963 2.3398 129.977 2.33047 129.977C1.65847 129.883 1.02847 129.837 0.440469 129.837C0.365802 129.837 0.309802 129.823 0.272469 129.795C0.244469 129.767 0.230469 129.711 0.230469 129.627V123.663ZM3.45047 128.843C3.8518 128.843 4.1458 128.726 4.33247 128.493C4.52847 128.269 4.62647 127.909 4.62647 127.415V125.371H4.94847V127.443C4.94847 127.919 5.0278 128.269 5.18647 128.493C5.35447 128.717 5.61114 128.829 5.95647 128.829C5.97514 128.829 5.98447 128.852 5.98447 128.899C5.98447 128.955 5.97514 128.983 5.95647 128.983L4.78047 128.969L4.15047 128.983C3.8518 129.001 3.61847 129.011 3.45047 129.011C3.4318 129.011 3.42247 128.983 3.42247 128.927C3.42247 128.871 3.4318 128.843 3.45047 128.843Z" fill="#421D12"/>
<path d="M8.70072 115.533C8.70072 114.954 8.53738 114.501 8.21072 114.175C7.89338 113.848 7.38005 113.605 6.67072 113.447C6.65205 113.437 6.64272 113.405 6.64272 113.349C6.64272 113.302 6.65672 113.279 6.68472 113.279C6.94605 113.316 7.37072 113.358 7.95872 113.405C8.54672 113.451 8.99005 113.475 9.28872 113.475C9.33538 113.475 9.35872 113.503 9.35872 113.559C9.35872 113.615 9.33538 113.643 9.28872 113.643C9.08338 113.643 8.98072 113.899 8.98072 114.413C8.95272 115.215 8.93872 116.153 8.93872 117.227C8.93872 117.777 8.94805 118.361 8.96672 118.977L8.98072 119.929C8.98072 120.274 9.00405 120.526 9.05072 120.685C9.09739 120.843 9.19072 120.946 9.33072 120.993C9.36805 121.002 9.38672 121.03 9.38672 121.077C9.38672 121.133 9.36805 121.161 9.33072 121.161C9.06939 121.133 8.64939 121.1 8.07072 121.063C7.49205 121.035 7.03005 121.021 6.68472 121.021C6.65672 121.021 6.64272 120.993 6.64272 120.937C6.64272 120.89 6.65672 120.867 6.68472 120.867C7.40339 120.801 7.91672 120.615 8.22472 120.307C8.54205 119.999 8.70072 119.541 8.70072 118.935C8.70072 118.589 8.67739 118.342 8.63072 118.193C8.59339 118.043 8.51405 117.941 8.39272 117.885C8.28072 117.829 8.08939 117.801 7.81872 117.801H1.36472C1.07538 117.801 0.865385 117.829 0.734718 117.885C0.604052 117.95 0.515384 118.071 0.468718 118.249C0.422051 118.426 0.398718 118.711 0.398718 119.103C0.398718 119.121 0.370718 119.131 0.314718 119.131C0.258718 119.131 0.230719 119.121 0.230719 119.103C0.230719 118.776 0.235385 118.519 0.244719 118.333L0.258718 117.227L0.244719 116.149C0.235385 115.962 0.230719 115.701 0.230719 115.365C0.230719 115.337 0.258718 115.323 0.314718 115.323C0.370718 115.323 0.398718 115.337 0.398718 115.365C0.398718 115.747 0.422051 116.027 0.468718 116.205C0.515384 116.391 0.604052 116.517 0.734718 116.583C0.874718 116.648 1.08472 116.681 1.36472 116.681H7.84672C8.10805 116.681 8.29472 116.653 8.40672 116.597C8.52805 116.541 8.60738 116.433 8.64472 116.275C8.68205 116.125 8.70072 115.878 8.70072 115.533Z" fill="#421D12"/>
<path d="M8.65847 102.828L8.63047 103.192H1.82647C1.34114 103.192 0.981802 103.281 0.748468 103.458C0.515135 103.645 0.398469 103.925 0.398469 104.298C0.398469 104.317 0.370468 104.326 0.314468 104.326C0.258468 104.326 0.230469 104.317 0.230469 104.298C0.230469 104.055 0.235135 103.869 0.244469 103.738L0.258469 103.024L0.244469 102.268C0.235135 102.128 0.230469 101.923 0.230469 101.652C0.230469 101.633 0.258468 101.624 0.314468 101.624C0.370468 101.624 0.398469 101.633 0.398469 101.652C0.398469 102.053 0.515135 102.347 0.748468 102.534C0.981802 102.73 1.34114 102.828 1.82647 102.828H8.65847ZM0.0484686 109.912C0.0298019 109.912 0.0158021 109.889 0.00646877 109.842C-0.00286456 109.805 0.00180204 109.777 0.0204687 109.758L7.83247 103.164C8.19647 102.856 8.44847 102.581 8.58847 102.338C8.7378 102.095 8.81247 101.853 8.81247 101.61C8.81247 101.591 8.84047 101.582 8.89647 101.582C8.95247 101.582 8.98047 101.591 8.98047 101.61L8.96647 102.156C8.95714 102.268 8.95247 102.427 8.95247 102.632L8.96647 103.346C8.9758 103.439 8.98047 103.547 8.98047 103.668C8.98047 103.743 8.9618 103.799 8.92447 103.836C8.88714 103.873 8.81247 103.929 8.70047 104.004L8.25247 104.34L1.67247 109.8L0.0484686 109.912ZM0.0484686 109.912L0.482469 109.562H7.37047C7.8558 109.562 8.21514 109.473 8.44847 109.296C8.69114 109.119 8.81247 108.843 8.81247 108.47C8.81247 108.451 8.84047 108.442 8.89647 108.442C8.95247 108.442 8.98047 108.451 8.98047 108.47L8.96647 109.03C8.9478 109.31 8.93847 109.548 8.93847 109.744C8.93847 109.912 8.9478 110.155 8.96647 110.472L8.98047 111.06C8.98047 111.079 8.95247 111.088 8.89647 111.088C8.84047 111.088 8.81247 111.079 8.81247 111.06C8.81247 110.295 8.3318 109.912 7.37047 109.912H0.0484686Z" fill="#421D12"/>
<path d="M1.36447 97.9428C1.07514 97.9428 0.865135 97.9662 0.734468 98.0128C0.603802 98.0688 0.515135 98.1715 0.468469 98.3208C0.421802 98.4795 0.398469 98.7315 0.398469 99.0768C0.398469 99.0955 0.370468 99.1048 0.314468 99.1048C0.258468 99.1048 0.230469 99.0955 0.230469 99.0768C0.230469 98.7781 0.235135 98.5448 0.244469 98.3768L0.258469 97.3688L0.244469 96.3888C0.235135 96.2115 0.230469 95.9688 0.230469 95.6608C0.230469 95.6421 0.258468 95.6328 0.314468 95.6328C0.370468 95.6328 0.398469 95.6421 0.398469 95.6608C0.398469 95.9968 0.421802 96.2442 0.468469 96.4028C0.515135 96.5615 0.603802 96.6688 0.734468 96.7248C0.874468 96.7901 1.08447 96.8228 1.36447 96.8228H7.84647C8.12647 96.8228 8.3318 96.7901 8.46247 96.7248C8.59314 96.6688 8.6818 96.5615 8.72847 96.4028C8.78447 96.2442 8.81247 95.9968 8.81247 95.6608C8.81247 95.6421 8.84047 95.6328 8.89647 95.6328C8.95247 95.6328 8.98047 95.6421 8.98047 95.6608L8.96647 96.3888C8.9478 96.7995 8.93847 97.1261 8.93847 97.3688C8.93847 97.6395 8.9478 97.9801 8.96647 98.3908L8.98047 99.0768C8.98047 99.0955 8.95247 99.1048 8.89647 99.1048C8.84047 99.1048 8.81247 99.0955 8.81247 99.0768C8.81247 98.7408 8.78447 98.4935 8.72847 98.3348C8.67247 98.1855 8.57447 98.0828 8.43447 98.0268C8.3038 97.9708 8.09847 97.9428 7.81847 97.9428H1.36447Z" fill="#421D12"/>
<path d="M0.230469 81.9634C0.230469 81.9354 0.258468 81.9214 0.314468 81.9214C0.370468 81.9214 0.398469 81.9354 0.398469 81.9634C0.398469 82.2994 0.421802 82.5421 0.468469 82.6914C0.515135 82.8501 0.603802 82.9574 0.734468 83.0134C0.874468 83.0694 1.08447 83.0974 1.36447 83.0974H7.84647C8.12647 83.0974 8.3318 83.0694 8.46247 83.0134C8.59314 82.9574 8.6818 82.8501 8.72847 82.6914C8.78447 82.5421 8.81247 82.2994 8.81247 81.9634C8.81247 81.9354 8.84047 81.9214 8.89647 81.9214C8.95247 81.9214 8.98047 81.9354 8.98047 81.9634V87.6754C8.98047 87.7687 8.93847 87.8154 8.85447 87.8154L7.09047 87.8434C7.06247 87.8434 7.0438 87.8154 7.03447 87.7594C7.03447 87.7127 7.04847 87.6847 7.07647 87.6754C7.5898 87.6101 7.9818 87.4281 8.25247 87.1294C8.52314 86.8307 8.65847 86.4387 8.65847 85.9534V85.2394C8.65847 84.8287 8.5978 84.5534 8.47647 84.4134C8.35514 84.2734 8.12647 84.2034 7.79047 84.2034H1.42047C1.08447 84.2034 0.855802 84.2641 0.734468 84.3854C0.613135 84.5161 0.552469 84.7727 0.552469 85.1554V86.0794C0.552469 86.6021 0.706469 87.0361 1.01447 87.3814C1.3318 87.7361 1.7798 87.9787 2.35847 88.1094C2.37714 88.1094 2.38647 88.1281 2.38647 88.1654C2.38647 88.1934 2.37714 88.2167 2.35847 88.2354C2.34914 88.2634 2.3398 88.2774 2.33047 88.2774C1.65847 88.1841 1.02847 88.1374 0.440469 88.1374C0.365802 88.1374 0.309802 88.1234 0.272469 88.0954C0.244469 88.0674 0.230469 88.0114 0.230469 87.9274V81.9634ZM3.45047 87.1434C3.8518 87.1434 4.1458 87.0267 4.33247 86.7934C4.52847 86.5694 4.62647 86.2101 4.62647 85.7154V83.6714H4.94847V85.7434C4.94847 86.2194 5.0278 86.5694 5.18647 86.7934C5.35447 87.0174 5.61114 87.1294 5.95647 87.1294C5.97514 87.1294 5.98447 87.1527 5.98447 87.1994C5.98447 87.2554 5.97514 87.2834 5.95647 87.2834L4.78047 87.2694L4.15047 87.2834C3.8518 87.3021 3.61847 87.3114 3.45047 87.3114C3.4318 87.3114 3.42247 87.2834 3.42247 87.2274C3.42247 87.1714 3.4318 87.1434 3.45047 87.1434Z" fill="#421D12"/>
<path d="M0.060812 75.624C0.060812 74.6066 0.256812 73.72 0.648812 72.964C1.04081 72.208 1.57281 71.6293 2.24481 71.228C2.91681 70.8266 3.66815 70.626 4.49881 70.626C5.40415 70.626 6.20681 70.8546 6.90681 71.312C7.60681 71.7786 8.15281 72.4133 8.54481 73.216C8.93681 74.028 9.13281 74.938 9.13281 75.946C9.13281 76.394 9.09081 76.828 9.00681 77.248C8.92281 77.6773 8.81081 78.0273 8.67081 78.298C8.62415 78.3726 8.58215 78.4193 8.54481 78.438C8.50748 78.4566 8.44215 78.4706 8.34881 78.48L6.66881 78.662C6.64081 78.662 6.62215 78.634 6.61281 78.578C6.60348 78.5313 6.61748 78.5033 6.65481 78.494C7.34548 78.2513 7.87281 77.8546 8.23681 77.304C8.61015 76.7533 8.79681 76.0953 8.79681 75.33C8.79681 74.2193 8.46081 73.3653 7.78881 72.768C7.11681 72.1706 6.19281 71.872 5.01681 71.872C4.10215 71.872 3.28548 72.0493 2.56681 72.404C1.85748 72.7586 1.30215 73.244 0.900812 73.86C0.499479 74.4853 0.298812 75.19 0.298812 75.974C0.298812 76.422 0.340812 76.7673 0.424812 77.01C0.508812 77.2526 0.672145 77.43 0.914812 77.542C1.15748 77.654 1.51681 77.71 1.99281 77.71C2.47815 77.71 2.81415 77.6773 3.00081 77.612C3.19681 77.556 3.32748 77.4253 3.39281 77.22C3.45815 77.024 3.49081 76.6786 3.49081 76.184C3.49081 76.128 3.52815 76.1 3.60281 76.1C3.63081 76.1 3.65415 76.1046 3.67281 76.114C3.70081 76.1326 3.71481 76.1513 3.71481 76.17C3.66815 76.9166 3.64481 77.5233 3.64481 77.99C3.64481 78.438 3.65881 78.9046 3.68681 79.39C3.68681 79.4086 3.67281 79.4226 3.64481 79.432C3.62615 79.4506 3.60748 79.46 3.58881 79.46C3.52348 79.46 3.49081 79.4366 3.49081 79.39C3.50015 79.1846 3.46748 79.04 3.39281 78.956C3.32748 78.872 3.18748 78.816 2.97281 78.788C2.75815 78.7693 2.38481 78.76 1.85281 78.76C1.43281 78.76 1.13415 78.774 0.956812 78.802C0.779479 78.8393 0.667479 78.858 0.620812 78.858C0.564812 78.858 0.527479 78.8486 0.508812 78.83C0.499479 78.8113 0.480812 78.7646 0.452812 78.69C0.191479 77.5513 0.060812 76.5293 0.060812 75.624Z" fill="#421D12"/>
<path d="M0.231438 67.325C0.231438 67.0917 0.637438 66.6624 1.44944 66.0371C2.26144 65.4117 3.39544 64.6464 4.85144 63.741L5.15944 64.6791C3.9461 65.4724 2.99877 66.135 2.31744 66.667C1.64544 67.2084 1.15544 67.6891 0.847437 68.1091C0.54877 68.5291 0.399437 68.9351 0.399437 69.3271C0.399437 69.3551 0.371437 69.3691 0.315437 69.3691C0.259437 69.3691 0.231438 69.3551 0.231438 69.3271V67.325ZM9.02344 63.699C9.02344 64.4924 8.86477 65.1037 8.54744 65.533C8.23944 65.9624 7.8101 66.1771 7.25944 66.1771C6.8021 66.1771 6.37277 66.0371 5.97144 65.7571C5.5701 65.4864 5.2481 65.1224 5.00544 64.6651C4.76277 64.2077 4.64144 63.7224 4.64144 63.209C4.64144 63.013 4.65077 62.7844 4.66944 62.523H1.36544C1.08544 62.523 0.875437 62.551 0.735437 62.607C0.604771 62.663 0.516103 62.7657 0.469437 62.9151C0.42277 63.0737 0.399437 63.321 0.399437 63.657C0.399437 63.685 0.371437 63.699 0.315437 63.699C0.259437 63.699 0.231438 63.685 0.231438 63.657C0.231438 63.3677 0.236104 63.1391 0.245438 62.9711L0.259438 61.9631L0.245438 60.9831C0.236104 60.8057 0.231438 60.5677 0.231438 60.2691C0.231438 60.2411 0.259437 60.2271 0.315437 60.2271C0.371437 60.2271 0.399437 60.2411 0.399437 60.2691C0.399437 60.6051 0.42277 60.8524 0.469437 61.0111C0.516103 61.1697 0.604771 61.277 0.735437 61.333C0.875437 61.389 1.08544 61.417 1.36544 61.417H7.84744C8.12744 61.417 8.33277 61.389 8.46344 61.333C8.5941 61.277 8.68277 61.1697 8.72944 61.0111C8.78544 60.8617 8.81344 60.6191 8.81344 60.2831C8.81344 60.2644 8.84144 60.2551 8.89744 60.2551C8.95344 60.2551 8.98144 60.2644 8.98144 60.2831L8.96744 60.9831C8.94877 61.3937 8.93944 61.7204 8.93944 61.9631C8.93944 62.1311 8.9441 62.2897 8.95344 62.439C8.96277 62.5884 8.9721 62.7191 8.98144 62.8311C9.00944 63.1391 9.02344 63.4284 9.02344 63.699ZM6.75544 65.015C7.49277 65.015 8.01544 64.8751 8.32344 64.5951C8.63144 64.3151 8.78544 63.9277 8.78544 63.433C8.78544 63.1904 8.7621 63.0037 8.71544 62.8731C8.66877 62.7517 8.57544 62.663 8.43544 62.607C8.30477 62.551 8.09944 62.523 7.81944 62.523H5.03344C4.9961 62.8777 4.97744 63.153 4.97744 63.349C4.97744 63.9464 5.1081 64.3711 5.36944 64.6231C5.6401 64.8844 6.1021 65.015 6.75544 65.015Z" fill="#421D12"/>
<path d="M0.230469 51.2813C0.230469 51.2533 0.258468 51.2393 0.314468 51.2393C0.370468 51.2393 0.398469 51.2533 0.398469 51.2813C0.398469 51.6173 0.421802 51.8599 0.468469 52.0093C0.515135 52.1679 0.603802 52.2753 0.734468 52.3313C0.874468 52.3873 1.08447 52.4153 1.36447 52.4153H7.84647C8.12647 52.4153 8.3318 52.3873 8.46247 52.3313C8.59314 52.2753 8.6818 52.1679 8.72847 52.0093C8.78447 51.8599 8.81247 51.6173 8.81247 51.2813C8.81247 51.2533 8.84047 51.2393 8.89647 51.2393C8.95247 51.2393 8.98047 51.2533 8.98047 51.2813V56.9933C8.98047 57.0866 8.93847 57.1333 8.85447 57.1333L7.09047 57.1613C7.06247 57.1613 7.0438 57.1333 7.03447 57.0773C7.03447 57.0306 7.04847 57.0026 7.07647 56.9933C7.5898 56.9279 7.9818 56.7459 8.25247 56.4473C8.52314 56.1486 8.65847 55.7566 8.65847 55.2713V54.5573C8.65847 54.1466 8.5978 53.8713 8.47647 53.7313C8.35514 53.5913 8.12647 53.5213 7.79047 53.5213H1.42047C1.08447 53.5213 0.855802 53.5819 0.734468 53.7033C0.613135 53.8339 0.552469 54.0906 0.552469 54.4733V55.3973C0.552469 55.9199 0.706469 56.3539 1.01447 56.6993C1.3318 57.0539 1.7798 57.2966 2.35847 57.4273C2.37714 57.4273 2.38647 57.4459 2.38647 57.4833C2.38647 57.5113 2.37714 57.5346 2.35847 57.5533C2.34914 57.5813 2.3398 57.5953 2.33047 57.5953C1.65847 57.5019 1.02847 57.4553 0.440469 57.4553C0.365802 57.4553 0.309802 57.4413 0.272469 57.4133C0.244469 57.3853 0.230469 57.3293 0.230469 57.2453V51.2813ZM3.45047 56.4613C3.8518 56.4613 4.1458 56.3446 4.33247 56.1113C4.52847 55.8873 4.62647 55.5279 4.62647 55.0333V52.9893H4.94847V55.0613C4.94847 55.5373 5.0278 55.8873 5.18647 56.1113C5.35447 56.3353 5.61114 56.4473 5.95647 56.4473C5.97514 56.4473 5.98447 56.4706 5.98447 56.5173C5.98447 56.5733 5.97514 56.6013 5.95647 56.6013L4.78047 56.5873L4.15047 56.6013C3.8518 56.6199 3.61847 56.6293 3.45047 56.6293C3.4318 56.6293 3.42247 56.6013 3.42247 56.5453C3.42247 56.4893 3.4318 56.4613 3.45047 56.4613Z" fill="#421D12"/>
<path d="M1.36447 47.5019C1.07514 47.5019 0.865135 47.5252 0.734468 47.5719C0.603802 47.6279 0.515135 47.7306 0.468469 47.8799C0.421802 48.0386 0.398469 48.2906 0.398469 48.6359C0.398469 48.6546 0.370468 48.6639 0.314468 48.6639C0.258468 48.6639 0.230469 48.6546 0.230469 48.6359C0.230469 48.3372 0.235135 48.1039 0.244469 47.9359L0.258469 46.9279L0.244469 45.9479C0.235135 45.7706 0.230469 45.5279 0.230469 45.2199C0.230469 45.2012 0.258468 45.1919 0.314468 45.1919C0.370468 45.1919 0.398469 45.2012 0.398469 45.2199C0.398469 45.5559 0.421802 45.8032 0.468469 45.9619C0.515135 46.1206 0.603802 46.2279 0.734468 46.2839C0.874468 46.3492 1.08447 46.3819 1.36447 46.3819H7.84647C8.12647 46.3819 8.3318 46.3492 8.46247 46.2839C8.59314 46.2279 8.6818 46.1206 8.72847 45.9619C8.78447 45.8032 8.81247 45.5559 8.81247 45.2199C8.81247 45.2012 8.84047 45.1919 8.89647 45.1919C8.95247 45.1919 8.98047 45.2012 8.98047 45.2199L8.96647 45.9479C8.9478 46.3586 8.93847 46.6852 8.93847 46.9279C8.93847 47.1986 8.9478 47.5392 8.96647 47.9499L8.98047 48.6359C8.98047 48.6546 8.95247 48.6639 8.89647 48.6639C8.84047 48.6639 8.81247 48.6546 8.81247 48.6359C8.81247 48.2999 8.78447 48.0526 8.72847 47.8939C8.67247 47.7446 8.57447 47.6419 8.43447 47.5859C8.3038 47.5299 8.09847 47.5019 7.81847 47.5019H1.36447Z" fill="#421D12"/>
<path d="M9.13281 39.6627C9.13281 40.0921 9.09081 40.5354 9.00681 40.9927C8.93215 41.4501 8.82481 41.8141 8.68481 42.0847C8.64748 42.1594 8.60548 42.2061 8.55881 42.2247C8.52148 42.2527 8.45148 42.2761 8.34881 42.2947L6.66881 42.4487C6.64081 42.4487 6.62215 42.4254 6.61281 42.3787C6.60348 42.3321 6.61748 42.3041 6.65481 42.2947C7.37348 42.0521 7.91015 41.6554 8.26481 41.1047C8.62881 40.5541 8.81081 39.8914 8.81081 39.1167C8.81081 38.4354 8.65215 37.8427 8.33481 37.3387C8.02681 36.8347 7.58815 36.4474 7.01881 36.1767C6.44948 35.9154 5.79148 35.7847 5.04481 35.7847C4.17681 35.7847 3.37881 35.9481 2.65081 36.2747C1.92281 36.6107 1.34415 37.0634 0.914812 37.6327C0.494812 38.2114 0.284812 38.8461 0.284812 39.5367C0.284812 40.8807 1.05015 41.8421 2.58081 42.4207C2.60881 42.4207 2.62281 42.4441 2.62281 42.4907C2.62281 42.5094 2.61348 42.5281 2.59481 42.5467C2.58548 42.5747 2.57615 42.5887 2.56681 42.5887L0.886812 42.3927C0.774812 42.3741 0.700146 42.3507 0.662812 42.3227C0.634812 42.3041 0.602146 42.2527 0.564813 42.1687C0.228813 41.3101 0.060812 40.4327 0.060812 39.5367C0.060812 38.4074 0.284812 37.4647 0.732812 36.7087C1.19015 35.9527 1.76881 35.3974 2.46881 35.0427C3.16881 34.6881 3.90148 34.5107 4.66681 34.5107C5.53481 34.5107 6.30481 34.7487 6.97681 35.2247C7.65815 35.7101 8.18548 36.3447 8.55881 37.1287C8.94148 37.9221 9.13281 38.7667 9.13281 39.6627Z" fill="#421D12"/>
<path d="M8.65847 23.9062L8.63047 24.2702H1.82647C1.34114 24.2702 0.981802 24.3588 0.748468 24.5362C0.515135 24.7228 0.398469 25.0028 0.398469 25.3762C0.398469 25.3948 0.370468 25.4042 0.314468 25.4042C0.258468 25.4042 0.230469 25.3948 0.230469 25.3762C0.230469 25.1335 0.235135 24.9468 0.244469 24.8162L0.258469 24.1022L0.244469 23.3462C0.235135 23.2062 0.230469 23.0008 0.230469 22.7302C0.230469 22.7115 0.258468 22.7022 0.314468 22.7022C0.370468 22.7022 0.398469 22.7115 0.398469 22.7302C0.398469 23.1315 0.515135 23.4255 0.748468 23.6122C0.981802 23.8082 1.34114 23.9062 1.82647 23.9062H8.65847ZM0.0484686 30.9902C0.0298019 30.9902 0.0158021 30.9668 0.00646877 30.9202C-0.00286456 30.8828 0.00180204 30.8548 0.0204687 30.8362L7.83247 24.2422C8.19647 23.9342 8.44847 23.6588 8.58847 23.4162C8.7378 23.1735 8.81247 22.9308 8.81247 22.6882C8.81247 22.6695 8.84047 22.6602 8.89647 22.6602C8.95247 22.6602 8.98047 22.6695 8.98047 22.6882L8.96647 23.2342C8.95714 23.3462 8.95247 23.5048 8.95247 23.7102L8.96647 24.4242C8.9758 24.5175 8.98047 24.6248 8.98047 24.7462C8.98047 24.8208 8.9618 24.8768 8.92447 24.9142C8.88714 24.9515 8.81247 25.0075 8.70047 25.0822L8.25247 25.4182L1.67247 30.8782L0.0484686 30.9902ZM0.0484686 30.9902L0.482469 30.6402H7.37047C7.8558 30.6402 8.21514 30.5515 8.44847 30.3742C8.69114 30.1968 8.81247 29.9215 8.81247 29.5482C8.81247 29.5295 8.84047 29.5202 8.89647 29.5202C8.95247 29.5202 8.98047 29.5295 8.98047 29.5482L8.96647 30.1082C8.9478 30.3882 8.93847 30.6262 8.93847 30.8222C8.93847 30.9902 8.9478 31.2328 8.96647 31.5502L8.98047 32.1382C8.98047 32.1568 8.95247 32.1662 8.89647 32.1662C8.84047 32.1662 8.81247 32.1568 8.81247 32.1382C8.81247 31.3728 8.3318 30.9902 7.37047 30.9902H0.0484686Z" fill="#421D12"/>
<path d="M0.060812 15.2031C0.060812 14.3351 0.261479 13.5605 0.662812 12.8791C1.07348 12.2071 1.62415 11.6845 2.31481 11.3111C3.01481 10.9471 3.77548 10.7651 4.59681 10.7651C5.55815 10.7651 6.37948 11.0078 7.06081 11.4931C7.75148 11.9785 8.26948 12.5991 8.61481 13.3551C8.96015 14.1205 9.13281 14.8998 9.13281 15.6931C9.13281 16.5798 8.92281 17.3591 8.50281 18.0311C8.09215 18.7031 7.54615 19.2165 6.86481 19.5711C6.18348 19.9351 5.46015 20.1171 4.69481 20.1171C3.84548 20.1171 3.06615 19.8931 2.35681 19.4451C1.64748 18.9971 1.08748 18.3951 0.676812 17.6391C0.266145 16.8925 0.060812 16.0805 0.060812 15.2031ZM0.368813 15.6931C0.368813 16.2905 0.522812 16.8271 0.830812 17.3031C1.13881 17.7791 1.58681 18.1525 2.17481 18.4231C2.77215 18.7031 3.48148 18.8431 4.30281 18.8431C5.17081 18.8431 5.94548 18.6891 6.62681 18.3811C7.30815 18.0825 7.84015 17.6485 8.22281 17.0791C8.60548 16.5191 8.79681 15.8658 8.79681 15.1191C8.79681 14.1485 8.46548 13.3925 7.80281 12.8511C7.14948 12.3098 6.24415 12.0391 5.08681 12.0391C4.20015 12.0391 3.39748 12.1931 2.67881 12.5011C1.96015 12.8091 1.39548 13.2385 0.984812 13.7891C0.574145 14.3491 0.368813 14.9838 0.368813 15.6931Z" fill="#421D12"/>
<path d="M9.13281 5.152C9.13281 5.58133 9.09081 6.02467 9.00681 6.482C8.93215 6.93933 8.82481 7.30333 8.68481 7.574C8.64748 7.64867 8.60548 7.69533 8.55881 7.714C8.52148 7.742 8.45148 7.76533 8.34881 7.784L6.66881 7.938C6.64081 7.938 6.62215 7.91467 6.61281 7.868C6.60348 7.82133 6.61748 7.79333 6.65481 7.784C7.37348 7.54133 7.91015 7.14467 8.26481 6.594C8.62881 6.04333 8.81081 5.38067 8.81081 4.606C8.81081 3.92467 8.65215 3.332 8.33481 2.828C8.02681 2.324 7.58815 1.93667 7.01881 1.666C6.44948 1.40467 5.79148 1.274 5.04481 1.274C4.17681 1.274 3.37881 1.43733 2.65081 1.764C1.92281 2.1 1.34415 2.55267 0.914812 3.122C0.494812 3.70067 0.284812 4.33533 0.284812 5.026C0.284812 6.37 1.05015 7.33133 2.58081 7.91C2.60881 7.91 2.62281 7.93333 2.62281 7.98C2.62281 7.99867 2.61348 8.01733 2.59481 8.036C2.58548 8.064 2.57615 8.078 2.56681 8.078L0.886812 7.882C0.774812 7.86333 0.700146 7.84 0.662812 7.812C0.634812 7.79333 0.602146 7.742 0.564813 7.658C0.228813 6.79933 0.060812 5.922 0.060812 5.026C0.060812 3.89667 0.284812 2.954 0.732812 2.198C1.19015 1.442 1.76881 0.886667 2.46881 0.532C3.16881 0.177333 3.90148 0 4.66681 0C5.53481 0 6.30481 0.238 6.97681 0.714C7.65815 1.19933 8.18548 1.834 8.55881 2.618C8.94148 3.41133 9.13281 4.256 9.13281 5.152Z" fill="#421D12"/>
</svg>
