<svg width="115" height="34" viewBox="0 0 115 34" fill="none" xmlns="http://www.w3.org/2000/svg">
<path d="M93.9753 23.3406C93.6565 23.3684 93.3497 23.2882 93.0548 23.0999C92.7599 22.9115 92.5154 22.6866 92.3212 22.4252C92.127 22.1638 92.0216 21.9375 92.0048 21.7462C91.9416 21.0236 92.0988 20.2497 92.4763 19.4243C92.8519 18.5777 93.3491 17.7739 93.9678 17.0131C94.6078 16.2505 95.2917 15.6231 96.0196 15.1311C96.7456 14.6179 97.438 14.3325 98.0969 14.2748C98.2031 14.2655 98.3112 14.2775 98.4212 14.3107C98.5312 14.3439 98.6777 14.4275 98.8607 14.5614C99.5565 12.723 100.34 10.9092 101.211 9.11977C102.081 7.3091 102.945 5.79874 103.802 4.58871C104.544 3.51734 105.316 2.67882 106.12 2.07315C106.943 1.44436 107.802 0.983729 108.697 0.691257C109.32 0.465459 109.971 0.322811 110.651 0.263313C110.758 0.254016 110.875 0.24379 111.002 0.232634C111.13 0.221478 111.247 0.221878 111.356 0.233835C111.57 0.236494 111.82 0.278868 112.105 0.360957C112.391 0.443047 112.561 0.545989 112.614 0.669783C112.664 0.751073 112.669 0.804203 112.628 0.829174C112.588 0.854145 112.533 0.837541 112.463 0.779363C112.303 0.664865 112.105 0.596591 111.867 0.574538C111.649 0.529376 111.413 0.51795 111.158 0.540262C110.754 0.575589 110.355 0.664047 109.96 0.805635C109.566 0.947222 109.256 1.08137 109.032 1.20809C108.362 1.63073 107.684 2.204 106.998 2.92789C106.31 3.63053 105.641 4.42788 104.991 5.31993C104.053 6.60116 103.179 7.984 102.366 9.46845C101.575 10.951 100.88 12.4253 100.28 13.8911C99.7011 15.3551 99.2629 16.7105 98.9651 17.9572C98.6885 19.202 98.5865 20.2389 98.659 21.0677C98.6702 21.1952 98.6813 21.3227 98.6925 21.4502C98.723 21.5546 98.7536 21.659 98.7841 21.7634C98.8721 22.0341 98.9951 22.2161 99.1531 22.3094C99.3112 22.4026 99.4859 22.4409 99.6771 22.4241C99.8896 22.4055 100.088 22.3454 100.272 22.2436C100.475 22.1188 100.645 21.9861 100.783 21.8455C101.155 21.4489 101.566 20.8883 102.017 20.1636C102.489 19.437 102.929 18.7133 103.337 17.9923C103.412 17.8786 103.463 17.8421 103.488 17.8827C103.513 17.9234 103.506 17.9668 103.467 18.013C103.395 18.1692 103.23 18.4835 102.971 18.9558C102.713 19.4281 102.415 19.9361 102.077 20.4796C101.76 21.0212 101.447 21.477 101.136 21.8467C100.632 22.4476 100.093 22.7732 99.5193 22.8234C99.0943 22.8606 98.7172 22.7115 98.388 22.3763C98.0589 22.041 97.8655 21.544 97.8079 20.8852C97.7893 20.6727 97.7799 20.3201 97.7796 19.8276C97.7793 19.3351 97.8068 18.9151 97.8621 18.5676C97.444 19.418 96.999 20.2064 96.5272 20.933C96.0748 21.6364 95.6218 22.2114 95.1683 22.658C94.7343 23.0814 94.3366 23.3089 93.9753 23.3406ZM93.7159 22.9457C93.9072 22.9289 94.1122 22.8253 94.3311 22.6349C94.6877 22.3039 95.0774 21.8629 95.5003 21.3119C95.9445 20.7591 96.3752 20.1753 96.7926 19.5606C97.2293 18.9228 97.6051 18.3224 97.9199 17.7595C97.9964 17.4102 98.1098 16.9934 98.2602 16.5091C98.4106 16.0248 98.5434 15.5849 98.6587 15.1893C98.3787 15.171 98.0636 15.2414 97.7135 15.4005C97.3828 15.5365 97.1467 15.6536 97.0054 15.7516C96.4613 16.1418 95.8975 16.673 95.3138 17.3451C94.7496 17.9941 94.2537 18.6906 93.8263 19.4347C93.397 20.1575 93.0934 20.8479 92.9154 21.5059C92.8646 21.6603 92.8476 21.8331 92.8644 22.0244C92.8867 22.2794 92.9709 22.5076 93.117 22.709C93.2825 22.8872 93.4821 22.9661 93.7159 22.9457Z" fill="#453C3C"/>
<path d="M88.4842 23.8899C87.9316 23.9382 87.5245 23.8132 87.2628 23.5149C87.0206 23.1934 86.8799 22.8096 86.8409 22.3633C86.7962 21.8532 86.826 21.3367 86.9301 20.8136C87.0537 20.2674 87.1925 19.7734 87.3466 19.3317C87.52 18.8668 87.6603 18.5119 87.7674 18.2669C88.0692 17.5553 88.2108 17.0932 88.1922 16.8806C88.1717 16.6469 88.0589 16.5818 87.8539 16.6854C87.6894 16.764 87.4715 16.9651 87.2 17.2887C86.9285 17.6122 86.65 17.9792 86.3647 18.3896C86.0794 18.8001 85.8232 19.1758 85.5961 19.5169C85.3902 19.8562 85.26 20.0817 85.2055 20.1935C84.6849 21.0957 84.3318 21.8333 84.1464 22.4063C83.9609 22.9793 83.8262 23.3979 83.7423 23.6623C83.7091 23.7722 83.5968 23.8356 83.4056 23.8523C83.2143 23.8691 83.0165 23.8114 82.8122 23.6794C82.6061 23.5261 82.4891 23.2901 82.4612 22.9713C82.4463 22.8013 82.5159 22.4954 82.67 22.0536C82.8222 21.5906 83.0105 21.0494 83.2347 20.4302C83.4395 19.8341 83.6443 19.238 83.8491 18.6419C84.0521 18.0245 84.2131 17.5393 84.3321 17.1862C84.1722 17.0717 84.0894 16.9826 84.0839 16.9188C84.0783 16.8551 84.0843 16.801 84.1018 16.7567C84.135 16.6467 84.2051 16.4692 84.3122 16.2243C84.4174 15.9581 84.5235 15.7026 84.6306 15.4576C84.7358 15.1914 84.8069 15.0246 84.8438 14.9571C84.9038 14.9091 85.0567 14.8207 85.3024 14.6922C85.5694 14.5617 85.8304 14.4854 86.0854 14.463L86.213 14.4519C86.468 14.4296 86.602 14.4928 86.615 14.6416C86.628 14.7903 86.5704 14.9881 86.4421 15.2349C86.3876 15.3467 86.263 15.636 86.0683 16.1028C85.8717 16.5483 85.6488 17.0603 85.3996 17.6389C85.1504 18.2175 84.9206 18.773 84.7102 19.3053C84.5192 19.8146 84.3818 20.2014 84.2978 20.4657C84.2508 20.6625 84.2356 20.8566 84.2524 21.0479C84.2885 21.216 84.3435 21.2326 84.4173 21.0977C84.9343 20.153 85.4199 19.3396 85.8742 18.6574C86.3285 17.9752 86.7865 17.3355 87.2482 16.7384C87.7099 16.1412 88.2229 15.5181 88.7871 14.8691C89.0071 14.9355 89.2339 14.9585 89.4677 14.9381C89.7015 14.9176 89.909 14.9637 90.0901 15.0763C90.1807 15.1327 90.2325 15.2352 90.2455 15.384C90.2716 15.6815 90.13 16.1436 89.8207 16.7703C89.5309 17.3738 89.2051 18.0555 88.8433 18.8152C88.5728 19.3957 88.3098 20.0611 88.0542 20.8116C87.7987 21.5621 87.6941 22.203 87.7406 22.7343C87.7648 23.0105 87.8278 23.2406 87.9295 23.4244C88.0506 23.5851 88.2175 23.6562 88.43 23.6376C88.6212 23.6209 88.8273 23.5279 89.048 23.3587C89.2087 23.2376 89.55 22.8544 90.0717 22.2091C90.5916 21.5426 91.146 20.6589 91.735 19.558C91.7932 19.4887 91.8329 19.4531 91.8541 19.4513C91.8966 19.4475 91.9198 19.4669 91.9235 19.5094C91.9272 19.5519 91.9028 19.6397 91.8502 19.7728C91.253 21.0243 90.6334 22.0208 89.9916 22.7622C89.3692 23.4805 88.8667 23.8564 88.4842 23.8899Z" fill="#453C3C"/>
<path d="M78.0912 24.7965C77.5174 24.8467 76.9684 24.6913 76.4443 24.3303C75.9396 23.9461 75.6519 23.3503 75.5812 22.5427C75.5254 21.9051 75.635 21.1996 75.91 20.426C76.185 19.6524 76.5583 18.9024 77.0301 18.1758C77.5232 17.4474 78.0584 16.8331 78.6356 16.3329C79.2129 15.8327 79.7663 15.5487 80.2957 15.4809C80.3881 15.5585 80.4894 15.6139 80.5993 15.6471C80.7306 15.6785 80.8512 15.7107 80.9612 15.7439L81.8067 15.8627C82.2854 15.9493 82.5452 16.2264 82.5861 16.6939C82.6103 16.9702 82.5407 17.2761 82.3773 17.6116C82.2352 17.9453 81.9937 18.2448 81.6529 18.5102C81.4728 18.6544 81.2714 18.8005 81.0488 18.9485C80.8474 19.0946 80.6354 19.2416 80.4128 19.3896L79.0452 20.2802C78.6194 20.553 78.2485 20.8424 77.9327 21.1485C77.6149 21.4332 77.3947 21.7309 77.272 22.0414C77.272 22.0414 77.241 22.0549 77.1791 22.0817C77.1366 22.0854 77.1223 22.0438 77.1361 21.957C77.2533 21.5827 77.5085 21.1963 77.902 20.7978C78.3148 20.3762 78.7323 20.0078 79.1544 19.6924C79.3521 19.5038 79.5516 19.3365 79.7529 19.1904C79.9755 19.0424 80.1866 18.8847 80.3861 18.7174C80.5856 18.55 80.7745 18.3836 80.9528 18.2181C81.1504 18.0295 81.3171 17.8543 81.4528 17.6925C81.608 17.5076 81.71 17.3274 81.7589 17.1518C81.829 16.9743 81.8585 16.8218 81.8473 16.6943C81.812 16.2905 81.5606 16.1091 81.093 16.15C80.7955 16.176 80.4666 16.3333 80.1064 16.6218C79.6667 16.9815 79.2539 17.4031 78.8679 17.8865C78.4801 18.3488 78.1172 18.8516 77.7793 19.3952C77.4238 19.983 77.1183 20.6522 76.8627 21.4027C76.6284 22.1513 76.5327 22.77 76.5754 23.2588C76.6182 23.7476 76.787 24.0862 77.0819 24.2745C77.3961 24.4397 77.7445 24.5056 78.1271 24.4722C78.6584 24.4257 79.1563 24.2429 79.621 23.9239C79.9637 23.6797 80.2805 23.3843 80.5714 23.0377C80.8604 22.6697 81.1 22.349 81.2902 22.0754C81.4416 21.848 81.6106 21.5762 81.7971 21.2601C82.0048 20.9421 82.1447 20.705 82.2167 20.5488C82.2555 20.5026 82.2874 20.4998 82.3123 20.5404C82.3373 20.5811 82.3507 20.612 82.3526 20.6333C82.2806 20.7895 82.1532 21.0469 81.9704 21.4055C81.8071 21.741 81.5555 22.1699 81.2157 22.6922C80.8196 23.3051 80.3911 23.7923 79.9302 24.1538C79.4693 24.5153 78.8563 24.7296 78.0912 24.7965Z" fill="#453C3C"/>
<path d="M71.452 27.466C70.8782 27.5162 70.4799 27.369 70.257 27.0244C70.036 26.7011 69.9106 26.3695 69.8809 26.0294C69.8325 25.4769 69.8886 24.8938 70.049 24.2801C70.2289 23.6433 70.4309 23.0153 70.6552 22.3961C71.0566 21.3545 71.3731 20.5666 71.6047 20.0324C71.8364 19.4981 71.9942 19.0989 72.0782 18.8345C72.1834 18.5684 72.2267 18.329 72.2081 18.1165C72.1895 17.904 72.1243 17.7705 72.0124 17.716C71.9006 17.6616 71.7915 17.639 71.6853 17.6483C71.5365 17.6613 71.3721 17.7399 71.1919 17.8842C71.01 18.0072 70.8414 18.1611 70.6863 18.346C70.3585 18.7601 70.0081 19.2833 69.6351 19.9156C69.2602 20.5266 68.8988 21.1685 68.5508 21.8414C68.2222 22.4912 67.9314 23.0841 67.6785 23.6202C67.4469 24.1544 67.2872 24.5324 67.1995 24.7543C67.0417 25.1535 66.8353 25.3643 66.5803 25.3866C66.2827 25.4127 65.956 25.2271 65.6 24.83C65.719 24.4769 65.8556 24.0795 66.0097 23.6377C66.1619 23.1747 66.3132 22.701 66.4636 22.2168C66.649 21.6437 66.8085 21.0195 66.9422 20.3439C67.097 19.6665 67.155 19.1047 67.1159 18.6584C67.0769 18.2121 66.9405 17.9991 66.7067 18.0196C66.5154 18.0363 66.2743 18.218 65.9834 18.5647C65.7101 18.867 65.3754 19.3246 64.9793 19.9374C64.6026 20.5272 64.2208 21.1816 63.834 21.9007C63.4472 22.6198 63.1117 23.3131 62.8274 23.9804C62.5626 24.6246 62.4053 25.1523 62.3556 25.5635C62.3224 25.6735 62.2314 25.735 62.0827 25.748C61.8914 25.7647 61.6821 25.6974 61.4547 25.546C61.2273 25.3946 61.1075 25.1266 61.0952 24.7422C61.0897 24.6785 61.1542 24.4373 61.2889 24.0186C61.4217 23.5787 61.5809 23.0722 61.7663 22.4992C61.973 21.9244 62.17 21.361 62.3573 20.8093C62.5446 20.2575 62.6986 19.8158 62.8195 19.484C62.6596 19.3695 62.5662 19.2813 62.5394 19.2194C62.5338 19.1556 62.5389 19.0909 62.5545 19.0253C62.6109 18.9347 62.6925 18.767 62.7996 18.522C62.9048 18.2558 63.0109 18.0003 63.118 17.7554C63.2232 17.4892 63.2827 17.3127 63.2965 17.2258C63.3778 17.1758 63.5423 17.0972 63.7898 16.9899C64.0568 16.8595 64.3178 16.7831 64.5728 16.7608L64.7004 16.7496C64.9554 16.7273 65.0894 16.7905 65.1024 16.9393C65.1154 17.0881 65.0578 17.2858 64.9295 17.5326C64.875 17.6445 64.7592 17.9116 64.582 18.334C64.4029 18.7351 64.1976 19.2028 63.9659 19.737C63.7343 20.2712 63.522 20.7823 63.3292 21.2703C63.1557 21.7352 63.027 22.0998 62.943 22.3642C62.8572 22.6072 62.8467 22.8544 62.9115 23.1057C63.2752 22.3672 63.7174 21.5469 64.2381 20.6447C64.7569 19.7213 65.316 18.8908 65.9153 18.1531C66.1443 17.8332 66.4076 17.6603 66.7051 17.6343C67.3002 17.5822 67.7373 17.6832 68.0165 17.9371C68.3169 18.1892 68.482 18.4853 68.5118 18.8253C68.5471 19.2291 68.4711 19.7069 68.2838 20.2587C68.2174 20.4786 68.1021 20.8742 67.9379 21.4453C67.7719 21.9952 67.6049 22.5345 67.437 23.0631C67.7168 22.5889 68.0607 21.9914 68.4687 21.2704C68.898 20.5476 69.3389 19.8344 69.7913 19.131C70.2631 18.4044 70.692 17.7994 71.078 17.3159C71.464 16.8324 71.7526 16.5823 71.9439 16.5656C72.4114 16.5247 72.8407 16.6585 73.2318 16.9669C73.6422 17.2522 73.8576 17.5117 73.8781 17.7455C73.9078 18.0856 73.7875 18.5458 73.517 19.1262C73.2466 19.7067 72.7915 20.6245 72.1518 21.8797C71.7863 22.597 71.4282 23.3992 71.0775 24.2865C70.7462 25.1507 70.6076 25.8909 70.6615 26.5072C70.7098 27.0598 70.8934 27.3221 71.2122 27.2942C71.4034 27.2775 71.597 27.1642 71.7927 26.9543C71.9304 26.8138 72.067 26.6626 72.2028 26.5009C72.3385 26.3391 72.4761 26.1985 72.6156 26.0793C72.4791 26.4767 72.3254 26.8006 72.1546 27.0511C71.9837 27.3017 71.7496 27.4399 71.452 27.466Z" fill="#453C3C"/>
<path d="M57.4911 28.6847C56.9173 28.7349 56.519 28.5877 56.2961 28.2432C56.0751 27.9199 55.9497 27.5882 55.9199 27.2482C55.8716 26.6956 55.9276 26.1125 56.0881 25.4989C56.268 24.8621 56.47 24.2341 56.6942 23.6149C57.0956 22.5732 57.4122 21.7853 57.6438 21.2511C57.8755 20.7169 58.0333 20.3176 58.1172 20.0533C58.2224 19.7871 58.2657 19.5478 58.2471 19.3352C58.2285 19.1227 58.1633 18.9892 58.0515 18.9348C57.9396 18.8803 57.8306 18.8577 57.7243 18.867C57.5756 18.88 57.4111 18.9587 57.231 19.1029C57.049 19.2259 56.8805 19.3798 56.7253 19.5647C56.3975 19.9789 56.0471 20.5021 55.6741 21.1343C55.2993 21.7453 54.9379 22.3873 54.5899 23.0602C54.2612 23.7099 53.9705 24.3029 53.7176 24.839C53.4859 25.3732 53.3263 25.7512 53.2386 25.973C53.0808 26.3723 52.8744 26.5831 52.6193 26.6054C52.3218 26.6314 51.9951 26.4459 51.6391 26.0487C51.7581 25.6957 51.8947 25.2982 52.0487 24.8565C52.201 24.3934 52.3523 23.9198 52.5026 23.4355C52.6881 22.8625 52.8476 22.2382 52.9812 21.5627C53.1361 20.8853 53.194 20.3234 53.155 19.8771C53.1159 19.4308 52.9795 19.2179 52.7457 19.2383C52.5545 19.2551 52.3134 19.4368 52.0225 19.7835C51.7491 20.0858 51.4144 20.5433 51.0183 21.1562C50.6416 21.7459 50.2599 22.4004 49.8731 23.1195C49.4863 23.8386 49.1508 24.5318 48.8665 25.1991C48.6016 25.8433 48.4444 26.371 48.3947 26.7823C48.3615 26.8922 48.2705 26.9537 48.1217 26.9668C47.9305 26.9835 47.7211 26.9162 47.4937 26.7647C47.2663 26.6133 47.1465 26.3454 47.1343 25.961C47.1287 25.8972 47.1933 25.656 47.328 25.2374C47.4608 24.7974 47.6199 24.291 47.8054 23.718C48.0121 23.1431 48.209 22.5798 48.3963 22.028C48.5836 21.4763 48.7377 21.0345 48.8586 20.7027C48.6987 20.5882 48.6053 20.5 48.5785 20.4381C48.5729 20.3744 48.5779 20.3097 48.5936 20.2441C48.6499 20.1535 48.7316 19.9857 48.8387 19.7408C48.9439 19.4746 49.05 19.219 49.1571 18.9741C49.2623 18.7079 49.3218 18.5314 49.3356 18.4445C49.4169 18.3946 49.5813 18.316 49.8289 18.2086C50.0959 18.0782 50.3569 18.0018 50.6119 17.9795L50.7394 17.9684C50.9945 17.9461 51.1285 18.0093 51.1415 18.1581C51.1545 18.3068 51.0969 18.5046 50.9685 18.7514C50.9141 18.8632 50.7983 19.1303 50.6211 19.5527C50.442 19.9538 50.2367 20.4215 50.005 20.9557C49.7733 21.49 49.5611 22.0011 49.3682 22.4891C49.1947 22.954 49.066 23.3186 48.9821 23.5829C48.8963 23.826 48.8858 24.0732 48.9506 24.3245C49.3143 23.586 49.7565 22.7656 50.2771 21.8635C50.796 20.9401 51.355 20.1095 51.9544 19.3718C52.1834 19.052 52.4466 18.879 52.7442 18.853C53.3392 18.801 53.7763 18.9019 54.0555 19.1559C54.356 19.408 54.5211 19.7041 54.5508 20.0441C54.5862 20.4479 54.5102 20.9257 54.3229 21.4774C54.2565 21.6974 54.1412 22.0929 53.977 22.6641C53.811 23.214 53.644 23.7532 53.4761 24.2819C53.7558 23.8077 54.0997 23.2101 54.5078 22.4891C54.9371 21.7663 55.3779 21.0532 55.8303 20.3497C56.3022 19.6232 56.7311 19.0182 57.1171 18.5347C57.5031 18.0512 57.7917 17.8011 57.983 17.7844C58.4505 17.7435 58.8798 17.8772 59.2708 18.1856C59.6813 18.471 59.8967 18.7305 59.9171 18.9643C59.9469 19.3043 59.8266 19.7645 59.5561 20.345C59.2857 20.9254 58.8306 21.8433 58.1909 23.0985C57.8254 23.8157 57.4672 24.618 57.1166 25.5052C56.7853 26.3694 56.6466 27.1096 56.7005 27.726C56.7489 28.2785 56.9324 28.5408 57.2512 28.513C57.4425 28.4962 57.636 28.3829 57.8318 28.1731C57.9694 28.0325 58.1061 27.8814 58.2419 27.7196C58.3776 27.5578 58.5152 27.4173 58.6547 27.298C58.5181 27.6954 58.3644 28.0194 58.1936 28.2699C58.0228 28.5204 57.7886 28.6587 57.4911 28.6847Z" fill="#453C3C"/>
<path d="M41.1285 28.0937C40.5121 28.1476 39.9604 27.9603 39.4732 27.5318C39.0072 27.1014 38.7389 26.4825 38.6683 25.6749C38.6423 25.3774 38.6462 25.0558 38.6802 24.7102C38.7336 24.3415 38.818 23.9593 38.9333 23.5638C39.187 22.792 39.5604 22.042 40.0534 21.3136C40.5677 20.5833 41.1348 19.9662 41.7546 19.4623C42.3743 18.9583 42.9817 18.6803 43.5768 18.6283C43.6406 18.6227 43.7177 18.6481 43.8083 18.7044C43.897 18.7394 43.9645 18.7764 44.0107 18.8152L44.1841 18.9606C44.4614 19.1933 44.7188 19.3207 44.9563 19.3428C45.2151 19.3629 45.4281 19.4728 45.5955 19.6723C45.8858 20.0538 46.0561 20.5314 46.1063 21.1052C46.1751 21.8916 46.006 22.7737 45.599 23.7515C45.2114 24.7063 44.6464 25.5909 43.9039 26.4054C43.5317 26.802 43.1142 27.1704 42.6514 27.5107C42.1887 27.851 41.681 28.0453 41.1285 28.0937ZM41.3209 27.7235C41.831 27.6789 42.3368 27.4633 42.8383 27.0768C43.338 26.669 43.7859 26.1587 44.182 25.5458C44.5994 24.9311 44.9395 24.291 45.2025 23.6256C45.4868 22.9583 45.6463 22.334 45.6811 21.7528C45.6931 21.6446 45.6944 21.5374 45.6851 21.4312C45.6952 21.3018 45.6965 21.1946 45.6891 21.1096C45.6389 20.5358 45.4645 20.1335 45.1659 19.9026C44.8655 19.6505 44.524 19.5412 44.1414 19.5747C43.7376 19.61 43.3344 19.7738 42.9317 20.066C42.5483 20.3351 42.081 20.8685 41.5298 21.6662C40.9767 22.4427 40.4901 23.2455 40.0701 24.0746C39.6852 24.815 39.5216 25.5146 39.5792 26.1734C39.6201 26.6409 39.7829 27.0336 40.0677 27.3513C40.3719 27.6459 40.7896 27.77 41.3209 27.7235Z" fill="#453C3C"/>
<path d="M34.1449 28.7063C33.4861 28.7639 32.9015 28.5688 32.3912 28.1209C31.9022 27.6711 31.6214 27.0318 31.5489 26.203C31.4949 25.5867 31.5754 24.9158 31.7904 24.1903C32.0441 23.4186 32.3971 22.681 32.8495 21.9776C33.3214 21.251 33.8468 20.6482 34.4259 20.1693C35.0032 19.6691 35.5894 19.3929 36.1844 19.3409C36.5882 19.3055 36.9916 19.388 37.3946 19.5883C37.7957 19.7674 37.9646 20.106 37.9011 20.6041C37.8854 20.6697 37.8466 20.7159 37.7847 20.7427C37.7441 20.7677 37.7228 20.7696 37.7209 20.7483C37.535 20.3363 37.1976 20.1516 36.7088 20.1944C36.4325 20.2186 36.154 20.3393 35.8732 20.5566C35.3172 21.055 34.8005 21.6356 34.3231 22.2983C33.8651 22.938 33.4824 23.5818 33.1751 24.2298C32.8677 24.8777 32.6726 25.4622 32.5897 25.9834C32.5658 26.1997 32.54 26.3947 32.5124 26.5684C32.5041 26.719 32.5075 26.8794 32.5223 27.0494C32.5688 27.5807 32.7404 27.9511 33.0372 28.1607C33.332 28.3491 33.6707 28.4265 34.0533 28.3931C34.6696 28.3391 35.2267 28.0977 35.7245 27.6686C36.1604 27.2665 36.5598 26.8139 36.9227 26.311C37.2856 25.8082 37.6332 25.2531 37.9656 24.6458C38.02 24.534 38.0791 24.4753 38.1429 24.4697C38.1641 24.4678 38.1766 24.4882 38.1803 24.5307C38.1859 24.5944 38.1527 24.7044 38.0807 24.8606C37.8029 25.356 37.4862 25.8977 37.1307 26.4856C36.7734 27.0522 36.3652 27.5269 35.9062 27.9097C35.6273 28.1483 35.3331 28.3346 35.0236 28.4688C34.7353 28.6011 34.4424 28.6802 34.1449 28.7063Z" fill="#453C3C"/>
<path d="M26.6498 29.2965C26.076 29.3467 25.527 29.1913 25.0029 28.8303C24.4982 28.4461 24.2105 27.8503 24.1398 27.0427C24.084 26.4051 24.1936 25.6996 24.4686 24.926C24.7435 24.1524 25.1169 23.4024 25.5887 22.6758C26.0818 21.9474 26.617 21.3331 27.1942 20.8329C27.7715 20.3327 28.3248 20.0487 28.8543 19.9809C28.9467 20.0585 29.0479 20.1139 29.1579 20.1471C29.2892 20.1785 29.4098 20.2107 29.5197 20.2439L30.3653 20.3627C30.844 20.4493 31.1038 20.7264 31.1447 21.1939C31.1689 21.4702 31.0993 21.7761 30.9359 22.1116C30.7938 22.4453 30.5523 22.7448 30.2115 23.0102C30.0314 23.1544 29.83 23.3005 29.6074 23.4485C29.406 23.5946 29.194 23.7416 28.9714 23.8896L27.6038 24.7802C27.178 25.053 26.8071 25.3424 26.4913 25.6485C26.1735 25.9332 25.9533 26.2309 25.8306 26.5414C25.8306 26.5414 25.7996 26.5549 25.7377 26.5817C25.6952 26.5854 25.6809 26.5438 25.6947 26.457C25.8118 26.0827 26.0671 25.6963 26.4606 25.2978C26.8734 24.8762 27.2909 24.5078 27.713 24.1924C27.9106 24.0038 28.1102 23.8365 28.3115 23.6904C28.5341 23.5424 28.7452 23.3847 28.9447 23.2174C29.1442 23.05 29.3331 22.8836 29.5113 22.7181C29.709 22.5295 29.8757 22.3543 30.0114 22.1925C30.1666 22.0076 30.2686 21.8274 30.3175 21.6518C30.3876 21.4743 30.4171 21.3218 30.4059 21.1943C30.3706 20.7905 30.1192 20.6091 29.6516 20.65C29.3541 20.676 29.0252 20.8333 28.665 21.1218C28.2253 21.4815 27.8125 21.9031 27.4265 22.3865C27.0387 22.8488 26.6758 23.3516 26.3379 23.8952C25.9824 24.483 25.6769 25.1522 25.4213 25.9027C25.187 26.6513 25.0913 27.27 25.134 27.7588C25.1768 28.2476 25.3456 28.5862 25.6405 28.7745C25.9547 28.9397 26.3031 29.0056 26.6857 28.9722C27.217 28.9257 27.7149 28.7429 28.1796 28.4239C28.5223 28.1797 28.8391 27.8843 29.1299 27.5377C29.419 27.1697 29.6586 26.849 29.8488 26.5754C30.0002 26.348 30.1692 26.0762 30.3557 25.7601C30.5634 25.4421 30.7033 25.205 30.7753 25.0488C30.8141 25.0026 30.846 24.9998 30.8709 25.0404C30.8959 25.0811 30.9093 25.112 30.9112 25.1333C30.8392 25.2895 30.7118 25.5469 30.529 25.9055C30.3656 26.241 30.1141 26.6699 29.7743 27.1922C29.3782 27.8051 28.9497 28.2923 28.4888 28.6538C28.0279 29.0153 27.4149 29.2296 26.6498 29.2965Z" fill="#453C3C"/>
<path d="M19.035 30.9916C18.5037 31.0381 17.9742 30.8596 17.4463 30.456C16.9185 30.0525 16.4201 29.4965 15.9512 28.788C15.4824 28.0795 15.0611 27.3026 14.6873 26.4573C14.3135 25.612 14.0035 24.7611 13.7573 23.9046C13.5323 23.0463 13.39 22.2771 13.3305 21.597L13.3277 21.5652C13.3184 21.4589 13.3438 21.3817 13.4039 21.3336C13.462 21.2643 13.5008 21.2181 13.5202 21.195C13.6384 21.0776 13.9063 20.9577 14.3239 20.8355C15.5167 20.517 16.6952 20.157 17.8593 19.7553C19.0446 19.3518 20.1301 18.7857 21.1156 18.057C22.0993 17.3071 22.8995 16.2949 23.5161 15.0203C23.7321 14.5517 23.8215 14.1048 23.7843 13.6798C23.7378 13.1485 23.4668 12.7439 22.9714 12.466C22.4954 12.165 21.8886 11.9611 21.1512 11.8543C20.4331 11.7244 19.6781 11.662 18.8862 11.667C18.8086 11.7595 18.7011 11.876 18.5634 12.0165C18.4471 12.1552 18.3511 12.2813 18.2753 12.395C17.7711 12.9959 17.1737 13.7549 16.483 14.6719C15.7923 15.5889 15.0877 16.5928 14.3694 17.6836C13.6492 18.7531 12.9849 19.8498 12.3766 20.9738C11.7682 22.0978 11.2855 23.1893 10.9285 24.2485C10.5927 25.3058 10.4629 26.2701 10.5391 27.1414C10.5726 27.524 10.668 27.8797 10.8252 28.2085C10.9806 28.5162 11.294 28.6708 11.7652 28.6724C11.6839 28.7223 11.6008 28.751 11.5158 28.7584C11.2183 28.7845 10.9308 28.6811 10.6535 28.4484C10.3743 28.1945 10.1445 27.8933 9.96413 27.5451C9.7819 27.1755 9.67777 26.842 9.65173 26.5445C9.59038 25.8432 9.69944 25.0092 9.97891 24.0424C10.2584 23.0757 10.6501 22.0457 11.1541 20.9523C11.6562 19.8376 12.2336 18.727 12.8863 17.6206C13.5584 16.4911 14.2573 15.4234 14.9831 14.4177C15.7089 13.4119 16.4121 12.5152 17.0927 11.7276C16.0957 11.8362 14.9315 11.9916 13.6 12.1938C12.288 12.3728 10.9399 12.6299 9.55585 12.9652C8.16995 13.2792 6.87741 13.6813 5.67826 14.1717C4.49849 14.639 3.5424 15.2152 2.81 15.9003C2.63174 16.0658 2.47939 16.2825 2.35293 16.5506C2.24773 16.8168 2.20629 17.0774 2.2286 17.3324C2.25091 17.5874 2.34389 17.7934 2.50753 17.9504C2.55375 17.9892 2.57872 18.0299 2.58244 18.0724C2.58802 18.1361 2.54923 18.1824 2.46608 18.211C2.40419 18.2379 2.35106 18.2425 2.30669 18.225C2.08116 18.0948 1.82879 17.9027 1.54959 17.6488C1.29165 17.393 1.06558 17.1343 0.871391 16.8729C0.675344 16.5903 0.569882 16.3639 0.555008 16.1939C0.508525 15.6626 0.880177 15.1376 1.66997 14.6188C2.45975 14.1 3.49859 13.6129 4.78647 13.1576C6.07436 12.7023 7.44406 12.3255 8.89559 12.0271C9.69387 11.8502 10.6322 11.6825 11.7104 11.5239C12.8081 11.3422 13.9308 11.2012 15.0784 11.1008C15.971 11.0227 16.8345 10.9792 17.6689 10.9705L17.9335 10.6904C17.8854 10.6303 17.8548 10.5259 17.8418 10.3771C17.8177 10.1009 17.982 9.77598 18.3348 9.40248C18.4299 9.26567 18.5471 9.13763 18.6866 9.01835C18.8261 8.89907 18.9549 8.78073 19.0731 8.66331C19.2145 8.56529 19.3248 8.48068 19.4043 8.40949C19.4818 8.31704 19.5913 8.2218 19.7326 8.12378C20.032 8.119 20.3042 8.17014 20.5491 8.2772C20.8134 8.36115 20.9595 8.56252 20.9874 8.8813C20.9949 8.96631 20.9829 9.07443 20.9516 9.20566C20.9008 9.36 20.7803 9.57398 20.5901 9.8476C20.3981 10.1 20.1072 10.4466 19.7175 10.8876C20.2987 10.9224 20.8961 11.0201 21.5098 11.1805C22.1216 11.3197 22.6683 11.5717 23.1499 11.9365C23.6509 12.2781 24.0047 12.7718 24.2111 13.4176C24.371 13.5321 24.4958 13.7353 24.5856 14.0273C24.6948 14.2961 24.7624 14.5793 24.7884 14.8768C24.8442 15.5144 24.6616 16.1193 24.2405 16.6915C23.8407 17.2618 23.3069 17.769 22.639 18.2129C21.9924 18.6549 21.318 19.0244 20.6159 19.3214C19.9138 19.6184 19.2883 19.8123 18.7395 19.9032C18.4013 19.9542 17.889 20.0954 17.2026 20.3267C16.5355 20.535 15.8906 20.752 15.2679 20.9778C15.3237 21.6154 15.4391 22.3227 15.6142 23.0997C15.7892 23.8767 15.9846 24.6413 16.2003 25.3934C16.4373 26.1436 16.6765 26.7972 16.918 27.3543C17.2612 28.0952 17.6704 28.7339 18.1457 29.2706C18.6403 29.7841 19.1639 30.0167 19.7164 29.9683C20.014 29.9423 20.3041 29.8312 20.5867 29.6352C20.8906 29.4373 21.1959 29.1322 21.5024 28.7199C21.7527 28.3982 22.0011 28.0553 22.2476 27.691C22.4941 27.3268 22.7106 26.9867 22.8971 26.6706C23.0836 26.3544 23.2323 26.0952 23.343 25.8927C23.4732 25.6672 23.5664 25.5091 23.6228 25.4185C23.6772 25.3067 23.7363 25.248 23.8001 25.2424C23.8426 25.2387 23.8666 25.2687 23.8722 25.3325C23.8778 25.3962 23.863 25.4725 23.828 25.5612C23.6415 25.8773 23.3724 26.3506 23.0206 26.981C22.6883 27.5882 22.3795 28.0971 22.0942 28.5075C21.6612 29.1879 21.1967 29.7532 20.7007 30.2034C20.2278 30.6731 19.6726 30.9358 19.035 30.9916Z" fill="#453C3C"/>
</svg>
