<svg width="115" height="34" viewBox="0 0 115 34" fill="none" xmlns="http://www.w3.org/2000/svg">
<path d="M93.9714 23.3441C93.6526 23.372 93.3458 23.2917 93.0509 23.1034C92.756 22.915 92.5115 22.6902 92.3173 22.4288C92.1231 22.1674 92.0177 21.941 92.0009 21.7498C91.9377 21.0272 92.0949 20.2532 92.4724 19.4278C92.848 18.5812 93.3452 17.7775 93.9639 17.0167C94.6038 16.254 95.2878 15.6267 96.0157 15.1347C96.7417 14.6214 97.4341 14.336 98.0929 14.2784C98.1992 14.2691 98.3073 14.281 98.4173 14.3142C98.5273 14.3474 98.6738 14.431 98.8568 14.5649C99.5526 12.7266 100.336 10.9127 101.207 9.12331C102.077 7.31263 102.941 5.80228 103.798 4.59225C104.54 3.52088 105.312 2.68236 106.116 2.07668C106.939 1.4479 107.798 0.987266 108.693 0.694794C109.316 0.468997 109.967 0.326349 110.648 0.26685C110.754 0.257554 110.871 0.247327 110.998 0.236171C111.126 0.225015 111.244 0.225416 111.352 0.237372C111.566 0.240031 111.816 0.282405 112.102 0.364494C112.387 0.446584 112.557 0.549526 112.61 0.67332C112.66 0.75461 112.665 0.80774 112.624 0.832711C112.584 0.857683 112.529 0.841079 112.459 0.7829C112.299 0.668402 112.101 0.600128 111.863 0.578075C111.645 0.532913 111.409 0.521487 111.154 0.543799C110.75 0.579126 110.351 0.667584 109.956 0.809172C109.562 0.95076 109.252 1.08491 109.028 1.21162C108.358 1.63427 107.68 2.20754 106.994 2.93143C106.306 3.63407 105.637 4.43142 104.987 5.32347C104.049 6.60469 103.175 7.98754 102.362 9.47199C101.571 10.9546 100.876 12.4288 100.276 13.8947C99.6972 15.3587 99.259 16.714 98.9612 17.9607C98.6846 19.2056 98.5826 20.2424 98.6551 21.0712C98.6663 21.1987 98.6774 21.3263 98.6886 21.4538C98.7191 21.5582 98.7497 21.6626 98.7802 21.767C98.8682 22.0377 98.9912 22.2196 99.1492 22.3129C99.3073 22.4061 99.4819 22.4444 99.6732 22.4277C99.8857 22.4091 100.084 22.3489 100.268 22.2472C100.471 22.1223 100.641 21.9896 100.779 21.8491C101.151 21.4525 101.563 20.8918 102.013 20.1671C102.485 19.4406 102.925 18.7168 103.333 17.9958C103.409 17.8821 103.459 17.8456 103.484 17.8863C103.509 17.9269 103.502 17.9703 103.463 18.0166C103.391 18.1728 103.226 18.487 102.967 18.9593C102.709 19.4317 102.411 19.9396 102.073 20.4831C101.756 21.0248 101.443 21.4805 101.132 21.8503C100.628 22.4512 100.089 22.7767 99.5154 22.8269C99.0904 22.8641 98.7133 22.7151 98.3841 22.3798C98.055 22.0446 97.8616 21.5475 97.804 20.8887C97.7854 20.6762 97.776 20.3237 97.7757 19.8312C97.7754 19.3386 97.8029 18.9186 97.8582 18.5712C97.44 19.4215 96.9951 20.21 96.5233 20.9365C96.0708 21.64 95.6179 22.215 95.1644 22.6615C94.7304 23.085 94.3327 23.3125 93.9714 23.3441ZM93.712 22.9492C93.9033 22.9325 94.1083 22.8289 94.3272 22.6384C94.6837 22.3074 95.0735 21.8664 95.4964 21.3155C95.9406 20.7626 96.3713 20.1789 96.7887 19.5642C97.2254 18.9263 97.6012 18.326 97.916 17.7631C97.9925 17.4137 98.1059 16.9969 98.2563 16.5126C98.4067 16.0284 98.5395 15.5884 98.6548 15.1929C98.3748 15.1746 98.0597 15.2449 97.7096 15.4041C97.3789 15.5401 97.1428 15.6571 97.0015 15.7551C96.4574 16.1454 95.8936 16.6765 95.3099 17.3486C94.7457 17.9976 94.2498 18.6941 93.8224 19.4382C93.3931 20.161 93.0895 20.8515 92.9115 21.5095C92.8607 21.6638 92.8437 21.8366 92.8604 22.0279C92.8828 22.2829 92.967 22.5111 93.1131 22.7125C93.2786 22.8907 93.4782 22.9696 93.712 22.9492Z" fill="#453C3C"/>
<path d="M88.4842 23.8856C87.9316 23.9339 87.5245 23.8089 87.2628 23.5106C87.0206 23.1892 86.8799 22.8053 86.8409 22.359C86.7962 21.8489 86.826 21.3324 86.9301 20.8093C87.0537 20.2631 87.1925 19.7692 87.3466 19.3274C87.52 18.8625 87.6603 18.5076 87.7674 18.2627C88.0692 17.551 88.2108 17.0889 88.1922 16.8764C88.1717 16.6426 88.0589 16.5775 87.8539 16.6811C87.6894 16.7597 87.4715 16.9608 87.2 17.2844C86.9285 17.6079 86.65 17.9749 86.3647 18.3854C86.0794 18.7958 85.8232 19.1716 85.5961 19.5127C85.3902 19.8519 85.26 20.0774 85.2055 20.1893C84.6849 21.0914 84.3318 21.829 84.1464 22.402C83.9609 22.975 83.8262 23.3937 83.7423 23.658C83.7091 23.768 83.5968 23.8313 83.4056 23.8481C83.2143 23.8648 83.0165 23.8072 82.8122 23.6751C82.6061 23.5218 82.4891 23.2858 82.4612 22.967C82.4463 22.797 82.5159 22.4911 82.67 22.0493C82.8222 21.5863 83.0105 21.0452 83.2347 20.4259C83.4395 19.8298 83.6443 19.2337 83.8491 18.6376C84.0521 18.0202 84.2131 17.535 84.3321 17.1819C84.1722 17.0674 84.0894 16.9783 84.0839 16.9146C84.0783 16.8508 84.0843 16.7967 84.1018 16.7524C84.135 16.6424 84.2051 16.465 84.3122 16.22C84.4174 15.9538 84.5235 15.6983 84.6306 15.4534C84.7358 15.1872 84.8069 15.0203 84.8438 14.9529C84.9038 14.9048 85.0567 14.8165 85.3024 14.6879C85.5694 14.5575 85.8304 14.4811 86.0854 14.4588L86.213 14.4476C86.468 14.4253 86.602 14.4885 86.615 14.6373C86.628 14.7861 86.5704 14.9838 86.4421 15.2306C86.3876 15.3425 86.263 15.6318 86.0683 16.0985C85.8717 16.544 85.6488 17.056 85.3996 17.6346C85.1504 18.2132 84.9206 18.7687 84.7102 19.3011C84.5192 19.8103 84.3818 20.1971 84.2978 20.4614C84.2508 20.6583 84.2356 20.8523 84.2524 21.0436C84.2885 21.2117 84.3435 21.2284 84.4173 21.0934C84.9343 20.1488 85.4199 19.3353 85.8742 18.6531C86.3285 17.971 86.7865 17.3313 87.2482 16.7341C87.7099 16.1369 88.2229 15.5138 88.7871 14.8648C89.0071 14.9313 89.2339 14.9542 89.4677 14.9338C89.7015 14.9133 89.909 14.9594 90.0901 15.0721C90.1807 15.1284 90.2325 15.2309 90.2455 15.3797C90.2716 15.6772 90.13 16.1393 89.8207 16.766C89.5309 17.3696 89.2051 18.0512 88.8433 18.811C88.5728 19.3914 88.3098 20.0569 88.0542 20.8073C87.7987 21.5578 87.6941 22.1987 87.7406 22.73C87.7648 23.0063 87.8278 23.2363 87.9295 23.4202C88.0506 23.5809 88.2175 23.6519 88.43 23.6333C88.6212 23.6166 88.8273 23.5236 89.048 23.3544C89.2087 23.2333 89.55 22.8501 90.0717 22.2048C90.5916 21.5383 91.146 20.6546 91.735 19.5538C91.7932 19.4844 91.8329 19.4488 91.8541 19.447C91.8966 19.4433 91.9198 19.4627 91.9235 19.5052C91.9272 19.5477 91.9028 19.6355 91.8502 19.7685C91.253 21.02 90.6334 22.0165 89.9916 22.7579C89.3692 23.4762 88.8667 23.8521 88.4842 23.8856Z" fill="#453C3C"/>
<path d="M78.0912 24.7962C77.5174 24.8464 76.9684 24.6909 76.4443 24.3299C75.9396 23.9458 75.6519 23.3499 75.5812 22.5423C75.5254 21.9048 75.635 21.1992 75.91 20.4256C76.185 19.6521 76.5583 18.902 77.0301 18.1754C77.5232 17.447 78.0584 16.8327 78.6356 16.3325C79.2129 15.8323 79.7663 15.5483 80.2957 15.4806C80.3881 15.5581 80.4894 15.6135 80.5993 15.6467C80.7306 15.6781 80.8512 15.7104 80.9612 15.7436L81.8067 15.8623C82.2854 15.9489 82.5452 16.226 82.5861 16.6936C82.6103 16.9698 82.5407 17.2757 82.3773 17.6113C82.2352 17.9449 81.9937 18.2444 81.6529 18.5098C81.4728 18.6541 81.2714 18.8002 81.0488 18.9481C80.8474 19.0942 80.6354 19.2413 80.4128 19.3892L79.0452 20.2798C78.6194 20.5526 78.2485 20.8421 77.9327 21.1481C77.6149 21.4329 77.3947 21.7305 77.272 22.0411C77.272 22.0411 77.241 22.0545 77.1791 22.0813C77.1366 22.085 77.1223 22.0435 77.1361 21.9566C77.2533 21.5823 77.5085 21.1959 77.902 20.7974C78.3148 20.3758 78.7323 20.0074 79.1544 19.6921C79.3521 19.5035 79.5516 19.3361 79.7529 19.19C79.9755 19.042 80.1866 18.8844 80.3861 18.717C80.5856 18.5496 80.7745 18.3832 80.9528 18.2177C81.1504 18.0291 81.3171 17.8539 81.4528 17.6921C81.608 17.5072 81.71 17.327 81.7589 17.1514C81.829 16.9739 81.8585 16.8215 81.8473 16.694C81.812 16.2902 81.5606 16.1087 81.093 16.1496C80.7955 16.1757 80.4666 16.3329 80.1064 16.6214C79.6667 16.9811 79.2539 17.4027 78.8679 17.8862C78.4801 18.3484 78.1172 18.8513 77.7793 19.3948C77.4238 19.9827 77.1183 20.6518 76.8627 21.4023C76.6284 22.1509 76.5327 22.7696 76.5754 23.2584C76.6182 23.7472 76.787 24.0858 77.0819 24.2741C77.3961 24.4394 77.7445 24.5053 78.1271 24.4718C78.6584 24.4253 79.1563 24.2425 79.621 23.9235C79.9637 23.6794 80.2805 23.384 80.5714 23.0373C80.8604 22.6694 81.1 22.3486 81.2902 22.075C81.4416 21.8476 81.6106 21.5758 81.7971 21.2597C82.0048 20.9417 82.1447 20.7046 82.2167 20.5484C82.2555 20.5022 82.2874 20.4994 82.3123 20.5401C82.3373 20.5807 82.3507 20.6117 82.3526 20.6329C82.2806 20.7891 82.1532 21.0465 81.9704 21.4052C81.8071 21.7407 81.5555 22.1696 81.2157 22.6918C80.8196 23.3047 80.3911 23.7919 79.9302 24.1534C79.4693 24.515 78.8563 24.7292 78.0912 24.7962Z" fill="#453C3C"/>
<path d="M71.452 27.4656C70.8782 27.5158 70.4799 27.3686 70.257 27.0241C70.036 26.7008 69.9106 26.3691 69.8809 26.0291C69.8325 25.4765 69.8886 24.8934 70.049 24.2797C70.2289 23.643 70.4309 23.015 70.6552 22.3957C71.0566 21.3541 71.3731 20.5662 71.6047 20.032C71.8364 19.4978 71.9942 19.0985 72.0782 18.8342C72.1834 18.568 72.2267 18.3286 72.2081 18.1161C72.1895 17.9036 72.1243 17.7701 72.0124 17.7156C71.9006 17.6612 71.7915 17.6386 71.6853 17.6479C71.5365 17.6609 71.3721 17.7395 71.1919 17.8838C71.01 18.0068 70.8414 18.1607 70.6863 18.3456C70.3585 18.7598 70.0081 19.283 69.6351 19.9152C69.2602 20.5262 68.8988 21.1682 68.5508 21.841C68.2222 22.4908 67.9314 23.0838 67.6785 23.6198C67.4469 24.1541 67.2872 24.5321 67.1995 24.7539C67.0417 25.1532 66.8353 25.364 66.5803 25.3863C66.2827 25.4123 65.956 25.2267 65.6 24.8296C65.719 24.4765 65.8556 24.0791 66.0097 23.6374C66.1619 23.1743 66.3132 22.7007 66.4636 22.2164C66.649 21.6434 66.8085 21.0191 66.9422 20.3435C67.097 19.6661 67.155 19.1043 67.1159 18.658C67.0769 18.2117 66.9405 17.9988 66.7067 18.0192C66.5154 18.036 66.2743 18.2177 65.9834 18.5643C65.7101 18.8666 65.3754 19.3242 64.9793 19.9371C64.6026 20.5268 64.2208 21.1812 63.834 21.9004C63.4472 22.6195 63.1117 23.3127 62.8274 23.98C62.5626 24.6242 62.4053 25.1519 62.3556 25.5632C62.3224 25.6731 62.2314 25.7346 62.0827 25.7476C61.8914 25.7644 61.6821 25.697 61.4547 25.5456C61.2273 25.3942 61.1075 25.1263 61.0952 24.7419C61.0897 24.6781 61.1542 24.4369 61.2889 24.0182C61.4217 23.5783 61.5809 23.0719 61.7663 22.4989C61.973 21.924 62.17 21.3607 62.3573 20.8089C62.5446 20.2572 62.6986 19.8154 62.8195 19.4836C62.6596 19.3691 62.5662 19.2809 62.5394 19.219C62.5338 19.1552 62.5389 19.0906 62.5545 19.0249C62.6109 18.9343 62.6925 18.7666 62.7996 18.5217C62.9048 18.2555 63.0109 17.9999 63.118 17.755C63.2232 17.4888 63.2827 17.3123 63.2965 17.2254C63.3778 17.1755 63.5423 17.0968 63.7898 16.9895C64.0568 16.8591 64.3178 16.7827 64.5728 16.7604L64.7004 16.7493C64.9554 16.7269 65.0894 16.7902 65.1024 16.9389C65.1154 17.0877 65.0578 17.2855 64.9295 17.5323C64.875 17.6441 64.7592 17.9112 64.582 18.3336C64.4029 18.7347 64.1976 19.2024 63.9659 19.7366C63.7343 20.2709 63.522 20.782 63.3292 21.27C63.1557 21.7349 63.027 22.0995 62.943 22.3638C62.8572 22.6069 62.8467 22.854 62.9115 23.1053C63.2752 22.3668 63.7174 21.5465 64.2381 20.6444C64.7569 19.721 65.316 18.8904 65.9153 18.1527C66.1443 17.8329 66.4076 17.6599 66.7051 17.6339C67.3002 17.5818 67.7373 17.6828 68.0165 17.9368C68.3169 18.1889 68.482 18.4849 68.5118 18.825C68.5471 19.2288 68.4711 19.7065 68.2838 20.2583C68.2174 20.4782 68.1021 20.8738 67.9379 21.4449C67.7719 21.9948 67.6049 22.5341 67.437 23.0628C67.7168 22.5886 68.0607 21.991 68.4687 21.27C68.898 20.5472 69.3389 19.8341 69.7913 19.1306C70.2631 18.4041 70.692 17.799 71.078 17.3156C71.464 16.8321 71.7526 16.582 71.9439 16.5652C72.4114 16.5243 72.8407 16.6581 73.2318 16.9665C73.6422 17.2518 73.8576 17.5114 73.8781 17.7452C73.9078 18.0852 73.7875 18.5454 73.517 19.1259C73.2466 19.7063 72.7915 20.6241 72.1518 21.8793C71.7863 22.5966 71.4282 23.3989 71.0775 24.2861C70.7462 25.1503 70.6076 25.8905 70.6615 26.5068C70.7098 27.0594 70.8934 27.3217 71.2122 27.2938C71.4034 27.2771 71.597 27.1638 71.7927 26.9539C71.9304 26.8134 72.067 26.6623 72.2028 26.5005C72.3385 26.3387 72.4761 26.1982 72.6156 26.0789C72.4791 26.4763 72.3254 26.8003 72.1546 27.0508C71.9837 27.3013 71.7496 27.4396 71.452 27.4656Z" fill="#453C3C"/>
<path d="M57.4911 28.6843C56.9173 28.7345 56.519 28.5874 56.2961 28.2428C56.0751 27.9195 55.9497 27.5878 55.9199 27.2478C55.8716 26.6952 55.9276 26.1121 56.0881 25.4985C56.268 24.8617 56.47 24.2337 56.6942 23.6145C57.0956 22.5729 57.4122 21.785 57.6438 21.2507C57.8755 20.7165 58.0333 20.3172 58.1172 20.0529C58.2224 19.7867 58.2657 19.5474 58.2471 19.3349C58.2285 19.1223 58.1633 18.9889 58.0515 18.9344C57.9396 18.8799 57.8306 18.8574 57.7243 18.8666C57.5756 18.8797 57.4111 18.9583 57.231 19.1025C57.049 19.2255 56.8805 19.3795 56.7253 19.5644C56.3975 19.9785 56.0471 20.5017 55.6741 21.134C55.2993 21.745 54.9379 22.3869 54.5899 23.0598C54.2612 23.7096 53.9705 24.3025 53.7176 24.8386C53.4859 25.3728 53.3263 25.7508 53.2386 25.9726C53.0808 26.3719 52.8744 26.5827 52.6193 26.605C52.3218 26.6311 51.9951 26.4455 51.6391 26.0483C51.7581 25.6953 51.8947 25.2979 52.0487 24.8561C52.201 24.3931 52.3523 23.9194 52.5026 23.4351C52.6881 22.8621 52.8476 22.2378 52.9812 21.5623C53.1361 20.8849 53.194 20.323 53.155 19.8767C53.1159 19.4304 52.9795 19.2175 52.7457 19.238C52.5545 19.2547 52.3134 19.4364 52.0225 19.7831C51.7491 20.0854 51.4144 20.543 51.0183 21.1558C50.6416 21.7456 50.2599 22.4 49.8731 23.1191C49.4863 23.8382 49.1508 24.5314 48.8665 25.1988C48.6016 25.843 48.4444 26.3707 48.3947 26.7819C48.3615 26.8919 48.2705 26.9534 48.1217 26.9664C47.9305 26.9831 47.7211 26.9158 47.4937 26.7644C47.2663 26.6129 47.1465 26.345 47.1343 25.9606C47.1287 25.8969 47.1933 25.6557 47.328 25.237C47.4608 24.7971 47.6199 24.2906 47.8054 23.7176C48.0121 23.1427 48.209 22.5794 48.3963 22.0277C48.5836 21.4759 48.7377 21.0341 48.8586 20.7023C48.6987 20.5878 48.6053 20.4996 48.5785 20.4377C48.5729 20.374 48.5779 20.3093 48.5936 20.2437C48.6499 20.1531 48.7316 19.9853 48.8387 19.7404C48.9439 19.4742 49.05 19.2187 49.1571 18.9737C49.2623 18.7076 49.3218 18.531 49.3356 18.4442C49.4169 18.3942 49.5813 18.3156 49.8289 18.2083C50.0959 18.0778 50.3569 18.0015 50.6119 17.9792L50.7394 17.968C50.9945 17.9457 51.1285 18.0089 51.1415 18.1577C51.1545 18.3064 51.0969 18.5042 50.9685 18.751C50.9141 18.8629 50.7983 19.13 50.6211 19.5523C50.442 19.9535 50.2367 20.4212 50.005 20.9554C49.7733 21.4896 49.5611 22.0007 49.3682 22.4887C49.1947 22.9536 49.066 23.3182 48.9821 23.5825C48.8963 23.8256 48.8858 24.0728 48.9506 24.3241C49.3143 23.5856 49.7565 22.7653 50.2771 21.8631C50.796 20.9397 51.355 20.1092 51.9544 19.3715C52.1834 19.0516 52.4466 18.8787 52.7442 18.8526C53.3392 18.8006 53.7763 18.9015 54.0555 19.1555C54.356 19.4076 54.5211 19.7037 54.5508 20.0437C54.5862 20.4475 54.5102 20.9253 54.3229 21.477C54.2565 21.697 54.1412 22.0925 53.977 22.6637C53.811 23.2136 53.644 23.7529 53.4761 24.2815C53.7558 23.8073 54.0997 23.2097 54.5078 22.4888C54.9371 21.7659 55.3779 21.0528 55.8303 20.3494C56.3022 19.6228 56.7311 19.0178 57.1171 18.5343C57.5031 18.0508 57.7917 17.8007 57.983 17.784C58.4505 17.7431 58.8798 17.8768 59.2708 18.1853C59.6813 18.4706 59.8967 18.7301 59.9171 18.9639C59.9469 19.3039 59.8266 19.7642 59.5561 20.3446C59.2857 20.9251 58.8306 21.8429 58.1909 23.0981C57.8254 23.8153 57.4672 24.6176 57.1166 25.5049C56.7853 26.369 56.6466 27.1093 56.7005 27.7256C56.7489 28.2781 56.9324 28.5405 57.2512 28.5126C57.4425 28.4959 57.636 28.3826 57.8318 28.1727C57.9694 28.0322 58.1061 27.881 58.2419 27.7192C58.3776 27.5575 58.5152 27.4169 58.6547 27.2976C58.5181 27.6951 58.3644 28.019 58.1936 28.2695C58.0228 28.52 57.7886 28.6583 57.4911 28.6843Z" fill="#453C3C"/>
<path d="M41.1285 28.0933C40.5121 28.1472 39.9604 27.9599 39.4732 27.5314C39.0072 27.1011 38.7389 26.4821 38.6683 25.6745C38.6423 25.377 38.6462 25.0554 38.6802 24.7098C38.7336 24.3411 38.818 23.9589 38.9333 23.5634C39.187 22.7917 39.5604 22.0416 40.0534 21.3132C40.5677 20.5829 41.1348 19.9658 41.7546 19.4619C42.3743 18.958 42.9817 18.68 43.5768 18.6279C43.6406 18.6223 43.7177 18.6477 43.8083 18.704C43.897 18.7391 43.9645 18.776 44.0107 18.8148L44.1841 18.9602C44.4614 19.1929 44.7188 19.3203 44.9563 19.3424C45.2151 19.3626 45.4281 19.4724 45.5955 19.6719C45.8858 20.0534 46.0561 20.5311 46.1063 21.1049C46.1751 21.8912 46.006 22.7733 45.599 23.7511C45.2114 24.7059 44.6464 25.5905 43.9039 26.405C43.5317 26.8016 43.1142 27.1701 42.6514 27.5104C42.1887 27.8506 41.681 28.045 41.1285 28.0933ZM41.3209 27.7231C41.831 27.6785 42.3368 27.4629 42.8383 27.0764C43.338 26.6686 43.7859 26.1583 44.182 25.5455C44.5994 24.9308 44.9395 24.2907 45.2025 23.6252C45.4868 22.9579 45.6463 22.3336 45.6811 21.7524C45.6931 21.6443 45.6944 21.5371 45.6851 21.4308C45.6952 21.3014 45.6965 21.1943 45.6891 21.1092C45.6389 20.5354 45.4645 20.1331 45.1659 19.9022C44.8655 19.6501 44.524 19.5408 44.1414 19.5743C43.7376 19.6096 43.3344 19.7734 42.9317 20.0656C42.5483 20.3347 42.081 20.8681 41.5298 21.6659C40.9767 22.4424 40.4901 23.2452 40.0701 24.0742C39.6852 24.8146 39.5216 25.5142 39.5792 26.173C39.6201 26.6406 39.7829 27.0332 40.0677 27.3509C40.3719 27.6455 40.7896 27.7696 41.3209 27.7231Z" fill="#453C3C"/>
<path d="M34.1449 28.7059C33.4861 28.7635 32.9015 28.5684 32.3912 28.1205C31.9022 27.6708 31.6214 27.0315 31.5489 26.2026C31.4949 25.5863 31.5754 24.9154 31.7904 24.1899C32.0441 23.4182 32.3971 22.6806 32.8495 21.9772C33.3214 21.2506 33.8468 20.6479 34.4259 20.1689C35.0032 19.6687 35.5894 19.3926 36.1844 19.3405C36.5882 19.3052 36.9916 19.3877 37.3946 19.588C37.7957 19.767 37.9646 20.1056 37.9011 20.6037C37.8854 20.6693 37.8466 20.7155 37.7847 20.7424C37.7441 20.7673 37.7228 20.7692 37.7209 20.7479C37.535 20.3359 37.1976 20.1513 36.7088 20.194C36.4325 20.2182 36.154 20.339 35.8732 20.5563C35.3172 21.0546 34.8005 21.6352 34.3231 22.298C33.8651 22.9377 33.4824 23.5815 33.1751 24.2294C32.8677 24.8773 32.6726 25.4619 32.5897 25.9831C32.5658 26.1993 32.54 26.3943 32.5124 26.568C32.5041 26.7187 32.5075 26.879 32.5223 27.049C32.5688 27.5803 32.7404 27.9508 33.0372 28.1604C33.332 28.3487 33.6707 28.4262 34.0533 28.3927C34.6696 28.3388 35.2267 28.0973 35.7245 27.6683C36.1604 27.2661 36.5598 26.8136 36.9227 26.3107C37.2856 25.8078 37.6332 25.2527 37.9656 24.6455C38.02 24.5336 38.0791 24.4749 38.1429 24.4693C38.1641 24.4675 38.1766 24.4878 38.1803 24.5303C38.1859 24.5941 38.1527 24.704 38.0807 24.8602C37.8029 25.3557 37.4862 25.8973 37.1307 26.4852C36.7734 27.0518 36.3652 27.5266 35.9062 27.9094C35.6273 28.1479 35.3331 28.3343 35.0236 28.4684C34.7353 28.6007 34.4424 28.6799 34.1449 28.7059Z" fill="#453C3C"/>
<path d="M26.6498 29.2962C26.076 29.3464 25.527 29.1909 25.0029 28.8299C24.4982 28.4458 24.2105 27.8499 24.1398 27.0423C24.084 26.4048 24.1936 25.6992 24.4686 24.9256C24.7435 24.1521 25.1169 23.402 25.5887 22.6754C26.0818 21.947 26.617 21.3327 27.1942 20.8325C27.7715 20.3323 28.3248 20.0483 28.8543 19.9806C28.9467 20.0581 29.0479 20.1135 29.1579 20.1467C29.2892 20.1781 29.4098 20.2104 29.5197 20.2436L30.3653 20.3623C30.844 20.4489 31.1038 20.726 31.1447 21.1936C31.1689 21.4698 31.0993 21.7757 30.9359 22.1113C30.7938 22.4449 30.5523 22.7444 30.2115 23.0098C30.0314 23.1541 29.83 23.3002 29.6074 23.4481C29.406 23.5942 29.194 23.7413 28.9714 23.8892L27.6038 24.7798C27.178 25.0526 26.8071 25.3421 26.4913 25.6481C26.1735 25.9329 25.9533 26.2305 25.8306 26.5411C25.8306 26.5411 25.7996 26.5545 25.7377 26.5813C25.6952 26.585 25.6809 26.5435 25.6947 26.4566C25.8118 26.0823 26.0671 25.6959 26.4606 25.2974C26.8734 24.8758 27.2909 24.5074 27.713 24.1921C27.9106 24.0035 28.1102 23.8361 28.3115 23.69C28.5341 23.542 28.7452 23.3844 28.9447 23.217C29.1442 23.0496 29.3331 22.8832 29.5113 22.7177C29.709 22.5291 29.8757 22.3539 30.0114 22.1921C30.1666 22.0072 30.2686 21.827 30.3175 21.6514C30.3876 21.4739 30.4171 21.3215 30.4059 21.194C30.3706 20.7902 30.1192 20.6087 29.6516 20.6496C29.3541 20.6757 29.0252 20.8329 28.665 21.1214C28.2253 21.4811 27.8125 21.9027 27.4265 22.3862C27.0387 22.8484 26.6758 23.3513 26.3379 23.8948C25.9824 24.4827 25.6769 25.1518 25.4213 25.9023C25.187 26.6509 25.0913 27.2696 25.134 27.7584C25.1768 28.2472 25.3456 28.5858 25.6405 28.7741C25.9547 28.9394 26.3031 29.0053 26.6857 28.9718C27.217 28.9253 27.7149 28.7425 28.1796 28.4235C28.5223 28.1794 28.8391 27.884 29.1299 27.5373C29.419 27.1694 29.6586 26.8486 29.8488 26.575C30.0002 26.3476 30.1692 26.0758 30.3557 25.7597C30.5634 25.4417 30.7033 25.2046 30.7753 25.0484C30.8141 25.0022 30.846 24.9994 30.8709 25.0401C30.8959 25.0807 30.9093 25.1117 30.9112 25.1329C30.8392 25.2891 30.7118 25.5465 30.529 25.9052C30.3656 26.2407 30.1141 26.6696 29.7743 27.1918C29.3782 27.8047 28.9497 28.2919 28.4888 28.6534C28.0279 29.015 27.4149 29.2292 26.6498 29.2962Z" fill="#453C3C"/>
<path d="M19.035 30.9912C18.5037 31.0377 17.9742 30.8592 17.4463 30.4557C16.9185 30.0521 16.4201 29.4961 15.9512 28.7876C15.4824 28.0791 15.0611 27.3022 14.6873 26.4569C14.3135 25.6116 14.0035 24.7607 13.7573 23.9042C13.5323 23.0459 13.39 22.2767 13.3305 21.5967L13.3277 21.5648C13.3184 21.4585 13.3438 21.3813 13.4039 21.3333C13.462 21.2639 13.5008 21.2177 13.5202 21.1946C13.6384 21.0772 13.9063 20.9574 14.3239 20.8352C15.5167 20.5167 16.6952 20.1566 17.8593 19.7549C19.0446 19.3514 20.1301 18.7853 21.1156 18.0567C22.0993 17.3068 22.8995 16.2945 23.5161 15.0199C23.7321 14.5513 23.8215 14.1045 23.7843 13.6794C23.7378 13.1481 23.4668 12.7435 22.9714 12.4657C22.4954 12.1647 21.8886 11.9608 21.1512 11.854C20.4331 11.7241 19.6781 11.6616 18.8862 11.6667C18.8086 11.7591 18.7011 11.8756 18.5634 12.0161C18.4471 12.1548 18.3511 12.281 18.2753 12.3947C17.7711 12.9956 17.1737 13.7545 16.483 14.6716C15.7923 15.5886 15.0877 16.5925 14.3694 17.6832C13.6492 18.7527 12.9849 19.8495 12.3766 20.9734C11.7682 22.0974 11.2855 23.189 10.9285 24.2481C10.5927 25.3054 10.4629 26.2697 10.5391 27.141C10.5726 27.5236 10.668 27.8793 10.8252 28.2082C10.9806 28.5158 11.294 28.6704 11.7652 28.672C11.6839 28.722 11.6008 28.7506 11.5158 28.7581C11.2183 28.7841 10.9308 28.6808 10.6535 28.4481C10.3743 28.1941 10.1445 27.893 9.96413 27.5447C9.7819 27.1752 9.67777 26.8416 9.65173 26.5441C9.59038 25.8428 9.69944 25.0088 9.97891 24.0421C10.2584 23.0754 10.6501 22.0453 11.1541 20.9519C11.6562 19.8372 12.2336 18.7267 12.8863 17.6202C13.5584 16.4907 14.2573 15.4231 14.9831 14.4173C15.7089 13.4116 16.4121 12.5149 17.0927 11.7272C16.0957 11.8359 14.9315 11.9912 13.6 12.1934C12.288 12.3724 10.9399 12.6296 9.55585 12.9648C8.16995 13.2788 6.87741 13.681 5.67826 14.1713C4.49849 14.6386 3.5424 15.2148 2.81 15.8999C2.63174 16.0654 2.47939 16.2822 2.35293 16.5502C2.24773 16.8164 2.20629 17.077 2.2286 17.332C2.25091 17.5871 2.34389 17.7931 2.50753 17.9501C2.55375 17.9889 2.57872 18.0295 2.58244 18.072C2.58802 18.1358 2.54923 18.182 2.46608 18.2107C2.40419 18.2375 2.35106 18.2422 2.30669 18.2246C2.08116 18.0944 1.82879 17.9024 1.54959 17.6484C1.29165 17.3926 1.06558 17.134 0.871391 16.8726C0.675344 16.5899 0.569882 16.3636 0.555008 16.1936C0.508525 15.6623 0.880177 15.1372 1.66997 14.6184C2.45975 14.0996 3.49859 13.6125 4.78647 13.1572C6.07436 12.7019 7.44406 12.3251 8.89559 12.0268C9.69387 11.8499 10.6322 11.6821 11.7104 11.5235C12.8081 11.3418 13.9308 11.2008 15.0784 11.1004C15.971 11.0223 16.8345 10.9789 17.6689 10.9701L17.9335 10.69C17.8854 10.6299 17.8548 10.5255 17.8418 10.3768C17.8177 10.1005 17.982 9.77561 18.3348 9.40211C18.4299 9.2653 18.5471 9.13726 18.6866 9.01798C18.8261 8.8987 18.9549 8.78036 19.0731 8.66294C19.2145 8.56492 19.3248 8.48031 19.4043 8.40912C19.4818 8.31667 19.5913 8.22143 19.7326 8.12341C20.032 8.11863 20.3042 8.16977 20.5491 8.27683C20.8134 8.36078 20.9595 8.56215 20.9874 8.88093C20.9949 8.96594 20.9829 9.07406 20.9516 9.20529C20.9008 9.35963 20.7803 9.57361 20.5901 9.84723C20.3981 10.0996 20.1072 10.4463 19.7175 10.8872C20.2987 10.9221 20.8961 11.0197 21.5098 11.1802C22.1216 11.3194 22.6683 11.5713 23.1499 11.9361C23.6509 12.2777 24.0047 12.7714 24.2111 13.4172C24.371 13.5317 24.4958 13.735 24.5856 14.0269C24.6948 14.2958 24.7624 14.5789 24.7884 14.8765C24.8442 15.514 24.6616 16.1189 24.2405 16.6911C23.8407 17.2615 23.3069 17.7686 22.639 18.2125C21.9924 18.6545 21.318 19.024 20.6159 19.321C19.9138 19.618 19.2883 19.8119 18.7395 19.9028C18.4013 19.9538 17.889 20.095 17.2026 20.3264C16.5355 20.5346 15.8906 20.7517 15.2679 20.9774C15.3237 21.615 15.4391 22.3223 15.6142 23.0993C15.7892 23.8764 15.9846 24.6409 16.2003 25.393C16.4373 26.1432 16.6765 26.7968 16.918 27.3539C17.2612 28.0948 17.6704 28.7336 18.1457 29.2702C18.6403 29.7837 19.1639 30.0163 19.7164 29.9679C20.014 29.9419 20.3041 29.8309 20.5867 29.6348C20.8906 29.4369 21.1959 29.1318 21.5024 28.7195C21.7527 28.3978 22.0011 28.0549 22.2476 27.6907C22.4941 27.3265 22.7106 26.9863 22.8971 26.6702C23.0836 26.3541 23.2323 26.0948 23.343 25.8924C23.4732 25.6668 23.5664 25.5088 23.6228 25.4182C23.6772 25.3063 23.7363 25.2476 23.8001 25.2421C23.8426 25.2383 23.8666 25.2684 23.8722 25.3321C23.8778 25.3959 23.863 25.4721 23.828 25.5608C23.6415 25.877 23.3724 26.3502 23.0206 26.9806C22.6883 27.5879 22.3795 28.0967 22.0942 28.5072C21.6612 29.1875 21.1967 29.7528 20.7007 30.2031C20.2278 30.6727 19.6726 30.9355 19.035 30.9912Z" fill="#453C3C"/>
</svg>
