<svg width="330" height="188" viewBox="0 0 330 188" fill="none" xmlns="http://www.w3.org/2000/svg">
<g clip-path="url(#clip0_3036_22163)">
<path d="M62.5668 72.7061V61.25C55.3769 62.2846 48.2718 63.4274 41.2422 64.6737L62.5668 72.7014V72.7061Z" fill="#EB5925"/>
<path d="M8 29.7347L12.7854 36.9395L8.99009 43.7304L13.0777 49.3409L9.6973 55.3981L13.7802 61.0039L10.3998 67.0612L14.4874 72.6669L11.7671 80.0034C27.4671 77.144 43.0398 75.8037 59.2112 75.056L37.8819 67.0235V24.3594C27.5849 24.9425 13.9358 27.689 8 29.7394L8 29.7347Z" fill="#EB5925"/>
<path d="M164.999 0C207.403 0 248.982 3.37664 288.755 9.90418V61.325C249.765 54.4071 208.176 50.6731 164.999 50.6731C121.821 50.6731 80.2376 54.4071 41.2422 61.325V9.90418C81.0155 3.37664 122.595 0 164.999 0Z" fill="#EB5925"/>
<path d="M267.43 72.7061V61.25C274.62 62.2846 281.725 63.4274 288.754 64.6737L267.43 72.7014V72.7061Z" fill="#EB5925"/>
<path d="M322 29.7347L317.215 36.9395L321.01 43.7304L316.923 49.3409L320.303 55.3981L316.22 61.0039L319.6 67.0612L315.513 72.6669L318.233 80.0034C302.533 77.144 286.961 75.8037 270.789 75.056L292.118 67.0235V24.3594C302.415 24.9425 316.064 27.689 322 29.7394V29.7347Z" fill="#EB5925"/>
<path d="M81.807 34.9231C81.1611 34.9936 79.1856 35.0877 78.4407 35.1347C76.8754 35.2335 75.3101 35.337 73.7495 35.4451C73.8721 37.2745 73.9947 39.0992 74.122 40.9286C72.7642 41.1403 71.411 41.3519 70.0532 41.5635C69.9165 39.6212 69.7797 37.6743 69.6383 35.732C66.9839 35.9201 64.3342 36.1129 61.6799 36.3151C60.322 36.4186 59.2094 36.7619 58.6719 36.9359C58.7096 36.428 58.7426 35.9201 58.7803 35.4122C59.5017 35.4827 60.6426 35.4921 61.5148 35.4263C61.8826 35.3981 62.2503 35.3699 62.6134 35.3417C62.4059 33.0373 62.1136 30.0321 61.9392 27.756C63.297 27.8359 64.6548 27.9159 66.0174 28.0005C66.0315 28.2027 66.0457 28.405 66.0598 28.6072C67.0688 28.5319 68.0777 28.4614 69.0867 28.3909C68.8839 25.9595 68.7378 23.909 68.6529 22.7522C67.2574 22.8509 65.8665 22.9497 64.471 23.0531C63.4007 25.033 61.8072 26.9236 59.0349 28.7154C58.9406 28.6025 58.8416 28.4943 58.7473 28.3815C60.9255 25.2494 61.5007 21.5341 61.6751 17.7812C63.1603 18.0775 64.6407 18.3785 66.1258 18.6795C65.7817 19.8646 65.4375 21.0168 64.9283 22.1173C67.9881 21.8915 71.0527 21.6799 74.1126 21.4777C74.5463 20.6124 75.1875 19.3802 75.4563 18.9429C76.6538 19.6671 77.9928 21.0638 78.1908 22.1126C77.5402 22.1878 75.5458 22.2819 74.7915 22.3336C74.1691 22.3759 73.5515 22.4183 72.9292 22.4559C72.9952 23.4482 73.1413 25.5645 73.2781 28.0993C73.5939 28.0758 73.9051 28.057 74.221 28.0381C74.6548 27.1728 75.2912 25.9407 75.5553 25.5033C76.7481 26.2323 78.0824 27.6243 78.2804 28.673C77.6297 28.7483 75.6448 28.8423 74.8999 28.8941C74.3813 28.927 73.858 28.9646 73.3393 28.9975C73.4666 30.8457 73.5892 32.694 73.7165 34.5422C75.0649 34.4528 76.4133 34.3635 77.7665 34.2741C78.2002 33.4088 78.8367 32.1766 79.1007 31.744C80.2888 32.4729 81.609 33.8744 81.807 34.9231ZM69.5723 34.829C69.4073 32.9385 69.2706 31.048 69.148 29.2891C68.1296 29.3596 67.1112 29.4349 66.0928 29.5054C66.2154 31.2032 66.3851 33.4793 66.5313 35.0454C67.545 34.9701 68.5586 34.8996 69.577 34.829H69.5723Z" fill="white"/>
<path d="M95.1419 26.7696C95.1278 26.4827 95.1136 26.1911 95.0995 25.9043C93.9397 25.9654 92.7751 26.0265 91.6153 26.0877C91.8463 30.9645 92.1575 36.6738 92.4687 40.6477C91.1815 40.7935 89.8991 40.9393 88.612 41.085C88.2207 35.8931 87.6785 27.5597 87.3532 21.8833C87.207 19.3485 87.1269 17.3263 87.0703 16.334C88.4376 16.4281 89.8001 16.5221 91.1674 16.6209C91.1768 16.8043 91.1863 16.983 91.1957 17.1664C92.3225 17.1053 93.4493 17.0441 94.5714 16.9877C94.5526 16.635 94.5054 16.3481 94.496 16.1224C95.703 16.1694 96.9146 16.2117 98.1216 16.2635C98.2678 17.8953 98.4941 22.4853 98.7204 26.431C97.5275 26.5439 96.3394 26.6567 95.1466 26.7696H95.1419ZM95.0523 25.006C94.9627 23.915 94.9015 22.7299 94.8402 21.573C93.6945 21.6341 92.5535 21.6905 91.4078 21.7517C91.4644 22.8098 91.4974 23.9667 91.5634 25.1847C92.728 25.1236 93.8878 25.0625 95.0523 25.0013V25.006ZM91.2428 18.0646C91.2805 18.803 91.3041 19.7671 91.3607 20.8581C92.5064 20.797 93.652 20.7359 94.793 20.6794C94.7411 19.6542 94.6563 18.6901 94.6139 17.8906C93.487 17.9471 92.3649 18.0082 91.2381 18.0693L91.2428 18.0646ZM105.557 29.074C105.665 31.5477 105.882 34.9431 106.061 38.3151C104.859 38.442 103.657 38.5737 102.454 38.7007C102.436 38.2727 102.417 37.8448 102.393 37.4168C101.318 37.4686 100.239 37.5203 99.1636 37.572C99.1824 37.9577 99.2343 38.3104 99.2484 38.6302C98.0462 38.7618 96.8439 38.8982 95.6464 39.0346C95.3823 35.7661 95.1325 31.6605 95.0052 29.1257C96.2357 29.168 97.4663 29.2151 98.6921 29.2621C98.7062 29.596 98.7251 29.9252 98.7392 30.2591C99.8095 30.2074 100.884 30.1556 101.955 30.1039C101.936 29.6571 101.884 29.2715 101.865 28.8859C103.096 28.947 104.326 29.0081 105.552 29.074H105.557ZM98.7864 31.1573C98.8241 31.9051 98.8618 32.6528 98.8948 33.4053C99.9839 33.3536 101.078 33.3018 102.167 33.2501C102.129 32.4788 102.096 31.7123 102.03 31.0069C100.95 31.0586 99.866 31.1103 98.7864 31.162V31.1573ZM99.0881 36.6738C100.177 36.622 101.266 36.5703 102.351 36.5186C102.313 35.7285 102.275 34.9337 102.238 34.1436C101.148 34.1954 100.059 34.2471 98.9655 34.2988C99.0033 35.0889 99.0457 35.8837 99.0834 36.6738H99.0881ZM109.272 40.0081C109.046 36.1282 108.772 30.3202 108.527 25.2788C107.344 25.3258 106.16 25.3776 104.977 25.4293C104.986 25.6409 104.996 25.8572 105.005 26.0689C103.822 26.1629 102.643 26.2617 101.46 26.3604C101.205 22.9932 100.936 17.3169 100.729 15.7508C101.959 15.7979 103.19 15.8496 104.42 15.906C104.43 16.1083 104.439 16.3105 104.449 16.5174C105.684 16.461 106.919 16.4092 108.155 16.3575C108.145 16.08 108.131 15.8026 108.122 15.5251C109.47 15.511 110.818 15.5016 112.162 15.4922C112.252 17.7731 112.808 32.1214 113.171 39.7259C111.87 39.82 110.573 39.914 109.277 40.0128L109.272 40.0081ZM108.305 20.0492C108.268 19.1181 108.225 18.1869 108.188 17.2558C106.952 17.3075 105.717 17.3592 104.482 17.4156C104.515 18.1211 104.581 18.9535 104.637 20.2044C105.858 20.148 107.08 20.0963 108.301 20.0492H108.305ZM108.485 24.3806C108.437 23.2378 108.39 22.0903 108.343 20.9475C107.131 20.9992 105.924 21.0509 104.713 21.1027C104.755 22.0338 104.835 23.1531 104.897 24.5357C106.094 24.484 107.287 24.4323 108.485 24.3806Z" fill="white"/>
<path d="M141.336 30.0882C141.336 30.2763 141.341 30.4691 141.346 30.6573C141.228 34.9227 137.975 39.2776 131.285 39.635C123.595 39.8325 119.861 35.0027 119.413 29.0912C119.403 28.8561 119.399 28.6162 119.389 28.3811C119.097 20.2499 124.967 10.4068 135.419 9.27344C135.542 9.60264 135.66 9.93184 135.782 10.261C130.992 11.3615 128.017 16.2289 126.839 22.0416C128.314 21.3362 129.894 21.0117 131.534 21.0164C137.805 21.0023 141.247 24.7881 141.336 30.0882ZM131.054 22.9728C129.658 22.9587 128.046 23.951 126.325 25.992C126.23 27.6521 126.278 29.3546 126.424 31.01C126.768 34.6453 127.777 38.2147 130.441 38.29C133.774 38.3934 135.217 34.9556 135.188 31.3533C135.118 26.0014 133.51 23.0057 131.054 22.9728Z" fill="#FFF100"/>
<path d="M165.338 18.301C164.683 18.3339 162.359 18.301 161.571 18.3057C156.899 18.3198 152.227 18.3575 147.554 18.4186C146.178 18.4374 145.103 18.7102 144.48 18.8466C144.551 18.3434 144.617 17.8401 144.688 17.3322C145.607 17.4451 146.56 17.5298 147.446 17.5157C151.916 17.4545 156.38 17.4169 160.85 17.4028C161.402 16.4716 162.222 15.0843 162.514 14.6328C163.698 15.4652 165.272 17.1347 165.338 18.2916V18.301ZM163.094 24.2783C163.269 29.3245 162.401 36.4869 159.832 38.3304C156.951 36.9948 155.947 36.327 154.216 34.7704C154.268 34.6716 154.325 34.5776 154.377 34.4788C155.249 34.5352 155.866 34.5634 156.644 34.5258C157.649 34.4882 157.903 34.1637 158.219 32.1368C158.469 30.5613 158.521 28.1535 158.478 26.1924C156.611 26.2018 154.744 26.2159 152.877 26.2347C151.68 30.646 149.379 33.7875 145.659 35.8003C145.537 35.6827 145.419 35.5699 145.296 35.4523C148.347 31.6806 149.195 26.1124 149.247 19.8483C150.775 20.0552 152.307 20.2621 153.834 20.4737C153.688 22.242 153.471 23.8504 153.127 25.3318C154.909 25.313 156.692 25.3036 158.469 25.2941C158.431 24.7157 158.431 24.2031 158.394 23.8175C159.959 23.9679 161.524 24.1231 163.094 24.283V24.2783Z" fill="#FFF100"/>
<path d="M179.319 16.1485C178.399 19.8355 176.636 22.7748 173.953 25.0698C175.028 25.2673 176.103 25.4695 177.173 25.6717C177.018 29.0437 177.013 33.4126 176.975 38.1672C175.684 38.2424 174.392 38.3177 173.1 38.3976C173.062 32.9658 173.048 29.4011 173.067 25.7705C172.152 26.4712 171.106 27.1108 169.998 27.6845C169.913 27.5435 169.823 27.4071 169.738 27.266C173.491 23.3579 174.708 18.8714 175.056 15.1797C176.476 15.4995 177.895 15.8193 179.314 16.1438L179.319 16.1485ZM193.562 38.5011C193.576 37.8897 193.585 37.2783 193.599 36.6717C190.681 36.6105 187.763 36.5635 184.84 36.5212C184.646 36.5212 184.453 36.5165 184.26 36.5447C184.255 37.0573 184.278 37.5746 184.274 38.0543C183.043 38.1437 181.817 38.2377 180.592 38.3318C180.61 30.6191 180.615 20.9172 180.7 16.3883C181.902 16.52 183.105 16.6517 184.302 16.7834C184.297 17.169 184.293 17.5546 184.288 17.9403C187.475 17.9826 190.667 18.0343 193.854 18.1002C193.863 17.5969 193.873 17.0937 193.882 16.5905C195.103 16.7316 196.325 16.8774 197.546 17.0232C197.48 24.1903 197.343 30.1959 197.22 38.2894C196.004 38.36 194.783 38.4258 193.566 38.5011H193.562ZM193.585 35.7687C193.665 30.177 193.746 24.5901 193.83 18.9984C190.643 18.9326 187.456 18.8808 184.269 18.8385C184.25 22.5349 184.194 29.5704 184.241 35.6088C187.357 35.6511 190.474 35.7029 193.585 35.764V35.7687ZM192.562 26.9462C192.534 28.3288 192.553 30.7696 192.543 33.0176C191.732 33.0787 190.922 33.1351 190.111 33.1963C190.115 32.8106 190.158 32.4579 190.162 32.1052C189.351 32.0911 188.541 32.077 187.73 32.0629C187.725 32.3827 187.753 32.7401 187.744 33.1257C186.933 33.1869 186.122 33.248 185.311 33.3138C185.259 30.2617 185.273 29.039 185.339 26.6311C186.009 26.7252 186.683 26.8239 187.352 26.918C187.352 27.1202 187.348 27.3271 187.343 27.5293C187.494 27.5293 187.645 27.534 187.8 27.5387C187.786 26.3489 187.8 25.2579 187.786 24.2609C187.418 24.2562 187.046 24.2515 186.678 24.2421C185.929 24.2609 185.372 24.4819 184.877 24.5995C184.962 24.0963 185.042 23.5931 185.127 23.0946C185.745 23.2309 186.103 23.3344 186.593 23.3391C186.994 23.3438 187.4 23.3532 187.8 23.3579C187.781 22.3609 187.8 21.4298 187.815 20.4328C188.597 20.5409 189.38 20.6491 190.162 20.762C190.148 21.6414 190.129 22.5161 190.115 23.3955C190.332 23.3955 190.549 23.405 190.766 23.405C191.101 22.7983 191.44 22.2904 191.742 21.9753C192.449 22.6948 192.921 23.5743 193.1 24.3455C192.11 24.3267 191.12 24.3079 190.134 24.2891C190.115 25.4131 190.125 26.57 190.144 27.567C190.252 27.567 190.36 27.567 190.469 27.5717C190.469 27.313 190.478 27.0261 190.45 26.7016C191.153 26.7769 191.86 26.8568 192.562 26.9321V26.9462ZM190.172 31.207C190.191 30.1488 190.205 29.2788 190.186 28.4746C189.375 28.4605 188.559 28.4464 187.748 28.4323C187.739 29.0766 187.725 29.9748 187.739 31.1646C188.55 31.1787 189.361 31.1929 190.172 31.207Z" fill="#FFF100"/>
<path d="M229.031 19.2006C228.612 21.1429 225.392 22.9252 222.483 23.6448C222.412 23.5554 222.337 23.4661 222.266 23.3767C223.364 22.1352 224.138 20.8513 224.618 19.5862C219.687 19.3746 214.755 19.1959 209.824 19.036C209.036 19.0454 208.315 19.083 207.759 19.1348C207.919 21.4532 207.49 23.6918 206.608 24.7876C205.411 24.0445 204.213 23.3062 203.016 22.5631C204.496 20.9971 206.179 18.3118 206.858 16.3742C207 16.4212 207.141 16.4682 207.282 16.5153C207.433 17.0044 207.518 17.4888 207.598 17.9732C208.315 18.0578 209.201 18.1519 209.758 18.1377C211.167 18.1801 212.572 18.2271 213.982 18.2788C214.006 16.6705 214.015 15.5136 214.076 13.75C215.561 13.8958 217.047 14.0463 218.536 14.2015C218.489 15.4524 218.433 16.868 218.409 18.4387C220.583 18.5234 222.756 18.608 224.925 18.7021C225.043 18.2553 225.161 17.8133 225.212 17.3947C226.49 17.9967 227.763 18.5986 229.036 19.2053L229.031 19.2006ZM214.463 23.2074C212.275 26.7628 209.494 28.3711 205.378 28.959C205.316 28.8414 205.255 28.7191 205.194 28.6016C208.207 26.8239 210.144 24.3173 210.927 21.5144C212.11 22.0787 213.289 22.6431 214.468 23.2074H214.463ZM225.712 33.6195C225.062 33.6195 222.766 33.4925 221.988 33.4596C220.055 33.3796 218.122 33.3044 216.189 33.2339C214.435 37.6686 209.965 38.9572 206.165 39.8131C206.104 39.672 206.042 39.531 205.986 39.3899C209.248 37.109 210.979 35.7546 211.818 33.0787C210.833 33.0457 209.852 33.0128 208.871 32.9846C207.476 33.0034 206.302 33.1633 205.816 33.2762C205.906 32.773 205.995 32.2745 206.085 31.7713C206.698 31.9171 207.928 32.0535 208.801 32.077C209.88 32.1099 210.965 32.1475 212.044 32.1804C212.271 31.1928 212.379 30.0077 212.426 28.5592C213.935 28.8696 215.444 29.18 216.948 29.4904C216.91 30.5485 216.745 31.475 216.519 32.3356C218.159 32.3968 219.805 32.4579 221.445 32.5284C221.959 31.8089 222.747 30.9107 223.025 30.5344C224.255 31.3904 225.538 32.6366 225.722 33.6101L225.712 33.6195ZM224.439 23.7906C225.217 24.6935 226.052 26.4947 226.259 27.7268C225.557 28.1783 224.501 28.4229 222.676 28.5075C220.686 28.5875 219.263 28.3993 217.287 28.1031C217.23 26.142 217.117 23.8846 217.254 22.027C218.348 22.2198 219.442 22.4079 220.536 22.6007C220.427 23.6589 220.427 24.5242 220.446 25.714C221.615 25.8269 222.431 25.8598 222.855 25.8128C224.265 25.7093 224.18 25.3237 224.213 23.8423C224.288 23.8235 224.369 23.8047 224.444 23.7859L224.439 23.7906ZM218.008 33.9158C220.649 36.1402 222.784 36.8033 225.444 36.7892C224.849 37.8238 224.373 39.0278 223.991 40.4903C221.12 39.7238 218.607 37.9555 217.575 34.3814C217.721 34.2262 217.867 34.071 218.013 33.9158H218.008Z" fill="white"/>
<path d="M241.222 37.5661C241.251 37.0864 241.274 36.602 241.302 36.1223C240.6 36.0847 239.902 36.047 239.2 36.0094C239.209 36.428 239.186 36.8465 239.2 37.2651C238.082 37.3121 236.97 37.3591 235.852 37.4109C235.89 35.3839 235.97 33.2018 236.046 31.1467C235.107 32.2895 234.051 33.2677 232.901 34.1753C232.788 34.0718 232.675 33.9731 232.557 33.8696C235.334 29.5994 236.036 25.4892 236.696 21.6281C235.517 21.6281 234.527 21.7739 234.094 21.8821C234.193 21.3836 234.296 20.8851 234.395 20.3866C235.041 20.5465 236.248 20.7064 237.13 20.7487C238.832 20.8381 240.529 20.9274 242.231 21.0215C242.764 20.3113 243.471 19.3849 243.787 19.051C244.923 19.8881 245.965 21.172 246.135 22.1454C245.48 22.1407 243.49 21.995 242.736 21.9526C242.071 21.915 241.406 21.8774 240.741 21.8445C240.015 24.3135 239.12 26.4203 238.078 28.2309C238.563 28.3438 239.044 28.4519 239.53 28.5648C239.516 28.8235 239.501 29.0774 239.487 29.3361C240.18 29.3737 240.873 29.4113 241.566 29.449C241.552 29.0962 241.571 28.7435 241.595 28.3861C242.693 28.5883 243.792 28.7859 244.886 28.9881C244.815 31.363 244.702 34.4152 244.523 37.4955C243.419 37.519 242.316 37.5425 241.213 37.5661H241.222ZM241.35 35.224C241.406 33.5969 241.463 31.9697 241.524 30.3425C240.831 30.3049 240.138 30.2672 239.445 30.2296C239.365 31.7392 239.28 33.31 239.247 35.1112C239.949 35.1488 240.647 35.1864 241.35 35.224ZM251.246 22.3194C250.638 29.4301 248.606 35.8354 244.494 39.2309C244.348 39.1133 244.207 39.0004 244.061 38.8828C246.828 34.1518 247.158 26.5755 247.285 19.4413C248.653 19.8316 250.02 20.2267 251.387 20.6217C251.368 20.8898 251.354 21.1578 251.335 21.4212C251.826 21.4494 252.316 21.4823 252.806 21.5153C252.905 19.9539 253.004 18.3926 253.103 16.8359C254.339 17.0758 255.574 17.3156 256.809 17.5555C256.724 18.8676 256.597 20.2455 256.498 21.7551C257.139 21.7974 257.785 21.8398 258.426 21.8821C258.455 21.4353 258.521 20.9885 258.558 20.443C259.86 20.8286 261.156 21.219 262.453 21.6093C261.444 24.2429 259.765 26.251 257.417 27.1916C257.304 27.0975 257.191 27.0035 257.078 26.9094C257.761 25.508 258.092 24.4639 258.304 22.7709C257.681 22.7286 257.064 22.6863 256.441 22.6486C256.324 24.4122 256.201 26.3028 256.102 28.325C254.895 28.3297 253.683 28.3391 252.476 28.3485C252.556 26.552 252.66 24.4028 252.787 22.4135C252.274 22.3806 251.764 22.3477 251.25 22.3194H251.246ZM260.661 37.8764C259.548 39.3766 259.067 40.2467 258.587 41.5964C257.252 41.2484 255.673 40.209 254.202 38.8593C252.439 40.035 250.421 40.7734 248.172 41.0226C248.148 40.8721 248.125 40.7217 248.101 40.5665C249.704 39.7294 251.17 38.5348 252.467 37.0393C251.713 36.1223 251.029 35.1441 250.567 34.1847C250.704 34.0954 250.836 34.006 250.972 33.9214C251.736 34.6785 252.608 35.2805 253.485 35.7884C254.409 34.5609 255.216 33.1971 255.861 31.758C254.824 31.6922 253.787 31.6217 252.745 31.5558C251.741 31.49 250.784 31.6593 250.256 31.7863C250.364 31.2878 250.468 30.7893 250.576 30.2908C251.184 30.4554 251.991 30.6059 252.707 30.6482C253.886 30.7234 255.069 30.7987 256.248 30.8786C256.441 30.4083 256.606 29.9051 256.767 29.4301C258.021 30.018 259.275 30.6059 260.529 31.1984C259.492 33.4793 258.087 35.4733 256.418 37.1052C257.851 37.5519 259.294 37.7824 260.652 37.8764H260.661Z" fill="white"/>
<path d="M266.762 41.3058C266.875 39.7586 268.157 38.8274 269.718 38.945C271.241 39.0625 272.457 39.9702 272.316 41.729C272.184 43.3797 271.024 44.1745 269.327 44.0475C267.775 43.93 266.649 42.8577 266.762 41.3058ZM268.869 36.9698C268.747 31.0536 268.525 25.3773 268.756 21.3281C270.651 21.5727 272.764 21.7749 274.305 21.9301C272.443 27.2349 271.552 30.9125 270.571 37.1015C270.005 37.0591 269.435 37.0168 268.869 36.9698Z" fill="white"/>
</g>
<path d="M48.2737 160.187C46.5446 167.485 44.4435 176.976 43.7649 180.444L37.2016 179.551L41.3478 160.289C40.2415 160.289 39.3026 160.345 38.6146 160.345C37.3038 160.345 35.6769 160.921 34.8867 161.079L35.2028 158.56C35.835 158.718 37.4061 158.876 38.7169 158.876C39.5071 158.876 40.5018 158.82 41.7104 158.82C42.5471 154.888 43.235 151.736 43.393 150.844L50.4212 151.058C50.1609 151.95 49.473 154.944 48.5805 158.718C49.8913 158.662 51.1556 158.662 52.3084 158.662C53.2566 157.454 54.3072 156.087 55.3484 154.934C56.3989 155.148 59.5969 158.29 59.7084 160.075C58.4999 160.075 55.5064 160.131 53.8795 160.075C52.3549 160.075 50.3654 160.131 48.2644 160.177L48.2737 160.187ZM53.5727 177.134C58.0351 180.704 62.0697 180.648 67.8429 178.343L68.2148 185.055H67.062C61.4469 185.055 55.1996 183.586 53.1079 177.608L53.582 177.134H53.5727ZM64.4404 164.854C64.5984 164.119 64.7007 163.329 64.8587 162.492L70.0555 164.751C69.5813 167.429 66.0115 170.999 62.079 172.728L61.763 172.356C62.7577 170.571 63.4921 168.74 64.0685 166.378L57.0403 166.536C55.7295 166.536 54.1026 167.057 53.3682 167.168L53.6285 164.807C54.3072 164.965 55.8318 165.067 57.1426 165.067C59.82 165.012 61.763 164.965 64.4404 164.854Z" fill="#772D2D"/>
<path d="M100.648 175.396C103.744 176.233 106.523 177.86 108.624 179.747L108.253 180.268C104.841 179.375 102.954 179.013 100.016 179.115C98.9095 182.945 95.7115 185.827 90.2545 186.041H89.7339C84.6951 186.041 82.1758 183.419 82.1758 180.64V180.482C82.278 177.6 84.9554 174.653 90.2545 174.29C91.2027 174.234 92.7738 174.29 94.2984 174.392C94.3542 172.133 94.4007 169.512 94.2984 166.676C91.621 166.732 89.1575 166.778 87.8467 166.834C86.4801 166.834 84.8067 167.355 84.0723 167.513L84.3884 165.049C85.0205 165.207 86.5359 165.365 87.9024 165.365C89.269 165.365 91.6303 165.31 94.252 165.263C94.1962 162.958 94.0381 160.54 93.8336 158.021C91.1004 158.077 88.6369 158.179 87.2703 158.179C85.9037 158.179 84.2768 158.7 83.5424 158.914L83.8584 156.45C84.4906 156.552 86.0617 156.766 87.3725 156.71C88.7391 156.71 91.1004 156.655 93.7221 156.608C93.5082 154.507 93.2479 152.36 92.9876 150.156L100.174 150.314C100.388 152.415 100.546 154.516 100.694 156.506C101.531 156.506 102.321 156.45 103.056 156.45C103.846 154.823 104.311 154.089 105.315 152.88C106.31 153.457 108.624 155.716 109.201 157.761C107.676 157.761 105.473 157.817 103.902 157.761C103.009 157.817 101.959 157.817 100.75 157.863C100.908 160.438 100.964 162.902 101.011 165.161C101.801 165.105 102.535 165.105 103.214 165.105C104.004 163.478 104.469 162.688 105.417 161.489C106.468 162.065 108.773 164.324 109.35 166.369C108.513 166.425 106.886 166.425 105.417 166.425C104.422 166.425 102.842 166.481 101.011 166.527C101.011 170.144 100.852 173.24 100.639 175.396H100.648ZM94.0381 178.706C90.9982 178.288 88.3208 179.022 88.3208 180.909C88.3208 182.322 89.4736 182.75 91.054 182.75C92.6344 182.75 93.7314 181.439 94.0474 178.706H94.0381Z" fill="#772D2D"/>
<path d="M140.076 160.29C140.336 163.702 140.29 169.633 139.918 172.459C139.026 179.385 136.144 183.894 128.688 187.993L128.112 187.315C131.626 183.745 133.411 180.129 134.145 174.83C131.207 177.451 127.163 179.236 121.762 180.919L120.451 174.783H123.026C122.608 168.015 122.394 164.185 122.134 155.948L126.178 156.422C129.85 154.479 131.533 151.281 133.104 148.344L138.459 152.23C135.837 154.851 132.741 156.534 128.177 157.631C128.232 164.771 128.232 166.974 128.651 174.216C130.538 173.9 132.379 173.426 134.368 172.905C134.47 171.957 134.526 170.906 134.526 169.809C132.797 170.442 131.951 170.86 130.175 171.65C130.175 168.768 129.915 166.407 128.809 163.618L129.385 163.144C132.165 165.087 133.373 166.295 134.582 168.499C134.582 165.923 134.48 162.986 134.322 159.63L140.095 160.308L140.076 160.29ZM147.895 156.088H154.662L154.346 153.252L160.482 153.987C160.696 156.45 160.798 159.704 160.798 162.911C160.798 166.119 160.696 169.363 160.426 171.883C159.952 176.503 158.957 178.176 157.386 179.757C154.449 178.13 152.245 176.289 150.405 173.881L150.618 173.361C152.301 173.733 153.5 173.993 154.867 174.039C155.081 168.21 155.081 162.289 154.765 157.566H147.895C147.895 164.548 147.895 178.288 148.108 187.529L142.437 188.003C142.177 176.568 142.019 157.622 142.066 152.843L147.895 153.68V156.097V156.088ZM149.047 162.391C152.199 164.65 153.352 166.007 154.718 168.954C152.617 169.586 151.994 169.847 149.782 170.897C149.782 168.062 149.521 165.654 148.415 162.865L149.047 162.391Z" fill="#772D2D"/>
<path d="M191.887 170.889C190.678 179.181 187.109 183.328 179.504 186.154L178.983 185.68C182.916 180.483 184.338 176.653 184.599 170.991L176.52 171.047C174.001 171.047 172.113 171.465 171.379 171.679L171.695 169.057C172.904 169.271 174.791 169.373 176.157 169.373L184.71 169.271C184.71 167.226 184.654 164.911 184.552 162.243C180.666 163.033 176.948 162.922 174.056 162.299L174.001 161.825C181.717 160.412 187.797 155.791 191.106 150.492L197.084 155.531C195.615 157.056 194.044 158.311 192.305 159.305C192.408 163.135 192.361 166.389 192.092 169.225L197.651 169.169C198.757 167.542 199.222 166.966 200.273 165.701C201.379 166.222 204.158 168.853 204.577 170.74L191.878 170.898L191.887 170.889Z" fill="#772D2D"/>
<path d="M217.305 166.109C229.79 166.9 235.247 166.788 247.166 166.267L247.268 170.098C235.88 169.679 229.428 169.782 216.887 170.414L217.305 166.109Z" fill="#772D2D"/>
<path d="M284.569 157.098C283.361 163.076 281.26 168.588 278.117 173.097C281.473 175.3 285.462 177.346 289.924 179.028L285.62 185.062C282.58 183.491 278.434 180.339 275.598 176.249C271.192 181.074 265.205 184.281 257.34 184.904L257.182 184.43C266.887 180.079 273.655 170.838 275.496 159.348C270.717 159.348 265.576 159.403 260.807 159.45C259.543 159.608 258.186 159.971 257.553 160.129L257.87 157.395C258.604 157.498 260.593 157.711 262.016 157.711C266.004 157.711 270.782 157.656 275.71 157.711C275.868 156.605 275.923 155.564 275.97 154.458L284.578 157.079L284.569 157.098ZM284.671 150.637C287.405 151.892 289.552 153.733 290.389 155.359L287.135 157.618C286.717 155.359 285.508 152.794 284.3 151.111L284.662 150.637H284.671ZM288.818 148.703C291.123 149.177 293.382 150.488 295.111 152.319L292.23 154.941C291.551 152.738 290.129 150.637 288.502 149.224L288.818 148.703Z" fill="#772D2D"/>
<path d="M272.766 108.58C272.699 108.513 272.572 108.42 272.386 108.3C272.199 108.18 272.006 108.06 271.806 107.94C271.606 107.833 271.426 107.753 271.266 107.7C272.052 106.873 272.626 105.833 272.986 104.58C273.346 103.313 273.526 101.773 273.526 99.9597V95.9997H278.026C277.866 95.5997 277.679 95.1664 277.466 94.6997C277.266 94.233 277.072 93.8397 276.886 93.5197H273.526V92.0397H280.286V90.1797H282.246V92.0397H289.246V93.5197H285.706C285.572 93.893 285.399 94.3064 285.186 94.7597C284.986 95.1997 284.786 95.613 284.586 95.9997H289.506V97.5397H275.286V99.9597C275.286 101.893 275.079 103.566 274.666 104.98C274.266 106.38 273.632 107.58 272.766 108.58ZM275.386 107.94V106.44H281.526V104.6H277.606V103.12H281.526V101.44H278.226C277.772 102.213 277.272 102.893 276.726 103.48C276.592 103.373 276.379 103.213 276.086 103C275.792 102.786 275.539 102.633 275.326 102.54C275.739 102.166 276.119 101.713 276.466 101.18C276.812 100.646 277.112 100.093 277.366 99.5197C277.619 98.933 277.806 98.3864 277.926 97.8797L279.566 98.3597C279.432 98.853 279.239 99.3864 278.986 99.9597H281.526V98.1397H283.326V99.9597H288.526V101.44H283.326V103.12H287.446V104.6H283.326V106.44H289.546V107.94H275.386ZM279.886 95.9997H282.726C282.899 95.6797 283.092 95.2864 283.306 94.8197C283.519 94.353 283.699 93.9197 283.846 93.5197H278.786C278.972 93.893 279.166 94.313 279.366 94.7797C279.579 95.2464 279.752 95.653 279.886 95.9997Z" fill="#772D2D"/>
<path d="M250.906 107.5V105.76H259.026V98.2402H252.286V96.5002H259.026V90.6602H260.966V96.5002H267.766V98.2402H260.966V105.76H269.126V107.5H250.906Z" fill="#772D2D"/>
<path d="M236.086 107.46C235.166 107.58 234.339 107.553 233.606 107.38C232.886 107.22 232.313 106.926 231.886 106.5C231.459 106.06 231.246 105.5 231.246 104.82C231.246 103.873 231.626 102.966 232.386 102.1C233.159 101.233 234.199 100.533 235.506 99.9998V96.5198C234.773 96.5864 234.053 96.6331 233.346 96.6598C232.653 96.6864 232.006 96.6864 231.406 96.6598L231.286 94.8598C231.819 94.9131 232.453 94.9331 233.186 94.9198C233.933 94.8931 234.706 94.8398 235.506 94.7598V91.2598H237.226V94.5598C237.933 94.4531 238.586 94.3331 239.186 94.1998C239.799 94.0664 240.313 93.9198 240.726 93.7598L240.946 95.4598C239.906 95.8198 238.666 96.0998 237.226 96.2998V99.4398C238.279 99.1864 239.406 99.0531 240.606 99.0398C241.819 99.0398 242.859 99.2198 243.726 99.5798C244.593 99.9398 245.259 100.433 245.726 101.06C246.206 101.673 246.446 102.373 246.446 103.16C246.446 104.386 246.059 105.34 245.286 106.02C244.526 106.686 243.533 107.013 242.306 107C240.279 106.973 238.959 105.96 238.346 103.96C238.559 103.893 238.846 103.786 239.206 103.64C239.579 103.48 239.853 103.333 240.026 103.2C240.213 103.853 240.486 104.346 240.846 104.68C241.206 105 241.693 105.16 242.306 105.16C242.973 105.173 243.506 104.993 243.906 104.62C244.319 104.246 244.526 103.753 244.526 103.14C244.526 102.393 244.173 101.793 243.466 101.34C242.773 100.873 241.819 100.64 240.606 100.64C239.993 100.64 239.399 100.686 238.826 100.78C238.266 100.86 237.733 100.973 237.226 101.12V106.26C237.226 106.646 237.139 106.926 236.966 107.1C236.793 107.286 236.499 107.406 236.086 107.46ZM246.326 98.2998C246.006 97.9798 245.579 97.6331 245.046 97.2598C244.526 96.8864 243.979 96.5331 243.406 96.1998C242.833 95.8664 242.313 95.6131 241.846 95.4398L242.846 94.0198C243.286 94.2064 243.793 94.4598 244.366 94.7798C244.939 95.0998 245.499 95.4398 246.046 95.7998C246.606 96.1598 247.059 96.4998 247.406 96.8198C247.313 96.9131 247.186 97.0664 247.026 97.2798C246.879 97.4798 246.733 97.6798 246.586 97.8798C246.453 98.0798 246.366 98.2198 246.326 98.2998ZM234.906 105.84C235.119 105.826 235.273 105.8 235.366 105.76C235.459 105.706 235.506 105.593 235.506 105.42V101.8C234.733 102.186 234.126 102.64 233.686 103.16C233.246 103.68 233.026 104.206 233.026 104.74C233.026 105.126 233.199 105.413 233.546 105.6C233.906 105.773 234.359 105.853 234.906 105.84Z" fill="#772D2D"/>
<path d="M219.427 106.92C219.36 106.68 219.213 106.38 218.987 106.02C218.773 105.646 218.56 105.366 218.347 105.18C219.547 104.993 220.567 104.646 221.407 104.14C222.247 103.633 222.893 103.013 223.347 102.28C223.813 101.546 224.067 100.753 224.107 99.8995C224.147 99.0995 224.033 98.3662 223.767 97.6995C223.513 97.0195 223.147 96.4262 222.667 95.9195C222.187 95.4129 221.627 95.0129 220.987 94.7195C220.36 94.4129 219.687 94.2395 218.967 94.1995C218.873 95.4929 218.68 96.7995 218.387 98.1195C218.093 99.4395 217.693 100.666 217.187 101.8C216.693 102.933 216.1 103.88 215.407 104.64C214.94 105.146 214.467 105.446 213.987 105.54C213.52 105.633 213.027 105.573 212.507 105.36C212 105.146 211.547 104.8 211.147 104.32C210.747 103.826 210.44 103.24 210.227 102.56C210.013 101.88 209.927 101.146 209.967 100.36C210.033 99.1862 210.307 98.1062 210.787 97.1195C211.28 96.1329 211.94 95.2862 212.767 94.5795C213.593 93.8595 214.54 93.3195 215.607 92.9595C216.673 92.5862 217.813 92.4329 219.027 92.4995C219.987 92.5529 220.893 92.7729 221.747 93.1595C222.6 93.5462 223.353 94.0729 224.007 94.7395C224.66 95.4062 225.16 96.1862 225.507 97.0795C225.867 97.9729 226.02 98.9595 225.967 100.04C225.873 101.773 225.253 103.24 224.107 104.44C222.96 105.64 221.4 106.466 219.427 106.92ZM213.027 103.5C213.173 103.593 213.347 103.64 213.547 103.64C213.747 103.626 213.94 103.52 214.127 103.32C214.647 102.773 215.113 102.026 215.527 101.08C215.953 100.133 216.307 99.0729 216.587 97.8995C216.867 96.7262 217.047 95.5329 217.127 94.3195C216.113 94.5062 215.213 94.8929 214.427 95.4795C213.64 96.0662 213.013 96.7862 212.547 97.6395C212.08 98.4929 211.82 99.4262 211.767 100.44C211.727 101.173 211.833 101.813 212.087 102.36C212.34 102.893 212.653 103.273 213.027 103.5Z" fill="#772D2D"/>
<path d="M203.947 108.439C203.347 108.159 202.833 107.652 202.407 106.919C201.993 106.186 201.673 105.272 201.447 104.179C201.22 103.072 201.107 101.839 201.107 100.479V99.4991H189.407V97.9591H202.947C202.92 98.2658 202.893 98.6658 202.867 99.1591C202.84 99.6525 202.827 100.172 202.827 100.719C202.827 102.052 202.947 103.186 203.187 104.119C203.44 105.052 203.787 105.792 204.227 106.339C204.36 106.032 204.493 105.719 204.627 105.399C204.76 105.079 204.873 104.792 204.967 104.539C205.073 104.272 205.14 104.099 205.167 104.019C205.313 104.126 205.54 104.259 205.847 104.419C206.153 104.566 206.427 104.672 206.667 104.739C206.627 104.886 206.54 105.119 206.407 105.439C206.287 105.759 206.147 106.106 205.987 106.479C205.84 106.839 205.7 107.166 205.567 107.459C205.433 107.766 205.327 107.972 205.247 108.079C205.073 108.319 204.86 108.472 204.607 108.539C204.367 108.606 204.147 108.572 203.947 108.439ZM189.207 108.599C189.1 108.319 188.967 108.032 188.807 107.739C188.647 107.459 188.453 107.199 188.227 106.959C189.293 106.652 190.327 106.239 191.327 105.719C192.327 105.186 193.253 104.579 194.107 103.899C193.507 103.392 192.913 102.926 192.327 102.499C191.753 102.072 191.227 101.746 190.747 101.519L191.887 100.299C192.393 100.552 192.953 100.892 193.567 101.319C194.193 101.746 194.813 102.212 195.427 102.719C196.333 101.812 197.067 100.839 197.627 99.7991L199.247 100.599C198.553 101.759 197.72 102.839 196.747 103.839C197.333 104.346 197.88 104.859 198.387 105.379C198.893 105.886 199.32 106.366 199.667 106.819C199.413 106.992 199.153 107.192 198.887 107.419C198.633 107.646 198.413 107.859 198.227 108.059C197.907 107.646 197.5 107.179 197.007 106.659C196.513 106.126 195.98 105.592 195.407 105.059C193.607 106.552 191.54 107.732 189.207 108.599ZM189.287 97.5191C189.073 97.3191 188.84 97.1125 188.587 96.8991C188.347 96.6725 188.113 96.4991 187.887 96.3791C188.527 95.8725 189.127 95.2591 189.687 94.5391C190.247 93.8191 190.727 93.0725 191.127 92.2991C191.54 91.5125 191.82 90.7858 191.967 90.1191L193.727 90.5591C193.66 90.7991 193.58 91.0458 193.487 91.2991C193.393 91.5525 193.293 91.8058 193.187 92.0591H204.907V93.5391H192.467C192.053 94.2725 191.573 94.9858 191.027 95.6791C190.493 96.3725 189.913 96.9858 189.287 97.5191ZM192.947 96.3591V94.9191H202.887V96.3591H192.947Z" fill="#EB5925"/>
<path d="M168.147 108.24C168.013 108.013 167.827 107.733 167.587 107.4C167.36 107.08 167.153 106.833 166.967 106.66C168.567 105.927 169.967 105.027 171.167 103.96C172.38 102.893 173.32 101.667 173.987 100.28C174.667 98.8802 175.007 97.3468 175.007 95.6802V90.6602H176.907V95.1602C176.907 96.4402 177.127 97.6668 177.567 98.8402C178.02 100 178.633 101.073 179.407 102.06C180.18 103.047 181.053 103.913 182.027 104.66C183.013 105.407 184.047 106 185.127 106.44C185.02 106.56 184.887 106.733 184.727 106.96C184.567 107.173 184.413 107.393 184.267 107.62C184.133 107.847 184.027 108.033 183.947 108.18C182.76 107.593 181.653 106.867 180.627 106C179.6 105.133 178.7 104.153 177.927 103.06C177.153 101.953 176.54 100.76 176.087 99.4802C175.727 100.773 175.16 101.967 174.387 103.06C173.627 104.153 172.713 105.133 171.647 106C170.58 106.867 169.413 107.613 168.147 108.24Z" fill="#EB5925"/>
<path d="M146.887 108.499C146.82 108.353 146.713 108.166 146.567 107.939C146.433 107.713 146.287 107.493 146.127 107.279C145.967 107.066 145.833 106.913 145.727 106.819C146.833 106.433 147.86 105.913 148.807 105.259C149.767 104.606 150.607 103.859 151.327 103.019C152.06 102.179 152.647 101.279 153.087 100.319C153.54 99.346 153.827 98.3527 153.947 97.3394H146.227V95.5594H154.007V90.3594H155.927V95.5594H163.727V97.3394H155.987C156.107 98.326 156.4 99.2994 156.867 100.259C157.333 101.219 157.933 102.119 158.667 102.959C159.4 103.799 160.233 104.553 161.167 105.219C162.113 105.873 163.127 106.393 164.207 106.779C164.1 106.899 163.96 107.066 163.787 107.279C163.627 107.506 163.473 107.726 163.327 107.939C163.18 108.166 163.073 108.353 163.007 108.499C161.847 107.953 160.733 107.279 159.667 106.479C158.613 105.666 157.673 104.739 156.847 103.699C156.033 102.659 155.407 101.526 154.967 100.299C154.527 101.553 153.893 102.699 153.067 103.739C152.24 104.779 151.293 105.699 150.227 106.499C149.16 107.299 148.047 107.966 146.887 108.499Z" fill="#EB5925"/>
<path d="M138.525 107.561C137.192 107.401 136.012 107.001 134.985 106.361C133.972 105.721 133.172 104.894 132.585 103.881C132.012 102.867 131.725 101.734 131.725 100.481C131.725 99.814 131.839 99.1274 132.065 98.4207C132.292 97.7007 132.639 97.0007 133.105 96.3207C133.585 95.6407 134.179 95.0407 134.885 94.5207C134.059 94.6674 133.219 94.8207 132.365 94.9807C131.512 95.1274 130.685 95.274 129.885 95.4207C129.099 95.5674 128.392 95.7074 127.765 95.8407C127.139 95.9607 126.645 96.0674 126.285 96.1607L125.865 94.1807C126.305 94.1407 126.905 94.074 127.665 93.9807C128.425 93.8874 129.279 93.7674 130.225 93.6207C131.172 93.474 132.152 93.3207 133.165 93.1607C134.179 92.9874 135.159 92.814 136.105 92.6407C137.052 92.4674 137.905 92.3007 138.665 92.1407C139.425 91.9807 140.025 91.8407 140.465 91.7207L140.945 93.6007C140.772 93.614 140.539 93.6407 140.245 93.6807C139.965 93.7207 139.645 93.7674 139.285 93.8207C138.525 93.9407 137.799 94.2007 137.105 94.6007C136.425 94.9874 135.819 95.4807 135.285 96.0807C134.752 96.6807 134.332 97.3607 134.025 98.1207C133.732 98.8674 133.585 99.654 133.585 100.481C133.585 101.534 133.852 102.427 134.385 103.161C134.919 103.894 135.632 104.474 136.525 104.901C137.432 105.314 138.439 105.587 139.545 105.721C139.332 105.961 139.125 106.267 138.925 106.641C138.725 107.014 138.592 107.321 138.525 107.561ZM141.905 98.6407C141.732 98.374 141.505 98.0874 141.225 97.7807C140.945 97.4607 140.659 97.1607 140.365 96.8807C140.072 96.5874 139.805 96.3474 139.565 96.1607L140.445 95.4207C140.659 95.5807 140.919 95.8207 141.225 96.1407C141.545 96.4474 141.852 96.7607 142.145 97.0807C142.439 97.4007 142.665 97.674 142.825 97.9007L141.905 98.6407ZM140.205 100.121C140.032 99.8407 139.812 99.5407 139.545 99.2207C139.279 98.9007 138.999 98.594 138.705 98.3007C138.425 98.0074 138.165 97.7674 137.925 97.5807L138.805 96.8607C139.019 97.034 139.279 97.2807 139.585 97.6007C139.892 97.9074 140.185 98.2274 140.465 98.5607C140.759 98.894 140.985 99.174 141.145 99.4007L140.205 100.121Z" fill="#772D2D"/>
<path d="M112.985 108.48C112.812 108.347 112.565 108.2 112.245 108.04C111.939 107.893 111.692 107.787 111.505 107.72C112.332 106.56 112.872 105.18 113.125 103.58C113.392 101.967 113.525 100.12 113.525 98.04V91.04H121.165V98.42H118.165C118.352 100.233 118.832 101.88 119.605 103.36C120.379 104.84 121.359 106.093 122.545 107.12C122.425 107.173 122.265 107.273 122.065 107.42C121.879 107.567 121.699 107.72 121.525 107.88C121.352 108.04 121.219 108.173 121.125 108.28C119.845 107.2 118.819 105.82 118.045 104.14C117.272 102.46 116.792 100.553 116.605 98.42H115.245C115.245 99.6867 115.185 100.92 115.065 102.12C114.959 103.307 114.745 104.433 114.425 105.5C114.105 106.567 113.625 107.56 112.985 108.48ZM107.605 108.4C107.579 108.187 107.525 107.913 107.445 107.58C107.379 107.26 107.312 107.013 107.245 106.84H108.545C109.012 106.84 109.345 106.773 109.545 106.64C109.759 106.493 109.919 106.167 110.025 105.66C110.092 105.367 110.159 104.987 110.225 104.52C110.292 104.053 110.345 103.553 110.385 103.02C110.425 102.473 110.445 101.953 110.445 101.46H104.605V91H112.205V92.5H109.625V94H111.685V95.38H109.625V96.86H111.685V98.26H109.625V99.96H112.145C112.145 100.733 112.119 101.513 112.065 102.3C112.012 103.073 111.939 103.8 111.845 104.48C111.765 105.16 111.665 105.747 111.545 106.24C111.345 107.093 111.032 107.667 110.605 107.96C110.192 108.253 109.592 108.4 108.805 108.4H107.605ZM115.245 96.82H119.425V92.64H115.245V96.82ZM103.865 106.34C103.892 106.06 103.912 105.7 103.925 105.26C103.952 104.82 103.965 104.38 103.965 103.94C103.979 103.5 103.972 103.147 103.945 102.88L105.105 102.76C105.132 103.027 105.145 103.387 105.145 103.84C105.145 104.28 105.139 104.727 105.125 105.18C105.125 105.62 105.119 105.987 105.105 106.28C104.959 106.267 104.752 106.267 104.485 106.28C104.219 106.293 104.012 106.313 103.865 106.34ZM105.825 105.88C105.825 105.627 105.812 105.307 105.785 104.92C105.772 104.52 105.752 104.133 105.725 103.76C105.699 103.373 105.665 103.073 105.625 102.86L106.665 102.72C106.705 102.973 106.739 103.293 106.765 103.68C106.805 104.053 106.839 104.427 106.865 104.8C106.905 105.173 106.925 105.48 106.925 105.72C106.832 105.733 106.652 105.76 106.385 105.8C106.119 105.827 105.932 105.853 105.825 105.88ZM106.205 99.96H108.105V98.26H106.205V99.96ZM107.565 105.48C107.552 105.213 107.519 104.907 107.465 104.56C107.425 104.2 107.372 103.847 107.305 103.5C107.252 103.153 107.192 102.873 107.125 102.66L108.105 102.48C108.172 102.72 108.239 103.02 108.305 103.38C108.372 103.727 108.432 104.073 108.485 104.42C108.539 104.767 108.572 105.053 108.585 105.28C108.532 105.293 108.432 105.313 108.285 105.34C108.139 105.367 107.992 105.393 107.845 105.42C107.712 105.447 107.619 105.467 107.565 105.48ZM106.205 94H108.105V92.5H106.205V94ZM106.205 96.86H108.105V95.38H106.205V96.86ZM109.225 105.02C109.172 104.633 109.085 104.18 108.965 103.66C108.859 103.14 108.739 102.707 108.605 102.36L109.525 102.14C109.605 102.34 109.685 102.607 109.765 102.94C109.859 103.26 109.939 103.587 110.005 103.92C110.085 104.24 110.145 104.513 110.185 104.74C110.145 104.753 110.052 104.78 109.905 104.82C109.772 104.86 109.639 104.9 109.505 104.94C109.372 104.98 109.279 105.007 109.225 105.02Z" fill="#EB5925"/>
<path d="M100.407 108.42C98.7804 107.553 97.427 106.426 96.347 105.04C95.187 106.333 93.6937 107.44 91.867 108.36C91.787 108.24 91.6737 108.086 91.527 107.9C91.3937 107.713 91.2537 107.533 91.107 107.36C90.9604 107.186 90.827 107.06 90.707 106.98C92.6404 106.14 94.2004 105.013 95.387 103.6C94.3604 101.813 93.727 99.7062 93.487 97.2795H92.827C92.827 99.1195 92.6804 100.713 92.387 102.06C92.0937 103.393 91.6404 104.566 91.027 105.58C90.4137 106.593 89.627 107.52 88.667 108.36C88.5337 108.2 88.327 107.993 88.047 107.74C87.7804 107.5 87.5537 107.333 87.367 107.24C88.7137 106.2 89.6737 104.886 90.247 103.3C90.8337 101.713 91.127 99.6929 91.127 97.2395V91.0595H100.747V92.6395H92.827V95.6595H99.407L99.967 95.9795C99.7804 97.5129 99.4804 98.9195 99.067 100.2C98.667 101.466 98.127 102.613 97.447 103.64C97.9937 104.32 98.6137 104.94 99.307 105.5C100.014 106.046 100.774 106.533 101.587 106.96C101.467 107.053 101.32 107.186 101.147 107.36C100.987 107.546 100.84 107.74 100.707 107.94C100.574 108.14 100.474 108.3 100.407 108.42ZM83.707 108.5V91.0195H89.507L90.247 91.6595C90.1937 91.8062 90.0737 92.0595 89.887 92.4195C89.7004 92.7795 89.4804 93.1929 89.227 93.6595C88.987 94.1129 88.7404 94.5662 88.487 95.0195C88.2337 95.4595 88.0137 95.8529 87.827 96.1995C87.6537 96.5329 87.5337 96.7595 87.467 96.8795C88.2004 97.4929 88.7804 98.1529 89.207 98.8595C89.647 99.5662 89.867 100.32 89.867 101.12C89.867 102.24 89.5804 103.073 89.007 103.62C88.447 104.166 87.727 104.44 86.847 104.44H86.047C86.0204 104.186 85.9604 103.886 85.867 103.54C85.787 103.18 85.707 102.893 85.627 102.68H86.567C87.567 102.68 88.067 102.04 88.067 100.76C88.067 100.066 87.8404 99.3995 87.387 98.7595C86.947 98.1195 86.3937 97.5395 85.727 97.0195C85.767 96.9395 85.8604 96.7529 86.007 96.4595C86.167 96.1529 86.3537 95.8062 86.567 95.4195C86.7804 95.0195 86.987 94.6195 87.187 94.2195C87.4004 93.8062 87.5804 93.4462 87.727 93.1395C87.8737 92.8329 87.9604 92.6329 87.987 92.5395H85.387V108.5H83.707ZM96.427 102.12C96.8137 101.44 97.1337 100.7 97.387 99.8995C97.6537 99.0862 97.847 98.2129 97.967 97.2795H95.007C95.087 98.2129 95.247 99.0795 95.487 99.8795C95.7404 100.68 96.0537 101.426 96.427 102.12Z" fill="#EB5925"/>
<path d="M62.8866 108.499C62.8199 108.353 62.7132 108.166 62.5666 107.939C62.4332 107.713 62.2866 107.493 62.1266 107.279C61.9666 107.066 61.8332 106.913 61.7266 106.819C62.8332 106.433 63.8599 105.913 64.8066 105.259C65.7666 104.606 66.6066 103.859 67.3266 103.019C68.0599 102.179 68.6466 101.279 69.0866 100.319C69.5399 99.346 69.8266 98.3527 69.9466 97.3394H62.2266V95.5594H70.0066V90.3594H71.9266V95.5594H79.7266V97.3394H71.9866C72.1066 98.326 72.3999 99.2994 72.8666 100.259C73.3332 101.219 73.9332 102.119 74.6666 102.959C75.3999 103.799 76.2332 104.553 77.1666 105.219C78.1132 105.873 79.1266 106.393 80.2066 106.779C80.0999 106.899 79.9599 107.066 79.7866 107.279C79.6266 107.506 79.4732 107.726 79.3266 107.939C79.1799 108.166 79.0732 108.353 79.0066 108.499C77.8466 107.953 76.7332 107.279 75.6666 106.479C74.6132 105.666 73.6732 104.739 72.8466 103.699C72.0332 102.659 71.4066 101.526 70.9666 100.299C70.5266 101.553 69.8932 102.699 69.0666 103.739C68.2399 104.779 67.2932 105.699 66.2266 106.499C65.1599 107.299 64.0466 107.966 62.8866 108.499Z" fill="#EB5925"/>
<path d="M49.6468 108.54C49.5401 108.447 49.3868 108.334 49.1868 108.2C48.9868 108.067 48.7868 107.94 48.5868 107.82C48.3868 107.7 48.2201 107.62 48.0868 107.58C49.1935 106.594 49.9535 105.314 50.3668 103.74C50.7935 102.154 51.0068 100.227 51.0068 97.9603V92.0603C51.6601 92.0603 52.3868 92.0003 53.1868 91.8803C53.9868 91.7603 54.7668 91.587 55.5268 91.3603C56.3001 91.1336 56.9601 90.867 57.5068 90.5603L58.6668 92.1003C58.1868 92.3003 57.5935 92.507 56.8868 92.7203C56.1935 92.9203 55.4801 93.0936 54.7468 93.2403C54.0268 93.387 53.3735 93.4803 52.7868 93.5203V96.7603H58.9868V98.4403H56.7068V108.5H54.9268V98.4403H52.7868C52.7735 100.734 52.5135 102.714 52.0068 104.38C51.5001 106.047 50.7135 107.434 49.6468 108.54ZM44.8868 108.42V103.16C44.4335 103.814 43.9201 104.467 43.3468 105.12C42.7868 105.76 42.2601 106.287 41.7668 106.7C41.7001 106.607 41.5801 106.494 41.4068 106.36C41.2468 106.214 41.0801 106.08 40.9068 105.96C40.7335 105.827 40.5868 105.74 40.4668 105.7C40.8668 105.42 41.3001 105.034 41.7668 104.54C42.2468 104.047 42.7068 103.52 43.1468 102.96C43.5868 102.4 43.9401 101.894 44.2068 101.44H41.5068V99.8603H44.8868V98.1803H41.1468V96.6803H43.5268C43.4068 96.2936 43.2601 95.887 43.0868 95.4603C42.9268 95.0336 42.7801 94.7003 42.6468 94.4603L44.0468 93.9803C44.2335 94.3136 44.4268 94.7403 44.6268 95.2603C44.8268 95.7803 44.9868 96.2536 45.1068 96.6803H46.3268C46.4601 96.387 46.5935 96.067 46.7268 95.7203C46.8601 95.3603 46.9868 95.0203 47.1068 94.7003C47.2268 94.3803 47.3068 94.127 47.3468 93.9403L48.8668 94.3603C48.7601 94.6936 48.6201 95.0736 48.4468 95.5003C48.2735 95.9136 48.1001 96.307 47.9268 96.6803H50.2868V98.1803H46.6068V99.8603H49.8868V101.44H46.6068V101.68L46.6668 101.62C46.8935 101.9 47.1935 102.214 47.5668 102.56C47.9401 102.907 48.3335 103.24 48.7468 103.56C49.1601 103.867 49.5468 104.127 49.9068 104.34C49.8268 104.407 49.7068 104.527 49.5468 104.7C49.4001 104.86 49.2601 105.027 49.1268 105.2C48.9935 105.36 48.8935 105.494 48.8268 105.6C48.5201 105.374 48.1601 105.074 47.7468 104.7C47.3468 104.314 46.9668 103.934 46.6068 103.56V108.42H44.8868ZM41.5668 93.8003V92.3403H44.8268V90.3203H46.6268V92.3403H49.9468V93.8003H41.5668Z" fill="#EB5925"/>
<g clip-path="url(#clip1_3036_22163)">
<path d="M-0.0136719 102.133C-0.0136719 101.857 0.210186 101.633 0.486328 101.633C0.762471 101.633 0.986328 101.857 0.986328 102.133C0.986328 113.027 9.77055 121.922 20.501 121.922H159.141C159.294 121.922 159.439 121.992 159.534 122.113C159.629 122.234 159.663 122.392 159.626 122.541L157.1 132.78L168.562 122.057L168.637 121.999C168.716 121.949 168.808 121.922 168.903 121.922H309.495C320.216 121.922 329.01 113.027 329.01 102.133C329.01 101.857 329.234 101.633 329.51 101.633C329.786 101.633 330.01 101.857 330.01 102.133C330.01 113.566 320.781 122.922 309.495 122.922H169.1L156.553 134.663C156.391 134.814 156.149 134.841 155.958 134.729C155.767 134.618 155.673 134.393 155.726 134.178L158.501 122.922H20.501C9.2055 122.922 -0.0136719 113.566 -0.0136719 102.133Z" fill="#42210B"/>
</g>
<defs>
<clipPath id="clip0_3036_22163">
<rect width="314" height="80" fill="white" transform="translate(8)"/>
</clipPath>
<clipPath id="clip1_3036_22163">
<rect width="330" height="33.1547" fill="white" transform="translate(0 101.641)"/>
</clipPath>
</defs>
</svg>
