<svg width="330" height="176" viewBox="0 0 330 176" fill="none" xmlns="http://www.w3.org/2000/svg">
<path d="M32.4452 67.0234C20.74 71.1478 13.2324 74.0314 1.48438 79.957L18.427 91.5879L7.5161 113.385C7.5161 113.385 31.0317 101.789 54.189 96.0833V77.3517L32.4413 67.0234H32.4452Z" fill="white"/>
<path d="M32.4476 65.5312C32.6973 65.5312 32.9338 65.5946 33.1424 65.7047L54.8319 76.004C55.3488 76.2498 55.6777 76.7693 55.6777 77.3398V96.0717C55.6776 96.7522 55.2117 97.3452 54.5484 97.5086C43.071 100.336 31.479 104.632 22.739 108.23C18.3733 110.027 14.7278 111.647 12.1759 112.816C10.9003 113.401 9.89835 113.873 9.21647 114.198C8.87551 114.361 8.61432 114.487 8.43935 114.572C8.35205 114.615 8.28566 114.646 8.24193 114.668L8.18193 114.698C8.18067 114.698 8.17957 114.699 8.17903 114.7C7.60689 114.982 6.91694 114.868 6.46609 114.418C6.01532 113.968 5.90354 113.281 6.18834 112.712L16.5231 92.0655L0.643064 81.1638C0.211423 80.8674 -0.0319049 80.3664 0.00337364 79.8455C0.0386682 79.3244 0.347526 78.8604 0.815326 78.6244C12.6308 72.6648 20.2003 69.7573 31.9221 65.6267C32.0854 65.5656 32.2611 65.5313 32.4437 65.5312H32.4476ZM32.3634 68.6123C21.7783 72.3495 14.6363 75.0905 4.39992 80.1461L19.2735 90.3568C19.8827 90.7751 20.0902 91.5765 19.7602 92.2361L10.7649 110.205C10.8205 110.179 10.8766 110.154 10.9333 110.128C13.5141 108.945 17.1953 107.309 21.6029 105.494C30.126 101.985 41.4005 97.792 52.7048 94.9171V78.2727L32.3634 68.6123Z" fill="#EB5925"/>
<path d="M275.883 96.0908C299.036 101.804 322.482 113.361 322.482 113.361L315.461 92.3066L328.513 79.9336C316.765 74.0079 309.258 71.1205 297.553 67L276.109 78.8899L275.883 96.0908Z" fill="white"/>
<path d="M296.975 65.6253C297.315 65.4816 297.699 65.4686 298.051 65.5925C309.79 69.725 317.362 72.6363 329.187 78.6008C329.618 78.8181 329.917 79.2305 329.987 79.7062C330.057 80.182 329.89 80.6622 329.541 80.9938L317.171 92.7194L323.895 112.882C324.084 113.449 323.912 114.074 323.459 114.466C323.007 114.858 322.362 114.941 321.825 114.676H321.824C321.823 114.676 321.822 114.675 321.821 114.674C321.818 114.673 321.814 114.671 321.809 114.668C321.799 114.663 321.782 114.656 321.761 114.645C321.717 114.624 321.651 114.591 321.564 114.549C321.39 114.464 321.129 114.339 320.789 114.177C320.109 113.853 319.11 113.382 317.838 112.799C315.292 111.633 311.656 110.018 307.3 108.225C298.578 104.635 287.004 100.348 275.528 97.5159C274.858 97.3505 274.39 96.7472 274.399 96.0597L274.625 78.8582C274.632 78.3282 274.923 77.842 275.388 77.5841L296.832 65.6946L296.975 65.6253ZM277.585 79.7535L277.386 94.9292C288.682 97.8069 299.933 101.99 308.435 105.489C312.833 107.299 316.506 108.93 319.08 110.11C319.395 110.254 319.694 110.393 319.975 110.523L314.053 92.7609C313.871 92.2169 314.022 91.6179 314.439 91.2228L325.96 80.2999C315.548 75.1386 308.37 72.374 297.691 68.6061L277.585 79.7535Z" fill="#EB5925"/>
<path d="M32.6836 96.7138C32.6836 96.7138 88.5696 72.9571 165.031 72.9571C241.493 72.9571 297.379 96.7138 297.379 96.7138V55.6789C267.477 40.4107 213.254 30.4844 165.031 30.4844C116.809 30.4844 62.5813 40.4107 32.6836 55.6789V96.7138Z" fill="white"/>
<path d="M165.029 29C213.375 29 267.863 38.9406 298.056 54.3575C298.552 54.6109 298.864 55.1198 298.864 55.6749V96.7094C298.864 97.2066 298.613 97.6709 298.196 97.9449C297.779 98.2188 297.253 98.2662 296.794 98.0711L296.792 98.0702C296.791 98.0696 296.788 98.0693 296.786 98.0682C296.78 98.0657 296.771 98.061 296.758 98.0557C296.733 98.0451 296.694 98.0291 296.642 98.0075C296.537 97.9641 296.379 97.8993 296.169 97.8138C295.748 97.6428 295.118 97.3905 294.287 97.0688C292.626 96.4254 290.161 95.5028 286.962 94.3955C280.564 92.1806 271.229 89.2244 259.511 86.2665C236.07 80.3498 203.109 74.4329 165.029 74.4329C126.949 74.4329 93.9876 80.3498 70.5474 86.2665C58.8292 89.2243 49.4952 92.1806 43.0968 94.3955C39.8978 95.5029 37.4325 96.4254 35.7709 97.0688C34.9403 97.3905 34.31 97.6429 33.8896 97.8138C33.6795 97.8992 33.5217 97.9641 33.4173 98.0075C33.3654 98.0291 33.3265 98.045 33.3012 98.0557C33.2885 98.061 33.279 98.0657 33.2731 98.0682C33.2701 98.0695 33.2676 98.0696 33.2663 98.0702L33.2654 98.0711C32.8063 98.2663 32.2796 98.2187 31.8631 97.9449C31.4464 97.6709 31.1953 97.2066 31.1953 96.7094V55.6749C31.1953 55.1197 31.5073 54.6109 32.0034 54.3575C62.1924 38.9405 116.683 29 165.029 29ZM165.029 31.9606C117.363 31.9606 63.9406 41.697 34.1683 56.5866V94.515C34.3339 94.4501 34.5089 94.3813 34.6938 94.3097C36.387 93.654 38.8856 92.7195 42.1204 91.5997C48.59 89.3602 58.007 86.3777 69.8177 83.3965C93.4358 77.4349 126.648 71.4724 165.029 71.4723C203.411 71.4723 236.623 77.4349 260.241 83.3965C272.052 86.3777 281.468 89.3602 287.938 91.5997C291.173 92.7195 293.672 93.654 295.365 94.3097C295.55 94.3813 295.725 94.4501 295.891 94.515V56.5866C266.115 41.6969 212.695 31.9606 165.029 31.9606Z" fill="#EB5925"/>
<path d="M55.6926 62.4922C57.071 69.2489 54.4426 73.8062 49.8049 76.3032L49.5869 76.1872C52.3516 72.5847 53.1187 69.8171 52.1685 64.3785C49.9568 65.0511 47.414 65.8241 45.1127 66.5702C44.6299 66.7828 44.112 67.0997 43.9095 67.2543L43.6953 66.1179C43.9796 66.0754 44.8168 65.913 45.358 65.7468C47.27 65.1438 49.6453 64.421 52.0517 63.7098C51.9855 63.3464 51.896 62.987 51.8298 62.6236L55.6887 62.4922H55.6926Z" fill="#772D2D"/>
<path d="M71.3373 60.6178C71.8396 65.0088 70.0835 69.7362 65.107 71.8969L64.8889 71.7539C66.9722 69.1332 68.3468 66.1375 67.9535 62.7515C65.7183 63.3313 63.1444 64 60.8081 64.6262C60.3174 64.8194 59.7878 65.1132 59.5776 65.2601L59.4023 64.1662C59.71 64.1314 60.5472 63.9806 61.0962 63.8376C63.0315 63.3119 65.438 62.6896 67.8678 62.0827C67.786 61.6807 67.7004 61.2749 67.5758 60.8845L71.3373 60.6255V60.6178ZM62.2644 60.2158C61.2714 60.4709 60.5588 60.8381 60.2629 61.0043L60.1305 59.8988C60.6212 59.8833 61.3922 59.7287 61.9412 59.5857L67.1085 58.2444C67.3849 57.5023 67.4901 57.2046 67.8055 56.6094C68.3 56.6828 69.6941 57.5293 70.0718 58.1942L62.2644 60.2158Z" fill="#772D2D"/>
<path d="M73.6327 57.5989C75.681 57.1776 78.212 57.5138 79.1777 58.3488L77.7019 60.6641C76.5259 59.2803 75.2059 58.457 73.6094 57.7844L73.6366 57.6027L73.6327 57.5989ZM77.1568 66.0099C81.3895 64.2512 84.2126 60.7376 86.5334 55.8672L86.7709 55.9252C86.6268 61.9629 82.8264 66.5086 78.4496 68.7428L77.1568 66.0099Z" fill="#772D2D"/>
<path d="M89.0038 56.3659C90.9313 56.0025 93.2521 56.3427 94.2178 57.1583L92.8744 59.3074C91.7179 57.9275 90.4212 56.992 88.9727 56.5668L89.0038 56.362V56.3659ZM90.7171 53.0725C92.8939 52.8638 95.3159 53.1615 96.2543 53.9423L95.0278 55.8749C93.8985 54.5143 92.1618 53.7219 90.6821 53.2581L90.7171 53.0764V53.0725ZM92.3487 62.5466C96.5464 60.8806 100.343 57.7265 101.827 53.2658L102.103 53.3277C102.193 59.0059 98.2714 63.6985 93.4896 65.6891L92.3526 62.5505L92.3487 62.5466Z" fill="#772D2D"/>
<path d="M104.695 55.6741C109.882 55.2837 112.121 54.932 116.992 54.0391L117.253 55.5968C112.542 56.0723 109.89 56.482 104.765 57.4522L104.691 55.6703L104.695 55.6741Z" fill="#772D2D"/>
<path d="M128.61 48.9812C128.368 51.4859 127.741 53.8361 126.635 55.8229C128.119 56.5844 129.856 57.2531 131.772 57.7478L130.253 60.4072C128.925 59.8931 127.075 58.7799 125.728 57.2221C124.116 59.3906 121.78 60.9638 118.555 61.5591L118.47 61.3736C122.294 59.1703 124.692 55.0923 124.953 50.2954C122.979 50.5002 120.857 50.7438 118.886 50.968C118.372 51.0878 117.823 51.2965 117.57 51.3893L117.582 50.2567C117.89 50.2683 118.723 50.2683 119.307 50.2065C120.954 50.0364 122.924 49.8083 124.969 49.6189C124.984 49.159 124.961 48.726 124.938 48.2738L128.61 48.9812ZM128.376 46.3295C129.56 46.7276 130.525 47.3886 130.942 48.0225L129.696 49.0894C129.424 48.181 128.816 47.1799 128.244 46.5421L128.376 46.3334V46.3295ZM130.004 45.3554C130.977 45.4482 131.966 45.8927 132.765 46.5692L131.686 47.7674C131.308 46.8938 130.631 46.0937 129.899 45.5796L130.008 45.3516L130.004 45.3554Z" fill="#772D2D"/>
<path d="M132.778 53.1486C132.708 52.1977 133.382 51.5212 134.336 51.4517C135.271 51.386 136.069 51.8266 136.147 52.9051C136.221 53.9178 135.609 54.5285 134.566 54.602C133.608 54.6715 132.845 54.0956 132.775 53.1486H132.778Z" fill="#772D2D"/>
<path d="M136.93 58.6605C139.655 56.0939 140.691 53.3108 140.263 49.256L143.487 49.0898C143.884 52.9281 141.809 57.5202 137.093 58.8228L136.93 58.6566V58.6605ZM150.979 56.7935C149.301 55.6223 148.596 52.557 149.013 49.5884L149.359 49.5266C150.048 51.8961 151.676 53.763 153.53 54.969L150.983 56.7896L150.979 56.7935ZM149.873 47.6596C149.815 46.558 150.59 45.8893 151.548 45.839C152.505 45.7888 153.343 46.3531 153.401 47.4779C153.452 48.4288 152.685 49.229 151.703 49.2753C150.765 49.3217 149.92 48.5873 149.873 47.6557V47.6596ZM152.681 47.5166C152.65 46.9561 152.128 46.5271 151.583 46.5541C151.037 46.5812 150.562 47.0605 150.59 47.6248C150.617 48.166 151.143 48.6144 151.688 48.5873C152.233 48.5602 152.708 48.0577 152.681 47.5166Z" fill="#772D2D"/>
<path d="M163.157 51.226C162.744 56.3167 160.124 58.4194 156.642 59.2273L156.51 59.0109C159.388 56.4752 159.742 54.6546 159.473 51.2569L156.833 51.2801C155.809 51.2878 155.026 51.4463 154.699 51.5352L154.843 50.4529C155.322 50.5573 156.109 50.5921 156.677 50.5882L165.007 50.5147C165.439 49.8615 165.63 49.5793 166.062 49.0768C166.545 49.2894 167.686 50.449 167.892 51.1835L163.161 51.226H163.157ZM158.652 47.0436C157.604 47.0514 156.821 47.233 156.518 47.3219L156.638 46.2164C157.141 46.3208 157.927 46.3556 158.492 46.3517L163.877 46.3054C164.329 45.6521 164.524 45.3893 164.956 44.8906C165.415 45.1032 166.58 46.2396 166.763 46.9741L158.652 47.0436Z" fill="#772D2D"/>
<path d="M174.625 53.4352C174.628 54.1077 174.535 57.9151 174.496 59.4072L171.922 59.3453L171.957 53.6284C170.567 54.2662 168.943 54.5948 167.113 54.5059L167.074 54.2469C170.571 53.1182 172.604 51.286 173.565 47.6719L176.435 48.8895C175.668 50.7101 174.387 52.2601 172.619 53.2767L174.621 53.4352H174.625Z" fill="#772D2D"/>
<path d="M178.883 49.1812C180.841 49.2662 183.022 50.1243 183.773 51.1409L181.97 52.9267C181.164 51.3226 180.117 50.1166 178.805 49.3706L178.883 49.1812ZM180.709 55.9572C185.179 55.2923 189.603 53.0852 192.075 49.0807L192.332 49.2044C191.106 54.7512 186.207 58.4272 181.09 59.2737L180.709 55.9572ZM181.312 46.3672C183.481 46.661 185.771 47.4997 186.503 48.4738L184.864 50.0741C184.077 48.4931 182.57 47.3258 181.238 46.5373L181.312 46.3672Z" fill="#772D2D"/>
<path d="M208.429 59.7006L195.603 58.456C194.582 58.3593 193.784 58.456 193.453 58.4908L193.71 57.4278C194.177 57.5824 194.956 57.6983 195.54 57.7563L199.535 58.139C199.703 56.1754 200.014 52.051 200.139 50.3232L197.861 50.1067C196.841 50.0101 196.047 50.0874 195.712 50.1415L195.969 49.0786C196.436 49.2332 197.215 49.3491 197.799 49.4071L204.765 50.072C205.263 49.4458 205.485 49.2061 205.964 48.75C206.424 48.9897 207.436 50.2807 207.561 51.0538L203.332 50.6286C203.169 52.5497 202.865 56.3687 202.729 58.4444L205.637 58.7227C206.136 58.1158 206.354 57.8762 206.837 57.4239C207.296 57.6636 208.312 58.9353 208.433 59.7083L208.429 59.7006Z" fill="#772D2D"/>
<path d="M218.906 50.3079C223.143 50.8878 225.187 54.0535 224.759 57.1419L224.712 57.486C224.295 59.5462 222.722 61.5175 219.887 62.5728L219.743 62.3331C222.251 59.9675 222.96 54.3821 220.588 52.1131C219.093 57.5014 215.764 61.0228 212.898 60.2613C211.071 59.7704 210.113 58.2861 210.3 56.28L210.343 55.9785C210.818 52.546 213.743 50.1958 217.613 50.219C218.053 50.2152 218.489 50.25 218.898 50.3079H218.906ZM217.956 51.1197C214.954 51.1661 212.87 54.4439 212.547 56.7825C212.38 57.9846 212.664 58.9393 213.521 59.121C215.063 59.4186 217.469 54.4594 217.956 51.1158V51.1197Z" fill="#772D2D"/>
<path d="M227.585 59.8565C229.754 61.8472 232.558 62.4966 236.257 62.0134L236.086 65.1714C235.194 65.2101 234.341 65.1482 233.547 65.0052C230.436 64.4525 228.107 62.6087 227.344 59.9686L227.585 59.8565ZM229.232 52.4273L229.606 51.4609C229.875 51.573 230.474 51.8127 231.004 51.9286C232.199 52.1838 234.474 52.7211 236.066 53.0921C236.195 52.7404 236.327 52.3886 236.436 52.0137L239.049 53.6217C238.111 55.2606 236.44 56.3043 234.306 56.8261L234.146 56.6019C234.847 55.7824 235.373 54.8393 235.852 53.6487C234.256 53.2777 231.935 52.7558 230.829 52.5162C230.295 52.4002 229.556 52.4427 229.228 52.4311L229.232 52.4273Z" fill="#772D2D"/>
<path d="M246.523 57.0962C245.176 59.8832 243.486 63.5282 242.906 64.8656L240.32 63.9302L243.704 56.5319C243.256 56.4353 242.867 56.3734 242.59 56.3154C242.057 56.1995 241.344 56.2922 241.013 56.2845L241.364 55.295C241.605 55.4148 242.232 55.6158 242.762 55.7279C243.081 55.7975 243.49 55.8632 243.981 55.9675C244.67 54.4562 245.223 53.2463 245.367 52.8984L248.206 53.5981C248.019 53.9344 247.477 55.0824 246.784 56.5242C247.322 56.6169 247.832 56.729 248.303 56.8295C248.794 56.4275 249.339 55.9675 249.868 55.5926C250.277 55.7704 251.297 57.3166 251.184 58.0471C250.694 57.9428 249.475 57.6992 248.821 57.5369C248.202 57.4055 247.388 57.2509 246.531 57.0885L246.523 57.0962ZM247.181 64.3941C248.677 66.2224 250.324 66.5548 252.871 66.1296L252.427 68.8702L251.959 68.7697C249.681 68.2788 247.275 67.1385 246.948 64.5448L247.181 64.3941ZM253.054 59.4812L254.965 60.8457C254.537 61.8816 252.773 63.0103 251.025 63.362L250.927 63.1842C251.488 62.5542 251.948 61.8777 252.392 60.9771L249.522 60.4243C248.988 60.3084 248.283 60.3779 247.976 60.3586L248.291 59.4309C248.556 59.5546 249.163 59.7286 249.697 59.8445C250.787 60.0571 251.582 60.2079 252.676 60.3973C252.804 60.1151 252.917 59.8059 253.054 59.4812ZM253.595 57.6258C253.618 56.702 253.361 55.5385 253.019 54.7538L253.209 54.5953C254.206 55.3414 254.895 56.2652 255.11 57.0189L253.595 57.6219V57.6258ZM255.063 54.1779C255.939 54.5644 256.761 55.295 257.302 56.1879L255.9 56.9919C255.818 56.0449 255.429 55.0746 254.891 54.3595L255.067 54.174L255.063 54.1779Z" fill="#772D2D"/>
<path d="M270.759 67.9664C270.191 70.1233 267.784 72.0714 264.089 71.7158L264.066 71.4645C266.04 70.9041 267.317 69.3115 267.753 67.6571C268.294 65.6046 267.484 63.4709 265.031 63.2815C264.369 63.2197 263.649 63.3047 262.929 63.4748L260.958 71.2867L258.349 70.8306L259.841 64.7504C258.735 65.3572 257.746 66.1071 257.053 66.7758L256.391 64.4991C257.609 63.7183 258.933 63.2351 260.273 62.9375L260.728 61.0435L258.598 60.4907C258.049 60.3477 257.333 60.34 257.018 60.3245L257.407 59.4432C257.648 59.5514 258.244 59.7718 258.793 59.9148L260.88 60.4559L261.889 56.2891L264.474 57.2515L263.135 62.5858C263.84 62.5664 264.529 62.5896 265.191 62.6515C269.778 63.038 271.367 65.6433 270.752 67.9702L270.759 67.9664Z" fill="#772D2D"/>
<path d="M278.125 67.594L278.211 67.8259C277.369 68.7652 276.505 69.4068 274.881 70.3577C274.465 68.483 274.585 65.6884 275.905 61.3359L278.401 62.2636C277.72 63.7093 276.91 65.9976 276.396 67.8568C277.155 67.8414 277.552 67.737 278.121 67.5978L278.125 67.594ZM285.43 64.6138C282.541 73.8327 280.142 74.6328 276.178 76.2872L276.01 76.0978C278.542 73.6356 280.267 71.9928 282.759 63.3111L285.434 64.6138H285.43Z" fill="#772D2D"/>
<path d="M259.4 120.342C258.302 120.312 257.437 120.018 256.806 119.462C256.174 118.891 255.866 118.199 255.881 117.387C255.881 116.876 256.039 116.402 256.355 115.966C256.685 115.53 257.159 115.176 257.776 114.906C258.392 114.635 259.136 114.5 260.009 114.5C260.595 114.5 261.167 114.545 261.723 114.635C261.693 113.913 261.663 113.064 261.633 112.086C261.603 111.094 261.573 110.004 261.542 108.816C260.565 108.876 259.61 108.914 258.678 108.929C257.761 108.944 256.986 108.936 256.355 108.906L256.197 106.786C256.783 106.846 257.55 106.884 258.497 106.899C259.46 106.899 260.46 106.876 261.497 106.831C261.482 106.214 261.467 105.575 261.452 104.914C261.452 104.252 261.452 103.583 261.452 102.906H263.482C263.467 103.538 263.46 104.177 263.46 104.823C263.46 105.455 263.46 106.079 263.46 106.696C264.392 106.62 265.249 106.538 266.031 106.447C266.813 106.342 267.392 106.237 267.768 106.132V108.207C267.347 108.282 266.753 108.365 265.986 108.455C265.234 108.53 264.407 108.605 263.505 108.68C263.535 109.974 263.573 111.177 263.618 112.289C263.663 113.387 263.708 114.334 263.753 115.131C264.58 115.417 265.392 115.785 266.189 116.237C266.986 116.673 267.776 117.199 268.558 117.815C268.452 117.906 268.309 118.071 268.129 118.312C267.949 118.537 267.783 118.77 267.633 119.011C267.482 119.251 267.377 119.439 267.317 119.575C266.159 118.537 264.994 117.733 263.821 117.161C263.791 118.319 263.377 119.154 262.58 119.665C261.798 120.176 260.738 120.402 259.4 120.342ZM251.324 120.703C251.219 120.131 251.136 119.394 251.076 118.492C251.016 117.59 250.971 116.582 250.941 115.47C250.926 114.342 250.926 113.184 250.941 111.996C250.971 110.808 251.016 109.65 251.076 108.523C251.136 107.38 251.212 106.335 251.302 105.387C251.407 104.425 251.527 103.628 251.663 102.996L253.67 103.47C253.505 104.011 253.362 104.726 253.242 105.613C253.136 106.5 253.054 107.485 252.994 108.568C252.933 109.65 252.896 110.763 252.881 111.906C252.866 113.049 252.873 114.161 252.903 115.244C252.933 116.327 252.986 117.312 253.061 118.199C253.136 119.086 253.234 119.808 253.355 120.364L251.324 120.703ZM259.535 118.56C260.287 118.56 260.851 118.432 261.227 118.176C261.603 117.906 261.791 117.462 261.791 116.846V116.462C261.475 116.387 261.159 116.334 260.843 116.304C260.527 116.259 260.212 116.229 259.896 116.214C259.234 116.199 258.715 116.312 258.339 116.552C257.964 116.778 257.776 117.064 257.776 117.409C257.761 117.74 257.911 118.018 258.227 118.244C258.542 118.454 258.979 118.56 259.535 118.56Z" fill="#772D2D"/>
<path d="M225.836 115.65C225.806 115.5 225.739 115.312 225.633 115.086C225.543 114.861 225.438 114.642 225.318 114.432C225.212 114.206 225.122 114.041 225.047 113.936C226.235 113.755 227.385 113.507 228.498 113.191C229.626 112.861 230.701 112.477 231.724 112.041V107.417H233.641V111.139C234.889 110.462 236.032 109.688 237.069 108.816C238.122 107.928 239.032 106.951 239.799 105.883L241.445 106.898C240.378 108.297 239.205 109.492 237.927 110.485C236.663 111.477 235.318 112.327 233.889 113.034C234.009 113.109 234.205 113.146 234.475 113.146H238.197C238.573 113.146 238.874 113.101 239.1 113.011C239.325 112.906 239.498 112.695 239.618 112.379C239.754 112.049 239.844 111.545 239.889 110.868C240.1 110.988 240.385 111.116 240.746 111.252C241.122 111.387 241.445 111.492 241.716 111.567C241.596 112.56 241.415 113.297 241.175 113.778C240.934 114.244 240.611 114.552 240.205 114.703C239.799 114.853 239.28 114.928 238.648 114.928H233.866C233.22 114.928 232.731 114.861 232.4 114.725C232.084 114.575 231.881 114.319 231.791 113.958C230.844 114.319 229.866 114.642 228.859 114.928C227.866 115.199 226.859 115.439 225.836 115.65ZM235.829 108.771C235.618 108.5 235.348 108.199 235.017 107.868C234.686 107.538 234.34 107.214 233.979 106.898C233.618 106.568 233.288 106.304 232.987 106.109L234.024 105.117H227.889V108.094H225.836V103.425H234.363V101.305H236.573V103.425H245.167V108.026H243.137V105.117H234.588C235.024 105.432 235.483 105.816 235.964 106.267C236.445 106.703 236.844 107.116 237.16 107.507C237.085 107.568 236.957 107.68 236.776 107.846C236.596 108.011 236.415 108.184 236.235 108.365C236.054 108.53 235.919 108.665 235.829 108.771ZM227.979 121.672V116.304H230.032V119.913H234.475V115.402H236.528V119.913H240.949V116.101H242.979V121.672H227.979ZM226.896 112.74C226.776 112.575 226.566 112.357 226.265 112.086C225.979 111.8 225.739 111.605 225.543 111.5C225.949 111.229 226.378 110.868 226.829 110.417C227.295 109.966 227.724 109.485 228.115 108.974C228.521 108.462 228.829 107.996 229.039 107.575L230.596 108.613C230.34 109.064 230.009 109.545 229.603 110.056C229.197 110.567 228.761 111.056 228.295 111.522C227.829 111.988 227.363 112.394 226.896 112.74ZM244.558 112.943C244.303 112.582 243.957 112.169 243.521 111.703C243.1 111.237 242.656 110.785 242.19 110.349C241.739 109.898 241.325 109.537 240.949 109.267L242.303 108.049C242.679 108.319 243.1 108.673 243.566 109.109C244.032 109.53 244.483 109.974 244.919 110.44C245.355 110.906 245.716 111.319 246.002 111.68C245.806 111.8 245.558 111.996 245.257 112.267C244.957 112.522 244.724 112.748 244.558 112.943Z" fill="#772D2D"/>
<path d="M209.189 121.315C209.054 121.134 208.873 120.894 208.648 120.593C208.422 120.307 208.196 120.067 207.971 119.871C208.993 119.345 209.941 118.721 210.813 117.999C211.7 117.277 212.512 116.473 213.249 115.586V106.586H215.234V112.834C216.196 111.27 216.993 109.616 217.625 107.872C218.257 106.113 218.715 104.361 219.001 102.616L220.896 103.022C220.685 104.27 220.392 105.504 220.016 106.722C219.655 107.924 219.226 109.082 218.73 110.195L219.993 109.721C220.279 110.248 220.565 110.872 220.851 111.594C221.151 112.3 221.43 113.007 221.685 113.714C221.941 114.42 222.136 115.037 222.272 115.563C222.136 115.593 221.948 115.653 221.708 115.744C221.467 115.819 221.227 115.909 220.986 116.014C220.745 116.105 220.55 116.187 220.399 116.262C220.279 115.796 220.106 115.24 219.881 114.593C219.655 113.932 219.414 113.27 219.159 112.609C218.903 111.932 218.663 111.353 218.437 110.872C217.986 111.819 217.49 112.729 216.948 113.601C216.422 114.458 215.851 115.278 215.234 116.059V118.676C215.234 118.901 215.287 119.059 215.392 119.15C215.512 119.24 215.738 119.285 216.069 119.285H217.399C217.73 119.285 217.986 119.24 218.166 119.15C218.347 119.059 218.49 118.856 218.595 118.541C218.7 118.21 218.79 117.683 218.866 116.962C219.076 117.082 219.377 117.21 219.768 117.345C220.159 117.48 220.49 117.586 220.76 117.661C220.64 118.744 220.46 119.541 220.219 120.052C219.978 120.563 219.655 120.886 219.249 121.022C218.843 121.172 218.317 121.247 217.67 121.247H215.257C214.55 121.247 214.039 121.142 213.723 120.931C213.407 120.721 213.249 120.33 213.249 119.759V118.27C212.632 118.886 211.978 119.45 211.287 119.962C210.61 120.473 209.911 120.924 209.189 121.315ZM205.061 121.879V112.992C204.685 113.819 204.279 114.608 203.843 115.36C203.407 116.112 203.001 116.729 202.625 117.21C202.52 117.105 202.362 116.977 202.151 116.826C201.941 116.676 201.73 116.533 201.52 116.398C201.309 116.262 201.144 116.165 201.023 116.105C201.384 115.714 201.76 115.225 202.151 114.638C202.542 114.052 202.926 113.42 203.302 112.744C203.678 112.052 204.016 111.368 204.317 110.691C204.617 110 204.843 109.361 204.993 108.774H201.655V106.97H205.061V104.466C204.58 104.571 204.099 104.669 203.617 104.759C203.151 104.849 202.7 104.932 202.264 105.007C202.219 104.797 202.121 104.511 201.971 104.15C201.82 103.774 201.7 103.496 201.61 103.316C202.347 103.24 203.151 103.113 204.023 102.932C204.911 102.737 205.76 102.504 206.572 102.233C207.399 101.962 208.076 101.684 208.602 101.398L209.685 102.91C209.309 103.105 208.888 103.286 208.422 103.451C207.956 103.616 207.475 103.782 206.978 103.947V106.97H209.775V108.774H206.978V110.218C207.234 110.533 207.52 110.872 207.835 111.233C208.151 111.594 208.475 111.932 208.805 112.248C209.136 112.563 209.429 112.827 209.685 113.037C209.881 112.33 210.046 111.594 210.181 110.827C210.332 110.06 210.429 109.361 210.475 108.729L212.347 109.022C212.287 109.774 212.166 110.594 211.986 111.481C211.82 112.368 211.617 113.225 211.377 114.052C211.151 114.864 210.918 115.571 210.678 116.172C210.542 116.097 210.354 116.014 210.114 115.924C209.873 115.819 209.632 115.721 209.392 115.631C209.151 115.541 208.963 115.481 208.828 115.45C208.948 115.195 209.076 114.894 209.211 114.548C209.347 114.187 209.475 113.804 209.595 113.398C209.414 113.548 209.219 113.744 209.008 113.984C208.813 114.21 208.67 114.383 208.58 114.503C208.354 114.293 208.099 114.037 207.813 113.736C207.542 113.42 207.264 113.09 206.978 112.744V121.879H205.061ZM216.294 106C215.963 105.684 215.55 105.346 215.054 104.985C214.572 104.609 214.084 104.255 213.587 103.925C213.091 103.594 212.648 103.338 212.257 103.158L213.542 101.669C213.963 101.88 214.422 102.158 214.918 102.504C215.429 102.834 215.918 103.18 216.384 103.541C216.866 103.887 217.264 104.203 217.58 104.489C217.384 104.639 217.151 104.887 216.881 105.233C216.61 105.564 216.414 105.819 216.294 106Z" fill="#772D2D"/>
<path d="M189.766 120.092C189.691 119.821 189.525 119.483 189.27 119.077C189.029 118.656 188.788 118.34 188.548 118.13C189.901 117.919 191.052 117.528 191.999 116.957C192.946 116.385 193.676 115.686 194.187 114.859C194.713 114.032 194.999 113.137 195.044 112.175C195.089 111.273 194.961 110.446 194.661 109.694C194.375 108.927 193.961 108.258 193.42 107.687C192.879 107.115 192.247 106.664 191.525 106.333C190.818 105.987 190.059 105.792 189.247 105.747C189.142 107.205 188.924 108.679 188.593 110.168C188.262 111.656 187.811 113.04 187.24 114.318C186.683 115.596 186.014 116.664 185.232 117.521C184.706 118.092 184.172 118.43 183.63 118.536C183.104 118.641 182.548 118.573 181.961 118.333C181.39 118.092 180.879 117.701 180.427 117.16C179.976 116.603 179.63 115.942 179.39 115.175C179.149 114.408 179.052 113.581 179.097 112.694C179.172 111.371 179.48 110.153 180.021 109.04C180.578 107.927 181.322 106.972 182.255 106.175C183.187 105.363 184.255 104.754 185.458 104.348C186.661 103.927 187.946 103.754 189.315 103.83C190.397 103.89 191.42 104.138 192.382 104.574C193.345 105.01 194.194 105.604 194.931 106.356C195.668 107.108 196.232 107.987 196.623 108.995C197.029 110.002 197.202 111.115 197.142 112.333C197.037 114.288 196.337 115.942 195.044 117.295C193.751 118.649 191.991 119.581 189.766 120.092ZM182.548 116.235C182.713 116.34 182.909 116.393 183.134 116.393C183.36 116.378 183.578 116.258 183.788 116.032C184.375 115.416 184.901 114.574 185.367 113.506C185.849 112.438 186.247 111.243 186.563 109.92C186.879 108.596 187.082 107.25 187.172 105.882C186.029 106.093 185.014 106.529 184.127 107.19C183.239 107.852 182.533 108.664 182.006 109.626C181.48 110.589 181.187 111.641 181.127 112.784C181.082 113.611 181.202 114.333 181.488 114.949C181.773 115.551 182.127 115.979 182.548 116.235Z" fill="#772D2D"/>
<path d="M163.645 120.886C163.57 120.57 163.442 120.217 163.261 119.826C163.096 119.435 162.908 119.097 162.698 118.811C164.156 118.751 165.434 118.563 166.532 118.247C167.63 117.931 168.487 117.48 169.104 116.894C169.72 116.307 170.028 115.571 170.028 114.683C170.028 113.661 169.713 112.856 169.081 112.27C168.464 111.669 167.577 111.368 166.419 111.368C165.186 111.368 164.051 111.556 163.013 111.932C161.976 112.308 161.021 112.864 160.149 113.601C159.577 114.082 159.081 114.503 158.66 114.864C158.239 115.225 157.795 115.578 157.329 115.924L155.953 114.232C156.72 113.781 157.562 113.187 158.479 112.45C159.412 111.714 160.344 110.909 161.276 110.037C162.224 109.15 163.096 108.263 163.893 107.376C164.705 106.473 165.374 105.631 165.901 104.849C165.449 104.955 164.931 105.06 164.344 105.165C163.758 105.27 163.156 105.376 162.54 105.481C161.923 105.571 161.329 105.654 160.758 105.729C160.201 105.789 159.728 105.834 159.337 105.864L158.773 103.812C159.194 103.812 159.713 103.797 160.329 103.767C160.946 103.722 161.6 103.661 162.291 103.586C162.998 103.511 163.682 103.421 164.344 103.316C165.021 103.21 165.63 103.097 166.171 102.977C166.728 102.857 167.164 102.729 167.479 102.594L168.991 103.699C168.66 104.331 168.216 105.022 167.66 105.774C167.119 106.511 166.51 107.27 165.833 108.052C165.171 108.819 164.479 109.571 163.758 110.308C164.194 110.097 164.652 109.947 165.134 109.857C165.615 109.751 166.066 109.691 166.487 109.676C167.645 109.631 168.652 109.811 169.51 110.217C170.367 110.623 171.028 111.21 171.495 111.977C171.976 112.744 172.216 113.646 172.216 114.683C172.216 116.518 171.464 117.954 169.961 118.992C168.457 120.014 166.352 120.646 163.645 120.886Z" fill="#772D2D"/>
<path d="M147.154 120.07C145.801 120.311 144.485 120.476 143.207 120.567C141.929 120.657 140.733 120.649 139.62 120.544C138.508 120.439 137.53 120.221 136.688 119.89C135.846 119.544 135.184 119.063 134.703 118.446C134.237 117.83 134.004 117.048 134.004 116.101C134.004 114.898 134.47 113.853 135.402 112.965C136.35 112.078 137.598 111.311 139.147 110.665C138.741 109.763 138.448 108.59 138.267 107.146C138.087 105.688 138.026 104.003 138.087 102.094H140.342C140.252 102.981 140.214 103.921 140.229 104.913C140.26 105.891 140.342 106.823 140.478 107.71C140.613 108.582 140.793 109.327 141.019 109.943C141.771 109.687 142.553 109.447 143.365 109.221C144.192 108.981 145.034 108.755 145.891 108.545L146.365 110.71C145.011 110.89 143.718 111.161 142.485 111.522C141.252 111.868 140.162 112.281 139.214 112.762C138.267 113.229 137.515 113.74 136.959 114.296C136.417 114.853 136.147 115.417 136.147 115.988C136.147 116.695 136.448 117.259 137.049 117.68C137.666 118.086 138.5 118.356 139.553 118.492C140.62 118.627 141.831 118.634 143.184 118.514C144.553 118.394 145.989 118.153 147.493 117.792C147.387 118.078 147.305 118.454 147.245 118.92C147.184 119.371 147.154 119.755 147.154 120.07Z" fill="#772D2D"/>
<path d="M112.732 121.072V114.147C112.1 114.734 111.506 115.32 110.95 115.907C110.393 116.493 109.897 117.049 109.461 117.576L107.859 116.155C108.551 115.538 109.311 114.854 110.138 114.102C110.965 113.335 111.829 112.583 112.732 111.847V108.486C112.025 108.636 111.318 108.779 110.611 108.914C109.92 109.05 109.356 109.147 108.92 109.208L108.514 107.29C108.784 107.29 109.145 107.26 109.596 107.2C110.062 107.14 110.566 107.057 111.108 106.952C111.664 106.847 112.205 106.741 112.732 106.636V102.328H114.671V106.163C114.852 106.117 114.98 106.072 115.055 106.027L116.228 106.884L114.694 110.403C115.656 109.741 116.626 109.2 117.604 108.779C118.596 108.343 119.566 108.125 120.514 108.125C121.626 108.125 122.611 108.328 123.468 108.734C124.341 109.14 125.025 109.734 125.521 110.516C126.017 111.283 126.265 112.237 126.265 113.38C126.265 115.019 125.656 116.425 124.438 117.598C123.22 118.771 121.446 119.591 119.115 120.057C119.025 119.771 118.867 119.425 118.641 119.019C118.431 118.598 118.22 118.267 118.01 118.027C119.213 117.861 120.273 117.576 121.19 117.17C122.123 116.764 122.852 116.245 123.378 115.613C123.905 114.982 124.168 114.237 124.168 113.38C124.168 112.177 123.837 111.305 123.175 110.764C122.514 110.223 121.626 109.952 120.514 109.952C119.641 109.952 118.694 110.2 117.671 110.696C116.664 111.177 115.664 111.794 114.671 112.546V121.072H112.732Z" fill="#772D2D"/>
<path d="M92.6344 120.028C91.8374 120.028 91.0404 119.825 90.2434 119.419C90.2735 119.269 90.2885 119.066 90.2885 118.81C90.3035 118.54 90.3111 118.269 90.3111 117.998C90.3111 117.713 90.3035 117.479 90.2885 117.299C90.6193 117.51 90.9802 117.667 91.3712 117.773C91.7772 117.863 92.1682 117.908 92.5441 117.908C93.0103 117.893 93.3863 117.78 93.672 117.57C93.9577 117.359 94.1081 117.043 94.1231 116.622C94.1381 115.916 93.9802 115.292 93.6494 114.75C93.3186 114.209 92.8524 113.585 92.2509 112.878C91.7847 112.322 91.3862 111.773 91.0554 111.232C90.7396 110.69 90.5667 110.111 90.5366 109.495C90.5216 108.878 90.702 108.179 91.078 107.397L92.9953 108.345C92.7697 108.811 92.6569 109.217 92.6569 109.563C92.672 109.908 92.7923 110.254 93.0178 110.6C93.2434 110.946 93.5592 111.359 93.9652 111.841C94.4765 112.427 94.9051 112.968 95.2509 113.465C95.5968 113.946 95.8524 114.442 96.0178 114.953C96.1983 115.465 96.2885 116.066 96.2885 116.758C96.2885 117.434 96.1231 118.021 95.7923 118.517C95.4614 118.998 95.0178 119.374 94.4614 119.645C93.9051 119.9 93.296 120.028 92.6344 120.028ZM102.198 117.953C101.958 117.577 101.627 117.141 101.206 116.645C100.785 116.149 100.326 115.652 99.8299 115.156C99.3487 114.645 98.8675 114.179 98.3863 113.758C97.9201 113.337 97.5066 113.013 97.1457 112.788L98.5893 111.367C98.9351 111.608 99.3412 111.946 99.8073 112.382C100.289 112.803 100.777 113.262 101.273 113.758C101.77 114.239 102.228 114.72 102.649 115.201C103.086 115.668 103.424 116.074 103.664 116.419L102.198 117.953ZM84.4464 118.63L83.2734 116.758C83.514 116.607 83.8373 116.412 84.2434 116.171C84.6644 115.931 85.1231 115.668 85.6193 115.382C86.1156 115.096 86.6118 114.818 87.108 114.547C87.6193 114.262 88.078 114.006 88.484 113.78C88.905 113.54 89.2283 113.359 89.4539 113.239C89.484 113.344 89.5291 113.525 89.5892 113.78C89.6644 114.036 89.7396 114.292 89.8148 114.547C89.905 114.788 89.9727 114.961 90.0178 115.066C89.7321 115.216 89.3411 115.442 88.8449 115.743C88.3637 116.043 87.8374 116.374 87.2659 116.735C86.7095 117.096 86.1757 117.449 85.6644 117.795C85.1682 118.126 84.7622 118.404 84.4464 118.63ZM95.5667 107.036C95.3111 106.826 94.9577 106.585 94.5066 106.315C94.0705 106.029 93.5893 105.751 93.0629 105.48C92.5517 105.194 92.0554 104.946 91.5742 104.736C91.093 104.51 90.687 104.352 90.3562 104.262L91.484 102.57C91.7998 102.691 92.1983 102.871 92.6795 103.112C93.1757 103.352 93.687 103.608 94.2133 103.879C94.7396 104.149 95.2284 104.412 95.6795 104.668C96.1306 104.924 96.4765 105.134 96.7171 105.3L95.5667 107.036Z" fill="#772D2D"/>
<path d="M302.925 162.266C302.908 161.959 302.883 161.489 302.848 160.858C302.814 160.226 302.78 159.509 302.746 158.707C302.712 157.905 302.678 157.077 302.644 156.224C302.627 155.37 302.609 154.559 302.592 153.791C302.575 153.023 302.558 152.366 302.541 151.82C302.524 151.274 302.516 150.907 302.516 150.719V146.469H305.358V150.719C305.358 150.907 305.349 151.274 305.332 151.82C305.315 152.366 305.298 153.023 305.281 153.791C305.264 154.559 305.238 155.37 305.204 156.224C305.17 157.077 305.136 157.905 305.102 158.707C305.067 159.509 305.033 160.226 304.999 160.858C304.982 161.489 304.957 161.959 304.922 162.266H302.925ZM303.924 168.309C303.412 168.309 302.968 168.121 302.592 167.745C302.234 167.387 302.055 166.952 302.055 166.439C302.055 165.927 302.234 165.492 302.592 165.134C302.968 164.775 303.412 164.596 303.924 164.596C304.436 164.596 304.871 164.775 305.23 165.134C305.605 165.492 305.793 165.927 305.793 166.439C305.793 166.952 305.605 167.387 305.23 167.745C304.871 168.121 304.436 168.309 303.924 168.309Z" fill="#772D2D"/>
<path d="M284.052 168.509C283.864 168.184 283.599 167.834 283.258 167.459C282.917 167.083 282.592 166.785 282.285 166.563C284.572 165.59 286.348 164.147 287.611 162.236C288.891 160.324 289.531 158.037 289.531 155.374C289.531 154.162 289.386 153.215 289.096 152.532C288.806 151.832 288.422 151.346 287.944 151.073C287.466 150.782 286.936 150.663 286.356 150.714C285.707 150.765 285.084 151.158 284.487 151.892C283.889 152.609 283.437 153.616 283.13 154.913C282.84 156.193 282.797 157.712 283.002 159.471C282.848 159.471 282.618 159.505 282.311 159.573C282.003 159.624 281.713 159.684 281.44 159.752C281.167 159.803 280.971 159.855 280.851 159.906C280.766 159.291 280.689 158.523 280.621 157.601C280.552 156.68 280.501 155.698 280.467 154.657C280.45 153.599 280.441 152.549 280.441 151.508C280.441 150.45 280.458 149.468 280.493 148.563C280.527 147.659 280.578 146.916 280.646 146.336L283.053 146.566C282.951 147.01 282.857 147.591 282.771 148.307C282.703 149.024 282.652 149.792 282.618 150.612C282.584 151.431 282.558 152.216 282.541 152.967C282.899 151.738 283.463 150.714 284.231 149.895C284.999 149.058 285.853 148.623 286.791 148.589C287.747 148.538 288.618 148.751 289.403 149.229C290.188 149.707 290.811 150.458 291.272 151.482C291.733 152.489 291.963 153.787 291.963 155.374C291.963 158.481 291.264 161.118 289.864 163.285C288.481 165.436 286.544 167.177 284.052 168.509Z" fill="#772D2D"/>
<path d="M260.649 168.324C260.581 168.051 260.453 167.71 260.265 167.3C260.095 166.907 259.89 166.574 259.651 166.301C261.853 165.994 263.543 165.32 264.72 164.279C265.898 163.238 266.487 161.966 266.487 160.464C266.487 159.457 266.205 158.612 265.642 157.929C265.079 157.246 264.302 156.743 263.312 156.418C261.964 158.962 260.444 161.078 258.755 162.768C258.857 163.127 258.968 163.476 259.087 163.818C259.207 164.159 259.335 164.492 259.471 164.816C259.164 164.885 258.789 165.021 258.345 165.226C257.918 165.414 257.594 165.593 257.372 165.764C257.287 165.542 257.201 165.32 257.116 165.098C257.048 164.876 256.971 164.654 256.885 164.432C255.912 165.183 254.957 165.738 254.018 166.097C253.079 166.438 252.217 166.549 251.432 166.429C251.107 166.378 250.783 166.25 250.459 166.045C250.134 165.823 249.861 165.508 249.639 165.098C249.434 164.671 249.332 164.117 249.332 163.434C249.332 162.205 249.605 161.053 250.151 159.977C250.715 158.885 251.474 157.912 252.43 157.059C253.403 156.205 254.504 155.531 255.733 155.036C255.733 154.456 255.742 153.884 255.759 153.32C255.793 152.757 255.827 152.211 255.861 151.682C254.769 151.767 253.745 151.827 252.789 151.861C251.833 151.878 251.056 151.861 250.459 151.81L250.254 149.634C250.902 149.702 251.739 149.736 252.763 149.736C253.804 149.736 254.897 149.702 256.04 149.634C256.126 148.968 256.211 148.336 256.296 147.739C256.382 147.124 256.476 146.553 256.578 146.023L258.78 146.433C258.678 146.894 258.584 147.372 258.498 147.867C258.413 148.362 258.336 148.882 258.268 149.429C259.548 149.292 260.777 149.121 261.955 148.917C263.15 148.712 264.14 148.473 264.925 148.2L265.181 150.274C264.328 150.53 263.261 150.769 261.981 150.991C260.718 151.195 259.403 151.366 258.038 151.503C257.969 152.424 257.918 153.38 257.884 154.37C258.294 154.285 258.712 154.217 259.139 154.165C259.565 154.114 259.992 154.089 260.419 154.089C260.692 154.089 260.957 154.097 261.213 154.114C261.486 154.131 261.75 154.157 262.006 154.191C262.297 153.542 262.553 152.877 262.774 152.194L264.9 152.808C264.78 153.116 264.661 153.423 264.541 153.73C264.422 154.037 264.294 154.345 264.157 154.652C265.591 155.096 266.735 155.812 267.588 156.803C268.442 157.793 268.868 159.021 268.868 160.489C268.868 161.872 268.535 163.101 267.87 164.176C267.204 165.252 266.257 166.139 265.028 166.839C263.799 167.539 262.339 168.034 260.649 168.324ZM253.429 164.023C254.248 163.733 255.213 163.109 256.322 162.154C256.168 161.351 256.04 160.532 255.938 159.696C255.853 158.842 255.793 157.98 255.759 157.11C254.513 157.758 253.497 158.612 252.712 159.67C251.927 160.711 251.534 161.838 251.534 163.05C251.534 163.715 251.713 164.091 252.072 164.176C252.447 164.262 252.9 164.21 253.429 164.023ZM258.242 160.233C258.737 159.636 259.232 158.987 259.728 158.288C260.24 157.588 260.709 156.837 261.136 156.034C261.016 156.017 260.897 156.009 260.777 156.009C260.658 156.009 260.538 156.009 260.419 156.009C259.548 156.009 258.712 156.111 257.91 156.316C257.927 156.982 257.961 157.647 258.012 158.313C258.08 158.962 258.157 159.602 258.242 160.233Z" fill="#772D2D"/>
<path d="M223.573 166.942C223.454 166.277 223.36 165.457 223.291 164.484C223.223 163.494 223.172 162.419 223.138 161.258C223.121 160.081 223.121 158.869 223.138 157.623C223.172 156.377 223.223 155.156 223.291 153.961C223.377 152.766 223.479 151.665 223.599 150.658C223.718 149.634 223.863 148.764 224.034 148.047L226.338 148.533C226.168 149.148 226.014 149.942 225.877 150.914C225.758 151.87 225.656 152.929 225.57 154.089C225.502 155.233 225.451 156.419 225.417 157.648C225.4 158.86 225.4 160.038 225.417 161.181C225.451 162.308 225.502 163.332 225.57 164.254C225.656 165.176 225.758 165.927 225.877 166.507L223.573 166.942ZM233.636 165.432C232.475 165.363 231.536 165.141 230.819 164.766C230.102 164.373 229.641 163.793 229.437 163.025C229.095 162.137 229.121 161.011 229.513 159.645L231.587 160.209C231.468 160.584 231.408 160.934 231.408 161.258C231.425 161.566 231.493 161.839 231.613 162.078C231.886 162.658 232.705 162.999 234.071 163.102C234.839 163.153 235.693 163.144 236.631 163.076C237.57 162.991 238.492 162.871 239.397 162.718C240.301 162.564 241.078 162.385 241.727 162.18C241.693 162.351 241.658 162.607 241.624 162.948C241.607 163.272 241.59 163.605 241.573 163.947C241.573 164.271 241.573 164.527 241.573 164.715C240.72 164.937 239.815 165.107 238.859 165.227C237.92 165.346 236.998 165.423 236.094 165.457C235.206 165.474 234.387 165.466 233.636 165.432ZM230.307 152.988L230.179 150.582C230.811 150.65 231.579 150.693 232.483 150.71C233.388 150.727 234.336 150.71 235.326 150.658C236.316 150.607 237.263 150.53 238.168 150.428C239.072 150.309 239.841 150.172 240.472 150.018L240.395 152.399C239.73 152.519 238.953 152.63 238.065 152.732C237.178 152.818 236.256 152.886 235.3 152.937C234.344 152.988 233.431 153.022 232.56 153.04C231.69 153.04 230.939 153.022 230.307 152.988Z" fill="#772D2D"/>
<path d="M49.8681 152.645C48.3056 152.645 46.9146 153.023 46 153.287L46.3811 150.785C47.4005 151.002 48.5819 151.163 49.7157 151.163H52.5168C52.5739 150.473 52.6216 149.775 52.6216 149.029L58.9668 151.002C57.4043 157.508 54.0221 160.813 47.1338 162.144L46.9146 161.663C49.9825 159.047 51.6498 156.441 52.2881 152.655H49.8681V152.645ZM46.2668 171.729C49.4394 170.879 52.0213 169.708 54.0602 167.734L54.7081 168.055C54.2222 172.106 52.4501 174.505 50.2492 175.997L46.2668 171.729ZM53.7458 138.84C51.4878 138.84 49.6585 139.265 48.6867 139.482L49.0678 136.98C50.4112 137.197 52.1357 137.358 53.5838 137.358H55.737C55.6799 136.026 55.6322 134.638 55.6322 133.203L62.1395 134.053C62.1395 135.12 62.1395 136.234 62.1966 137.358H67.8941C67.8369 136.026 67.7892 134.591 67.7892 133.203L74.2965 134.053C74.2965 135.384 74.2965 136.234 74.3537 137.358H76.1258C76.9832 135.97 78.1742 134.053 78.6505 133.364C80.4226 134.695 82.5187 137.093 82.7378 138.85C81.6612 138.906 78.3838 138.85 77.1452 138.85H74.4013C74.4585 139.596 74.4585 140.502 74.5061 141.626L67.9989 141.947C67.9989 141.04 67.9417 139.973 67.8941 138.859H62.2443C62.2443 139.87 62.3014 140.833 62.3491 141.635L55.8418 141.956C55.8418 140.993 55.7847 139.983 55.7847 138.869H53.7458V138.84ZM73.9059 166.394H56.0038C53.7458 166.394 51.9165 166.818 50.9447 167.036L51.3258 164.533C52.6692 164.751 54.3937 164.911 55.8418 164.911H73.1056C74.0202 163.523 74.7729 162.352 75.3064 161.663C77.2405 162.994 78.8601 164.647 79.3937 166.403C78.3171 166.46 75.2016 166.403 73.9059 166.403V166.394ZM74.7157 146.149C72.1909 148.547 68.5896 149.822 66.0076 150.464C70.2569 154.411 69.609 160.426 65.4741 163.787C62.7873 162.617 60.7961 161.757 58.157 159.68L58.7477 158.934C61.3296 159.623 62.3491 159.68 62.7302 158.292C63.378 156.215 63.5876 153.438 62.5682 149.284L63.54 148.698C64.0735 149.019 64.6166 149.284 65.0453 149.661C65.96 148.594 66.9318 147.367 67.8464 145.875H60.4245C58.5381 145.875 56.928 146.3 56.0705 146.517L56.4516 144.015C57.471 144.232 58.9764 144.392 60.2721 144.392H68.6658C68.9897 143.75 69.3136 143.004 69.6376 142.258L74.7443 146.149H74.7157ZM59.0716 167.838C61.6536 169.274 63.1589 171.247 63.9687 174.231C61.6536 174.712 60.3674 175.033 58.2713 175.723C58.862 172.899 58.9668 171.304 58.7001 167.942L59.0812 167.838H59.0716ZM67.6178 167.574C70.5236 168.801 72.8864 171.408 73.963 173.598C72.1909 174.023 70.2569 174.561 68.5896 175.411C68.3704 172.852 67.8941 169.925 67.0842 167.848L67.6178 167.583V167.574ZM71.9242 152.862L72.5149 152.381C76.383 155.525 79.3937 156.215 83.9668 156.488C82.4615 158.197 81.3277 160.218 80.5274 162.031C76.221 160.483 73.5343 157.395 71.9242 152.862ZM74.3918 151.153C76.6498 149.444 77.9931 147.32 78.6982 145.186L83.4809 148.066C81.4897 150.464 77.6216 151.795 74.6585 152.013L74.3918 151.163V151.153ZM75.4112 167.621C78.5267 168.584 81.1658 170.019 83.157 172.522C81.5469 173.211 80.1463 174.231 78.641 175.402C77.5644 172.153 76.4878 169.859 74.9348 167.989L75.4207 167.612L75.4112 167.621Z" fill="#EB5925"/>
<path d="M107.483 137.41C105.759 160.006 107.912 169.921 115.438 172.055V172.584C114.419 172.744 113.447 172.848 112.533 172.848C102.043 172.848 99.7852 161.073 99.7852 149.289V148.439C99.8423 144.331 100.109 140.28 100.376 136.711L107.474 137.4L107.483 137.41Z" fill="#EB5925"/>
<path d="M127.918 153.972C128.89 150.724 129.318 147.627 128.89 144.7L129.538 144.483C132.015 147.098 133.244 150.932 132.929 154.662L127.927 153.972H127.918ZM140.447 137.722C141.094 163.094 136.416 170.072 128.995 174.972L128.404 174.548C133.244 166.078 134.968 162.027 134.425 136.759L140.447 137.722ZM140.285 160.214C143.838 162.508 146.039 164.69 147.602 168.533C145.934 168.589 143.19 169.543 141.58 170.61C141.209 166.776 141.047 163.944 139.703 160.695L140.294 160.214H140.285ZM147.868 145.077C146.735 147.844 143.838 151.631 141.304 152.858L140.818 152.377C142.219 149.015 142.809 145.767 143.019 143.161L147.859 145.077H147.868ZM146.525 174.17C150.231 171.394 151.737 167.824 152.489 163.302L158.463 165.218C156.853 170.704 151.737 173.688 146.897 174.708L146.525 174.179V174.17ZM167.981 148.326V150.941H168.143C168.953 149.77 169.972 148.165 170.458 147.533C172.182 148.807 173.735 150.837 174.059 152.433C172.983 152.49 170.239 152.433 169.057 152.433H167.981V159.251C168.734 158.08 169.543 156.588 170.02 156.002C171.744 157.277 173.297 159.307 173.621 160.903C172.544 160.96 169.801 160.903 168.619 160.903H152.861C150.546 160.903 148.669 161.328 147.802 161.545L148.173 159.043C149.088 159.203 150.488 159.364 151.727 159.421L151.565 152.443C149.364 152.499 147.583 152.868 146.782 153.085L147.154 150.582C148.23 150.8 150.107 150.96 151.508 150.96V147.655L157.529 148.345C157.529 149.034 157.472 149.94 157.472 150.96H162.093C162.036 149.685 162.036 148.505 161.988 147.551L167.962 148.354L167.981 148.326ZM154.642 142.141C152.327 142.141 150.45 142.566 149.583 142.783L149.964 140.281C151.089 140.498 153.032 140.658 154.48 140.658H156.367C156.31 138.789 156.31 137.032 156.31 134.898L162.712 135.541C162.655 137.41 162.655 138.949 162.655 140.658H164.913C165.723 139.487 166.742 137.882 167.228 137.25C168.953 138.524 170.506 140.555 170.83 142.15C169.753 142.207 167.009 142.15 165.828 142.15H162.655C162.712 143.378 162.712 144.766 162.76 146.466L156.576 146.947C156.519 145.134 156.415 143.586 156.415 142.15H154.642V142.141ZM162.274 159.411L162.112 152.433H157.491C157.491 154.935 157.548 157.655 157.548 159.411H162.283H162.274ZM171.42 166.125C173.459 169.005 174.431 170.544 175.022 172.999C173.678 173.905 171.63 174.548 170.02 174.755C168.943 174.916 167.657 175.02 166.361 175.02C164.37 175.02 162.331 174.802 161.035 174.491C160.607 172.357 160.387 166.606 160.502 163.245L166.094 164.095C165.932 165.483 165.932 168.788 166.199 169.958C167.705 170.119 168.886 170.062 169.905 169.798C170.925 169.581 171.087 168.995 170.658 166.333L171.411 166.115L171.42 166.125Z" fill="#EB5925"/>
<path d="M192.102 161.281C192.264 166.824 192.531 170.497 199.581 172.367V172.895C198.562 173.056 197.542 173.113 196.628 173.113C191.035 173.113 187.005 170.336 184.633 163.896L192.102 161.281ZM207.107 151.895L204.04 152.055C204.735 155.039 205.383 157.919 205.869 160.525C201.41 160.1 200.381 159.94 196.294 159.194L196.351 158.665L198.933 158.344C198.504 156.795 197.961 154.718 197.371 152.423C194.732 152.584 192.369 152.745 191.026 152.848C189.682 152.952 187.958 153.538 187.205 153.755L187.367 151.3C188.12 151.404 189.682 151.46 191.026 151.356C192.369 151.253 194.579 151.139 196.999 150.979C196.466 148.797 195.865 146.503 195.275 144.265C193.607 144.369 192.159 144.482 191.188 144.586C189.844 144.69 188.12 145.275 187.367 145.493L187.529 143.037C188.282 143.141 189.844 143.198 191.188 143.094C192.159 143.037 193.445 142.934 194.894 142.83C194.465 141.281 194.084 139.789 193.712 138.514L200.648 137.391C200.972 138.883 201.344 140.535 201.782 142.348C202.21 142.291 202.639 142.291 203.02 142.244C203.773 140.969 204.583 139.95 205.497 138.722C206.631 139.525 208.775 141.017 209.689 143.415C208.937 143.472 207.593 143.519 206.298 143.576C205.164 143.632 203.716 143.736 202.153 143.84L203.716 150.554C204.411 150.497 205.116 150.497 205.764 150.45C206.574 149.222 207.327 148.155 208.289 146.984C209.423 147.73 211.566 149.222 212.433 151.621C211.299 151.725 208.832 151.838 207.107 151.885V151.895Z" fill="#EB5925"/>
<path d="M34.915 12.949V10.596H32.601V9.491H34.915V5.89C34.525 6.49667 34.0657 7.10767 33.537 7.723C33.017 8.32967 32.4623 8.90167 31.873 9.439C31.2837 9.96767 30.6987 10.427 30.118 10.817C30.0573 10.739 29.9707 10.6437 29.858 10.531C29.754 10.4097 29.6457 10.297 29.533 10.193C29.4203 10.089 29.325 10.011 29.247 9.959C29.7237 9.69033 30.2047 9.35667 30.69 8.958C31.184 8.55933 31.6607 8.12167 32.12 7.645C32.5793 7.16833 33.004 6.683 33.394 6.189C33.7927 5.68633 34.1263 5.20533 34.395 4.746H29.806V3.654H34.915V1.158H36.085V3.654H41.181V4.746H36.605C36.891 5.23133 37.2333 5.721 37.632 6.215C38.0307 6.709 38.4597 7.18567 38.919 7.645C39.387 8.10433 39.8637 8.529 40.349 8.919C40.843 9.30033 41.324 9.621 41.792 9.881C41.714 9.933 41.6143 10.0153 41.493 10.128C41.3717 10.2407 41.2547 10.3577 41.142 10.479C41.038 10.6003 40.9557 10.7043 40.895 10.791C40.2883 10.3837 39.686 9.91133 39.088 9.374C38.4987 8.83667 37.9483 8.269 37.437 7.671C36.9257 7.06433 36.475 6.45333 36.085 5.838V9.491H38.451V10.596H36.085V12.949H34.915ZM43.378 12.624V11.558H52.088V9.777H43.872V8.724H52.088V7.021H43.417V5.981H47.863V1.249H49.111V5.981H53.336V12.624H43.378ZM51.126 5.578C51.0567 5.526 50.9527 5.461 50.814 5.383C50.684 5.29633 50.5497 5.21833 50.411 5.149C50.281 5.071 50.1727 5.02333 50.086 5.006C50.3287 4.72 50.567 4.39067 50.801 4.018C51.0437 3.63667 51.2647 3.251 51.464 2.861C51.672 2.471 51.841 2.107 51.971 1.769L53.128 2.224C52.8507 2.83067 52.5387 3.433 52.192 4.031C51.8453 4.629 51.49 5.14467 51.126 5.578ZM45.575 5.617C45.4537 5.31367 45.289 4.97133 45.081 4.59C44.8817 4.20867 44.665 3.84033 44.431 3.485C44.197 3.121 43.9673 2.81333 43.742 2.562L44.782 1.977C45.016 2.24567 45.25 2.55767 45.484 2.913C45.7267 3.25967 45.952 3.61933 46.16 3.992C46.3767 4.356 46.5587 4.70267 46.706 5.032C46.628 5.058 46.511 5.11 46.355 5.188C46.2077 5.25733 46.0603 5.33533 45.913 5.422C45.7657 5.5 45.653 5.565 45.575 5.617ZM57.08 11.987C57.0193 11.649 56.9717 11.233 56.937 10.739C56.9023 10.2363 56.8763 9.69033 56.859 9.101C56.8503 8.503 56.8503 7.88767 56.859 7.255C56.8763 6.62233 56.9023 6.00267 56.937 5.396C56.9803 4.78933 57.0323 4.23033 57.093 3.719C57.1537 3.199 57.2273 2.757 57.314 2.393L58.484 2.64C58.3973 2.952 58.3193 3.355 58.25 3.849C58.1893 4.33433 58.1373 4.87167 58.094 5.461C58.0593 6.04167 58.0333 6.644 58.016 7.268C58.0073 7.88333 58.0073 8.48133 58.016 9.062C58.0333 9.634 58.0593 10.154 58.094 10.622C58.1373 11.09 58.1893 11.4713 58.25 11.766L57.08 11.987ZM62.189 11.22C61.5997 11.1853 61.123 11.0727 60.759 10.882C60.395 10.6827 60.161 10.388 60.057 9.998C59.8837 9.54733 59.8967 8.97533 60.096 8.282L61.149 8.568C61.0883 8.75867 61.058 8.93633 61.058 9.101C61.0667 9.257 61.1013 9.39567 61.162 9.517C61.3007 9.81167 61.7167 9.985 62.41 10.037C62.8 10.063 63.2333 10.0587 63.71 10.024C64.1867 9.98067 64.6547 9.92 65.114 9.842C65.5733 9.764 65.9677 9.673 66.297 9.569C66.2797 9.65567 66.2623 9.78567 66.245 9.959C66.2363 10.1237 66.2277 10.2927 66.219 10.466C66.219 10.6307 66.219 10.7607 66.219 10.856C65.7857 10.9687 65.3263 11.0553 64.841 11.116C64.3643 11.1767 63.8963 11.2157 63.437 11.233C62.9863 11.2417 62.5703 11.2373 62.189 11.22ZM60.499 4.902L60.434 3.68C60.7547 3.71467 61.1447 3.73633 61.604 3.745C62.0633 3.75367 62.5443 3.745 63.047 3.719C63.5497 3.693 64.0307 3.654 64.49 3.602C64.9493 3.54133 65.3393 3.472 65.66 3.394L65.621 4.603C65.283 4.66367 64.8887 4.72 64.438 4.772C63.9873 4.81533 63.5193 4.85 63.034 4.876C62.5487 4.902 62.085 4.91933 61.643 4.928C61.201 4.928 60.8197 4.91933 60.499 4.902ZM68.832 12.962L68.533 11.844C68.7583 11.8267 69.04 11.792 69.378 11.74C69.716 11.6793 70.0843 11.6143 70.483 11.545V2.653H73.733V1.054H75.02V2.653H78.205V8.035H74.747C74.8943 8.31233 75.0633 8.57667 75.254 8.828C75.4447 9.07933 75.657 9.31767 75.891 9.543C76.203 9.42167 76.5627 9.26567 76.97 9.075C77.3773 8.88433 77.776 8.685 78.166 8.477C78.556 8.269 78.868 8.08267 79.102 7.918L79.83 8.906C79.5873 9.036 79.2883 9.18333 78.933 9.348C78.5863 9.51267 78.2223 9.67733 77.841 9.842C77.4683 9.998 77.113 10.141 76.775 10.271C77.3123 10.661 77.893 10.9903 78.517 11.259C79.141 11.5277 79.7693 11.727 80.402 11.857C80.3327 11.935 80.246 12.0433 80.142 12.182C80.038 12.3293 79.9427 12.4723 79.856 12.611C79.7693 12.7583 79.713 12.871 79.687 12.949C78.777 12.6543 77.932 12.2947 77.152 11.87C76.372 11.4453 75.6743 10.921 75.059 10.297C74.4523 9.673 73.9367 8.919 73.512 8.035H71.718V11.285C72.1427 11.1983 72.5457 11.1117 72.927 11.025C73.317 10.9297 73.6593 10.843 73.954 10.765C74.2573 10.6783 74.4827 10.6047 74.63 10.544V11.623C74.3787 11.7097 74.058 11.805 73.668 11.909C73.278 12.013 72.8577 12.117 72.407 12.221C71.965 12.3337 71.5187 12.4377 71.068 12.533C70.6173 12.6283 70.197 12.7107 69.807 12.78C69.417 12.858 69.092 12.9187 68.832 12.962ZM71.718 7.034H77.009V5.786H71.718V7.034ZM71.718 4.85H77.009V3.641H71.718V4.85ZM86.317 10.57C85.9443 10.7867 85.5803 10.8777 85.225 10.843C84.8697 10.7997 84.5447 10.5483 84.25 10.089C83.9987 9.673 83.769 9.19633 83.561 8.659C83.353 8.113 83.171 7.53667 83.015 6.93C82.8677 6.31467 82.755 5.708 82.677 5.11C82.599 4.50333 82.5643 3.93567 82.573 3.407L83.795 3.42C83.7777 3.862 83.795 4.33867 83.847 4.85C83.899 5.36133 83.9813 5.87267 84.094 6.384C84.2153 6.89533 84.354 7.38067 84.51 7.84C84.6747 8.29933 84.8567 8.698 85.056 9.036C85.2033 9.27867 85.355 9.413 85.511 9.439C85.667 9.465 85.823 9.42167 85.979 9.309C86.1957 9.16167 86.421 8.96233 86.655 8.711C86.8977 8.451 87.0883 8.20833 87.227 7.983C87.2877 8.139 87.3873 8.31667 87.526 8.516C87.6733 8.71533 87.8033 8.87133 87.916 8.984C87.7253 9.27867 87.4783 9.57767 87.175 9.881C86.8803 10.1757 86.5943 10.4053 86.317 10.57ZM91.439 8.23C91.361 7.996 91.2353 7.697 91.062 7.333C90.8887 6.969 90.6893 6.592 90.464 6.202C90.2387 5.812 90.009 5.448 89.775 5.11C89.5497 4.76333 89.346 4.49033 89.164 4.291L90.126 3.68C90.3253 3.90533 90.5463 4.19567 90.789 4.551C91.0403 4.90633 91.2873 5.28767 91.53 5.695C91.7727 6.09367 91.985 6.475 92.167 6.839C92.3577 7.203 92.4963 7.51067 92.583 7.762C92.3837 7.79667 92.1757 7.86167 91.959 7.957C91.7423 8.04367 91.569 8.13467 91.439 8.23ZM101.605 12.598C100.678 12.598 99.941 12.3467 99.395 11.844C98.8577 11.3327 98.5847 10.6047 98.576 9.66C98.576 9.51267 98.5803 9.335 98.589 9.127C98.6063 8.91033 98.6237 8.672 98.641 8.412C98.0863 8.34267 97.562 8.26467 97.068 8.178C96.574 8.08267 96.1753 7.983 95.872 7.879L96.067 6.748C96.3357 6.86067 96.7127 6.96467 97.198 7.06C97.6833 7.15533 98.199 7.23333 98.745 7.294C98.7797 6.96467 98.8143 6.618 98.849 6.254C98.8923 5.89 98.9313 5.53033 98.966 5.175C98.4893 5.10567 98.0343 5.032 97.601 4.954C97.1763 4.876 96.8513 4.80667 96.626 4.746L96.821 3.602C97.0203 3.68 97.328 3.76233 97.744 3.849C98.16 3.927 98.6063 4.00067 99.083 4.07C99.1523 3.50667 99.2087 2.991 99.252 2.523C99.304 2.055 99.3387 1.69967 99.356 1.457L100.617 1.652C100.565 1.90333 100.504 2.25867 100.435 2.718C100.374 3.16867 100.309 3.667 100.24 4.213C100.561 4.24767 100.855 4.27367 101.124 4.291C101.393 4.30833 101.609 4.31267 101.774 4.304L101.605 5.435C101.44 5.435 101.228 5.42633 100.968 5.409C100.708 5.383 100.422 5.35267 100.11 5.318C100.075 5.66467 100.036 6.01567 99.993 6.371C99.9583 6.72633 99.928 7.073 99.902 7.411C100.266 7.42833 100.604 7.44133 100.916 7.45C101.237 7.45 101.501 7.44133 101.709 7.424L101.592 8.555C101.089 8.581 100.5 8.568 99.824 8.516C99.798 8.94067 99.785 9.30467 99.785 9.608C99.785 10.206 99.928 10.6567 100.214 10.96C100.5 11.2547 100.964 11.402 101.605 11.402C102.22 11.402 102.701 11.2503 103.048 10.947C103.403 10.6437 103.581 10.2103 103.581 9.647C103.581 9.18767 103.438 8.70667 103.152 8.204C102.866 7.69267 102.441 7.255 101.878 6.891C102.06 6.85633 102.255 6.79567 102.463 6.709C102.671 6.61367 102.823 6.52267 102.918 6.436C103.542 6.88667 104.01 7.40233 104.322 7.983C104.643 8.555 104.803 9.12267 104.803 9.686C104.803 10.2753 104.669 10.791 104.4 11.233C104.131 11.6663 103.759 12 103.282 12.234C102.805 12.4767 102.246 12.598 101.605 12.598ZM114.436 11.948C114.393 11.792 114.297 11.597 114.15 11.363C114.011 11.1203 113.873 10.9383 113.734 10.817C114.514 10.6957 115.177 10.4703 115.723 10.141C116.269 9.81167 116.689 9.40867 116.984 8.932C117.287 8.45533 117.452 7.93967 117.478 7.385C117.504 6.865 117.43 6.38833 117.257 5.955C117.092 5.513 116.854 5.12733 116.542 4.798C116.23 4.46867 115.866 4.20867 115.45 4.018C115.043 3.81867 114.605 3.706 114.137 3.68C114.076 4.52067 113.951 5.37 113.76 6.228C113.569 7.086 113.309 7.88333 112.98 8.62C112.659 9.35667 112.274 9.972 111.823 10.466C111.52 10.7953 111.212 10.9903 110.9 11.051C110.597 11.1117 110.276 11.0727 109.938 10.934C109.609 10.7953 109.314 10.57 109.054 10.258C108.794 9.93733 108.595 9.556 108.456 9.114C108.317 8.672 108.261 8.19533 108.287 7.684C108.33 6.92133 108.508 6.21933 108.82 5.578C109.141 4.93667 109.57 4.38633 110.107 3.927C110.644 3.459 111.26 3.108 111.953 2.874C112.646 2.63133 113.387 2.53167 114.176 2.575C114.8 2.60967 115.389 2.75267 115.944 3.004C116.499 3.25533 116.988 3.59767 117.413 4.031C117.838 4.46433 118.163 4.97133 118.388 5.552C118.622 6.13267 118.722 6.774 118.687 7.476C118.626 8.60267 118.223 9.556 117.478 10.336C116.733 11.116 115.719 11.6533 114.436 11.948ZM110.276 9.725C110.371 9.78567 110.484 9.816 110.614 9.816C110.744 9.80733 110.87 9.738 110.991 9.608C111.329 9.25267 111.632 8.76733 111.901 8.152C112.178 7.53667 112.408 6.84767 112.59 6.085C112.772 5.32233 112.889 4.54667 112.941 3.758C112.282 3.87933 111.697 4.13067 111.186 4.512C110.675 4.89333 110.267 5.36133 109.964 5.916C109.661 6.47067 109.492 7.07733 109.457 7.736C109.431 8.21267 109.5 8.62867 109.665 8.984C109.83 9.33067 110.033 9.57767 110.276 9.725ZM127.449 12.572C126.782 12.572 126.184 12.5027 125.655 12.364C125.126 12.234 124.706 12.026 124.394 11.74C124.091 11.454 123.939 11.077 123.939 10.609C123.939 10.219 124.065 9.86367 124.316 9.543C124.567 9.21367 124.91 8.91033 125.343 8.633C125.785 8.35567 126.275 8.10433 126.812 7.879V7.736C126.812 7.346 126.73 7.073 126.565 6.917C126.409 6.761 126.205 6.67433 125.954 6.657C125.512 6.631 125.07 6.70033 124.628 6.865C124.186 7.02967 123.783 7.30267 123.419 7.684C123.263 7.84867 123.077 8.03933 122.86 8.256C122.643 8.47267 122.448 8.65467 122.275 8.802L121.404 7.931C122.019 7.49767 122.596 6.96033 123.133 6.319C123.679 5.67767 124.134 5.006 124.498 4.304C123.969 4.33 123.484 4.34733 123.042 4.356C122.609 4.36467 122.284 4.36467 122.067 4.356L122.015 3.199C122.292 3.225 122.7 3.238 123.237 3.238C123.783 3.238 124.372 3.22067 125.005 3.186C125.118 2.88267 125.204 2.58367 125.265 2.289C125.334 1.99433 125.373 1.71267 125.382 1.444L126.578 1.522C126.552 2.05067 126.448 2.57933 126.266 3.108C126.933 3.06467 127.557 3.00833 128.138 2.939C128.727 2.86967 129.174 2.796 129.477 2.718L129.555 3.836C129.312 3.888 128.992 3.94 128.593 3.992C128.203 4.03533 127.77 4.07867 127.293 4.122C126.825 4.15667 126.344 4.19133 125.85 4.226C125.72 4.52067 125.56 4.824 125.369 5.136C125.178 5.43933 124.983 5.72967 124.784 6.007C124.992 5.89433 125.222 5.812 125.473 5.76C125.733 5.69933 125.976 5.669 126.201 5.669C126.712 5.669 127.12 5.812 127.423 6.098C127.726 6.384 127.908 6.83467 127.969 7.45C128.48 7.268 128.996 7.10767 129.516 6.969C130.045 6.82167 130.53 6.696 130.972 6.592L131.323 7.697C130.725 7.78367 130.144 7.90067 129.581 8.048C129.018 8.18667 128.489 8.34267 127.995 8.516V10.297H126.812V8.958C126.301 9.20067 125.885 9.45633 125.564 9.725C125.252 9.985 125.096 10.2407 125.096 10.492C125.096 10.8213 125.291 11.0597 125.681 11.207C126.08 11.3543 126.643 11.428 127.371 11.428C127.648 11.428 127.956 11.4107 128.294 11.376C128.632 11.3327 128.97 11.2807 129.308 11.22C129.655 11.1507 129.967 11.077 130.244 10.999C130.227 11.077 130.218 11.194 130.218 11.35C130.218 11.4973 130.222 11.649 130.231 11.805C130.24 11.961 130.248 12.0867 130.257 12.182C130.257 12.208 130.257 12.2253 130.257 12.234C129.824 12.3467 129.356 12.429 128.853 12.481C128.35 12.5417 127.882 12.572 127.449 12.572ZM137.615 12.299C137.017 12.377 136.48 12.3597 136.003 12.247C135.535 12.143 135.162 11.9523 134.885 11.675C134.608 11.389 134.469 11.025 134.469 10.583C134.469 9.96767 134.716 9.37833 135.21 8.815C135.713 8.25167 136.389 7.79667 137.238 7.45V5.188C136.761 5.23133 136.293 5.26167 135.834 5.279C135.383 5.29633 134.963 5.29633 134.573 5.279L134.495 4.109C134.842 4.14367 135.253 4.15667 135.73 4.148C136.215 4.13067 136.718 4.096 137.238 4.044V1.769H138.356V3.914C138.815 3.84467 139.24 3.76667 139.63 3.68C140.029 3.59333 140.362 3.498 140.631 3.394L140.774 4.499C140.098 4.733 139.292 4.915 138.356 5.045V7.086C139.041 6.92133 139.773 6.83467 140.553 6.826C141.342 6.826 142.018 6.943 142.581 7.177C143.144 7.411 143.578 7.73167 143.881 8.139C144.193 8.53767 144.349 8.99267 144.349 9.504C144.349 10.3013 144.098 10.921 143.595 11.363C143.101 11.7963 142.455 12.0087 141.658 12C140.341 11.9827 139.483 11.324 139.084 10.024C139.223 9.98067 139.409 9.91133 139.643 9.816C139.886 9.712 140.063 9.61667 140.176 9.53C140.297 9.95467 140.475 10.2753 140.709 10.492C140.943 10.7 141.259 10.804 141.658 10.804C142.091 10.8127 142.438 10.6957 142.698 10.453C142.967 10.2103 143.101 9.88967 143.101 9.491C143.101 9.00567 142.871 8.61567 142.412 8.321C141.961 8.01767 141.342 7.866 140.553 7.866C140.154 7.866 139.769 7.89633 139.396 7.957C139.032 8.009 138.685 8.08267 138.356 8.178V11.519C138.356 11.7703 138.3 11.9523 138.187 12.065C138.074 12.1863 137.884 12.2643 137.615 12.299ZM144.271 6.345C144.063 6.137 143.786 5.91167 143.439 5.669C143.101 5.42633 142.746 5.19667 142.373 4.98C142 4.76333 141.662 4.59867 141.359 4.486L142.009 3.563C142.295 3.68433 142.624 3.849 142.997 4.057C143.37 4.265 143.734 4.486 144.089 4.72C144.453 4.954 144.748 5.175 144.973 5.383C144.912 5.44367 144.83 5.54333 144.726 5.682C144.631 5.812 144.535 5.942 144.44 6.072C144.353 6.202 144.297 6.293 144.271 6.345ZM136.848 11.246C136.987 11.2373 137.086 11.22 137.147 11.194C137.208 11.1593 137.238 11.0857 137.238 10.973V8.62C136.735 8.87133 136.341 9.166 136.055 9.504C135.769 9.842 135.626 10.1843 135.626 10.531C135.626 10.7823 135.739 10.9687 135.964 11.09C136.198 11.2027 136.493 11.2547 136.848 11.246ZM149.12 12.897V9.296C148.773 9.4 148.418 9.49967 148.054 9.595C147.69 9.68167 147.313 9.76833 146.923 9.855C146.888 9.725 146.823 9.556 146.728 9.348C146.641 9.14 146.55 8.97967 146.455 8.867C147.4 8.72833 148.301 8.51167 149.159 8.217C150.017 7.91367 150.81 7.554 151.538 7.138C151.07 6.76533 150.667 6.358 150.329 5.916C149.982 6.18467 149.618 6.44033 149.237 6.683C148.856 6.917 148.457 7.138 148.041 7.346C148.006 7.28533 147.946 7.19867 147.859 7.086C147.781 6.97333 147.699 6.865 147.612 6.761C147.525 6.64833 147.447 6.566 147.378 6.514C147.95 6.27133 148.492 5.97667 149.003 5.63C149.523 5.28333 149.991 4.90633 150.407 4.499C150.823 4.09167 151.165 3.68867 151.434 3.29H148.093V5.097H146.923V2.302H151.824V1.093H153.111V2.302H158.064V5.058H156.894V3.29H152.24L152.591 3.42C152.4 3.732 152.197 4.02233 151.98 4.291H155.282L155.724 4.746C155.377 5.22267 155.013 5.66033 154.632 6.059C154.251 6.449 153.852 6.80867 153.436 7.138C154.199 7.54533 155.026 7.88333 155.919 8.152C156.82 8.412 157.713 8.581 158.597 8.659C158.536 8.71967 158.471 8.82367 158.402 8.971C158.333 9.10967 158.268 9.25267 158.207 9.4C158.155 9.54733 158.116 9.66867 158.09 9.764C157.735 9.69467 157.379 9.621 157.024 9.543C156.669 9.465 156.318 9.37833 155.971 9.283V12.897H149.12ZM150.316 11.896H154.775V10.167H150.316V11.896ZM149.497 9.179H155.62C155.048 9.00567 154.498 8.80633 153.969 8.581C153.44 8.347 152.942 8.087 152.474 7.801C151.59 8.35567 150.598 8.815 149.497 9.179ZM152.474 6.553C153.089 6.111 153.618 5.656 154.06 5.188H151.161L151.083 5.266C151.265 5.5 151.473 5.72533 151.707 5.942C151.95 6.15 152.205 6.35367 152.474 6.553ZM165.812 12.936C165.795 12.78 165.76 12.5893 165.708 12.364C165.656 12.1473 165.604 11.974 165.552 11.844H166.488C166.661 11.844 166.787 11.8137 166.865 11.753C166.943 11.6923 166.982 11.5797 166.982 11.415V7.268H163.927V6.319H166.982V5.448H164.512V4.564H166.982V3.693H164.096V2.809H165.929C165.808 2.59233 165.665 2.36267 165.5 2.12C165.335 1.86867 165.179 1.652 165.032 1.47L165.955 1.041C166.128 1.249 166.315 1.509 166.514 1.821C166.713 2.12433 166.874 2.393 166.995 2.627L166.592 2.809H167.931C168.104 2.54033 168.278 2.23267 168.451 1.886C168.624 1.53067 168.754 1.24033 168.841 1.015L169.881 1.327C169.786 1.54367 169.664 1.78633 169.517 2.055C169.37 2.32367 169.222 2.575 169.075 2.809H171.038V3.693H168.1V4.564H170.453V5.448H168.1V6.319H171.246V7.268H168.1V8.308C168.213 8.44667 168.334 8.58967 168.464 8.737C168.603 8.88433 168.746 9.03167 168.893 9.179C169.118 8.93633 169.352 8.659 169.595 8.347C169.846 8.02633 170.054 7.74467 170.219 7.502L171.129 7.996C170.912 8.31667 170.67 8.63733 170.401 8.958C170.132 9.27 169.864 9.55167 169.595 9.803C169.933 10.0717 170.28 10.3273 170.635 10.57C170.999 10.804 171.354 11.0077 171.701 11.181C171.597 11.2677 171.471 11.4063 171.324 11.597C171.177 11.779 171.068 11.9307 170.999 12.052C170.661 11.844 170.31 11.6057 169.946 11.337C169.582 11.0683 169.24 10.7867 168.919 10.492C168.598 10.1887 168.325 9.89833 168.1 9.621V11.753C168.1 12.1603 167.987 12.4593 167.762 12.65C167.537 12.8407 167.194 12.936 166.735 12.936H165.812ZM161.418 12.949V7.489C161.219 7.92233 161.006 8.33833 160.781 8.737C160.556 9.127 160.33 9.46933 160.105 9.764C160.044 9.712 159.958 9.65133 159.845 9.582C159.732 9.504 159.615 9.43033 159.494 9.361C159.381 9.283 159.29 9.22667 159.221 9.192C159.429 8.958 159.641 8.66767 159.858 8.321C160.083 7.96567 160.296 7.58867 160.495 7.19C160.694 6.79133 160.872 6.40133 161.028 6.02C161.193 5.63 161.323 5.279 161.418 4.967V4.759H159.611V3.784H161.418V1.171H162.471V3.784H163.927V4.759H162.471V5.903C162.601 6.09367 162.761 6.32333 162.952 6.592C163.151 6.852 163.359 7.10767 163.576 7.359C163.801 7.61033 164.009 7.81833 164.2 7.983C164.139 8.02633 164.053 8.09567 163.94 8.191C163.836 8.28633 163.736 8.38167 163.641 8.477C163.546 8.57233 163.472 8.65033 163.42 8.711C163.281 8.555 163.125 8.36867 162.952 8.152C162.787 7.92667 162.627 7.697 162.471 7.463V12.949H161.418ZM163.771 11.948L163.238 10.96C163.541 10.8473 163.892 10.6957 164.291 10.505C164.69 10.3057 165.084 10.0977 165.474 9.881C165.873 9.65567 166.202 9.45633 166.462 9.283C166.471 9.335 166.488 9.43467 166.514 9.582C166.54 9.72067 166.566 9.85933 166.592 9.998C166.627 10.128 166.648 10.2147 166.657 10.258C166.414 10.44 166.115 10.6393 165.76 10.856C165.413 11.064 165.062 11.2677 164.707 11.467C164.36 11.6577 164.048 11.818 163.771 11.948ZM165.669 9.478C165.478 9.244 165.249 8.997 164.98 8.737C164.72 8.477 164.464 8.25167 164.213 8.061L164.915 7.437C165.071 7.54967 165.24 7.68833 165.422 7.853C165.613 8.01767 165.79 8.18233 165.955 8.347C166.12 8.51167 166.254 8.659 166.358 8.789C166.315 8.82367 166.245 8.88433 166.15 8.971C166.055 9.05767 165.959 9.14867 165.864 9.244C165.777 9.33067 165.712 9.40867 165.669 9.478ZM174.08 11.987C174.019 11.649 173.972 11.233 173.937 10.739C173.902 10.2363 173.876 9.69033 173.859 9.101C173.85 8.503 173.85 7.88767 173.859 7.255C173.876 6.62233 173.902 6.00267 173.937 5.396C173.98 4.78933 174.032 4.23033 174.093 3.719C174.154 3.199 174.227 2.757 174.314 2.393L175.484 2.64C175.397 2.952 175.319 3.355 175.25 3.849C175.189 4.33433 175.137 4.87167 175.094 5.461C175.059 6.04167 175.033 6.644 175.016 7.268C175.007 7.88333 175.007 8.48133 175.016 9.062C175.033 9.634 175.059 10.154 175.094 10.622C175.137 11.09 175.189 11.4713 175.25 11.766L174.08 11.987ZM179.189 11.22C178.6 11.1853 178.123 11.0727 177.759 10.882C177.395 10.6827 177.161 10.388 177.057 9.998C176.884 9.54733 176.897 8.97533 177.096 8.282L178.149 8.568C178.088 8.75867 178.058 8.93633 178.058 9.101C178.067 9.257 178.101 9.39567 178.162 9.517C178.301 9.81167 178.717 9.985 179.41 10.037C179.8 10.063 180.233 10.0587 180.71 10.024C181.187 9.98067 181.655 9.92 182.114 9.842C182.573 9.764 182.968 9.673 183.297 9.569C183.28 9.65567 183.262 9.78567 183.245 9.959C183.236 10.1237 183.228 10.2927 183.219 10.466C183.219 10.6307 183.219 10.7607 183.219 10.856C182.786 10.9687 182.326 11.0553 181.841 11.116C181.364 11.1767 180.896 11.2157 180.437 11.233C179.986 11.2417 179.57 11.2373 179.189 11.22ZM177.499 4.902L177.434 3.68C177.755 3.71467 178.145 3.73633 178.604 3.745C179.063 3.75367 179.544 3.745 180.047 3.719C180.55 3.693 181.031 3.654 181.49 3.602C181.949 3.54133 182.339 3.472 182.66 3.394L182.621 4.603C182.283 4.66367 181.889 4.72 181.438 4.772C180.987 4.81533 180.519 4.85 180.034 4.876C179.549 4.902 179.085 4.91933 178.643 4.928C178.201 4.928 177.82 4.91933 177.499 4.902ZM186.209 13.027L185.962 11.922C186.179 11.9047 186.486 11.8657 186.885 11.805C187.284 11.7443 187.721 11.6707 188.198 11.584V4.681C187.791 4.93233 187.379 5.16633 186.963 5.383C186.547 5.591 186.14 5.77733 185.741 5.942C185.68 5.82067 185.585 5.66467 185.455 5.474C185.325 5.28333 185.208 5.136 185.104 5.032C185.641 4.84133 186.196 4.59433 186.768 4.291C187.349 3.98767 187.912 3.654 188.458 3.29C189.004 2.926 189.494 2.549 189.927 2.159C190.36 1.76033 190.698 1.37467 190.941 1.002L192.033 1.197C192.328 1.59567 192.709 1.98567 193.177 2.367C193.654 2.73967 194.165 3.09067 194.711 3.42C195.266 3.74067 195.82 4.02233 196.375 4.265C196.93 4.50767 197.432 4.69833 197.883 4.837C197.77 4.95833 197.645 5.123 197.506 5.331C197.376 5.539 197.276 5.708 197.207 5.838C196.826 5.69933 196.423 5.53033 195.998 5.331C195.573 5.13167 195.149 4.91067 194.724 4.668V9.296H192.02C192.193 9.48667 192.375 9.66867 192.566 9.842C192.765 10.0153 192.973 10.1757 193.19 10.323C193.485 10.1497 193.797 9.95467 194.126 9.738C194.464 9.51267 194.776 9.29167 195.062 9.075C195.357 8.85833 195.586 8.672 195.751 8.516L196.57 9.309C196.371 9.47367 196.132 9.65133 195.855 9.842C195.586 10.0327 195.3 10.219 194.997 10.401C194.702 10.583 194.421 10.752 194.152 10.908C194.637 11.1593 195.144 11.376 195.673 11.558C196.21 11.7313 196.769 11.87 197.35 11.974C197.281 12.0433 197.203 12.143 197.116 12.273C197.038 12.403 196.964 12.5373 196.895 12.676C196.826 12.8147 196.778 12.9317 196.752 13.027C195.989 12.8797 195.222 12.6327 194.451 12.286C193.68 11.9393 192.973 11.5147 192.332 11.012C191.691 10.5007 191.171 9.92867 190.772 9.296H189.368V11.363C189.905 11.2677 190.404 11.1723 190.863 11.077C191.331 10.973 191.682 10.8863 191.916 10.817V11.844C191.699 11.9133 191.4 11.9913 191.019 12.078C190.646 12.1733 190.23 12.2687 189.771 12.364C189.32 12.468 188.865 12.5633 188.406 12.65C187.947 12.7453 187.522 12.8233 187.132 12.884C186.751 12.9533 186.443 13.001 186.209 13.027ZM188.289 4.629H190.837V3.394H192.033V4.629H194.646C194.013 4.27367 193.415 3.87933 192.852 3.446C192.289 3.01267 191.825 2.57067 191.461 2.12C191.088 2.54467 190.625 2.97367 190.07 3.407C189.515 3.84033 188.922 4.24767 188.289 4.629ZM189.368 8.373H193.541V7.385H189.368V8.373ZM189.368 6.527H193.541V5.578H189.368V6.527ZM209.57 10.219C209.301 10.0717 208.963 9.87233 208.556 9.621C208.157 9.361 207.724 9.07067 207.256 8.75C206.797 8.42933 206.337 8.10433 205.878 7.775C205.419 7.437 204.994 7.12067 204.604 6.826C204.214 6.52267 203.893 6.26267 203.642 6.046C203.477 5.89867 203.352 5.82067 203.265 5.812C203.178 5.79467 203.061 5.85533 202.914 5.994C202.637 6.24533 202.312 6.52267 201.939 6.826C201.566 7.12067 201.185 7.411 200.795 7.697C200.405 7.983 200.045 8.23433 199.716 8.451L198.78 7.424C199.031 7.32 199.33 7.164 199.677 6.956C200.024 6.73933 200.383 6.50533 200.756 6.254C201.129 5.994 201.48 5.73833 201.809 5.487C202.138 5.227 202.407 4.99733 202.615 4.798C202.866 4.564 203.087 4.46 203.278 4.486C203.477 4.50333 203.711 4.62467 203.98 4.85C204.179 5.02333 204.474 5.25733 204.864 5.552C205.263 5.838 205.705 6.15433 206.19 6.501C206.684 6.84767 207.191 7.19 207.711 7.528C208.231 7.866 208.725 8.16933 209.193 8.438C209.661 8.70667 210.06 8.91033 210.389 9.049C210.311 9.11833 210.211 9.231 210.09 9.387C209.977 9.53433 209.869 9.686 209.765 9.842C209.67 9.998 209.605 10.1237 209.57 10.219ZM207.646 5.396C207.516 5.23133 207.356 5.05367 207.165 4.863C206.974 4.66367 206.779 4.47733 206.58 4.304C206.381 4.13067 206.199 3.98767 206.034 3.875L206.567 3.355C206.714 3.459 206.892 3.60633 207.1 3.797C207.317 3.979 207.525 4.16967 207.724 4.369C207.932 4.56833 208.092 4.73733 208.205 4.876L207.646 5.396ZM208.66 4.343C208.53 4.17833 208.365 4.005 208.166 3.823C207.975 3.63233 207.776 3.45033 207.568 3.277C207.36 3.10367 207.174 2.965 207.009 2.861L207.542 2.341C207.689 2.43633 207.871 2.575 208.088 2.757C208.305 2.939 208.517 3.12967 208.725 3.329C208.942 3.51967 209.106 3.68 209.219 3.81L208.66 4.343ZM220.581 12.364C219.714 12.2687 218.943 12.013 218.267 11.597C217.6 11.181 217.075 10.6437 216.694 9.985C216.321 9.31767 216.135 8.57667 216.135 7.762C216.135 7.32867 216.209 6.88233 216.356 6.423C216.503 5.955 216.729 5.50433 217.032 5.071C217.344 4.629 217.73 4.239 218.189 3.901C217.652 3.98767 217.106 4.083 216.551 4.187C215.996 4.28233 215.463 4.37767 214.952 4.473C214.441 4.56833 213.981 4.65933 213.574 4.746C213.167 4.83267 212.846 4.90633 212.612 4.967L212.326 3.654C212.612 3.628 213.002 3.58467 213.496 3.524C213.99 3.46333 214.545 3.38533 215.16 3.29C215.784 3.19467 216.425 3.095 217.084 2.991C217.743 2.87833 218.38 2.76567 218.995 2.653C219.619 2.54033 220.178 2.432 220.672 2.328C221.166 2.224 221.556 2.133 221.842 2.055L222.167 3.29C222.046 3.29867 221.89 3.316 221.699 3.342C221.517 3.368 221.309 3.40267 221.075 3.446C220.581 3.51533 220.109 3.68 219.658 3.94C219.216 4.19133 218.822 4.512 218.475 4.902C218.128 5.292 217.855 5.734 217.656 6.228C217.465 6.71333 217.37 7.22467 217.37 7.762C217.37 8.44667 217.543 9.02733 217.89 9.504C218.237 9.98067 218.7 10.3533 219.281 10.622C219.87 10.8907 220.525 11.0683 221.244 11.155C221.097 11.311 220.958 11.5147 220.828 11.766C220.698 12.0087 220.616 12.208 220.581 12.364ZM231.605 12.598C230.678 12.598 229.941 12.3467 229.395 11.844C228.858 11.3327 228.585 10.6047 228.576 9.66C228.576 9.51267 228.58 9.335 228.589 9.127C228.606 8.91033 228.624 8.672 228.641 8.412C228.086 8.34267 227.562 8.26467 227.068 8.178C226.574 8.08267 226.175 7.983 225.872 7.879L226.067 6.748C226.336 6.86067 226.713 6.96467 227.198 7.06C227.683 7.15533 228.199 7.23333 228.745 7.294C228.78 6.96467 228.814 6.618 228.849 6.254C228.892 5.89 228.931 5.53033 228.966 5.175C228.489 5.10567 228.034 5.032 227.601 4.954C227.176 4.876 226.851 4.80667 226.626 4.746L226.821 3.602C227.02 3.68 227.328 3.76233 227.744 3.849C228.16 3.927 228.606 4.00067 229.083 4.07C229.152 3.50667 229.209 2.991 229.252 2.523C229.304 2.055 229.339 1.69967 229.356 1.457L230.617 1.652C230.565 1.90333 230.504 2.25867 230.435 2.718C230.374 3.16867 230.309 3.667 230.24 4.213C230.561 4.24767 230.855 4.27367 231.124 4.291C231.393 4.30833 231.609 4.31267 231.774 4.304L231.605 5.435C231.44 5.435 231.228 5.42633 230.968 5.409C230.708 5.383 230.422 5.35267 230.11 5.318C230.075 5.66467 230.036 6.01567 229.993 6.371C229.958 6.72633 229.928 7.073 229.902 7.411C230.266 7.42833 230.604 7.44133 230.916 7.45C231.237 7.45 231.501 7.44133 231.709 7.424L231.592 8.555C231.089 8.581 230.5 8.568 229.824 8.516C229.798 8.94067 229.785 9.30467 229.785 9.608C229.785 10.206 229.928 10.6567 230.214 10.96C230.5 11.2547 230.964 11.402 231.605 11.402C232.22 11.402 232.701 11.2503 233.048 10.947C233.403 10.6437 233.581 10.2103 233.581 9.647C233.581 9.18767 233.438 8.70667 233.152 8.204C232.866 7.69267 232.441 7.255 231.878 6.891C232.06 6.85633 232.255 6.79567 232.463 6.709C232.671 6.61367 232.823 6.52267 232.918 6.436C233.542 6.88667 234.01 7.40233 234.322 7.983C234.643 8.555 234.803 9.12267 234.803 9.686C234.803 10.2753 234.669 10.791 234.4 11.233C234.131 11.6663 233.759 12 233.282 12.234C232.805 12.4767 232.246 12.598 231.605 12.598ZM242.564 12.507C242.547 12.4203 242.508 12.2947 242.447 12.13C242.386 11.974 242.317 11.818 242.239 11.662C242.17 11.506 242.096 11.389 242.018 11.311C243.413 11.337 244.471 11.155 245.19 10.765C245.918 10.375 246.282 9.82467 246.282 9.114C246.282 8.65467 246.1 8.308 245.736 8.074C245.381 7.84 244.934 7.723 244.397 7.723C244.007 7.723 243.582 7.788 243.123 7.918C242.664 8.048 242.226 8.25167 241.81 8.529C241.403 8.79767 241.06 9.14867 240.783 9.582L239.717 9.101C239.882 8.79767 240.025 8.42067 240.146 7.97C240.276 7.51933 240.38 7.047 240.458 6.553C240.545 6.05033 240.605 5.578 240.64 5.136C240.675 4.694 240.683 4.33 240.666 4.044L241.914 4.187C241.923 4.629 241.879 5.175 241.784 5.825C241.697 6.46633 241.559 7.099 241.368 7.723C241.853 7.37633 242.369 7.10767 242.915 6.917C243.461 6.72633 243.968 6.631 244.436 6.631C245.077 6.631 245.632 6.73933 246.1 6.956C246.577 7.164 246.941 7.45433 247.192 7.827C247.452 8.19967 247.582 8.63733 247.582 9.14C247.582 10.102 247.17 10.8863 246.347 11.493C245.532 12.0997 244.271 12.4377 242.564 12.507ZM244.735 4.187C244.536 4.031 244.289 3.87067 243.994 3.706C243.708 3.53267 243.4 3.37233 243.071 3.225C242.75 3.069 242.434 2.939 242.122 2.835C241.819 2.72233 241.554 2.64433 241.329 2.601L241.927 1.548C242.135 1.60867 242.391 1.69967 242.694 1.821C242.997 1.94233 243.314 2.07667 243.643 2.224C243.981 2.37133 244.297 2.523 244.592 2.679C244.887 2.82633 245.134 2.965 245.333 3.095L244.735 4.187ZM255.317 10.57C254.944 10.7867 254.58 10.8777 254.225 10.843C253.87 10.7997 253.545 10.5483 253.25 10.089C252.999 9.673 252.769 9.19633 252.561 8.659C252.353 8.113 252.171 7.53667 252.015 6.93C251.868 6.31467 251.755 5.708 251.677 5.11C251.599 4.50333 251.564 3.93567 251.573 3.407L252.795 3.42C252.778 3.862 252.795 4.33867 252.847 4.85C252.899 5.36133 252.981 5.87267 253.094 6.384C253.215 6.89533 253.354 7.38067 253.51 7.84C253.675 8.29933 253.857 8.698 254.056 9.036C254.203 9.27867 254.355 9.413 254.511 9.439C254.667 9.465 254.823 9.42167 254.979 9.309C255.196 9.16167 255.421 8.96233 255.655 8.711C255.898 8.451 256.088 8.20833 256.227 7.983C256.288 8.139 256.387 8.31667 256.526 8.516C256.673 8.71533 256.803 8.87133 256.916 8.984C256.725 9.27867 256.478 9.57767 256.175 9.881C255.88 10.1757 255.594 10.4053 255.317 10.57ZM260.439 8.23C260.361 7.996 260.235 7.697 260.062 7.333C259.889 6.969 259.689 6.592 259.464 6.202C259.239 5.812 259.009 5.448 258.775 5.11C258.55 4.76333 258.346 4.49033 258.164 4.291L259.126 3.68C259.325 3.90533 259.546 4.19567 259.789 4.551C260.04 4.90633 260.287 5.28767 260.53 5.695C260.773 6.09367 260.985 6.475 261.167 6.839C261.358 7.203 261.496 7.51067 261.583 7.762C261.384 7.79667 261.176 7.86167 260.959 7.957C260.742 8.04367 260.569 8.13467 260.439 8.23ZM265.418 12.468C265.279 12.3727 265.089 12.273 264.846 12.169C264.612 12.0737 264.413 12.0087 264.248 11.974C264.465 11.636 264.69 11.2113 264.924 10.7C265.167 10.18 265.409 9.608 265.652 8.984C265.895 8.36 266.129 7.71 266.354 7.034C266.588 6.358 266.796 5.695 266.978 5.045C266.467 5.097 265.977 5.13167 265.509 5.149C265.041 5.16633 264.655 5.16633 264.352 5.149L264.261 3.94C264.634 3.98333 265.084 4.00067 265.613 3.992C266.15 3.98333 266.709 3.94867 267.29 3.888C267.403 3.42 267.494 2.98233 267.563 2.575C267.641 2.16767 267.693 1.808 267.719 1.496L268.967 1.678C268.932 1.95533 268.876 2.26733 268.798 2.614C268.72 2.96067 268.633 3.329 268.538 3.719C268.937 3.64967 269.305 3.576 269.643 3.498C269.99 3.42 270.284 3.33333 270.527 3.238L270.748 4.369C270.471 4.46433 270.107 4.55967 269.656 4.655C269.205 4.75033 268.724 4.83267 268.213 4.902C268.022 5.58667 267.81 6.28867 267.576 7.008C267.351 7.72733 267.112 8.42933 266.861 9.114C266.61 9.79867 266.363 10.4313 266.12 11.012C265.877 11.584 265.643 12.0693 265.418 12.468ZM274.271 11.883C273.335 12.0303 272.468 12.0693 271.671 12C270.874 11.922 270.185 11.753 269.604 11.493C269.023 11.233 268.59 10.8993 268.304 10.492L268.98 9.634C269.257 9.972 269.66 10.245 270.189 10.453C270.718 10.6523 271.346 10.7693 272.074 10.804C272.802 10.8387 273.599 10.778 274.466 10.622C274.405 10.7867 274.353 10.999 274.31 11.259C274.275 11.5103 274.262 11.7183 274.271 11.883ZM273.907 7.229C273.517 7.099 273.058 6.995 272.529 6.917C272.009 6.839 271.485 6.787 270.956 6.761C270.436 6.735 269.977 6.73933 269.578 6.774L269.721 5.591C270.024 5.57367 270.375 5.57367 270.774 5.591C271.181 5.60833 271.602 5.63867 272.035 5.682C272.468 5.72533 272.88 5.77733 273.27 5.838C273.669 5.89867 274.011 5.96367 274.297 6.033L273.907 7.229ZM281.317 10.57C280.944 10.7867 280.58 10.8777 280.225 10.843C279.87 10.7997 279.545 10.5483 279.25 10.089C278.999 9.673 278.769 9.19633 278.561 8.659C278.353 8.113 278.171 7.53667 278.015 6.93C277.868 6.31467 277.755 5.708 277.677 5.11C277.599 4.50333 277.564 3.93567 277.573 3.407L278.795 3.42C278.778 3.862 278.795 4.33867 278.847 4.85C278.899 5.36133 278.981 5.87267 279.094 6.384C279.215 6.89533 279.354 7.38067 279.51 7.84C279.675 8.29933 279.857 8.698 280.056 9.036C280.203 9.27867 280.355 9.413 280.511 9.439C280.667 9.465 280.823 9.42167 280.979 9.309C281.196 9.16167 281.421 8.96233 281.655 8.711C281.898 8.451 282.088 8.20833 282.227 7.983C282.288 8.139 282.387 8.31667 282.526 8.516C282.673 8.71533 282.803 8.87133 282.916 8.984C282.725 9.27867 282.478 9.57767 282.175 9.881C281.88 10.1757 281.594 10.4053 281.317 10.57ZM286.439 8.23C286.361 7.996 286.235 7.697 286.062 7.333C285.889 6.969 285.689 6.592 285.464 6.202C285.239 5.812 285.009 5.448 284.775 5.11C284.55 4.76333 284.346 4.49033 284.164 4.291L285.126 3.68C285.325 3.90533 285.546 4.19567 285.789 4.551C286.04 4.90633 286.287 5.28767 286.53 5.695C286.773 6.09367 286.985 6.475 287.167 6.839C287.358 7.203 287.496 7.51067 287.583 7.762C287.384 7.79667 287.176 7.86167 286.959 7.957C286.742 8.04367 286.569 8.13467 286.439 8.23ZM294.993 9.608C294.984 9.452 294.971 9.21367 294.954 8.893C294.937 8.57233 294.919 8.20833 294.902 7.801C294.885 7.39367 294.867 6.97333 294.85 6.54C294.841 6.10667 294.833 5.695 294.824 5.305C294.815 4.915 294.807 4.58133 294.798 4.304C294.789 4.02667 294.785 3.84033 294.785 3.745V1.587H296.228V3.745C296.228 3.84033 296.224 4.02667 296.215 4.304C296.206 4.58133 296.198 4.915 296.189 5.305C296.18 5.695 296.167 6.10667 296.15 6.54C296.133 6.97333 296.115 7.39367 296.098 7.801C296.081 8.20833 296.063 8.57233 296.046 8.893C296.037 9.21367 296.024 9.452 296.007 9.608H294.993ZM295.5 12.676C295.24 12.676 295.015 12.5807 294.824 12.39C294.642 12.208 294.551 11.987 294.551 11.727C294.551 11.467 294.642 11.246 294.824 11.064C295.015 10.882 295.24 10.791 295.5 10.791C295.76 10.791 295.981 10.882 296.163 11.064C296.354 11.246 296.449 11.467 296.449 11.727C296.449 11.987 296.354 12.208 296.163 12.39C295.981 12.5807 295.76 12.676 295.5 12.676Z" fill="#772D2D"/>
<path d="M5 1L24 16" stroke="#772D2D" stroke-width="2" stroke-linecap="round"/>
<path d="M325 1L306 16" stroke="#772D2D" stroke-width="2" stroke-linecap="round"/>
</svg>
