<svg width="588" height="260" viewBox="0 0 588 260" fill="none" xmlns="http://www.w3.org/2000/svg">
<g clip-path="url(#clip0_3036_22053)">
<path d="M102.183 136.322V114.842C88.7188 116.782 75.4138 118.924 62.25 121.261L102.183 136.313V136.322Z" fill="#EB5925"/>
<path d="M0 55.7546L8.96126 69.2635L1.85405 81.9964L9.50865 92.5161L3.17838 103.873L10.8241 114.384L4.49387 125.742L12.1485 136.252L7.05423 150.008C36.4542 144.647 65.6159 142.134 95.8987 140.732L55.9571 125.671V45.6758C36.675 46.7692 11.1155 51.9188 0 55.7634L0 55.7546Z" fill="#EB5925"/>
<path d="M293.998 0C373.404 0 451.266 6.3312 525.746 18.5703V114.984C452.731 102.013 374.852 95.0121 293.998 95.0121C213.144 95.0121 135.273 102.013 62.25 114.984V18.5703C136.73 6.3312 214.591 0 293.998 0Z" fill="#EB5925"/>
<path d="M485.812 136.324V114.844C499.276 116.784 512.581 118.926 525.745 121.263L485.812 136.315V136.324Z" fill="#EB5925"/>
<path d="M588 55.7546L579.039 69.2635L586.146 81.9964L578.492 92.5161L584.822 103.873L577.176 114.384L583.506 125.742L575.852 136.252L580.946 150.008C551.546 144.647 522.384 142.134 492.102 140.732L532.043 125.671V45.6758C551.325 46.7692 576.885 51.9188 588 55.7634V55.7546Z" fill="#EB5925"/>
<path d="M138.214 65.473C137.004 65.6053 133.305 65.7816 131.91 65.8698C128.979 66.055 126.048 66.249 123.125 66.4518C123.355 69.8819 123.584 73.3032 123.823 76.7334C121.28 77.1302 118.746 77.527 116.203 77.9238C115.947 74.282 115.691 70.6314 115.426 66.9897C110.456 67.3424 105.494 67.7039 100.523 68.0831C97.9807 68.2771 95.8971 68.9208 94.8906 69.247C94.9613 68.2947 95.0231 67.3424 95.0937 66.3901C96.4445 66.5223 98.5811 66.54 100.214 66.4165C100.903 66.3636 101.592 66.3107 102.272 66.2578C101.883 61.9371 101.336 56.3025 101.009 52.0346C103.552 52.1845 106.094 52.3344 108.646 52.4932C108.672 52.8723 108.699 53.2515 108.725 53.6307C110.615 53.4896 112.504 53.3573 114.394 53.225C114.014 48.6662 113.74 44.8217 113.581 42.6525C110.968 42.8376 108.363 43.0228 105.75 43.2168C103.746 46.9291 100.762 50.4739 95.5704 53.8335C95.3939 53.6218 95.2085 53.419 95.0319 53.2074C99.1108 47.3347 100.188 40.3687 100.515 33.332C103.296 33.8876 106.068 34.4519 108.849 35.0162C108.204 37.2383 107.56 39.3987 106.606 41.4621C112.336 41.0388 118.075 40.642 123.805 40.2628C124.617 38.6404 125.818 36.3301 126.321 35.51C128.564 36.868 131.071 39.4869 131.442 41.4532C130.224 41.5943 126.489 41.7707 125.076 41.8677C123.911 41.947 122.754 42.0264 121.589 42.097C121.713 43.9575 121.986 47.9255 122.242 52.6783C122.834 52.6342 123.417 52.599 124.008 52.5637C124.82 50.9412 126.012 48.631 126.507 47.8109C128.74 49.1777 131.239 51.7877 131.61 53.7541C130.391 53.8952 126.674 54.0716 125.279 54.1686C124.308 54.2303 123.328 54.3008 122.357 54.3625C122.595 57.8279 122.825 61.2934 123.063 64.7588C125.588 64.5912 128.114 64.4237 130.647 64.2561C131.46 62.6337 132.652 60.3234 133.146 59.5121C135.371 60.8789 137.843 63.5066 138.214 65.473ZM115.303 65.2966C114.994 61.7519 114.738 58.2071 114.508 54.9092C112.601 55.0415 110.694 55.1826 108.787 55.3149C109.017 58.4981 109.335 62.7659 109.608 65.7023C111.506 65.5612 113.405 65.4289 115.312 65.2966H115.303Z" fill="white"/>
<path d="M163.185 50.1822C163.159 49.6444 163.132 49.0977 163.106 48.5598C160.934 48.6744 158.753 48.789 156.581 48.9037C157.014 58.0477 157.597 68.7526 158.179 76.2036C155.769 76.477 153.368 76.7504 150.957 77.0237C150.225 67.2888 149.209 51.6636 148.6 41.0205C148.326 36.2677 148.176 32.4761 148.07 30.6155C150.631 30.7919 153.182 30.9682 155.743 31.1534C155.76 31.4973 155.778 31.8324 155.796 32.1763C157.906 32.0616 160.016 31.947 162.117 31.8412C162.082 31.1798 161.993 30.642 161.976 30.2187C164.236 30.3069 166.505 30.3862 168.765 30.4832C169.039 33.543 169.463 42.1492 169.886 49.5474C167.653 49.759 165.428 49.9706 163.194 50.1822H163.185ZM163.018 46.8756C162.85 44.8298 162.735 42.6077 162.62 40.4386C160.475 40.5532 158.338 40.659 156.193 40.7736C156.299 42.7576 156.361 44.9268 156.484 47.2106C158.665 47.096 160.837 46.9814 163.018 46.8667V46.8756ZM155.884 33.8605C155.954 35.2449 155.999 37.0525 156.105 39.0982C158.25 38.9836 160.395 38.869 162.532 38.7632C162.435 36.8409 162.276 35.0332 162.196 33.5342C160.086 33.64 157.985 33.7546 155.875 33.8693L155.884 33.8605ZM182.688 54.503C182.891 59.1412 183.297 65.5076 183.633 71.83C181.381 72.0681 179.13 72.315 176.879 72.5531C176.843 71.7506 176.808 70.9482 176.764 70.1458C174.751 70.2428 172.729 70.3398 170.716 70.4368C170.752 71.1598 170.849 71.8212 170.875 72.4208C168.624 72.6677 166.372 72.9234 164.13 73.1791C163.636 67.0507 163.168 59.3528 162.929 54.6C165.234 54.6793 167.538 54.7675 169.833 54.8557C169.86 55.4818 169.895 56.099 169.922 56.7251C171.926 56.6281 173.939 56.5311 175.943 56.4341C175.908 55.5964 175.81 54.8733 175.775 54.1503C178.079 54.2649 180.384 54.3795 182.679 54.503H182.688ZM170.01 58.4093C170.081 59.8113 170.151 61.2133 170.213 62.6242C172.252 62.5272 174.301 62.4302 176.34 62.3332C176.27 60.8871 176.208 59.4498 176.084 58.1271C174.062 58.2241 172.032 58.3211 170.01 58.4181V58.4093ZM170.575 68.7526C172.614 68.6556 174.654 68.5586 176.685 68.4616C176.614 66.9802 176.543 65.49 176.473 64.0086C174.433 64.1056 172.394 64.2026 170.345 64.2996C170.416 65.781 170.496 67.2712 170.566 68.7526H170.575ZM189.645 75.0044C189.221 67.7297 188.709 56.8397 188.25 47.387C186.034 47.4752 183.818 47.5722 181.602 47.6692C181.62 48.066 181.638 48.4716 181.655 48.8684C179.439 49.0447 177.232 49.2299 175.016 49.4151C174.539 43.1015 174.036 32.4584 173.647 29.5221C175.952 29.6103 178.256 29.7073 180.56 29.8131C180.578 30.1922 180.596 30.5714 180.613 30.9594C182.927 30.8536 185.24 30.7566 187.553 30.6596C187.535 30.1393 187.509 29.6191 187.491 29.0988C190.016 29.0724 192.541 29.0547 195.057 29.0371C195.225 33.3138 196.267 60.2169 196.947 74.4754C194.51 74.6517 192.082 74.8281 189.654 75.0132L189.645 75.0044ZM187.835 37.5816C187.765 35.8357 187.685 34.0897 187.615 32.3438C185.301 32.4408 182.988 32.5378 180.675 32.6436C180.737 33.9663 180.861 35.527 180.967 37.8726C183.253 37.7668 185.54 37.6698 187.827 37.5816H187.835ZM188.171 45.7028C188.083 43.5601 187.994 41.4085 187.906 39.2658C185.637 39.3628 183.377 39.4598 181.108 39.5568C181.187 41.3027 181.337 43.4013 181.452 45.9938C183.695 45.8968 185.928 45.7998 188.171 45.7028Z" fill="white"/>
<path d="M249.688 56.4085C249.688 56.7613 249.697 57.1228 249.706 57.4755C249.485 65.4733 243.393 73.6386 230.865 74.3087C216.465 74.6791 209.473 65.6232 208.634 54.5392C208.616 54.0983 208.607 53.6486 208.59 53.2077C208.042 37.9617 219.034 19.506 238.608 17.3809C238.837 17.9981 239.058 18.6154 239.288 19.2326C230.318 21.296 224.747 30.4224 222.539 41.3213C225.303 39.9986 228.26 39.3901 231.333 39.399C243.075 39.3725 249.52 46.4709 249.688 56.4085ZM230.432 43.0672C227.819 43.0407 224.8 44.9013 221.577 48.7282C221.4 51.8409 221.489 55.033 221.762 58.1368C222.407 64.953 224.296 71.6457 229.285 71.7868C235.527 71.9808 238.228 65.535 238.175 58.7805C238.043 48.7459 235.032 43.1289 230.432 43.0672Z" fill="#FFF100"/>
<path d="M294.637 34.3115C293.41 34.3732 289.057 34.3115 287.583 34.3203C278.833 34.3468 270.084 34.4173 261.335 34.5319C258.756 34.5672 256.744 35.0786 255.578 35.3344C255.711 34.3909 255.834 33.4473 255.967 32.495C257.688 32.7067 259.472 32.8654 261.131 32.8389C269.501 32.7243 277.862 32.6537 286.232 32.6273C287.265 30.8814 288.801 28.2801 289.348 27.4336C291.564 28.9943 294.513 32.1247 294.637 34.2939V34.3115ZM290.434 45.5189C290.761 54.9805 289.137 68.41 284.325 71.8666C278.93 69.3623 277.05 68.1102 273.81 65.1915C273.907 65.0063 274.013 64.83 274.11 64.6448C275.743 64.7506 276.9 64.8035 278.356 64.733C280.237 64.6625 280.714 64.054 281.305 60.2535C281.773 57.2996 281.87 52.7848 281.791 49.1078C278.295 49.1254 274.798 49.1519 271.302 49.1872C269.06 57.4583 264.751 63.3486 257.785 67.1226C257.556 66.9022 257.335 66.6905 257.105 66.4701C262.818 59.3982 264.407 48.9579 264.504 37.2126C267.365 37.6005 270.234 37.9885 273.095 38.3853C272.821 41.7008 272.415 44.7165 271.77 47.4941C275.107 47.4589 278.445 47.4412 281.773 47.4236C281.703 46.339 281.703 45.3779 281.632 44.6548C284.563 44.937 287.494 45.228 290.434 45.5278V45.5189Z" fill="#FFF100"/>
<path d="M320.815 30.2735C319.094 37.1867 315.792 42.6978 310.768 47.0009C312.781 47.3713 314.794 47.7504 316.798 48.1296C316.507 54.452 316.498 62.6437 316.427 71.5586C314.008 71.6996 311.589 71.8407 309.17 71.9906C309.099 61.806 309.073 55.1221 309.108 48.3148C307.395 49.6286 305.435 50.8279 303.361 51.9036C303.202 51.6391 303.034 51.3834 302.875 51.1188C309.903 43.7912 312.181 35.379 312.834 28.457C315.491 29.0566 318.149 29.6563 320.806 30.2647L320.815 30.2735ZM347.487 72.1846C347.514 71.0383 347.531 69.892 347.558 68.7545C342.093 68.6399 336.628 68.5517 331.154 68.4723C330.792 68.4723 330.43 68.4635 330.068 68.5164C330.059 69.4775 330.103 70.4475 330.094 71.3469C327.79 71.5145 325.494 71.6908 323.199 71.8672C323.234 57.4059 323.243 39.2148 323.402 30.7232C325.653 30.9701 327.905 31.217 330.147 31.4639C330.138 32.187 330.13 32.91 330.121 33.6331C336.089 33.7125 342.066 33.8094 348.034 33.9329C348.052 32.9894 348.07 32.0459 348.087 31.1024C350.374 31.3669 352.661 31.6403 354.947 31.9136C354.824 45.352 354.568 56.6123 354.338 71.7878C352.06 71.9201 349.774 72.0435 347.496 72.1846H347.487ZM347.531 67.0615C347.681 56.5771 347.831 46.1015 347.99 35.6171C342.022 35.4937 336.054 35.3967 330.085 35.3173C330.05 42.2481 329.944 55.4396 330.032 66.7617C335.868 66.841 341.704 66.938 347.531 67.0526V67.0615ZM345.615 50.5192C345.562 53.1117 345.598 57.6881 345.58 61.903C344.062 62.0177 342.543 62.1235 341.024 62.2381C341.033 61.5151 341.113 60.8537 341.121 60.1924C339.603 60.1659 338.084 60.1395 336.566 60.113C336.557 60.7126 336.61 61.3828 336.592 62.1058C335.074 62.2205 333.555 62.3351 332.037 62.4586C331.94 56.7358 331.966 54.4432 332.09 49.9284C333.343 50.1048 334.606 50.29 335.86 50.4663C335.86 50.8455 335.851 51.2335 335.842 51.6126C336.124 51.6126 336.407 51.6215 336.698 51.6303C336.672 49.3994 336.698 47.3536 336.672 45.4843C335.983 45.4754 335.286 45.4666 334.597 45.449C333.193 45.4842 332.151 45.8987 331.224 46.1191C331.383 45.1756 331.533 44.2321 331.692 43.2974C332.849 43.5531 333.52 43.7471 334.438 43.756C335.189 43.7648 335.948 43.7824 336.698 43.7912C336.663 41.9218 336.698 40.1759 336.725 38.3065C338.19 38.5093 339.656 38.7122 341.121 38.9238C341.095 40.5727 341.06 42.2128 341.033 43.8618C341.439 43.8618 341.845 43.8794 342.252 43.8794C342.878 42.7419 343.514 41.7896 344.079 41.1988C345.403 42.5479 346.286 44.1968 346.622 45.643C344.768 45.6077 342.914 45.5724 341.069 45.5372C341.033 47.6446 341.051 49.8138 341.086 51.6832C341.289 51.6832 341.492 51.6832 341.695 51.692C341.695 51.207 341.713 50.6691 341.66 50.0607C342.976 50.2018 344.3 50.3517 345.615 50.4928V50.5192ZM341.139 58.5082C341.174 56.5242 341.201 54.8929 341.166 53.385C339.647 53.3586 338.12 53.3321 336.601 53.3057C336.583 54.5137 336.557 56.1979 336.583 58.4288C338.102 58.4553 339.621 58.4817 341.139 58.5082Z" fill="#FFF100"/>
<path d="M413.905 35.9874C413.119 39.6292 407.089 42.9712 401.642 44.3203C401.509 44.1527 401.368 43.9852 401.236 43.8177C403.293 41.4898 404.741 39.0825 405.641 36.7105C396.406 36.3137 387.171 35.9786 377.936 35.6788C376.462 35.6964 375.111 35.767 374.069 35.864C374.369 40.2112 373.566 44.4085 371.915 46.463C369.673 45.0698 367.43 43.6854 365.188 42.2922C367.96 39.3558 371.112 34.3209 372.383 30.6879C372.648 30.7761 372.913 30.8643 373.178 30.9525C373.46 31.8695 373.619 32.7777 373.769 33.686C375.111 33.8447 376.771 34.0211 377.813 33.9946C380.453 34.074 383.084 34.1621 385.723 34.2591C385.768 31.2434 385.785 29.0743 385.9 25.7676C388.681 26.0409 391.462 26.3231 394.252 26.6141C394.164 28.9596 394.058 31.6138 394.014 34.5589C398.084 34.7177 402.154 34.8764 406.215 35.0527C406.436 34.2151 406.656 33.3862 406.754 32.6014C409.146 33.7301 411.53 34.8588 413.914 35.9963L413.905 35.9874ZM386.624 43.5002C382.527 50.1665 377.318 53.1822 369.611 54.2844C369.496 54.064 369.381 53.8347 369.266 53.6143C374.908 50.2811 378.537 45.5812 380.002 40.3258C382.218 41.3839 384.426 42.4421 386.633 43.5002H386.624ZM407.689 63.0229C406.471 63.0229 402.171 62.7848 400.715 62.7231C397.095 62.5732 393.475 62.4321 389.855 62.2998C386.571 70.615 378.201 73.0311 371.085 74.636C370.97 74.3714 370.856 74.1069 370.75 73.8424C376.859 69.5657 380.099 67.0262 381.671 62.0088C379.826 61.9471 377.989 61.8854 376.153 61.8325C373.54 61.8677 371.341 62.1675 370.432 62.3792C370.6 61.4357 370.767 60.501 370.935 59.5575C372.083 59.8308 374.387 60.0865 376.02 60.1306C378.042 60.1924 380.073 60.2629 382.095 60.3246C382.518 58.4729 382.722 56.2508 382.81 53.5349C385.635 54.1169 388.46 54.6989 391.277 55.2808C391.206 57.2648 390.897 59.002 390.473 60.6156C393.546 60.7302 396.627 60.8449 399.699 60.9771C400.662 59.628 402.136 57.9438 402.657 57.2384C404.961 58.8432 407.363 61.18 407.707 63.0052L407.689 63.0229ZM405.306 44.5936C406.762 46.2867 408.325 49.6639 408.714 51.9741C407.398 52.8207 405.42 53.2792 402.004 53.4379C398.278 53.5878 395.612 53.2351 391.912 52.6796C391.806 49.0025 391.595 44.77 391.851 41.2869C393.899 41.6485 395.947 42.0012 397.995 42.3627C397.792 44.3467 397.792 45.9692 397.828 48.2001C400.017 48.4117 401.545 48.4735 402.339 48.3853C404.979 48.1913 404.82 47.4682 404.882 44.6906C405.023 44.6554 405.173 44.6201 405.315 44.5848L405.306 44.5936ZM393.263 63.5784C398.207 67.7492 402.207 68.9925 407.186 68.9661C406.074 70.906 405.182 73.1634 404.467 75.9057C399.09 74.4684 394.384 71.1529 392.451 64.4514C392.725 64.1604 392.998 63.8694 393.272 63.5784H393.263Z" fill="white"/>
<path d="M436.735 70.4295C436.788 69.5301 436.832 68.6219 436.885 67.7224C435.57 67.6519 434.263 67.5814 432.948 67.5108C432.965 68.2956 432.921 69.0804 432.948 69.8652C430.855 69.9534 428.772 70.0415 426.679 70.1385C426.75 66.338 426.9 62.2466 427.041 58.3932C425.284 60.5359 423.307 62.37 421.152 64.0719C420.94 63.8779 420.729 63.6927 420.508 63.4987C425.708 55.4921 427.023 47.7853 428.26 40.5459C426.052 40.5459 424.198 40.8193 423.386 41.0221C423.571 40.0874 423.766 39.1527 423.951 38.218C425.161 38.5178 427.421 38.8176 429.072 38.897C432.259 39.0645 435.437 39.2321 438.625 39.4084C439.622 38.0769 440.947 36.3398 441.538 35.7137C443.666 37.2833 445.617 39.6906 445.935 41.5159C444.708 41.5071 440.982 41.2337 439.569 41.1543C438.324 41.0838 437.08 41.0133 435.835 40.9515C434.475 45.5809 432.798 49.5313 430.846 52.9261C431.756 53.1378 432.656 53.3406 433.566 53.5522C433.539 54.0372 433.513 54.5133 433.486 54.9983C434.784 55.0689 436.082 55.1394 437.38 55.2099C437.353 54.5486 437.389 53.8873 437.433 53.2171C439.49 53.5963 441.547 53.9666 443.595 54.3458C443.463 58.7988 443.251 64.5216 442.915 70.2972C440.849 70.3413 438.783 70.3854 436.718 70.4295H436.735ZM436.974 66.0382C437.08 62.9873 437.185 59.9363 437.3 56.8853C436.002 56.8148 434.705 56.7442 433.407 56.6737C433.257 59.5042 433.098 62.4494 433.036 65.8266C434.351 65.8972 435.658 65.9677 436.974 66.0382ZM455.505 41.8421C454.366 55.1747 450.561 67.1846 442.862 73.551C442.589 73.3306 442.324 73.1189 442.05 72.8985C447.233 64.0278 447.851 49.8223 448.089 36.4456C450.649 37.1775 453.21 37.9182 455.77 38.6589C455.735 39.1615 455.708 39.6641 455.673 40.1579C456.591 40.2108 457.509 40.2726 458.428 40.3343C458.613 37.4068 458.798 34.4792 458.984 31.5605C461.297 32.0103 463.61 32.46 465.923 32.9097C465.764 35.3698 465.526 37.9535 465.341 40.784C466.541 40.8634 467.751 40.9427 468.952 41.0221C469.005 40.1844 469.128 39.3467 469.199 38.3238C471.636 39.0469 474.063 39.7788 476.491 40.5106C474.602 45.4486 471.459 49.2138 467.062 50.9774C466.85 50.801 466.638 50.6247 466.427 50.4483C467.707 47.8206 468.325 45.8631 468.722 42.6886C467.557 42.6093 466.4 42.5299 465.235 42.4594C465.014 45.7661 464.784 49.3108 464.599 53.1025C462.339 53.1113 460.07 53.1289 457.81 53.1466C457.96 49.7782 458.154 45.7484 458.392 42.0185C457.43 41.9568 456.476 41.895 455.514 41.8421H455.505ZM473.136 71.0115C471.053 73.8244 470.152 75.4557 469.252 77.9864C466.753 77.3339 463.796 75.3851 461.041 72.8544C457.739 75.0589 453.96 76.4433 449.749 76.9106C449.705 76.6284 449.661 76.3463 449.616 76.0553C452.618 74.4857 455.364 72.246 457.792 69.4419C456.379 67.7224 455.099 65.8883 454.234 64.0895C454.49 63.922 454.737 63.7544 454.993 63.5957C456.423 65.0154 458.057 66.144 459.699 67.0964C461.429 64.7949 462.939 62.2378 464.149 59.5395C462.206 59.416 460.264 59.2838 458.313 59.1603C456.432 59.0369 454.64 59.3543 453.651 59.5924C453.854 58.6577 454.049 57.723 454.252 56.7883C455.391 57.097 456.9 57.3791 458.242 57.4585C460.449 57.5996 462.665 57.7407 464.873 57.8906C465.235 57.0088 465.544 56.0653 465.844 55.1747C468.192 56.2769 470.541 57.3791 472.889 58.4902C470.947 62.7668 468.316 66.5056 465.191 69.5654C467.874 70.4031 470.576 70.8351 473.119 71.0115H473.136Z" fill="white"/>
<path d="M484.562 77.4484C484.773 74.5473 487.175 72.8014 490.097 73.0218C492.949 73.2422 495.227 74.9441 494.962 78.242C494.715 81.337 492.543 82.8272 489.364 82.5891C486.46 82.3687 484.35 80.3582 484.562 77.4484ZM488.508 69.3183C488.278 58.2255 487.863 47.5824 488.296 39.9902C491.845 40.4488 495.801 40.8279 498.688 41.1189C495.2 51.0654 493.532 57.961 491.695 69.5652C490.636 69.4859 489.567 69.4065 488.508 69.3183Z" fill="white"/>
</g>
<path d="M168.4 229.755C166.54 237.605 164.28 247.815 163.55 251.545L156.49 250.585L160.95 229.865C159.76 229.865 158.75 229.925 158.01 229.925C156.6 229.925 154.85 230.545 154 230.715L154.34 228.005C155.02 228.175 156.71 228.345 158.12 228.345C158.97 228.345 160.04 228.285 161.34 228.285C162.24 224.055 162.98 220.665 163.15 219.705L170.71 219.935C170.43 220.895 169.69 224.115 168.73 228.175C170.14 228.115 171.5 228.115 172.74 228.115C173.76 226.815 174.89 225.345 176.01 224.105C177.14 224.335 180.58 227.715 180.7 229.635C179.4 229.635 176.18 229.695 174.43 229.635C172.79 229.635 170.65 229.695 168.39 229.745L168.4 229.755ZM174.1 247.985C178.9 251.825 183.24 251.765 189.45 249.285L189.85 256.505H188.61C182.57 256.505 175.85 254.925 173.6 248.495L174.11 247.985H174.1ZM185.79 234.775C185.96 233.985 186.07 233.135 186.24 232.235L191.83 234.665C191.32 237.545 187.48 241.385 183.25 243.245L182.91 242.845C183.98 240.925 184.77 238.955 185.39 236.415L177.83 236.585C176.42 236.585 174.67 237.145 173.88 237.265L174.16 234.725C174.89 234.895 176.53 235.005 177.94 235.005C180.82 234.945 182.91 234.895 185.79 234.775Z" fill="#772D2D"/>
<path d="M224.737 246.115C228.067 247.015 231.057 248.765 233.317 250.795L232.917 251.355C229.247 250.395 227.217 250.005 224.057 250.115C222.867 254.235 219.427 257.335 213.557 257.565H212.997C207.577 257.565 204.867 254.745 204.867 251.755V251.585C204.977 248.485 207.857 245.315 213.557 244.925C214.577 244.865 216.267 244.925 217.907 245.035C217.967 242.605 218.017 239.785 217.907 236.735C215.027 236.795 212.377 236.845 210.967 236.905C209.497 236.905 207.697 237.465 206.907 237.635L207.247 234.985C207.927 235.155 209.557 235.325 211.027 235.325C212.497 235.325 215.037 235.265 217.857 235.215C217.797 232.735 217.627 230.135 217.407 227.425C214.467 227.485 211.817 227.595 210.347 227.595C208.877 227.595 207.127 228.155 206.337 228.385L206.677 225.735C207.357 225.845 209.047 226.075 210.457 226.015C211.927 226.015 214.467 225.955 217.287 225.905C217.057 223.645 216.777 221.335 216.497 218.965L224.227 219.135C224.457 221.395 224.627 223.655 224.787 225.795C225.687 225.795 226.537 225.735 227.327 225.735C228.177 223.985 228.677 223.195 229.757 221.895C230.827 222.515 233.317 224.945 233.937 227.145C232.297 227.145 229.927 227.205 228.237 227.145C227.277 227.205 226.147 227.205 224.847 227.255C225.017 230.025 225.077 232.675 225.127 235.105C225.977 235.045 226.767 235.045 227.497 235.045C228.347 233.295 228.847 232.445 229.867 231.155C230.997 231.775 233.477 234.205 234.097 236.405C233.197 236.465 231.447 236.465 229.867 236.465C228.797 236.465 227.097 236.525 225.127 236.575C225.127 240.465 224.957 243.795 224.727 246.115H224.737ZM217.627 249.675C214.357 249.225 211.477 250.015 211.477 252.045C211.477 253.565 212.717 254.025 214.417 254.025C216.117 254.025 217.297 252.615 217.637 249.675H217.627Z" fill="#772D2D"/>
<path d="M267.149 229.866C267.429 233.536 267.379 239.916 266.979 242.956C266.019 250.406 262.919 255.256 254.899 259.666L254.279 258.936C258.059 255.096 259.979 251.206 260.769 245.506C257.609 248.326 253.259 250.246 247.449 252.056L246.039 245.456H248.809C248.359 238.176 248.129 234.056 247.849 225.196L252.199 225.706C256.149 223.616 257.959 220.176 259.649 217.016L265.409 221.196C262.589 224.016 259.259 225.826 254.349 227.006C254.409 234.686 254.409 237.056 254.859 244.846C256.889 244.506 258.869 243.996 261.009 243.436C261.119 242.416 261.179 241.286 261.179 240.106C259.319 240.786 258.409 241.236 256.499 242.086C256.499 238.986 256.219 236.446 255.029 233.446L255.649 232.936C258.639 235.026 259.939 236.326 261.239 238.696C261.239 235.926 261.129 232.766 260.959 229.156L267.169 229.886L267.149 229.866ZM275.559 225.346H282.839L282.499 222.296L289.099 223.086C289.329 225.736 289.439 229.236 289.439 232.686C289.439 236.136 289.329 239.626 289.039 242.336C288.529 247.306 287.459 249.106 285.769 250.806C282.609 249.056 280.239 247.076 278.259 244.486L278.489 243.926C280.299 244.326 281.589 244.606 283.059 244.656C283.289 238.386 283.289 232.016 282.949 226.936H275.559C275.559 234.446 275.559 249.226 275.789 259.166L269.689 259.676C269.409 247.376 269.239 226.996 269.289 221.856L275.559 222.756V225.356V225.346ZM276.799 232.126C280.189 234.556 281.429 236.016 282.899 239.186C280.639 239.866 279.969 240.146 277.589 241.276C277.589 238.226 277.309 235.636 276.119 232.636L276.799 232.126Z" fill="#772D2D"/>
<path d="M322.88 241.266C321.58 250.186 317.74 254.646 309.56 257.686L309 257.176C313.23 251.586 314.76 247.466 315.04 241.376L306.35 241.436C303.64 241.436 301.61 241.886 300.82 242.116L301.16 239.296C302.46 239.526 304.49 239.636 305.96 239.636L315.16 239.526C315.16 237.326 315.1 234.836 314.99 231.966C310.81 232.816 306.81 232.696 303.7 232.026L303.64 231.516C311.94 229.996 318.48 225.026 322.04 219.326L328.47 224.746C326.89 226.386 325.2 227.736 323.33 228.806C323.44 232.926 323.39 236.426 323.1 239.476L329.08 239.416C330.27 237.666 330.77 237.046 331.9 235.686C333.09 236.246 336.08 239.076 336.53 241.106L322.87 241.276L322.88 241.266Z" fill="#772D2D"/>
<path d="M350.223 236.125C363.653 236.975 369.523 236.855 382.343 236.295L382.453 240.415C370.203 239.965 363.263 240.075 349.773 240.755L350.223 236.125Z" fill="#772D2D"/>
<path d="M422.577 226.426C421.277 232.856 419.017 238.786 415.637 243.636C419.247 246.006 423.537 248.206 428.337 250.016L423.707 256.506C420.437 254.816 415.977 251.426 412.927 247.026C408.187 252.216 401.747 255.666 393.287 256.336L393.117 255.826C403.557 251.146 410.837 241.206 412.817 228.846C407.677 228.846 402.147 228.906 397.017 228.956C395.657 229.126 394.197 229.516 393.517 229.686L393.857 226.746C394.647 226.856 396.787 227.086 398.317 227.086C402.607 227.086 407.747 227.026 413.047 227.086C413.217 225.896 413.277 224.776 413.327 223.586L422.587 226.406L422.577 226.426ZM422.687 219.476C425.627 220.826 427.937 222.806 428.837 224.556L425.337 226.986C424.887 224.556 423.587 221.796 422.287 219.986L422.677 219.476H422.687ZM427.147 217.396C429.627 217.906 432.057 219.316 433.917 221.286L430.817 224.106C430.087 221.736 428.557 219.476 426.807 217.956L427.147 217.396Z" fill="#772D2D"/>
<path d="M422.102 168.975C422.018 168.891 421.86 168.775 421.627 168.625C421.393 168.475 421.152 168.325 420.902 168.175C420.652 168.041 420.427 167.941 420.227 167.875C421.21 166.841 421.927 165.541 422.377 163.975C422.827 162.391 423.052 160.466 423.052 158.2V153.25H428.677C428.477 152.75 428.243 152.208 427.977 151.625C427.727 151.041 427.485 150.55 427.252 150.15H423.052V148.3H431.502V145.975H433.952V148.3H442.702V150.15H438.277C438.11 150.616 437.893 151.133 437.627 151.7C437.377 152.25 437.127 152.766 436.877 153.25H443.027V155.175H425.252V158.2C425.252 160.616 424.993 162.708 424.477 164.475C423.977 166.225 423.185 167.725 422.102 168.975ZM425.377 168.175V166.3H433.052V164H428.152V162.15H433.052V160.05H428.927C428.36 161.016 427.735 161.866 427.052 162.6C426.885 162.466 426.618 162.266 426.252 162C425.885 161.733 425.568 161.541 425.302 161.425C425.818 160.958 426.293 160.391 426.727 159.725C427.16 159.058 427.535 158.366 427.852 157.65C428.168 156.916 428.402 156.233 428.552 155.6L430.602 156.2C430.435 156.816 430.193 157.483 429.877 158.2H433.052V155.925H435.302V158.2H441.802V160.05H435.302V162.15H440.452V164H435.302V166.3H443.077V168.175H425.377ZM431.002 153.25H434.552C434.768 152.85 435.01 152.358 435.277 151.775C435.543 151.191 435.768 150.65 435.952 150.15H429.627C429.86 150.616 430.102 151.141 430.352 151.725C430.618 152.308 430.835 152.816 431.002 153.25Z" fill="#772D2D"/>
<path d="M394.773 167.624V165.449H404.923V156.049H396.498V153.874H404.923V146.574H407.348V153.874H415.848V156.049H407.348V165.449H417.548V167.624H394.773Z" fill="#772D2D"/>
<path d="M376.249 167.574C375.099 167.724 374.066 167.691 373.149 167.474C372.249 167.274 371.533 166.908 370.999 166.374C370.466 165.824 370.199 165.124 370.199 164.274C370.199 163.091 370.674 161.958 371.624 160.874C372.591 159.791 373.891 158.916 375.524 158.249V153.899C374.608 153.983 373.708 154.041 372.824 154.074C371.958 154.108 371.149 154.108 370.399 154.074L370.249 151.824C370.916 151.891 371.708 151.916 372.624 151.899C373.558 151.866 374.524 151.799 375.524 151.699V147.324H377.674V151.449C378.558 151.316 379.374 151.166 380.124 150.999C380.891 150.833 381.533 150.649 382.049 150.449L382.324 152.574C381.024 153.024 379.474 153.374 377.674 153.624V157.549C378.991 157.233 380.399 157.066 381.899 157.049C383.416 157.049 384.716 157.274 385.799 157.724C386.883 158.174 387.716 158.791 388.299 159.574C388.899 160.341 389.199 161.216 389.199 162.199C389.199 163.733 388.716 164.924 387.749 165.774C386.799 166.608 385.558 167.016 384.024 166.999C381.491 166.966 379.841 165.699 379.074 163.199C379.341 163.116 379.699 162.983 380.149 162.799C380.616 162.599 380.958 162.416 381.174 162.249C381.408 163.066 381.749 163.683 382.199 164.099C382.649 164.499 383.258 164.699 384.024 164.699C384.858 164.716 385.524 164.491 386.024 164.024C386.541 163.558 386.799 162.941 386.799 162.174C386.799 161.241 386.358 160.491 385.474 159.924C384.608 159.341 383.416 159.049 381.899 159.049C381.133 159.049 380.391 159.108 379.674 159.224C378.974 159.324 378.308 159.466 377.674 159.649V166.074C377.674 166.558 377.566 166.908 377.349 167.124C377.133 167.358 376.766 167.508 376.249 167.574ZM389.049 156.124C388.649 155.724 388.116 155.291 387.449 154.824C386.799 154.358 386.116 153.916 385.399 153.499C384.683 153.083 384.033 152.766 383.449 152.549L384.699 150.774C385.249 151.008 385.883 151.324 386.599 151.724C387.316 152.124 388.016 152.549 388.699 152.999C389.399 153.449 389.966 153.874 390.399 154.274C390.283 154.391 390.124 154.583 389.924 154.849C389.741 155.099 389.558 155.349 389.374 155.599C389.208 155.849 389.099 156.024 389.049 156.124ZM374.774 165.549C375.041 165.533 375.233 165.499 375.349 165.449C375.466 165.383 375.524 165.241 375.524 165.024V160.499C374.558 160.983 373.799 161.549 373.249 162.199C372.699 162.849 372.424 163.508 372.424 164.174C372.424 164.658 372.641 165.016 373.074 165.249C373.524 165.466 374.091 165.566 374.774 165.549Z" fill="#772D2D"/>
<path d="M355.427 166.899C355.343 166.599 355.16 166.224 354.877 165.774C354.61 165.308 354.343 164.958 354.077 164.724C355.577 164.491 356.852 164.058 357.902 163.424C358.952 162.791 359.76 162.016 360.327 161.099C360.91 160.183 361.227 159.191 361.277 158.124C361.327 157.124 361.185 156.208 360.852 155.374C360.535 154.524 360.077 153.783 359.477 153.149C358.877 152.516 358.177 152.016 357.377 151.649C356.593 151.266 355.752 151.049 354.852 150.999C354.735 152.616 354.493 154.249 354.127 155.899C353.76 157.549 353.26 159.083 352.627 160.499C352.01 161.916 351.268 163.099 350.402 164.049C349.818 164.683 349.227 165.058 348.627 165.174C348.043 165.291 347.427 165.216 346.777 164.949C346.143 164.683 345.577 164.249 345.077 163.649C344.577 163.033 344.193 162.299 343.927 161.449C343.66 160.599 343.552 159.683 343.602 158.699C343.685 157.233 344.027 155.883 344.627 154.649C345.243 153.416 346.068 152.358 347.102 151.474C348.135 150.574 349.318 149.899 350.652 149.449C351.985 148.983 353.41 148.791 354.927 148.874C356.127 148.941 357.26 149.216 358.327 149.699C359.393 150.183 360.335 150.841 361.152 151.674C361.968 152.508 362.593 153.483 363.027 154.599C363.477 155.716 363.668 156.949 363.602 158.299C363.485 160.466 362.71 162.299 361.277 163.799C359.843 165.299 357.893 166.333 355.427 166.899ZM347.427 162.624C347.61 162.741 347.827 162.799 348.077 162.799C348.327 162.783 348.568 162.649 348.802 162.399C349.452 161.716 350.035 160.783 350.552 159.599C351.085 158.416 351.527 157.091 351.877 155.624C352.227 154.158 352.452 152.666 352.552 151.149C351.285 151.383 350.16 151.866 349.177 152.599C348.193 153.333 347.41 154.233 346.827 155.299C346.243 156.366 345.918 157.533 345.852 158.799C345.802 159.716 345.935 160.516 346.252 161.199C346.568 161.866 346.96 162.341 347.427 162.624Z" fill="#772D2D"/>
<path d="M336.075 168.8C335.325 168.45 334.683 167.817 334.15 166.9C333.633 165.984 333.233 164.842 332.95 163.475C332.667 162.092 332.525 160.55 332.525 158.85V157.625H317.9V155.7H334.825C334.792 156.084 334.758 156.584 334.725 157.2C334.692 157.817 334.675 158.467 334.675 159.15C334.675 160.817 334.825 162.234 335.125 163.4C335.442 164.567 335.875 165.492 336.425 166.175C336.592 165.792 336.758 165.4 336.925 165C337.092 164.6 337.233 164.242 337.35 163.925C337.483 163.592 337.567 163.375 337.6 163.275C337.783 163.409 338.067 163.575 338.45 163.775C338.833 163.959 339.175 164.092 339.475 164.175C339.425 164.359 339.317 164.65 339.15 165.05C339 165.45 338.825 165.884 338.625 166.35C338.442 166.8 338.267 167.209 338.1 167.575C337.933 167.959 337.8 168.217 337.7 168.35C337.483 168.65 337.217 168.842 336.9 168.925C336.6 169.009 336.325 168.967 336.075 168.8ZM317.65 169C317.517 168.65 317.35 168.292 317.15 167.925C316.95 167.575 316.708 167.25 316.425 166.95C317.758 166.567 319.05 166.05 320.3 165.4C321.55 164.734 322.708 163.975 323.775 163.125C323.025 162.492 322.283 161.909 321.55 161.375C320.833 160.842 320.175 160.434 319.575 160.15L321 158.625C321.633 158.942 322.333 159.367 323.1 159.9C323.883 160.434 324.658 161.017 325.425 161.65C326.558 160.517 327.475 159.3 328.175 158L330.2 159C329.333 160.45 328.292 161.8 327.075 163.05C327.808 163.684 328.492 164.325 329.125 164.975C329.758 165.609 330.292 166.209 330.725 166.775C330.408 166.992 330.083 167.242 329.75 167.525C329.433 167.809 329.158 168.075 328.925 168.325C328.525 167.809 328.017 167.225 327.4 166.575C326.783 165.909 326.117 165.242 325.4 164.575C323.15 166.442 320.567 167.917 317.65 169ZM317.75 155.15C317.483 154.9 317.192 154.642 316.875 154.375C316.575 154.092 316.283 153.875 316 153.725C316.8 153.092 317.55 152.325 318.25 151.425C318.95 150.525 319.55 149.592 320.05 148.625C320.567 147.642 320.917 146.734 321.1 145.9L323.3 146.45C323.217 146.75 323.117 147.059 323 147.375C322.883 147.692 322.758 148.009 322.625 148.325H337.275V150.175H321.725C321.208 151.092 320.608 151.984 319.925 152.85C319.258 153.717 318.533 154.484 317.75 155.15ZM322.325 153.7V151.9H334.75V153.7H322.325Z" fill="#EB5925"/>
<path d="M291.327 168.549C291.16 168.266 290.927 167.916 290.627 167.499C290.343 167.099 290.085 166.791 289.852 166.574C291.852 165.658 293.602 164.533 295.102 163.199C296.618 161.866 297.793 160.333 298.627 158.599C299.477 156.849 299.902 154.933 299.902 152.849V146.574H302.277V152.199C302.277 153.799 302.552 155.333 303.102 156.799C303.668 158.249 304.435 159.591 305.402 160.824C306.368 162.058 307.46 163.141 308.677 164.074C309.91 165.008 311.202 165.749 312.552 166.299C312.418 166.449 312.252 166.666 312.052 166.949C311.852 167.216 311.66 167.491 311.477 167.774C311.31 168.058 311.177 168.291 311.077 168.474C309.593 167.741 308.21 166.833 306.927 165.749C305.643 164.666 304.518 163.441 303.552 162.074C302.585 160.691 301.818 159.199 301.252 157.599C300.802 159.216 300.093 160.708 299.127 162.074C298.177 163.441 297.035 164.666 295.702 165.749C294.368 166.833 292.91 167.766 291.327 168.549Z" fill="#EB5925"/>
<path d="M264.751 168.874C264.667 168.691 264.534 168.458 264.351 168.174C264.184 167.891 264.001 167.616 263.801 167.349C263.601 167.083 263.434 166.891 263.301 166.774C264.684 166.291 265.967 165.641 267.151 164.824C268.351 164.008 269.401 163.074 270.301 162.024C271.217 160.974 271.951 159.849 272.501 158.649C273.067 157.433 273.426 156.191 273.576 154.924H263.926V152.699H273.651V146.199H276.051V152.699H285.801V154.924H276.126C276.276 156.158 276.642 157.374 277.226 158.574C277.809 159.774 278.559 160.899 279.476 161.949C280.392 162.999 281.434 163.941 282.601 164.774C283.784 165.591 285.051 166.241 286.401 166.724C286.267 166.874 286.092 167.083 285.876 167.349C285.676 167.633 285.484 167.908 285.301 168.174C285.117 168.458 284.984 168.691 284.901 168.874C283.451 168.191 282.059 167.349 280.726 166.349C279.409 165.333 278.234 164.174 277.201 162.874C276.184 161.574 275.401 160.158 274.851 158.624C274.301 160.191 273.509 161.624 272.476 162.924C271.442 164.224 270.259 165.374 268.926 166.374C267.592 167.374 266.201 168.208 264.751 168.874Z" fill="#EB5925"/>
<path d="M254.302 167.7C252.635 167.5 251.16 167 249.877 166.2C248.61 165.4 247.61 164.367 246.877 163.1C246.16 161.834 245.802 160.417 245.802 158.85C245.802 158.017 245.943 157.159 246.227 156.275C246.51 155.375 246.943 154.5 247.527 153.65C248.127 152.8 248.868 152.05 249.752 151.4C248.718 151.584 247.668 151.775 246.602 151.975C245.535 152.159 244.502 152.342 243.502 152.525C242.518 152.709 241.635 152.884 240.852 153.05C240.068 153.2 239.452 153.334 239.002 153.45L238.477 150.975C239.027 150.925 239.777 150.842 240.727 150.725C241.677 150.609 242.743 150.459 243.927 150.275C245.11 150.092 246.335 149.9 247.602 149.7C248.868 149.484 250.093 149.267 251.277 149.05C252.46 148.834 253.527 148.625 254.477 148.425C255.427 148.225 256.177 148.05 256.727 147.9L257.327 150.25C257.11 150.267 256.818 150.3 256.452 150.35C256.102 150.4 255.702 150.459 255.252 150.525C254.302 150.675 253.393 151 252.527 151.5C251.677 151.984 250.918 152.6 250.252 153.35C249.585 154.1 249.06 154.95 248.677 155.9C248.31 156.834 248.127 157.817 248.127 158.85C248.127 160.167 248.46 161.284 249.127 162.2C249.793 163.117 250.685 163.842 251.802 164.375C252.935 164.892 254.193 165.234 255.577 165.4C255.31 165.7 255.052 166.084 254.802 166.55C254.552 167.017 254.385 167.4 254.302 167.7ZM258.527 156.55C258.31 156.217 258.027 155.859 257.677 155.475C257.327 155.075 256.968 154.7 256.602 154.35C256.235 153.984 255.902 153.684 255.602 153.45L256.702 152.525C256.968 152.725 257.293 153.025 257.677 153.425C258.077 153.809 258.46 154.2 258.827 154.6C259.193 155 259.477 155.342 259.677 155.625L258.527 156.55ZM256.402 158.4C256.185 158.05 255.91 157.675 255.577 157.275C255.243 156.875 254.893 156.492 254.527 156.125C254.177 155.759 253.852 155.459 253.552 155.225L254.652 154.325C254.918 154.542 255.243 154.85 255.627 155.25C256.01 155.634 256.377 156.034 256.727 156.45C257.093 156.867 257.377 157.217 257.577 157.5L256.402 158.4Z" fill="#772D2D"/>
<path d="M222.377 168.85C222.16 168.683 221.852 168.5 221.452 168.3C221.068 168.117 220.76 167.983 220.527 167.9C221.56 166.45 222.235 164.725 222.552 162.725C222.885 160.708 223.052 158.4 223.052 155.8V147.05H232.602V156.275H228.852C229.085 158.542 229.685 160.6 230.652 162.45C231.618 164.3 232.843 165.867 234.327 167.15C234.177 167.217 233.977 167.342 233.727 167.525C233.493 167.708 233.268 167.9 233.052 168.1C232.835 168.3 232.668 168.467 232.552 168.6C230.952 167.25 229.668 165.525 228.702 163.425C227.735 161.325 227.135 158.942 226.902 156.275H225.202C225.202 157.858 225.127 159.4 224.977 160.9C224.843 162.383 224.577 163.792 224.177 165.125C223.777 166.458 223.177 167.7 222.377 168.85ZM215.652 168.75C215.618 168.483 215.552 168.142 215.452 167.725C215.368 167.325 215.285 167.017 215.202 166.8H216.827C217.41 166.8 217.827 166.717 218.077 166.55C218.343 166.367 218.543 165.958 218.677 165.325C218.76 164.958 218.843 164.483 218.927 163.9C219.01 163.317 219.077 162.692 219.127 162.025C219.177 161.342 219.202 160.692 219.202 160.075H211.902V147H221.402V148.875H218.177V150.75H220.752V152.475H218.177V154.325H220.752V156.075H218.177V158.2H221.327C221.327 159.167 221.293 160.142 221.227 161.125C221.16 162.092 221.068 163 220.952 163.85C220.852 164.7 220.727 165.433 220.577 166.05C220.327 167.117 219.935 167.833 219.402 168.2C218.885 168.567 218.135 168.75 217.152 168.75H215.652ZM225.202 154.275H230.427V149.05H225.202V154.275ZM210.977 166.175C211.01 165.825 211.035 165.375 211.052 164.825C211.085 164.275 211.102 163.725 211.102 163.175C211.118 162.625 211.11 162.183 211.077 161.85L212.527 161.7C212.56 162.033 212.577 162.483 212.577 163.05C212.577 163.6 212.568 164.158 212.552 164.725C212.552 165.275 212.543 165.733 212.527 166.1C212.343 166.083 212.085 166.083 211.752 166.1C211.418 166.117 211.16 166.142 210.977 166.175ZM213.427 165.6C213.427 165.283 213.41 164.883 213.377 164.4C213.36 163.9 213.335 163.417 213.302 162.95C213.268 162.467 213.227 162.092 213.177 161.825L214.477 161.65C214.527 161.967 214.568 162.367 214.602 162.85C214.652 163.317 214.693 163.783 214.727 164.25C214.777 164.717 214.802 165.1 214.802 165.4C214.685 165.417 214.46 165.45 214.127 165.5C213.793 165.533 213.56 165.567 213.427 165.6ZM213.902 158.2H216.277V156.075H213.902V158.2ZM215.602 165.1C215.585 164.767 215.543 164.383 215.477 163.95C215.427 163.5 215.36 163.058 215.277 162.625C215.21 162.192 215.135 161.842 215.052 161.575L216.277 161.35C216.36 161.65 216.443 162.025 216.527 162.475C216.61 162.908 216.685 163.342 216.752 163.775C216.818 164.208 216.86 164.567 216.877 164.85C216.81 164.867 216.685 164.892 216.502 164.925C216.318 164.958 216.135 164.992 215.952 165.025C215.785 165.058 215.668 165.083 215.602 165.1ZM213.902 150.75H216.277V148.875H213.902V150.75ZM213.902 154.325H216.277V152.475H213.902V154.325ZM217.677 164.525C217.61 164.042 217.502 163.475 217.352 162.825C217.218 162.175 217.068 161.633 216.902 161.2L218.052 160.925C218.152 161.175 218.252 161.508 218.352 161.925C218.468 162.325 218.568 162.733 218.652 163.15C218.752 163.55 218.827 163.892 218.877 164.175C218.827 164.192 218.71 164.225 218.527 164.275C218.36 164.325 218.193 164.375 218.027 164.425C217.86 164.475 217.743 164.508 217.677 164.525Z" fill="#EB5925"/>
<path d="M206.648 168.775C204.615 167.692 202.923 166.284 201.573 164.55C200.123 166.167 198.257 167.55 195.973 168.7C195.873 168.55 195.732 168.359 195.548 168.125C195.382 167.892 195.207 167.667 195.023 167.45C194.84 167.234 194.673 167.075 194.523 166.975C196.94 165.925 198.89 164.517 200.373 162.75C199.09 160.517 198.298 157.884 197.998 154.85H197.173C197.173 157.15 196.99 159.142 196.623 160.825C196.257 162.492 195.69 163.959 194.923 165.225C194.157 166.492 193.173 167.65 191.973 168.7C191.807 168.5 191.548 168.242 191.198 167.925C190.865 167.625 190.582 167.417 190.348 167.3C192.032 166 193.232 164.359 193.948 162.375C194.682 160.392 195.048 157.867 195.048 154.8V147.075H207.073V149.05H197.173V152.825H205.398L206.098 153.225C205.865 155.142 205.49 156.9 204.973 158.5C204.473 160.084 203.798 161.517 202.948 162.8C203.632 163.65 204.407 164.425 205.273 165.125C206.157 165.809 207.107 166.417 208.123 166.95C207.973 167.067 207.79 167.234 207.573 167.45C207.373 167.684 207.19 167.925 207.023 168.175C206.857 168.425 206.732 168.625 206.648 168.775ZM185.773 168.875V147.025H193.023L193.948 147.825C193.882 148.009 193.732 148.325 193.498 148.775C193.265 149.225 192.99 149.742 192.673 150.325C192.373 150.892 192.065 151.459 191.748 152.025C191.432 152.575 191.157 153.067 190.923 153.5C190.707 153.917 190.557 154.2 190.473 154.35C191.39 155.117 192.115 155.942 192.648 156.825C193.198 157.709 193.473 158.65 193.473 159.65C193.473 161.05 193.115 162.092 192.398 162.775C191.698 163.459 190.798 163.8 189.698 163.8H188.698C188.665 163.484 188.59 163.109 188.473 162.675C188.373 162.225 188.273 161.867 188.173 161.6H189.348C190.598 161.6 191.223 160.8 191.223 159.2C191.223 158.334 190.94 157.5 190.373 156.7C189.823 155.9 189.132 155.175 188.298 154.525C188.348 154.425 188.465 154.192 188.648 153.825C188.848 153.442 189.082 153.009 189.348 152.525C189.615 152.025 189.873 151.525 190.123 151.025C190.39 150.509 190.615 150.059 190.798 149.675C190.982 149.292 191.09 149.042 191.123 148.925H187.873V168.875H185.773ZM201.673 160.9C202.157 160.05 202.557 159.125 202.873 158.125C203.207 157.109 203.448 156.017 203.598 154.85H199.898C199.998 156.017 200.198 157.1 200.498 158.1C200.815 159.1 201.207 160.034 201.673 160.9Z" fill="#EB5925"/>
<path d="M159.751 168.874C159.667 168.691 159.534 168.458 159.351 168.174C159.184 167.891 159.001 167.616 158.801 167.349C158.601 167.083 158.434 166.891 158.301 166.774C159.684 166.291 160.967 165.641 162.151 164.824C163.351 164.008 164.401 163.074 165.301 162.024C166.217 160.974 166.951 159.849 167.501 158.649C168.067 157.433 168.426 156.191 168.576 154.924H158.926V152.699H168.651V146.199H171.051V152.699H180.801V154.924H171.126C171.276 156.158 171.642 157.374 172.226 158.574C172.809 159.774 173.559 160.899 174.476 161.949C175.392 162.999 176.434 163.941 177.601 164.774C178.784 165.591 180.051 166.241 181.401 166.724C181.267 166.874 181.092 167.083 180.876 167.349C180.676 167.633 180.484 167.908 180.301 168.174C180.117 168.458 179.984 168.691 179.901 168.874C178.451 168.191 177.059 167.349 175.726 166.349C174.409 165.333 173.234 164.174 172.201 162.874C171.184 161.574 170.401 160.158 169.851 158.624C169.301 160.191 168.509 161.624 167.476 162.924C166.442 164.224 165.259 165.374 163.926 166.374C162.592 167.374 161.201 168.208 159.751 168.874Z" fill="#EB5925"/>
<path d="M143.202 168.925C143.068 168.809 142.877 168.667 142.627 168.5C142.377 168.334 142.127 168.175 141.877 168.025C141.627 167.875 141.418 167.775 141.252 167.725C142.635 166.492 143.585 164.892 144.102 162.925C144.635 160.942 144.902 158.534 144.902 155.7V148.325C145.718 148.325 146.627 148.25 147.627 148.1C148.627 147.95 149.602 147.734 150.552 147.45C151.518 147.167 152.343 146.834 153.027 146.45L154.477 148.375C153.877 148.625 153.135 148.884 152.252 149.15C151.385 149.4 150.493 149.617 149.577 149.8C148.677 149.984 147.86 150.1 147.127 150.15V154.2H154.877V156.3H152.027V168.875H149.802V156.3H147.127C147.11 159.167 146.785 161.642 146.152 163.725C145.518 165.809 144.535 167.542 143.202 168.925ZM137.252 168.775V162.2C136.685 163.017 136.043 163.834 135.327 164.65C134.627 165.45 133.968 166.109 133.352 166.625C133.268 166.509 133.118 166.367 132.902 166.2C132.702 166.017 132.493 165.85 132.277 165.7C132.06 165.534 131.877 165.425 131.727 165.375C132.227 165.025 132.768 164.542 133.352 163.925C133.952 163.309 134.527 162.65 135.077 161.95C135.627 161.25 136.068 160.617 136.402 160.05H133.027V158.075H137.252V155.975H132.577V154.1H135.552C135.402 153.617 135.218 153.109 135.002 152.575C134.802 152.042 134.618 151.625 134.452 151.325L136.202 150.725C136.435 151.142 136.677 151.675 136.927 152.325C137.177 152.975 137.377 153.567 137.527 154.1H139.052C139.218 153.734 139.385 153.334 139.552 152.9C139.718 152.45 139.877 152.025 140.027 151.625C140.177 151.225 140.277 150.909 140.327 150.675L142.227 151.2C142.093 151.617 141.918 152.092 141.702 152.625C141.485 153.142 141.268 153.634 141.052 154.1H144.002V155.975H139.402V158.075H143.502V160.05H139.402V160.35L139.477 160.275C139.76 160.625 140.135 161.017 140.602 161.45C141.068 161.884 141.56 162.3 142.077 162.7C142.593 163.084 143.077 163.409 143.527 163.675C143.427 163.759 143.277 163.909 143.077 164.125C142.893 164.325 142.718 164.534 142.552 164.75C142.385 164.95 142.26 165.117 142.177 165.25C141.793 164.967 141.343 164.592 140.827 164.125C140.327 163.642 139.852 163.167 139.402 162.7V168.775H137.252ZM133.102 150.5V148.675H137.177V146.15H139.427V148.675H143.577V150.5H133.102Z" fill="#EB5925"/>
<g clip-path="url(#clip1_3036_22053)">
<path d="M118 163.508C118 163.232 118.224 163.008 118.5 163.008C118.776 163.008 119 163.232 119 163.508C119 174.686 128.029 183.813 139.061 183.813H281.48C281.634 183.813 281.779 183.885 281.874 184.006C281.969 184.127 282.003 184.284 281.966 184.434L279.36 194.979L291.169 183.948C291.262 183.862 291.384 183.813 291.511 183.813H435.937C446.958 183.813 455.997 174.685 455.997 163.508C455.997 163.232 456.221 163.008 456.497 163.008C456.773 163.008 456.997 163.232 456.997 163.508C456.997 175.227 447.521 184.813 435.937 184.813H291.707L278.813 196.858C278.652 197.009 278.41 197.036 278.219 196.924C278.028 196.812 277.933 196.588 277.986 196.373L280.842 184.813H139.061C127.466 184.813 118 175.227 118 163.508Z" fill="#42210B"/>
</g>
<defs>
<clipPath id="clip0_3036_22053">
<rect width="588" height="150" fill="white"/>
</clipPath>
<clipPath id="clip1_3036_22053">
<rect width="339" height="34" fill="white" transform="translate(118 163)"/>
</clipPath>
</defs>
</svg>
