<svg width="330" height="39" viewBox="0 0 330 39" fill="none" xmlns="http://www.w3.org/2000/svg">
<path d="M113.677 14.9017C113.484 13.7994 113.334 12.692 113.11 11.5947C112.885 10.5087 112.761 9.3082 112.284 8.3027C111.782 7.24785 109.897 7.54875 109.952 8.8135C110.004 9.93818 110.424 11.0304 110.737 12.1038C111.047 13.1795 111.437 14.236 111.782 15.3045C112.159 16.4696 113.898 16.1595 113.675 14.8972L113.677 14.9017Z" fill="#EB5925"/>
<path d="M121.666 13.1047C121.781 12.3874 122.066 11.7059 122.224 10.9946C122.386 10.2698 122.519 9.54311 122.638 8.81211C122.904 7.1375 120.124 6.93652 119.992 8.6769C119.94 9.39563 119.897 10.121 119.907 10.8411C119.918 11.5724 120.02 12.2844 119.968 13.0144C119.885 14.1399 121.502 14.1705 121.67 13.1024L121.666 13.1047Z" fill="#EB5925"/>
<path d="M129.26 17.9569C130.3 17.1098 131.517 16.3908 132.356 15.3256C133.144 14.3266 131.745 12.8138 130.686 13.4786C129.545 14.2033 128.698 15.352 127.751 16.3037C126.721 17.3379 128.141 18.8683 129.26 17.9569Z" fill="#EB5925"/>
<path d="M11.5757 34.1209C11.5757 35.9751 9.76095 37.8293 6.6258 37.4803V37.2887C10.0081 36.3035 9.85575 31.5722 6.91358 31.4388C6.49376 31.4183 6.09086 31.4388 5.72859 31.4764C5.72859 33.293 5.63379 35.0103 5.48143 36.3822C5.36632 37.4256 4.60115 37.8498 3.68702 37.8498C1.90953 37.8498 0 36.478 0 35.089C0 33.5051 1.43215 32.0751 3.49742 31.2848C3.46018 30.2243 3.36199 29.1399 3.26719 28.117H1.41522C0.917522 28.0964 0.497697 28.2333 0.0406283 28.3291L0.192984 27.4225C0.423211 27.4807 0.975079 27.5764 1.47278 27.5764H3.19271C3.09791 26.6493 2.96248 25.7804 2.83044 25.0859L5.23766 25.2399C5.37309 25.9925 5.46789 26.7657 5.54238 27.5764H6.32447C6.61226 27.1899 6.95421 26.687 7.35711 26.2833C7.96992 26.5912 8.69446 27.443 8.90437 28.158C7.69906 28.158 6.59194 28.158 5.59993 28.1375C5.6778 29.0064 5.71505 29.8959 5.71505 30.7648C6.17211 30.7272 6.61226 30.7067 7.07271 30.7272C10.2079 30.8812 11.5824 32.5027 11.5824 34.1243L11.5757 34.1209ZM3.52789 32.229C2.61037 32.8483 2.05511 33.813 2.07543 35.0856C2.07543 35.9169 2.4377 36.7653 3.31798 36.9193C3.52789 35.7014 3.58545 34.0046 3.52789 32.2256V32.229ZM10.6006 27.8433C12.0734 28.1922 13.4683 29.2322 13.8881 30.1217C13.5258 30.4706 12.7979 30.9701 12.2257 31.3772C12.0531 30.0841 11.3658 28.8662 10.4855 28.0178L10.6006 27.8433Z" fill="#EB5925"/>
<path d="M28.8591 26.2741V25.6378L31.2866 26.1578C31.2291 27.297 29.8139 28.9562 28.1515 29.6335L27.9416 29.3838C28.3986 28.6893 28.6864 27.7417 28.8015 26.8146H20.3373C19.8972 26.8146 19.4976 26.8522 19.1726 26.8933C19.2877 28.1283 19.0778 29.3462 18.5801 29.9825L16.3828 28.8433C17.2631 27.8957 18.2179 26.3733 18.5801 25.2888L18.8273 25.3846C18.9221 25.6549 19 25.9251 19.0575 26.2159C19.4604 26.2536 19.9378 26.2741 20.2797 26.2741H22.7073C22.7073 24.9809 22.687 24.0333 22.6497 23.3594L25.1924 23.6878C25.1924 24.0744 25.1924 25.0015 25.2127 26.2741H28.8625H28.8591ZM29.1435 31.9701C28.5137 32.8014 28.3038 33.5335 28.1684 34.269C27.2136 34.1732 25.6833 33.749 24.329 32.839C22.9544 33.6704 21.2345 34.1527 19.3216 34.3854L19.2268 34.1151C20.8689 33.4206 22.1114 32.7638 23.0865 31.758C22.7987 31.4501 22.5312 31.1217 22.3213 30.7351L22.5515 30.523C22.8969 30.7556 23.2592 30.9472 23.6417 31.1217C24.004 30.6393 24.329 30.0988 24.6168 29.4625H22.7818C21.827 30.6222 20.6996 31.1798 19.1896 31.6827L19.0744 31.4912C20.3542 30.1399 20.7741 29.3291 21.4613 27.167L23.6383 28.1899C23.486 28.4601 23.3336 28.6928 23.1813 28.9254H24.8437L25.1314 28.1351L27.5387 28.9459C27.1764 30.0646 26.5636 31.0122 25.7612 31.7648C26.9259 31.9975 28.1108 32.0556 29.1435 31.9769V31.9701ZM27.6165 34.7138C27.6369 36.0856 27.6741 36.3559 27.6944 38.8087L25.382 38.9251V38.193H22.8969C22.9172 38.3845 22.9172 38.6001 22.9341 38.8122L20.6048 39.0037C20.51 37.0743 20.4897 35.7982 20.51 34.4264L22.8596 34.7172C22.8596 34.8335 22.8596 34.9498 22.8393 35.0456H25.3414C25.321 34.8335 25.321 34.6385 25.3041 34.4264L27.6165 34.7172V34.7138ZM25.3786 37.649C25.3786 36.9135 25.3786 36.2395 25.3583 35.5827H22.8359C22.8156 36.2601 22.8359 36.8382 22.8732 37.649H25.3752H25.3786Z" fill="#EB5925"/>
<path d="M36.9093 33.6738C37.3867 35.0833 38.9746 37.6114 40.6166 37.6114L40.6369 37.803C40.2171 37.8817 39.7973 37.9193 39.3944 37.9193C37.5221 37.9193 35.8022 37.0709 34.6172 35.1961L36.9093 33.6704V33.6738ZM41.5545 28.6346C41.8998 30.1809 42.2418 31.782 42.4923 33.1914C40.7521 33.0956 40.5828 33.0546 39.2251 32.7672L39.2048 32.5756L40.102 32.4388C39.8718 31.4912 39.5298 30.1228 39.1642 28.7304L36.8517 28.8262C36.3744 28.8467 35.7616 29.0588 35.4941 29.117L35.5889 28.1899C35.836 28.248 36.3913 28.2857 36.8687 28.2686C37.3664 28.248 38.1485 28.2309 39.0084 28.1899C38.7613 27.2046 38.4938 26.2194 38.2805 25.3915L40.725 24.9844C40.9349 25.8909 41.182 26.972 41.4326 28.1112C41.6797 28.1112 41.91 28.1112 42.1199 28.0907C42.4246 27.6459 42.7124 27.2217 43.0577 26.777C43.4606 27.0678 44.2427 27.7041 44.5474 28.5525C44.07 28.5901 42.885 28.5901 42.3298 28.6107C42.0996 28.6107 41.8321 28.6312 41.5477 28.6312L41.5545 28.6346Z" fill="#EB5925"/>
<path d="M56.1849 34.1709C57.3124 34.4788 58.3247 35.0775 59.0898 35.7719L58.9578 35.9635C57.7153 35.6351 57.028 35.5017 55.9581 35.5393C55.5552 36.9488 54.3905 38.0093 52.4031 38.088H52.2135C50.3785 38.088 49.4609 37.1233 49.4609 36.1004V36.0422C49.4982 34.9817 50.4733 33.8972 52.4031 33.7638C52.7484 33.7433 53.3206 33.7638 53.8759 33.8014C53.8962 32.9701 53.9131 32.0054 53.8759 30.962C52.9008 30.9825 52.0036 30.9996 51.5262 31.0201C51.0285 31.0201 50.4191 31.2117 50.1516 31.2699L50.2667 30.3633C50.497 30.4215 51.0488 30.4796 51.5465 30.4796C52.0442 30.4796 52.9042 30.4591 53.8589 30.442C53.8386 29.5936 53.7811 28.7041 53.7066 27.777C52.7112 27.7975 51.814 27.8352 51.3163 27.8352C50.8186 27.8352 50.2261 28.0267 49.9586 28.1054L50.0737 27.1988C50.304 27.2365 50.8762 27.3152 51.3535 27.2946C51.8512 27.2946 52.7112 27.2741 53.666 27.257C53.5881 26.4839 53.4933 25.6936 53.3985 24.8828L56.0156 24.941C56.0935 25.7141 56.1511 26.4873 56.2052 27.2194C56.5099 27.2194 56.7977 27.1988 57.0652 27.1988C57.353 26.6002 57.5223 26.3299 57.8879 25.8852C58.2502 26.0973 59.0932 26.9286 59.3031 27.6812C58.7479 27.6812 57.9455 27.7017 57.3733 27.6812C57.0483 27.7017 56.6657 27.7017 56.2255 27.7188C56.2831 28.6665 56.3034 29.573 56.3203 30.4044C56.6081 30.3838 56.8756 30.3838 57.1228 30.3838C57.4105 29.7851 57.5798 29.4944 57.9252 29.053C58.3077 29.2652 59.1474 30.0965 59.3573 30.8491C59.0526 30.8696 58.4601 30.8696 57.9252 30.8696C57.5629 30.8696 56.9873 30.8901 56.3203 30.9072C56.3203 32.238 56.2628 33.3772 56.1849 34.1709ZM53.7777 35.3854C52.6706 35.2314 51.6955 35.5017 51.6955 36.1962C51.6955 36.7162 52.1153 36.8735 52.6909 36.8735C53.2665 36.8735 53.666 36.3912 53.7811 35.3854H53.7777Z" fill="#EB5925"/>
<path d="M73.8417 31.9845C73.8417 33.2195 73.4591 35.1524 72.9038 36.4832C72.5213 37.4102 72.159 38.0842 71.6444 38.0842C70.8419 38.0842 69.6942 37.0989 68.8342 36.1547L68.9121 36.0384C70.2698 36.3874 70.6693 36.3874 70.7641 36.1753C71.2787 34.9574 71.4141 32.8158 71.4514 31.7724C71.5089 30.4211 70.8216 29.7848 69.1762 29.7266C68.4889 32.7405 67.954 34.7863 67.1109 37.2563L64.9136 36.5242C65.6957 34.4784 66.2509 32.1795 66.7114 29.8635C65.909 29.9592 65.0863 30.1542 64.2839 30.4416L64.1484 29.7266C64.6258 29.7061 65.2759 29.5727 65.9462 29.4358C66.234 29.3777 66.5184 29.3195 66.8265 29.2819C67.0364 28.1427 67.2463 26.983 67.4393 25.8438L69.9244 26.3843C69.7145 27.3695 69.5215 28.259 69.3319 29.0869C69.7348 29.0664 70.1716 29.0664 70.649 29.0664C72.9986 29.0869 73.8417 30.2261 73.8417 31.9811V31.9845ZM73.4218 26.8701C75.6395 27.1608 77.549 28.7448 78.2194 30.0756L76.1169 31.485C75.6767 29.9798 74.9691 28.3172 73.3474 27.1027L73.4252 26.8701H73.4218Z" fill="#EB5925"/>
<path d="M85.2778 28.0591C85.0679 30.317 84.99 32.0172 84.9731 32.8656C86.4053 32.2669 86.8251 32.1883 88.22 32.2293C90.397 32.2875 91.4127 33.4643 91.4127 34.7985C91.4127 36.4782 89.8079 38.3701 86.8657 38.5445L86.8082 38.3701C88.2403 37.8295 88.9852 36.5159 88.9852 35.3561C88.9852 34.2956 88.3351 33.348 86.9978 33.3104C85.7383 33.2727 84.6481 33.4267 82.7352 34.1793L82.5625 34.0425C82.5997 31.8598 82.6201 30.2588 82.6776 27.8641L85.2778 28.0557V28.0591ZM84.9156 25.3565C85.0679 25.3359 85.2203 25.3359 85.3929 25.3359C86.9978 25.3359 88.5857 26.1262 89.4253 27.0157L87.9153 28.5209C87.0181 27.2278 86.5001 26.3588 84.8783 25.548L84.9156 25.3565Z" fill="#EB5925"/>
<path d="M101.945 28.3387C101.698 30.4837 101.105 32.7039 100.167 34.5957C100.99 35.0028 101.698 35.4647 102.192 35.947C101.579 36.2755 100.797 36.9528 100.242 37.5891C100.012 37.0486 99.7069 36.5286 99.3446 36.0634C98.5998 37.2026 97.7026 38.1297 96.6699 38.7283L96.4397 38.4375C97.2421 37.4728 97.8549 36.3131 98.3323 34.8831C98.0851 34.6334 97.8177 34.3802 97.5299 34.1305L97.4148 35.1157L95.5797 34.8455C95.81 32.9913 96.0571 31.12 96.3043 29.2281C95.7896 29.2658 95.3292 29.4026 95.082 29.4608L95.2141 28.496C95.5391 28.5747 95.9589 28.6329 96.3788 28.65C96.5142 27.5313 96.6665 26.4092 96.8189 25.2529L98.8063 25.6395C98.6336 26.6042 98.4813 27.61 98.3086 28.65H99.5308C99.5511 28.301 99.5884 27.9555 99.6256 27.5895L101.938 28.3421L101.945 28.3387ZM98.6201 33.9594C98.9824 32.6286 99.2498 31.0618 99.4597 29.211H98.2375C98.0073 30.6581 97.7974 32.1463 97.6078 33.6515C97.9328 33.7473 98.2747 33.8431 98.6201 33.9594ZM111.672 34.4418C111.289 34.4623 110.125 34.4418 109.685 34.4418H103.418C102.615 34.4418 101.965 34.5957 101.62 34.6744L101.755 33.7678C102.233 33.8465 102.845 33.9047 103.36 33.9047H104.372C104.315 33.2684 104.105 32.6286 103.875 32.1086L103.035 32.1873C102.998 30.2168 102.977 30.0423 102.94 28.4995L105.1 28.7492V29.1358H107.795C107.775 28.9613 107.775 28.7697 107.758 28.5576L109.935 28.7321C109.935 29.6387 109.955 30.2784 110.013 31.9171L108.083 32.071L109.363 32.5534C109.116 33.0357 108.655 33.5592 107.968 33.9047H109.383C109.688 33.4018 110.054 32.8989 110.223 32.6492C110.853 33.1315 111.503 33.8089 111.675 34.4452L111.672 34.4418ZM105.405 27.3739L105.347 25.79H103.932C103.13 25.79 102.459 25.9439 102.134 26.0226L102.27 25.1161C102.71 25.1947 103.36 25.2529 103.875 25.2529H105.327C105.327 24.7911 105.307 24.2676 105.307 23.6484L107.504 23.8605C107.504 24.189 107.504 24.6132 107.524 25.2495H108.652C108.957 24.8047 109.322 24.2266 109.492 24.0145C110.162 24.4592 110.829 25.2118 110.964 25.79C110.582 25.8105 109.417 25.79 108.977 25.79H107.545C107.565 26.2347 107.565 26.7547 107.602 27.3739H107.775C108.063 26.9292 108.367 26.4674 108.54 26.2553C109.227 26.7171 109.803 27.3363 109.935 27.9145C109.552 27.935 108.462 27.9145 108.026 27.9145H105.104C104.281 27.9145 103.614 28.0684 103.306 28.1471L103.441 27.2405C103.841 27.3192 104.532 27.3774 105.046 27.3774H105.408L105.405 27.3739ZM110.047 35.2526C110.104 36.1591 110.125 37.2812 110.125 38.7078L108.042 38.8241V38.417H105.425C105.446 38.5539 105.446 38.6668 105.446 38.8036L103.438 38.9199C103.418 37.7602 103.36 36.5628 103.36 35.0781L105.425 35.2526C105.425 35.3689 105.405 35.4647 105.405 35.581H108.005C108.005 35.427 107.985 35.2731 107.985 35.0986L110.05 35.2526H110.047ZM104.467 32.0471C105.097 32.355 105.595 32.7621 106.014 33.3402L104.965 33.9013H106.973C107.24 33.3813 107.392 32.6252 107.528 31.8555L107.833 31.9718V31.5852H105.158C105.178 31.7015 105.178 31.835 105.195 31.9923L104.471 32.0505L104.467 32.0471ZM105.097 29.6729C105.097 30.251 105.097 30.6205 105.117 31.0447H107.849C107.849 30.5829 107.829 30.1552 107.812 29.6729H105.1H105.097ZM108.039 37.8765C108.059 37.1991 108.039 36.7578 108.019 36.1181H105.402C105.381 36.6791 105.402 37.2778 105.422 37.8765H108.039Z" fill="#EB5925"/>
<path d="M119.068 25.1907C118.455 33.3772 119.22 36.9693 121.895 37.7424V37.934C121.532 37.9921 121.187 38.0298 120.862 38.0298C117.134 38.0298 116.332 33.7638 116.332 29.4943V29.1864C116.352 27.6983 116.447 26.2306 116.542 24.9375L119.064 25.1872L119.068 25.1907Z" fill="#EB5925"/>
<path d="M130.781 33.6784L130.916 33.8699C130.286 34.9886 129.579 35.8404 128.241 37.1918C127.266 35.7823 126.711 33.2713 126.711 30.0658C126.711 29.101 126.768 28.0576 126.863 26.9766L129.69 27.7292C129.176 29.5834 128.888 32.1902 128.851 34.4857C129.653 34.2531 130.246 33.9247 130.781 33.6749V33.6784ZM136.898 34.1607C137.031 32.1526 136.861 30.3942 136.384 28.7931L136.557 28.6973C138.124 29.7031 139.252 31.9815 139.404 33.6202L136.902 34.1607H136.898Z" fill="#EB5925"/>
<path d="M154.907 34.1209C154.907 35.9751 153.092 37.8293 149.957 37.4803V37.2887C153.34 36.3035 153.187 31.5722 150.245 31.4388C149.825 31.4183 149.422 31.4388 149.06 31.4764C149.06 33.293 148.965 35.0103 148.813 36.3822C148.698 37.4256 147.933 37.8498 147.015 37.8498C145.238 37.8498 143.328 36.478 143.328 35.089C143.328 33.5051 144.76 32.0751 146.826 31.2848C146.788 30.2243 146.694 29.1399 146.595 28.117H144.743C144.246 28.0964 143.826 28.2333 143.369 28.3291L143.521 27.4225C143.751 27.4807 144.303 27.5764 144.801 27.5764H146.521C146.426 26.6493 146.291 25.7804 146.159 25.0859L148.566 25.2399C148.698 25.9925 148.796 26.7657 148.871 27.5764H149.653C149.94 27.1899 150.282 26.687 150.685 26.2833C151.298 26.5912 152.023 27.443 152.232 28.158C151.031 28.158 149.92 28.158 148.928 28.1375C149.006 29.0064 149.043 29.8959 149.043 30.7648C149.504 30.7272 149.94 30.7067 150.401 30.7272C153.536 30.8812 154.911 32.5027 154.911 34.1243L154.907 34.1209ZM146.863 32.229C145.945 32.8483 145.39 33.813 145.41 35.0856C145.41 35.9169 145.773 36.7653 146.653 36.9193C146.863 35.7014 146.92 34.0046 146.863 32.2256V32.229ZM153.932 27.8433C155.405 28.1922 156.8 29.2322 157.22 30.1217C156.857 30.4706 156.129 30.9701 155.557 31.3772C155.385 30.0841 154.697 28.8662 153.817 28.0178L153.932 27.8433Z" fill="#EB5925"/>
<path d="M171.494 30.2192C171.551 31.7074 171.551 33.5205 171.572 35.0668L169.222 35.2037C169.222 34.971 169.222 34.7213 169.242 34.4887H163.395C162.782 36.5755 161.218 37.9644 159.075 38.8539L158.902 38.6213C160.927 36.3052 161.482 33.5821 161.137 29.6411L163.774 29.9113V30.6058H169.181C169.161 30.3732 169.161 30.144 169.144 29.9113L171.494 30.2192ZM162.511 26.2987C161.709 26.2987 161.039 26.4527 160.714 26.5313L160.849 25.6248C161.289 25.7035 161.939 25.7616 162.454 25.7616H165.034C165.014 25.0671 164.997 24.3727 164.997 23.6953L167.576 23.9656C167.576 24.2564 167.576 24.9303 167.597 25.7616H169.716C170.021 25.3169 170.387 24.7387 170.556 24.5266C171.226 24.9714 171.893 25.724 172.029 26.3021C171.646 26.3227 170.481 26.3021 170.041 26.3021H167.597C167.597 26.9795 167.617 27.6911 167.634 28.3479H168.799C169.086 27.9032 169.469 27.325 169.638 27.1129C170.268 27.5953 170.918 28.3308 171.111 28.8884C170.729 28.909 169.564 28.8884 169.124 28.8884H163.734C162.911 28.8884 162.244 29.0424 161.939 29.1211L162.071 28.2145C162.474 28.2932 163.162 28.3513 163.676 28.3513H165.071C165.071 27.7321 165.051 27.0377 165.034 26.3056H162.511V26.2987ZM165.339 33.9447C165.301 32.785 165.318 32.0905 165.261 31.1463H163.751C163.713 31.9571 163.656 32.826 163.598 33.4042C163.578 33.5958 163.541 33.7702 163.52 33.9447H165.335H165.339ZM169.239 33.9447C169.239 32.9595 169.239 32.0153 169.202 31.1463H167.444C167.444 31.8613 167.482 32.9047 167.482 33.9447H169.239Z" fill="#EB5925"/>
<path d="M184.906 37.3787L184.944 37.649C184.273 37.8987 183.244 38.1108 182.516 38.1108C179.899 38.1108 178.521 36.8553 178.447 35.3877C178.369 33.8619 179.689 32.124 182.384 31.3714C181.676 30.4819 180.282 30.7522 178.389 31.1011C178.426 30.0782 178.541 28.8809 178.677 27.7998C178.314 27.8204 178.006 27.8375 177.78 27.8375C177.302 27.858 176.689 28.0701 176.422 28.1283L176.517 27.1806C176.764 27.2388 177.319 27.2969 177.796 27.2764C178.044 27.2559 178.369 27.2559 178.751 27.2388C178.866 26.3117 178.998 25.5009 179.076 25.0391L181.294 25.388L180.989 27.1635L183.054 27.1054C183.359 26.5854 183.569 26.2741 183.972 25.7164C184.392 25.9491 185.33 26.8351 185.519 27.5912C185.157 27.6117 184.371 27.6288 183.762 27.6288L180.894 27.7246C180.779 28.4396 180.684 29.1546 180.59 30.0406C182.12 29.7327 183.342 30.0782 184.03 31.0635C184.622 30.9848 185.252 30.9677 185.939 30.9848L186.017 31.2756C185.424 31.4501 184.89 31.6245 184.412 31.7956C184.642 32.3737 184.717 33.1093 184.659 33.9577L182.939 33.9782C182.96 33.4001 182.919 32.9348 182.861 32.5311C181.467 33.3624 180.952 34.269 180.911 35.1379C180.891 36.1437 181.599 37.5121 183.302 37.5121C183.606 37.5121 184.104 37.4745 184.906 37.3753V37.3787Z" fill="#EB5925"/>
<path d="M195.272 33.6784L195.404 33.8699C194.775 34.9886 194.067 35.8404 192.73 37.1918C191.754 35.7823 191.199 33.2713 191.199 30.0658C191.199 29.101 191.257 28.0576 191.352 26.9766L194.179 27.7292C193.664 29.5834 193.376 32.1902 193.339 34.4857C194.141 34.2531 194.734 33.9247 195.269 33.6749L195.272 33.6784ZM201.387 34.1607C201.519 32.1526 201.35 30.3942 200.872 28.7931L201.045 28.6973C202.612 29.7031 203.74 31.9815 203.892 33.6202L201.39 34.1607H201.387Z" fill="#EB5925"/>
<path d="M211.806 28.5675C211.176 31.253 210.411 34.7459 210.164 36.0219L207.773 35.6935L209.283 28.6086C208.88 28.6086 208.538 28.6291 208.291 28.6291C207.814 28.6291 207.221 28.8412 206.934 28.8994L207.049 27.9723C207.279 28.0304 207.851 28.0886 208.329 28.0886C208.616 28.0886 208.979 28.0681 209.419 28.0681C209.723 26.621 209.974 25.4612 210.032 25.1328L212.591 25.2115C212.496 25.5399 212.246 26.6415 211.921 28.0304C212.398 28.0099 212.859 28.0099 213.278 28.0099C213.624 27.5652 214.003 27.0623 214.386 26.6381C214.768 26.7167 215.933 27.8731 215.97 28.5299C215.53 28.5299 214.44 28.5504 213.847 28.5299C213.292 28.5299 212.567 28.5504 211.802 28.5675H211.806ZM213.735 34.8041C215.361 36.1177 216.83 36.0972 218.932 35.2488L219.068 37.7188H218.648C216.603 37.7188 214.328 37.1783 213.566 34.9785L213.739 34.8041H213.735ZM217.69 30.2849C217.747 30.0146 217.785 29.7238 217.842 29.4159L219.735 30.2473C219.562 31.2325 218.262 32.5462 216.83 33.1825L216.715 33.0457C217.077 32.3888 217.345 31.7149 217.555 30.8459L214.995 30.9041C214.518 30.9041 213.925 31.0957 213.658 31.1367L213.752 30.2678C214 30.3259 214.555 30.3636 215.032 30.3636C216.007 30.343 216.715 30.3259 217.69 30.2849Z" fill="#EB5925"/>
<path d="M228.067 28.575C227.438 31.2605 226.672 34.7534 226.425 36.0294L224.035 35.701L225.545 28.6161C225.142 28.6161 224.8 28.6366 224.553 28.6366C224.076 28.6366 223.483 28.8487 223.195 28.9068L223.31 27.9797C223.541 28.0379 224.113 28.0961 224.59 28.0961C224.878 28.0961 225.24 28.0755 225.68 28.0755C225.985 26.6284 226.236 25.4687 226.293 25.1403L228.853 25.219C228.758 25.5474 228.507 26.649 228.182 28.0379C228.66 28.0174 229.12 28.0174 229.54 28.0174C229.885 27.5726 230.265 27.0698 230.647 26.6455C231.03 26.7242 232.194 27.8805 232.232 28.5374C231.792 28.5374 230.701 28.5579 230.109 28.5374C229.554 28.5374 228.829 28.5579 228.064 28.575H228.067ZM229.997 34.8115C231.622 36.1252 233.092 36.1047 235.194 35.2563L235.33 37.7263H234.91C232.865 37.7263 230.59 37.1857 229.828 34.986L230.001 34.8115H229.997ZM234.104 29.4234L235.997 30.2547C235.824 31.24 234.524 32.5537 233.092 33.19L232.977 33.0531C233.339 32.3963 233.606 31.7223 233.816 30.8534L231.257 30.9116C230.779 30.9116 230.187 31.1031 229.919 31.1442L230.014 30.2753C230.261 30.3334 230.816 30.371 231.294 30.371C232.269 30.3505 232.977 30.3334 233.952 30.2924C234.009 30.0221 234.046 29.7313 234.104 29.4234ZM234.219 27.7061C234.067 26.8953 233.627 25.9305 233.186 25.3113L233.319 25.1369C234.314 25.5987 235.076 26.2761 235.401 26.8953L234.216 27.7061H234.219ZM234.832 24.4219C235.655 24.5963 236.494 25.0787 237.124 25.7527L236.074 26.7174C235.827 25.9066 235.309 25.1334 234.717 24.6135L234.832 24.4219Z" fill="#EB5925"/>
<path d="M244.471 33.6784L244.603 33.8699C243.974 34.9886 243.266 35.8404 241.929 37.1918C240.954 35.7823 240.398 33.2713 240.398 30.0658C240.398 29.101 240.456 28.0576 240.551 26.9766L243.378 27.7292C242.863 29.5834 242.575 32.1902 242.538 34.4857C243.341 34.2531 243.933 33.9247 244.468 33.6749L244.471 33.6784ZM250.586 34.1607C250.718 32.1526 250.549 30.3942 250.071 28.7931L250.244 28.6973C251.812 29.7031 252.939 31.9815 253.091 33.6202L250.589 34.1607H250.586Z" fill="#EB5925"/>
<path d="M263.824 38.0494L263.709 38.2238C259.619 37.1223 257.784 31.717 261.952 27.6221C260.08 27.6426 257.805 27.6597 257.002 27.6597C256.525 27.6597 255.912 27.8513 255.645 27.9094L255.739 27.0405C255.986 27.0986 256.542 27.1363 257.019 27.1363C258.109 27.1157 261.529 27.0781 263.479 27.0576C263.882 26.4589 264.359 25.7644 264.664 25.4531C265.351 25.7815 266.384 26.671 266.651 27.4989C266.232 27.5365 265.392 27.5571 264.759 27.5571C260.689 31.1491 261.911 35.6854 263.821 38.0425L263.824 38.0494Z" fill="#EB5925"/>
<path d="M282.876 34.1209C282.876 35.9751 281.061 37.8293 277.926 37.4803V37.2887C281.308 36.3035 281.156 31.5722 278.214 31.4388C277.794 31.4183 277.391 31.4388 277.029 31.4764C277.029 33.293 276.934 35.0103 276.782 36.3822C276.667 37.4256 275.901 37.8498 274.984 37.8498C273.206 37.8498 271.297 36.478 271.297 35.089C271.297 33.5051 272.729 32.0751 274.794 31.2848C274.757 30.2243 274.662 29.1399 274.564 28.117H272.712C272.214 28.0964 271.795 28.2333 271.338 28.3291L271.49 27.4225C271.72 27.4807 272.272 27.5764 272.77 27.5764H274.49C274.395 26.6493 274.259 25.7804 274.127 25.0859L276.535 25.2399C276.67 25.9925 276.765 26.7657 276.839 27.5764H277.621C277.909 27.1899 278.251 26.687 278.654 26.2833C279.267 26.5912 279.991 27.443 280.201 28.158C278.996 28.158 277.889 28.158 276.897 28.1375C276.975 29.0064 277.012 29.8959 277.012 30.7648C277.469 30.7272 277.909 30.7067 278.37 30.7272C281.505 30.8812 282.879 32.5027 282.879 34.1243L282.876 34.1209ZM274.832 32.229C273.914 32.8483 273.359 33.813 273.379 35.0856C273.379 35.9169 273.741 36.7653 274.622 36.9193C274.832 35.7014 274.889 34.0046 274.832 32.2256V32.229ZM281.901 27.8433C283.374 28.1922 284.769 29.2322 285.188 30.1217C284.826 30.4706 284.098 30.9701 283.526 31.3772C283.353 30.0841 282.666 28.8662 281.786 28.0178L281.901 27.8433Z" fill="#EB5925"/>
<path d="M292.697 30.7119L292.829 30.8863C292.372 31.9092 291.816 32.6824 290.709 33.9174C289.87 32.4292 289.236 30.0174 289.199 25.9635L291.532 26.1003C291.342 27.5098 291.264 29.6719 291.322 31.3927C291.952 31.1806 292.26 30.9856 292.697 30.7153V30.7119ZM298.029 26.2509C298.029 34.8616 296.231 36.1753 293.347 38.6281L293.157 38.5118C294.63 35.751 295.642 33.8969 295.449 25.8438L298.029 26.2509Z" fill="#EB5925"/>
<path d="M310.13 34.1709C311.258 34.4788 312.27 35.0775 313.035 35.7719L312.903 35.9635C311.661 35.6351 310.973 35.5017 309.903 35.5393C309.504 36.9488 308.336 38.0093 306.348 38.088H306.159C304.324 38.088 303.406 37.1233 303.406 36.1004V36.0422C303.443 34.9817 304.419 33.8972 306.348 33.7638C306.694 33.7433 307.266 33.7638 307.821 33.8014C307.842 32.9701 307.858 32.0054 307.821 30.962C306.846 30.9825 305.949 30.9996 305.472 31.0201C304.974 31.0201 304.364 31.2117 304.097 31.2699L304.212 30.3633C304.442 30.4215 304.994 30.4796 305.492 30.4796C305.99 30.4796 306.85 30.4591 307.804 30.442C307.784 29.5936 307.726 28.7041 307.652 27.777C306.66 27.7975 305.759 27.8352 305.265 27.8352C304.771 27.8352 304.175 28.0267 303.907 28.1054L304.022 27.1988C304.253 27.2365 304.825 27.3152 305.302 27.2946C305.8 27.2946 306.66 27.2741 307.615 27.257C307.537 26.4839 307.442 25.6936 307.347 24.8828L309.964 24.941C310.042 25.7141 310.096 26.4873 310.154 27.2194C310.459 27.2194 310.746 27.1988 311.014 27.1988C311.302 26.6002 311.471 26.3299 311.837 25.8852C312.199 26.0973 313.042 26.9286 313.252 27.6812C312.697 27.6812 311.894 27.7017 311.322 27.6812C310.997 27.7017 310.614 27.7017 310.174 27.7188C310.232 28.6665 310.252 29.573 310.269 30.4044C310.557 30.3838 310.824 30.3838 311.071 30.3838C311.359 29.7851 311.529 29.4944 311.874 29.053C312.256 29.2652 313.096 30.0965 313.306 30.8491C313.001 30.8696 312.409 30.8696 311.874 30.8696C311.512 30.8696 310.936 30.8901 310.269 30.9072C310.269 32.238 310.212 33.3772 310.134 34.1709H310.13ZM307.723 35.3854C306.616 35.2314 305.641 35.5017 305.641 36.1962C305.641 36.7162 306.061 36.8735 306.633 36.8735C307.205 36.8735 307.608 36.3912 307.723 35.3854Z" fill="#EB5925"/>
<path d="M327.759 27.8233H326.002C326.134 29.852 326.134 31.9559 325.697 33.5569C326.1 33.923 326.269 34.2719 326.29 34.7543C326.347 36.5127 324.187 37.7477 322.352 38.0556L322.295 37.9017C323.249 37.4398 324.015 36.3759 324.052 35.3154C323.669 35.5275 323.192 35.6438 322.62 35.7019C321.13 35.7977 320.385 35.1032 320.385 34.313C320.385 33.3654 321.435 32.3048 323.5 32.2843C323.673 31.087 323.652 29.4859 323.578 27.8233H319.488C319.01 27.8233 318.398 27.9978 318.113 28.0559L318.249 27.1665C318.496 27.2246 319.051 27.2828 319.529 27.2828H323.561C323.503 26.3352 323.425 25.3704 323.351 24.4844L325.738 24.8915C325.816 25.6441 325.911 26.4549 325.968 27.2862H327.326C327.651 26.862 328.033 26.3967 328.416 25.993C328.836 26.0717 330 27.2109 330 27.8849C329.503 27.8849 328.318 27.8472 327.766 27.8267L327.759 27.8233ZM323.419 33.3072C323.266 33.0951 323.056 32.9412 322.904 32.9412C322.274 32.9412 322.044 33.2491 322.044 33.5775C322.044 33.9059 322.291 34.2343 322.637 34.2343C323.077 34.2343 323.344 33.9846 323.419 33.3072Z" fill="#EB5925"/>
</svg>
