<svg width="260" height="73" viewBox="0 0 260 73" fill="none" xmlns="http://www.w3.org/2000/svg">
<path d="M0 72.6513C1.63666 70.3163 2.24282 69.1937 3.0039 65.9633L6.38499 67.5199C5.20633 69.8549 3.07798 71.9487 0.303072 73.0025L0 72.6513ZM1.63665 64.5238C1.33357 58.6142 1.25949 51.1479 1.17866 45.2038L5.7384 45.5551C5.7384 45.9064 5.7384 46.2163 5.69799 46.5676H9.38215C9.38215 46.1406 9.34174 45.7135 9.34174 45.2865L13.7533 45.6378C13.8274 51.1961 13.8678 57.8083 13.8274 64.1794L9.53033 64.4894V62.7812H5.95393C5.99434 63.2496 5.99433 63.6766 6.02801 64.145L1.61645 64.5307L1.63665 64.5238ZM5.70473 47.649C5.70473 48.8956 5.66432 50.2181 5.66432 51.5336H9.50338C9.46297 50.1699 9.46298 48.8888 9.4293 47.649H5.70473ZM9.58422 56.8647C9.54381 55.4665 9.5438 54.027 9.51012 52.6288H5.67104C5.71145 54.027 5.71146 55.4252 5.74514 56.8647H9.58422ZM9.58422 57.9529H5.78555L5.90006 61.6861H9.59094V57.9529H9.58422ZM8.66822 66.5832C11.0996 66.8932 13.0394 67.4029 15.1677 69.4209C14.1035 70.0822 12.999 71.0947 12.0897 72.1829C11.369 70.3921 10.15 68.4911 8.55371 66.9758L8.66822 66.5901V66.5832ZM21.8962 46.8707C21.6672 57.2504 19.6938 63.5457 14.2921 67.5888L13.9486 67.2376C17.2152 61.3279 17.2152 54.9155 16.8785 43.9503L21.9366 44.6115V45.7755H28.2879C28.8604 44.9214 29.5407 43.7505 29.8842 43.2891C31.1773 44.2189 32.2819 45.7411 32.4705 46.8638C31.7094 46.9051 29.7697 46.8638 28.9345 46.8638H21.9029L21.8962 46.8707ZM33.7973 67.6715C32.6927 69.111 31.7835 70.3921 31.2851 72.1003C29.2308 71.3633 27.3719 70.0753 25.7757 68.3671C23.91 70.1166 21.748 71.4804 19.2358 72.2173L18.7778 71.7145C20.7175 70.1579 22.3879 68.0985 23.7551 65.7291C23.0344 64.5238 22.462 63.2427 22.0444 61.8445L22.536 61.569C23.2971 62.306 24.0582 62.9672 24.8529 63.594C25.9171 61.3761 26.7186 59.0068 27.2844 56.5547H24.3209C23.2567 56.5547 22.2666 56.8303 21.6201 57.0231L21.8895 55.1979C22.6101 55.3563 23.4116 55.4734 24.2064 55.4734H27.5134C27.6279 54.9706 27.7019 54.4609 27.776 53.9581L32.7197 55.4389C31.9586 59.0137 30.4364 62.671 28.1936 65.7016C29.9448 66.597 31.77 67.2169 33.7839 67.6852L33.7973 67.6715Z" fill="#EB5925"/>
<path d="M42.1212 63.3958L37.75 61.1022C39.5012 59.1943 41.4005 56.1293 42.1212 53.9459L42.6128 54.1388C42.8014 54.6829 42.9563 55.227 43.0708 55.8125C43.8723 55.8883 44.822 55.9296 45.5022 55.9296H61.8082V54.6485L66.6374 55.6954C66.2939 57.9477 63.5189 61.2951 60.4005 62.6933L59.983 62.1905C60.8922 60.7923 61.4647 58.8844 61.6937 57.0178H45.61C44.7344 57.0178 43.9397 57.0936 43.2931 57.1762C43.5221 59.6627 43.1045 62.1147 42.1144 63.3958H42.1212ZM40.6394 71.8332C43.9868 68.6442 45.1655 66.1165 46.0343 60.7923L50.978 61.9563C49.5703 67.2805 46.3374 70.8208 40.9021 72.336L40.6327 71.8332H40.6394ZM45.5831 47.1065C43.9868 47.1065 42.6532 47.4164 42.0067 47.5748L42.2693 45.7496C43.1449 45.908 44.4381 46.0251 45.4618 46.0251H49.4154C49.4154 44.6269 49.375 43.1874 49.375 41.9062L54.7362 42.3333C54.7362 42.9532 54.7362 44.3169 54.7766 46.0251H58.6157C59.2219 45.1297 59.9493 43.9657 60.2861 43.5386C61.6196 44.434 62.9464 45.9493 63.2159 47.1133C62.4548 47.1547 60.1379 47.1133 59.2623 47.1133H54.7766C54.817 48.5529 54.8507 50.1439 54.9315 51.7419H56.7568C57.3293 50.8465 58.0904 49.6824 58.4271 49.2554C59.7944 50.1852 61.0875 51.6661 61.357 52.8301C60.5959 52.8714 58.279 52.8301 57.4034 52.8301H47.7855C46.1488 52.8301 44.822 53.1401 44.2091 53.2985L44.4785 51.4732C45.2733 51.6317 46.6472 51.7488 47.671 51.7488H49.5366C49.5366 50.385 49.4962 48.7939 49.4626 47.1202H45.5831V47.1065ZM62.6501 64.2155C63.9029 66.0063 64.967 67.7902 65.4654 70.8276C62.4211 72.1088 57.2889 72.1088 53.2275 71.723C52.9985 67.7557 52.9245 64.0639 52.9581 60.7578L57.6728 61.2606C57.7132 64.1397 57.6728 66.0063 57.7873 67.8728C58.5484 68.0312 60.4881 67.8728 61.3974 67.7557C62.0035 67.7144 62.347 67.4802 62.347 66.1991C62.347 65.5379 62.347 65.0351 62.2325 64.3326L62.6501 64.2155Z" fill="#EB5925"/>
<path d="M83.7667 60.3206C81.2949 63.8195 76.8496 65.6448 72.7412 66.9672L71.5625 61.8772C72.8153 61.8014 74.1084 61.643 75.442 61.4915C75.4016 59.5078 75.3679 56.6701 75.3679 53.9908H75.1389C73.5022 54.0321 72.135 54.3007 71.5625 54.4592L71.8252 52.6339C72.5862 52.7923 73.9939 52.9094 75.0177 52.9094H75.3612L75.2871 45.9115L79.8872 46.2628V52.9094H80.4193C80.8369 52.2895 81.5239 51.2013 81.8674 50.9258C82.588 51.0842 84.1506 52.7923 84.4133 53.9977C83.6522 54.039 81.9415 53.9977 81.0659 53.9977H79.8872V60.6856C81.2949 60.3757 82.5072 60.0657 83.4973 59.6731L83.7667 60.3344V60.3206ZM102.807 59.6594C103.413 64.1295 102.349 70.9345 99.9582 72.9182C97.9848 72.374 96.0046 71.4373 94.5633 70.3904L94.7182 69.9633C96.961 70.1562 97.419 70.1975 97.7221 68.5996C98.0656 66.7743 98.2542 64.0124 98.2138 61.5259H89.1279C87.3768 63.6267 85.0195 65.3762 82.7026 66.2302L82.3254 65.6861C84.5682 62.9655 86.2049 60.2035 86.811 57.5999C85.2552 57.6757 83.962 57.9099 83.43 58.0683L83.6994 56.2431C84.4604 56.4015 85.8681 56.5186 86.8919 56.5186H99.7763C100.194 55.816 100.881 54.8449 101.218 54.5349C102.019 54.7691 103.575 56.4015 103.838 57.6068C103.077 57.6482 101.292 57.6068 100.416 57.6068H91.4045C91.061 58.578 90.5693 59.5147 89.9564 60.4446H98.1329C98.1329 60.0175 98.0925 59.6249 98.0589 59.2392L102.814 59.6663L102.807 59.6594ZM91.7075 64.1295C89.8823 67.4356 88.2456 68.6754 85.2081 69.6534L84.8646 69.1093C86.5753 67.4011 87.5654 65.8858 88.6632 62.8139L91.7075 64.1364V64.1295ZM85.8546 54.1423C85.6997 50.5676 85.592 46.6761 85.5515 42.8672L90.1921 43.37C90.1921 43.4871 90.1921 43.6042 90.1517 43.9141H95.9305C95.9305 43.6042 95.8901 43.2942 95.8901 42.9843L100.335 43.4871C100.295 46.6348 100.409 49.0868 100.409 53.5156L96.2269 53.8255V52.7372H90.1854C90.1854 53.0885 90.1854 53.3985 90.2258 53.7084L85.8546 54.1354V54.1423ZM96.9947 64.2466C95.587 67.4769 92.967 70.1562 89.9227 71.3615L89.4647 70.7417C91.6671 67.9797 92.4686 66.4644 93.5732 63.0068L96.9947 64.2535V64.2466ZM96.0787 47.8057L95.9642 45.0093H90.1113C90.1113 45.9391 90.0709 46.8758 90.0709 47.8057H96.0787ZM96.1932 51.6559C96.1932 50.6847 96.1528 49.748 96.1191 48.8939H90.0776C90.0776 49.8238 90.118 50.7605 90.118 51.6559H96.1999H96.1932Z" fill="#EB5925"/>
<path d="M118.958 61.5249V60.3609H114.701C114.055 65.1823 112.229 68.0958 108.66 71.5947L108.168 71.1263C110.566 65.9193 110.68 59.617 110.599 50.6355L115.045 51.2554V52.4607H118.924C118.924 51.9166 118.884 51.4138 118.884 50.9454L123.14 51.2554C123.181 53.5903 123.214 58.0604 123.181 61.2494L118.958 61.5249ZM113.859 47.3018C112.223 47.3018 110.896 47.6118 110.283 47.7702L110.545 45.945C111.347 46.1034 112.714 46.2205 113.738 46.2205H119.328C119.901 45.3251 120.662 44.1611 120.999 43.734C122.366 44.6639 123.659 46.1447 123.928 47.3087C123.167 47.35 120.85 47.3087 119.975 47.3087H113.852L113.859 47.3018ZM118.958 59.2726C118.998 57.3647 118.998 55.3467 118.958 53.5559H115.004C115.004 55.2296 114.964 56.979 114.89 58.3359C114.849 58.6459 114.849 58.9558 114.816 59.2657H118.958V59.2726ZM141.002 57.289C140.241 57.3303 138.072 57.289 137.203 57.289H136.213C136.139 60.905 136.099 65.7608 136.058 72.3317L131.876 72.5245C131.802 66.0708 131.802 61.6007 131.876 57.2821H129.216C128.643 62.6476 126.932 66.6149 123.208 69.9554L122.831 69.7213C124.696 64.5899 125.302 61.9864 125.376 55.4155C125.417 52.8464 125.376 50.2842 125.302 46.2825L129.599 47.1365C132.677 46.2411 134.617 44.8843 136.483 42.7422L139.716 45.9312C137.096 47.9562 134.011 48.5761 129.721 48.459C129.68 50.5597 129.532 52.812 129.377 55.5739C129.377 55.7668 129.337 56.001 129.337 56.1938H136.483C137.055 55.1813 137.85 53.7418 138.194 53.239C139.487 54.2102 140.854 56.001 141.009 57.2821L141.002 57.289Z" fill="#EB5925"/>
<path d="M152.439 47.8855C150.957 56.2816 150.351 62.5839 151.564 67.908L151.186 68.1422C148.142 65.2287 146.93 60.9859 146.93 55.2347C146.93 52.7482 147.159 49.9449 147.576 46.873L152.439 47.8855ZM172.625 68.2593L172.396 68.4935C171.594 67.6739 169.964 66.6683 168.139 65.8899C167.304 68.769 165.175 70.243 161.828 70.243C158.481 70.243 156.736 68.3764 156.736 66.4341C156.736 64.2576 158.824 61.9226 162.973 61.9226C163.202 61.9226 163.465 61.9226 163.734 61.964C163.849 59.3604 163.774 55.9372 163.545 52.4383C161.909 52.4796 160.427 52.5141 159.437 52.5141C158.447 52.5141 157.268 52.9411 156.702 53.0582L156.931 51.1916C157.423 51.3087 158.528 51.4258 159.518 51.4258C160.508 51.4258 161.916 51.3845 163.471 51.35C163.283 49.2149 163.013 47.0728 162.71 45.0547L167.539 45.5231C167.883 47.3138 168.112 49.2975 168.301 51.2743H169.095C169.782 50.0689 170.119 49.449 170.88 48.595C171.682 49.0633 173.386 50.7301 173.729 52.2523C172.928 52.2936 171.527 52.2936 170.234 52.2936C169.742 52.2936 169.095 52.335 168.368 52.335C168.671 56.6536 168.671 60.9239 168.482 63.493C170.308 64.5055 171.904 66.0621 172.625 68.2731V68.2593ZM163.572 64.5675C161.976 64.4504 160.838 64.9188 160.838 66.3927C160.838 67.1711 161.256 67.5223 161.754 67.5223C162.326 67.5223 163.007 67.054 163.276 66.1999C163.391 65.8142 163.505 65.27 163.579 64.5675H163.572Z" fill="#772D2D"/>
<path d="M182.196 62.8116C186.527 65.6493 191.545 65.9248 197.741 63.8999L198.428 69.534C196.906 69.8853 195.424 70.0368 194.017 70.0368C188.507 70.0368 183.941 67.509 181.812 63.0802L182.19 62.8047L182.196 62.8116ZM182.728 49.1602L183.072 47.335C183.564 47.4521 184.668 47.6862 185.618 47.7207C187.746 47.7964 191.814 48.0306 194.663 48.189C194.778 47.5278 194.892 46.8666 194.966 46.1641L199.944 48.189C198.839 51.378 196.293 53.7474 192.798 55.3453L192.454 54.9941C193.404 53.3204 194.01 51.4951 194.468 49.2429C191.619 49.0844 187.477 48.8916 185.497 48.8158C184.547 48.7745 183.294 49.0913 182.722 49.1671L182.728 49.1602Z" fill="#772D2D"/>
<path d="M230.735 62.6999C230.735 65.8475 227.582 69.6564 221.878 70.6689L221.723 70.2832C224.653 68.148 226.134 65.4205 226.134 63.2853C226.134 61.3774 224.956 59.9035 222.484 59.7864C219.978 59.6693 218.342 59.7864 215.6 60.5647L215.446 60.0206L215.978 51.1148C214.496 51.1148 213.243 51.1561 212.516 51.1561C211.566 51.1561 210.347 51.5074 209.781 51.6245L210.01 49.875C210.502 49.9921 211.606 50.0679 212.556 50.0679C213.358 50.0679 214.61 50.0265 216.052 50.0265C216.166 47.85 216.314 45.6735 216.429 43.7656L221.447 44.1513C221.218 46.0179 221.029 47.9602 220.874 49.9439C222.511 49.9026 224.067 49.9026 225.171 49.8681C225.858 48.9383 226.613 47.9602 227.374 47.1475C228.135 47.3817 230.452 49.751 230.526 51.0321C229.731 51.0321 227.939 50.9908 226.727 50.9564H225.851C224.861 50.9564 222.888 50.9977 220.76 51.0321C220.571 53.5186 220.416 56.0464 220.268 58.3813C221.709 58.1058 223.043 57.9956 224.296 57.9956C228.667 57.9956 230.721 60.1308 230.721 62.6999H230.735Z" fill="#772D2D"/>
<path d="M247.789 50.6467C247.372 55.1925 247.217 58.6157 247.183 60.3239C250.032 59.1185 250.867 58.9601 253.649 59.0427C257.98 59.1598 260 61.5292 260 64.2154C260 67.5973 256.808 71.4061 250.955 71.7574L250.841 71.4061C253.69 70.3179 255.171 67.673 255.171 65.3381C255.171 63.2029 253.878 61.295 251.218 61.2193C248.705 61.1435 246.543 61.4534 242.738 62.9687L242.395 62.6932C242.469 58.2989 242.509 55.0754 242.624 50.2541L247.796 50.6398L247.789 50.6467ZM247.069 45.2054C247.372 45.1641 247.675 45.1641 248.018 45.1641C251.211 45.1641 254.37 46.7551 256.04 48.5459L253.036 51.5765C251.251 48.973 250.221 47.2235 246.995 45.5911L247.069 45.2054Z" fill="#772D2D"/>
<path d="M226.807 5.53032C234.256 5.53032 238.553 10.6617 238.553 16.2613V16.8812C238.324 20.6557 236.082 24.5403 231.448 27.1026L231.145 26.7169C234.91 21.8955 234.795 11.7912 230.155 8.32673C228.861 18.2794 223.958 25.3531 218.826 24.6919C215.559 24.2648 213.546 21.8541 213.391 18.2381V17.694C213.391 11.4744 217.876 6.57725 224.564 5.68185C225.325 5.56476 226.087 5.52344 226.807 5.52344V5.53032ZM225.359 7.20403C220.186 8.02367 217.378 14.3603 217.378 18.5963C217.378 20.7728 218.099 22.4052 219.621 22.5222C222.355 22.6807 225.325 13.2721 225.359 7.20403Z" fill="#772D2D"/>
<path d="M30.5698 8.7815C29.3171 14.1883 27.7949 21.2207 27.3032 23.7898L22.5482 23.1286L25.5521 8.85726C24.7506 8.85726 24.0703 8.89859 23.5719 8.89859C22.6223 8.89859 21.4436 9.32563 20.8711 9.44272L21.1001 7.57615C21.5581 7.69325 22.6963 7.81034 23.646 7.81034C24.2185 7.81034 24.9392 7.76901 25.8147 7.76901C26.4209 4.85552 26.9193 2.52059 27.0338 1.85938L32.1256 2.01779C31.9371 2.67901 31.4387 4.89684 30.7921 7.69325C31.7417 7.65192 32.6577 7.65192 33.4929 7.65192C34.1799 6.75652 34.941 5.74403 35.6953 4.88996C36.4564 5.04837 38.7733 7.37641 38.8541 8.69885C37.9785 8.69885 35.8098 8.74017 34.6311 8.69885C33.5266 8.69885 32.0852 8.74017 30.5631 8.77461L30.5698 8.7815ZM34.4089 21.3378C37.6418 23.9826 40.5649 23.9413 44.7474 22.2332L45.0169 27.2061H44.1817C40.1136 27.2061 35.5875 26.1178 34.0721 21.689L34.4156 21.3378H34.4089ZM42.2824 12.2391C42.3969 11.695 42.4709 11.1095 42.5854 10.4896L46.3504 12.1634C46.0069 14.147 43.4206 16.7919 40.5716 18.073L40.3426 17.7975C41.0633 16.475 41.5954 15.1182 42.0129 13.3687L36.9211 13.4858C35.9715 13.4858 34.7928 13.8715 34.2607 13.9542L34.4493 12.2047C34.941 12.3218 36.0455 12.3975 36.9952 12.3975C38.935 12.3562 40.3426 12.3218 42.2824 12.2391Z" fill="#772D2D"/>
<path d="M68.5118 20.0438C70.7546 20.6637 72.7684 21.8691 74.2906 23.2673L74.0212 23.653C71.5494 22.9917 70.1821 22.7231 68.0538 22.7989C67.2523 25.6366 64.9354 27.7718 60.9818 27.9302H60.6046C56.9542 27.9302 55.1289 25.9879 55.1289 23.9285V23.8114C55.203 21.6762 57.1427 19.4928 60.9818 19.2242C61.6688 19.1829 62.8071 19.2242 63.9116 19.3C63.952 17.6262 63.9857 15.6839 63.9116 13.5832C61.9719 13.6245 60.1871 13.6589 59.2374 13.7003C58.2473 13.7003 57.035 14.086 56.5029 14.2031L56.7319 12.3778C57.1899 12.4949 58.2877 12.612 59.2778 12.612C60.2679 12.612 61.9786 12.5707 63.878 12.5362C63.8375 10.8281 63.723 9.0373 63.5749 7.17073C61.5947 7.21206 59.8099 7.28782 58.8198 7.28782C57.8297 7.28782 56.6511 7.67353 56.119 7.83195L56.348 6.00671C56.806 6.08248 57.9442 6.2409 58.8939 6.19957C59.884 6.19957 61.5947 6.15824 63.494 6.1238C63.3391 4.56719 63.1506 2.97613 62.962 1.34375L68.1683 1.46084C68.3232 3.01746 68.4377 4.57407 68.5455 6.04804C69.1516 6.04804 69.7241 6.00671 70.2562 6.00671C70.8287 4.80137 71.1655 4.25724 71.8929 3.36184C72.6135 3.78888 74.2906 5.46259 74.7082 6.97788C73.6036 6.97788 72.0074 7.0192 70.8691 6.97788C70.2225 7.0192 69.4614 7.0192 68.5859 7.05364C68.7004 8.96153 68.7408 10.7868 68.7745 12.4605C69.347 12.4192 69.879 12.4192 70.3707 12.4192C70.9432 11.2138 71.28 10.6284 71.967 9.73984C72.728 10.1669 74.3984 11.8406 74.8159 13.3559C74.2098 13.3972 73.0311 13.3972 71.967 13.3972C71.2463 13.3972 70.1013 13.4385 68.7745 13.473C68.7745 16.1523 68.66 18.4459 68.505 20.0438H68.5118ZM63.723 22.4958C61.5206 22.1859 59.5809 22.73 59.5809 24.1282C59.5809 25.1751 60.4161 25.492 61.561 25.492C62.706 25.492 63.5008 24.5208 63.7298 22.4958H63.723Z" fill="#772D2D"/>
<path d="M97.0813 8.85068C97.2699 11.3785 97.2362 15.7728 96.9668 17.8667C96.3202 22.998 94.2323 26.3385 88.8307 29.376L88.4131 28.8732C90.959 26.2283 92.2522 23.549 92.7843 19.623C90.6559 21.5653 87.7261 22.8878 83.8129 24.1345L82.8633 19.5886H84.7289C84.4259 14.5743 84.2709 11.7366 84.0824 5.63413L87.0122 5.9854C89.6726 4.54587 90.8917 2.17651 92.0299 0L95.9094 2.87905C94.0101 4.82138 91.7672 6.06805 88.4602 6.8808C88.5007 12.1705 88.5007 13.8029 88.8037 19.1684C90.171 18.9343 91.5046 18.583 92.9459 18.1973C93.02 17.4947 93.0604 16.7164 93.0604 15.9037C91.8077 16.372 91.1947 16.682 89.9083 17.2674C89.9083 15.1322 89.7197 13.3828 88.9182 11.3165L89.3358 10.9652C91.3497 12.4047 92.2252 13.3001 93.1008 14.9325C93.1008 13.0246 93.0267 10.8481 92.9122 8.36165L97.0948 8.86445L97.0813 8.85068ZM102.746 5.73744H107.649L107.42 3.6367L111.865 4.18083C112.02 6.00606 112.094 8.41675 112.094 10.793C112.094 13.1693 112.02 15.5731 111.825 17.4396C111.481 20.8628 110.761 22.1026 109.622 23.2735C107.494 22.0681 105.898 20.7044 104.564 18.9205L104.719 18.5348C105.938 18.8103 106.807 19.0031 107.797 19.0376C107.952 14.719 107.952 10.3315 107.723 6.83258H102.746C102.746 12.0052 102.746 22.1852 102.901 29.0316L98.7921 29.3829C98.6035 20.911 98.489 6.87391 98.5227 3.33364L102.746 3.95353V5.74433V5.73744ZM103.581 10.4073C105.864 12.081 106.699 13.0866 107.689 15.27C106.167 15.7384 105.716 15.9312 104.113 16.7095C104.113 14.6088 103.924 12.8249 103.123 10.7586L103.581 10.4073Z" fill="#772D2D"/>
<path d="M134.616 16.6975C133.74 22.8413 131.154 25.9132 125.644 28.0071L125.267 27.6558C128.116 23.8056 129.147 20.9679 129.335 16.7733L123.482 16.8146C121.657 16.8146 120.29 17.1246 119.758 17.283L119.987 15.3406C120.862 15.4991 122.23 15.5748 123.22 15.5748L129.416 15.4991C129.416 13.9838 129.376 12.2687 129.302 10.292C126.486 10.8774 123.792 10.7948 121.698 10.3333L121.657 9.98203C127.247 8.9351 131.652 5.51192 134.05 1.58594L138.381 5.31906C137.317 6.44864 136.178 7.37848 134.919 8.11546C134.993 10.9532 134.959 13.3639 134.764 15.4646L138.792 15.4233C139.593 14.218 139.93 13.7909 140.691 12.8542C141.492 13.2399 143.506 15.1891 143.809 16.5873L134.609 16.7044L134.616 16.6975Z" fill="#772D2D"/>
<path d="M153.034 13.1641C162.079 13.7495 166.033 13.6669 174.667 13.2812L174.741 16.1189C166.491 15.8089 161.816 15.8847 152.73 16.3531L153.034 13.1641Z" fill="#772D2D"/>
<path d="M201.764 6.47739C200.888 10.9062 199.366 14.9906 197.09 18.3311C199.521 19.9635 202.41 21.4788 205.643 22.7254L202.525 27.1955C200.322 26.0315 197.319 23.6966 195.264 20.666C192.072 24.2407 187.734 26.617 182.036 27.0785L181.922 26.7272C188.953 23.5038 193.857 16.6574 195.19 8.14421C191.728 8.14421 188.004 8.18554 184.549 8.21998C183.633 8.33707 182.649 8.60569 182.191 8.72278L182.42 6.6978C182.952 6.77356 184.394 6.93198 185.424 6.93198C188.314 6.93198 191.776 6.89065 195.345 6.93198C195.46 6.11235 195.5 5.34092 195.534 4.52129L201.771 6.46362L201.764 6.47739ZM201.838 1.69045C203.818 2.62029 205.374 3.98405 205.98 5.1894L203.623 6.8631C203.32 5.1894 202.444 3.28839 201.569 2.04172L201.831 1.69045H201.838ZM204.842 0.257812C206.512 0.609084 208.149 1.58025 209.402 2.93712L207.314 4.87945C206.822 3.24707 205.791 1.69045 204.613 0.643523L204.842 0.257812Z" fill="#772D2D"/>
</svg>
