<svg width="660" height="78" viewBox="0 0 660 78" fill="none" xmlns="http://www.w3.org/2000/svg">
<path d="M227.355 29.4915C226.969 27.3097 226.668 25.1177 226.219 22.9457C225.771 20.7961 225.522 18.42 224.569 16.4298C223.565 14.3418 219.794 14.9374 219.905 17.4408C220.009 19.6669 220.847 21.8288 221.475 23.9535C222.093 26.0827 222.873 28.1739 223.563 30.2887C224.318 32.5949 227.797 31.9811 227.35 29.4826L227.355 29.4915Z" fill="#EB5925"/>
<path d="M243.332 25.9541C243.562 24.534 244.133 23.185 244.448 21.7771C244.772 20.3422 245.038 18.9037 245.276 17.4567C245.809 14.1417 240.247 13.7437 239.985 17.1889C239.881 18.6116 239.794 20.0475 239.815 21.4729C239.836 22.9207 240.04 24.33 239.936 25.7751C239.771 28.0032 243.005 28.0638 243.341 25.9495L243.332 25.9541Z" fill="#EB5925"/>
<path d="M258.521 35.5717C260.6 33.8948 263.035 32.4717 264.713 30.3632C266.289 28.3856 263.491 25.391 261.372 26.7069C259.09 28.1413 257.396 30.4151 255.501 32.2991C253.443 34.3461 256.282 37.3759 258.521 35.5717Z" fill="#EB5925"/>
<path d="M23.1514 67.5395C23.1514 71.2096 19.5219 74.8797 13.2516 74.189V73.8098C20.0162 71.8596 19.7115 62.4948 13.8272 62.2307C12.9875 62.1901 12.1817 62.2307 11.4572 62.3052C11.4572 65.9008 11.2676 69.3001 10.9629 72.0154C10.7327 74.0807 9.20232 74.9203 7.37405 74.9203C3.81907 74.9203 0 72.205 0 69.4558C0 66.3207 2.8643 63.4902 6.99485 61.926C6.92036 59.8269 6.72399 57.6804 6.53439 55.6557H2.83044C1.83505 55.6151 0.995395 55.8859 0.0812567 56.0755L0.385969 54.2811C0.846424 54.3962 1.95016 54.5858 2.94556 54.5858H6.38542C6.19582 52.7508 5.92497 51.0308 5.66088 49.6562L10.4753 49.961C10.7462 51.4507 10.9358 52.981 11.0848 54.5858H12.649C13.2245 53.8207 13.9084 52.8253 14.7142 52.0262C15.9399 52.6357 17.3889 54.3217 17.8088 55.737C15.3981 55.737 13.1839 55.737 11.1999 55.6963C11.3556 57.4163 11.4301 59.1768 11.4301 60.8968C12.3442 60.8223 13.2245 60.7816 14.1454 60.8223C20.4157 61.127 23.1649 64.3366 23.1649 67.5463L23.1514 67.5395ZM7.05579 63.7949C5.22074 65.0205 4.11024 66.9301 4.15086 69.449C4.15086 71.0945 4.8754 72.7738 6.63596 73.0785C7.05579 70.6679 7.1709 67.3093 7.05579 63.7881V63.7949ZM21.2012 55.114C24.1468 55.8047 26.9366 57.8632 27.7763 59.6237C27.0517 60.3144 25.5959 61.303 24.4515 62.1088C24.1062 59.5493 22.7316 57.1386 20.971 55.4593L21.2012 55.114Z" fill="#EB5925"/>
<path d="M57.7182 52.0192V50.7597L62.5733 51.789C62.4582 54.0439 59.6277 57.328 56.303 58.6687L55.8832 58.1744C56.7973 56.7998 57.3729 54.9242 57.6031 53.0891H40.6746C39.7943 53.0891 38.9953 53.1636 38.3453 53.2448C38.5755 55.6893 38.1557 58.0999 37.1603 59.3594L32.7656 57.1045C34.5262 55.2289 36.4357 52.2156 37.1603 50.0691L37.6546 50.2587C37.8442 50.7936 37.9999 51.3285 38.115 51.9041C38.9208 51.9786 39.8756 52.0192 40.5595 52.0192H45.4146C45.4146 49.4596 45.374 47.584 45.2995 46.25L50.3848 46.9001C50.3848 47.6652 50.3848 49.5003 50.4254 52.0192H57.725H57.7182ZM58.287 63.2936C57.0275 64.939 56.6077 66.3881 56.3368 67.844C54.4273 67.6544 51.3666 66.8147 48.6581 65.0135C45.9089 66.659 42.469 67.6137 38.6432 68.0742L38.4536 67.5393C41.7377 66.1647 44.2228 64.8646 46.173 62.8738C45.5974 62.2643 45.0625 61.6143 44.6426 60.8491L45.1031 60.4293C45.7938 60.8898 46.5183 61.2689 47.2835 61.6143C48.008 60.6595 48.6581 59.5896 49.2337 58.3302H45.5636C43.654 60.6257 41.3992 61.7294 38.3791 62.7248L38.1489 62.3456C40.7085 59.6709 41.5481 58.0661 42.9227 53.7866L47.2767 55.8112C46.972 56.3461 46.6673 56.8066 46.3626 57.2671H49.6873L50.2629 55.7029L55.0774 57.3077C54.3528 59.5219 53.1272 61.3976 51.5224 62.8873C53.8517 63.3478 56.2217 63.4629 58.287 63.3071V63.2936ZM55.2331 68.7243C55.2737 71.4396 55.3482 71.9745 55.3889 76.8296L50.764 77.0598V75.6108H45.7938C45.8344 75.99 45.8344 76.4166 45.8683 76.8364L41.2096 77.2156C41.02 73.3965 40.9793 70.8708 41.02 68.1555L45.7193 68.731C45.7193 68.9613 45.7193 69.1915 45.6787 69.3811H50.6827C50.6421 68.9613 50.6421 68.5753 50.6082 68.1555L55.2331 68.731V68.7243ZM50.7572 74.5341C50.7572 73.0783 50.7572 71.7443 50.7166 70.4442H45.6719C45.6313 71.7849 45.6719 72.9293 45.7464 74.5341H50.7504H50.7572Z" fill="#EB5925"/>
<path d="M73.8186 66.6583C74.7734 69.4481 77.9492 74.4522 81.2333 74.4522L81.2739 74.8314C80.4343 74.9871 79.5946 75.0616 78.7888 75.0616C75.0442 75.0616 71.6044 73.3823 69.2344 69.6716L73.8186 66.6516V66.6583ZM83.109 56.6841C83.7996 59.7447 84.4836 62.9137 84.9846 65.7036C81.5041 65.514 81.1656 65.4327 78.4502 64.8639L78.4096 64.4847L80.204 64.2139C79.7436 62.3382 79.0597 59.6296 78.3284 56.8737L73.7035 57.0633C72.7487 57.1039 71.5231 57.5237 70.9882 57.6388L71.1778 55.8038C71.6721 55.9189 72.7826 55.9934 73.7374 55.9595C74.7327 55.9189 76.2969 55.885 78.0169 55.8038C77.5226 53.8536 76.9876 51.9035 76.561 50.2648L81.45 49.459C81.8698 51.2534 82.3641 53.3932 82.8652 55.648C83.3595 55.648 83.82 55.648 84.2398 55.6074C84.8492 54.7271 85.4248 53.8875 86.1155 53.0072C86.9213 53.5828 88.4855 54.8422 89.0949 56.5215C88.1401 56.596 85.7701 56.596 84.6596 56.6367C84.1992 56.6367 83.6642 56.6773 83.0954 56.6773L83.109 56.6841Z" fill="#EB5925"/>
<path d="M112.37 67.6539C114.625 68.2633 116.649 69.4483 118.18 70.8229L117.916 71.2021C115.431 70.552 114.056 70.2879 111.916 70.3624C111.11 73.1522 108.781 75.2514 104.806 75.4071H104.427C100.757 75.4071 98.9219 73.4976 98.9219 71.4729V71.3578C98.9964 69.2587 100.947 67.1122 104.806 66.8481C105.497 66.8074 106.641 66.8481 107.752 66.9226C107.792 65.2771 107.826 63.3676 107.752 61.3023C105.802 61.3429 104.007 61.3768 103.052 61.4174C102.057 61.4174 100.838 61.7966 100.303 61.9117L100.533 60.1173C100.994 60.2324 102.098 60.3475 103.093 60.3475C104.088 60.3475 105.808 60.3069 107.718 60.273C107.677 58.5937 107.562 56.8332 107.413 54.9981C105.422 55.0388 103.628 55.1132 102.633 55.1132C101.637 55.1132 100.452 55.4924 99.9173 55.6482L100.147 53.8538C100.608 53.9282 101.752 54.084 102.707 54.0434C103.702 54.0434 105.422 54.0027 107.332 53.9689C107.176 52.4385 106.987 50.8744 106.797 49.2695L112.031 49.3846C112.187 50.915 112.302 52.4453 112.41 53.8944C113.02 53.8944 113.595 53.8538 114.13 53.8538C114.706 52.6688 115.045 52.1338 115.776 51.2535C116.5 51.6734 118.186 53.3188 118.606 54.8085C117.496 54.8085 115.891 54.8492 114.747 54.8085C114.097 54.8492 113.331 54.8492 112.451 54.883C112.566 56.7587 112.607 58.5531 112.641 60.1986C113.216 60.1579 113.751 60.1579 114.246 60.1579C114.821 58.9729 115.16 58.3974 115.85 57.5239C116.616 57.9437 118.295 59.5891 118.715 61.0788C118.105 61.1195 116.92 61.1195 115.85 61.1195C115.126 61.1195 113.975 61.1601 112.641 61.194C112.641 63.828 112.526 66.0829 112.37 67.6539ZM107.555 70.0577C105.341 69.753 103.391 70.2879 103.391 71.6625C103.391 72.6918 104.231 73.0033 105.382 73.0033C106.533 73.0033 107.332 72.0485 107.562 70.0577H107.555Z" fill="#EB5925"/>
<path d="M147.683 63.2933C147.683 65.7378 146.918 69.5636 145.808 72.1977C145.043 74.0328 144.318 75.3667 143.289 75.3667C141.684 75.3667 139.388 73.4166 137.668 71.5477L137.824 71.3174C140.54 72.0081 141.339 72.0081 141.528 71.5883C142.557 69.1777 142.828 64.9388 142.903 62.8735C143.018 60.1988 141.643 58.9393 138.352 58.8242C136.978 64.7898 135.908 68.8391 134.222 73.728L129.827 72.279C131.391 68.2297 132.502 63.6793 133.423 59.0951C131.818 59.2847 130.173 59.6706 128.568 60.2394L128.297 58.8242C129.252 58.7836 130.552 58.5195 131.892 58.2486C132.468 58.1335 133.037 58.0184 133.653 57.9439C134.073 55.689 134.493 53.3935 134.879 51.1387L139.849 52.2086C139.429 54.1587 139.043 55.9193 138.664 57.558C139.47 57.5173 140.343 57.5173 141.298 57.5173C145.997 57.558 147.683 59.8128 147.683 63.2866V63.2933ZM146.844 53.1701C151.279 53.7457 155.098 56.8808 156.439 59.5149L152.234 62.3047C151.353 59.3253 149.938 56.0344 146.695 53.6305L146.85 53.1701H146.844Z" fill="#EB5925"/>
<path d="M170.556 55.5736C170.136 60.0427 169.98 63.4081 169.946 65.0874C172.811 63.9024 173.65 63.7467 176.44 63.828C180.794 63.9431 182.825 66.2724 182.825 68.9133C182.825 72.238 179.616 75.9826 173.731 76.3279L173.616 75.9826C176.481 74.9127 177.97 72.3125 177.97 70.017C177.97 67.9179 176.67 66.0422 173.996 65.9677C171.477 65.8932 169.296 66.1979 165.47 67.6876L165.125 67.4168C165.199 63.0966 165.24 59.9276 165.355 55.1877L170.556 55.5669V55.5736ZM169.831 50.2242C170.136 50.1836 170.441 50.1836 170.786 50.1836C173.996 50.1836 177.171 51.7478 178.851 53.5083L175.831 56.4878C174.036 53.9282 173 52.2082 169.757 50.6034L169.831 50.2242Z" fill="#EB5925"/>
<path d="M203.89 56.1058C203.395 60.3515 202.21 64.7461 200.335 68.4907C201.98 69.2965 203.395 70.2107 204.384 71.1654C203.158 71.8155 201.594 73.1562 200.484 74.4157C200.023 73.3458 199.414 72.3166 198.689 71.3957C197.2 73.6505 195.405 75.4856 193.34 76.6706L192.879 76.095C194.484 74.1855 195.71 71.89 196.665 69.0595C196.17 68.5652 195.635 68.0641 195.06 67.5698L194.83 69.52L191.159 68.985C191.62 65.3149 192.114 61.611 192.609 57.8664C191.579 57.9409 190.658 58.2117 190.164 58.3269L190.428 56.4173C191.078 56.5731 191.918 56.6882 192.758 56.722C193.028 54.5078 193.333 52.2868 193.638 49.998L197.613 50.7632C197.267 52.6727 196.963 54.6635 196.617 56.722H199.062C199.102 56.0314 199.177 55.3475 199.251 54.6229L203.876 56.1126L203.89 56.1058ZM197.24 67.2312C197.965 64.5972 198.5 61.4959 198.919 57.8326H196.475C196.015 60.6969 195.595 63.6424 195.216 66.6218C195.866 66.8114 196.549 67.001 197.24 67.2312ZM223.344 68.186C222.579 68.2266 220.249 68.186 219.369 68.186H206.835C205.23 68.186 203.93 68.4907 203.24 68.6465L203.51 66.852C204.465 67.0078 205.691 67.1229 206.72 67.1229H208.745C208.63 65.8634 208.21 64.5972 207.749 63.5679L206.07 63.7237C205.996 59.8233 205.955 59.478 205.88 56.4241L210.201 56.9184V57.6836H215.591C215.55 57.3382 215.55 56.959 215.516 56.5392L219.87 56.8846C219.87 58.679 219.911 59.9452 220.026 63.1887L216.166 63.4934L218.726 64.4482C218.231 65.403 217.311 66.439 215.936 67.1229H218.766C219.376 66.1275 220.107 65.1321 220.446 64.6378C221.705 65.5926 223.005 66.9333 223.351 68.1928L223.344 68.186ZM210.81 54.1963L210.695 51.0612H207.864C206.26 51.0612 204.919 51.3659 204.269 51.5216L204.54 49.7272C205.42 49.8829 206.72 49.998 207.749 49.998H210.654C210.654 49.0839 210.614 48.0479 210.614 46.8223L215.008 47.2421C215.008 47.8921 215.008 48.7318 215.049 49.9913H217.304C217.913 49.111 218.645 47.9666 218.983 47.5468C220.324 48.4271 221.658 49.9168 221.929 51.0612C221.163 51.1018 218.834 51.0612 217.954 51.0612H215.09C215.13 51.9414 215.13 52.9707 215.205 54.1963H215.55C216.126 53.316 216.735 52.4019 217.08 51.9821C218.455 52.8962 219.606 54.1218 219.87 55.2662C219.105 55.3068 216.925 55.2662 216.051 55.2662H210.207C208.562 55.2662 207.228 55.5709 206.612 55.7266L206.883 53.9322C207.682 54.088 209.063 54.2031 210.092 54.2031H210.817L210.81 54.1963ZM220.094 69.7908C220.209 71.5853 220.249 73.8063 220.249 76.6299L216.085 76.8602V76.0544H210.851C210.891 76.3252 210.891 76.5487 210.891 76.8195L206.876 77.0498C206.835 74.7543 206.72 72.3843 206.72 69.4455L210.851 69.7908C210.851 70.0211 210.81 70.2107 210.81 70.4409H216.01C216.01 70.1362 215.97 69.8315 215.97 69.4861L220.1 69.7908H220.094ZM208.934 63.446C210.194 64.0555 211.189 64.8613 212.029 66.0056L209.93 67.1161H213.945C214.48 66.0869 214.785 64.5904 215.056 63.0668L215.665 63.2971V62.5319H210.316C210.356 62.7621 210.356 63.0262 210.39 63.3377L208.941 63.4528L208.934 63.446ZM210.194 58.7467C210.194 59.8911 210.194 60.6224 210.234 61.462H215.699C215.699 60.5479 215.658 59.7015 215.625 58.7467H210.201H210.194ZM216.078 74.9845C216.119 73.6438 216.078 72.7702 216.038 71.504H210.803C210.763 72.6145 210.803 73.7995 210.844 74.9845H216.078Z" fill="#EB5925"/>
<path d="M238.135 49.88C236.91 66.0839 238.44 73.1939 243.789 74.7242V75.1034C243.065 75.2185 242.374 75.293 241.724 75.293C234.269 75.293 232.664 66.8491 232.664 58.3984V57.789C232.705 54.8434 232.894 51.9385 233.084 49.3789L238.129 49.8732L238.135 49.88Z" fill="#EB5925"/>
<path d="M261.561 66.6577L261.832 67.0369C260.572 69.2512 259.157 70.9373 256.483 73.612C254.532 70.8221 253.422 65.8519 253.422 59.5071C253.422 57.5976 253.537 55.5323 253.727 53.3926L259.381 54.8823C258.351 58.5524 257.776 63.7122 257.701 68.2558C259.306 67.7953 260.491 67.1453 261.561 66.651V66.6577ZM273.797 67.6125C274.061 63.6377 273.723 60.1572 272.768 56.9882L273.113 56.7986C276.248 58.7894 278.503 63.2991 278.808 66.5426L273.804 67.6125H273.797Z" fill="#EB5925"/>
<path d="M309.814 67.5395C309.814 71.2096 306.185 74.8797 299.915 74.189V73.8098C306.679 71.8596 306.375 62.4948 300.49 62.2307C299.651 62.1901 298.845 62.2307 298.12 62.3052C298.12 65.9008 297.931 69.3001 297.626 72.0154C297.396 74.0807 295.865 74.9203 294.03 74.9203C290.475 74.9203 286.656 72.205 286.656 69.4558C286.656 66.3207 289.521 63.4902 293.651 61.926C293.577 59.8269 293.387 57.6804 293.191 55.6557H289.487C288.491 55.6151 287.652 55.8859 286.738 56.0755L287.042 54.2811C287.503 54.3962 288.606 54.5858 289.602 54.5858H293.042C292.852 52.7508 292.581 51.0308 292.317 49.6562L297.132 49.961C297.396 51.4507 297.592 52.981 297.741 54.5858H299.305C299.881 53.8207 300.565 52.8253 301.37 52.0262C302.596 52.6357 304.045 54.3217 304.465 55.737C302.061 55.737 299.84 55.737 297.856 55.6963C298.012 57.4163 298.086 59.1768 298.086 60.8968C299.007 60.8223 299.881 60.7816 300.802 60.8223C307.072 61.127 309.821 64.3366 309.821 67.5463L309.814 67.5395ZM293.726 63.7949C291.891 65.0205 290.78 66.9301 290.821 69.449C290.821 71.0945 291.545 72.7738 293.306 73.0785C293.726 70.6679 293.841 67.3093 293.726 63.7881V63.7949ZM307.864 55.114C310.81 55.8047 313.6 57.8632 314.439 59.6237C313.715 60.3144 312.259 61.303 311.115 62.1088C310.769 59.5493 309.395 57.1386 307.634 55.4593L307.864 55.114Z" fill="#EB5925"/>
<path d="M342.987 59.8193C343.103 62.7649 343.103 66.3537 343.143 69.4144L338.444 69.6852C338.444 69.2248 338.444 68.7304 338.485 68.27H326.79C325.565 72.4005 322.436 75.1497 318.15 76.9103L317.805 76.4498C321.854 71.8656 322.964 66.4756 322.274 58.6749L327.549 59.2099V60.5845H338.363C338.322 60.124 338.322 59.6703 338.288 59.2099L342.987 59.8193ZM325.023 52.0593C323.418 52.0593 322.077 52.364 321.427 52.5197L321.698 50.7253C322.579 50.8811 323.879 50.9962 324.908 50.9962H330.068C330.027 49.6216 329.993 48.247 329.993 46.9062L335.153 47.4412C335.153 48.0168 335.153 49.3507 335.194 50.9962H339.433C340.042 50.1159 340.773 48.9715 341.112 48.5517C342.453 49.432 343.787 50.9217 344.057 52.0661C343.292 52.1067 340.963 52.0661 340.083 52.0661H335.194C335.194 53.4068 335.234 54.8152 335.268 56.1153H337.597C338.173 55.2351 338.938 54.0907 339.277 53.6709C340.536 54.6256 341.836 56.0815 342.222 57.1852C341.457 57.2259 339.128 57.1852 338.248 57.1852H327.467C325.822 57.1852 324.488 57.4899 323.879 57.6457L324.143 55.8513C324.948 56.007 326.323 56.1221 327.352 56.1221H330.142C330.142 54.8965 330.102 53.5219 330.068 52.0728H325.023V52.0593ZM330.677 67.1933C330.603 64.8978 330.636 63.5232 330.521 61.6543H327.501C327.427 63.2592 327.312 64.9791 327.197 66.1235C327.156 66.5027 327.081 66.848 327.041 67.1933H330.67H330.677ZM338.478 67.1933C338.478 65.2432 338.478 63.3743 338.403 61.6543H334.889C334.889 63.0696 334.963 65.1348 334.963 67.1933H338.478Z" fill="#EB5925"/>
<path d="M369.813 74.0006L369.887 74.5355C368.547 75.0298 366.488 75.4497 365.032 75.4497C359.798 75.4497 357.042 72.9646 356.893 70.0596C356.737 67.0396 359.378 63.5997 364.768 62.11C363.353 60.3495 360.563 60.8844 356.778 61.5751C356.852 59.5504 357.083 57.1804 357.354 55.0407C356.629 55.0813 356.013 55.1152 355.559 55.1152C354.604 55.1558 353.379 55.5756 352.844 55.6907L353.033 53.8151C353.528 53.9302 354.638 54.0453 355.593 54.0047C356.087 53.964 356.737 53.964 357.502 53.9302C357.733 52.0951 357.997 50.4903 358.153 49.5762L362.588 50.2669L361.978 53.7812L366.109 53.6661C366.718 52.6368 367.138 52.0206 367.944 50.9169C368.784 51.3774 370.659 53.1312 371.038 54.6276C370.314 54.6683 368.743 54.7021 367.524 54.7021L361.789 54.8917C361.559 56.3069 361.369 57.7222 361.179 59.4759C364.24 58.8665 366.684 59.5504 368.059 61.5006C369.244 61.3449 370.504 61.311 371.878 61.3449L372.034 61.9204C370.849 62.2658 369.779 62.6111 368.824 62.9497C369.285 64.094 369.434 65.5499 369.319 67.2292L365.879 67.2698C365.919 66.1255 365.838 65.2045 365.723 64.4055C362.933 66.051 361.904 67.8454 361.823 69.5653C361.782 71.5561 363.197 74.2647 366.603 74.2647C367.213 74.2647 368.208 74.1902 369.813 73.9938V74.0006Z" fill="#EB5925"/>
<path d="M390.544 66.6577L390.808 67.0369C389.549 69.2512 388.134 70.9373 385.459 73.612C383.509 70.8221 382.398 65.8519 382.398 59.5071C382.398 57.5976 382.514 55.5323 382.703 53.3926L388.357 54.8823C387.328 58.5524 386.752 63.7122 386.678 68.2558C388.283 67.7953 389.468 67.1453 390.538 66.651L390.544 66.6577ZM402.774 67.6125C403.038 63.6377 402.699 60.1572 401.744 56.9882L402.09 56.7986C405.225 58.7894 407.48 63.2991 407.784 66.5426L402.78 67.6125H402.774Z" fill="#EB5925"/>
<path d="M423.611 56.568C422.352 61.8836 420.821 68.7971 420.327 71.3229L415.547 70.6728L418.567 56.6493C417.761 56.6493 417.077 56.6899 416.583 56.6899C415.628 56.6899 414.443 57.1097 413.867 57.2248L414.097 55.3898C414.558 55.5049 415.702 55.62 416.657 55.62C417.233 55.62 417.957 55.5794 418.837 55.5794C419.447 52.7151 419.948 50.4196 420.063 49.7695L425.182 49.9253C424.993 50.5753 424.492 52.7557 423.841 55.5049C424.796 55.4643 425.717 55.4643 426.557 55.4643C427.247 54.584 428.006 53.5886 428.771 52.7489C429.536 52.9047 431.866 55.1934 431.94 56.4935C431.06 56.4935 428.879 56.5342 427.694 56.4935C426.584 56.4935 425.135 56.5342 423.604 56.568H423.611ZM427.471 68.9123C430.721 71.5125 433.66 71.4718 437.865 69.7925L438.136 74.6815H437.296C433.206 74.6815 428.656 73.6116 427.132 69.2576L427.478 68.9123H427.471ZM435.38 59.9672C435.495 59.4323 435.57 58.8567 435.685 58.2473L439.47 59.8928C439.125 61.8429 436.524 64.4431 433.66 65.7026L433.43 65.4318C434.154 64.1317 434.689 62.7977 435.109 61.0778L429.99 61.1929C429.035 61.1929 427.85 61.5721 427.315 61.6533L427.505 59.9334C427.999 60.0485 429.11 60.123 430.064 60.123C432.015 60.0824 433.43 60.0485 435.38 59.9672Z" fill="#EB5925"/>
<path d="M456.135 56.5681C454.875 61.8837 453.345 68.7973 452.851 71.323L448.07 70.6729L451.09 56.6494C450.284 56.6494 449.6 56.69 449.106 56.69C448.151 56.69 446.966 57.1098 446.391 57.225L446.621 55.3899C447.081 55.505 448.226 55.6201 449.18 55.6201C449.756 55.6201 450.481 55.5795 451.361 55.5795C451.97 52.7152 452.471 50.4197 452.586 49.7696L457.706 49.9254C457.516 50.5754 457.015 52.7558 456.365 55.505C457.32 55.4644 458.241 55.4644 459.08 55.4644C459.771 54.5841 460.529 53.5887 461.294 52.7491C462.06 52.9048 464.389 55.1935 464.463 56.4936C463.583 56.4936 461.403 56.5343 460.218 56.4936C459.107 56.4936 457.658 56.5343 456.128 56.5681H456.135ZM459.994 68.9124C463.245 71.5126 466.183 71.472 470.388 69.7927L470.659 74.6816H469.82C465.73 74.6816 461.179 73.6117 459.656 69.2577L460.001 68.9124H459.994ZM468.208 58.2474L471.993 59.8929C471.648 61.843 469.048 64.4433 466.183 65.7027L465.953 65.4319C466.678 64.1318 467.213 62.7978 467.632 61.0779L462.513 61.193C461.559 61.193 460.374 61.5722 459.839 61.6534L460.028 59.9335C460.523 60.0486 461.633 60.1231 462.588 60.1231C464.538 60.0825 465.953 60.0486 467.903 59.9674C468.018 59.4324 468.093 58.8569 468.208 58.2474ZM468.438 54.8482C468.134 53.2434 467.253 51.3338 466.373 50.1082L466.637 49.7629C468.628 50.677 470.151 52.0178 470.801 53.2434L468.432 54.8482H468.438ZM469.664 48.3477C471.309 48.693 472.989 49.6478 474.248 50.9817L472.149 52.8913C471.655 51.2864 470.619 49.7561 469.434 48.7269L469.664 48.3477Z" fill="#EB5925"/>
<path d="M488.943 66.6577L489.207 67.0369C487.947 69.2512 486.532 70.9373 483.858 73.612C481.907 70.8221 480.797 65.8519 480.797 59.5071C480.797 57.5976 480.912 55.5323 481.102 53.3926L486.756 54.8823C485.726 58.5524 485.151 63.7122 485.076 68.2558C486.681 67.7953 487.866 67.1453 488.936 66.651L488.943 66.6577ZM501.172 67.6125C501.436 63.6377 501.098 60.1572 500.143 56.9882L500.488 56.7986C503.623 58.7894 505.878 63.2991 506.183 66.5426L501.179 67.6125H501.172Z" fill="#EB5925"/>
<path d="M527.649 75.3346L527.418 75.68C519.239 73.4996 515.569 62.8008 523.904 54.6954C520.16 54.736 515.609 54.7699 514.004 54.7699C513.05 54.7699 511.824 55.1491 511.289 55.2642L511.479 53.5443C511.973 53.6594 513.083 53.7339 514.038 53.7339C516.219 53.6932 523.058 53.6188 526.958 53.5781C527.764 52.3931 528.719 51.0185 529.328 50.4023C530.703 51.0524 532.768 52.813 533.303 54.4516C532.463 54.5261 530.784 54.5668 529.518 54.5668C521.378 61.6767 523.823 70.6556 527.642 75.3211L527.649 75.3346Z" fill="#EB5925"/>
<path d="M565.752 67.5395C565.752 71.2096 562.122 74.8797 555.852 74.189V73.8098C562.617 71.8596 562.312 62.4948 556.428 62.2307C555.588 62.1901 554.782 62.2307 554.058 62.3052C554.058 65.9008 553.868 69.3001 553.563 72.0154C553.333 74.0807 551.803 74.9203 549.968 74.9203C546.413 74.9203 542.594 72.205 542.594 69.4558C542.594 66.3207 545.458 63.4902 549.589 61.926C549.514 59.8269 549.324 57.6804 549.128 55.6557H545.424C544.429 55.6151 543.589 55.8859 542.675 56.0755L542.98 54.2811C543.44 54.3962 544.544 54.5858 545.539 54.5858H548.979C548.79 52.7508 548.519 51.0308 548.255 49.6562L553.069 49.961C553.34 51.4507 553.53 52.981 553.679 54.5858H555.243C555.818 53.8207 556.502 52.8253 557.308 52.0262C558.534 52.6357 559.983 54.3217 560.403 55.737C557.992 55.737 555.778 55.737 553.794 55.6963C553.949 57.4163 554.024 59.1768 554.024 60.8968C554.938 60.8223 555.818 60.7816 556.739 60.8223C563.01 61.127 565.759 64.3366 565.759 67.5463L565.752 67.5395ZM549.663 63.7949C547.828 65.0205 546.718 66.9301 546.758 69.449C546.758 71.0945 547.483 72.7738 549.243 73.0785C549.663 70.6679 549.778 67.3093 549.663 63.7881V63.7949ZM563.802 55.114C566.747 55.8047 569.537 57.8632 570.377 59.6237C569.652 60.3144 568.196 61.303 567.052 62.1088C566.707 59.5493 565.332 57.1386 563.572 55.4593L563.802 55.114Z" fill="#EB5925"/>
<path d="M585.393 60.7744L585.657 61.1197C584.743 63.1444 583.633 64.6747 581.418 67.1192C579.739 64.1736 578.473 59.3998 578.398 51.3757L583.064 51.6465C582.685 54.4363 582.529 58.7159 582.644 62.1219C583.904 61.702 584.52 61.3161 585.393 60.7811V60.7744ZM596.058 51.9445C596.058 68.9881 592.463 71.5883 586.693 76.4434L586.314 76.2131C589.26 70.7486 591.284 67.0785 590.898 51.1387L596.058 51.9445Z" fill="#EB5925"/>
<path d="M620.261 67.6539C622.515 68.2633 624.54 69.4483 626.07 70.8229L625.806 71.2021C623.321 70.552 621.947 70.2879 619.807 70.3624C619.008 73.1522 616.672 75.2514 612.697 75.4071H612.318C608.648 75.4071 606.812 73.4976 606.812 71.4729V71.3578C606.887 69.2587 608.837 67.1122 612.697 66.8481C613.388 66.8074 614.532 66.8481 615.642 66.9226C615.683 65.2771 615.717 63.3676 615.642 61.3023C613.692 61.3429 611.898 61.3768 610.943 61.4174C609.948 61.4174 608.729 61.7966 608.194 61.9117L608.424 60.1173C608.885 60.2324 609.988 60.3475 610.984 60.3475C611.979 60.3475 613.699 60.3069 615.609 60.273C615.568 58.5937 615.453 56.8332 615.304 54.9981C613.32 55.0388 611.519 55.1132 610.53 55.1132C609.541 55.1132 608.35 55.4924 607.815 55.6482L608.045 53.8538C608.505 53.9282 609.65 54.084 610.605 54.0434C611.6 54.0434 613.32 54.0027 615.229 53.9689C615.074 52.4385 614.884 50.8744 614.694 49.2695L619.929 49.3846C620.084 50.915 620.193 52.4453 620.308 53.8944C620.917 53.8944 621.493 53.8538 622.028 53.8538C622.603 52.6688 622.942 52.1338 623.673 51.2535C624.398 51.6734 626.084 53.3188 626.504 54.8085C625.393 54.8085 623.788 54.8492 622.644 54.8085C621.994 54.8492 621.229 54.8492 620.349 54.883C620.464 56.7587 620.504 58.5531 620.538 60.1986C621.114 60.1579 621.649 60.1579 622.143 60.1579C622.719 58.9729 623.057 58.3974 623.748 57.5239C624.513 57.9437 626.192 59.5891 626.612 61.0788C626.003 61.1195 624.818 61.1195 623.748 61.1195C623.023 61.1195 621.872 61.1601 620.538 61.194C620.538 63.828 620.423 66.0829 620.267 67.6539H620.261ZM615.446 70.0577C613.232 69.753 611.282 70.2879 611.282 71.6625C611.282 72.6918 612.121 73.0033 613.266 73.0033C614.41 73.0033 615.216 72.0485 615.446 70.0577Z" fill="#EB5925"/>
<path d="M655.518 55.0776H652.004C652.268 59.0931 652.268 63.2575 651.395 66.4265C652.2 67.151 652.539 67.8417 652.579 68.7965C652.695 72.277 648.374 74.7214 644.704 75.3309L644.589 75.0262C646.499 74.112 648.029 72.0061 648.104 69.907C647.338 70.3268 646.384 70.557 645.239 70.6721C642.26 70.8617 640.77 69.4872 640.77 67.923C640.77 66.0473 642.869 63.9482 647 63.9075C647.345 61.5375 647.305 58.3685 647.156 55.0776H638.976C638.021 55.0776 636.795 55.423 636.227 55.5381L636.497 53.7775C636.992 53.8926 638.102 54.0077 639.057 54.0077H647.122C647.007 52.1321 646.851 50.2225 646.702 48.4688L651.476 49.2745C651.631 50.7643 651.821 52.3691 651.936 54.0145H654.652C655.302 53.1749 656.067 52.254 656.832 51.4549C657.672 51.6107 660.001 53.8656 660.001 55.1995C659.006 55.1995 656.636 55.125 655.532 55.0844L655.518 55.0776ZM646.837 65.9322C646.533 65.5123 646.113 65.2076 645.808 65.2076C644.549 65.2076 644.088 65.8171 644.088 66.4671C644.088 67.1172 644.582 67.7672 645.273 67.7672C646.153 67.7672 646.688 67.2729 646.837 65.9322Z" fill="#EB5925"/>
</svg>
