<svg width="386" height="108" viewBox="0 0 386 108" fill="none" xmlns="http://www.w3.org/2000/svg">
<path d="M0 107.48C2.42981 104.026 3.32973 102.365 4.45965 97.586L9.47928 99.8889C7.72941 103.343 4.56963 106.441 0.449947 108L0 107.48ZM2.4298 95.4563C1.97984 86.7134 1.86986 75.6676 1.74986 66.8738L8.51933 67.3935C8.51933 67.9132 8.51933 68.3717 8.45934 68.8914H13.9289C13.9289 68.2596 13.8689 67.6278 13.8689 66.9961L20.4184 67.5157C20.5284 75.7389 20.5884 85.5212 20.5284 94.9468L14.1489 95.4053V92.8783H8.83931C8.89931 93.5712 8.89929 94.2029 8.94929 94.8958L2.39981 95.4665L2.4298 95.4563ZM8.46935 70.4912C8.46935 72.3355 8.40935 74.292 8.40935 76.2382H14.1089C14.0489 74.2207 14.0489 72.3254 13.9989 70.4912H8.46935ZM14.2289 84.1252C14.1689 82.0566 14.1689 79.927 14.1189 77.8584H8.41933C8.47933 79.927 8.47934 81.9955 8.52934 84.1252H14.2289ZM14.2289 85.7352H8.58933L8.75933 91.2581H14.2389V85.7352H14.2289ZM12.869 98.503C16.4787 98.9616 19.3585 99.7156 22.5182 102.701C20.9384 103.679 19.2985 105.177 17.9486 106.787C16.8787 104.138 15.0688 101.326 12.699 99.0839L12.869 98.5132V98.503ZM32.5075 69.3397C32.1675 84.6958 29.2377 94.0093 21.2184 99.9908L20.7084 99.4711C25.558 90.7282 25.558 81.2415 25.0581 65.0192L32.5675 65.9975V67.7195H41.9967C42.8467 66.456 43.8566 64.7237 44.3666 64.041C46.2864 65.4166 47.9263 67.6686 48.2063 69.3295C47.0763 69.3907 44.1966 69.3295 42.9567 69.3295H32.5175L32.5075 69.3397ZM50.1761 100.113C48.5362 102.243 47.1863 104.138 46.4464 106.665C43.3966 105.575 40.6368 103.669 38.267 101.142C35.4972 103.73 32.2875 105.748 28.5578 106.838L27.8778 106.094C30.7576 103.792 33.2374 100.745 35.2673 97.2395C34.1973 95.4563 33.3474 93.561 32.7275 91.4924L33.4574 91.0848C34.5873 92.1752 35.7172 93.1534 36.8971 94.0807C38.477 90.7995 39.6669 87.2942 40.5069 83.6666H36.1072C34.5273 83.6666 33.0574 84.0742 32.0975 84.3595L32.4975 81.6592C33.5674 81.8936 34.7573 82.0668 35.9372 82.0668H40.8468C41.0168 81.323 41.1268 80.5689 41.2368 79.8251L48.5762 82.0159C47.4463 87.3044 45.1865 92.7152 41.8567 97.1987C44.4565 98.5234 47.1663 99.4405 50.1561 100.133L50.1761 100.113Z" fill="#EB5925"/>
<path d="M62.5325 93.7845L56.043 90.3913C58.6428 87.5687 61.4626 83.0342 62.5325 79.804L63.2624 80.0893C63.5424 80.8943 63.7724 81.6993 63.9424 82.5655C65.1323 82.6776 66.5422 82.7387 67.5521 82.7387H91.7602V80.8434L98.9297 82.3922C98.4197 85.7243 94.3 90.6766 89.6704 92.7451L89.0504 92.0013C90.4003 89.9327 91.2503 87.1101 91.5902 84.3487H67.7121C66.4122 84.3487 65.2323 84.4608 64.2723 84.5831C64.6123 88.2616 63.9924 91.8892 62.5225 93.7845H62.5325ZM60.3326 106.267C65.3023 101.549 67.0521 97.8095 68.342 89.9327L75.6815 91.6548C73.5916 99.5315 68.792 104.769 60.7226 107.011L60.3226 106.267H60.3326ZM67.6721 69.6855C65.3023 69.6855 63.3224 70.1441 62.3625 70.3784L62.7525 67.6781C64.0524 67.9125 65.9722 68.0857 67.4921 68.0857H73.3616C73.3616 66.0172 73.3016 63.8875 73.3016 61.9922L81.261 62.624C81.261 63.541 81.261 65.5586 81.321 68.0857H87.0206C87.9205 66.761 89.0004 65.0389 89.5004 64.4072C91.4802 65.7319 93.4501 67.9736 93.85 69.6957C92.7201 69.7568 89.2804 69.6957 87.9805 69.6957H81.321C81.381 71.8254 81.431 74.1792 81.551 76.5433H84.2608C85.1107 75.2186 86.2406 73.4965 86.7406 72.8647C88.7704 74.2404 90.6903 76.4312 91.0903 78.1533C89.9604 78.2144 86.5206 78.1533 85.2207 78.1533H70.9418C68.512 78.1533 66.5422 78.6118 65.6322 78.8462L66.0322 76.1459C67.2121 76.3802 69.252 76.5535 70.7718 76.5535H73.5416C73.5416 74.5359 73.4816 72.182 73.4316 69.7059H67.6721V69.6855ZM93.0101 94.9971C94.87 97.6464 96.4498 100.286 97.1898 104.779C92.6701 106.675 85.0507 106.675 79.0212 106.104C78.6812 100.235 78.5712 94.7729 78.6212 89.8818L85.6207 90.6256C85.6807 94.885 85.6207 97.6464 85.7907 100.408C86.9206 100.642 89.8004 100.408 91.1503 100.235C92.0502 100.174 92.5602 99.827 92.5602 97.9317C92.5602 96.9535 92.5601 96.2097 92.3902 95.1703L93.0101 94.9971Z" fill="#EB5925"/>
<path d="M124.361 89.2429C120.691 94.4194 114.092 97.1197 107.992 99.0761L106.242 91.5458C108.102 91.4337 110.022 91.1994 112.002 90.9752C111.942 88.0405 111.892 83.8423 111.892 79.8785H111.552C109.122 79.9396 107.092 80.337 106.242 80.5714L106.632 77.8711C107.762 78.1054 109.852 78.2787 111.372 78.2787H111.882L111.772 67.9258L118.601 68.4455V78.2787H119.391C120.011 77.3616 121.031 75.7516 121.541 75.344C122.611 75.5784 124.931 78.1054 125.321 79.8887C124.191 79.9498 121.651 79.8887 120.351 79.8887H118.601V89.783C120.691 89.3244 122.491 88.8659 123.961 88.2851L124.361 89.2633V89.2429ZM152.629 88.2647C153.529 94.8779 151.949 104.945 148.399 107.88C145.469 107.075 142.529 105.689 140.39 104.14L140.62 103.509C143.949 103.794 144.629 103.855 145.079 101.491C145.589 98.7908 145.869 94.7047 145.809 91.0261H132.32C129.72 94.134 126.221 96.7223 122.781 97.9858L122.221 97.1808C125.551 93.1558 127.98 89.0697 128.88 85.2179C126.571 85.33 124.651 85.6765 123.861 85.9108L124.261 83.2105C125.391 83.4449 127.481 83.6181 129 83.6181H148.129C148.749 82.5788 149.769 81.142 150.269 80.6835C151.459 81.0299 153.769 83.4449 154.158 85.2281C153.029 85.2893 150.379 85.2281 149.079 85.2281H135.7C135.19 86.6649 134.46 88.0507 133.55 89.4263H145.689C145.689 88.7946 145.629 88.2137 145.579 87.6431L152.639 88.2749L152.629 88.2647ZM136.15 94.8779C133.44 99.769 131.01 101.603 126.501 103.05L125.991 102.245C128.53 99.7181 130 97.4763 131.63 92.9316L136.15 94.8881V94.8779ZM127.461 80.1026C127.231 74.8141 127.071 69.0569 127.011 63.4219L133.9 64.1657C133.9 64.339 133.9 64.5122 133.84 64.9707H142.419C142.419 64.5122 142.359 64.0536 142.359 63.5951L148.959 64.339C148.899 68.9957 149.069 72.6233 149.069 79.1754L142.859 79.6339V78.0239H133.89C133.89 78.5436 133.89 79.0021 133.95 79.4607L127.461 80.0924V80.1026ZM143.999 95.0511C141.909 99.8302 138.02 103.794 133.5 105.577L132.82 104.66C136.09 100.574 137.28 98.3323 138.92 93.217L143.999 95.0613V95.0511ZM142.639 70.728L142.469 66.5909H133.78C133.78 67.9665 133.72 69.3524 133.72 70.728H142.639ZM142.809 76.4241C142.809 74.9873 142.749 73.6015 142.699 72.338H133.73C133.73 73.7136 133.79 75.0994 133.79 76.4241H142.819H142.809Z" fill="#EB5925"/>
<path d="M176.609 91.026V89.3039H170.289C169.329 96.4368 166.619 100.747 161.32 105.924L160.59 105.231C164.15 97.5271 164.32 88.2034 164.2 74.9158L170.799 75.8329V77.6161H176.559C176.559 76.8111 176.499 76.0673 176.499 75.3744L182.818 75.8329C182.878 79.2873 182.928 85.9005 182.878 90.6184L176.609 91.026ZM169.039 69.984C166.609 69.984 164.64 70.4425 163.73 70.6769L164.12 67.9766C165.309 68.2109 167.339 68.3841 168.859 68.3841H177.159C178.009 67.0595 179.138 65.3374 179.638 64.7056C181.668 66.0812 183.588 68.2721 183.988 69.9941C182.858 70.0553 179.418 69.9941 178.118 69.9941H169.029L169.039 69.984ZM176.609 87.6939C176.669 84.8713 176.669 81.8857 176.609 79.2363H170.739C170.739 81.7125 170.679 84.3007 170.569 86.3081C170.509 86.7666 170.509 87.2252 170.459 87.6837H176.609V87.6939ZM209.336 84.7592C208.206 84.8204 204.986 84.7592 203.696 84.7592H202.227C202.117 90.1089 202.057 97.2927 201.997 107.014L195.787 107.299C195.677 97.7513 195.677 91.1381 195.787 84.749H191.837C190.987 92.6869 188.448 98.5563 182.918 103.498L182.358 103.152C185.128 95.5604 186.028 91.7087 186.138 81.9876C186.198 78.1868 186.138 74.3962 186.028 68.4759L192.407 69.7394C196.977 68.4147 199.857 66.4073 202.627 63.2383L207.426 67.9562C203.536 70.952 198.957 71.8691 192.587 71.6958C192.527 74.8037 192.307 78.1358 192.077 82.2219C192.077 82.5073 192.017 82.8537 192.017 83.139H202.627C203.477 81.6411 204.656 79.5114 205.166 78.7676C207.086 80.2044 209.116 82.8537 209.346 84.749L209.336 84.7592Z" fill="#EB5925"/>
<path d="M226.32 70.8384C224.12 83.2598 223.22 92.5835 225.02 100.46L224.46 100.807C219.94 96.4964 218.141 90.2195 218.141 81.711C218.141 78.0324 218.481 73.8852 219.101 69.3405L226.32 70.8384ZM256.288 100.98L255.948 101.326C254.758 100.114 252.338 98.6261 249.628 97.4746C248.388 101.734 245.229 103.915 240.259 103.915C235.289 103.915 232.699 101.153 232.699 98.2796C232.699 95.0597 235.799 91.6053 241.959 91.6053C242.299 91.6053 242.689 91.6053 243.089 91.6664C243.259 87.8147 243.149 82.7503 242.809 77.5739C240.379 77.635 238.179 77.686 236.709 77.686C235.239 77.686 233.489 78.3178 232.65 78.491L232.989 75.7295C233.719 75.9028 235.359 76.076 236.829 76.076C238.299 76.076 240.389 76.0149 242.699 75.9639C242.419 72.8051 242.019 69.636 241.569 66.6504L248.738 67.3433C249.248 69.9927 249.588 72.9273 249.868 75.8518H251.048C252.068 74.0686 252.568 73.1515 253.698 71.888C254.888 72.5809 257.418 75.0468 257.928 77.2988C256.738 77.3599 254.658 77.3599 252.738 77.3599C252.008 77.3599 251.048 77.421 249.968 77.421C250.418 83.8101 250.418 90.1278 250.138 93.9286C252.848 95.4265 255.218 97.7294 256.288 101V100.98ZM242.849 95.5182C240.479 95.345 238.789 96.0379 238.789 98.2185C238.789 99.37 239.409 99.8896 240.149 99.8896C240.999 99.8896 242.009 99.1967 242.409 97.9332C242.579 97.3626 242.749 96.5576 242.859 95.5182H242.849Z" fill="#772D2D"/>
<path d="M270.496 92.9277C276.925 97.1259 284.375 97.5335 293.574 94.5377L294.594 102.873C292.334 103.393 290.134 103.617 288.044 103.617C279.865 103.617 273.086 99.8771 269.926 93.3251L270.486 92.9175L270.496 92.9277ZM271.286 72.7314L271.796 70.0311C272.526 70.2043 274.165 70.5508 275.575 70.6017C278.735 70.7138 284.775 71.0603 289.004 71.2946C289.174 70.3164 289.344 69.3382 289.454 68.2988L296.844 71.2946C295.204 76.0125 291.424 79.5178 286.235 81.8819L285.725 81.3622C287.134 78.8861 288.034 76.1858 288.714 72.8537C284.485 72.6193 278.335 72.334 275.395 72.2219C273.985 72.1608 272.126 72.6295 271.276 72.7416L271.286 72.7314Z" fill="#772D2D"/>
<path d="M342.553 92.756C342.553 97.4128 337.873 103.048 329.404 104.546L329.174 103.975C333.524 100.816 335.723 96.781 335.723 93.6221C335.723 90.7996 333.974 88.6189 330.304 88.4457C326.584 88.2725 324.154 88.4457 320.085 89.5972L319.855 88.7922L320.645 75.6167C318.445 75.6167 316.585 75.6778 315.505 75.6778C314.095 75.6778 312.285 76.1975 311.445 76.3707L311.785 73.7825C312.515 73.9558 314.155 74.0678 315.565 74.0678C316.755 74.0678 318.615 74.0067 320.755 74.0067C320.925 70.7867 321.145 67.5667 321.315 64.7441L328.764 65.3148C328.424 68.0762 328.144 70.9498 327.914 73.8844C330.344 73.8233 332.654 73.8233 334.294 73.7723C335.313 72.3967 336.433 70.9498 337.563 69.7473C338.693 70.0938 342.133 73.5991 342.243 75.4944C341.063 75.4944 338.403 75.4333 336.603 75.3823H335.303C333.834 75.3823 330.904 75.4435 327.744 75.4944C327.464 79.1729 327.234 82.9126 327.014 86.367C329.154 85.9594 331.134 85.7963 332.994 85.7963C339.483 85.7963 342.533 88.9552 342.533 92.756H342.553Z" fill="#772D2D"/>
<path d="M367.873 74.9256C367.253 81.6509 367.023 86.7152 366.973 89.2423C371.202 87.4591 372.442 87.2247 376.572 87.347C383.002 87.5202 386.001 91.0255 386.001 94.9995C386.001 100.003 381.262 105.638 372.572 106.157L372.402 105.638C376.632 104.028 378.832 100.115 378.832 96.6605C378.832 93.5016 376.912 90.679 372.962 90.567C369.233 90.4549 366.023 90.9134 360.373 93.1552L359.863 92.7476C359.973 86.2465 360.033 81.4776 360.203 74.3447L367.883 74.9154L367.873 74.9256ZM366.803 66.8756C367.253 66.8145 367.703 66.8145 368.213 66.8145C372.952 66.8145 377.642 69.1683 380.122 71.8177L375.662 76.3012C373.012 72.4494 371.482 69.8612 366.693 67.4462L366.803 66.8756Z" fill="#772D2D"/>
<path d="M336.723 8.1762C347.782 8.1762 354.162 15.7676 354.162 24.052V24.9691C353.822 30.5531 350.492 36.3001 343.613 40.0908L343.163 39.5201C348.752 32.3873 348.582 17.4388 341.693 12.3133C339.773 27.0376 332.493 37.5026 324.874 36.5243C320.024 35.8926 317.035 32.3261 316.805 26.9765V26.1715C316.805 16.97 323.464 9.72506 333.393 8.40038C334.523 8.22715 335.653 8.16602 336.723 8.16602V8.1762ZM334.573 10.6523C326.894 11.8649 322.724 21.2396 322.724 27.5063C322.724 30.7263 323.794 33.1413 326.054 33.3145C330.114 33.5489 334.523 19.6296 334.573 10.6523Z" fill="#772D2D"/>
<path d="M45.3833 12.981C43.5234 20.98 41.2636 31.3839 40.5336 35.1847L33.4742 34.2064L37.9338 13.0931C36.7439 13.0931 35.734 13.1542 34.9941 13.1542C33.5842 13.1542 31.8343 13.786 30.9844 13.9592L31.3243 11.1978C32.0043 11.371 33.6942 11.5443 35.1041 11.5443C35.954 11.5443 37.0239 11.4831 38.3238 11.4831C39.2237 7.17281 39.9637 3.71846 40.1337 2.74023L47.6931 2.9746C47.4131 3.95282 46.6732 7.23395 45.7132 11.371C47.1231 11.3099 48.483 11.3099 49.7229 11.3099C50.7428 9.98521 51.8728 8.4873 52.9927 7.22376C54.1226 7.45813 57.5623 10.9023 57.6823 12.8587C56.3824 12.8587 53.1627 12.9199 51.4128 12.8587C49.7729 12.8587 47.6331 12.9199 45.3733 12.9708L45.3833 12.981ZM51.0828 31.5571C55.8824 35.47 60.2221 35.4089 66.4316 32.8818L66.8316 40.2388H65.5917C59.5522 40.2388 52.8327 38.6288 50.5829 32.0768L51.0928 31.5571H51.0828ZM62.7719 18.0963C62.9419 17.2913 63.0519 16.4252 63.2219 15.5081L68.8114 17.9842C68.3015 20.9189 64.4618 24.8318 60.2321 26.7271L59.8921 26.3195C60.9621 24.3631 61.752 22.3557 62.3719 19.7675L54.8125 19.9407C53.4026 19.9407 51.6528 20.5113 50.8628 20.6336L51.1428 18.0454C51.8728 18.2186 53.5126 18.3307 54.9225 18.3307C57.8023 18.2695 59.8921 18.2186 62.7719 18.0963Z" fill="#772D2D"/>
<path d="M101.716 29.6517C105.046 30.5688 108.036 32.352 110.295 34.4206L109.895 34.9912C106.226 34.013 104.196 33.6156 101.036 33.7277C99.8463 37.9259 96.4065 41.0847 90.537 41.3191H89.977C84.5574 41.3191 81.8477 38.4456 81.8477 35.3988V35.2256C81.9576 32.0667 84.8374 28.8365 90.537 28.4391C91.5569 28.378 93.2468 28.4391 94.8866 28.5512C94.9466 26.0751 94.9966 23.2016 94.8866 20.0937C92.0069 20.1548 89.3571 20.2058 87.9472 20.2669C86.4773 20.2669 84.6774 20.8375 83.8875 21.0108L84.2275 18.3104C84.9074 18.4837 86.5373 18.6569 88.0072 18.6569C89.4771 18.6569 92.0169 18.5958 94.8366 18.5448C94.7767 16.0177 94.6067 13.3684 94.3867 10.6069C91.4469 10.6681 88.7971 10.7802 87.3272 10.7802C85.8573 10.7802 84.1075 11.3508 83.3175 11.5852L83.6575 8.88485C84.3375 8.99693 86.0273 9.2313 87.4372 9.17016C88.9071 9.17016 91.4469 9.10902 94.2667 9.05807C94.0367 6.75517 93.7567 4.40132 93.4768 1.98633L101.206 2.15956C101.436 4.46246 101.606 6.76536 101.766 8.94599C102.666 8.94599 103.516 8.88485 104.306 8.88485C105.156 7.10163 105.656 6.29663 106.736 4.97195C107.806 5.60372 110.295 8.07985 110.915 10.3216C109.276 10.3216 106.906 10.3828 105.216 10.3216C104.256 10.3828 103.126 10.3828 101.826 10.4337C101.996 13.2563 102.056 15.9566 102.106 18.4327C102.956 18.3716 103.746 18.3716 104.476 18.3716C105.326 16.5884 105.826 15.7222 106.846 14.4077C107.976 15.0395 110.455 17.5156 111.075 19.7574C110.175 19.8185 108.426 19.8185 106.846 19.8185C105.776 19.8185 104.076 19.8797 102.106 19.9306C102.106 23.8945 101.936 27.2877 101.706 29.6517H101.716ZM94.6067 33.2793C91.3369 32.8208 88.4571 33.6258 88.4571 35.6943C88.4571 37.2432 89.697 37.7119 91.3969 37.7119C93.0968 37.7119 94.2767 36.2751 94.6167 33.2793H94.6067Z" fill="#772D2D"/>
<path d="M144.128 13.0939C144.408 16.8336 144.358 23.3347 143.958 26.4324C142.998 34.0239 139.898 38.9659 131.879 43.4596L131.259 42.7158C135.039 38.8029 136.958 34.8391 137.748 29.0308C134.589 31.9044 130.239 33.8608 124.429 35.7052L123.02 28.9799H125.789C125.339 21.5617 125.109 17.3635 124.829 8.33529L129.179 8.85497C133.129 6.72529 134.939 3.21999 136.628 0L142.388 4.25935C139.568 7.13288 136.239 8.97725 131.329 10.1796C131.389 18.0054 131.389 20.4204 131.839 28.3583C133.869 28.0119 135.849 27.4922 137.988 26.9215C138.098 25.8822 138.158 24.7307 138.158 23.5283C136.299 24.2212 135.389 24.6798 133.479 25.5459C133.479 22.3871 133.199 19.7989 132.009 16.7419L132.629 16.2222C135.619 18.3519 136.918 19.6766 138.218 22.0916C138.218 19.269 138.108 16.049 137.938 12.3705L144.148 13.1143L144.128 13.0939ZM152.537 8.48813H159.817L159.477 5.38023L166.076 6.18523C166.306 8.88554 166.416 12.452 166.416 15.9675C166.416 19.483 166.306 23.0392 166.016 25.8007C165.506 30.865 164.436 32.6992 162.746 34.4315C159.587 32.6482 157.217 30.6306 155.237 27.9915L155.467 27.4208C157.277 27.8284 158.567 28.1138 160.037 28.1647C160.267 21.7757 160.267 15.2848 159.927 10.1083H152.537C152.537 17.7609 152.537 32.8215 152.767 42.9502L146.668 43.4698C146.388 30.9363 146.218 10.1695 146.268 4.93188L152.537 5.84897V8.49832V8.48813ZM153.777 15.3968C157.167 17.873 158.407 19.3607 159.877 22.5909C157.617 23.2838 156.947 23.5691 154.567 24.7205C154.567 21.6126 154.287 18.9735 153.097 15.9165L153.777 15.3968Z" fill="#772D2D"/>
<path d="M199.855 24.71C198.555 33.7994 194.716 38.344 186.536 41.4417L185.976 40.922C190.206 35.2259 191.736 31.0277 192.016 24.8221L183.326 24.8832C180.617 24.8832 178.587 25.3418 177.797 25.5762L178.137 22.7026C179.437 22.937 181.467 23.0491 182.936 23.0491L192.136 22.937C192.136 20.6952 192.076 18.158 191.966 15.2335C187.786 16.0996 183.786 15.9773 180.677 15.2946L180.617 14.7749C188.916 13.2261 195.456 8.16172 199.015 2.35352L205.445 7.87641C203.865 9.54754 202.175 10.9232 200.305 12.0135C200.415 16.2117 200.365 19.7781 200.075 22.886L206.055 22.8249C207.245 21.0417 207.745 20.4099 208.874 19.0241C210.064 19.5947 213.054 22.4784 213.504 24.547L199.845 24.7202L199.855 24.71Z" fill="#772D2D"/>
<path d="M227.192 19.4707C240.621 20.3368 246.491 20.2146 259.31 19.6439L259.42 23.8421C247.171 23.3836 240.231 23.4957 226.742 24.1886L227.192 19.4707Z" fill="#772D2D"/>
<path d="M299.54 9.59009C298.24 16.1422 295.98 22.1847 292.6 27.1268C296.21 29.5418 300.5 31.7836 305.299 33.6279L300.67 40.2411C297.4 38.519 292.94 35.0647 289.891 30.5812C285.151 35.8697 278.711 39.3852 270.252 40.0679L270.082 39.5482C280.521 34.7794 287.801 24.6507 289.781 12.056C284.641 12.056 279.111 12.1172 273.982 12.1681C272.622 12.3413 271.162 12.7388 270.482 12.912L270.822 9.91617C271.612 10.0283 273.752 10.2626 275.282 10.2626C279.571 10.2626 284.711 10.2015 290.01 10.2626C290.18 9.05003 290.24 7.90877 290.29 6.69618L299.55 9.56971L299.54 9.59009ZM299.65 2.50816C302.59 3.88379 304.899 5.90137 305.799 7.68459L302.3 10.1607C301.85 7.68459 300.55 4.8722 299.25 3.02784L299.64 2.50816H299.65ZM304.109 0.388672C306.589 0.908354 309.019 2.34512 310.879 4.35252L307.779 7.22605C307.049 4.81106 305.519 2.50816 303.769 0.959303L304.109 0.388672Z" fill="#772D2D"/>
</svg>
