<svg width="300" height="21" viewBox="0 0 300 21" fill="none" xmlns="http://www.w3.org/2000/svg">
<path d="M0.00479669 18.1073C3.22817 15.5047 4.06759 13.5374 5.0653 9.10396L8.93623 10.7794C7.04154 15.3211 4.30743 17.2084 0.110324 18.3521L0 18.112L0.00479669 18.1073ZM12.8935 7.58849C12.9223 12.1066 12.9463 17.9755 12.975 19.3545L9.40151 19.3828C9.37273 18.0273 9.34875 12.2384 9.29119 7.58849H3.54955C2.24965 7.58849 1.27592 7.80028 0.896981 7.90853L1.08405 6.55308C1.67884 6.7131 2.65257 6.74134 3.35768 6.74134H9.28639L9.23362 1.50781L12.8359 2.11965C12.8359 2.43968 12.8647 4.32225 12.8647 6.74134H14.1119C14.6827 5.94596 14.8985 5.62592 15.4645 5.01409C16.0353 5.27765 17.4408 6.68957 17.6854 7.5932H12.8935V7.58849Z" fill="#EB5925"/>
<path d="M22.9526 4.45312C25.5524 4.48136 28.5312 5.54031 29.4761 6.79221L27.0682 9.18307C26.0129 7.21579 24.6315 5.88858 22.8711 4.66491L22.9526 4.45312ZM24.9816 15.452C30.5842 14.4401 34.9444 10.9621 39.0599 5.72856L39.3285 5.86034C37.5394 13.0611 31.721 17.5228 25.8163 19.0618L24.9768 15.4473L24.9816 15.452Z" fill="#EB5925"/>
<path d="M61.2268 7.37972C60.4402 12.745 56.8427 17.8185 50.1801 18.8539L49.9642 18.6139C53.2931 16.143 55.8929 13.0086 56.4877 8.86694C53.6193 8.86694 50.3144 8.86694 47.3117 8.89518C46.6641 8.97519 45.9302 9.15874 45.6328 9.26698L45.7671 7.91154C46.1461 7.96331 47.2013 8.04332 47.9064 8.04332C50.3959 8.01508 53.485 8.01508 56.598 8.04332C56.6268 7.53973 56.6508 7.03615 56.6268 6.52786L61.2316 7.37972H61.2268ZM50.4487 4.11347C49.1776 4.11347 48.2038 4.32526 47.7961 4.4335L47.988 3.07806C48.5828 3.20984 49.5565 3.26631 50.2616 3.26631H56.8954C57.4662 2.47093 57.6821 2.1509 58.2481 1.53906C58.8189 1.77909 60.2243 3.21454 60.469 4.11347H50.4535H50.4487Z" fill="#EB5925"/>
<path d="M77.8944 10.5047C77.9232 11.5165 77.9232 17.1972 77.9472 19.4045H74.4552C74.4264 17.729 74.3209 12.632 74.2681 10.8247C72.2631 11.8884 69.8264 12.4437 66.8764 12.3637L66.8477 12.1001C71.7211 10.3211 75.1603 7.39844 76.4842 1.95312L80.4079 3.65214C79.2183 6.49481 77.4819 8.80566 75.074 10.3447L77.8896 10.5047H77.8944Z" fill="#EB5925"/>
<path d="M88.4448 4.45312C91.0446 4.48136 94.0234 5.54031 94.9683 6.79221L92.5604 9.18307C91.5051 7.21579 90.1237 5.88858 88.3633 4.66491L88.4448 4.45312ZM90.4786 15.452C96.0811 14.4401 100.441 10.9621 104.557 5.72856L104.826 5.86034C103.041 13.0611 97.218 17.5228 91.318 19.0618L90.4786 15.4473V15.452Z" fill="#EB5925"/>
<path d="M122.925 19.454L122.762 19.694C116.967 18.1786 114.367 10.7424 120.272 5.10886C117.62 5.1371 114.396 5.16063 113.259 5.16063C112.583 5.16063 111.715 5.42419 111.336 5.5042L111.47 4.30877C111.82 4.38878 112.607 4.44055 113.283 4.44055C114.828 4.41231 119.673 4.36054 122.435 4.33231C123.006 3.50868 123.683 2.55328 124.114 2.125C125.088 2.57682 126.551 3.80048 126.93 4.93943C126.335 4.9912 125.146 5.01944 124.249 5.01944C118.483 9.96117 120.215 16.2019 122.92 19.4446L122.925 19.454ZM123.654 7.6362C125.035 8.29981 126.119 9.23168 126.604 10.0271L124.925 11.1707C124.709 10.0271 124.086 8.72809 123.462 7.84799L123.649 7.6362H123.654ZM125.793 6.59609C126.983 6.83612 128.148 7.49972 129.041 8.42688L127.554 9.73056C127.203 8.64338 126.469 7.57973 125.63 6.85965L125.793 6.59609Z" fill="#EB5925"/>
<path d="M146.346 12.5779C147.972 13.6133 148.73 14.9405 148.73 16.1924C148.73 18.1032 146.916 19.7787 143.775 19.7787C143.64 19.7787 143.477 19.7787 143.314 19.7504C143.045 19.7504 142.743 19.6986 142.446 19.6704C139.549 19.2704 138.115 17.9949 138.167 14.3569C138.167 13.585 138.278 12.4978 138.436 11.1942H136.268C135.591 11.1942 134.723 11.4577 134.32 11.5377L134.507 10.2623C134.834 10.3423 135.644 10.4506 136.321 10.4506H138.541C138.704 9.36338 138.92 8.13971 139.189 6.8125H136.536C135.831 6.8125 134.968 7.07606 134.589 7.15607L134.752 5.88063C135.102 5.96064 135.889 6.06889 136.565 6.06889H139.352C139.678 4.6099 140.081 3.01443 140.542 1.36719L143.928 2.35083C143.52 3.70627 143.17 4.95347 142.902 6.06889H144.254C144.744 5.45706 145.31 4.79345 145.852 4.2381C146.446 4.55813 147.881 5.77709 148.154 6.81721C147.449 6.81721 145.746 6.81721 144.959 6.78897H142.739C142.441 8.19619 142.225 9.41985 142.062 10.4553H144.254C144.744 9.84343 145.31 9.20806 145.852 8.62447C146.446 8.94451 147.881 10.1635 148.154 11.2036C147.449 11.2036 145.717 11.2036 144.931 11.1753H141.981C141.846 12.2625 141.765 13.1662 141.712 13.938C141.496 16.8089 141.899 18.1879 143.041 18.3997C145.856 18.9033 147.103 15.9806 146.154 12.7426L146.346 12.5826V12.5779Z" fill="#EB5925"/>
<path d="M154.062 20.76C155.228 19.1645 155.607 18.3974 156.149 16.19L158.557 17.2537C157.718 18.8492 156.255 20.2799 154.278 21L154.062 20.76ZM155.118 15.2064C154.931 11.1683 154.873 6.06656 154.82 2.00493L157.799 2.24496V2.9368H160.044C160.044 2.645 160.015 2.3532 160.015 2.06141L162.912 2.30143C162.965 6.09951 162.994 10.6177 162.965 14.9711L160.149 15.1829V14.0157H157.957C157.986 14.3357 157.986 14.6275 158.01 14.9476L155.113 15.2111L155.118 15.2064ZM157.77 3.68041V6.33483H160.126C160.097 5.40296 160.097 4.52757 160.073 3.68041H157.77ZM160.178 9.97288C160.149 9.01748 160.149 8.03384 160.126 7.07844H157.77C157.77 8.03384 157.799 8.98924 157.823 9.97288H160.178ZM160.178 13.2674V10.7165H157.823C157.852 11.5684 157.876 12.4155 157.933 13.2674H160.178ZM159.339 16.3783C161.07 16.5666 162.452 16.8819 163.996 18.2373C163.267 18.7174 162.509 19.4045 161.828 20.1764C161.286 18.9527 160.418 17.6773 159.257 16.6701L159.339 16.3783ZM178.698 16.8537C178.156 16.8819 177.264 16.8537 176.693 16.8537H176.262C176.18 18.4209 175.993 19.7246 175.369 20.92C173.882 20.6282 172.88 20.0446 171.796 19.4328L171.877 19.0092C172.53 19.061 172.933 19.0892 173.475 19.061C173.503 18.4491 173.503 17.7055 173.503 16.8537H168.198C168.198 18.3409 168.227 19.7246 168.227 20.6282L165.359 20.7882C165.359 19.9363 165.33 18.4774 165.33 16.8819C164.409 16.9101 163.68 17.0937 163.325 17.1737L163.512 15.9265C163.92 16.0065 164.649 16.0865 165.325 16.1147C165.296 13.8557 165.272 11.4931 165.244 10.1094L168.194 10.4812V11.1965H169.412C169.412 10.2929 169.412 9.49753 169.383 8.85746H166.136C164.97 8.85746 164.025 9.06925 163.594 9.1775L163.781 7.9303C164.351 8.03855 165.325 8.11856 166.054 8.11856H167.191C167.191 7.53496 167.162 6.76311 167.162 5.91596C166.241 5.96773 165.512 6.12775 165.186 6.20775L165.373 4.96056C165.781 5.04056 166.51 5.12057 167.162 5.14881C167.133 4.4052 167.133 3.66159 167.133 2.91797C165.997 2.91797 165.047 3.12976 164.644 3.23801L164.831 1.99081C165.373 2.09906 166.376 2.17907 167.105 2.17907C167.105 1.38368 167.105 0.640072 167.076 0L169.892 0.423577C169.892 0.903631 169.863 1.51076 169.863 2.17907H171.326C171.326 1.40722 171.326 0.663604 171.297 0L174.141 0.423577C174.141 0.903631 174.113 1.51076 174.113 2.17907H174.52C174.899 1.619 175.389 0.85186 175.657 0.560063C176.549 1.19543 177.307 2.15554 177.47 2.92268C176.928 2.95092 175.547 2.92268 174.952 2.92268H174.113C174.113 3.63805 174.084 4.40991 174.084 5.15352H174.381C174.731 4.62169 175.168 3.92985 175.437 3.61452C176.276 4.27813 176.789 5.18176 176.952 5.89713C176.41 5.92537 175.355 5.89713 174.784 5.89713H174.079C174.108 6.69251 174.108 7.46436 174.132 8.12797H175.321C175.7 7.59614 176.161 6.96078 176.429 6.69251C177.322 7.30435 178.08 8.1515 178.271 8.87158C177.729 8.89982 176.324 8.87158 175.724 8.87158H171.988V11.2107H173.398C173.398 10.9471 173.369 10.6788 173.369 10.4388L176.132 10.7824C176.242 12.4814 176.324 14.4204 176.295 16.0441C176.645 15.4606 177.082 14.6887 177.35 14.3451C178.056 15.037 178.54 16.0724 178.679 16.8678L178.698 16.8537ZM168.194 11.9402V13.7992H169.465C169.436 13.1638 169.436 12.552 169.436 11.9402H168.189H168.194ZM168.194 14.5428V16.11H169.493C169.493 15.6065 169.493 15.0746 169.465 14.5428H168.194ZM169.872 2.90856V5.1394H171.388C171.359 4.39579 171.359 3.65217 171.359 2.90856H169.872ZM169.872 5.88301C169.872 6.67839 169.901 7.45025 169.925 8.11385H171.441C171.412 7.45025 171.388 6.67839 171.388 5.88301H169.872ZM172.036 11.9402C172.036 12.552 172.036 13.1638 172.064 13.7992H173.47C173.47 13.1638 173.441 12.5238 173.441 11.9402H172.031H172.036ZM173.499 16.11C173.499 15.6065 173.499 15.0746 173.47 14.5428H172.064C172.093 15.0746 172.117 15.5782 172.117 16.11H173.499Z" fill="#EB5925"/>
<path d="M181.004 20.1025C183.522 18.1352 185.498 15.4008 186.746 11.0709L190.429 12.7464C188.751 16.6527 185.067 19.4153 181.143 20.4225L181.009 20.1025H181.004ZM191.159 3.5265C192.377 10.8308 195.519 14.6572 201.61 16.3844C200.392 17.5516 199.418 18.827 198.905 20.2907C192.055 16.8645 190.295 11.9227 190.108 3.5265H187.403C186.237 3.5265 185.59 3.73829 185.182 3.84653L185.374 2.59933C185.887 2.70758 186.592 2.78759 187.321 2.78759H189.082C189.489 2.204 190.19 1.14035 190.434 0.820312C191.163 1.48392 192.166 2.49579 192.463 3.5312H191.163L191.159 3.5265Z" fill="#EB5925"/>
<path d="M215.058 19.454L214.894 19.694C209.1 18.1786 206.5 10.7424 212.405 5.10886C209.752 5.1371 206.529 5.16063 205.392 5.16063C204.716 5.16063 203.848 5.42419 203.469 5.5042L203.603 4.30877C203.953 4.38878 204.74 4.44055 205.416 4.44055C206.961 4.41231 211.805 4.36054 214.568 4.33231C215.139 3.50868 215.815 2.55328 216.247 2.125C217.221 2.57682 218.684 3.80048 219.063 4.93943C218.468 4.9912 217.278 5.01944 216.381 5.01944C210.616 9.96117 212.347 16.2019 215.053 19.4446L215.058 19.454ZM215.791 7.6362C217.173 8.29981 218.257 9.23168 218.741 10.0271L217.063 11.1707C216.847 10.0271 216.223 8.72809 215.6 7.84799L215.791 7.6362ZM217.931 6.59609C219.12 6.83612 220.286 7.49972 221.178 8.42688L219.691 9.73056C219.341 8.64338 218.607 7.57973 217.768 6.85965L217.931 6.59609Z" fill="#EB5925"/>
<path d="M230.886 13.6728C230.967 16.4355 231.101 18.2663 234.651 19.1982V19.4617C234.138 19.5417 233.625 19.57 233.164 19.57C230.348 19.57 228.319 18.1863 227.125 14.9765L230.886 13.6728ZM238.44 8.99467L236.896 9.07468C237.246 10.5619 237.572 11.9974 237.817 13.2963C235.572 13.0845 235.054 13.0045 232.996 12.6327L233.025 12.3692L234.325 12.2091C234.109 11.4373 233.836 10.4019 233.538 9.25823C232.209 9.33824 231.02 9.41825 230.344 9.47002C229.667 9.52179 228.799 9.81358 228.42 9.92183L228.502 8.69817C228.881 8.74994 229.667 8.77817 230.344 8.7264C231.02 8.67463 232.133 8.61816 233.351 8.53815C233.082 7.45097 232.78 6.30731 232.483 5.19189C231.643 5.24366 230.914 5.30014 230.425 5.35191C229.749 5.40368 228.881 5.69548 228.502 5.80372L228.583 4.58006C228.962 4.63183 229.749 4.66007 230.425 4.6083C230.914 4.58006 231.562 4.52829 232.291 4.47652C232.075 3.70467 231.883 2.96105 231.696 2.32569L235.188 1.76562C235.351 2.50924 235.538 3.33286 235.759 4.23649C235.975 4.20825 236.191 4.20825 236.383 4.18472C236.762 3.54935 237.169 3.04106 237.63 2.42923C238.201 2.82927 239.28 3.57289 239.74 4.76831C239.361 4.79655 238.685 4.82008 238.033 4.84832C237.462 4.87656 236.733 4.92833 235.946 4.9801L236.733 8.32636C237.083 8.29812 237.438 8.29812 237.764 8.27459C238.172 7.66276 238.551 7.13093 239.035 6.54734C239.606 6.91914 240.685 7.66276 241.122 8.85818C240.551 8.90995 239.309 8.96643 238.44 8.98996V8.99467Z" fill="#EB5925"/>
<path d="M257.288 14.1138C258.885 14.5374 260.319 15.361 261.404 16.3164L261.216 16.58C259.456 16.1282 258.482 15.9446 256.967 15.9964C256.401 17.9354 254.746 19.3944 251.93 19.5027H251.661C249.062 19.5027 247.762 18.1755 247.762 16.7683V16.6882C247.814 15.2293 249.196 13.7373 251.93 13.5538C252.419 13.5255 253.23 13.5538 254.017 13.6055C254.045 12.4619 254.069 11.1347 254.017 9.69923C252.635 9.72746 251.364 9.751 250.688 9.77923C249.983 9.77923 249.119 10.0428 248.74 10.1228L248.903 8.8756C249.23 8.95561 250.011 9.03562 250.716 9.03562C251.422 9.03562 252.64 9.00738 253.993 8.98385C253.964 7.81666 253.882 6.593 253.777 5.31756C252.371 5.3458 251.095 5.39757 250.395 5.39757C249.695 5.39757 248.851 5.66113 248.472 5.76937L248.635 4.52218C248.961 4.57395 249.772 4.68219 250.448 4.65396C251.153 4.65396 252.371 4.62572 253.724 4.60219C253.614 3.53854 253.479 2.45136 253.345 1.33594L257.053 1.41595C257.163 2.47959 257.24 3.54324 257.322 4.55041C257.753 4.55041 258.161 4.52218 258.54 4.52218C258.948 3.69855 259.187 3.32675 259.705 2.71492C260.219 3.00671 261.413 4.15037 261.71 5.18578C260.924 5.18578 259.787 5.21402 258.976 5.18578C258.516 5.21402 257.974 5.21402 257.35 5.23755C257.432 6.54123 257.461 7.78842 257.485 8.93208C257.892 8.90384 258.271 8.90384 258.621 8.90384C259.029 8.08022 259.269 7.68018 259.758 7.07305C260.3 7.36485 261.49 8.5085 261.787 9.54391C261.356 9.57215 260.516 9.57215 259.758 9.57215C259.245 9.57215 258.43 9.60039 257.485 9.62392C257.485 11.4547 257.403 13.022 257.293 14.1138H257.288ZM253.877 15.7846C252.309 15.5728 250.928 15.9446 250.928 16.9C250.928 17.6154 251.522 17.8319 252.333 17.8319C253.144 17.8319 253.714 17.1683 253.877 15.7846Z" fill="#EB5925"/>
<path d="M282.263 5.3747H279.774C279.961 8.16561 279.961 11.06 279.342 13.2626C279.913 13.7662 280.153 14.2463 280.182 14.9099C280.263 17.329 277.203 19.028 274.603 19.4516L274.522 19.2398C275.874 18.6044 276.958 17.1407 277.011 15.6817C276.469 15.9735 275.793 16.1336 274.982 16.2136C272.872 16.3453 271.816 15.3899 271.816 14.3028C271.816 12.9991 273.303 11.5401 276.229 11.5119C276.474 9.86462 276.445 7.66202 276.339 5.3747H270.545C269.869 5.3747 269.001 5.61473 268.598 5.69474L268.79 4.47107C269.14 4.55108 269.926 4.63109 270.603 4.63109H276.316C276.234 3.32742 276.124 2.00021 276.018 0.78125L279.4 1.34131C279.51 2.37672 279.644 3.49214 279.726 4.6358H281.649C282.11 4.0522 282.652 3.41213 283.194 2.85678C283.789 2.96502 285.439 4.53226 285.439 5.45942C284.734 5.45942 283.055 5.40765 282.273 5.37941L282.263 5.3747ZM276.119 12.9191C275.903 12.6273 275.606 12.4155 275.39 12.4155C274.498 12.4155 274.171 12.8391 274.171 13.2909C274.171 13.7427 274.522 14.1945 275.011 14.1945C275.634 14.1945 276.013 13.8509 276.119 12.9191Z" fill="#EB5925"/>
<path d="M293.367 17.3317C293.367 15.5526 294.83 14.1172 296.672 14.1172C298.514 14.1172 300.001 15.6044 300.001 17.3317C300.001 19.1625 298.485 20.5744 296.643 20.5744C294.801 20.5744 293.367 19.1154 293.367 17.3317ZM298.701 17.2517C298.701 16.188 297.751 15.2844 296.672 15.2844C295.593 15.2844 294.614 16.188 294.614 17.2517C294.614 18.3153 295.564 19.2707 296.672 19.2707C297.78 19.2707 298.701 18.3388 298.701 17.2517Z" fill="#EB5925"/>
</svg>
