<svg width="389" height="27" viewBox="0 0 389 27" fill="none" xmlns="http://www.w3.org/2000/svg">
<path d="M0.00621971 23.2719C4.18587 19.9257 5.27431 17.3963 6.56801 11.6962L11.5873 13.8504C9.13054 19.6897 5.5853 22.1161 0.143053 23.5866L0 23.278L0.00621971 23.2719ZM16.7186 9.7477C16.7559 15.5568 16.787 23.1025 16.8243 24.8754L12.1906 24.9118C12.1533 23.169 12.1222 15.7262 12.0476 9.7477H4.60259C2.91704 9.7477 1.65444 10.02 1.16309 10.1592L1.40565 8.41646C2.1769 8.6222 3.4395 8.65851 4.3538 8.65851H12.0414L11.9729 1.92969L16.6439 2.71633C16.6439 3.1278 16.6813 5.54824 16.6813 8.65851H18.2984C19.0385 7.63587 19.3184 7.2244 20.0523 6.43776C20.7925 6.77662 22.6149 8.59195 22.9321 9.75376H16.7186V9.7477Z" fill="#EB5925"/>
<path d="M29.762 5.7168C33.1331 5.7531 36.9955 7.1146 38.2208 8.72419L35.0985 11.7982C33.7302 9.26879 31.9389 7.56238 29.6562 5.9891L29.762 5.7168ZM32.3929 19.8582C39.6575 18.5572 45.3113 14.0855 50.6478 7.35664L50.9961 7.52608C48.6761 16.7843 41.1316 22.5207 33.4752 24.4994L32.3867 19.8522L32.3929 19.8582Z" fill="#EB5925"/>
<path d="M79.3922 9.47621C78.3721 16.3745 73.7073 22.8975 65.0682 24.2288L64.7883 23.9202C69.1048 20.7434 72.4758 16.7133 73.2471 11.3884C69.5277 11.3884 65.2423 11.3884 61.3488 11.4247C60.5091 11.5275 59.5575 11.7635 59.1719 11.9027L59.346 10.16C59.8374 10.2265 61.2057 10.3294 62.12 10.3294C65.3481 10.2931 69.3535 10.2931 73.3901 10.3294C73.4275 9.68195 73.4586 9.03448 73.4275 8.38096L79.3984 9.47621H79.3922ZM65.4165 5.27675C63.7682 5.27675 62.5056 5.54905 61.977 5.68822L62.2258 3.94551C62.997 4.11494 64.2596 4.18755 65.1739 4.18755H73.7758C74.5159 3.16491 74.7958 2.75344 75.5297 1.9668C76.2699 2.2754 78.0922 4.12099 78.4094 5.27675H65.4227H65.4165Z" fill="#EB5925"/>
<path d="M101.004 13.5066C101.041 14.8075 101.041 22.1112 101.072 24.9492H96.5441C96.5068 22.795 96.37 16.2417 96.3016 13.918C93.7017 15.2856 90.5421 15.9996 86.717 15.8967L86.6797 15.5579C92.9989 13.2706 97.4584 9.51284 99.1751 2.51172L104.263 4.69617C102.72 8.35103 100.469 11.3221 97.3465 13.3008L100.997 13.5066H101.004Z" fill="#EB5925"/>
<path d="M114.684 5.7168C118.055 5.7531 121.917 7.1146 123.143 8.72419L120.02 11.7982C118.652 9.26879 116.861 7.56238 114.578 5.9891L114.684 5.7168ZM117.321 19.8582C124.586 18.5572 130.239 14.0855 135.576 7.35664L135.924 7.52608C133.61 16.7843 126.06 22.5207 118.409 24.4994L117.321 19.8522V19.8582Z" fill="#EB5925"/>
<path d="M159.394 25.0165L159.183 25.3251C151.669 23.3766 148.298 13.8159 155.955 6.57272C152.515 6.60903 148.335 6.63929 146.861 6.63929C145.984 6.63929 144.859 6.97815 144.367 7.08102L144.541 5.54404C144.995 5.64691 146.015 5.71347 146.892 5.71347C148.895 5.67716 155.177 5.6106 158.76 5.57429C159.5 4.51535 160.377 3.28698 160.936 2.73633C162.199 3.31723 164.096 4.89052 164.587 6.35488C163.816 6.42145 162.274 6.45775 161.111 6.45775C153.635 12.8114 155.88 20.8352 159.388 25.0044L159.394 25.0165ZM160.339 9.82216C162.131 10.6754 163.536 11.8735 164.165 12.8961L161.988 14.3665C161.708 12.8961 160.899 11.226 160.091 10.0945L160.333 9.82216H160.339ZM163.113 8.48487C164.656 8.79348 166.167 9.64668 167.324 10.8387L165.396 12.5149C164.942 11.1171 163.99 9.74955 162.902 8.82373L163.113 8.48487Z" fill="#EB5925"/>
<path d="M189.765 16.1696C191.873 17.5008 192.856 19.2072 192.856 20.8168C192.856 23.2736 190.505 25.4278 186.431 25.4278C186.257 25.4278 186.045 25.4278 185.834 25.3914C185.486 25.3914 185.094 25.3249 184.708 25.2886C180.951 24.7742 179.092 23.1344 179.16 18.4569C179.16 17.4645 179.303 16.0667 179.508 14.3906H176.697C175.82 14.3906 174.694 14.7294 174.172 14.8323L174.414 13.1924C174.837 13.2953 175.889 13.4345 176.766 13.4345H179.645C179.857 12.0367 180.137 10.4634 180.485 8.75698H177.045C176.131 8.75698 175.012 9.09584 174.52 9.19871L174.732 7.55886C175.186 7.66173 176.206 7.80091 177.083 7.80091H180.696C181.119 5.92507 181.642 3.87374 182.239 1.75586L186.63 3.02054C186.101 4.76325 185.647 6.3668 185.299 7.80091H187.053C187.687 7.01426 188.421 6.16106 189.124 5.44703C189.895 5.8585 191.755 7.42574 192.11 8.76303C191.195 8.76303 188.987 8.76303 187.967 8.72672H185.087C184.702 10.536 184.422 12.1093 184.21 13.4405H187.053C187.687 12.6539 188.421 11.837 189.124 11.0867C189.895 11.4981 191.755 13.0654 192.11 14.4027C191.195 14.4027 188.95 14.4027 187.93 14.3663H184.105C183.931 15.7642 183.825 16.926 183.756 17.9183C183.477 21.6095 183.999 23.3825 185.479 23.6548C189.13 24.3022 190.747 20.5445 189.516 16.3814L189.765 16.1756V16.1696Z" fill="#EB5925"/>
<path d="M199.766 26.6914C201.277 24.6401 201.768 23.6537 202.471 20.8158L205.593 22.1833C204.505 24.2346 202.608 26.0742 200.046 27L199.766 26.6914ZM201.134 19.5511C200.891 14.3593 200.817 7.79986 200.748 2.57777L204.611 2.88637V3.77588H207.522C207.522 3.40072 207.484 3.02555 207.484 2.65038L211.241 2.95899C211.309 7.84222 211.347 13.6513 211.309 19.2485L207.658 19.5208V18.0202H204.816C204.853 18.4316 204.853 18.8068 204.884 19.2183L201.128 19.5571L201.134 19.5511ZM204.573 4.73196V8.14478H207.627C207.59 6.94666 207.59 5.82116 207.559 4.73196H204.573ZM207.696 12.8223C207.658 11.5939 207.658 10.3292 207.627 9.10085H204.573C204.573 10.3292 204.611 11.5576 204.642 12.8223H207.696ZM207.696 17.058V13.7783H204.642C204.679 14.8736 204.71 15.9628 204.785 17.058H207.696ZM206.607 21.0578C208.853 21.2999 210.644 21.7053 212.647 23.448C211.701 24.0652 210.719 24.9487 209.835 25.9411C209.132 24.3678 208.007 22.7279 206.502 21.433L206.607 21.0578ZM231.71 21.669C231.007 21.7053 229.85 21.669 229.11 21.669H228.55C228.445 23.684 228.202 25.3601 227.394 26.8971C225.465 26.522 224.166 25.7716 222.76 24.985L222.866 24.4404C223.711 24.5069 224.234 24.5433 224.937 24.5069C224.974 23.7203 224.974 22.7642 224.974 21.669H218.095C218.095 23.5811 218.132 25.3602 218.132 26.522L214.413 26.7277C214.413 25.6325 214.376 23.7566 214.376 21.7053C213.182 21.7416 212.236 21.9776 211.776 22.0805L212.018 20.4769C212.547 20.5798 213.493 20.6827 214.369 20.719C214.332 17.8144 214.301 14.7768 214.264 12.9978L218.089 13.4758V14.3956H219.669C219.669 13.2337 219.669 12.2111 219.631 11.3882H215.421C213.909 11.3882 212.684 11.6605 212.124 11.7996L212.367 10.1961C213.107 10.3353 214.37 10.4381 215.315 10.4381H216.789C216.789 9.68781 216.752 8.69543 216.752 7.60623C215.557 7.67279 214.612 7.87853 214.189 7.9814L214.432 6.37786C214.96 6.48073 215.906 6.58359 216.752 6.6199C216.714 5.66383 216.714 4.70775 216.714 3.75168C215.24 3.75168 214.009 4.02398 213.486 4.16316L213.729 2.55961C214.432 2.69879 215.732 2.80166 216.677 2.80166C216.677 1.77902 216.677 0.822949 216.64 0L220.291 0.544599C220.291 1.16181 220.253 1.9424 220.253 2.80166H222.15C222.15 1.80928 222.15 0.853205 222.113 0L225.801 0.544599C225.801 1.16181 225.764 1.9424 225.764 2.80166H226.293C226.784 2.08158 227.418 1.09525 227.767 0.720081C228.924 1.53698 229.906 2.7714 230.118 3.75773C229.415 3.79404 227.624 3.75773 226.852 3.75773H225.764C225.764 4.6775 225.727 5.66988 225.727 6.62595H226.112C226.566 5.94218 227.132 5.05267 227.481 4.64724C228.569 5.50045 229.235 6.66226 229.446 7.58203C228.743 7.61833 227.375 7.58203 226.635 7.58203H225.72C225.758 8.60466 225.758 9.59704 225.789 10.4502H227.331C227.823 9.76647 228.42 8.94957 228.768 8.60466C229.925 9.3913 230.908 10.4805 231.157 11.4063C230.454 11.4426 228.631 11.4063 227.854 11.4063H223.009V14.4137H224.837C224.837 14.0749 224.8 13.7299 224.8 13.4213L228.382 13.8631C228.526 16.0475 228.631 18.5406 228.594 20.6282C229.048 19.8779 229.614 18.8855 229.962 18.4437C230.877 19.3333 231.505 20.6645 231.685 21.6871L231.71 21.669ZM218.089 15.3516V17.7418H219.737C219.7 16.9249 219.7 16.1383 219.7 15.3516H218.083H218.089ZM218.089 18.6979V20.7129H219.774C219.774 20.0654 219.774 19.3817 219.737 18.6979H218.089ZM220.266 3.73958V6.6078H222.231C222.194 5.65173 222.194 4.69565 222.194 3.73958H220.266ZM220.266 7.56387C220.266 8.58651 220.303 9.57889 220.334 10.4321H222.3C222.262 9.57889 222.231 8.58651 222.231 7.56387H220.266ZM223.071 15.3516C223.071 16.1383 223.071 16.9249 223.108 17.7418H224.931C224.931 16.9249 224.893 16.102 224.893 15.3516H223.065H223.071ZM224.968 20.7129C224.968 20.0654 224.968 19.3817 224.931 18.6979H223.108C223.146 19.3817 223.177 20.0291 223.177 20.7129H224.968Z" fill="#EB5925"/>
<path d="M234.703 25.8382C237.968 23.3089 240.531 19.7932 242.148 14.2262L246.925 16.3804C244.748 21.4028 239.971 24.9548 234.884 26.2497L234.709 25.8382H234.703ZM247.87 4.52626C249.45 13.9176 253.524 18.8371 261.423 21.0579C259.843 22.5585 258.581 24.1984 257.915 26.0803C249.033 21.6751 246.751 15.3214 246.508 4.52626H243C241.489 4.52626 240.649 4.79856 240.12 4.93773L240.369 3.33419C241.035 3.47337 241.949 3.57623 242.894 3.57623H245.177C245.706 2.8259 246.614 1.45835 246.931 1.04688C247.876 1.90008 249.176 3.20107 249.562 4.53231H247.876L247.87 4.52626Z" fill="#EB5925"/>
<path d="M278.855 25.0165L278.643 25.3251C271.13 23.3766 267.759 13.8159 275.415 6.57272C271.976 6.60903 267.796 6.63929 266.322 6.63929C265.445 6.63929 264.319 6.97815 263.828 7.08102L264.002 5.54404C264.456 5.64691 265.476 5.71347 266.353 5.71347C268.356 5.67716 274.638 5.6106 278.221 5.57429C278.961 4.51535 279.838 3.28698 280.397 2.73633C281.66 3.31723 283.557 4.89052 284.048 6.35488C283.277 6.42145 281.735 6.45775 280.572 6.45775C273.095 12.8114 275.341 20.8352 278.849 25.0044L278.855 25.0165ZM279.807 9.82216C281.598 10.6754 283.003 11.8735 283.632 12.8961L281.455 14.3665C281.175 12.8961 280.366 11.226 279.558 10.0945L279.807 9.82216ZM282.581 8.48487C284.123 8.79348 285.634 9.64668 286.791 10.8387L284.863 12.5149C284.409 11.1171 283.458 9.74955 282.369 8.82373L282.581 8.48487Z" fill="#EB5925"/>
<path d="M299.384 17.5729C299.49 21.1249 299.664 23.4788 304.267 24.6769V25.0158C303.601 25.1187 302.936 25.155 302.338 25.155C298.687 25.155 296.057 23.376 294.508 19.2491L299.384 17.5729ZM309.18 11.5582L307.177 11.661C307.631 13.5732 308.054 15.4188 308.372 17.0889C305.461 16.8166 304.789 16.7137 302.121 16.2357L302.158 15.8968L303.844 15.6911C303.564 14.6987 303.209 13.3674 302.824 11.897C301.101 11.9999 299.558 12.1028 298.681 12.1693C297.804 12.2359 296.678 12.611 296.187 12.7502L296.293 11.1769C296.784 11.2435 297.804 11.2798 298.681 11.2132C299.558 11.1467 301.001 11.0741 302.581 10.9712C302.233 9.5734 301.841 8.10298 301.455 6.66887C300.367 6.73543 299.421 6.80805 298.787 6.87461C297.91 6.94117 296.784 7.31634 296.293 7.45551L296.399 5.88223C296.89 5.94879 297.91 5.9851 298.787 5.91854C299.421 5.88223 300.261 5.81567 301.206 5.7491C300.927 4.75672 300.678 3.80065 300.435 2.98375L304.963 2.26367C305.175 3.21975 305.417 4.27869 305.703 5.4405C305.983 5.40419 306.263 5.40419 306.512 5.37394C307.003 4.55704 307.532 3.90352 308.129 3.11688C308.869 3.63122 310.269 4.58729 310.866 6.12427C310.374 6.16058 309.497 6.19083 308.651 6.22714C307.911 6.26345 306.966 6.33001 305.946 6.39657L306.966 10.6989C307.42 10.6626 307.88 10.6626 308.303 10.6323C308.832 9.8457 309.323 9.16192 309.951 8.41159C310.692 8.88962 312.091 9.8457 312.657 11.3827C311.917 11.4492 310.306 11.5219 309.18 11.5521V11.5582Z" fill="#EB5925"/>
<path d="M333.618 18.1514C335.689 18.696 337.549 19.7549 338.954 20.9833L338.712 21.3222C336.429 20.7413 335.167 20.5053 333.201 20.5718C332.467 23.0649 330.322 24.9407 326.671 25.0799H326.322C322.951 25.0799 321.266 23.3735 321.266 21.5642V21.4613C321.334 19.5855 323.125 17.6673 326.671 17.4313C327.305 17.395 328.356 17.4313 329.376 17.4979C329.413 16.0275 329.445 14.321 329.376 12.4755C327.585 12.5118 325.937 12.542 325.06 12.5783C324.145 12.5783 323.026 12.9172 322.534 13.0201L322.746 11.4165C323.169 11.5194 324.183 11.6223 325.097 11.6223C326.011 11.6223 327.591 11.5859 329.345 11.5557C329.308 10.055 329.202 8.48173 329.065 6.84188C327.243 6.87819 325.588 6.94475 324.68 6.94475C323.772 6.94475 322.677 7.28362 322.186 7.42279L322.398 5.81925C322.821 5.88581 323.872 6.02499 324.749 5.98868C325.663 5.98868 327.243 5.95237 328.997 5.92212C328.854 4.55457 328.679 3.15677 328.505 1.72266L333.313 1.82552C333.456 3.19307 333.556 4.56062 333.662 5.85556C334.221 5.85556 334.75 5.81925 335.241 5.81925C335.77 4.76031 336.081 4.28227 336.753 3.49563C337.418 3.8708 338.967 5.34121 339.353 6.67245C338.332 6.67245 336.858 6.70876 335.807 6.67245C335.21 6.70876 334.507 6.70876 333.699 6.73902C333.805 8.41517 333.842 10.0187 333.873 11.4891C334.402 11.4528 334.893 11.4528 335.347 11.4528C335.876 10.3939 336.187 9.87954 336.821 9.09894C337.524 9.47411 339.066 10.9445 339.452 12.2758C338.892 12.3121 337.804 12.3121 336.821 12.3121C336.156 12.3121 335.098 12.3484 333.873 12.3786C333.873 14.7325 333.767 16.7475 333.624 18.1514H333.618ZM329.196 20.2995C327.162 20.0272 325.371 20.5053 325.371 21.7336C325.371 22.6534 326.142 22.9318 327.193 22.9318C328.244 22.9318 328.984 22.0785 329.196 20.2995Z" fill="#EB5925"/>
<path d="M366.001 6.91564H362.773C363.016 10.5039 363.016 14.2254 362.213 17.0573C362.954 17.7047 363.265 18.322 363.302 19.1752C363.408 22.2854 359.439 24.4699 356.068 25.0145L355.963 24.7422C357.717 23.9253 359.122 22.0434 359.191 20.1675C358.488 20.5427 357.611 20.7484 356.56 20.8513C353.823 21.0207 352.455 19.7924 352.455 18.3946C352.455 16.7184 354.383 14.8426 358.177 14.8063C358.494 12.6884 358.457 9.85647 358.32 6.91564H350.806C349.929 6.91564 348.804 7.22424 348.281 7.32711L348.53 5.75383C348.984 5.85669 350.004 5.95956 350.881 5.95956H358.289C358.183 4.28341 358.04 2.577 357.903 1.00977L362.288 1.72985C362.431 3.06109 362.605 4.4952 362.711 5.96561H365.205C365.802 5.21528 366.505 4.39233 367.208 3.6783C367.979 3.81747 370.119 5.83249 370.119 7.02456C369.204 7.02456 367.027 6.95799 366.014 6.92169L366.001 6.91564ZM358.034 16.6155C357.754 16.2404 357.368 15.9681 357.088 15.9681C355.931 15.9681 355.509 16.5127 355.509 17.0936C355.509 17.6745 355.963 18.2554 356.597 18.2554C357.406 18.2554 357.897 17.8137 358.034 16.6155Z" fill="#EB5925"/>
<path d="M380.398 22.2852C380.398 19.9979 382.295 18.1523 384.684 18.1523C387.072 18.1523 389 20.0645 389 22.2852C389 24.6391 387.035 26.4544 384.646 26.4544C382.258 26.4544 380.398 24.5786 380.398 22.2852ZM387.315 22.1824C387.315 20.8148 386.083 19.653 384.684 19.653C383.284 19.653 382.016 20.8148 382.016 22.1824C382.016 23.5499 383.247 24.7783 384.684 24.7783C386.121 24.7783 387.315 23.5802 387.315 22.1824Z" fill="#EB5925"/>
</svg>
