<svg width="20" height="20" viewBox="0 0 20 20" fill="none" xmlns="http://www.w3.org/2000/svg">
<path d="M10 20C15.5228 20 20 15.5228 20 10C20 4.47715 15.5228 0 10 0C4.47715 0 0 4.47715 0 10C0 15.5228 4.47715 20 10 20Z" fill="#EB5925"/>
<path d="M10.0561 9.84677C11.4995 10.1034 12.8961 10.7801 12.9128 12.5168C12.9295 14.2334 11.2995 14.9634 9.41281 15.0668C9.19281 15.0834 8.96948 15.0834 8.76615 15.0834C7.72948 15.0834 6.99948 14.8968 6.13281 14.6768V14.6101C6.13281 13.8468 6.43948 12.7401 6.93281 11.9068L7.16948 11.9234C7.30615 12.8768 7.49281 13.5034 7.86615 14.0134C8.11948 14.3701 8.44281 14.6601 9.12281 14.6101C9.92281 14.5434 10.4828 13.8268 10.4495 12.7068C10.3828 11.0568 9.80281 10.4468 8.74948 10.1901C8.40948 10.2401 8.10281 10.2934 7.83281 10.3101L7.72948 9.8501C9.44615 9.69677 10.5861 9.1201 10.6528 7.23344C10.7028 5.8401 9.97281 4.95677 9.17281 4.90344C8.21948 4.83677 7.79615 6.0601 7.53948 7.70677L7.24948 7.72344C6.73948 6.82344 6.41615 5.83677 6.43281 4.90344C7.36615 4.49677 8.31948 4.27344 9.23615 4.27344C11.2428 4.27344 12.9761 5.12344 12.9761 7.09344C12.9761 7.21344 12.9761 7.3301 12.9595 7.46677C12.8228 8.6401 11.4461 9.40344 10.0528 9.84677H10.0561Z" fill="white"/>
</svg>
