<svg width="40" height="40" viewBox="0 0 40 40" fill="none" xmlns="http://www.w3.org/2000/svg">
<path d="M20 40C31.0457 40 40 31.0457 40 20C40 8.95431 31.0457 0 20 0C8.95431 0 0 8.95431 0 20C0 31.0457 8.95431 40 20 40Z" fill="#EB5925"/>
<path d="M15.9642 26.2543C17.6642 26.3877 20.0442 26.5277 22.6308 26.1543C23.4842 25.0677 24.0908 23.9077 24.3975 23.061H24.8708C25.4175 24.3543 25.8242 27.721 25.4175 29.9943C20.8642 29.8943 16.5775 29.721 11.7175 29.861V28.841C16.2708 24.661 20.3175 19.461 20.5575 15.2743C20.7242 12.3143 19.9108 9.80102 18.3108 9.73435C16.9508 9.66768 15.9642 10.5143 15.3508 11.261C14.3975 13.3677 14.2642 14.1877 13.7508 16.1543L13.0375 16.1877C12.0508 14.2477 11.4375 12.0077 11.4375 10.201V10.0677C13.4442 9.08102 15.7242 8.54102 17.8642 8.54102C22.7242 8.54102 25.8908 10.8877 25.8908 14.6277C25.8908 20.2343 20.0775 23.5677 15.9642 26.2543Z" fill="white"/>
</svg>
