<svg width="20" height="20" viewBox="0 0 20 20" fill="none" xmlns="http://www.w3.org/2000/svg">
<path d="M10 20C15.5228 20 20 15.5228 20 10C20 4.47715 15.5228 0 10 0C4.47715 0 0 4.47715 0 10C0 15.5228 4.47715 20 10 20Z" fill="#EB5925"/>
<path d="M12.2848 14.3681V15.0815C11.2815 14.9981 10.7715 14.9981 10.2281 14.9981H9.20813C8.73146 14.9981 8.10479 14.9648 7.23479 15.1015V14.3715C7.76146 14.4915 8.20479 14.5081 8.57812 14.5248C8.57812 12.4348 8.54479 8.79479 8.69813 6.58813C8.08813 6.63813 7.52479 6.79146 6.96479 6.89479L6.82812 6.50479C7.27146 5.96146 8.98813 4.80479 10.3981 4.36146C10.6181 4.36146 10.9081 4.34479 11.1115 4.32812C10.8381 8.57812 10.8048 12.1648 10.8048 14.5115C11.1781 14.4948 11.6381 14.4781 12.2848 14.3748V14.3681Z" fill="white"/>
</svg>
