<svg width="40" height="40" viewBox="0 0 40 40" fill="none" xmlns="http://www.w3.org/2000/svg">
<path d="M20 40C31.0457 40 40 31.0457 40 20C40 8.95431 31.0457 0 20 0C8.95431 0 0 8.95431 0 20C0 31.0457 8.95431 40 20 40Z" fill="#EB5925"/>
<path d="M27.6296 25.333C26.0296 25.1996 25.0829 25.1663 24.1963 25.1663C24.1296 26.6596 24.0629 28.0196 23.9563 29.0063C24.6029 28.973 25.4163 28.9063 26.4363 28.733V30.1596C24.4296 29.993 23.4096 29.993 22.3229 29.993H21.3029C20.3496 29.993 19.0896 29.9263 17.3563 30.1996V28.7396C18.2763 28.9463 19.0563 29.013 19.7363 29.013C19.8363 28.0596 19.8696 26.6996 19.9029 25.173H15.3162C14.3629 25.173 12.3896 25.1063 10.6562 25.3796V23.9196C12.4896 21.813 16.6029 14.573 17.1163 8.89297L23.7829 8.79297C22.4562 12.2263 16.7096 20.593 12.5962 24.1596C13.6829 24.2263 14.7029 24.193 15.3162 24.2263H19.9429C19.9763 22.4263 19.9429 20.453 19.9096 18.653L24.2962 17.973C24.2962 20.013 24.2963 22.2196 24.2296 24.193C25.0763 24.193 26.0629 24.1596 27.6296 23.9196V25.3463V25.333Z" fill="white"/>
</svg>
