<svg width="20" height="20" viewBox="0 0 20 20" fill="none" xmlns="http://www.w3.org/2000/svg">
<path d="M10 20C15.5228 20 20 15.5228 20 10C20 4.47715 15.5228 0 10 0C4.47715 0 0 4.47715 0 10C0 15.5228 4.47715 20 10 20Z" fill="#EB5925"/>
<path d="M7.98208 13.1223C8.83208 13.189 10.0221 13.259 11.3154 13.0723C11.7421 12.529 12.0454 11.949 12.1987 11.5256H12.4354C12.7088 12.1723 12.9121 13.8556 12.7088 14.9923C10.4321 14.9423 8.28875 14.8556 5.85875 14.9256V14.4156C8.13542 12.3256 10.1588 9.72562 10.2788 7.63229C10.3621 6.15229 9.95542 4.89562 9.15542 4.86229C8.47542 4.82896 7.98208 5.25229 7.67542 5.62562C7.19875 6.67896 7.13208 7.08896 6.87542 8.07229L6.51875 8.08896C6.02542 7.11896 5.71875 5.99896 5.71875 5.09562V5.02896C6.72208 4.53562 7.86208 4.26562 8.93208 4.26562C11.3621 4.26562 12.9454 5.43896 12.9454 7.30896C12.9454 10.1123 10.0388 11.779 7.98208 13.1223Z" fill="white"/>
</svg>
