<svg width="20" height="20" viewBox="0 0 20 20" fill="none" xmlns="http://www.w3.org/2000/svg">
<path d="M10 20C15.5228 20 20 15.5228 20 10C20 4.47715 15.5228 0 10 0C4.47715 0 0 4.47715 0 10C0 15.5228 4.47715 20 10 20Z" fill="#EB5925"/>
<path d="M13.4385 11.751V11.9544C13.3719 13.4844 12.1819 15.031 9.78521 15.0977C7.03188 15.0977 5.75854 13.3144 5.67188 11.1877V10.931C5.67188 8.00771 7.84854 4.55771 11.5019 4.23438L11.6219 4.59104C9.93854 4.94771 8.85187 6.66437 8.37521 8.73771C8.90187 8.50104 9.46187 8.39771 10.0419 8.41438C12.2519 8.46438 13.4419 9.84104 13.4419 11.7477L13.4385 11.751ZM9.85187 9.11438C9.35854 9.09771 8.78187 9.43771 8.15187 10.151C8.10187 10.7444 8.10187 11.3577 8.13521 11.9544C8.21854 13.2644 8.54187 14.5544 9.49521 14.6077C10.6852 14.6744 11.2285 13.451 11.2452 12.161C11.2619 10.241 10.7185 9.15104 9.85187 9.11771V9.11438Z" fill="white"/>
</svg>
