<svg width="20" height="20" viewBox="0 0 20 20" fill="none" xmlns="http://www.w3.org/2000/svg">
<path d="M10 20C15.5228 20 20 15.5228 20 10C20 4.47715 15.5228 0 10 0C4.47715 0 0 4.47715 0 10C0 15.5228 4.47715 20 10 20Z" fill="#EB5925"/>
<path d="M13.8148 12.6684C13.0148 12.6018 12.5415 12.5851 12.0981 12.5851C12.0648 13.3318 12.0315 14.0118 11.9781 14.5051C12.3015 14.4884 12.7081 14.4551 13.2181 14.3684V15.0818C12.2148 14.9984 11.7048 14.9984 11.1615 14.9984H10.6515C10.1748 14.9984 9.54479 14.9651 8.67813 15.1018V14.3718C9.13813 14.4751 9.52813 14.5084 9.86813 14.5084C9.91813 14.0318 9.93479 13.3518 9.95146 12.5884H7.65812C7.18146 12.5884 6.19479 12.5551 5.32812 12.6918V11.9618C6.24479 10.9084 8.30146 7.28844 8.55813 4.44844L11.8915 4.39844C11.2281 6.1151 8.35479 10.2984 6.29812 12.0818C6.84146 12.1151 7.35146 12.0984 7.65812 12.1151H9.97146C9.98813 11.2151 9.97146 10.2284 9.95479 9.32844L12.1481 8.98844C12.1481 10.0084 12.1481 11.1118 12.1148 12.0984C12.5381 12.0984 13.0315 12.0818 13.8148 11.9618V12.6751V12.6684Z" fill="white"/>
</svg>
