<svg width="20" height="20" viewBox="0 0 20 20" fill="none" xmlns="http://www.w3.org/2000/svg">
<path d="M10 20C15.5228 20 20 15.5228 20 10C20 4.47715 15.5228 0 10 0C4.47715 0 0 4.47715 0 10C0 15.5228 4.47715 20 10 20Z" fill="#EB5925"/>
<path d="M13.0325 12.4139V12.5339C12.9658 13.7739 11.8425 14.9472 9.39583 15.1172C9.1225 15.1339 8.8525 15.1505 8.6125 15.1505C7.67917 15.1505 6.94583 14.9972 6.0625 14.8439V14.7772C6.0625 14.0639 6.3525 13.0105 6.8625 12.2439L7.11583 12.2605C7.3525 13.6039 7.9825 14.8605 9.08917 14.7239C10.1592 14.5872 10.5325 13.5172 10.5158 12.4105C10.4825 10.6272 9.5625 9.43719 7.45583 9.96385L6.6725 10.2372C7.02917 8.43385 7.02917 5.24052 6.82583 4.33719L7.87917 4.38719C7.77583 4.74385 7.70917 5.06719 7.67583 5.35719C8.6625 5.37385 10.3292 5.40719 10.8892 5.32385C11.2458 4.98385 11.5692 4.54052 11.7225 4.11719H11.9592C12.2325 4.76385 12.4358 6.10719 12.2325 7.24385C11.2292 7.21052 8.91917 7.19385 7.55917 7.16052C7.52583 7.94385 7.50917 8.69052 7.52583 9.54052C10.9592 8.50385 13.0325 10.6639 13.0325 12.4139Z" fill="white"/>
</svg>
