<svg width="40" height="40" viewBox="0 0 40 40" fill="none" xmlns="http://www.w3.org/2000/svg">
<path d="M20 40C31.0457 40 40 31.0457 40 20C40 8.95431 31.0457 0 20 0C8.95431 0 0 8.95431 0 20C0 31.0457 8.95431 40 20 40Z" fill="#EB5925"/>
<path d="M24.5696 28.7343V30.161C22.5629 29.9943 21.5429 29.9943 20.4563 29.9943H18.4163C17.4629 29.9943 16.2096 29.9276 14.4696 30.201V28.741C15.5229 28.981 16.4096 29.0143 17.1562 29.0476C17.1562 24.8676 17.0896 17.5876 17.3963 13.1743C16.1763 13.2743 15.0496 13.581 13.9296 13.7876L13.6562 13.0076C14.5429 11.921 17.9763 9.60763 20.7963 8.72096C21.2363 8.72096 21.8163 8.68763 22.2229 8.6543C21.6763 17.1543 21.6096 24.3276 21.6096 29.021C22.3563 28.9876 23.2762 28.9543 24.5696 28.7476V28.7343Z" fill="white"/>
</svg>
