<svg width="40" height="40" viewBox="0 0 40 40" fill="none" xmlns="http://www.w3.org/2000/svg">
<path d="M20 40C31.0457 40 40 31.0457 40 20C40 8.95431 31.0457 0 20 0C8.95431 0 0 8.95431 0 20C0 31.0457 8.95431 40 20 40Z" fill="#EB5925"/>
<path d="M26.065 24.8258V25.0658C25.9317 27.5458 23.685 29.8924 18.7917 30.2324C18.245 30.2658 17.705 30.2991 17.225 30.2991C15.3583 30.2991 13.8917 29.9924 12.125 29.6858V29.5524C12.125 28.1258 12.705 26.0191 13.725 24.4858L14.2317 24.5191C14.705 27.2058 15.965 29.7191 18.1783 29.4458C20.3183 29.1724 21.065 27.0324 21.0317 24.8191C20.965 21.2524 19.125 18.8724 14.9117 19.9258L13.345 20.4724C14.0583 16.8658 14.0583 10.4791 13.6517 8.67242L15.7583 8.77242C15.5517 9.48575 15.4183 10.1324 15.3517 10.7124C17.325 10.7458 20.6583 10.8124 21.7783 10.6458C22.4917 9.96576 23.1383 9.07909 23.445 8.23242H23.9183C24.465 9.52576 24.8717 12.2124 24.465 14.4858C22.4583 14.4191 17.8383 14.3858 15.1183 14.3191C15.0517 15.8858 15.0183 17.3791 15.0517 19.0791C21.9183 17.0058 26.065 21.3258 26.065 24.8258Z" fill="white"/>
</svg>
