<svg width="40" height="40" viewBox="0 0 40 40" fill="none" xmlns="http://www.w3.org/2000/svg">
<path d="M20 40C31.0457 40 40 31.0457 40 20C40 8.95431 31.0457 0 20 0C8.95431 0 0 8.95431 0 20C0 31.0457 8.95431 40 20 40Z" fill="#EB5925"/>
<path d="M26.8771 23.5001V23.9068C26.7437 26.9668 24.3638 30.0601 19.5704 30.1935C14.0638 30.1935 11.5171 26.6268 11.3438 22.3735V21.8601C11.3438 16.0135 15.6971 9.11346 23.0037 8.4668L23.2437 9.18013C19.8771 9.89346 17.7037 13.3268 16.7504 17.4735C17.8037 17.0001 18.9237 16.7935 20.0837 16.8268C24.5037 16.9268 26.8838 19.6801 26.8838 23.4935L26.8771 23.5001ZM19.7037 18.2268C18.7171 18.1935 17.5637 18.8735 16.3037 20.3001C16.2037 21.4868 16.2037 22.7135 16.2704 23.9068C16.4371 26.5268 17.0837 29.1068 18.9904 29.2135C21.3704 29.3468 22.4571 26.9001 22.4904 24.3201C22.5238 20.4801 21.4371 18.3001 19.7037 18.2335V18.2268Z" fill="white"/>
</svg>
