<svg width="40" height="40" viewBox="0 0 40 40" fill="none" xmlns="http://www.w3.org/2000/svg">
<path d="M20 40C31.0457 40 40 31.0457 40 20C40 8.95431 31.0457 0 20 0C8.95431 0 0 8.95431 0 20C0 31.0457 8.95431 40 20 40Z" fill="#EB5925"/>
<path d="M20.1123 19.6935C22.999 20.2069 25.7923 21.5602 25.8256 25.0335C25.859 28.4669 22.599 29.9269 18.8256 30.1335C18.3856 30.1669 17.939 30.1669 17.5323 30.1669C15.459 30.1669 13.999 29.7935 12.2656 29.3535V29.2202C12.2656 27.6935 12.879 25.4802 13.8656 23.8135L14.339 23.8469C14.6123 25.7535 14.9856 27.0069 15.7323 28.0269C16.239 28.7402 16.8856 29.3202 18.2456 29.2202C19.8456 29.0869 20.9656 27.6535 20.899 25.4135C20.7656 22.1135 19.6056 20.8935 17.499 20.3802C16.819 20.4802 16.2056 20.5869 15.6656 20.6202L15.459 19.7002C18.8923 19.3935 21.1723 18.2402 21.3056 14.4669C21.4056 11.6802 19.9456 9.91354 18.3456 9.80688C16.439 9.67354 15.5923 12.1202 15.079 15.4135L14.499 15.4469C13.479 13.6469 12.8323 11.6735 12.8656 9.80688C14.7323 8.99354 16.639 8.54688 18.4723 8.54688C22.4856 8.54688 25.9523 10.2469 25.9523 14.1869C25.9523 14.4269 25.9523 14.6602 25.919 14.9335C25.6456 17.2802 22.8923 18.8069 20.1056 19.6935H20.1123Z" fill="white"/>
</svg>
