<svg width="12" height="12" viewBox="0 0 12 12" fill="none" xmlns="http://www.w3.org/2000/svg">
<path d="M10.3677 1.25015C10.3541 1.25056 10.3406 1.2517 10.3271 1.25357H6.875C6.82531 1.25287 6.77597 1.26205 6.72986 1.28058C6.68375 1.29911 6.64178 1.32662 6.60639 1.36151C6.571 1.3964 6.5429 1.43798 6.52372 1.48383C6.50454 1.52967 6.49466 1.57888 6.49466 1.62857C6.49466 1.67827 6.50454 1.72747 6.52372 1.77332C6.5429 1.81916 6.571 1.86074 6.60639 1.89563C6.64178 1.93052 6.68375 1.95803 6.72986 1.97656C6.77597 1.99509 6.82531 2.00428 6.875 2.00357H9.46973L5.60986 5.86344C5.57387 5.89799 5.54514 5.93938 5.52535 5.98518C5.50555 6.03097 5.4951 6.08026 5.49459 6.13015C5.49408 6.18004 5.50354 6.22953 5.52239 6.27572C5.54125 6.32191 5.56914 6.36388 5.60442 6.39916C5.6397 6.43443 5.68166 6.46232 5.72785 6.48118C5.77404 6.50004 5.82353 6.50949 5.87342 6.50898C5.92331 6.50847 5.9726 6.49802 6.0184 6.47822C6.06419 6.45843 6.10558 6.4297 6.14014 6.39371L10 2.53385V5.12857C9.9993 5.17826 10.0085 5.2276 10.027 5.27371C10.0455 5.31983 10.073 5.3618 10.1079 5.39719C10.1428 5.43257 10.1844 5.46068 10.2303 5.47986C10.2761 5.49904 10.3253 5.50891 10.375 5.50891C10.4247 5.50891 10.4739 5.49904 10.5197 5.47986C10.5656 5.46068 10.6072 5.43257 10.6421 5.39719C10.677 5.3618 10.7045 5.31983 10.723 5.27371C10.7415 5.2276 10.7507 5.17826 10.75 5.12857V1.67594C10.7574 1.62198 10.7529 1.56707 10.737 1.51501C10.721 1.46295 10.6939 1.41499 10.6575 1.37447C10.6211 1.33395 10.5763 1.30184 10.5263 1.28037C10.4762 1.2589 10.4221 1.24859 10.3677 1.25015ZM3.125 2.00357C2.09387 2.00357 1.25 2.84745 1.25 3.87857V8.87857C1.25 9.9097 2.09387 10.7536 3.125 10.7536H8.125C9.15613 10.7536 10 9.9097 10 8.87857V6.37857C10.0007 6.32888 9.99152 6.27954 9.97299 6.23343C9.95446 6.18732 9.92695 6.14535 9.89206 6.10996C9.85717 6.07457 9.81559 6.04647 9.76974 6.02729C9.7239 6.00811 9.6747 5.99823 9.625 5.99823C9.5753 5.99823 9.5261 6.00811 9.48026 6.02729C9.43441 6.04647 9.39283 6.07457 9.35794 6.10996C9.32305 6.14535 9.29554 6.18732 9.27701 6.23343C9.25848 6.27954 9.2493 6.32888 9.25 6.37857V8.87857C9.25 9.50445 8.75087 10.0036 8.125 10.0036H3.125C2.49913 10.0036 2 9.50445 2 8.87857V3.87857C2 3.2527 2.49913 2.75357 3.125 2.75357H5.625C5.67469 2.75427 5.72403 2.74509 5.77014 2.72656C5.81625 2.70803 5.85822 2.68052 5.89361 2.64563C5.929 2.61074 5.9571 2.56916 5.97628 2.52332C5.99546 2.47747 6.00534 2.42827 6.00534 2.37857C6.00534 2.32888 5.99546 2.27967 5.97628 2.23383C5.9571 2.18798 5.929 2.1464 5.89361 2.11151C5.85822 2.07662 5.81625 2.04911 5.77014 2.03058C5.72403 2.01205 5.67469 2.00287 5.625 2.00357H3.125Z" fill="#F04E11"/>
</svg>
