<svg width="68" height="68" viewBox="0 0 68 68" fill="none" xmlns="http://www.w3.org/2000/svg">
<circle cx="34" cy="34" r="34" fill="#F04E11"/>
<path d="M18.446 31.524C17.5313 31.524 16.7753 31.3653 16.178 31.048C15.59 30.7213 15.1467 30.1193 14.848 29.242L16.01 28.64C16.1407 29.144 16.402 29.5313 16.794 29.802C17.186 30.0633 17.7367 30.194 18.446 30.194C19.0527 30.194 19.6687 30.166 20.294 30.11C20.9193 30.054 21.5027 29.9747 22.044 29.872C22.5947 29.7693 23.0473 29.6573 23.402 29.536C23.402 29.6293 23.4113 29.774 23.43 29.97C23.4487 30.166 23.472 30.3573 23.5 30.544C23.528 30.7307 23.556 30.866 23.584 30.95C23.2107 31.0713 22.744 31.174 22.184 31.258C21.624 31.342 21.022 31.4073 20.378 31.454C19.734 31.5007 19.09 31.524 18.446 31.524ZM16.43 23.278L16.416 21.962C16.668 22.046 16.9853 22.1113 17.368 22.158C17.7507 22.2047 18.166 22.2373 18.614 22.256C19.062 22.2653 19.5053 22.2607 19.944 22.242C20.392 22.214 20.8073 22.172 21.19 22.116C21.5727 22.06 21.89 21.9947 22.142 21.92L22.17 23.236C21.9367 23.3107 21.6287 23.3713 21.246 23.418C20.8633 23.4647 20.448 23.502 20 23.53C19.552 23.5487 19.104 23.5533 18.656 23.544C18.208 23.5347 17.788 23.5067 17.396 23.46C17.004 23.4133 16.682 23.3527 16.43 23.278ZM25.432 22.676C25.3013 22.4893 25.138 22.2887 24.942 22.074C24.746 21.85 24.5407 21.64 24.326 21.444C24.1207 21.248 23.934 21.0847 23.766 20.954L24.382 20.436C24.5313 20.548 24.7133 20.7113 24.928 20.926C25.152 21.1407 25.3713 21.36 25.586 21.584C25.8007 21.808 25.964 21.9947 26.076 22.144L25.432 22.676ZM24.27 23.726C24.1487 23.53 23.99 23.3247 23.794 23.11C23.598 22.886 23.3973 22.676 23.192 22.48C22.9867 22.2747 22.8 22.1067 22.632 21.976L23.248 21.458C23.3973 21.5793 23.5793 21.752 23.794 21.976C24.018 22.1907 24.2327 22.41 24.438 22.634C24.6433 22.858 24.802 23.0493 24.914 23.208L24.27 23.726ZM30.556 32.994V27.548C30.22 28.0893 29.8513 28.6167 29.45 29.13C29.058 29.6433 28.6987 30.0493 28.372 30.348C28.316 30.2733 28.2227 30.1847 28.092 30.082C27.9707 29.97 27.8447 29.8627 27.714 29.76C27.5833 29.6573 27.476 29.5827 27.392 29.536C27.6533 29.3213 27.9287 29.0553 28.218 28.738C28.5167 28.4113 28.806 28.0567 29.086 27.674C29.3753 27.282 29.6413 26.89 29.884 26.498C30.1267 26.0967 30.3227 25.7233 30.472 25.378H27.84V24.216H30.556V22.452C30.1733 22.5453 29.7953 22.6247 29.422 22.69C29.058 22.746 28.722 22.7927 28.414 22.83C28.3953 22.7367 28.358 22.6153 28.302 22.466C28.246 22.3073 28.1807 22.158 28.106 22.018C28.0407 21.8687 27.9847 21.766 27.938 21.71C28.2927 21.682 28.708 21.6307 29.184 21.556C29.6693 21.472 30.164 21.3693 30.668 21.248C31.172 21.1267 31.6433 20.996 32.082 20.856C32.53 20.7067 32.8893 20.5573 33.16 20.408L33.888 21.444C33.6267 21.5653 33.3187 21.6867 32.964 21.808C32.6093 21.92 32.2267 22.032 31.816 22.144V24.216H34.266V25.378H31.816V25.868C32.0027 26.1107 32.2407 26.3813 32.53 26.68C32.8287 26.9787 33.1413 27.268 33.468 27.548C33.804 27.828 34.1167 28.0707 34.406 28.276C34.3407 28.3227 34.2473 28.4067 34.126 28.528C34.014 28.6493 33.902 28.7753 33.79 28.906C33.6873 29.0367 33.6127 29.144 33.566 29.228C33.286 29.004 32.992 28.7427 32.684 28.444C32.376 28.1453 32.0867 27.8373 31.816 27.52V32.994H30.556ZM36.856 32.924C36.8467 32.756 36.8093 32.5413 36.744 32.28C36.688 32.028 36.632 31.832 36.576 31.692H37.794C37.9807 31.692 38.116 31.6593 38.2 31.594C38.284 31.5287 38.326 31.4073 38.326 31.23V20.548H39.572V31.65C39.572 32.0887 39.4507 32.4107 39.208 32.616C38.9653 32.8213 38.5873 32.924 38.074 32.924H36.856ZM35.302 29.774V21.584H36.506V29.774H35.302ZM43.38 33.036C43.2307 32.9333 43.03 32.812 42.778 32.672C42.526 32.5413 42.3253 32.4527 42.176 32.406C42.736 31.7247 43.142 30.9033 43.394 29.942C43.6553 28.9713 43.786 27.8373 43.786 26.54V20.786H54.076V31.622C54.076 32.0513 53.95 32.378 53.698 32.602C53.446 32.8353 53.054 32.952 52.522 32.952H51.472C51.4533 32.7653 51.416 32.5367 51.36 32.266C51.3133 32.0047 51.262 31.7993 51.206 31.65H52.242C52.438 31.65 52.5733 31.6173 52.648 31.552C52.732 31.4773 52.774 31.3513 52.774 31.174V28.29H49.512V32.532H48.238V28.29H45.032C44.948 29.27 44.7753 30.1427 44.514 30.908C44.2527 31.664 43.8747 32.3733 43.38 33.036ZM49.512 27.156H52.774V25.126H49.512V27.156ZM49.512 23.964H52.774V21.948H49.512V23.964ZM45.102 27.156H48.238V25.126H45.102V27.156ZM45.102 23.964H48.238V21.948H45.102V23.964ZM20.784 49.284V48.192H22.604V46.05H20.336V44.958H22.604V42.956C22.3613 43.2453 22.114 43.516 21.862 43.768C21.6193 44.0107 21.3813 44.216 21.148 44.384C21.0453 44.2813 20.8913 44.146 20.686 43.978C20.4807 43.8007 20.3127 43.684 20.182 43.628C20.462 43.432 20.7467 43.1893 21.036 42.9C21.3253 42.6013 21.6007 42.2887 21.862 41.962C22.1233 41.626 22.352 41.2947 22.548 40.968C22.7533 40.6413 22.9073 40.352 23.01 40.1L24.214 40.492C24.0553 40.8933 23.8173 41.3133 23.5 41.752H32.18V42.844H30.71V44.958H32.964V46.05H30.71V48.192H32.558V49.284H20.784ZM31.76 53.008C31.6387 52.756 31.4613 52.448 31.228 52.084C31.004 51.7293 30.7613 51.3747 30.5 51.02C30.248 50.656 30.0147 50.3573 29.8 50.124L30.724 49.438C30.9667 49.6993 31.2233 50.0073 31.494 50.362C31.7647 50.7073 32.0213 51.0527 32.264 51.398C32.516 51.7433 32.712 52.0513 32.852 52.322C32.7587 52.3593 32.6373 52.42 32.488 52.504C32.3387 52.5973 32.194 52.686 32.054 52.77C31.9233 52.8633 31.8253 52.9427 31.76 53.008ZM21.372 53.036C21.26 52.9333 21.0873 52.8073 20.854 52.658C20.63 52.518 20.4433 52.4247 20.294 52.378C20.5273 52.182 20.7747 51.9253 21.036 51.608C21.3067 51.2907 21.5587 50.9547 21.792 50.6C22.0253 50.236 22.2073 49.9047 22.338 49.606L23.458 50.138C23.29 50.4833 23.0847 50.8333 22.842 51.188C22.6087 51.5427 22.3613 51.8787 22.1 52.196C21.848 52.5133 21.6053 52.7933 21.372 53.036ZM27.868 52.91C27.8307 52.6487 27.77 52.336 27.686 51.972C27.6113 51.608 27.5273 51.2487 27.434 50.894C27.3407 50.53 27.2473 50.2313 27.154 49.998L28.316 49.69C28.4093 49.9233 28.5027 50.2127 28.596 50.558C28.6987 50.9033 28.792 51.258 28.876 51.622C28.9693 51.986 29.0347 52.3127 29.072 52.602C28.988 52.6113 28.8667 52.6347 28.708 52.672C28.5493 52.7093 28.3907 52.7467 28.232 52.784C28.0827 52.8307 27.9613 52.8727 27.868 52.91ZM24.858 52.952C24.8393 52.7 24.802 52.392 24.746 52.028C24.6993 51.6733 24.6433 51.3187 24.578 50.964C24.5127 50.6093 24.4473 50.3247 24.382 50.11L25.558 49.872C25.6327 50.124 25.7027 50.4227 25.768 50.768C25.8427 51.104 25.908 51.4493 25.964 51.804C26.02 52.1493 26.062 52.4573 26.09 52.728C26.006 52.7373 25.88 52.7513 25.712 52.77C25.5533 52.798 25.3947 52.826 25.236 52.854C25.0773 52.8913 24.9513 52.924 24.858 52.952ZM28.372 48.192H29.534V46.05H28.372V48.192ZM28.372 44.958H29.534V42.844H28.372V44.958ZM23.766 48.192H24.9V46.05H23.766V48.192ZM26.076 48.192H27.21V46.05H26.076V48.192ZM23.766 44.958H24.9V42.844H23.766V44.958ZM26.076 44.958H27.21V42.844H26.076V44.958ZM37.738 52.994V47.94C37.4207 48.4533 37.08 48.948 36.716 49.424C36.352 49.8907 36.002 50.2873 35.666 50.614C35.5727 50.502 35.4327 50.3667 35.246 50.208C35.0593 50.04 34.9053 49.9233 34.784 49.858C35.1107 49.578 35.4467 49.228 35.792 48.808C36.1467 48.388 36.4827 47.9353 36.8 47.45C37.1173 46.9553 37.3833 46.4747 37.598 46.008H35.162V44.888H37.738V40.352H38.928V44.888H41.126V46.008H38.928V46.316C39.0867 46.5307 39.2873 46.7733 39.53 47.044C39.782 47.3147 40.0433 47.5807 40.314 47.842C40.594 48.1033 40.846 48.3273 41.07 48.514L41.042 48.416C41.35 48.3787 41.7187 48.3273 42.148 48.262C42.5867 48.1873 43.0533 48.1033 43.548 48.01C44.0427 47.9167 44.5327 47.8233 45.018 47.73V40.338H46.222V47.478C46.5767 47.394 46.9033 47.3193 47.202 47.254C47.5007 47.1793 47.7387 47.1093 47.916 47.044L47.972 48.234C47.7667 48.29 47.51 48.3553 47.202 48.43C46.9033 48.5047 46.5767 48.5793 46.222 48.654V52.994H45.018V48.92C44.3367 49.06 43.6647 49.1953 43.002 49.326C42.3487 49.4473 41.7887 49.5453 41.322 49.62L41.112 48.71C41 48.822 40.8693 48.962 40.72 49.13C40.5707 49.298 40.4727 49.424 40.426 49.508C40.1927 49.2933 39.9453 49.046 39.684 48.766C39.4227 48.486 39.1707 48.1873 38.928 47.87V52.994H37.738ZM40.244 44.37C40.1787 44.3327 40.0807 44.286 39.95 44.23C39.8287 44.1647 39.7027 44.104 39.572 44.048C39.4507 43.992 39.3527 43.9593 39.278 43.95C39.39 43.7633 39.516 43.516 39.656 43.208C39.796 42.9 39.9267 42.5827 40.048 42.256C40.1693 41.9293 40.258 41.6493 40.314 41.416L41.364 41.738C41.2987 41.962 41.196 42.2513 41.056 42.606C40.9253 42.9513 40.7853 43.2873 40.636 43.614C40.4867 43.9407 40.356 44.1927 40.244 44.37ZM43.562 47.016C43.2727 46.7453 42.9507 46.4653 42.596 46.176C42.2507 45.8867 41.9007 45.644 41.546 45.448L42.274 44.594C42.6193 44.7993 42.9833 45.0513 43.366 45.35C43.758 45.6393 44.0847 45.9053 44.346 46.148C44.29 46.204 44.206 46.288 44.094 46.4C43.9913 46.512 43.8887 46.624 43.786 46.736C43.6927 46.848 43.618 46.9413 43.562 47.016ZM43.954 44.02C43.674 43.7493 43.3567 43.4693 43.002 43.18C42.6567 42.8907 42.3113 42.6433 41.966 42.438L42.736 41.598C43.0813 41.8127 43.4407 42.0693 43.814 42.368C44.1873 42.6667 44.5047 42.9373 44.766 43.18C44.7007 43.236 44.612 43.32 44.5 43.432C44.388 43.544 44.2807 43.656 44.178 43.768C44.0753 43.88 44.0007 43.964 43.954 44.02ZM36.24 44.356C36.184 44.132 36.0953 43.866 35.974 43.558C35.862 43.25 35.7407 42.9513 35.61 42.662C35.4793 42.3633 35.3487 42.116 35.218 41.92L36.212 41.5C36.3333 41.6867 36.464 41.9387 36.604 42.256C36.744 42.5733 36.8747 42.8907 36.996 43.208C37.1267 43.516 37.22 43.7727 37.276 43.978C37.192 43.9873 37.08 44.02 36.94 44.076C36.8 44.1227 36.6647 44.174 36.534 44.23C36.4033 44.2767 36.3053 44.3187 36.24 44.356Z" fill="white"/>
</svg>
