<svg width="120" height="120" viewBox="0 0 120 120" fill="none" xmlns="http://www.w3.org/2000/svg">
<path d="M120 60C120 93.1371 93.1371 120 60 120C26.8629 120 0 93.1371 0 60C0 26.8629 26.8629 0 60 0C93.1371 0 120 26.8629 120 60Z" fill="#F04E11"/>
<path d="M65.9077 87.7038V79.0398C65.3637 79.9198 64.7798 80.7678 64.1558 81.5838C63.5318 82.3838 62.9318 83.0638 62.3558 83.6238C62.1958 83.4318 61.9557 83.1998 61.6357 82.9278C61.3157 82.6398 61.0518 82.4398 60.8438 82.3278C61.4038 81.8478 61.9798 81.2478 62.5718 80.5278C63.1798 79.8078 63.7558 79.0318 64.2998 78.1998C64.8438 77.3518 65.2998 76.5278 65.6678 75.7278H61.4917V73.8078H65.9077V66.0318H67.9478V73.8078H71.7158V75.7278H67.9478V76.2558C68.2197 76.6238 68.5638 77.0398 68.9798 77.5038C69.4118 77.9678 69.8597 78.4238 70.3237 78.8718C70.8037 79.3198 71.2358 79.7038 71.6198 80.0238L71.5718 79.8558C72.0998 79.7918 72.7318 79.7038 73.4678 79.5918C74.2198 79.4638 75.0198 79.3198 75.8678 79.1598C76.7158 78.9998 77.5558 78.8398 78.3878 78.6798V66.0078H80.4518V78.2478C81.0598 78.1038 81.6198 77.9758 82.1318 77.8638C82.6438 77.7358 83.0518 77.6158 83.3558 77.5038L83.4518 79.5438C83.0998 79.6398 82.6598 79.7518 82.1318 79.8798C81.6198 80.0078 81.0598 80.1358 80.4518 80.2638V87.7038H78.3878V80.7198C77.2198 80.9598 76.0678 81.1918 74.9318 81.4158C73.8118 81.6238 72.8518 81.7918 72.0518 81.9198L71.6917 80.3598C71.4997 80.5518 71.2758 80.7918 71.0198 81.0798C70.7638 81.3678 70.5958 81.5838 70.5158 81.7278C70.1158 81.3598 69.6918 80.9358 69.2438 80.4558C68.7958 79.9758 68.3637 79.4638 67.9478 78.9198V87.7038H65.9077ZM70.2038 72.9198C70.0918 72.8558 69.9237 72.7758 69.6997 72.6798C69.4917 72.5678 69.2758 72.4638 69.0518 72.3678C68.8438 72.2718 68.6758 72.2158 68.5478 72.1998C68.7398 71.8798 68.9558 71.4558 69.1958 70.9278C69.4358 70.3998 69.6598 69.8558 69.8678 69.2958C70.0758 68.7358 70.2277 68.2558 70.3237 67.8558L72.1238 68.4078C72.0118 68.7918 71.8358 69.2878 71.5958 69.8958C71.3718 70.4878 71.1318 71.0638 70.8758 71.6238C70.6198 72.1838 70.3958 72.6158 70.2038 72.9198ZM75.8918 77.4558C75.3958 76.9918 74.8438 76.5118 74.2358 76.0158C73.6438 75.5198 73.0437 75.1038 72.4357 74.7678L73.6838 73.3038C74.2758 73.6558 74.8998 74.0878 75.5558 74.5998C76.2278 75.0958 76.7878 75.5518 77.2358 75.9678C77.1398 76.0638 76.9958 76.2078 76.8038 76.3998C76.6278 76.5918 76.4518 76.7838 76.2758 76.9758C76.1158 77.1678 75.9878 77.3278 75.8918 77.4558ZM76.5638 72.3198C76.0838 71.8558 75.5398 71.3758 74.9318 70.8798C74.3398 70.3838 73.7478 69.9598 73.1558 69.6078L74.4757 68.1678C75.0677 68.5358 75.6838 68.9758 76.3238 69.4878C76.9638 69.9998 77.5077 70.4638 77.9557 70.8798C77.8438 70.9758 77.6918 71.1198 77.4998 71.3118C77.3078 71.5038 77.1238 71.6958 76.9478 71.8878C76.7718 72.0798 76.6438 72.2238 76.5638 72.3198ZM63.3398 72.8958C63.2438 72.5118 63.0918 72.0558 62.8838 71.5278C62.6918 70.9998 62.4838 70.4878 62.2598 69.9918C62.0358 69.4798 61.8117 69.0558 61.5877 68.7198L63.2918 67.9998C63.4998 68.3198 63.7237 68.7518 63.9637 69.2958C64.2037 69.8398 64.4277 70.3838 64.6357 70.9278C64.8597 71.4558 65.0197 71.8958 65.1157 72.2478C64.9717 72.2638 64.7797 72.3198 64.5397 72.4158C64.2997 72.4958 64.0677 72.5838 63.8438 72.6798C63.6198 72.7598 63.4518 72.8318 63.3398 72.8958Z" fill="white"/>
<path d="M36.8445 81.3436V79.4716H39.9645V75.7996H36.0765V73.9276H39.9645V70.4956C39.5485 70.9916 39.1245 71.4556 38.6925 71.8876C38.2765 72.3036 37.8685 72.6556 37.4685 72.9436C37.2925 72.7676 37.0285 72.5356 36.6765 72.2476C36.3245 71.9436 36.0365 71.7436 35.8125 71.6476C36.2925 71.3116 36.7805 70.8956 37.2765 70.3996C37.7725 69.8876 38.2445 69.3516 38.6925 68.7916C39.1405 68.2156 39.5325 67.6476 39.8685 67.0876C40.2205 66.5276 40.4845 66.0316 40.6605 65.5996L42.7245 66.2716C42.4525 66.9596 42.0445 67.6796 41.5005 68.4316H56.3805V70.3036H53.8605V73.9276H57.7245V75.7996H53.8605V79.4716H57.0285V81.3436H36.8445ZM55.6605 87.7276C55.4525 87.2956 55.1485 86.7676 54.7485 86.1436C54.3645 85.5356 53.9485 84.9276 53.5005 84.3196C53.0685 83.6956 52.6685 83.1836 52.3005 82.7836L53.8845 81.6076C54.3005 82.0556 54.7405 82.5836 55.2045 83.1916C55.6685 83.7836 56.1085 84.3756 56.5245 84.9676C56.9565 85.5596 57.2925 86.0876 57.5325 86.5516C57.3725 86.6156 57.1645 86.7196 56.9085 86.8636C56.6525 87.0236 56.4045 87.1756 56.1645 87.3196C55.9405 87.4796 55.7725 87.6156 55.6605 87.7276ZM37.8525 87.7756C37.6605 87.5996 37.3645 87.3836 36.9645 87.1276C36.5805 86.8876 36.2605 86.7276 36.0045 86.6476C36.4045 86.3116 36.8285 85.8716 37.2765 85.3276C37.7405 84.7836 38.1725 84.2076 38.5725 83.5996C38.9725 82.9756 39.2845 82.4076 39.5085 81.8956L41.4285 82.8076C41.1405 83.3996 40.7885 83.9996 40.3725 84.6076C39.9725 85.2156 39.5485 85.7916 39.1005 86.3356C38.6685 86.8796 38.2525 87.3596 37.8525 87.7756ZM48.9885 87.5596C48.9245 87.1116 48.8205 86.5756 48.6765 85.9516C48.5485 85.3276 48.4045 84.7116 48.2445 84.1036C48.0845 83.4796 47.9245 82.9676 47.7645 82.5676L49.7565 82.0396C49.9165 82.4396 50.0765 82.9356 50.2365 83.5276C50.4125 84.1196 50.5725 84.7276 50.7165 85.3516C50.8765 85.9756 50.9885 86.5356 51.0525 87.0316C50.9085 87.0476 50.7005 87.0876 50.4285 87.1516C50.1565 87.2156 49.8845 87.2796 49.6125 87.3436C49.3565 87.4236 49.1485 87.4956 48.9885 87.5596ZM43.8285 87.6316C43.7965 87.1996 43.7325 86.6716 43.6365 86.0476C43.5565 85.4396 43.4605 84.8316 43.3485 84.2236C43.2365 83.6156 43.1245 83.1276 43.0125 82.7596L45.0285 82.3516C45.1565 82.7836 45.2765 83.2956 45.3885 83.8876C45.5165 84.4636 45.6285 85.0556 45.7245 85.6636C45.8205 86.2556 45.8925 86.7836 45.9405 87.2476C45.7965 87.2636 45.5805 87.2876 45.2925 87.3196C45.0205 87.3676 44.7485 87.4156 44.4765 87.4636C44.2045 87.5276 43.9885 87.5836 43.8285 87.6316ZM49.8525 79.4716H51.8445V75.7996H49.8525V79.4716ZM49.8525 73.9276H51.8445V70.3036H49.8525V73.9276ZM41.9565 79.4716H43.9005V75.7996H41.9565V79.4716ZM45.9165 79.4716H47.8605V75.7996H45.9165V79.4716ZM41.9565 73.9276H43.9005V70.3036H41.9565V73.9276ZM45.9165 73.9276H47.8605V70.3036H45.9165V73.9276Z" fill="white"/>
<path d="M75.5796 55.7754C75.3236 55.5994 74.9796 55.3914 74.5476 55.1514C74.1156 54.9274 73.7716 54.7754 73.5156 54.6954C74.4756 53.5274 75.1716 52.1194 75.6036 50.4714C76.0516 48.8074 76.2756 46.8634 76.2756 44.6394V34.7754H93.9156V53.3514C93.9156 54.0874 93.6996 54.6474 93.2676 55.0314C92.8356 55.4314 92.1636 55.6314 91.2516 55.6314H89.4516C89.4196 55.3114 89.3556 54.9194 89.2596 54.4554C89.1796 54.0074 89.0916 53.6554 88.9956 53.3994H90.7716C91.1076 53.3994 91.3396 53.3434 91.4676 53.2314C91.6116 53.1034 91.6836 52.8874 91.6836 52.5834V47.6394H86.0916V54.9114H83.9076V47.6394H78.4116C78.2676 49.3194 77.9716 50.8154 77.5236 52.1274C77.0756 53.4234 76.4276 54.6394 75.5796 55.7754ZM86.0916 45.6954H91.6836V42.2154H86.0916V45.6954ZM86.0916 40.2234H91.6836V36.7674H86.0916V40.2234ZM78.5316 45.6954H83.9076V42.2154H78.5316V45.6954ZM78.5316 40.2234H83.9076V36.7674H78.5316V40.2234Z" fill="white"/>
<path d="M53.5959 55.7049V46.3689C53.0199 47.2969 52.3879 48.2009 51.6999 49.0809C51.0279 49.9609 50.4119 50.6569 49.8519 51.1689C49.7559 51.0409 49.5959 50.8889 49.3719 50.7129C49.1639 50.5209 48.9479 50.3369 48.7239 50.1609C48.4999 49.9849 48.3159 49.8569 48.1719 49.7769C48.6199 49.4089 49.0919 48.9529 49.5879 48.4089C50.0999 47.8489 50.5959 47.2409 51.0759 46.5849C51.5719 45.9129 52.0279 45.2409 52.4439 44.5689C52.8599 43.8809 53.1959 43.2409 53.4519 42.6489H48.9399V40.6569H53.5959V37.6329C52.9399 37.7929 52.2919 37.9289 51.6519 38.0409C51.0279 38.1369 50.4519 38.2169 49.9239 38.2809C49.8919 38.1209 49.8279 37.9129 49.7319 37.6569C49.6359 37.3849 49.5239 37.1289 49.3959 36.8889C49.2839 36.6329 49.1879 36.4569 49.1079 36.3609C49.7159 36.3129 50.4279 36.2249 51.2439 36.0969C52.0759 35.9529 52.9239 35.7769 53.7879 35.5689C54.6519 35.3609 55.4599 35.1369 56.2119 34.8969C56.9799 34.6409 57.5959 34.3849 58.0599 34.1289L59.3079 35.9049C58.8599 36.1129 58.3319 36.3209 57.7239 36.5289C57.1159 36.7209 56.4599 36.9129 55.7559 37.1049V40.6569H59.9559V42.6489H55.7559V43.4889C56.0759 43.9049 56.4839 44.3689 56.9799 44.8809C57.4919 45.3929 58.0279 45.8889 58.5879 46.3689C59.1639 46.8489 59.6999 47.2649 60.1959 47.6169C60.0839 47.6969 59.9239 47.8409 59.7159 48.0489C59.5239 48.2569 59.3319 48.4729 59.1399 48.6969C58.9639 48.9209 58.8359 49.1049 58.7559 49.2489C58.2759 48.8649 57.7719 48.4169 57.2439 47.9049C56.7159 47.3929 56.2199 46.8649 55.7559 46.3209V55.7049H53.5959ZM64.3959 55.5849C64.3799 55.2969 64.3159 54.9289 64.2039 54.4809C64.1079 54.0489 64.0119 53.7129 63.9159 53.4729H66.0039C66.3239 53.4729 66.5559 53.4169 66.6999 53.3049C66.8439 53.1929 66.9159 52.9849 66.9159 52.6809V34.3689H69.0519V53.4009C69.0519 54.1529 68.8439 54.7049 68.4279 55.0569C68.0119 55.4089 67.3639 55.5849 66.4839 55.5849H64.3959ZM61.7319 50.1849V36.1449H63.7959V50.1849H61.7319Z" fill="white"/>
<path d="M32.836 53.1838C31.268 53.1838 29.972 52.9118 28.948 52.3678C27.94 51.8078 27.18 50.7758 26.668 49.2718L28.66 48.2398C28.884 49.1038 29.332 49.7678 30.004 50.2318C30.676 50.6798 31.62 50.9038 32.836 50.9038C33.876 50.9038 34.932 50.8558 36.004 50.7598C37.076 50.6638 38.076 50.5278 39.004 50.3518C39.948 50.1758 40.724 49.9838 41.332 49.7758C41.332 49.9358 41.348 50.1838 41.38 50.5198C41.412 50.8558 41.452 51.1838 41.5 51.5038C41.548 51.8238 41.596 52.0558 41.644 52.1998C41.004 52.4078 40.204 52.5838 39.244 52.7278C38.284 52.8718 37.252 52.9838 36.148 53.0638C35.044 53.1438 33.94 53.1838 32.836 53.1838ZM29.38 39.0478L29.356 36.7918C29.788 36.9358 30.332 37.0478 30.988 37.1278C31.644 37.2078 32.356 37.2638 33.124 37.2958C33.892 37.3118 34.652 37.3038 35.404 37.2718C36.172 37.2238 36.884 37.1518 37.54 37.0558C38.196 36.9598 38.74 36.8478 39.172 36.7198L39.22 38.9758C38.82 39.1038 38.292 39.2078 37.636 39.2878C36.98 39.3678 36.268 39.4318 35.5 39.4798C34.732 39.5118 33.964 39.5198 33.196 39.5038C32.428 39.4878 31.708 39.4398 31.036 39.3598C30.364 39.2798 29.812 39.1758 29.38 39.0478ZM44.812 38.0158C44.588 37.6958 44.308 37.3518 43.972 36.9838C43.636 36.5998 43.284 36.2398 42.916 35.9038C42.564 35.5678 42.244 35.2878 41.956 35.0638L43.012 34.1758C43.268 34.3678 43.58 34.6478 43.948 35.0158C44.332 35.3838 44.708 35.7598 45.076 36.1438C45.444 36.5278 45.724 36.8478 45.916 37.1038L44.812 38.0158ZM42.82 39.8158C42.612 39.4798 42.34 39.1278 42.004 38.7598C41.668 38.3758 41.324 38.0158 40.972 37.6798C40.62 37.3278 40.3 37.0398 40.012 36.8158L41.068 35.9278C41.324 36.1358 41.636 36.4318 42.004 36.8158C42.388 37.1838 42.756 37.5598 43.108 37.9438C43.46 38.3278 43.732 38.6558 43.924 38.9278L42.82 39.8158Z" fill="white"/>
</svg>
