<svg width="10" height="223" viewBox="0 0 10 223" fill="none" xmlns="http://www.w3.org/2000/svg">
<path d="M-0.000953674 220.274C-0.000953674 219.583 0.153047 218.995 0.461047 218.51C0.77838 218.024 1.18905 217.66 1.69305 217.418C2.19705 217.175 2.73838 217.054 3.31705 217.054C3.96105 217.054 4.55371 217.208 5.09505 217.516C5.64571 217.833 6.07971 218.253 6.39705 218.776C6.71438 219.298 6.87305 219.868 6.87305 220.484C6.87305 221.128 6.69571 221.613 6.34105 221.94C5.98638 222.276 5.51505 222.444 4.92705 222.444C4.82438 222.444 4.74971 222.43 4.70305 222.402C4.66571 222.383 4.64705 222.341 4.64705 222.276V221.282C4.72171 221.291 4.83371 221.296 4.98305 221.296C5.49638 221.296 5.88838 221.188 6.15905 220.974C6.42971 220.768 6.56505 220.456 6.56505 220.036C6.56505 219.476 6.31771 219.023 5.82305 218.678C5.33771 218.332 4.67971 218.16 3.84905 218.16C2.85971 218.16 2.05238 218.398 1.42705 218.874C0.801713 219.35 0.489047 220.003 0.489047 220.834C0.489047 221.431 0.633713 221.93 0.923047 222.332V222.346C0.923047 222.374 0.90438 222.397 0.867046 222.416C0.839046 222.444 0.811047 222.448 0.783047 222.43C0.26038 221.776 -0.000953674 221.058 -0.000953674 220.274ZM4.84305 217.726L4.91305 221.674H4.64705L4.63305 217.74L4.84305 217.726Z" fill="#421D12"/>
<path d="M5.61467 211.294C5.34401 211.294 5.10601 211.364 4.90067 211.504C4.69534 211.654 4.52267 211.831 4.38267 212.036C4.25201 212.251 4.08867 212.545 3.89267 212.918C3.69667 213.301 3.51934 213.609 3.36067 213.842C3.20201 214.085 3.00134 214.286 2.75867 214.444C2.52534 214.612 2.24534 214.696 1.91867 214.696C1.564 214.696 1.23734 214.594 0.938672 214.388C0.649338 214.192 0.420672 213.912 0.252672 213.548C0.0846715 213.184 0.000671387 212.764 0.000671387 212.288C0.000671387 211.934 0.0473385 211.593 0.140672 211.266C0.224672 210.949 0.341338 210.688 0.490672 210.482C0.518672 210.436 0.551338 210.403 0.588672 210.384C0.626005 210.375 0.686672 210.366 0.770672 210.356L2.21267 210.23C2.25001 210.23 2.27334 210.254 2.28267 210.3C2.29201 210.347 2.27801 210.38 2.24067 210.398C1.69934 210.585 1.23267 210.87 0.840672 211.252C0.448671 211.644 0.252672 212.078 0.252672 212.554C0.252672 212.862 0.341338 213.128 0.518672 213.352C0.705338 213.576 0.990005 213.688 1.37267 213.688C1.67134 213.688 1.93267 213.614 2.15667 213.464C2.39001 213.315 2.58134 213.128 2.73067 212.904C2.88934 212.68 3.06667 212.391 3.26267 212.036C3.45867 211.672 3.63134 211.378 3.78067 211.154C3.93934 210.93 4.13067 210.739 4.35467 210.58C4.58801 210.431 4.85867 210.356 5.16667 210.356C5.69867 210.356 6.11867 210.571 6.42667 211C6.73467 211.439 6.88867 211.962 6.88867 212.568C6.88867 213.1 6.78134 213.604 6.56667 214.08C6.52934 214.155 6.49201 214.206 6.45467 214.234C6.42667 214.262 6.38001 214.281 6.31467 214.29L5.06867 214.346C5.03134 214.346 5.00801 214.323 4.99867 214.276C4.98934 214.23 4.99867 214.197 5.02667 214.178C5.23201 214.132 5.46067 214.024 5.71267 213.856C5.97401 213.688 6.19334 213.474 6.37067 213.212C6.55734 212.951 6.65067 212.657 6.65067 212.33C6.65067 211.994 6.55267 211.738 6.35667 211.56C6.17001 211.383 5.92267 211.294 5.61467 211.294Z" fill="#421D12"/>
<path d="M1.3027 206.606C1.0227 206.606 0.812703 206.629 0.672703 206.676C0.542036 206.722 0.45337 206.811 0.406703 206.942C0.360036 207.082 0.336703 207.301 0.336703 207.6C0.336703 207.628 0.308703 207.642 0.252703 207.642C0.196702 207.642 0.168703 207.628 0.168703 207.6C0.168703 207.329 0.17337 207.119 0.182703 206.97L0.196703 206.074L0.182703 205.206C0.17337 205.047 0.168703 204.828 0.168703 204.548C0.168703 204.529 0.196702 204.52 0.252703 204.52C0.308703 204.52 0.336703 204.529 0.336703 204.548C0.336703 204.846 0.360036 205.066 0.406703 205.206C0.45337 205.346 0.542036 205.439 0.672703 205.486C0.812703 205.542 1.0227 205.57 1.3027 205.57H5.5867C5.8667 205.57 6.07204 205.542 6.2027 205.486C6.33337 205.439 6.42204 205.346 6.4687 205.206C6.5247 205.066 6.5527 204.846 6.5527 204.548C6.5527 204.529 6.5807 204.52 6.6367 204.52C6.6927 204.52 6.7207 204.529 6.7207 204.548L6.7067 205.206C6.68804 205.56 6.6787 205.85 6.6787 206.074C6.6787 206.307 6.68804 206.61 6.7067 206.984L6.7207 207.6C6.7207 207.628 6.6927 207.642 6.6367 207.642C6.5807 207.642 6.5527 207.628 6.5527 207.6C6.5527 207.31 6.5247 207.096 6.4687 206.956C6.4127 206.825 6.3147 206.732 6.1747 206.676C6.04404 206.629 5.8387 206.606 5.5587 206.606H1.3027Z" fill="#421D12"/>
<path d="M5.5587 200.096C5.8387 200.096 6.04404 200.073 6.1747 200.026C6.3147 199.979 6.4127 199.886 6.4687 199.746C6.5247 199.606 6.5527 199.391 6.5527 199.102C6.5527 199.074 6.5807 199.06 6.6367 199.06C6.6927 199.06 6.7207 199.074 6.7207 199.102L6.7067 199.732C6.68804 200.087 6.6787 200.385 6.6787 200.628C6.6787 200.843 6.68804 201.127 6.7067 201.482L6.7207 202.14C6.7207 202.159 6.6927 202.168 6.6367 202.168C6.5807 202.168 6.5527 202.159 6.5527 202.14C6.5527 201.841 6.5247 201.622 6.4687 201.482C6.42204 201.342 6.33337 201.244 6.2027 201.188C6.07204 201.141 5.8667 201.118 5.5867 201.118H1.3027C1.0227 201.118 0.812703 201.141 0.672703 201.188C0.542036 201.244 0.45337 201.342 0.406703 201.482C0.360036 201.622 0.336703 201.841 0.336703 202.14C0.336703 202.159 0.308703 202.168 0.252703 202.168C0.196702 202.168 0.168703 202.159 0.168703 202.14C0.168703 201.86 0.17337 201.641 0.182703 201.482L0.196703 200.628L0.182703 199.732C0.17337 199.583 0.168703 199.373 0.168703 199.102C0.168703 199.074 0.196702 199.06 0.252703 199.06C0.308703 199.06 0.336703 199.074 0.336703 199.102C0.336703 199.401 0.360036 199.615 0.406703 199.746C0.45337 199.886 0.542036 199.979 0.672703 200.026C0.812703 200.073 1.0227 200.096 1.3027 200.096H5.5587ZM3.6127 195.812V200.558H3.3327V195.812H3.6127ZM5.5867 195.336C5.8667 195.336 6.07204 195.308 6.2027 195.252C6.33337 195.205 6.42204 195.112 6.4687 194.972C6.5247 194.841 6.5527 194.631 6.5527 194.342C6.5527 194.314 6.5807 194.3 6.6367 194.3C6.6927 194.3 6.7207 194.314 6.7207 194.342L6.7067 194.972C6.68804 195.327 6.6787 195.616 6.6787 195.84C6.6787 196.064 6.68804 196.363 6.7067 196.736L6.7207 197.352C6.7207 197.38 6.6927 197.394 6.6367 197.394C6.5807 197.394 6.5527 197.38 6.5527 197.352C6.5527 197.063 6.5247 196.848 6.4687 196.708C6.4127 196.577 6.3147 196.484 6.1747 196.428C6.04404 196.381 5.8387 196.358 5.5587 196.358H1.3027C1.0227 196.358 0.812703 196.381 0.672703 196.428C0.542036 196.475 0.45337 196.563 0.406703 196.694C0.360036 196.834 0.336703 197.053 0.336703 197.352C0.336703 197.38 0.308703 197.394 0.252703 197.394C0.196702 197.394 0.168703 197.38 0.168703 197.352C0.168703 197.081 0.17337 196.871 0.182703 196.722L0.196703 195.84L0.182703 194.972C0.17337 194.813 0.168703 194.594 0.168703 194.314C0.168703 194.295 0.196702 194.286 0.252703 194.286C0.308703 194.286 0.336703 194.295 0.336703 194.314C0.336703 194.613 0.360036 194.832 0.406703 194.972C0.45337 195.112 0.542036 195.205 0.672703 195.252C0.812703 195.308 1.0227 195.336 1.3027 195.336H5.5867Z" fill="#421D12"/>
<path d="M6.88867 189.286C6.88867 189.641 6.85134 190.019 6.77667 190.42C6.71134 190.831 6.61334 191.162 6.48267 191.414C6.45467 191.479 6.42667 191.521 6.39867 191.54C6.37067 191.559 6.31934 191.573 6.24467 191.582L4.80267 191.694C4.77467 191.694 4.75601 191.666 4.74667 191.61C4.73734 191.563 4.75134 191.535 4.78867 191.526C6.03001 191.087 6.65067 190.257 6.65067 189.034C6.65067 188.558 6.52467 188.138 6.27267 187.774C6.02067 187.41 5.66601 187.125 5.20867 186.92C4.76067 186.724 4.25201 186.626 3.68267 186.626C3.10401 186.626 2.54867 186.729 2.01667 186.934C1.49401 187.139 1.06467 187.447 0.728672 187.858C0.392672 188.278 0.224672 188.787 0.224672 189.384C0.224672 189.925 0.378672 190.383 0.686672 190.756C0.994672 191.139 1.47534 191.442 2.12867 191.666C2.16601 191.675 2.18 191.703 2.17067 191.75C2.16134 191.797 2.14267 191.82 2.11467 191.82L0.630672 191.666C0.556005 191.657 0.504672 191.643 0.476672 191.624C0.448672 191.605 0.416005 191.554 0.378672 191.47C0.126672 190.751 0.000671387 190.005 0.000671387 189.23C0.000671387 188.343 0.178005 187.611 0.532671 187.032C0.887338 186.463 1.33067 186.052 1.86267 185.8C2.39467 185.548 2.93134 185.422 3.47267 185.422C4.11667 185.422 4.69534 185.59 5.20867 185.926C5.73134 186.262 6.14201 186.724 6.44067 187.312C6.73934 187.909 6.88867 188.567 6.88867 189.286Z" fill="#421D12"/>
<path d="M1.33067 177.657C1.05067 177.657 0.840672 177.675 0.700672 177.713C0.570005 177.759 0.476671 177.843 0.420671 177.965C0.364671 178.095 0.336672 178.296 0.336672 178.567C0.336672 178.585 0.308672 178.595 0.252672 178.595C0.196671 178.595 0.168672 178.585 0.168672 178.567C0.168672 178.305 0.173338 178.1 0.182672 177.951L0.196671 177.111L0.182672 176.285C0.173338 176.135 0.168672 175.93 0.168672 175.669C0.168672 175.65 0.196671 175.641 0.252672 175.641C0.308672 175.641 0.336672 175.65 0.336672 175.669C0.336672 175.949 0.360005 176.154 0.406672 176.285C0.462672 176.415 0.556005 176.504 0.686672 176.551C0.817338 176.607 1.02267 176.635 1.30267 176.635H5.58667C5.86667 176.635 6.07201 176.611 6.20267 176.565C6.33334 176.518 6.42201 176.429 6.46867 176.299C6.52467 176.177 6.55267 175.981 6.55267 175.711C6.55267 175.683 6.58067 175.669 6.63667 175.669C6.69267 175.669 6.72067 175.683 6.72067 175.711L6.70667 176.621L6.72067 177.391C6.72067 177.503 6.70201 177.573 6.66467 177.601C6.63667 177.638 6.56667 177.657 6.45467 177.657H1.33067ZM5.05467 177.153C5.68934 177.638 6.15134 178.133 6.44067 178.637C6.73934 179.141 6.88867 179.687 6.88867 180.275C6.88867 180.947 6.69734 181.493 6.31467 181.913C5.94134 182.342 5.34867 182.557 4.53667 182.557H1.30267C1.02267 182.557 0.812672 182.575 0.672672 182.613C0.542005 182.65 0.453338 182.72 0.406672 182.823C0.360005 182.925 0.336672 183.089 0.336672 183.313C0.336672 183.331 0.308672 183.341 0.252672 183.341C0.196671 183.341 0.168672 183.331 0.168672 183.313C0.168672 183.079 0.173338 182.897 0.182672 182.767L0.196671 182.025L0.182672 181.171C0.173338 181.031 0.168672 180.839 0.168672 180.597C0.168672 180.578 0.196671 180.569 0.252672 180.569C0.308672 180.569 0.336672 180.578 0.336672 180.597C0.336672 180.867 0.364671 181.068 0.420671 181.199C0.476671 181.339 0.570005 181.432 0.700672 181.479C0.840672 181.525 1.05067 181.549 1.33067 181.549H4.11667C5.01267 181.549 5.62867 181.399 5.96467 181.101C6.31001 180.811 6.48267 180.391 6.48267 179.841C6.48267 179.383 6.36134 178.959 6.11867 178.567C5.88534 178.175 5.47934 177.759 4.90067 177.321L5.05467 177.153Z" fill="#421D12"/>
<path d="M0.0557022 172.217C0.0557022 172.105 0.107036 171.983 0.209702 171.853C0.312369 171.731 0.471036 171.624 0.685703 171.531C0.90037 171.447 1.17104 171.405 1.4977 171.405H4.8857C5.45504 171.405 5.87037 171.33 6.1317 171.181C6.39304 171.031 6.5237 170.793 6.5237 170.467C6.5237 170.084 6.38837 169.795 6.1177 169.599C5.84704 169.412 5.5017 169.267 5.0817 169.165C4.68037 169.062 4.4797 168.852 4.4797 168.535C4.4797 168.357 4.52637 168.213 4.6197 168.101C4.72237 167.998 4.85304 167.947 5.0117 167.947C5.25437 167.947 5.52037 168.115 5.8097 168.451C6.09904 168.796 6.3417 169.207 6.5377 169.683C6.74304 170.168 6.8457 170.611 6.8457 171.013C6.8457 171.442 6.71504 171.783 6.4537 172.035C6.2017 172.296 5.81904 172.427 5.3057 172.427H1.9737C1.5257 172.427 1.2177 172.492 1.0497 172.623C0.881702 172.753 0.797703 172.931 0.797703 173.155C0.797703 173.304 0.849036 173.505 0.951703 173.757V173.771C0.951703 173.808 0.92837 173.831 0.881703 173.841C0.844369 173.859 0.81637 173.85 0.797703 173.813L0.083703 172.329L0.0557022 172.217ZM0.0697031 169.123C0.0697031 168.777 0.167703 168.493 0.363703 168.269C0.559703 168.045 0.793036 167.933 1.0637 167.933C1.39037 167.933 1.66104 168.045 1.8757 168.269C2.0997 168.493 2.3097 168.875 2.5057 169.417L3.3177 171.657L3.1217 171.699L2.4637 169.963C2.34237 169.655 2.1977 169.435 2.0297 169.305C1.87104 169.174 1.6797 169.109 1.4557 169.109C1.22237 169.109 1.02637 169.179 0.867702 169.319C0.709036 169.468 0.629703 169.645 0.629703 169.851C0.629703 170.047 0.699703 170.28 0.839703 170.551L1.4697 171.797L1.2737 171.811L0.545702 170.537C0.368369 170.219 0.242369 169.953 0.167703 169.739C0.102369 169.533 0.0697031 169.328 0.0697031 169.123Z" fill="#421D12"/>
<path d="M0.335719 161.673C0.335719 161.701 0.307719 161.715 0.251719 161.715C0.195718 161.715 0.167718 161.701 0.167718 161.673C0.167718 161.412 0.172385 161.207 0.181718 161.057L0.195718 160.161L0.181718 159.293C0.172385 159.135 0.167718 158.915 0.167718 158.635C0.167718 158.617 0.195718 158.607 0.251719 158.607C0.307719 158.607 0.335719 158.617 0.335719 158.635C0.335719 158.934 0.359052 159.153 0.405718 159.293C0.452385 159.433 0.541052 159.527 0.671719 159.573C0.811718 159.629 1.02172 159.657 1.30172 159.657H5.58572C5.86572 159.657 6.07105 159.629 6.20172 159.573C6.33239 159.527 6.42105 159.433 6.46772 159.293C6.52372 159.163 6.55172 158.953 6.55172 158.663C6.55172 158.635 6.57972 158.621 6.63572 158.621C6.69172 158.621 6.71972 158.635 6.71972 158.663L6.70572 159.307C6.68705 159.662 6.67772 159.947 6.67772 160.161C6.67772 160.339 6.68239 160.497 6.69172 160.637C6.70105 160.787 6.71039 160.913 6.71972 161.015C6.74772 161.314 6.76172 161.589 6.76172 161.841C6.76172 162.485 6.64505 162.975 6.41172 163.311C6.17839 163.657 5.84239 163.829 5.40372 163.829C5.02105 163.829 4.66639 163.708 4.33972 163.465C4.01305 163.232 3.75172 162.91 3.55572 162.499C3.36905 162.089 3.27572 161.636 3.27572 161.141C3.27572 160.843 3.29439 160.586 3.33172 160.371L3.62572 160.357C3.56039 160.591 3.52772 160.885 3.52772 161.239C3.52772 161.799 3.65372 162.187 3.90572 162.401C4.15772 162.625 4.53105 162.737 5.02572 162.737C6.03372 162.737 6.53772 162.322 6.53772 161.491C6.53772 161.155 6.46772 160.936 6.32772 160.833C6.19705 160.74 5.94039 160.693 5.55772 160.693H1.30172C1.01238 160.693 0.802385 160.717 0.671719 160.763C0.541052 160.81 0.452385 160.899 0.405718 161.029C0.359052 161.16 0.335719 161.375 0.335719 161.673ZM0.335719 165.873C0.335719 165.901 0.307719 165.915 0.251719 165.915C0.195718 165.915 0.167718 165.901 0.167718 165.873V164.039C0.167718 163.881 0.457052 163.591 1.03572 163.171C1.61439 162.751 2.40772 162.252 3.41572 161.673L3.70972 162.541C2.83239 163.073 2.15105 163.521 1.66572 163.885C1.18972 164.249 0.849051 164.585 0.643718 164.893C0.438385 165.201 0.335719 165.528 0.335719 165.873Z" fill="#421D12"/>
<path d="M0.167969 150.156C0.167969 150.128 0.195969 150.114 0.251968 150.114C0.307968 150.114 0.335969 150.128 0.335969 150.156C0.335969 150.502 0.359302 150.754 0.405969 150.912C0.452636 151.071 0.541302 151.178 0.671968 151.234C0.811969 151.3 1.02197 151.332 1.30197 151.332H7.78397C8.06397 151.332 8.2693 151.304 8.39997 151.248C8.53064 151.192 8.6193 151.085 8.66597 150.926C8.72197 150.777 8.74997 150.534 8.74997 150.198C8.74997 150.17 8.77797 150.156 8.83397 150.156C8.88997 150.156 8.91797 150.17 8.91797 150.198V155.91C8.91797 156.004 8.87597 156.05 8.79197 156.05L7.02797 156.078C6.99997 156.078 6.9813 156.05 6.97197 155.994C6.97197 155.948 6.98597 155.92 7.01397 155.91C7.5273 155.845 7.9193 155.663 8.18997 155.364C8.46064 155.066 8.59597 154.674 8.59597 154.188V153.474C8.59597 153.073 8.5353 152.798 8.41397 152.648C8.30197 152.508 8.0873 152.438 7.76997 152.438H1.35797C1.0593 152.438 0.839969 152.476 0.699968 152.55C0.569302 152.634 0.475968 152.788 0.419969 153.012C0.363969 153.236 0.335969 153.591 0.335969 154.076C0.335969 154.095 0.307968 154.104 0.251968 154.104C0.195969 154.104 0.167969 154.095 0.167969 154.076C0.167969 153.694 0.172635 153.395 0.181969 153.18L0.195969 151.864L0.181969 150.884C0.172635 150.707 0.167969 150.464 0.167969 150.156ZM3.21997 155.21C3.6213 155.21 3.9153 155.089 4.10197 154.846C4.29797 154.604 4.39597 154.216 4.39597 153.684V151.906H4.71797V153.726C4.71797 154.23 4.80197 154.599 4.96997 154.832C5.13797 155.075 5.38997 155.196 5.72597 155.196C5.74464 155.196 5.75397 155.224 5.75397 155.28C5.75397 155.336 5.74464 155.364 5.72597 155.364L4.54997 155.35C4.26997 155.35 4.05997 155.355 3.91997 155.364L3.21997 155.378C3.2013 155.378 3.19197 155.35 3.19197 155.294C3.19197 155.238 3.2013 155.21 3.21997 155.21Z" fill="#421D12"/>
<path d="M5.61467 139.632C5.34401 139.632 5.10601 139.702 4.90067 139.842C4.69534 139.992 4.52267 140.169 4.38267 140.374C4.25201 140.589 4.08867 140.883 3.89267 141.256C3.69667 141.639 3.51934 141.947 3.36067 142.18C3.20201 142.423 3.00134 142.624 2.75867 142.782C2.52534 142.95 2.24534 143.034 1.91867 143.034C1.564 143.034 1.23734 142.932 0.938672 142.726C0.649338 142.53 0.420672 142.25 0.252672 141.886C0.0846715 141.522 0.000671387 141.102 0.000671387 140.626C0.000671387 140.272 0.0473385 139.931 0.140672 139.604C0.224672 139.287 0.341338 139.026 0.490672 138.82C0.518672 138.774 0.551338 138.741 0.588672 138.722C0.626005 138.713 0.686672 138.704 0.770672 138.694L2.21267 138.568C2.25001 138.568 2.27334 138.592 2.28267 138.638C2.29201 138.685 2.27801 138.718 2.24067 138.736C1.69934 138.923 1.23267 139.208 0.840672 139.59C0.448671 139.982 0.252672 140.416 0.252672 140.892C0.252672 141.2 0.341338 141.466 0.518672 141.69C0.705338 141.914 0.990005 142.026 1.37267 142.026C1.67134 142.026 1.93267 141.952 2.15667 141.802C2.39001 141.653 2.58134 141.466 2.73067 141.242C2.88934 141.018 3.06667 140.729 3.26267 140.374C3.45867 140.01 3.63134 139.716 3.78067 139.492C3.93934 139.268 4.13067 139.077 4.35467 138.918C4.58801 138.769 4.85867 138.694 5.16667 138.694C5.69867 138.694 6.11867 138.909 6.42667 139.338C6.73467 139.777 6.88867 140.3 6.88867 140.906C6.88867 141.438 6.78134 141.942 6.56667 142.418C6.52934 142.493 6.49201 142.544 6.45467 142.572C6.42667 142.6 6.38001 142.619 6.31467 142.628L5.06867 142.684C5.03134 142.684 5.00801 142.661 4.99867 142.614C4.98934 142.568 4.99867 142.535 5.02667 142.516C5.23201 142.47 5.46067 142.362 5.71267 142.194C5.97401 142.026 6.19334 141.812 6.37067 141.55C6.55734 141.289 6.65067 140.995 6.65067 140.668C6.65067 140.332 6.55267 140.076 6.35667 139.898C6.17001 139.721 5.92267 139.632 5.61467 139.632Z" fill="#421D12"/>
<path d="M0.000858307 134.312C0.000858307 133.771 0.150192 133.318 0.448859 132.954C0.747525 132.6 1.24219 132.422 1.93286 132.422H5.60086C5.90886 132.422 6.10486 132.376 6.18886 132.282C6.27286 132.198 6.31486 132.002 6.31486 131.694C6.31486 131.666 6.34753 131.652 6.41286 131.652C6.47819 131.652 6.51086 131.666 6.51086 131.694C6.51086 132.105 6.60886 132.45 6.80486 132.73C7.01019 133.02 7.27153 133.188 7.58886 133.234C7.61686 133.234 7.63086 133.262 7.63086 133.318C7.63086 133.346 7.62153 133.374 7.60286 133.402C7.59353 133.43 7.58419 133.444 7.57486 133.444H2.33886C1.72286 133.444 1.26086 133.561 0.952858 133.794C0.654192 134.028 0.504858 134.387 0.504858 134.872C0.504858 135.376 0.630859 135.815 0.882859 136.188L0.896859 136.216C0.896859 136.244 0.873525 136.268 0.826859 136.286C0.789525 136.305 0.761525 136.3 0.742858 136.272C0.472192 135.89 0.280859 135.549 0.168859 135.25C0.0568585 134.961 0.000858307 134.648 0.000858307 134.312ZM5.97886 135.852C6.16553 135.096 6.25886 134.191 6.25886 133.136H6.55286C6.55286 133.836 6.59486 134.756 6.67886 135.894C6.67886 135.922 6.64619 135.946 6.58086 135.964C6.52486 135.983 6.45486 135.992 6.37086 135.992C6.27753 135.992 6.18419 135.974 6.09086 135.936C6.00686 135.908 5.96953 135.88 5.97886 135.852Z" fill="#421D12"/>
<path d="M-0.000953674 127.28C-0.000953674 126.589 0.153047 126.001 0.461047 125.516C0.77838 125.03 1.18905 124.666 1.69305 124.424C2.19705 124.181 2.73838 124.06 3.31705 124.06C3.96105 124.06 4.55371 124.214 5.09505 124.522C5.64571 124.839 6.07971 125.259 6.39705 125.782C6.71438 126.304 6.87305 126.874 6.87305 127.49C6.87305 128.134 6.69571 128.619 6.34105 128.946C5.98638 129.282 5.51505 129.45 4.92705 129.45C4.82438 129.45 4.74971 129.436 4.70305 129.408C4.66571 129.389 4.64705 129.347 4.64705 129.282V128.288C4.72171 128.297 4.83371 128.302 4.98305 128.302C5.49638 128.302 5.88838 128.194 6.15905 127.98C6.42971 127.774 6.56505 127.462 6.56505 127.042C6.56505 126.482 6.31771 126.029 5.82305 125.684C5.33771 125.338 4.67971 125.166 3.84905 125.166C2.85971 125.166 2.05238 125.404 1.42705 125.88C0.801713 126.356 0.489047 127.009 0.489047 127.84C0.489047 128.437 0.633713 128.936 0.923047 129.338V129.352C0.923047 129.38 0.90438 129.403 0.867046 129.422C0.839046 129.45 0.811047 129.454 0.783047 129.436C0.26038 128.782 -0.000953674 128.064 -0.000953674 127.28ZM4.84305 124.732L4.91305 128.68H4.64705L4.63305 124.746L4.84305 124.732Z" fill="#421D12"/>
<path d="M-0.000953674 119.659C-0.000953674 118.969 0.153047 118.381 0.461047 117.895C0.77838 117.41 1.18905 117.046 1.69305 116.803C2.19705 116.561 2.73838 116.439 3.31705 116.439C3.96105 116.439 4.55371 116.593 5.09505 116.901C5.64571 117.219 6.07971 117.639 6.39705 118.161C6.71438 118.684 6.87305 119.253 6.87305 119.869C6.87305 120.513 6.69571 120.999 6.34105 121.325C5.98638 121.661 5.51505 121.829 4.92705 121.829C4.82438 121.829 4.74971 121.815 4.70305 121.787C4.66571 121.769 4.64705 121.727 4.64705 121.661V120.667C4.72171 120.677 4.83371 120.681 4.98305 120.681C5.49638 120.681 5.88838 120.574 6.15905 120.359C6.42971 120.154 6.56505 119.841 6.56505 119.421C6.56505 118.861 6.31771 118.409 5.82305 118.063C5.33771 117.718 4.67971 117.545 3.84905 117.545C2.85971 117.545 2.05238 117.783 1.42705 118.259C0.801713 118.735 0.489047 119.389 0.489047 120.219C0.489047 120.817 0.633713 121.316 0.923047 121.717V121.731C0.923047 121.759 0.90438 121.783 0.867046 121.801C0.839046 121.829 0.811047 121.834 0.783047 121.815C0.26038 121.162 -0.000953674 120.443 -0.000953674 119.659ZM4.84305 117.111L4.91305 121.059H4.64705L4.63305 117.125L4.84305 117.111Z" fill="#421D12"/>
<path d="M6.7207 114.626C6.7207 114.654 6.6927 114.668 6.6367 114.668C6.5807 114.668 6.5527 114.654 6.5527 114.626C6.5527 114.327 6.45937 114.07 6.2727 113.856C6.08604 113.65 5.76404 113.454 5.3067 113.268L0.182703 111.252C0.14537 111.242 0.126703 111.191 0.126703 111.098C0.126703 111.014 0.14537 110.958 0.182703 110.93L5.5587 108.382C5.96937 108.176 6.23537 108.018 6.3567 107.906C6.48737 107.803 6.5527 107.658 6.5527 107.472C6.5527 107.453 6.5807 107.444 6.6367 107.444C6.6927 107.444 6.7207 107.453 6.7207 107.472L6.7067 107.906C6.68804 108.148 6.6787 108.349 6.6787 108.508C6.6787 108.648 6.68804 108.83 6.7067 109.054L6.7207 109.432C6.7207 109.45 6.6927 109.46 6.6367 109.46C6.5807 109.46 6.5527 109.45 6.5527 109.432C6.5527 109.329 6.54337 109.254 6.5247 109.208C6.50604 109.161 6.4687 109.138 6.4127 109.138C6.3567 109.138 6.26337 109.161 6.1327 109.208C6.01137 109.264 5.8667 109.334 5.6987 109.418L1.3167 111.56L0.378703 111.07L5.3627 112.932C5.6427 113.034 5.8667 113.086 6.0347 113.086C6.38004 113.086 6.5527 112.908 6.5527 112.554C6.5527 112.535 6.5807 112.526 6.6367 112.526C6.6927 112.526 6.7207 112.535 6.7207 112.554L6.7067 112.932C6.68804 113.137 6.6787 113.319 6.6787 113.478C6.6787 113.636 6.68804 113.837 6.7067 114.08L6.7207 114.626ZM0.182703 108.298C0.14537 108.288 0.126703 108.237 0.126703 108.144C0.126703 108.05 0.14537 107.999 0.182703 107.99L5.5587 105.414C5.9507 105.227 6.21204 105.064 6.3427 104.924C6.4827 104.784 6.5527 104.592 6.5527 104.35C6.5527 104.322 6.5807 104.308 6.6367 104.308C6.6927 104.308 6.7207 104.322 6.7207 104.35C6.7207 104.471 6.71137 104.662 6.6927 104.924L6.6787 105.484C6.6787 105.726 6.68804 105.988 6.7067 106.268C6.71604 106.37 6.7207 106.496 6.7207 106.646C6.7207 106.664 6.6927 106.674 6.6367 106.674C6.5807 106.674 6.5527 106.664 6.5527 106.646C6.5527 106.412 6.4547 106.296 6.2587 106.296C6.13737 106.296 5.9507 106.352 5.6987 106.464L1.3167 108.606L0.392703 108.13L3.7807 109.474L3.5707 109.698L0.182703 108.298ZM5.5447 110.342C5.8527 110.463 6.08604 110.524 6.2447 110.524C6.45004 110.524 6.5527 110.412 6.5527 110.188C6.5527 110.169 6.5807 110.16 6.6367 110.16C6.6927 110.16 6.7207 110.169 6.7207 110.188C6.7207 110.272 6.71137 110.384 6.6927 110.524C6.68337 110.664 6.6787 110.799 6.6787 110.93C6.6787 111.098 6.68804 111.275 6.7067 111.462L6.7207 111.91C6.7207 111.938 6.6927 111.952 6.6367 111.952C6.5807 111.952 6.5527 111.938 6.5527 111.91C6.5527 111.592 6.47804 111.34 6.3287 111.154C6.17937 110.976 5.89004 110.794 5.4607 110.608L3.5707 109.866L3.7807 109.698L5.5447 110.342Z" fill="#421D12"/>
<path d="M7.35027 98.1471C6.9956 98.1471 6.68293 98.2357 6.41227 98.4131C6.15093 98.5904 5.92227 98.8051 5.72627 99.0571C5.5396 99.3091 5.31093 99.6591 5.04027 100.107C4.75093 100.574 4.49893 100.942 4.28427 101.213C4.07893 101.493 3.82227 101.731 3.51427 101.927C3.20626 102.123 2.84227 102.221 2.42227 102.221C1.96493 102.221 1.5496 102.1 1.17626 101.857C0.812264 101.624 0.522931 101.283 0.308265 100.835C0.102931 100.396 0.000265121 99.8831 0.000265121 99.2951C0.000265121 98.9217 0.0469322 98.5531 0.140265 98.1891C0.224265 97.8251 0.350265 97.5077 0.518265 97.2371C0.546265 97.1904 0.578932 97.1577 0.616265 97.1391C0.653599 97.1204 0.709599 97.1111 0.784266 97.1111L2.78627 96.9711C2.8236 96.9618 2.84693 96.9804 2.85627 97.0271C2.8656 97.0831 2.8516 97.1157 2.81427 97.1251C2.10493 97.3491 1.50293 97.6617 1.00827 98.0631C0.513598 98.4644 0.266265 98.9871 0.266265 99.6311C0.266265 100.07 0.382932 100.438 0.616265 100.737C0.858932 101.036 1.25093 101.185 1.79226 101.185C2.20293 101.185 2.56226 101.092 2.87027 100.905C3.17827 100.718 3.43493 100.49 3.64027 100.219C3.85493 99.9484 4.0976 99.5891 4.36827 99.1411C4.64827 98.7024 4.88627 98.3524 5.08227 98.0911C5.2876 97.8391 5.53493 97.6244 5.82427 97.4471C6.12293 97.2697 6.46827 97.1811 6.86027 97.1811C7.33627 97.1811 7.74227 97.3071 8.07827 97.5591C8.41427 97.8204 8.6616 98.1564 8.82027 98.5671C8.98827 98.9871 9.07227 99.4257 9.07227 99.8831C9.07227 100.499 8.96493 101.064 8.75027 101.577C8.68493 101.717 8.60093 101.787 8.49827 101.787L6.74827 101.857C6.71093 101.857 6.6876 101.829 6.67827 101.773C6.67827 101.726 6.69693 101.698 6.73427 101.689C7.23827 101.586 7.71427 101.367 8.16227 101.031C8.61027 100.704 8.83427 100.233 8.83427 99.6171C8.83427 99.1504 8.69427 98.7864 8.41427 98.5251C8.13427 98.2731 7.7796 98.1471 7.35027 98.1471Z" fill="#421D12"/>
<path d="M0.112047 85.8027C0.112047 85.5507 0.126047 85.2614 0.154047 84.9347C0.16338 84.8227 0.172713 84.6827 0.182046 84.5147C0.19138 84.3467 0.196046 84.1554 0.196046 83.9407L0.182046 83.0727C0.172713 82.9141 0.168046 82.6947 0.168046 82.4147C0.168046 82.3961 0.196046 82.3867 0.252047 82.3867C0.308047 82.3867 0.336047 82.3961 0.336047 82.4147C0.336047 82.7227 0.35938 82.9467 0.406046 83.0867C0.452713 83.2267 0.54138 83.3201 0.672047 83.3667C0.812047 83.4134 1.02205 83.4367 1.30205 83.4367H5.58605C5.86605 83.4367 6.07138 83.4134 6.20205 83.3667C6.33271 83.3201 6.42138 83.2267 6.46805 83.0867C6.52405 82.9467 6.55205 82.7321 6.55205 82.4427C6.55205 82.4147 6.58005 82.4007 6.63605 82.4007C6.69205 82.4007 6.72005 82.4147 6.72005 82.4427L6.70605 83.0727C6.68738 83.4274 6.67805 83.7167 6.67805 83.9407C6.67805 84.2301 6.69205 84.5194 6.72005 84.8087C6.73871 85.1821 6.74805 85.4621 6.74805 85.6487C6.74805 86.4327 6.60805 87.1094 6.32805 87.6787C6.04805 88.2481 5.66071 88.6821 5.16605 88.9807C4.67138 89.2794 4.11138 89.4287 3.48605 89.4287C2.84205 89.4287 2.26338 89.2747 1.75005 88.9667C1.23671 88.6587 0.83538 88.2294 0.546046 87.6787C0.256713 87.1281 0.112047 86.5027 0.112047 85.8027ZM0.350047 85.6487C0.350047 86.4607 0.606713 87.0907 1.12005 87.5387C1.63338 87.9961 2.37071 88.2247 3.33205 88.2247C4.25605 88.2247 5.01671 88.0007 5.61405 87.5527C6.22071 87.1047 6.52405 86.4281 6.52405 85.5227C6.52405 85.1307 6.45405 84.8554 6.31405 84.6967C6.17405 84.5381 5.92205 84.4587 5.55805 84.4587H1.45605C1.05471 84.4587 0.770047 84.5381 0.602046 84.6967C0.434046 84.8554 0.350047 85.1727 0.350047 85.6487Z" fill="#421D12"/>
<path d="M1.33067 74.6635C1.05067 74.6635 0.840672 74.6821 0.700672 74.7195C0.570005 74.7661 0.476671 74.8501 0.420671 74.9715C0.364671 75.1021 0.336672 75.3028 0.336672 75.5735C0.336672 75.5921 0.308672 75.6015 0.252672 75.6015C0.196671 75.6015 0.168672 75.5921 0.168672 75.5735C0.168672 75.3121 0.173338 75.1068 0.182672 74.9575L0.196671 74.1175L0.182672 73.2915C0.173338 73.1421 0.168672 72.9368 0.168672 72.6755C0.168672 72.6568 0.196671 72.6475 0.252672 72.6475C0.308672 72.6475 0.336672 72.6568 0.336672 72.6755C0.336672 72.9555 0.360005 73.1608 0.406672 73.2915C0.462672 73.4221 0.556005 73.5108 0.686672 73.5575C0.817338 73.6135 1.02267 73.6415 1.30267 73.6415H5.58667C5.86667 73.6415 6.07201 73.6181 6.20267 73.5715C6.33334 73.5248 6.42201 73.4361 6.46867 73.3055C6.52467 73.1841 6.55267 72.9881 6.55267 72.7175C6.55267 72.6895 6.58067 72.6755 6.63667 72.6755C6.69267 72.6755 6.72067 72.6895 6.72067 72.7175L6.70667 73.6275L6.72067 74.3975C6.72067 74.5095 6.70201 74.5795 6.66467 74.6075C6.63667 74.6448 6.56667 74.6635 6.45467 74.6635H1.33067ZM5.05467 74.1595C5.68934 74.6448 6.15134 75.1395 6.44067 75.6435C6.73934 76.1475 6.88867 76.6935 6.88867 77.2815C6.88867 77.9535 6.69734 78.4995 6.31467 78.9195C5.94134 79.3488 5.34867 79.5635 4.53667 79.5635H1.30267C1.02267 79.5635 0.812672 79.5821 0.672672 79.6195C0.542005 79.6568 0.453338 79.7268 0.406672 79.8295C0.360005 79.9321 0.336672 80.0955 0.336672 80.3195C0.336672 80.3381 0.308672 80.3475 0.252672 80.3475C0.196671 80.3475 0.168672 80.3381 0.168672 80.3195C0.168672 80.0861 0.173338 79.9041 0.182672 79.7735L0.196671 79.0315L0.182672 78.1775C0.173338 78.0375 0.168672 77.8461 0.168672 77.6035C0.168672 77.5848 0.196671 77.5755 0.252672 77.5755C0.308672 77.5755 0.336672 77.5848 0.336672 77.6035C0.336672 77.8741 0.364671 78.0748 0.420671 78.2055C0.476671 78.3455 0.570005 78.4388 0.700672 78.4855C0.840672 78.5321 1.05067 78.5555 1.33067 78.5555H4.11667C5.01267 78.5555 5.62867 78.4061 5.96467 78.1075C6.31001 77.8181 6.48267 77.3981 6.48267 76.8475C6.48267 76.3901 6.36134 75.9655 6.11867 75.5735C5.88534 75.1815 5.47934 74.7661 4.90067 74.3275L5.05467 74.1595Z" fill="#421D12"/>
<path d="M0.0557022 69.2244C0.0557022 69.1124 0.107036 68.9911 0.209702 68.8604C0.312369 68.7391 0.471036 68.6318 0.685703 68.5384C0.90037 68.4544 1.17104 68.4124 1.4977 68.4124H4.8857C5.45504 68.4124 5.87037 68.3378 6.1317 68.1884C6.39304 68.0391 6.5237 67.8011 6.5237 67.4744C6.5237 67.0918 6.38837 66.8024 6.1177 66.6064C5.84704 66.4198 5.5017 66.2751 5.0817 66.1724C4.68037 66.0698 4.4797 65.8598 4.4797 65.5424C4.4797 65.3651 4.52637 65.2204 4.6197 65.1084C4.72237 65.0058 4.85304 64.9544 5.0117 64.9544C5.25437 64.9544 5.52037 65.1224 5.8097 65.4584C6.09904 65.8038 6.3417 66.2144 6.5377 66.6904C6.74304 67.1758 6.8457 67.6191 6.8457 68.0204C6.8457 68.4498 6.71504 68.7904 6.4537 69.0424C6.2017 69.3038 5.81904 69.4344 5.3057 69.4344H1.9737C1.5257 69.4344 1.2177 69.4998 1.0497 69.6304C0.881702 69.7611 0.797703 69.9384 0.797703 70.1624C0.797703 70.3118 0.849036 70.5124 0.951703 70.7644V70.7784C0.951703 70.8158 0.92837 70.8391 0.881703 70.8484C0.844369 70.8671 0.81637 70.8578 0.797703 70.8204L0.083703 69.3364L0.0557022 69.2244ZM0.0697031 66.1304C0.0697031 65.7851 0.167703 65.5004 0.363703 65.2764C0.559703 65.0524 0.793036 64.9404 1.0637 64.9404C1.39037 64.9404 1.66104 65.0524 1.8757 65.2764C2.0997 65.5004 2.3097 65.8831 2.5057 66.4244L3.3177 68.6644L3.1217 68.7064L2.4637 66.9704C2.34237 66.6624 2.1977 66.4431 2.0297 66.3124C1.87104 66.1818 1.6797 66.1164 1.4557 66.1164C1.22237 66.1164 1.02637 66.1864 0.867702 66.3264C0.709036 66.4758 0.629703 66.6531 0.629703 66.8584C0.629703 67.0544 0.699703 67.2878 0.839703 67.5584L1.4697 68.8044L1.2737 68.8184L0.545702 67.5444C0.368369 67.2271 0.242369 66.9611 0.167703 66.7464C0.102369 66.5411 0.0697031 66.3358 0.0697031 66.1304Z" fill="#421D12"/>
<path d="M5.61467 54.1499C5.34401 54.1499 5.10601 54.2199 4.90067 54.3599C4.69534 54.5093 4.52267 54.6866 4.38267 54.8919C4.25201 55.1066 4.08867 55.4006 3.89267 55.7739C3.69667 56.1566 3.51934 56.4646 3.36067 56.6979C3.20201 56.9406 3.00134 57.1413 2.75867 57.2999C2.52534 57.4679 2.24534 57.5519 1.91867 57.5519C1.564 57.5519 1.23734 57.4493 0.938672 57.2439C0.649338 57.0479 0.420672 56.7679 0.252672 56.4039C0.0846715 56.0399 0.000671387 55.6199 0.000671387 55.1439C0.000671387 54.7893 0.0473385 54.4486 0.140672 54.1219C0.224672 53.8046 0.341338 53.5433 0.490672 53.3379C0.518672 53.2913 0.551338 53.2586 0.588672 53.2399C0.626005 53.2306 0.686672 53.2213 0.770672 53.2119L2.21267 53.0859C2.25001 53.0859 2.27334 53.1093 2.28267 53.1559C2.29201 53.2026 2.27801 53.2353 2.24067 53.2539C1.69934 53.4406 1.23267 53.7253 0.840672 54.1079C0.448671 54.4999 0.252672 54.9339 0.252672 55.4099C0.252672 55.7179 0.341338 55.9839 0.518672 56.2079C0.705338 56.4319 0.990005 56.5439 1.37267 56.5439C1.67134 56.5439 1.93267 56.4693 2.15667 56.3199C2.39001 56.1706 2.58134 55.9839 2.73067 55.7599C2.88934 55.5359 3.06667 55.2466 3.26267 54.8919C3.45867 54.5279 3.63134 54.2339 3.78067 54.0099C3.93934 53.7859 4.13067 53.5946 4.35467 53.4359C4.58801 53.2866 4.85867 53.2119 5.16667 53.2119C5.69867 53.2119 6.11867 53.4266 6.42667 53.8559C6.73467 54.2946 6.88867 54.8173 6.88867 55.4239C6.88867 55.9559 6.78134 56.4599 6.56667 56.9359C6.52934 57.0106 6.49201 57.0619 6.45467 57.0899C6.42667 57.1179 6.38001 57.1366 6.31467 57.1459L5.06867 57.2019C5.03134 57.2019 5.00801 57.1786 4.99867 57.1319C4.98934 57.0853 4.99867 57.0526 5.02667 57.0339C5.23201 56.9873 5.46067 56.8799 5.71267 56.7119C5.97401 56.5439 6.19334 56.3293 6.37067 56.0679C6.55734 55.8066 6.65067 55.5126 6.65067 55.1859C6.65067 54.8499 6.55267 54.5933 6.35667 54.4159C6.17001 54.2386 5.92267 54.1499 5.61467 54.1499Z" fill="#421D12"/>
<path d="M0.335719 46.9664C0.335719 46.9944 0.307719 47.0084 0.251719 47.0084C0.195718 47.0084 0.167718 46.9944 0.167718 46.9664C0.167718 46.7051 0.172385 46.4997 0.181718 46.3504L0.195718 45.4544L0.181718 44.5864C0.172385 44.4277 0.167718 44.2084 0.167718 43.9284C0.167718 43.9097 0.195718 43.9004 0.251719 43.9004C0.307719 43.9004 0.335719 43.9097 0.335719 43.9284C0.335719 44.2271 0.359052 44.4464 0.405718 44.5864C0.452385 44.7264 0.541052 44.8197 0.671719 44.8664C0.811718 44.9224 1.02172 44.9504 1.30172 44.9504H5.58572C5.86572 44.9504 6.07105 44.9224 6.20172 44.8664C6.33239 44.8197 6.42105 44.7264 6.46772 44.5864C6.52372 44.4557 6.55172 44.2457 6.55172 43.9564C6.55172 43.9284 6.57972 43.9144 6.63572 43.9144C6.69172 43.9144 6.71972 43.9284 6.71972 43.9564L6.70572 44.6004C6.68705 44.9551 6.67772 45.2397 6.67772 45.4544C6.67772 45.6317 6.68239 45.7904 6.69172 45.9304C6.70105 46.0797 6.71039 46.2057 6.71972 46.3084C6.74772 46.6071 6.76172 46.8824 6.76172 47.1344C6.76172 47.7784 6.64505 48.2684 6.41172 48.6044C6.17839 48.9497 5.84239 49.1224 5.40372 49.1224C5.02105 49.1224 4.66639 49.0011 4.33972 48.7584C4.01305 48.5251 3.75172 48.2031 3.55572 47.7924C3.36905 47.3817 3.27572 46.9291 3.27572 46.4344C3.27572 46.1357 3.29439 45.8791 3.33172 45.6644L3.62572 45.6504C3.56039 45.8837 3.52772 46.1777 3.52772 46.5324C3.52772 47.0924 3.65372 47.4797 3.90572 47.6944C4.15772 47.9184 4.53105 48.0304 5.02572 48.0304C6.03372 48.0304 6.53772 47.6151 6.53772 46.7844C6.53772 46.4484 6.46772 46.2291 6.32772 46.1264C6.19705 46.0331 5.94039 45.9864 5.55772 45.9864H1.30172C1.01238 45.9864 0.802385 46.0097 0.671719 46.0564C0.541052 46.1031 0.452385 46.1917 0.405718 46.3224C0.359052 46.4531 0.335719 46.6677 0.335719 46.9664ZM0.335719 51.1664C0.335719 51.1944 0.307719 51.2084 0.251719 51.2084C0.195718 51.2084 0.167718 51.1944 0.167718 51.1664V49.3324C0.167718 49.1737 0.457052 48.8844 1.03572 48.4644C1.61439 48.0444 2.40772 47.5451 3.41572 46.9664L3.70972 47.8344C2.83239 48.3664 2.15105 48.8144 1.66572 49.1784C1.18972 49.5424 0.849051 49.8784 0.643718 50.1864C0.438385 50.4944 0.335719 50.8211 0.335719 51.1664Z" fill="#421D12"/>
<path d="M-0.000953674 39.5423C-0.000953674 38.8516 0.153047 38.2636 0.461047 37.7783C0.77838 37.2929 1.18905 36.9289 1.69305 36.6863C2.19705 36.4436 2.73838 36.3223 3.31705 36.3223C3.96105 36.3223 4.55371 36.4763 5.09505 36.7843C5.64571 37.1016 6.07971 37.5216 6.39705 38.0443C6.71438 38.5669 6.87305 39.1363 6.87305 39.7523C6.87305 40.3963 6.69571 40.8816 6.34105 41.2083C5.98638 41.5443 5.51505 41.7123 4.92705 41.7123C4.82438 41.7123 4.74971 41.6983 4.70305 41.6703C4.66571 41.6516 4.64705 41.6096 4.64705 41.5443V40.5503C4.72171 40.5596 4.83371 40.5643 4.98305 40.5643C5.49638 40.5643 5.88838 40.4569 6.15905 40.2423C6.42971 40.0369 6.56505 39.7243 6.56505 39.3043C6.56505 38.7443 6.31771 38.2916 5.82305 37.9463C5.33771 37.6009 4.67971 37.4283 3.84905 37.4283C2.85971 37.4283 2.05238 37.6663 1.42705 38.1423C0.801713 38.6183 0.489047 39.2716 0.489047 40.1023C0.489047 40.6996 0.633713 41.1989 0.923047 41.6003V41.6143C0.923047 41.6423 0.90438 41.6656 0.867046 41.6843C0.839046 41.7123 0.811047 41.7169 0.783047 41.6983C0.26038 41.0449 -0.000953674 40.3263 -0.000953674 39.5423ZM4.84305 36.9943L4.91305 40.9423H4.64705L4.63305 37.0083L4.84305 36.9943Z" fill="#421D12"/>
<path d="M6.7207 34.5084C6.7207 34.5364 6.6927 34.5504 6.6367 34.5504C6.5807 34.5504 6.5527 34.5364 6.5527 34.5084C6.5527 34.2098 6.45937 33.9531 6.2727 33.7384C6.08604 33.5331 5.76404 33.3371 5.3067 33.1504L0.182703 31.1344C0.14537 31.1251 0.126703 31.0738 0.126703 30.9804C0.126703 30.8964 0.14537 30.8404 0.182703 30.8124L5.5587 28.2644C5.96937 28.0591 6.23537 27.9004 6.3567 27.7884C6.48737 27.6858 6.5527 27.5411 6.5527 27.3544C6.5527 27.3358 6.5807 27.3264 6.6367 27.3264C6.6927 27.3264 6.7207 27.3358 6.7207 27.3544L6.7067 27.7884C6.68804 28.0311 6.6787 28.2318 6.6787 28.3904C6.6787 28.5304 6.68804 28.7124 6.7067 28.9364L6.7207 29.3144C6.7207 29.3331 6.6927 29.3424 6.6367 29.3424C6.5807 29.3424 6.5527 29.3331 6.5527 29.3144C6.5527 29.2118 6.54337 29.1371 6.5247 29.0904C6.50604 29.0438 6.4687 29.0204 6.4127 29.0204C6.3567 29.0204 6.26337 29.0438 6.1327 29.0904C6.01137 29.1464 5.8667 29.2164 5.6987 29.3004L1.3167 31.4424L0.378703 30.9524L5.3627 32.8144C5.6427 32.9171 5.8667 32.9684 6.0347 32.9684C6.38004 32.9684 6.5527 32.7911 6.5527 32.4364C6.5527 32.4178 6.5807 32.4084 6.6367 32.4084C6.6927 32.4084 6.7207 32.4178 6.7207 32.4364L6.7067 32.8144C6.68804 33.0198 6.6787 33.2018 6.6787 33.3604C6.6787 33.5191 6.68804 33.7198 6.7067 33.9624L6.7207 34.5084ZM0.182703 28.1804C0.14537 28.1711 0.126703 28.1198 0.126703 28.0264C0.126703 27.9331 0.14537 27.8818 0.182703 27.8724L5.5587 25.2964C5.9507 25.1098 6.21204 24.9464 6.3427 24.8064C6.4827 24.6664 6.5527 24.4751 6.5527 24.2324C6.5527 24.2044 6.5807 24.1904 6.6367 24.1904C6.6927 24.1904 6.7207 24.2044 6.7207 24.2324C6.7207 24.3538 6.71137 24.5451 6.6927 24.8064L6.6787 25.3664C6.6787 25.6091 6.68804 25.8704 6.7067 26.1504C6.71604 26.2531 6.7207 26.3791 6.7207 26.5284C6.7207 26.5471 6.6927 26.5564 6.6367 26.5564C6.5807 26.5564 6.5527 26.5471 6.5527 26.5284C6.5527 26.2951 6.4547 26.1784 6.2587 26.1784C6.13737 26.1784 5.9507 26.2344 5.6987 26.3464L1.3167 28.4884L0.392703 28.0124L3.7807 29.3564L3.5707 29.5804L0.182703 28.1804ZM5.5447 30.2244C5.8527 30.3458 6.08604 30.4064 6.2447 30.4064C6.45004 30.4064 6.5527 30.2944 6.5527 30.0704C6.5527 30.0518 6.5807 30.0424 6.6367 30.0424C6.6927 30.0424 6.7207 30.0518 6.7207 30.0704C6.7207 30.1544 6.71137 30.2664 6.6927 30.4064C6.68337 30.5464 6.6787 30.6818 6.6787 30.8124C6.6787 30.9804 6.68804 31.1578 6.7067 31.3444L6.7207 31.7924C6.7207 31.8204 6.6927 31.8344 6.6367 31.8344C6.5807 31.8344 6.5527 31.8204 6.5527 31.7924C6.5527 31.4751 6.47804 31.2231 6.3287 31.0364C6.17937 30.8591 5.89004 30.6771 5.4607 30.4904L3.5707 29.7484L3.7807 29.5804L5.5447 30.2244Z" fill="#421D12"/>
<path d="M0.000671387 18.6719C0.000671387 18.0185 0.154672 17.4352 0.462672 16.9219C0.770672 16.4085 1.186 16.0072 1.70867 15.7179C2.23134 15.4379 2.80067 15.2979 3.41667 15.2979C4.13534 15.2979 4.75601 15.4845 5.27867 15.8579C5.81067 16.2312 6.21201 16.7072 6.48267 17.2859C6.75334 17.8739 6.88867 18.4712 6.88867 19.0779C6.88867 19.7312 6.72534 20.3099 6.39867 20.8139C6.08134 21.3179 5.66601 21.7052 5.15267 21.9759C4.63934 22.2465 4.10267 22.3819 3.54267 22.3819C2.91734 22.3819 2.32934 22.2139 1.77867 21.8779C1.23734 21.5419 0.803339 21.0892 0.476672 20.5199C0.159338 19.9599 0.000671387 19.3439 0.000671387 18.6719ZM0.294672 19.0219C0.294672 19.6845 0.551338 20.2165 1.06467 20.6179C1.58734 21.0192 2.30134 21.2199 3.20667 21.2199C3.82267 21.2199 4.38734 21.1125 4.90067 20.8979C5.41401 20.6925 5.82001 20.3939 6.11867 20.0019C6.42667 19.6099 6.58067 19.1432 6.58067 18.6019C6.58067 17.9205 6.33801 17.3932 5.85267 17.0199C5.36734 16.6465 4.68134 16.4599 3.79467 16.4599C3.14134 16.4599 2.54867 16.5625 2.01667 16.7679C1.48467 16.9825 1.06467 17.2812 0.756671 17.6639C0.448671 18.0559 0.294672 18.5085 0.294672 19.0219Z" fill="#421D12"/>
<path d="M1.3587 9.37766C1.09737 9.37766 0.90137 9.40099 0.770703 9.44766C0.640037 9.50366 0.546702 9.60166 0.490703 9.74166C0.444036 9.88166 0.420703 10.0963 0.420703 10.3857V11.0717C0.420703 11.5663 0.57937 11.9817 0.896703 12.3177C1.21404 12.663 1.64804 12.9057 2.1987 13.0457C2.21737 13.0457 2.22204 13.0737 2.2127 13.1297C2.2127 13.1857 2.20337 13.2137 2.1847 13.2137C1.7367 13.1483 1.1347 13.1157 0.378703 13.1157C0.304037 13.1157 0.248036 13.097 0.210703 13.0597C0.182703 13.0317 0.168703 12.9757 0.168703 12.8917V7.37566C0.168703 7.35699 0.196702 7.34766 0.252703 7.34766C0.308703 7.34766 0.336703 7.35699 0.336703 7.37566C0.336703 7.66499 0.360036 7.87499 0.406703 8.00566C0.45337 8.13632 0.542036 8.22499 0.672703 8.27166C0.812703 8.31832 1.0227 8.34166 1.3027 8.34166H5.5867C5.8667 8.34166 6.07204 8.31832 6.2027 8.27166C6.33337 8.22499 6.42204 8.13166 6.4687 7.99166C6.5247 7.86099 6.5527 7.65566 6.5527 7.37566C6.5527 7.35699 6.5807 7.34766 6.6367 7.34766C6.6927 7.34766 6.7207 7.35699 6.7207 7.37566L6.7067 8.01966C6.68804 8.39299 6.6787 8.68232 6.6787 8.88766C6.6787 9.11166 6.68804 9.41032 6.7067 9.78366L6.7207 10.3997C6.7207 10.4183 6.6927 10.4277 6.6367 10.4277C6.5807 10.4277 6.5527 10.4183 6.5527 10.3997C6.5527 10.101 6.5247 9.88166 6.4687 9.74166C6.42204 9.60166 6.3287 9.50366 6.1887 9.44766C6.05804 9.40099 5.8527 9.37766 5.5727 9.37766H1.3587Z" fill="#421D12"/>
<path d="M0.168703 0.028C0.168703 0.00933334 0.196702 0 0.252703 0C0.308703 0 0.336703 0.00933334 0.336703 0.028C0.336703 0.326667 0.360036 0.541333 0.406703 0.672C0.45337 0.812 0.542036 0.905333 0.672703 0.952C0.812703 1.008 1.0227 1.036 1.3027 1.036H5.5867C5.8667 1.036 6.07204 1.008 6.2027 0.952C6.33337 0.905333 6.42204 0.812 6.4687 0.672C6.5247 0.532 6.5527 0.317333 6.5527 0.028C6.5527 0.00933334 6.5807 0 6.6367 0C6.6927 0 6.7207 0.00933334 6.7207 0.028V4.956C6.7207 5.04933 6.68337 5.096 6.6087 5.096L5.7407 5.11C5.56337 5.11933 5.33937 5.124 5.0687 5.124C5.0407 5.124 5.0267 5.096 5.0267 5.04C5.0267 4.984 5.0407 4.956 5.0687 4.956C5.53537 4.85333 5.8947 4.662 6.1467 4.382C6.40804 4.11133 6.5387 3.76133 6.5387 3.332V3.024C6.5387 2.744 6.5107 2.534 6.4547 2.394C6.40804 2.26333 6.31937 2.17467 6.1887 2.128C6.05804 2.08133 5.8527 2.058 5.5727 2.058H1.3587C1.06004 2.058 0.840703 2.09067 0.700703 2.156C0.570036 2.22133 0.476703 2.34267 0.420703 2.52C0.364703 2.70667 0.336703 2.996 0.336703 3.388C0.336703 3.416 0.308703 3.43 0.252703 3.43C0.196702 3.43 0.168703 3.416 0.168703 3.388C0.168703 3.052 0.17337 2.79067 0.182703 2.604L0.196703 1.54L0.182703 0.728C0.17337 0.569333 0.168703 0.336 0.168703 0.028ZM2.9967 4.354C2.9967 4.30733 3.0247 4.09267 3.0807 3.71C3.14604 3.32733 3.1787 2.618 3.1787 1.582H3.5007C3.5007 2.618 3.51937 3.32733 3.5567 3.71C3.60337 4.09267 3.6267 4.30733 3.6267 4.354C3.6267 4.382 3.59404 4.40067 3.5287 4.41C3.4727 4.42867 3.40737 4.438 3.3327 4.438C3.2487 4.438 3.16937 4.42867 3.0947 4.41C3.02937 4.40067 2.9967 4.382 2.9967 4.354Z" fill="#421D12"/>
</svg>
