<svg width="273" height="110" viewBox="0 0 273 110" fill="none" xmlns="http://www.w3.org/2000/svg">
<path d="M0 6C0 2.68629 2.68629 0 6 0H267C270.314 0 273 2.68629 273 6V104C273 107.314 270.314 110 267 110H6C2.68629 110 0 107.314 0 104V6Z" fill="#F1ECE8"/>
<path d="M189.696 36.0833C189.565 36.0833 189.421 36.0133 189.262 35.8733C189.113 35.7239 189.005 35.5513 188.94 35.3553C188.595 34.4313 188.422 33.2786 188.422 31.8973C188.422 31.2719 188.469 30.7119 188.562 30.2172C188.655 29.7226 188.781 29.2092 188.94 28.6773C189.005 28.4253 189.066 28.1779 189.122 27.9352C189.178 27.6926 189.206 27.4826 189.206 27.3052C189.206 27.1279 189.173 26.9459 189.108 26.7592C189.043 26.5726 188.959 26.4232 188.856 26.3112C188.781 26.2086 188.744 26.1386 188.744 26.1012C188.744 26.0546 188.763 26.0312 188.8 26.0312C188.856 26.0312 188.931 26.0592 189.024 26.1152C189.332 26.3112 189.575 26.5446 189.752 26.8152C189.939 27.0859 190.032 27.4312 190.032 27.8512C190.032 28.0286 190.004 28.2106 189.948 28.3972C189.892 28.5839 189.827 28.7659 189.752 28.9432C189.677 29.1206 189.631 29.2373 189.612 29.2932C189.397 29.7786 189.253 30.1752 189.178 30.4832C189.085 30.8472 189.038 31.2159 189.038 31.5892C189.038 31.8319 189.057 32.0606 189.094 32.2753C189.131 32.4806 189.187 32.5833 189.262 32.5833C189.309 32.5833 189.388 32.4899 189.5 32.3033L189.752 31.7852L190.228 30.8333C190.293 30.7306 190.34 30.6792 190.368 30.6792C190.396 30.6792 190.41 30.6979 190.41 30.7352L190.368 30.9032C190.247 31.2299 190.111 31.6546 189.962 32.1772C189.813 32.6906 189.738 33.1199 189.738 33.4653C189.738 33.8666 189.817 34.4639 189.976 35.2573C190.023 35.5093 190.046 35.6586 190.046 35.7053C190.046 35.8266 190.009 35.9199 189.934 35.9853C189.859 36.0506 189.78 36.0833 189.696 36.0833ZM194.764 28.2012C194.353 28.2012 194.017 28.1639 193.756 28.0893C193.448 28.0053 193.173 27.8839 192.93 27.7252C192.697 27.5666 192.538 27.4032 192.454 27.2352C192.417 27.1606 192.398 27.1046 192.398 27.0673C192.398 27.0392 192.412 27.0252 192.44 27.0252C192.468 27.0252 192.515 27.0486 192.58 27.0952C192.655 27.1419 192.725 27.1792 192.79 27.2072C193.089 27.3286 193.425 27.3893 193.798 27.3893C194.059 27.3893 194.414 27.3612 194.862 27.3052C195.319 27.2492 195.697 27.1886 195.996 27.1233C196.108 27.0859 196.197 27.0673 196.262 27.0673C196.439 27.0673 196.603 27.1232 196.752 27.2352C196.901 27.3379 196.976 27.4499 196.976 27.5712C196.976 27.7859 196.738 27.9446 196.262 28.0473C195.786 28.1499 195.287 28.2012 194.764 28.2012ZM195.254 35.4253C194.535 35.4253 193.905 35.3319 193.364 35.1453C192.823 34.9493 192.44 34.5666 192.216 33.9973C192.16 33.8573 192.132 33.7732 192.132 33.7452C192.132 33.7079 192.151 33.6892 192.188 33.6892C192.216 33.6892 192.249 33.7079 192.286 33.7452C192.333 33.7732 192.37 33.7966 192.398 33.8153C192.762 34.0953 193.168 34.2913 193.616 34.4033C193.831 34.4593 194.153 34.4873 194.582 34.4873C195.058 34.4873 195.679 34.4313 196.444 34.3193C196.761 34.2819 196.92 34.2633 196.92 34.2633C197.135 34.2633 197.307 34.3193 197.438 34.4313C197.578 34.5433 197.648 34.6646 197.648 34.7952C197.648 35.0472 197.424 35.2153 196.976 35.2993C196.537 35.3833 195.963 35.4253 195.254 35.4253Z" fill="#421D12"/>
<path d="M176.466 34.1513C176.373 34.1513 176.298 34.1793 176.242 34.2353C176.195 34.2819 176.172 34.3519 176.172 34.4453V35.0333L176.2 35.7193C176.2 35.9059 176.209 36.1673 176.228 36.5033V36.5873C176.228 36.6899 176.186 36.7786 176.102 36.8533C175.934 36.9839 175.724 37.0493 175.472 37.0493C175.407 37.0493 175.351 37.0212 175.304 36.9653C175.267 36.9092 175.248 36.8439 175.248 36.7693C175.285 36.3399 175.313 35.7893 175.332 35.1173V34.4453C175.332 34.3519 175.304 34.2819 175.248 34.2353C175.201 34.1793 175.131 34.1513 175.038 34.1513H174.506C174.067 34.1699 173.666 34.2166 173.302 34.2913C173.274 34.3006 173.241 34.3053 173.204 34.3053C173.101 34.3053 173.013 34.2399 172.938 34.1093L172.882 34.0113C172.854 33.9553 172.84 33.8993 172.84 33.8433C172.84 33.7873 172.863 33.7452 172.91 33.7172C172.957 33.6799 173.022 33.6659 173.106 33.6753C173.405 33.7033 173.862 33.7266 174.478 33.7452H175.038C175.131 33.7452 175.201 33.7219 175.248 33.6753C175.304 33.6193 175.332 33.5446 175.332 33.4513V32.4012C175.332 32.3079 175.304 32.2379 175.248 32.1912C175.201 32.1352 175.131 32.1073 175.038 32.1073H174.492C174.399 32.1073 174.324 32.1352 174.268 32.1912C174.221 32.2379 174.198 32.3079 174.198 32.4012V32.5553C174.198 32.6019 174.123 32.6626 173.974 32.7373C173.834 32.8026 173.689 32.8352 173.54 32.8352C173.484 32.8352 173.433 32.8073 173.386 32.7513C173.349 32.6953 173.33 32.6299 173.33 32.5553C173.367 32.1539 173.395 31.6453 173.414 31.0293V30.1193C173.414 29.2886 173.377 28.4999 173.302 27.7532V27.6972C173.302 27.5479 173.358 27.4732 173.47 27.4732C173.517 27.4732 173.568 27.4873 173.624 27.5153L174.1 27.7392C174.221 27.7952 174.343 27.8232 174.464 27.8232H175.038C175.131 27.8232 175.201 27.7999 175.248 27.7532C175.304 27.6972 175.332 27.6226 175.332 27.5292V26.8572C175.332 26.7639 175.304 26.6939 175.248 26.6472C175.201 26.5912 175.131 26.5632 175.038 26.5632H174.548C174.137 26.5819 173.745 26.6286 173.372 26.7032H173.288C173.157 26.7032 173.064 26.6426 173.008 26.5212L172.952 26.4232C172.924 26.3672 172.91 26.3159 172.91 26.2692C172.91 26.2132 172.933 26.1666 172.98 26.1292C173.036 26.0919 173.106 26.0779 173.19 26.0873C173.479 26.1152 173.918 26.1386 174.506 26.1573H175.038C175.234 26.1573 175.332 26.0592 175.332 25.8632C175.313 25.3779 175.285 24.9439 175.248 24.5612V24.5332C175.248 24.4586 175.267 24.3979 175.304 24.3512C175.351 24.3046 175.407 24.2812 175.472 24.2812L175.598 24.3092C176.205 24.5052 176.508 24.6592 176.508 24.7712C176.508 24.8179 176.471 24.8646 176.396 24.9112L176.368 24.9253C176.237 25.0092 176.172 25.1259 176.172 25.2752V25.8632C176.172 25.9566 176.195 26.0312 176.242 26.0873C176.298 26.1339 176.373 26.1573 176.466 26.1573H176.928C177.077 26.1573 177.194 26.0966 177.278 25.9752L177.418 25.7653C177.455 25.7186 177.493 25.6626 177.53 25.5972C177.577 25.5319 177.623 25.4759 177.67 25.4292C177.717 25.3826 177.759 25.3592 177.796 25.3592C177.871 25.3592 178.025 25.4619 178.258 25.6672C178.501 25.8632 178.678 26.0359 178.79 26.1852C178.827 26.2226 178.846 26.2739 178.846 26.3392C178.846 26.3952 178.823 26.4466 178.776 26.4932C178.701 26.5399 178.613 26.5632 178.51 26.5632H176.466C176.373 26.5632 176.298 26.5912 176.242 26.6472C176.195 26.6939 176.172 26.7639 176.172 26.8572V27.5292C176.172 27.6226 176.195 27.6972 176.242 27.7532C176.298 27.7999 176.373 27.8232 176.466 27.8232H177.012C177.161 27.8232 177.283 27.7626 177.376 27.6413L177.418 27.5852C177.446 27.5572 177.488 27.5106 177.544 27.4453C177.6 27.3799 177.656 27.3472 177.712 27.3472C177.777 27.3472 177.899 27.4126 178.076 27.5432C178.253 27.6646 178.393 27.7859 178.496 27.9072C178.533 27.9539 178.552 28.0052 178.552 28.0612C178.552 28.1266 178.51 28.1873 178.426 28.2432L178.412 28.2572C178.347 28.2852 178.286 28.3272 178.23 28.3832C178.183 28.4392 178.16 28.5046 178.16 28.5792V29.6573C178.169 29.8253 178.174 30.0492 178.174 30.3292C178.174 30.4132 178.193 30.4786 178.23 30.5252C178.267 30.5626 178.314 30.5813 178.37 30.5813C178.417 30.5813 178.468 30.5673 178.524 30.5393C179.42 30.0633 180.209 29.4986 180.89 28.8452C180.965 28.7706 181.002 28.7006 181.002 28.6353C181.002 28.5699 180.974 28.5046 180.918 28.4392C180.33 27.7206 179.877 26.8712 179.56 25.8912C179.504 25.7326 179.392 25.6532 179.224 25.6532H179.182C179.126 25.6532 179.061 25.6672 178.986 25.6952C178.921 25.7232 178.86 25.7372 178.804 25.7372C178.72 25.7372 178.65 25.6859 178.594 25.5832L178.552 25.4992C178.524 25.4432 178.51 25.3919 178.51 25.3452C178.51 25.2799 178.533 25.2332 178.58 25.2052C178.627 25.1679 178.692 25.1539 178.776 25.1632C179.112 25.1912 179.597 25.2146 180.232 25.2332H182.892C183.051 25.2332 183.172 25.1772 183.256 25.0652L183.396 24.9112C183.433 24.8739 183.489 24.8132 183.564 24.7292C183.648 24.6359 183.718 24.5892 183.774 24.5892C183.839 24.5892 183.965 24.6826 184.152 24.8692C184.339 25.0559 184.488 25.2286 184.6 25.3872C184.628 25.4246 184.642 25.4712 184.642 25.5272C184.642 25.6112 184.595 25.6719 184.502 25.7092C184.446 25.7279 184.399 25.7372 184.362 25.7372C184.203 25.7652 184.091 25.8446 184.026 25.9752C183.578 26.8619 183.037 27.6459 182.402 28.3272C182.337 28.3926 182.304 28.4626 182.304 28.5372C182.304 28.6212 182.351 28.6912 182.444 28.7473C183.209 29.2139 184.054 29.5732 184.978 29.8252C185.155 29.8812 185.244 29.9326 185.244 29.9792C185.235 30.0166 185.197 30.0493 185.132 30.0773C185.076 30.0959 185.029 30.1146 184.992 30.1333C184.796 30.2266 184.651 30.3666 184.558 30.5532C184.483 30.6839 184.399 30.7492 184.306 30.7492C184.278 30.7492 184.236 30.7399 184.18 30.7213C183.2 30.3386 182.388 29.8626 181.744 29.2933C181.679 29.2279 181.609 29.1952 181.534 29.1952C181.478 29.1952 181.413 29.2233 181.338 29.2793C180.507 29.9233 179.574 30.4413 178.538 30.8333C178.37 30.8893 178.272 30.8893 178.244 30.8333C178.216 30.7866 178.202 30.9639 178.202 31.3652L178.244 32.0372V32.1073C178.244 32.2379 178.197 32.3313 178.104 32.3872C178.011 32.4526 177.903 32.5086 177.782 32.5553C177.661 32.6019 177.553 32.6252 177.46 32.6252C177.385 32.6252 177.348 32.5366 177.348 32.3593C177.348 32.2846 177.32 32.2239 177.264 32.1772C177.217 32.1306 177.147 32.1073 177.054 32.1073H176.466C176.373 32.1073 176.298 32.1352 176.242 32.1912C176.195 32.2379 176.172 32.3079 176.172 32.4012V33.4513C176.172 33.5446 176.195 33.6193 176.242 33.6753C176.298 33.7219 176.373 33.7452 176.466 33.7452H177.096C177.245 33.7452 177.362 33.6846 177.446 33.5632L177.586 33.3533C177.614 33.3159 177.651 33.2599 177.698 33.1853C177.754 33.1106 177.801 33.0546 177.838 33.0173C177.875 32.9799 177.913 32.9613 177.95 32.9613C178.025 32.9613 178.179 33.0592 178.412 33.2552C178.655 33.4419 178.832 33.6099 178.944 33.7592C178.981 33.8059 179 33.8572 179 33.9132C179 33.9786 178.977 34.0299 178.93 34.0673C178.874 34.1233 178.79 34.1513 178.678 34.1513H176.466ZM182.934 26.0032C182.962 25.9472 182.976 25.8959 182.976 25.8492C182.976 25.7186 182.887 25.6532 182.71 25.6532H180.148C179.971 25.6532 179.882 25.7186 179.882 25.8492C179.882 25.8959 179.896 25.9472 179.924 26.0032C180.279 26.7126 180.755 27.3519 181.352 27.9212C181.408 27.9772 181.473 28.0052 181.548 28.0052C181.632 28.0052 181.707 27.9632 181.772 27.8792C182.257 27.2819 182.645 26.6566 182.934 26.0032ZM174.198 29.4753C174.198 29.5686 174.221 29.6433 174.268 29.6993C174.324 29.7459 174.399 29.7692 174.492 29.7692H175.052C175.145 29.7692 175.215 29.7459 175.262 29.6993C175.318 29.6433 175.346 29.5686 175.346 29.4753V28.5372C175.346 28.4439 175.318 28.3739 175.262 28.3272C175.215 28.2712 175.145 28.2432 175.052 28.2432H174.492C174.399 28.2432 174.324 28.2712 174.268 28.3272C174.221 28.3739 174.198 28.4439 174.198 28.5372V29.4753ZM177.348 28.5372C177.348 28.4439 177.32 28.3739 177.264 28.3272C177.217 28.2712 177.147 28.2432 177.054 28.2432H176.438C176.345 28.2432 176.27 28.2712 176.214 28.3272C176.167 28.3739 176.144 28.4439 176.144 28.5372V29.4753C176.144 29.5686 176.167 29.6433 176.214 29.6993C176.27 29.7459 176.345 29.7692 176.438 29.7692H177.054C177.147 29.7692 177.217 29.7459 177.264 29.6993C177.32 29.6433 177.348 29.5686 177.348 29.4753V28.5372ZM174.198 31.4213C174.198 31.5146 174.221 31.5893 174.268 31.6453C174.324 31.6919 174.399 31.7153 174.492 31.7153H175.052C175.145 31.7153 175.215 31.6919 175.262 31.6453C175.318 31.5893 175.346 31.5146 175.346 31.4213V30.4832C175.346 30.3899 175.318 30.3199 175.262 30.2732C175.215 30.2172 175.145 30.1892 175.052 30.1892H174.492C174.399 30.1892 174.324 30.2172 174.268 30.2732C174.221 30.3199 174.198 30.3899 174.198 30.4832V31.4213ZM176.438 30.1892C176.345 30.1892 176.27 30.2172 176.214 30.2732C176.167 30.3199 176.144 30.3899 176.144 30.4832V31.4213C176.144 31.5146 176.167 31.5893 176.214 31.6453C176.27 31.6919 176.345 31.7153 176.438 31.7153H177.054C177.147 31.7153 177.217 31.6919 177.264 31.6453C177.32 31.5893 177.348 31.5146 177.348 31.4213V30.4832C177.348 30.3899 177.32 30.3199 177.264 30.2732C177.217 30.2172 177.147 30.1892 177.054 30.1892H176.438ZM184.18 35.3973C184.245 35.3973 184.399 35.5046 184.642 35.7193C184.894 35.9246 185.076 36.1066 185.188 36.2653C185.235 36.3306 185.258 36.3866 185.258 36.4333C185.258 36.4986 185.23 36.5499 185.174 36.5873C185.127 36.6246 185.048 36.6433 184.936 36.6433H180.12C179.551 36.6526 178.935 36.7039 178.272 36.7973H178.188C178.057 36.7973 177.964 36.7366 177.908 36.6153L177.852 36.5033C177.824 36.4473 177.81 36.3959 177.81 36.3493C177.81 36.2839 177.833 36.2326 177.88 36.1953C177.927 36.1673 177.992 36.1579 178.076 36.1673C178.412 36.1953 178.897 36.2186 179.532 36.2373H180.652C180.745 36.2373 180.815 36.2093 180.862 36.1533C180.918 36.1066 180.946 36.0366 180.946 35.9433V33.3252C180.946 33.2319 180.918 33.1619 180.862 33.1152C180.815 33.0592 180.745 33.0312 180.652 33.0312H180.204C179.821 33.0499 179.467 33.0966 179.14 33.1713H179.056C178.925 33.1713 178.832 33.1106 178.776 32.9893L178.72 32.8772C178.692 32.8212 178.678 32.7653 178.678 32.7093C178.678 32.6533 178.701 32.6113 178.748 32.5833C178.795 32.5459 178.86 32.5319 178.944 32.5413C179.215 32.5693 179.625 32.5926 180.176 32.6112H180.652C180.848 32.6112 180.946 32.5133 180.946 32.3173C180.927 31.6359 180.895 31.0852 180.848 30.6652V30.6372C180.848 30.5626 180.867 30.5019 180.904 30.4552C180.951 30.4086 181.007 30.3853 181.072 30.3853L181.198 30.4132C181.842 30.6186 182.164 30.7726 182.164 30.8752C182.164 30.9033 182.127 30.9453 182.052 31.0013L182.024 31.0153C181.893 31.0993 181.828 31.2159 181.828 31.3652V32.3173C181.828 32.4106 181.851 32.4853 181.898 32.5413C181.954 32.5879 182.029 32.6112 182.122 32.6112H182.696C182.845 32.6112 182.962 32.5506 183.046 32.4292L183.2 32.2052C183.237 32.1586 183.275 32.1026 183.312 32.0372C183.359 31.9719 183.405 31.9159 183.452 31.8693C183.499 31.8226 183.541 31.7992 183.578 31.7992C183.643 31.7992 183.797 31.9019 184.04 32.1073C184.292 32.3126 184.474 32.4946 184.586 32.6532C184.623 32.6906 184.642 32.7419 184.642 32.8073C184.642 32.8632 184.619 32.9146 184.572 32.9613C184.497 33.0079 184.409 33.0312 184.306 33.0312H182.122C182.029 33.0312 181.954 33.0592 181.898 33.1152C181.851 33.1619 181.828 33.2319 181.828 33.3252V35.9433C181.828 36.0366 181.851 36.1066 181.898 36.1533C181.954 36.2093 182.029 36.2373 182.122 36.2373H183.298C183.447 36.2373 183.564 36.1719 183.648 36.0413L183.802 35.8173C183.839 35.7706 183.881 35.7099 183.928 35.6353C183.984 35.5513 184.031 35.4906 184.068 35.4532C184.105 35.4159 184.143 35.3973 184.18 35.3973Z" fill="#421D12"/>
<path d="M168.64 25.9336C168.79 25.9336 168.906 25.8729 168.99 25.7516L169.158 25.4996C169.205 25.4436 169.252 25.3829 169.298 25.3176C169.345 25.2523 169.392 25.1963 169.438 25.1496C169.485 25.0936 169.527 25.0656 169.564 25.0656C169.639 25.0656 169.807 25.1776 170.068 25.4016C170.339 25.6256 170.535 25.8169 170.656 25.9756C170.703 26.0223 170.726 26.0736 170.726 26.1296C170.726 26.1763 170.698 26.2229 170.642 26.2696C170.568 26.3163 170.484 26.3396 170.39 26.3396H162.704C162.536 26.3396 162.415 26.4049 162.34 26.5356C161.454 27.9729 160.418 29.0836 159.232 29.8676C159.083 29.9796 158.98 29.9983 158.924 29.9236C158.906 29.9049 158.896 29.8863 158.896 29.8676C158.896 29.8116 158.948 29.7323 159.05 29.6296C159.75 28.9483 160.413 28.0709 161.038 26.9976C161.244 26.6429 161.444 26.2229 161.64 25.7376C161.836 25.2429 161.981 24.7996 162.074 24.4076C162.112 24.2583 162.191 24.1836 162.312 24.1836C162.359 24.1836 162.41 24.1976 162.466 24.2256C163.185 24.5336 163.544 24.7389 163.544 24.8416C163.544 24.8789 163.498 24.9116 163.404 24.9396L163.362 24.9536C163.222 25.0003 163.12 25.0843 163.054 25.2056C163.008 25.2896 162.947 25.4156 162.872 25.5836C162.844 25.6396 162.83 25.6909 162.83 25.7376C162.83 25.8683 162.914 25.9336 163.082 25.9336H168.64ZM167.758 27.6836C167.908 27.6836 168.024 27.6229 168.108 27.5016L168.276 27.2776C168.304 27.2403 168.346 27.1843 168.402 27.1096C168.468 27.0256 168.519 26.9649 168.556 26.9276C168.594 26.8903 168.631 26.8716 168.668 26.8716C168.743 26.8716 168.906 26.9789 169.158 27.1936C169.41 27.3989 169.592 27.5763 169.704 27.7256C169.751 27.7909 169.774 27.8423 169.774 27.8796C169.774 27.9356 169.751 27.9869 169.704 28.0336C169.63 28.0803 169.541 28.1036 169.438 28.1036H164.314C163.745 28.1129 163.129 28.1643 162.466 28.2576H162.382C162.252 28.2576 162.158 28.1969 162.102 28.0756L162.032 27.9496C162.004 27.8936 161.99 27.8423 161.99 27.7956C161.99 27.6556 162.084 27.5949 162.27 27.6136C162.588 27.6416 163.068 27.6649 163.712 27.6836H167.758ZM167.52 29.5456C167.67 29.5456 167.786 29.4803 167.87 29.3496L167.968 29.2096C167.996 29.1723 168.034 29.1209 168.08 29.0556C168.127 28.9903 168.164 28.9436 168.192 28.9156C168.23 28.8783 168.267 28.8596 168.304 28.8596C168.37 28.8596 168.505 28.9529 168.71 29.1396C168.925 29.3169 169.093 29.4849 169.214 29.6436C169.252 29.6903 169.27 29.7416 169.27 29.7976C169.27 29.8816 169.224 29.9423 169.13 29.9796L169.06 30.0076C168.892 30.0636 168.808 30.1756 168.808 30.3436C168.818 31.5756 168.939 32.7003 169.172 33.7176C169.406 34.7256 169.784 35.3976 170.306 35.7336C170.353 35.7709 170.404 35.7896 170.46 35.7896C170.507 35.7896 170.544 35.7429 170.572 35.6496C170.694 35.3696 170.801 35.0429 170.894 34.6696C170.95 34.4736 171.002 34.3849 171.048 34.4036C171.095 34.4223 171.114 34.5203 171.104 34.6976L171.006 35.9016V35.9576C171.006 36.0509 171.044 36.1583 171.118 36.2796C171.221 36.4663 171.272 36.6109 171.272 36.7136C171.272 36.7883 171.254 36.8489 171.216 36.8956C171.123 37.0169 170.992 37.0776 170.824 37.0776C170.572 37.0776 170.269 36.9469 169.914 36.6856C169.205 36.2189 168.701 35.4303 168.402 34.3196C168.104 33.1996 167.931 31.8369 167.884 30.2316C167.875 30.0356 167.772 29.9376 167.576 29.9376H162.704C162.135 29.9469 161.519 29.9983 160.856 30.0916H160.772C160.642 30.0916 160.548 30.0309 160.492 29.9096L160.436 29.8116C160.408 29.7556 160.394 29.6996 160.394 29.6436C160.394 29.5876 160.418 29.5456 160.464 29.5176C160.511 29.4803 160.576 29.4663 160.66 29.4756C160.978 29.5036 161.458 29.5269 162.102 29.5456H167.52ZM164.902 33.1296C164.846 33.1856 164.818 33.2509 164.818 33.3256C164.818 33.4096 164.865 33.4843 164.958 33.5496C165.593 34.0723 166.055 34.5623 166.344 35.0196C166.634 35.4676 166.778 35.8456 166.778 36.1536C166.778 36.3123 166.741 36.4336 166.666 36.5176C166.601 36.6109 166.512 36.6576 166.4 36.6576C166.326 36.6576 166.256 36.6389 166.19 36.6016C166.097 36.5643 166.013 36.4756 165.938 36.3356C165.574 35.6636 165.033 34.9449 164.314 34.1796C164.24 34.1049 164.17 34.0676 164.104 34.0676C164.048 34.0676 163.978 34.1003 163.894 34.1656C162.504 35.4349 160.954 36.3823 159.246 37.0076C159.172 37.0449 159.102 37.0636 159.036 37.0636C158.98 37.0636 158.948 37.0449 158.938 37.0076V36.9796C158.938 36.9143 159.008 36.8443 159.148 36.7696C160.707 35.9949 162.102 34.9543 163.334 33.6476C163.4 33.5636 163.432 33.4936 163.432 33.4376C163.432 33.3629 163.39 33.2929 163.306 33.2276C162.672 32.6769 161.916 32.1076 161.038 31.5196C160.917 31.4356 160.856 31.3609 160.856 31.2956C160.856 31.2303 160.889 31.1976 160.954 31.1976C161.01 31.1976 161.085 31.2209 161.178 31.2676C162.14 31.7249 163.012 32.2056 163.796 32.7096C163.946 32.8029 164.034 32.8356 164.062 32.8076C164.072 32.7796 164.09 32.7609 164.118 32.7516C164.352 32.4436 164.576 32.0889 164.79 31.6876C165.005 31.2769 165.178 30.8849 165.308 30.5116C165.346 30.3903 165.425 30.3296 165.546 30.3296C165.584 30.3296 165.64 30.3436 165.714 30.3716C166.377 30.6983 166.708 30.9129 166.708 31.0156C166.708 31.0529 166.662 31.0809 166.568 31.0996L166.526 31.1136C166.377 31.1416 166.27 31.2069 166.204 31.3096C165.766 32.0376 165.332 32.6443 164.902 33.1296Z" fill="#421D12"/>
<path d="M151.293 29.8682C152.301 30.3162 153.085 30.9089 153.645 31.6462C154.214 32.3742 154.499 33.1302 154.499 33.9142C154.499 34.4649 154.354 34.9502 154.065 35.3702C153.785 35.7902 153.412 36.1122 152.945 36.3362C152.478 36.5602 151.979 36.6722 151.447 36.6722C150.504 36.6722 149.837 36.3829 149.445 35.8042C149.062 35.2162 148.871 34.4509 148.871 33.5082V32.8642V32.8222C148.871 32.6822 148.796 32.5842 148.647 32.5282C148.078 32.2762 147.793 31.9542 147.793 31.5622C147.793 31.0302 148.213 30.3862 149.053 29.6302C149.156 29.5369 149.221 29.4249 149.249 29.2942L149.403 28.4122C149.412 28.3936 149.417 28.3609 149.417 28.3142C149.417 28.1929 149.347 28.0996 149.207 28.0342C148.946 27.9222 148.703 27.8009 148.479 27.6702C148.255 27.5302 148.082 27.3996 147.961 27.2782C147.942 27.2596 147.914 27.2316 147.877 27.1942C147.84 27.1569 147.821 27.1242 147.821 27.0962C147.821 27.0402 147.849 27.0122 147.905 27.0122C147.924 27.0122 147.989 27.0309 148.101 27.0682C148.278 27.1336 148.502 27.1942 148.773 27.2502C149.053 27.3062 149.23 27.3436 149.305 27.3622C149.324 27.3716 149.356 27.3762 149.403 27.3762C149.543 27.3762 149.627 27.2922 149.655 27.1242C149.739 26.6762 149.781 26.2842 149.781 25.9482C149.781 25.6216 149.73 25.3369 149.627 25.0942C149.524 24.8609 149.412 24.6836 149.291 24.5622C149.235 24.5062 149.207 24.4596 149.207 24.4222C149.207 24.3569 149.258 24.3242 149.361 24.3242C149.464 24.3242 149.59 24.3569 149.739 24.4222C149.888 24.4876 150.028 24.5762 150.159 24.6882C150.495 24.9682 150.663 25.2809 150.663 25.6262C150.663 25.7382 150.644 25.8596 150.607 25.9902C150.57 26.1209 150.509 26.2936 150.425 26.5082C150.341 26.7136 150.257 26.9516 150.173 27.2222C150.164 27.2502 150.159 27.2922 150.159 27.3482C150.159 27.4789 150.234 27.5582 150.383 27.5862C150.644 27.6609 150.831 27.7216 150.943 27.7682C151.12 27.8429 151.251 27.9502 151.335 28.0902C151.428 28.2302 151.475 28.3656 151.475 28.4962C151.475 28.6082 151.438 28.7016 151.363 28.7762C151.288 28.8509 151.204 28.8929 151.111 28.9022C150.682 28.9396 150.266 29.0702 149.865 29.2942C149.744 29.3782 149.669 29.4856 149.641 29.6162C149.529 30.2416 149.445 30.9229 149.389 31.6602L149.375 31.7722C149.375 31.8842 149.417 31.9496 149.501 31.9682C149.772 32.0056 150.122 32.0242 150.551 32.0242C150.812 32.0242 151.018 32.0569 151.167 32.1222C151.316 32.1876 151.391 32.3182 151.391 32.5142C151.391 32.6822 151.316 32.7896 151.167 32.8362C151.027 32.8829 150.864 32.9062 150.677 32.9062C150.397 32.9062 150.056 32.8736 149.655 32.8082C149.618 32.7989 149.566 32.7942 149.501 32.7942C149.389 32.7942 149.333 32.8222 149.333 32.8782C149.333 33.8396 149.468 34.5816 149.739 35.1042C150.019 35.6269 150.56 35.8882 151.363 35.8882C151.774 35.8882 152.147 35.7996 152.483 35.6222C152.819 35.4356 153.085 35.1696 153.281 34.8242C153.486 34.4789 153.589 34.0776 153.589 33.6202C153.589 33.0136 153.36 32.3836 152.903 31.7302C152.446 31.0676 151.862 30.4982 151.153 30.0222C151.041 29.9476 150.985 29.8869 150.985 29.8402C150.985 29.8122 151.008 29.7982 151.055 29.7982C151.12 29.7982 151.2 29.8216 151.293 29.8682ZM149.907 28.3282L149.879 28.4402C149.87 28.4776 149.865 28.5289 149.865 28.5942C149.865 28.6969 149.884 28.7716 149.921 28.8182C149.958 28.8649 150.005 28.8696 150.061 28.8322C150.21 28.7016 150.285 28.6082 150.285 28.5522C150.285 28.5149 150.257 28.4822 150.201 28.4542C150.145 28.4169 150.089 28.3936 150.033 28.3842C149.986 28.3656 149.954 28.3516 149.935 28.3422L149.907 28.3282ZM148.297 31.2682C148.297 31.4549 148.395 31.5996 148.591 31.7022C148.647 31.7302 148.694 31.7442 148.731 31.7442C148.862 31.7442 148.936 31.6556 148.955 31.4782C148.974 31.2169 149.011 30.8809 149.067 30.4702C149.086 30.3396 149.039 30.2742 148.927 30.2742C148.806 30.2742 148.68 30.3722 148.549 30.5682C148.381 30.8296 148.297 31.0629 148.297 31.2682Z" fill="#421D12"/>
<path d="M139.591 25.836C139.908 25.836 140.202 25.9246 140.473 26.102C140.753 26.27 140.893 26.4753 140.893 26.718C140.893 26.8206 140.86 26.9 140.795 26.956C140.739 27.0026 140.664 27.026 140.571 27.026C140.375 27.026 140.114 26.9933 139.787 26.928C139.722 26.9186 139.596 26.9 139.409 26.872C139.222 26.844 139.068 26.83 138.947 26.83C138.667 26.83 138.396 26.8673 138.135 26.942C137.883 27.0073 137.701 27.068 137.589 27.124C137.206 27.3293 136.861 27.74 136.553 28.356C136.254 28.972 136.021 29.6533 135.853 30.4C135.694 31.1466 135.615 31.8 135.615 32.36C135.615 33.3026 135.774 33.9653 136.091 34.348C136.418 34.7213 136.908 34.908 137.561 34.908L137.953 34.88C138.233 34.8426 138.448 34.824 138.597 34.824C139.269 34.824 139.605 34.9873 139.605 35.314C139.605 35.5566 139.414 35.72 139.031 35.804C138.658 35.8786 138.28 35.916 137.897 35.916C137.122 35.916 136.511 35.79 136.063 35.538C135.624 35.286 135.312 34.9033 135.125 34.39C134.938 33.8766 134.845 33.2046 134.845 32.374C134.845 31.4406 135.008 30.5493 135.335 29.7C135.662 28.8413 136.086 28.0993 136.609 27.474C136.898 27.166 137.024 27.0213 136.987 27.04L136.931 27.054C136.67 27.11 136.296 27.236 135.811 27.432C135.335 27.6186 134.724 27.8706 133.977 28.188L133.375 28.44C133.3 28.4773 133.137 28.5613 132.885 28.692C132.708 28.7853 132.568 28.8553 132.465 28.902C132.362 28.9486 132.255 28.972 132.143 28.972C131.91 28.972 131.658 28.8646 131.387 28.65C131.126 28.4353 130.925 28.2206 130.785 28.006C130.738 27.9406 130.715 27.8846 130.715 27.838C130.715 27.8006 130.729 27.768 130.757 27.74C130.785 27.712 130.818 27.698 130.855 27.698C130.911 27.698 130.972 27.7166 131.037 27.754C131.056 27.7633 131.135 27.81 131.275 27.894C131.415 27.9686 131.588 28.006 131.793 28.006C131.84 28.006 131.919 27.9966 132.031 27.978C132.059 27.9686 132.344 27.8753 132.885 27.698C133.93 27.3433 134.887 27.04 135.755 26.788C136.632 26.5266 137.44 26.3493 138.177 26.256C138.317 26.2373 138.452 26.2046 138.583 26.158C138.714 26.102 138.798 26.0646 138.835 26.046C139.115 25.906 139.367 25.836 139.591 25.836ZM143.371 25.682C143.287 25.682 143.198 25.654 143.105 25.598C143.021 25.5326 142.951 25.4393 142.895 25.318C142.783 25.0753 142.662 24.884 142.531 24.744C142.41 24.5946 142.237 24.45 142.013 24.31C141.957 24.2726 141.896 24.24 141.831 24.212C141.775 24.1746 141.724 24.142 141.677 24.114C141.64 24.0766 141.621 24.0393 141.621 24.002C141.621 23.946 141.677 23.918 141.789 23.918C141.994 23.918 142.256 23.974 142.573 24.086C142.9 24.1886 143.184 24.3426 143.427 24.548C143.679 24.744 143.805 24.9773 143.805 25.248C143.805 25.4066 143.758 25.5186 143.665 25.584C143.581 25.6493 143.483 25.682 143.371 25.682ZM141.831 26.592C141.738 26.592 141.64 26.564 141.537 26.508C141.434 26.4426 141.36 26.34 141.313 26.2C141.22 25.9293 141.103 25.7006 140.963 25.514C140.832 25.318 140.655 25.15 140.431 25.01C140.403 24.9913 140.356 24.9633 140.291 24.926C140.235 24.8886 140.193 24.856 140.165 24.828C140.137 24.8 140.123 24.772 140.123 24.744C140.123 24.6786 140.17 24.646 140.263 24.646C140.366 24.646 140.585 24.702 140.921 24.814C141.266 24.926 141.579 25.0893 141.859 25.304C142.148 25.5186 142.293 25.7846 142.293 26.102C142.293 26.2606 142.246 26.382 142.153 26.466C142.06 26.55 141.952 26.592 141.831 26.592Z" fill="#421D12"/>
<path d="M122.313 28.9714C122.313 29.1581 122.402 29.2701 122.579 29.3074C123.494 29.5128 124.301 29.8114 125.001 30.2034C125.71 30.5954 126.065 31.0481 126.065 31.5614C126.065 31.7201 126.023 31.8508 125.939 31.9534C125.864 32.0561 125.766 32.1074 125.645 32.1074C125.393 32.1074 125.062 31.8554 124.651 31.3514C124.1 30.6514 123.438 30.0914 122.663 29.6714C122.588 29.6341 122.518 29.6154 122.453 29.6154C122.36 29.6154 122.313 29.6574 122.313 29.7414L122.299 32.0374C122.299 33.6148 122.322 34.5248 122.369 34.7674C122.378 34.8328 122.406 34.9821 122.453 35.2154C122.5 35.4394 122.523 35.6168 122.523 35.7474C122.523 35.9341 122.462 36.0974 122.341 36.2374C122.22 36.3868 122.108 36.4614 122.005 36.4614C121.874 36.4614 121.748 36.3541 121.627 36.1394C121.515 35.9341 121.422 35.7008 121.347 35.4394C121.272 35.1688 121.235 34.9821 121.235 34.8794C121.235 34.8234 121.254 34.7114 121.291 34.5434C121.328 34.3661 121.356 34.1374 121.375 33.8574L121.417 32.7234C121.436 32.4434 121.45 32.1728 121.459 31.9114C121.468 31.6408 121.478 31.3888 121.487 31.1554C121.515 30.5301 121.529 29.5781 121.529 28.2994C121.529 27.2728 121.51 26.5961 121.473 26.2694C121.445 26.0734 121.389 25.9241 121.305 25.8214C121.221 25.7094 121.137 25.6254 121.053 25.5694C120.978 25.5041 120.927 25.4621 120.899 25.4434C120.824 25.3874 120.787 25.3408 120.787 25.3034C120.787 25.1914 120.876 25.1168 121.053 25.0794C121.23 25.0421 121.398 25.0234 121.557 25.0234C121.874 25.0234 122.136 25.1261 122.341 25.3314C122.444 25.4341 122.495 25.5554 122.495 25.6954C122.495 25.7608 122.49 25.8168 122.481 25.8634C122.472 25.9101 122.462 25.9521 122.453 25.9894C122.444 26.0361 122.42 26.1668 122.383 26.3814C122.355 26.5961 122.341 26.8341 122.341 27.0954C122.341 27.1608 122.336 27.3754 122.327 27.7394C122.318 28.1034 122.313 28.5141 122.313 28.9714Z" fill="#421D12"/>
<path d="M108.874 30.9321C108.762 30.9321 108.664 30.8807 108.58 30.7781C108.496 30.6754 108.435 30.5261 108.398 30.3301C108.342 30.0594 108.267 29.8307 108.174 29.6441C108.09 29.4574 107.908 29.2241 107.628 28.9441C107.544 28.8601 107.502 28.7947 107.502 28.7481C107.502 28.6921 107.539 28.6641 107.614 28.6641C107.782 28.6641 108.011 28.7434 108.3 28.9021C108.589 29.0514 108.841 29.2521 109.056 29.5041C109.271 29.7561 109.378 30.0221 109.378 30.3021C109.378 30.4794 109.331 30.6287 109.238 30.7501C109.145 30.8714 109.023 30.9321 108.874 30.9321ZM105.626 36.3781C105.579 36.3781 105.542 36.3687 105.514 36.3501C105.486 36.3314 105.472 36.3127 105.472 36.2941C105.472 36.2381 105.561 36.1821 105.738 36.1261C106.615 35.8554 107.451 35.3934 108.244 34.7401C109.037 34.0867 109.709 33.3541 110.26 32.5421C110.811 31.7207 111.175 30.9414 111.352 30.2041C111.408 29.9614 111.436 29.7654 111.436 29.6161C111.436 29.4014 111.361 29.2334 111.212 29.1121C111.175 29.0841 111.123 29.0514 111.058 29.0141C111.002 28.9674 110.974 28.9301 110.974 28.9021C110.974 28.8554 110.997 28.8181 111.044 28.7901C111.091 28.7621 111.142 28.7481 111.198 28.7481C111.347 28.7481 111.511 28.7714 111.688 28.8181C111.912 28.8834 112.127 29.0421 112.332 29.2941C112.537 29.5367 112.64 29.7841 112.64 30.0361C112.64 30.1107 112.626 30.1714 112.598 30.2181C112.57 30.2647 112.523 30.3207 112.458 30.3861C112.402 30.4421 112.36 30.4934 112.332 30.5401C112.304 30.5774 112.276 30.6241 112.248 30.6801C112.229 30.7267 112.206 30.7781 112.178 30.8341C111.823 31.5247 111.408 32.2154 110.932 32.9061C110.465 33.5874 109.803 34.2734 108.944 34.9641C108.095 35.6454 107.091 36.1027 105.934 36.3361C105.822 36.3641 105.719 36.3781 105.626 36.3781ZM106.816 32.2061C106.545 32.2061 106.363 32.0147 106.27 31.6321C106.261 31.5854 106.237 31.4734 106.2 31.2961C106.172 31.1187 106.097 30.9367 105.976 30.7501C105.855 30.5634 105.687 30.4001 105.472 30.2601C105.379 30.1947 105.332 30.1387 105.332 30.0921C105.332 30.0174 105.383 29.9801 105.486 29.9801C105.589 29.9801 105.785 30.0454 106.074 30.1761C106.363 30.3067 106.625 30.4934 106.858 30.7361C107.101 30.9694 107.222 31.2494 107.222 31.5761C107.222 31.7347 107.189 31.8794 107.124 32.0101C107.059 32.1407 106.956 32.2061 106.816 32.2061Z" fill="#421D12"/>
<path d="M97.8976 27.5996C97.9816 27.5996 98.1262 27.6789 98.3316 27.8376C98.5369 27.9869 98.7236 28.1549 98.8916 28.3416C99.0596 28.5189 99.1436 28.6496 99.1436 28.7336C99.1436 28.7989 99.1156 28.8643 99.0596 28.9296C99.0129 28.9949 98.9336 29.0789 98.8216 29.1816C98.8029 29.2003 98.7562 29.2423 98.6816 29.3076C98.6162 29.3729 98.5602 29.4383 98.5136 29.5036C98.4762 29.5689 98.4529 29.6296 98.4436 29.6856L97.7716 32.4856C97.7622 32.5043 97.7576 32.5323 97.7576 32.5696C97.7576 32.6909 97.8369 32.7796 97.9956 32.8356C98.2569 32.9289 98.3876 33.0736 98.3876 33.2696C98.3876 33.4189 98.2522 33.4936 97.9816 33.4936C97.8322 33.4936 97.6316 33.4796 97.3796 33.4516C96.8942 33.4143 96.5022 33.3956 96.2036 33.3956C95.1489 33.3956 94.1176 33.4516 93.1096 33.5636C92.9322 33.5729 92.8436 33.6149 92.8436 33.6896V33.7876C92.8436 34.2356 92.7549 34.4596 92.5776 34.4596C92.0736 34.4596 91.8216 34.0116 91.8216 33.1156V32.7236C91.8216 32.3969 91.7656 31.7436 91.6536 30.7636C91.5509 29.7836 91.4342 29.1396 91.3036 28.8316C91.2289 28.6543 91.1449 28.5189 91.0516 28.4256C90.9582 28.3229 90.8276 28.2436 90.6596 28.1876C90.6036 28.1689 90.5476 28.1549 90.4916 28.1456C90.4449 28.1269 90.4076 28.1129 90.3796 28.1036C90.3609 28.0849 90.3516 28.0663 90.3516 28.0476C90.3516 27.9916 90.4449 27.9309 90.6316 27.8656C90.7249 27.8376 90.8462 27.8236 90.9956 27.8236C91.2382 27.8236 91.4529 27.8609 91.6396 27.9356C91.8262 28.0103 92.0222 28.1549 92.2276 28.3696C92.2649 28.4069 92.3536 28.4209 92.4936 28.4116L93.3336 28.3416C95.5362 28.1643 96.7169 28.0476 96.8756 27.9916C96.9596 27.9636 97.0296 27.9356 97.0856 27.9076C97.1509 27.8703 97.2069 27.8423 97.2536 27.8236C97.3936 27.7489 97.5102 27.6929 97.6036 27.6556C97.6969 27.6183 97.7949 27.5996 97.8976 27.5996ZM92.7456 32.7096C92.7549 32.9056 92.8622 32.9943 93.0676 32.9756C94.1316 32.8916 95.2889 32.8076 96.5396 32.7236C96.7076 32.7143 96.8102 32.6256 96.8476 32.4576C96.9689 31.9256 97.1042 31.2069 97.2536 30.3016C97.4122 29.3869 97.4916 28.8923 97.4916 28.8176C97.4916 28.7429 97.4589 28.6916 97.3936 28.6636C97.3282 28.6263 97.2116 28.6076 97.0436 28.6076C96.6982 28.6263 96.0216 28.6776 95.0136 28.7616C94.0056 28.8363 93.2029 28.9156 92.6056 28.9996C92.4376 29.0276 92.3536 29.1209 92.3536 29.2796C92.3536 29.3263 92.3629 29.4243 92.3816 29.5736C92.4842 30.2736 92.6056 31.3189 92.7456 32.7096Z" fill="#421D12"/>
<path d="M80.5798 27.2508C80.5798 26.3362 80.5378 25.5008 80.4538 24.7448V24.6888C80.4538 24.6235 80.4725 24.5722 80.5098 24.5348C80.5472 24.4882 80.5985 24.4648 80.6638 24.4648C80.6918 24.4648 80.7338 24.4742 80.7898 24.4928C81.5272 24.7262 81.8958 24.8942 81.8958 24.9968C81.8958 25.0342 81.8538 25.0762 81.7698 25.1228L81.7278 25.1508C81.5972 25.2255 81.5318 25.3422 81.5318 25.5008V35.5808C81.5318 35.8702 81.4992 36.1035 81.4338 36.2808C81.3685 36.4675 81.2332 36.6215 81.0278 36.7428C80.8318 36.8735 80.5378 36.9715 80.1458 37.0368H80.0758C79.9358 37.0368 79.8425 36.9575 79.7958 36.7988C79.7212 36.5935 79.6138 36.4395 79.4738 36.3368C79.2218 36.1688 78.8205 36.0428 78.2698 35.9588C78.0832 35.9308 77.9898 35.8795 77.9898 35.8048C77.9898 35.7488 78.0645 35.7208 78.2138 35.7208C78.3072 35.7208 78.7132 35.7442 79.4318 35.7908L80.2018 35.8328C80.3512 35.8328 80.4492 35.8095 80.4958 35.7628C80.5518 35.7162 80.5798 35.6275 80.5798 35.4968V27.2508ZM77.4578 28.1188C77.4765 27.9602 77.5512 27.8808 77.6818 27.8808C77.7378 27.8808 77.7845 27.8902 77.8218 27.9088L78.3818 28.1608C78.8018 28.2822 79.0118 28.3802 79.0118 28.4548C79.0118 28.5015 78.9558 28.5388 78.8438 28.5668L78.8018 28.5808C78.6432 28.6275 78.5405 28.7162 78.4938 28.8468C78.1298 29.7428 77.6678 30.6202 77.1078 31.4788C76.5478 32.3375 75.8945 33.0748 75.1478 33.6908C74.9985 33.8122 74.9005 33.8448 74.8538 33.7888C74.8445 33.7795 74.8398 33.7608 74.8398 33.7328C74.8398 33.6675 74.8818 33.5882 74.9658 33.4948C75.6472 32.6642 76.2492 31.6515 76.7718 30.4568C76.9398 30.0835 77.0845 29.6915 77.2058 29.2808C77.3272 28.8608 77.4112 28.4735 77.4578 28.1188ZM83.2818 28.3148C83.1512 28.1562 83.1138 28.0535 83.1698 28.0068C83.1792 27.9975 83.1978 27.9928 83.2258 27.9928C83.2912 27.9928 83.3705 28.0255 83.4638 28.0908C84.2852 28.6508 84.9572 29.2295 85.4798 29.8268C86.0025 30.4148 86.3758 30.9655 86.5998 31.4788C86.8332 31.9828 86.9498 32.4262 86.9498 32.8088C86.9498 33.0608 86.9032 33.2615 86.8098 33.4108C86.7258 33.5508 86.6138 33.6208 86.4738 33.6208C86.4085 33.6208 86.3292 33.5975 86.2358 33.5508C86.1332 33.4855 86.0678 33.3828 86.0398 33.2428C85.9092 32.4868 85.5778 31.6608 85.0458 30.7648C84.5232 29.8595 83.9352 29.0428 83.2818 28.3148Z" fill="#421D12"/>
<path d="M230.342 74.2715C230.463 74.2715 230.524 74.3929 230.524 74.6355C230.524 74.8782 230.463 74.9995 230.342 74.9995H222.256C222.134 74.9995 222.074 74.8782 222.074 74.6355C222.074 74.3929 222.134 74.2715 222.256 74.2715C223.556 74.2715 224.206 74.0115 224.206 73.4915C224.206 73.2489 224.058 72.9282 223.764 72.5295L218.434 66.0295C218.312 65.8909 218.182 65.8215 218.044 65.8215C217.905 65.8215 217.775 65.8822 217.654 66.0035C217.342 66.3329 217.03 66.6449 216.718 66.9395C216.718 66.9395 216.579 67.0782 216.302 67.3555C216.111 67.5462 216.016 67.7715 216.016 68.0315V72.5035C216.016 73.1795 216.198 73.6475 216.562 73.9075C216.926 74.1502 217.472 74.2715 218.2 74.2715H218.616C218.737 74.2715 218.798 74.3929 218.798 74.6355C218.798 74.8782 218.737 74.9995 218.616 74.9995H210.868C210.746 74.9995 210.686 74.8782 210.686 74.6355C210.686 74.5142 210.694 74.4275 210.712 74.3755C210.746 74.3062 210.798 74.2715 210.868 74.2715H211.258C212.003 74.2715 212.558 74.1502 212.922 73.9075C213.286 73.6475 213.468 73.1795 213.468 72.5035V58.5155C213.468 57.8222 213.286 57.3542 212.922 57.1115C212.558 56.8515 212.003 56.7215 211.258 56.7215H210.868C210.746 56.7215 210.686 56.6089 210.686 56.3835C210.686 56.1409 210.746 56.0195 210.868 56.0195H218.616C218.702 56.0195 218.754 56.0542 218.772 56.1235C218.806 56.1755 218.824 56.2622 218.824 56.3835C218.824 56.6089 218.754 56.7215 218.616 56.7215H218.2C217.454 56.7215 216.9 56.8515 216.536 57.1115C216.189 57.3715 216.016 57.8395 216.016 58.5155V65.3275C216.016 65.4662 216.042 65.5789 216.094 65.6655C216.163 65.7522 216.241 65.7955 216.328 65.7955C216.432 65.7955 216.553 65.7262 216.692 65.5875C217.905 64.3915 219.188 63.1002 220.54 61.7135C221.892 60.3095 222.888 59.2695 223.53 58.5935C223.79 58.2815 223.92 58.0042 223.92 57.7615C223.92 57.4495 223.755 57.1982 223.426 57.0075C223.096 56.8169 222.637 56.7215 222.048 56.7215C221.926 56.7215 221.866 56.6002 221.866 56.3575C221.866 56.1322 221.926 56.0195 222.048 56.0195H229.094C229.18 56.0195 229.232 56.0455 229.25 56.0975C229.284 56.1495 229.302 56.2362 229.302 56.3575C229.302 56.6002 229.232 56.7215 229.094 56.7215C227.759 56.7215 226.468 57.3109 225.22 58.4895C225.012 58.6802 223.365 60.3182 220.28 63.4035C220.141 63.5249 220.072 63.6635 220.072 63.8195C220.072 63.9582 220.115 64.0709 220.202 64.1575C223.634 68.4215 225.766 71.0562 226.598 72.0615C227.326 72.9109 227.932 73.4915 228.418 73.8035C228.92 74.1155 229.562 74.2715 230.342 74.2715Z" fill="#421D12"/>
<path d="M198.642 75.3632C197.255 75.3632 195.886 74.9905 194.534 74.2452C193.199 73.4825 192.098 72.3645 191.232 70.8912C190.365 69.4005 189.932 67.6238 189.932 65.5612C189.932 63.5158 190.365 61.7565 191.232 60.2832C192.098 58.7925 193.199 57.6745 194.534 56.9292C195.886 56.1665 197.255 55.7852 198.642 55.7852C200.028 55.7852 201.389 56.1665 202.724 56.9292C204.058 57.6745 205.159 58.7925 206.026 60.2832C206.892 61.7565 207.326 63.5158 207.326 65.5612C207.326 67.6238 206.892 69.4005 206.026 70.8912C205.159 72.3645 204.058 73.4825 202.724 74.2452C201.389 74.9905 200.028 75.3632 198.642 75.3632ZM198.642 74.5052C199.682 74.5052 200.644 74.1758 201.528 73.5172C202.429 72.8412 203.148 71.8272 203.686 70.4752C204.24 69.1232 204.518 67.4852 204.518 65.5612C204.518 63.6372 204.24 62.0078 203.686 60.6732C203.148 59.3385 202.429 58.3332 201.528 57.6572C200.644 56.9812 199.682 56.6432 198.642 56.6432C197.602 56.6432 196.64 56.9812 195.756 57.6572C194.872 58.3158 194.152 59.3212 193.598 60.6732C193.06 62.0078 192.792 63.6372 192.792 65.5612C192.792 67.4852 193.06 69.1232 193.598 70.4752C194.152 71.8272 194.872 72.8412 195.756 73.5172C196.64 74.1758 197.602 74.5052 198.642 74.5052Z" fill="#421D12"/>
<path d="M182.053 58.1255C182.33 58.1255 182.547 58.0129 182.703 57.7875L183.119 57.1635C183.188 57.0595 183.284 56.9209 183.405 56.7475C183.544 56.5569 183.648 56.4182 183.717 56.3315C183.804 56.2449 183.882 56.2015 183.951 56.2015C184.09 56.2015 184.445 56.4442 185.017 56.9295C185.606 57.3975 186.031 57.7962 186.291 58.1255C186.378 58.2469 186.421 58.3509 186.421 58.4375C186.421 58.5415 186.369 58.6369 186.265 58.7235C186.126 58.8102 185.962 58.8535 185.771 58.8535H182.287C181.975 58.8535 181.767 59.0095 181.663 59.3215C180.658 63.2909 178.959 66.6449 176.567 69.3835C176.463 69.5049 176.411 69.6349 176.411 69.7735C176.411 69.8949 176.48 70.0249 176.619 70.1635C179.288 72.2955 182.504 73.8815 186.265 74.9215C186.629 75.0082 186.794 75.1035 186.759 75.2075C186.742 75.2769 186.586 75.3549 186.291 75.4415C185.667 75.6322 185.182 76.0395 184.835 76.6635C184.731 76.8889 184.575 77.0015 184.367 77.0015C184.315 77.0015 184.237 76.9842 184.133 76.9495C180.718 75.6842 177.798 73.8295 175.371 71.3855C175.232 71.2469 175.102 71.1775 174.981 71.1775C174.894 71.1775 174.773 71.2382 174.617 71.3595C171.861 73.8035 168.386 75.6495 164.191 76.8975C164.035 76.9495 163.905 76.9755 163.801 76.9755C163.697 76.9755 163.636 76.9409 163.619 76.8715V76.8195C163.619 76.7675 163.654 76.7069 163.723 76.6375C163.81 76.5855 163.922 76.5335 164.061 76.4815C167.996 74.8522 171.176 72.7289 173.603 70.1115C173.724 69.9902 173.785 69.8602 173.785 69.7215C173.785 69.6002 173.733 69.4789 173.629 69.3575C172.156 67.4162 171.012 65.1802 170.197 62.6495C170.11 62.4069 169.998 62.2855 169.859 62.2855C169.738 62.2855 169.625 62.3895 169.521 62.5975L168.325 64.9115C168.204 65.1195 168.169 65.3015 168.221 65.4575L168.247 65.6655C168.143 65.7175 168.03 65.7435 167.909 65.7435C167.77 65.7435 167.658 65.6915 167.571 65.5875L166.609 64.4955C166.505 64.3569 166.453 64.2355 166.453 64.1315C166.453 63.9755 166.531 63.8455 166.687 63.7415C167.935 62.7015 168.862 61.8609 169.469 61.2195C169.625 61.0289 169.729 60.8209 169.781 60.5955L169.911 59.9975C169.963 59.7202 170.11 59.5815 170.353 59.5815C170.405 59.5815 170.483 59.5989 170.587 59.6335C170.83 59.7202 170.951 59.8502 170.951 60.0235C170.951 60.1102 170.908 60.2229 170.821 60.3615L170.509 60.7775C170.405 60.9335 170.353 61.0895 170.353 61.2455C170.353 61.2802 170.37 61.3669 170.405 61.5055C171.289 64.0015 172.641 66.2289 174.461 68.1875C174.582 68.3089 174.712 68.3695 174.851 68.3695C174.99 68.3695 175.12 68.2915 175.241 68.1355C177.113 65.5529 178.422 62.6582 179.167 59.4515L179.193 59.2955C179.193 59.1569 179.141 59.0529 179.037 58.9835C178.95 58.8969 178.829 58.8535 178.673 58.8535H167.987C166.895 58.8709 165.751 58.9662 164.555 59.1395H164.425C164.165 59.1395 163.974 59.0269 163.853 58.8015L163.749 58.6195C163.697 58.5155 163.671 58.4115 163.671 58.3075C163.671 58.2035 163.714 58.1255 163.801 58.0735C163.888 58.0042 164.009 57.9782 164.165 57.9955C164.754 58.0475 165.647 58.0909 166.843 58.1255H173.421C173.785 58.1255 173.967 57.9435 173.967 57.5795C173.932 56.1062 173.854 54.8149 173.733 53.7055V53.6535C173.733 53.3415 173.872 53.1855 174.149 53.1855C174.236 53.1855 174.305 53.1942 174.357 53.2115C175.9 53.6102 176.671 53.9222 176.671 54.1475C176.671 54.2342 176.593 54.3209 176.437 54.4075L176.359 54.4595C176.116 54.6155 175.995 54.8322 175.995 55.1095V57.5795C175.995 57.7529 176.038 57.8915 176.125 57.9955C176.229 58.0822 176.368 58.1255 176.541 58.1255H182.053Z" fill="#421D12"/>
<path d="M151.165 58.1529C150.94 58.0662 150.784 57.8842 150.697 57.6069C150.472 56.9656 150.125 56.3069 149.657 55.6309C149.189 54.9376 148.669 54.3136 148.097 53.7589C147.802 53.4816 147.698 53.3169 147.785 53.2649C147.82 53.2302 147.889 53.2129 147.993 53.2129C148.132 53.2129 148.244 53.2302 148.331 53.2649C149.822 53.6289 150.914 54.1576 151.607 54.8509C152.318 55.5442 152.673 56.2376 152.673 56.9309C152.673 57.3122 152.569 57.6242 152.361 57.8669C152.17 58.1096 151.91 58.2309 151.581 58.2309C151.442 58.2309 151.304 58.2049 151.165 58.1529ZM141.857 57.6069C141.736 57.5722 141.64 57.5202 141.571 57.4509C141.502 57.3642 141.441 57.2516 141.389 57.1129C141.181 56.6276 140.869 56.1249 140.453 55.6049C140.037 55.0849 139.604 54.6256 139.153 54.2269C139.014 54.1229 138.91 54.0276 138.841 53.9409C138.789 53.8542 138.78 53.7936 138.815 53.7589C138.867 53.7069 138.954 53.6809 139.075 53.6809C139.179 53.6809 139.266 53.6896 139.335 53.7069C140.67 53.9149 141.658 54.2962 142.299 54.8509C142.94 55.3882 143.261 55.9516 143.261 56.5409C143.261 56.8529 143.157 57.1216 142.949 57.3469C142.758 57.5549 142.516 57.6589 142.221 57.6589C142.152 57.6589 142.03 57.6416 141.857 57.6069ZM157.899 73.5969C158.038 73.5969 158.367 73.8222 158.887 74.2729C159.424 74.7236 159.806 75.1049 160.031 75.4169C160.118 75.5382 160.161 75.6422 160.161 75.7289C160.161 75.8502 160.109 75.9456 160.005 76.0149C159.884 76.1016 159.728 76.1449 159.537 76.1449H147.317C146.26 76.1622 145.116 76.2576 143.885 76.4309H143.729C143.486 76.4309 143.313 76.3182 143.209 76.0929L143.105 75.8589C143.053 75.7549 143.027 75.6509 143.027 75.5469C143.027 75.3042 143.192 75.2002 143.521 75.2349C144.11 75.2869 145.012 75.3302 146.225 75.3649H149.865C150.038 75.3649 150.168 75.3129 150.255 75.2089C150.359 75.1222 150.411 74.9922 150.411 74.8189V67.6689C150.411 67.4956 150.359 67.3656 150.255 67.2789C150.168 67.1749 150.038 67.1229 149.865 67.1229H148.487C147.534 67.1402 146.494 67.2356 145.367 67.4089H145.211C144.968 67.4089 144.795 67.2962 144.691 67.0709L144.587 66.8629C144.535 66.7589 144.509 66.6549 144.509 66.5509C144.509 66.4469 144.552 66.3689 144.639 66.3169C144.726 66.2476 144.847 66.2216 145.003 66.2389C145.592 66.2909 146.485 66.3342 147.681 66.3689H149.865C150.038 66.3689 150.168 66.3256 150.255 66.2389C150.359 66.1349 150.411 65.9962 150.411 65.8229V60.1549C150.411 59.9816 150.359 59.8516 150.255 59.7649C150.168 59.6609 150.038 59.6089 149.865 59.6089H148.435C147.482 59.6262 146.442 59.7216 145.315 59.8949H145.159C144.916 59.8949 144.743 59.7822 144.639 59.5569C144.587 59.4182 144.5 59.3489 144.379 59.3489C144.223 59.3489 144.093 59.4962 143.989 59.7909L143.521 61.2209C142.204 65.3289 141.458 67.7209 141.285 68.3969C141.008 69.3849 140.869 70.1736 140.869 70.7629C140.869 71.0402 140.912 71.3436 140.999 71.6729C141.103 71.9849 141.164 72.1756 141.181 72.2449C141.337 72.7649 141.45 73.2502 141.519 73.7009C141.606 74.1342 141.64 74.6369 141.623 75.2089C141.588 75.7982 141.432 76.2576 141.155 76.5869C140.878 76.9336 140.505 77.1069 140.037 77.1069C139.586 77.1069 139.283 76.7862 139.127 76.1449C139.11 76.0582 139.101 75.9456 139.101 75.8069C139.101 75.6682 139.11 75.5556 139.127 75.4689C139.231 74.6022 139.283 73.8136 139.283 73.1029C139.283 72.4442 139.24 71.9069 139.153 71.4909C139.066 71.0576 138.936 70.7889 138.763 70.6849C138.538 70.5289 138.286 70.4162 138.009 70.3469C137.662 70.2949 137.489 70.1822 137.489 70.0089C137.489 69.8182 137.671 69.7229 138.035 69.7229H138.633C138.789 69.7229 138.902 69.6969 138.971 69.6449C139.058 69.5929 139.162 69.4369 139.283 69.1769C139.508 68.7436 139.872 67.9376 140.375 66.7589C140.895 65.5629 141.788 63.4482 143.053 60.4149L144.067 57.9709C144.206 57.6416 144.336 57.4769 144.457 57.4769C144.561 57.4769 144.613 57.5636 144.613 57.7369C144.613 57.8756 144.596 57.9882 144.561 58.0749L144.509 58.3089C144.509 58.5516 144.665 58.6902 144.977 58.7249C145.566 58.7769 146.459 58.8202 147.655 58.8549H155.845C156.122 58.8549 156.339 58.7336 156.495 58.4909L156.833 57.9969C156.902 57.8929 156.989 57.7629 157.093 57.6069C157.214 57.4336 157.31 57.3122 157.379 57.2429C157.448 57.1562 157.518 57.1129 157.587 57.1129C157.708 57.1129 158.029 57.3382 158.549 57.7889C159.069 58.2222 159.45 58.5862 159.693 58.8809C159.78 59.0022 159.823 59.1062 159.823 59.1929C159.823 59.2969 159.771 59.3922 159.667 59.4789C159.546 59.5656 159.39 59.6089 159.199 59.6089H152.985C152.812 59.6089 152.673 59.6609 152.569 59.7649C152.482 59.8516 152.439 59.9816 152.439 60.1549V65.8229C152.439 65.9962 152.482 66.1349 152.569 66.2389C152.673 66.3256 152.812 66.3689 152.985 66.3689H155.299C155.576 66.3689 155.793 66.2562 155.949 66.0309L156.287 65.5369C156.356 65.4502 156.443 65.3289 156.547 65.1729C156.668 65.0169 156.764 64.9042 156.833 64.8349C156.902 64.7482 156.972 64.7049 157.041 64.7049C157.18 64.7049 157.492 64.9216 157.977 65.3549C158.48 65.7709 158.844 66.1262 159.069 66.4209C159.156 66.5422 159.199 66.6462 159.199 66.7329C159.199 66.8196 159.156 66.9062 159.069 66.9929C158.93 67.0796 158.757 67.1229 158.549 67.1229H152.985C152.812 67.1229 152.673 67.1749 152.569 67.2789C152.482 67.3656 152.439 67.4956 152.439 67.6689V74.8189C152.439 74.9922 152.482 75.1222 152.569 75.2089C152.673 75.3129 152.812 75.3649 152.985 75.3649H156.131C156.408 75.3649 156.625 75.2436 156.781 75.0009L157.119 74.4809C157.171 74.4116 157.258 74.2902 157.379 74.1169C157.5 73.9436 157.596 73.8136 157.665 73.7269C157.752 73.6402 157.83 73.5969 157.899 73.5969ZM139.959 63.0669C139.838 63.0322 139.742 62.9802 139.673 62.9109C139.604 62.8242 139.543 62.7029 139.491 62.5469C139.283 62.0962 138.988 61.6369 138.607 61.1689C138.226 60.7009 137.818 60.2936 137.385 59.9469C137.09 59.6869 136.978 59.5222 137.047 59.4529C137.099 59.4009 137.186 59.3749 137.307 59.3749C137.411 59.3749 137.498 59.3836 137.567 59.4009C138.832 59.5742 139.768 59.9122 140.375 60.4149C140.999 60.9176 141.311 61.4549 141.311 62.0269C141.311 62.3389 141.216 62.5989 141.025 62.8069C140.852 63.0149 140.618 63.1189 140.323 63.1189C140.254 63.1189 140.132 63.1016 139.959 63.0669Z" fill="#421D12"/>
<path d="M118.172 75.9882C117.946 75.9882 117.834 75.9362 117.834 75.8322C117.834 75.7455 117.868 75.6849 117.938 75.6502C118.024 75.6155 118.111 75.5895 118.198 75.5722C118.302 75.5549 118.371 75.5462 118.406 75.5462C121.144 75.0955 123.207 74.3415 124.594 73.2842C125.998 72.2095 126.7 70.8575 126.7 69.2282C126.7 68.2922 126.483 67.5469 126.05 66.9922C125.634 66.4202 125.036 66.1342 124.256 66.1342C123.441 66.1342 122.722 66.4549 122.098 67.0962C121.474 67.7202 120.78 68.6735 120.018 69.9562C119.862 70.2509 119.628 70.5022 119.316 70.7102C119.004 70.9182 118.735 71.0222 118.51 71.0222C117.678 71.0222 117.036 70.7709 116.586 70.2682C116.152 69.7655 115.936 69.0462 115.936 68.1102C115.936 67.5555 115.97 66.7322 116.04 65.6402C116.126 64.5482 116.187 63.7769 116.222 63.3262C116.326 62.3555 116.378 61.6795 116.378 61.2982C116.378 61.0382 116.352 60.7869 116.3 60.5442C116.265 60.3015 116.248 60.1195 116.248 59.9982C116.248 59.6342 116.352 59.3309 116.56 59.0882C116.768 58.8282 117.097 58.5335 117.548 58.2042C117.912 57.9269 118.562 57.5715 119.498 57.1382C119.983 56.9302 120.321 56.7742 120.512 56.6702C120.72 56.5489 120.824 56.4189 120.824 56.2802C120.824 56.0895 120.668 55.8555 120.356 55.5782C120.044 55.3009 119.688 55.0495 119.29 54.8242C119.238 54.7895 119.16 54.7549 119.056 54.7202C118.969 54.6682 118.926 54.6162 118.926 54.5642C118.926 54.5122 119.03 54.4775 119.238 54.4602C119.446 54.4255 119.619 54.4082 119.758 54.4082C120.503 54.4082 121.162 54.5555 121.734 54.8502C122.306 55.1275 122.8 55.6215 123.216 56.3322C123.389 56.6269 123.476 56.9302 123.476 57.2422C123.476 57.5889 123.372 57.8835 123.164 58.1262C122.956 58.3689 122.722 58.4902 122.462 58.4902C122.323 58.4902 122.193 58.4642 122.072 58.4122C121.95 58.3429 121.829 58.2649 121.708 58.1782C121.465 58.0222 121.248 57.9009 121.058 57.8142C120.867 57.7275 120.624 57.6842 120.33 57.6842C119.636 57.6842 118.908 57.9355 118.146 58.4382C117.955 58.5422 117.808 58.6982 117.704 58.9062C117.6 59.0969 117.548 59.2789 117.548 59.4522C117.548 59.5909 117.574 59.7295 117.626 59.8682C117.695 59.9895 117.738 60.0675 117.756 60.1022C117.964 60.4835 118.068 60.8389 118.068 61.1682C118.068 61.3935 118.007 61.9655 117.886 62.8842C117.643 64.4442 117.522 65.6142 117.522 66.3942C117.522 66.8622 117.582 67.3129 117.704 67.7462C117.842 68.1622 118.024 68.3702 118.25 68.3702C118.492 68.3702 119.004 68.0842 119.784 67.5122C120.668 66.8709 121.482 66.3595 122.228 65.9782C122.99 65.5969 123.796 65.4062 124.646 65.4062C125.408 65.4062 126.119 65.6142 126.778 66.0302C127.436 66.4289 127.956 66.9749 128.338 67.6682C128.719 68.3442 128.91 69.0722 128.91 69.8522C128.91 70.6495 128.71 71.4209 128.312 72.1662C127.913 72.8942 126.96 73.6135 125.452 74.3242C123.961 75.0349 121.725 75.5722 118.744 75.9362C118.518 75.9709 118.328 75.9882 118.172 75.9882Z" fill="#421D12"/>
<path d="M95.5511 60.7256C97.6311 60.7256 98.6711 62.1036 98.6711 64.8596C98.6711 65.553 98.5671 66.4803 98.3591 67.6416C98.1685 68.803 97.8651 69.947 97.4491 71.0736C97.0331 72.2003 96.5305 73.067 95.9411 73.6736C95.6465 73.9856 95.3258 74.2456 94.9791 74.4536C94.6498 74.6443 94.3638 74.7396 94.1211 74.7396C93.6185 74.7396 93.2198 74.3236 92.9251 73.4916C92.6998 72.833 92.2751 72.0963 91.6511 71.2816C91.4778 71.039 91.3911 70.883 91.3911 70.8136C91.3911 70.779 91.4171 70.7616 91.4691 70.7616C91.5385 70.7616 91.7031 70.8483 91.9631 71.0216C92.2231 71.1776 92.4225 71.2903 92.5611 71.3596C92.6825 71.429 92.8471 71.533 93.0551 71.6716C93.2805 71.8103 93.4711 71.9143 93.6271 71.9836C93.7831 72.053 93.9305 72.0876 94.0691 72.0876C94.6411 72.0876 95.1525 71.611 95.6031 70.6576C96.0711 69.7043 96.4265 68.6036 96.6691 67.3556C96.9291 66.0903 97.0591 65.0676 97.0591 64.2876C97.0591 63.4556 96.9378 62.8316 96.6951 62.4156C96.4525 61.9823 96.0538 61.7656 95.4991 61.7656C94.8405 61.7656 93.9565 62.017 92.8471 62.5196C92.6045 62.641 92.4485 62.8316 92.3791 63.0916C91.5645 66.645 90.3078 69.791 88.6091 72.5296C88.3665 72.9456 88.0978 73.275 87.8031 73.5176C87.5085 73.7603 87.2311 73.8816 86.9711 73.8816C86.7285 73.8816 86.5291 73.8036 86.3731 73.6476C86.2171 73.4743 86.1391 73.249 86.1391 72.9716C86.1391 72.417 86.4598 71.7323 87.1011 70.9176C88.6785 68.8203 89.8225 66.645 90.5331 64.3916C90.5678 64.2876 90.5851 64.2096 90.5851 64.1576C90.5851 63.9323 90.4725 63.8196 90.2471 63.8196C90.1778 63.8196 90.0738 63.8456 89.9351 63.8976C88.8258 64.435 88.0631 64.7036 87.6471 64.7036C87.2831 64.7036 86.9105 64.5823 86.5291 64.3396C86.1478 64.0796 85.8271 63.759 85.5671 63.3776C85.3245 62.9963 85.2031 62.615 85.2031 62.2336C85.2031 62.0603 85.2465 61.9736 85.3331 61.9736C85.4025 61.9736 85.5065 62.017 85.6451 62.1036C85.7838 62.173 85.8878 62.225 85.9571 62.2596C86.4425 62.485 86.9798 62.5976 87.5691 62.5976C88.6438 62.5456 89.7098 62.3376 90.7671 61.9736C91.0445 61.8696 91.2091 61.679 91.2611 61.4016C91.4345 60.4656 91.5211 59.6856 91.5211 59.0616C91.5211 58.1603 91.3391 57.493 90.9751 57.0596C90.8191 56.8516 90.6198 56.6436 90.3771 56.4356C90.1518 56.2276 90.0391 56.089 90.0391 56.0196C90.0391 55.9156 90.1258 55.8376 90.2991 55.7856C90.4725 55.7163 90.6978 55.6816 90.9751 55.6816C91.3045 55.6816 91.6511 55.725 92.0151 55.8116C92.3791 55.8983 92.6565 56.0196 92.8471 56.1756C93.2978 56.453 93.5231 56.8343 93.5231 57.3196C93.5231 57.5276 93.4538 57.9263 93.3151 58.5156C93.2111 58.8276 93.1331 59.157 93.0811 59.5036L92.9251 60.5436L92.8991 60.7256C92.8991 60.8643 92.9425 60.9683 93.0291 61.0376C93.1158 61.0896 93.2371 61.0983 93.3931 61.0636C94.1905 60.8383 94.9098 60.7256 95.5511 60.7256ZM100.959 60.6476C102.38 60.6823 103.542 60.9423 104.443 61.4276C105.362 61.913 106.029 62.485 106.445 63.1436C106.861 63.785 107.069 64.3916 107.069 64.9636C107.069 65.397 106.974 65.787 106.783 66.1336C106.61 66.463 106.384 66.723 106.107 66.9136C105.83 67.1043 105.561 67.1996 105.301 67.1996C105.145 67.1996 104.998 67.165 104.859 67.0956C104.72 67.009 104.547 66.8963 104.339 66.7576C103.888 66.411 102.987 66.1596 101.635 66.0036C101.392 65.969 101.271 65.917 101.271 65.8476C101.271 65.7783 101.401 65.7263 101.661 65.6916L102.779 65.5616L103.403 65.4836C103.923 65.3796 104.27 65.2756 104.443 65.1716C104.634 65.0676 104.729 64.877 104.729 64.5996C104.729 63.785 104.339 63.0396 103.559 62.3636C102.779 61.6703 101.886 61.185 100.881 60.9076C100.725 60.8556 100.647 60.8036 100.647 60.7516C100.647 60.6823 100.751 60.6476 100.959 60.6476Z" fill="#421D12"/>
<path d="M76.6747 58.776C76.952 58.776 77.1687 58.6547 77.3247 58.412L77.6627 57.918C77.7147 57.8487 77.8014 57.7274 77.9227 57.554C78.044 57.3807 78.1394 57.2507 78.2087 57.164C78.2954 57.0774 78.3734 57.034 78.4427 57.034C78.5814 57.034 78.902 57.2594 79.4047 57.71C79.9074 58.1434 80.2714 58.516 80.4967 58.828C80.5834 58.9494 80.6267 59.0534 80.6267 59.14C80.6267 59.244 80.5747 59.3394 80.4707 59.426C80.332 59.5127 80.1674 59.556 79.9767 59.556H78.3127C77.9834 59.556 77.7927 59.7207 77.7407 60.05C77.0474 63.95 75.8514 67.1654 74.1527 69.696C74.0834 69.8174 74.0487 69.9387 74.0487 70.06C74.0487 70.1814 74.1007 70.3114 74.2047 70.45C75.8687 72.3567 77.888 73.8474 80.2627 74.922C80.5574 75.0607 80.7047 75.1647 80.7047 75.234C80.7047 75.286 80.67 75.3294 80.6007 75.364C80.5487 75.3987 80.488 75.4247 80.4187 75.442C80.3494 75.4594 80.2887 75.4767 80.2367 75.494C79.6647 75.702 79.2227 76.0747 78.9107 76.612C78.8067 76.8374 78.668 76.95 78.4947 76.95C78.3907 76.95 78.2954 76.9154 78.2087 76.846C76.2154 75.6154 74.534 74.012 73.1647 72.036C73.0434 71.8627 72.9134 71.776 72.7747 71.776C72.6707 71.776 72.5494 71.8454 72.4107 71.984C70.5387 73.9947 68.1727 75.624 65.3127 76.872C65.1567 76.9414 65.0267 76.976 64.9227 76.976C64.836 76.9934 64.7754 76.976 64.7407 76.924V76.872C64.7407 76.768 64.8707 76.638 65.1307 76.482C67.852 74.8527 70.0447 72.8247 71.7087 70.398C71.7954 70.2594 71.8387 70.1294 71.8387 70.008C71.8387 69.8867 71.804 69.7654 71.7347 69.644C70.712 67.564 69.8974 65.12 69.2907 62.312C69.2387 62.052 69.1347 61.922 68.9787 61.922C68.84 61.922 68.7187 62.0087 68.6147 62.182C67.9907 63.1007 67.3407 63.898 66.6647 64.574C66.4394 64.7994 66.266 64.8687 66.1447 64.782C66.0927 64.73 66.0667 64.678 66.0667 64.626C66.0667 64.5567 66.1274 64.418 66.2487 64.21C67.1847 62.65 67.9907 60.804 68.6667 58.672C68.892 57.944 69.0914 57.0947 69.2647 56.124C69.4554 55.1534 69.568 54.2954 69.6027 53.55C69.6027 53.238 69.75 53.082 70.0447 53.082C70.1314 53.082 70.2007 53.0907 70.2527 53.108C71.8474 53.5414 72.6447 53.862 72.6447 54.07C72.6447 54.1394 72.5667 54.2087 72.4107 54.278L72.3067 54.33C72.064 54.4687 71.908 54.6594 71.8387 54.902C71.5094 56.098 71.1367 57.1814 70.7207 58.152C70.686 58.256 70.6687 58.334 70.6687 58.386C70.6687 58.5074 70.712 58.6027 70.7987 58.672C70.8854 58.7414 71.0067 58.776 71.1627 58.776H76.6747ZM63.8567 59.218C64.0994 59.218 64.2987 59.0967 64.4547 58.854L64.7147 58.412C64.784 58.308 64.862 58.1867 64.9487 58.048C65.0527 57.892 65.1394 57.7794 65.2087 57.71C65.278 57.6407 65.3474 57.606 65.4167 57.606C65.5554 57.606 65.85 57.8054 66.3007 58.204C66.7687 58.6027 67.1067 58.9494 67.3147 59.244C67.4014 59.3654 67.4447 59.4694 67.4447 59.556C67.4447 59.66 67.3927 59.7554 67.2887 59.842C67.15 59.9287 66.9854 59.972 66.7947 59.972H64.0127C63.8394 59.972 63.7007 60.024 63.5967 60.128C63.51 60.2147 63.4667 60.3447 63.4667 60.518V62.676L63.4927 63.118C64.6887 63.638 65.564 64.2274 66.1187 64.886C66.6907 65.5447 66.9767 66.16 66.9767 66.732C66.9767 67.0614 66.89 67.3387 66.7167 67.564C66.5434 67.772 66.318 67.876 66.0407 67.876C65.902 67.876 65.7287 67.8327 65.5207 67.746C65.3474 67.6247 65.2174 67.4254 65.1307 67.148C64.9747 66.524 64.6454 65.7354 64.1427 64.782C64.0387 64.5914 63.9174 64.496 63.7787 64.496C63.692 64.496 63.614 64.5394 63.5447 64.626C63.4927 64.7127 63.4667 64.834 63.4667 64.99V70.164C63.5014 72.0534 63.562 73.96 63.6487 75.884V76.014C63.6487 76.2394 63.5707 76.4214 63.4147 76.56C63.224 76.6987 62.99 76.82 62.7127 76.924C62.4527 77.028 62.184 77.08 61.9067 77.08C61.716 77.08 61.5514 77.028 61.4127 76.924C61.2914 76.82 61.2307 76.6987 61.2307 76.56C61.3 75.5374 61.3607 74.5494 61.4127 73.596C61.4647 72.6254 61.4994 71.36 61.5167 69.8V66.68C61.5167 66.368 61.43 66.212 61.2567 66.212C61.118 66.212 60.9967 66.316 60.8927 66.524C60.0087 68.1187 59.0034 69.5054 57.8767 70.684C57.634 70.944 57.4607 71.022 57.3567 70.918C57.322 70.8834 57.3047 70.8314 57.3047 70.762C57.3047 70.658 57.3567 70.5194 57.4607 70.346C59.0554 67.8327 60.2687 64.574 61.1007 60.57V60.44C61.1007 60.3014 61.0574 60.1887 60.9707 60.102C60.884 60.0154 60.7627 59.972 60.6067 59.972H60.0347C59.5147 59.9894 59.0207 60.0674 58.5527 60.206C58.5007 60.2234 58.4314 60.232 58.3447 60.232C58.102 60.232 57.9287 60.1194 57.8247 59.894L57.7467 59.712C57.6947 59.608 57.6687 59.5127 57.6687 59.426C57.6687 59.3047 57.712 59.218 57.7987 59.166C57.8854 59.0967 58.0067 59.0707 58.1627 59.088C58.6307 59.14 59.3154 59.1834 60.2167 59.218H60.9707C61.144 59.218 61.274 59.1747 61.3607 59.088C61.4647 58.984 61.5167 58.8454 61.5167 58.672V58.386C61.5167 56.67 61.4387 55.1187 61.2827 53.732V53.628C61.2827 53.3507 61.4214 53.212 61.6987 53.212C61.7854 53.212 61.8547 53.2207 61.9067 53.238C62.7387 53.4807 63.3194 53.68 63.6487 53.836C63.978 53.9747 64.1427 54.096 64.1427 54.2C64.1427 54.2867 64.0647 54.3734 63.9087 54.46L63.8307 54.512C63.588 54.668 63.4667 54.8847 63.4667 55.162V58.672C63.4667 59.036 63.5967 59.218 63.8567 59.218ZM75.4267 60.024C75.4267 59.712 75.262 59.556 74.9327 59.556H70.5387C70.2614 59.556 70.0447 59.686 69.8887 59.946L69.6547 60.414C69.568 60.5874 69.5247 60.7347 69.5247 60.856C69.5247 60.908 69.542 61.0034 69.5767 61.142C70.2527 63.7594 71.1887 66.03 72.3847 67.954C72.506 68.1447 72.6447 68.24 72.8007 68.24C72.9567 68.24 73.0694 68.1534 73.1387 67.98C74.2654 65.692 75.028 63.0747 75.4267 60.128V60.024Z" fill="#421D12"/>
<path d="M44.3656 75.0004C44.2963 75.0004 44.2443 74.9744 44.2096 74.9224C44.1923 74.8531 44.1836 74.7577 44.1836 74.6364C44.1836 74.5151 44.1923 74.4284 44.2096 74.3764C44.2443 74.3071 44.2963 74.2724 44.3656 74.2724H44.7556C46.7316 74.2724 47.7196 73.6831 47.7196 72.5044V60.4144C47.7196 59.8424 47.6589 59.4437 47.5376 59.2184C47.4336 58.9931 47.1996 58.8544 46.8356 58.8024C46.4889 58.7331 45.8649 58.6984 44.9636 58.6984H44.3916C44.2703 58.6984 44.2096 58.5771 44.2096 58.3344C44.2096 58.0917 44.2703 57.9704 44.3916 57.9704C46.3676 57.9011 48.0836 57.3464 49.5396 56.3064C49.6783 56.2024 49.7909 56.1504 49.8776 56.1504C49.9643 56.1504 50.0336 56.1937 50.0856 56.2804C50.1549 56.3671 50.1896 56.4797 50.1896 56.6184V72.5044C50.1896 73.6831 51.1863 74.2724 53.1796 74.2724H53.5436C53.6129 74.2724 53.6563 74.3071 53.6736 74.3764C53.7083 74.4284 53.7256 74.5151 53.7256 74.6364C53.7256 74.8791 53.6649 75.0004 53.5436 75.0004H44.3656Z" fill="#421D12"/>
</svg>
