<svg width="160" height="111" viewBox="0 0 160 111" fill="none" xmlns="http://www.w3.org/2000/svg">
<path d="M0 6C0 2.68629 2.68629 0 6 0H154C157.314 0 160 2.68629 160 6V105C160 108.314 157.314 111 154 111H6C2.6863 111 0 108.314 0 105V6Z" fill="#F1ECE8"/>
<path d="M125.168 45.0711C125.056 45.0711 124.932 45.0111 124.796 44.8911C124.668 44.7631 124.576 44.6151 124.52 44.4471C124.224 43.6551 124.076 42.6671 124.076 41.4831C124.076 40.9471 124.116 40.4671 124.196 40.0431C124.276 39.6191 124.384 39.1791 124.52 38.7231C124.576 38.5071 124.628 38.2951 124.676 38.0871C124.724 37.8791 124.748 37.6991 124.748 37.5471C124.748 37.3951 124.72 37.2391 124.664 37.0791C124.608 36.9191 124.536 36.7911 124.448 36.6951C124.384 36.6071 124.352 36.5471 124.352 36.5151C124.352 36.4751 124.368 36.4551 124.4 36.4551C124.448 36.4551 124.512 36.4791 124.592 36.5271C124.856 36.6951 125.064 36.8951 125.216 37.1271C125.376 37.3591 125.456 37.6551 125.456 38.0151C125.456 38.1671 125.432 38.3231 125.384 38.4831C125.336 38.6431 125.28 38.7991 125.216 38.9511C125.152 39.1031 125.112 39.2031 125.096 39.2511C124.912 39.6671 124.788 40.0071 124.724 40.2711C124.644 40.5831 124.604 40.8991 124.604 41.2191C124.604 41.4271 124.62 41.6231 124.652 41.8071C124.684 41.9831 124.732 42.0711 124.796 42.0711C124.836 42.0711 124.904 41.9911 125 41.8311L125.216 41.3871L125.624 40.5711C125.68 40.4831 125.72 40.4391 125.744 40.4391C125.768 40.4391 125.78 40.4551 125.78 40.4871L125.744 40.6311C125.64 40.9111 125.524 41.2751 125.396 41.7231C125.268 42.1631 125.204 42.5311 125.204 42.8271C125.204 43.1711 125.272 43.6831 125.408 44.3631C125.448 44.5791 125.468 44.7071 125.468 44.7471C125.468 44.8511 125.436 44.9311 125.372 44.9871C125.308 45.0431 125.24 45.0711 125.168 45.0711ZM129.512 38.3151C129.16 38.3151 128.872 38.2831 128.648 38.2191C128.384 38.1471 128.148 38.0431 127.94 37.9071C127.74 37.7711 127.604 37.6311 127.532 37.4871C127.5 37.4231 127.484 37.3751 127.484 37.3431C127.484 37.3191 127.496 37.3071 127.52 37.3071C127.544 37.3071 127.584 37.3271 127.64 37.3671C127.704 37.4071 127.764 37.4391 127.82 37.4631C128.076 37.5671 128.364 37.6191 128.684 37.6191C128.908 37.6191 129.212 37.5951 129.596 37.5471C129.988 37.4991 130.312 37.4471 130.568 37.3911C130.664 37.3591 130.74 37.3431 130.796 37.3431C130.948 37.3431 131.088 37.3911 131.216 37.4871C131.344 37.5751 131.408 37.6711 131.408 37.7751C131.408 37.9591 131.204 38.0951 130.796 38.1831C130.388 38.2711 129.96 38.3151 129.512 38.3151ZM129.932 44.5071C129.316 44.5071 128.776 44.4271 128.312 44.2671C127.848 44.0991 127.52 43.7711 127.328 43.2831C127.28 43.1631 127.256 43.0911 127.256 43.0671C127.256 43.0351 127.272 43.0191 127.304 43.0191C127.328 43.0191 127.356 43.0351 127.388 43.0671C127.428 43.0911 127.46 43.1111 127.484 43.1271C127.796 43.3671 128.144 43.5351 128.528 43.6311C128.712 43.6791 128.988 43.7031 129.356 43.7031C129.764 43.7031 130.296 43.6551 130.952 43.5591C131.224 43.5271 131.36 43.5111 131.36 43.5111C131.544 43.5111 131.692 43.5591 131.804 43.6551C131.924 43.7511 131.984 43.8551 131.984 43.9671C131.984 44.1831 131.792 44.3271 131.408 44.3991C131.032 44.4711 130.54 44.5071 129.932 44.5071Z" fill="#421D12"/>
<path d="M113.829 43.4151C113.749 43.4151 113.685 43.4391 113.637 43.4871C113.597 43.5271 113.577 43.5871 113.577 43.6671V44.1711L113.601 44.7591C113.601 44.9191 113.609 45.1431 113.625 45.4311V45.5031C113.625 45.5911 113.589 45.6671 113.517 45.7311C113.373 45.8431 113.193 45.8991 112.977 45.8991C112.921 45.8991 112.873 45.8751 112.833 45.8271C112.801 45.7791 112.785 45.7231 112.785 45.6591C112.817 45.2911 112.841 44.8191 112.857 44.2431V43.6671C112.857 43.5871 112.833 43.5271 112.785 43.4871C112.745 43.4391 112.685 43.4151 112.605 43.4151H112.149C111.773 43.4311 111.429 43.4711 111.117 43.5351C111.093 43.5431 111.065 43.5471 111.033 43.5471C110.945 43.5471 110.869 43.4911 110.805 43.3791L110.757 43.2951C110.733 43.2471 110.721 43.1991 110.721 43.1511C110.721 43.1031 110.741 43.0671 110.781 43.0431C110.821 43.0111 110.877 42.9991 110.949 43.0071C111.205 43.0311 111.597 43.0511 112.125 43.0671H112.605C112.685 43.0671 112.745 43.0471 112.785 43.0071C112.833 42.9591 112.857 42.8951 112.857 42.8151V41.9151C112.857 41.8351 112.833 41.7751 112.785 41.7351C112.745 41.6871 112.685 41.6631 112.605 41.6631H112.137C112.057 41.6631 111.993 41.6871 111.945 41.7351C111.905 41.7751 111.885 41.8351 111.885 41.9151V42.0471C111.885 42.0871 111.821 42.1391 111.693 42.2031C111.573 42.2591 111.449 42.2871 111.321 42.2871C111.273 42.2871 111.229 42.2631 111.189 42.2151C111.157 42.1671 111.141 42.1111 111.141 42.0471C111.173 41.7031 111.197 41.2671 111.213 40.7391V39.9591C111.213 39.2471 111.181 38.5711 111.117 37.9311V37.8831C111.117 37.7551 111.165 37.6911 111.261 37.6911C111.301 37.6911 111.345 37.7031 111.393 37.7271L111.801 37.9191C111.905 37.9671 112.009 37.9911 112.113 37.9911H112.605C112.685 37.9911 112.745 37.9711 112.785 37.9311C112.833 37.8831 112.857 37.8191 112.857 37.7391V37.1631C112.857 37.0831 112.833 37.0231 112.785 36.9831C112.745 36.9351 112.685 36.9111 112.605 36.9111H112.185C111.833 36.9271 111.497 36.9671 111.177 37.0311H111.105C110.993 37.0311 110.913 36.9791 110.865 36.8751L110.817 36.7911C110.793 36.7431 110.781 36.6991 110.781 36.6591C110.781 36.6111 110.801 36.5711 110.841 36.5391C110.889 36.5071 110.949 36.4951 111.021 36.5031C111.269 36.5271 111.645 36.5471 112.149 36.5631H112.605C112.773 36.5631 112.857 36.4791 112.857 36.3111C112.841 35.8951 112.817 35.5231 112.785 35.1951V35.1711C112.785 35.1071 112.801 35.0551 112.833 35.0151C112.873 34.9751 112.921 34.9551 112.977 34.9551L113.085 34.9791C113.605 35.1471 113.865 35.2791 113.865 35.3751C113.865 35.4151 113.833 35.4551 113.769 35.4951L113.745 35.5071C113.633 35.5791 113.577 35.6791 113.577 35.8071V36.3111C113.577 36.3911 113.597 36.4551 113.637 36.5031C113.685 36.5431 113.749 36.5631 113.829 36.5631H114.225C114.353 36.5631 114.453 36.5111 114.525 36.4071L114.645 36.2271C114.677 36.1871 114.709 36.1391 114.741 36.0831C114.781 36.0271 114.821 35.9791 114.861 35.9391C114.901 35.8991 114.937 35.8791 114.969 35.8791C115.033 35.8791 115.165 35.9671 115.365 36.1431C115.573 36.3111 115.725 36.4591 115.821 36.5871C115.853 36.6191 115.869 36.6631 115.869 36.7191C115.869 36.7671 115.849 36.8111 115.809 36.8511C115.745 36.8911 115.669 36.9111 115.581 36.9111H113.829C113.749 36.9111 113.685 36.9351 113.637 36.9831C113.597 37.0231 113.577 37.0831 113.577 37.1631V37.7391C113.577 37.8191 113.597 37.8831 113.637 37.9311C113.685 37.9711 113.749 37.9911 113.829 37.9911H114.297C114.425 37.9911 114.529 37.9391 114.609 37.8351L114.645 37.7871C114.669 37.7631 114.705 37.7231 114.753 37.6671C114.801 37.6111 114.849 37.5831 114.897 37.5831C114.953 37.5831 115.057 37.6391 115.209 37.7511C115.361 37.8551 115.481 37.9591 115.569 38.0631C115.601 38.1031 115.617 38.1471 115.617 38.1951C115.617 38.2511 115.581 38.3031 115.509 38.3511L115.497 38.3631C115.441 38.3871 115.389 38.4231 115.341 38.4711C115.301 38.5191 115.281 38.5751 115.281 38.6391V39.5631C115.289 39.7071 115.293 39.8991 115.293 40.1391C115.293 40.2111 115.309 40.2671 115.341 40.3071C115.373 40.3391 115.413 40.3551 115.461 40.3551C115.501 40.3551 115.545 40.3431 115.593 40.3191C116.361 39.9111 117.037 39.4271 117.621 38.8671C117.685 38.8031 117.717 38.7431 117.717 38.6871C117.717 38.6311 117.693 38.5751 117.645 38.5191C117.141 37.9031 116.753 37.1751 116.481 36.3351C116.433 36.1991 116.337 36.1311 116.193 36.1311H116.157C116.109 36.1311 116.053 36.1431 115.989 36.1671C115.933 36.1911 115.881 36.2031 115.833 36.2031C115.761 36.2031 115.701 36.1591 115.653 36.0711L115.617 35.9991C115.593 35.9511 115.581 35.9071 115.581 35.8671C115.581 35.8111 115.601 35.7711 115.641 35.7471C115.681 35.7151 115.737 35.7031 115.809 35.7111C116.097 35.7351 116.513 35.7551 117.057 35.7711H119.337C119.473 35.7711 119.577 35.7231 119.649 35.6271L119.769 35.4951C119.801 35.4631 119.849 35.4111 119.913 35.3391C119.985 35.2591 120.045 35.2191 120.093 35.2191C120.149 35.2191 120.257 35.2991 120.417 35.4591C120.577 35.6191 120.705 35.7671 120.801 35.9031C120.825 35.9351 120.837 35.9751 120.837 36.0231C120.837 36.0951 120.797 36.1471 120.717 36.1791C120.669 36.1951 120.629 36.2031 120.597 36.2031C120.461 36.2271 120.365 36.2951 120.309 36.4071C119.925 37.1671 119.461 37.8391 118.917 38.4231C118.861 38.4791 118.833 38.5391 118.833 38.6031C118.833 38.6751 118.873 38.7351 118.953 38.7831C119.609 39.1831 120.333 39.4911 121.125 39.7071C121.277 39.7551 121.353 39.7991 121.353 39.8391C121.345 39.8711 121.313 39.8991 121.257 39.9231C121.209 39.9391 121.169 39.9551 121.137 39.9711C120.969 40.0511 120.845 40.1711 120.765 40.3311C120.701 40.4431 120.629 40.4991 120.549 40.4991C120.525 40.4991 120.489 40.4911 120.441 40.4751C119.601 40.1471 118.905 39.7391 118.353 39.2511C118.297 39.1951 118.237 39.1671 118.173 39.1671C118.125 39.1671 118.069 39.1911 118.005 39.2391C117.293 39.7911 116.493 40.2351 115.605 40.5711C115.461 40.6191 115.377 40.6191 115.353 40.5711C115.329 40.5311 115.317 40.6831 115.317 41.0271L115.353 41.6031V41.6631C115.353 41.7751 115.313 41.8551 115.233 41.9031C115.153 41.9591 115.061 42.0071 114.957 42.0471C114.853 42.0871 114.761 42.1071 114.681 42.1071C114.617 42.1071 114.585 42.0311 114.585 41.8791C114.585 41.8151 114.561 41.7631 114.513 41.7231C114.473 41.6831 114.413 41.6631 114.333 41.6631H113.829C113.749 41.6631 113.685 41.6871 113.637 41.7351C113.597 41.7751 113.577 41.8351 113.577 41.9151V42.8151C113.577 42.8951 113.597 42.9591 113.637 43.0071C113.685 43.0471 113.749 43.0671 113.829 43.0671H114.369C114.497 43.0671 114.597 43.0151 114.669 42.9111L114.789 42.7311C114.813 42.6991 114.845 42.6511 114.885 42.5871C114.933 42.5231 114.973 42.4751 115.005 42.4431C115.037 42.4111 115.069 42.3951 115.101 42.3951C115.165 42.3951 115.297 42.4791 115.497 42.6471C115.705 42.8071 115.857 42.9511 115.953 43.0791C115.985 43.1191 116.001 43.1631 116.001 43.2111C116.001 43.2671 115.981 43.3111 115.941 43.3431C115.893 43.3911 115.821 43.4151 115.725 43.4151H113.829ZM119.373 36.4311C119.397 36.3831 119.409 36.3391 119.409 36.2991C119.409 36.1871 119.333 36.1311 119.181 36.1311H116.985C116.833 36.1311 116.757 36.1871 116.757 36.2991C116.757 36.3391 116.769 36.3831 116.793 36.4311C117.097 37.0391 117.505 37.5871 118.017 38.0751C118.065 38.1231 118.121 38.1471 118.185 38.1471C118.257 38.1471 118.321 38.1111 118.377 38.0391C118.793 37.5271 119.125 36.9911 119.373 36.4311ZM111.885 39.4071C111.885 39.4871 111.905 39.5511 111.945 39.5991C111.993 39.6391 112.057 39.6591 112.137 39.6591H112.617C112.697 39.6591 112.757 39.6391 112.797 39.5991C112.845 39.5511 112.869 39.4871 112.869 39.4071V38.6031C112.869 38.5231 112.845 38.4631 112.797 38.4231C112.757 38.3751 112.697 38.3511 112.617 38.3511H112.137C112.057 38.3511 111.993 38.3751 111.945 38.4231C111.905 38.4631 111.885 38.5231 111.885 38.6031V39.4071ZM114.585 38.6031C114.585 38.5231 114.561 38.4631 114.513 38.4231C114.473 38.3751 114.413 38.3511 114.333 38.3511H113.805C113.725 38.3511 113.661 38.3751 113.613 38.4231C113.573 38.4631 113.553 38.5231 113.553 38.6031V39.4071C113.553 39.4871 113.573 39.5511 113.613 39.5991C113.661 39.6391 113.725 39.6591 113.805 39.6591H114.333C114.413 39.6591 114.473 39.6391 114.513 39.5991C114.561 39.5511 114.585 39.4871 114.585 39.4071V38.6031ZM111.885 41.0751C111.885 41.1551 111.905 41.2191 111.945 41.2671C111.993 41.3071 112.057 41.3271 112.137 41.3271H112.617C112.697 41.3271 112.757 41.3071 112.797 41.2671C112.845 41.2191 112.869 41.1551 112.869 41.0751V40.2711C112.869 40.1911 112.845 40.1311 112.797 40.0911C112.757 40.0431 112.697 40.0191 112.617 40.0191H112.137C112.057 40.0191 111.993 40.0431 111.945 40.0911C111.905 40.1311 111.885 40.1911 111.885 40.2711V41.0751ZM113.805 40.0191C113.725 40.0191 113.661 40.0431 113.613 40.0911C113.573 40.1311 113.553 40.1911 113.553 40.2711V41.0751C113.553 41.1551 113.573 41.2191 113.613 41.2671C113.661 41.3071 113.725 41.3271 113.805 41.3271H114.333C114.413 41.3271 114.473 41.3071 114.513 41.2671C114.561 41.2191 114.585 41.1551 114.585 41.0751V40.2711C114.585 40.1911 114.561 40.1311 114.513 40.0911C114.473 40.0431 114.413 40.0191 114.333 40.0191H113.805ZM120.441 44.4831C120.497 44.4831 120.629 44.5751 120.837 44.7591C121.053 44.9351 121.209 45.0911 121.305 45.2271C121.345 45.2831 121.365 45.3311 121.365 45.3711C121.365 45.4271 121.341 45.4711 121.293 45.5031C121.253 45.5351 121.185 45.5511 121.089 45.5511H116.961C116.473 45.5591 115.945 45.6031 115.377 45.6831H115.305C115.193 45.6831 115.113 45.6311 115.065 45.5271L115.017 45.4311C114.993 45.3831 114.981 45.3391 114.981 45.2991C114.981 45.2431 115.001 45.1991 115.041 45.1671C115.081 45.1431 115.137 45.1351 115.209 45.1431C115.497 45.1671 115.913 45.1871 116.457 45.2031H117.417C117.497 45.2031 117.557 45.1791 117.597 45.1311C117.645 45.0911 117.669 45.0311 117.669 44.9511V42.7071C117.669 42.6271 117.645 42.5671 117.597 42.5271C117.557 42.4791 117.497 42.4551 117.417 42.4551H117.033C116.705 42.4711 116.401 42.5111 116.121 42.5751H116.049C115.937 42.5751 115.857 42.5231 115.809 42.4191L115.761 42.3231C115.737 42.2751 115.725 42.2271 115.725 42.1791C115.725 42.1311 115.745 42.0951 115.785 42.0711C115.825 42.0391 115.881 42.0271 115.953 42.0351C116.185 42.0591 116.537 42.0791 117.009 42.0951H117.417C117.585 42.0951 117.669 42.0111 117.669 41.8431C117.653 41.2591 117.625 40.7871 117.585 40.4271V40.4031C117.585 40.3391 117.601 40.2871 117.633 40.2471C117.673 40.2071 117.721 40.1871 117.777 40.1871L117.885 40.2111C118.437 40.3871 118.713 40.5191 118.713 40.6071C118.713 40.6311 118.681 40.6671 118.617 40.7151L118.593 40.7271C118.481 40.7991 118.425 40.8991 118.425 41.0271V41.8431C118.425 41.9231 118.445 41.9871 118.485 42.0351C118.533 42.0751 118.597 42.0951 118.677 42.0951H119.169C119.297 42.0951 119.397 42.0431 119.469 41.9391L119.601 41.7471C119.633 41.7071 119.665 41.6591 119.697 41.6031C119.737 41.5471 119.777 41.4991 119.817 41.4591C119.857 41.4191 119.893 41.3991 119.925 41.3991C119.981 41.3991 120.113 41.4871 120.321 41.6631C120.537 41.8391 120.693 41.9951 120.789 42.1311C120.821 42.1631 120.837 42.2071 120.837 42.2631C120.837 42.3111 120.817 42.3551 120.777 42.3951C120.713 42.4351 120.637 42.4551 120.549 42.4551H118.677C118.597 42.4551 118.533 42.4791 118.485 42.5271C118.445 42.5671 118.425 42.6271 118.425 42.7071V44.9511C118.425 45.0311 118.445 45.0911 118.485 45.1311C118.533 45.1791 118.597 45.2031 118.677 45.2031H119.685C119.813 45.2031 119.913 45.1471 119.985 45.0351L120.117 44.8431C120.149 44.8031 120.185 44.7511 120.225 44.6871C120.273 44.6151 120.313 44.5631 120.345 44.5311C120.377 44.4991 120.409 44.4831 120.441 44.4831Z" fill="#421D12"/>
<path d="M107.12 36.3711C107.248 36.3711 107.348 36.3191 107.42 36.2151L107.564 35.9991C107.604 35.9511 107.644 35.8991 107.684 35.8431C107.724 35.7871 107.764 35.7391 107.804 35.6991C107.844 35.6511 107.88 35.6271 107.912 35.6271C107.976 35.6271 108.12 35.7231 108.344 35.9151C108.576 36.1071 108.744 36.2711 108.848 36.4071C108.888 36.4471 108.908 36.4911 108.908 36.5391C108.908 36.5791 108.884 36.6191 108.836 36.6591C108.772 36.6991 108.7 36.7191 108.62 36.7191H102.032C101.888 36.7191 101.784 36.7751 101.72 36.8871C100.96 38.1191 100.072 39.0711 99.0556 39.7431C98.9276 39.8391 98.8396 39.8551 98.7916 39.7911C98.7756 39.7751 98.7676 39.7591 98.7676 39.7431C98.7676 39.6951 98.8116 39.6271 98.8996 39.5391C99.4996 38.9551 100.068 38.2031 100.604 37.2831C100.78 36.9791 100.952 36.6191 101.12 36.2031C101.288 35.7791 101.412 35.3991 101.492 35.0631C101.524 34.9351 101.592 34.8711 101.696 34.8711C101.736 34.8711 101.78 34.8831 101.828 34.9071C102.444 35.1711 102.752 35.3471 102.752 35.4351C102.752 35.4671 102.712 35.4951 102.632 35.5191L102.596 35.5311C102.476 35.5711 102.388 35.6431 102.332 35.7471C102.292 35.8191 102.24 35.9271 102.176 36.0711C102.152 36.1191 102.14 36.1631 102.14 36.2031C102.14 36.3151 102.212 36.3711 102.356 36.3711H107.12ZM106.364 37.8711C106.492 37.8711 106.592 37.8191 106.664 37.7151L106.808 37.5231C106.832 37.4911 106.868 37.4431 106.916 37.3791C106.972 37.3071 107.016 37.2551 107.048 37.2231C107.08 37.1911 107.112 37.1751 107.144 37.1751C107.208 37.1751 107.348 37.2671 107.564 37.4511C107.78 37.6271 107.936 37.7791 108.032 37.9071C108.072 37.9631 108.092 38.0071 108.092 38.0391C108.092 38.0871 108.072 38.1311 108.032 38.1711C107.968 38.2111 107.892 38.2311 107.804 38.2311H103.412C102.924 38.2391 102.396 38.2831 101.828 38.3631H101.756C101.644 38.3631 101.564 38.3111 101.516 38.2071L101.456 38.0991C101.432 38.0511 101.42 38.0071 101.42 37.9671C101.42 37.8471 101.5 37.7951 101.66 37.8111C101.932 37.8351 102.344 37.8551 102.896 37.8711H106.364ZM106.16 39.4671C106.288 39.4671 106.388 39.4111 106.46 39.2991L106.544 39.1791C106.568 39.1471 106.6 39.1031 106.64 39.0471C106.68 38.9911 106.712 38.9511 106.736 38.9271C106.768 38.8951 106.8 38.8791 106.832 38.8791C106.888 38.8791 107.004 38.9591 107.18 39.1191C107.364 39.2711 107.508 39.4151 107.612 39.5511C107.644 39.5911 107.66 39.6351 107.66 39.6831C107.66 39.7551 107.62 39.8071 107.54 39.8391L107.48 39.8631C107.336 39.9111 107.264 40.0071 107.264 40.1511C107.272 41.2071 107.376 42.1711 107.576 43.0431C107.776 43.9071 108.1 44.4831 108.548 44.7711C108.588 44.8031 108.632 44.8191 108.68 44.8191C108.72 44.8191 108.752 44.7791 108.776 44.6991C108.88 44.4591 108.972 44.1791 109.052 43.8591C109.1 43.6911 109.144 43.6151 109.184 43.6311C109.224 43.6471 109.24 43.7311 109.232 43.8831L109.148 44.9151V44.9631C109.148 45.0431 109.18 45.1351 109.244 45.2391C109.332 45.3991 109.376 45.5231 109.376 45.6111C109.376 45.6751 109.36 45.7271 109.328 45.7671C109.248 45.8711 109.136 45.9231 108.992 45.9231C108.776 45.9231 108.516 45.8111 108.212 45.5871C107.604 45.1871 107.172 44.5111 106.916 43.5591C106.66 42.5991 106.512 41.4311 106.472 40.0551C106.464 39.8871 106.376 39.8031 106.208 39.8031H102.032C101.544 39.8111 101.016 39.8551 100.448 39.9351H100.376C100.264 39.9351 100.184 39.8831 100.136 39.7791L100.088 39.6951C100.064 39.6471 100.052 39.5991 100.052 39.5511C100.052 39.5031 100.072 39.4671 100.112 39.4431C100.152 39.4111 100.208 39.3991 100.28 39.4071C100.552 39.4311 100.964 39.4511 101.516 39.4671H106.16ZM103.916 42.5391C103.868 42.5871 103.844 42.6431 103.844 42.7071C103.844 42.7791 103.884 42.8431 103.964 42.8991C104.508 43.3471 104.904 43.7671 105.152 44.1591C105.4 44.5431 105.524 44.8671 105.524 45.1311C105.524 45.2671 105.492 45.3711 105.428 45.4431C105.372 45.5231 105.296 45.5631 105.2 45.5631C105.136 45.5631 105.076 45.5471 105.02 45.5151C104.94 45.4831 104.868 45.4071 104.804 45.2871C104.492 44.7111 104.028 44.0951 103.412 43.4391C103.348 43.3751 103.288 43.3431 103.232 43.3431C103.184 43.3431 103.124 43.3711 103.052 43.4271C101.86 44.5151 100.532 45.3271 99.0676 45.8631C99.0036 45.8951 98.9436 45.9111 98.8876 45.9111C98.8396 45.9111 98.8116 45.8951 98.8036 45.8631V45.8391C98.8036 45.7831 98.8636 45.7231 98.9836 45.6591C100.32 44.9951 101.516 44.1031 102.572 42.9831C102.628 42.9111 102.656 42.8511 102.656 42.8031C102.656 42.7391 102.62 42.6791 102.548 42.6231C102.004 42.1511 101.356 41.6631 100.604 41.1591C100.5 41.0871 100.448 41.0231 100.448 40.9671C100.448 40.9111 100.476 40.8831 100.532 40.8831C100.58 40.8831 100.644 40.9031 100.724 40.9431C101.548 41.3351 102.296 41.7471 102.968 42.1791C103.096 42.2591 103.172 42.2871 103.196 42.2631C103.204 42.2391 103.22 42.2231 103.244 42.2151C103.444 41.9511 103.636 41.6471 103.82 41.3031C104.004 40.9511 104.152 40.6151 104.264 40.2951C104.296 40.1911 104.364 40.1391 104.468 40.1391C104.5 40.1391 104.548 40.1511 104.612 40.1751C105.18 40.4551 105.464 40.6391 105.464 40.7271C105.464 40.7591 105.424 40.7831 105.344 40.7991L105.308 40.8111C105.18 40.8351 105.088 40.8911 105.032 40.9791C104.656 41.6031 104.284 42.1231 103.916 42.5391Z" fill="#421D12"/>
<path d="M92.252 39.7442C93.116 40.1282 93.788 40.6362 94.268 41.2682C94.756 41.8922 95 42.5402 95 43.2122C95 43.6842 94.876 44.1002 94.628 44.4602C94.388 44.8202 94.068 45.0962 93.668 45.2882C93.268 45.4802 92.84 45.5762 92.384 45.5762C91.576 45.5762 91.004 45.3282 90.668 44.8322C90.34 44.3282 90.176 43.6722 90.176 42.8642V42.3122V42.2762C90.176 42.1562 90.112 42.0722 89.984 42.0242C89.496 41.8082 89.252 41.5322 89.252 41.1962C89.252 40.7402 89.612 40.1882 90.332 39.5402C90.42 39.4602 90.476 39.3642 90.5 39.2522L90.632 38.4962C90.64 38.4802 90.644 38.4522 90.644 38.4122C90.644 38.3082 90.584 38.2282 90.464 38.1722C90.24 38.0762 90.032 37.9722 89.84 37.8602C89.648 37.7402 89.5 37.6282 89.396 37.5242C89.38 37.5082 89.356 37.4842 89.324 37.4522C89.292 37.4202 89.276 37.3922 89.276 37.3682C89.276 37.3202 89.3 37.2962 89.348 37.2962C89.364 37.2962 89.42 37.3122 89.516 37.3442C89.668 37.4002 89.86 37.4522 90.092 37.5002C90.332 37.5482 90.484 37.5802 90.548 37.5962C90.564 37.6042 90.592 37.6082 90.632 37.6082C90.752 37.6082 90.824 37.5362 90.848 37.3922C90.92 37.0082 90.956 36.6722 90.956 36.3842C90.956 36.1042 90.912 35.8602 90.824 35.6522C90.736 35.4522 90.64 35.3002 90.536 35.1962C90.488 35.1482 90.464 35.1082 90.464 35.0762C90.464 35.0202 90.508 34.9922 90.596 34.9922C90.684 34.9922 90.792 35.0202 90.92 35.0762C91.048 35.1322 91.168 35.2082 91.28 35.3042C91.568 35.5442 91.712 35.8122 91.712 36.1082C91.712 36.2042 91.696 36.3082 91.664 36.4202C91.632 36.5322 91.58 36.6802 91.508 36.8642C91.436 37.0402 91.364 37.2442 91.292 37.4762C91.284 37.5002 91.28 37.5362 91.28 37.5842C91.28 37.6962 91.344 37.7642 91.472 37.7882C91.696 37.8522 91.856 37.9042 91.952 37.9442C92.104 38.0082 92.216 38.1002 92.288 38.2202C92.368 38.3402 92.408 38.4562 92.408 38.5682C92.408 38.6642 92.376 38.7442 92.312 38.8082C92.248 38.8722 92.176 38.9082 92.096 38.9162C91.728 38.9482 91.372 39.0602 91.028 39.2522C90.924 39.3242 90.86 39.4162 90.836 39.5282C90.74 40.0642 90.668 40.6482 90.62 41.2802L90.608 41.3762C90.608 41.4722 90.644 41.5282 90.716 41.5442C90.948 41.5762 91.248 41.5922 91.616 41.5922C91.84 41.5922 92.016 41.6202 92.144 41.6762C92.272 41.7322 92.336 41.8442 92.336 42.0122C92.336 42.1562 92.272 42.2482 92.144 42.2882C92.024 42.3282 91.884 42.3482 91.724 42.3482C91.484 42.3482 91.192 42.3202 90.848 42.2642C90.816 42.2562 90.772 42.2522 90.716 42.2522C90.62 42.2522 90.572 42.2762 90.572 42.3242C90.572 43.1482 90.688 43.7842 90.92 44.2322C91.16 44.6802 91.624 44.9042 92.312 44.9042C92.664 44.9042 92.984 44.8282 93.272 44.6762C93.56 44.5162 93.788 44.2882 93.956 43.9922C94.132 43.6962 94.22 43.3522 94.22 42.9602C94.22 42.4402 94.024 41.9002 93.632 41.3402C93.24 40.7722 92.74 40.2842 92.132 39.8762C92.036 39.8122 91.988 39.7602 91.988 39.7202C91.988 39.6962 92.008 39.6842 92.048 39.6842C92.104 39.6842 92.172 39.7042 92.252 39.7442ZM91.064 38.4242L91.04 38.5202C91.032 38.5522 91.028 38.5962 91.028 38.6522C91.028 38.7402 91.044 38.8042 91.076 38.8442C91.108 38.8842 91.148 38.8882 91.196 38.8562C91.324 38.7442 91.388 38.6642 91.388 38.6162C91.388 38.5842 91.364 38.5562 91.316 38.5322C91.268 38.5002 91.22 38.4802 91.172 38.4722C91.132 38.4562 91.104 38.4442 91.088 38.4362L91.064 38.4242ZM89.684 40.9442C89.684 41.1042 89.768 41.2282 89.936 41.3162C89.984 41.3402 90.024 41.3522 90.056 41.3522C90.168 41.3522 90.232 41.2762 90.248 41.1242C90.264 40.9002 90.296 40.6122 90.344 40.2602C90.36 40.1482 90.32 40.0922 90.224 40.0922C90.12 40.0922 90.012 40.1762 89.9 40.3442C89.756 40.5682 89.684 40.7682 89.684 40.9442Z" fill="#421D12"/>
<path d="M82.2193 36.2885C82.4913 36.2885 82.7433 36.3645 82.9753 36.5165C83.2153 36.6605 83.3353 36.8365 83.3353 37.0445C83.3353 37.1325 83.3073 37.2005 83.2513 37.2485C83.2033 37.2885 83.1393 37.3085 83.0593 37.3085C82.8913 37.3085 82.6673 37.2805 82.3873 37.2245C82.3313 37.2165 82.2233 37.2005 82.0633 37.1765C81.9033 37.1525 81.7713 37.1405 81.6673 37.1405C81.4273 37.1405 81.1953 37.1725 80.9713 37.2365C80.7553 37.2925 80.5993 37.3445 80.5033 37.3925C80.1753 37.5685 79.8793 37.9205 79.6153 38.4485C79.3593 38.9765 79.1593 39.5605 79.0153 40.2005C78.8793 40.8405 78.8113 41.4005 78.8113 41.8805C78.8113 42.6885 78.9473 43.2565 79.2193 43.5845C79.4993 43.9045 79.9193 44.0645 80.4793 44.0645L80.8153 44.0405C81.0553 44.0085 81.2393 43.9925 81.3673 43.9925C81.9433 43.9925 82.2313 44.1325 82.2313 44.4125C82.2313 44.6205 82.0673 44.7605 81.7393 44.8325C81.4193 44.8965 81.0953 44.9285 80.7673 44.9285C80.1033 44.9285 79.5793 44.8205 79.1953 44.6045C78.8193 44.3885 78.5513 44.0605 78.3913 43.6205C78.2313 43.1805 78.1513 42.6045 78.1513 41.8925C78.1513 41.0925 78.2913 40.3285 78.5713 39.6005C78.8513 38.8645 79.2153 38.2285 79.6633 37.6925C79.9113 37.4285 80.0193 37.3045 79.9873 37.3205L79.9393 37.3325C79.7153 37.3805 79.3953 37.4885 78.9793 37.6565C78.5713 37.8165 78.0473 38.0325 77.4073 38.3045L76.8913 38.5205C76.8273 38.5525 76.6873 38.6245 76.4713 38.7365C76.3193 38.8165 76.1993 38.8765 76.1113 38.9165C76.0233 38.9565 75.9313 38.9765 75.8353 38.9765C75.6353 38.9765 75.4193 38.8845 75.1873 38.7005C74.9633 38.5165 74.7913 38.3325 74.6713 38.1485C74.6313 38.0925 74.6113 38.0445 74.6113 38.0045C74.6113 37.9725 74.6233 37.9445 74.6473 37.9205C74.6713 37.8965 74.6993 37.8845 74.7313 37.8845C74.7793 37.8845 74.8313 37.9005 74.8873 37.9325C74.9033 37.9405 74.9713 37.9805 75.0913 38.0525C75.2113 38.1165 75.3593 38.1485 75.5353 38.1485C75.5753 38.1485 75.6433 38.1405 75.7393 38.1245C75.7633 38.1165 76.0073 38.0365 76.4713 37.8845C77.3673 37.5805 78.1873 37.3205 78.9313 37.1045C79.6833 36.8805 80.3753 36.7285 81.0073 36.6485C81.1273 36.6325 81.2433 36.6045 81.3553 36.5645C81.4673 36.5165 81.5393 36.4845 81.5713 36.4685C81.8113 36.3485 82.0273 36.2885 82.2193 36.2885ZM85.4593 36.1565C85.3873 36.1565 85.3113 36.1325 85.2313 36.0845C85.1593 36.0285 85.0993 35.9485 85.0513 35.8445C84.9553 35.6365 84.8513 35.4725 84.7393 35.3525C84.6353 35.2245 84.4873 35.1005 84.2953 34.9805C84.2473 34.9485 84.1953 34.9205 84.1393 34.8965C84.0913 34.8645 84.0473 34.8365 84.0073 34.8125C83.9753 34.7805 83.9593 34.7485 83.9593 34.7165C83.9593 34.6685 84.0073 34.6445 84.1033 34.6445C84.2793 34.6445 84.5033 34.6925 84.7753 34.7885C85.0553 34.8765 85.2993 35.0085 85.5073 35.1845C85.7233 35.3525 85.8313 35.5525 85.8313 35.7845C85.8313 35.9205 85.7913 36.0165 85.7113 36.0725C85.6393 36.1285 85.5553 36.1565 85.4593 36.1565ZM84.1393 36.9365C84.0593 36.9365 83.9753 36.9125 83.8873 36.8645C83.7993 36.8085 83.7353 36.7205 83.6953 36.6005C83.6153 36.3685 83.5153 36.1725 83.3953 36.0125C83.2833 35.8445 83.1313 35.7005 82.9393 35.5805C82.9153 35.5645 82.8753 35.5405 82.8193 35.5085C82.7713 35.4765 82.7353 35.4485 82.7113 35.4245C82.6873 35.4005 82.6753 35.3765 82.6753 35.3525C82.6753 35.2965 82.7153 35.2685 82.7953 35.2685C82.8833 35.2685 83.0713 35.3165 83.3593 35.4125C83.6553 35.5085 83.9233 35.6485 84.1633 35.8325C84.4113 36.0165 84.5353 36.2445 84.5353 36.5165C84.5353 36.6525 84.4953 36.7565 84.4153 36.8285C84.3353 36.9005 84.2433 36.9365 84.1393 36.9365Z" fill="#421D12"/>
<path d="M67.4115 38.9758C67.4115 39.1358 67.4875 39.2318 67.6395 39.2638C68.4235 39.4398 69.1155 39.6958 69.7155 40.0318C70.3235 40.3678 70.6275 40.7558 70.6275 41.1958C70.6275 41.3318 70.5915 41.4438 70.5195 41.5318C70.4555 41.6198 70.3715 41.6638 70.2675 41.6638C70.0515 41.6638 69.7675 41.4478 69.4155 41.0158C68.9435 40.4158 68.3755 39.9358 67.7115 39.5758C67.6475 39.5438 67.5875 39.5278 67.5315 39.5278C67.4515 39.5278 67.4115 39.5638 67.4115 39.6358L67.3995 41.6038C67.3995 42.9558 67.4195 43.7358 67.4595 43.9438C67.4675 43.9998 67.4915 44.1278 67.5315 44.3278C67.5715 44.5198 67.5915 44.6718 67.5915 44.7838C67.5915 44.9438 67.5395 45.0838 67.4355 45.2038C67.3315 45.3318 67.2355 45.3958 67.1475 45.3958C67.0355 45.3958 66.9275 45.3038 66.8235 45.1198C66.7275 44.9438 66.6475 44.7438 66.5835 44.5198C66.5195 44.2878 66.4875 44.1278 66.4875 44.0398C66.4875 43.9918 66.5035 43.8958 66.5355 43.7518C66.5675 43.5998 66.5915 43.4038 66.6075 43.1638L66.6435 42.1918C66.6595 41.9518 66.6715 41.7198 66.6795 41.4958C66.6875 41.2638 66.6955 41.0478 66.7035 40.8478C66.7275 40.3118 66.7395 39.4958 66.7395 38.3998C66.7395 37.5198 66.7235 36.9398 66.6915 36.6598C66.6675 36.4918 66.6195 36.3638 66.5475 36.2758C66.4755 36.1798 66.4035 36.1078 66.3315 36.0598C66.2675 36.0038 66.2235 35.9678 66.1995 35.9518C66.1355 35.9038 66.1035 35.8638 66.1035 35.8318C66.1035 35.7358 66.1795 35.6718 66.3315 35.6398C66.4835 35.6078 66.6275 35.5918 66.7635 35.5918C67.0355 35.5918 67.2595 35.6798 67.4355 35.8558C67.5235 35.9438 67.5675 36.0478 67.5675 36.1678C67.5675 36.2238 67.5635 36.2718 67.5555 36.3118C67.5475 36.3518 67.5395 36.3878 67.5315 36.4198C67.5235 36.4598 67.5035 36.5718 67.4715 36.7558C67.4475 36.9398 67.4355 37.1438 67.4355 37.3678C67.4355 37.4238 67.4315 37.6078 67.4235 37.9198C67.4155 38.2318 67.4115 38.5838 67.4115 38.9758Z" fill="#421D12"/>
<path d="M55.8915 40.6569C55.7955 40.6569 55.7115 40.6129 55.6395 40.5249C55.5675 40.4369 55.5155 40.3089 55.4835 40.1409C55.4355 39.9089 55.3715 39.7129 55.2915 39.5529C55.2195 39.3929 55.0635 39.1929 54.8235 38.9529C54.7515 38.8809 54.7155 38.8249 54.7155 38.7849C54.7155 38.7369 54.7475 38.7129 54.8115 38.7129C54.9555 38.7129 55.1515 38.7809 55.3995 38.9169C55.6475 39.0449 55.8635 39.2169 56.0475 39.4329C56.2315 39.6489 56.3235 39.8769 56.3235 40.1169C56.3235 40.2689 56.2835 40.3969 56.2035 40.5009C56.1235 40.6049 56.0195 40.6569 55.8915 40.6569ZM53.1075 45.3249C53.0675 45.3249 53.0355 45.3169 53.0115 45.3009C52.9875 45.2849 52.9755 45.2689 52.9755 45.2529C52.9755 45.2049 53.0515 45.1569 53.2035 45.1089C53.9555 44.8769 54.6715 44.4809 55.3515 43.9209C56.0315 43.3609 56.6075 42.7329 57.0795 42.0369C57.5515 41.3329 57.8635 40.6649 58.0155 40.0329C58.0635 39.8249 58.0875 39.6569 58.0875 39.5289C58.0875 39.3449 58.0235 39.2009 57.8955 39.0969C57.8635 39.0729 57.8195 39.0449 57.7635 39.0129C57.7155 38.9729 57.6915 38.9409 57.6915 38.9169C57.6915 38.8769 57.7115 38.8449 57.7515 38.8209C57.7915 38.7969 57.8355 38.7849 57.8835 38.7849C58.0115 38.7849 58.1515 38.8049 58.3035 38.8449C58.4955 38.9009 58.6795 39.0369 58.8555 39.2529C59.0315 39.4609 59.1195 39.6729 59.1195 39.8889C59.1195 39.9529 59.1075 40.0049 59.0835 40.0449C59.0595 40.0849 59.0195 40.1329 58.9635 40.1889C58.9155 40.2369 58.8795 40.2809 58.8555 40.3209C58.8315 40.3529 58.8075 40.3929 58.7835 40.4409C58.7675 40.4809 58.7475 40.5249 58.7235 40.5729C58.4195 41.1649 58.0635 41.7569 57.6555 42.3489C57.2555 42.9329 56.6875 43.5209 55.9515 44.1129C55.2235 44.6969 54.3635 45.0889 53.3715 45.2889C53.2755 45.3129 53.1875 45.3249 53.1075 45.3249ZM54.1275 41.7489C53.8955 41.7489 53.7395 41.5849 53.6595 41.2569C53.6515 41.2169 53.6315 41.1209 53.5995 40.9689C53.5755 40.8169 53.5115 40.6609 53.4075 40.5009C53.3035 40.3409 53.1595 40.2009 52.9755 40.0809C52.8955 40.0249 52.8555 39.9769 52.8555 39.9369C52.8555 39.8729 52.8995 39.8409 52.9875 39.8409C53.0755 39.8409 53.2435 39.8969 53.4915 40.0089C53.7395 40.1209 53.9635 40.2809 54.1635 40.4889C54.3715 40.6889 54.4755 40.9289 54.4755 41.2089C54.4755 41.3449 54.4475 41.4689 54.3915 41.5809C54.3355 41.6929 54.2475 41.7489 54.1275 41.7489Z" fill="#421D12"/>
<path d="M46.4836 37.8008C46.5556 37.8008 46.6796 37.8688 46.8556 38.0048C47.0316 38.1328 47.1916 38.2768 47.3356 38.4368C47.4796 38.5888 47.5516 38.7008 47.5516 38.7728C47.5516 38.8288 47.5276 38.8848 47.4796 38.9408C47.4396 38.9968 47.3716 39.0688 47.2756 39.1568C47.2596 39.1728 47.2196 39.2088 47.1556 39.2648C47.0996 39.3208 47.0516 39.3768 47.0116 39.4328C46.9796 39.4888 46.9596 39.5408 46.9516 39.5888L46.3756 41.9888C46.3676 42.0048 46.3636 42.0288 46.3636 42.0608C46.3636 42.1648 46.4316 42.2408 46.5676 42.2888C46.7916 42.3688 46.9036 42.4928 46.9036 42.6608C46.9036 42.7888 46.7876 42.8528 46.5556 42.8528C46.4276 42.8528 46.2556 42.8408 46.0396 42.8168C45.6236 42.7848 45.2876 42.7688 45.0316 42.7688C44.1276 42.7688 43.2436 42.8168 42.3796 42.9128C42.2276 42.9208 42.1516 42.9568 42.1516 43.0208V43.1048C42.1516 43.4888 42.0756 43.6808 41.9236 43.6808C41.4916 43.6808 41.2756 43.2968 41.2756 42.5288V42.1928C41.2756 41.9128 41.2276 41.3528 41.1316 40.5128C41.0436 39.6728 40.9436 39.1208 40.8316 38.8568C40.7676 38.7048 40.6956 38.5888 40.6156 38.5088C40.5356 38.4208 40.4236 38.3528 40.2796 38.3048C40.2316 38.2888 40.1836 38.2768 40.1356 38.2688C40.0956 38.2528 40.0636 38.2408 40.0396 38.2328C40.0236 38.2168 40.0156 38.2008 40.0156 38.1848C40.0156 38.1368 40.0956 38.0848 40.2556 38.0288C40.3356 38.0048 40.4396 37.9928 40.5676 37.9928C40.7756 37.9928 40.9596 38.0248 41.1196 38.0888C41.2796 38.1528 41.4476 38.2768 41.6236 38.4608C41.6556 38.4928 41.7316 38.5048 41.8516 38.4968L42.5716 38.4368C44.4596 38.2848 45.4716 38.1848 45.6076 38.1368C45.6796 38.1128 45.7396 38.0888 45.7876 38.0648C45.8436 38.0328 45.8916 38.0088 45.9316 37.9928C46.0516 37.9288 46.1516 37.8808 46.2316 37.8488C46.3116 37.8168 46.3956 37.8008 46.4836 37.8008ZM42.0676 42.1808C42.0756 42.3488 42.1676 42.4248 42.3436 42.4088C43.2556 42.3368 44.2476 42.2648 45.3196 42.1928C45.4636 42.1848 45.5516 42.1088 45.5836 41.9648C45.6876 41.5088 45.8036 40.8928 45.9316 40.1168C46.0676 39.3328 46.1356 38.9088 46.1356 38.8448C46.1356 38.7808 46.1076 38.7368 46.0516 38.7128C45.9956 38.6808 45.8956 38.6648 45.7516 38.6648C45.4556 38.6808 44.8756 38.7248 44.0116 38.7968C43.1476 38.8608 42.4596 38.9288 41.9476 39.0008C41.8036 39.0248 41.7316 39.1048 41.7316 39.2408C41.7316 39.2808 41.7396 39.3648 41.7556 39.4928C41.8436 40.0928 41.9476 40.9888 42.0676 42.1808Z" fill="#421D12"/>
<path d="M31.6407 37.4993C31.6407 36.7153 31.6047 35.9993 31.5327 35.3513V35.3033C31.5327 35.2473 31.5487 35.2033 31.5807 35.1713C31.6127 35.1313 31.6567 35.1113 31.7127 35.1113C31.7367 35.1113 31.7727 35.1193 31.8207 35.1353C32.4527 35.3353 32.7687 35.4793 32.7687 35.5673C32.7687 35.5993 32.7327 35.6353 32.6607 35.6753L32.6247 35.6993C32.5127 35.7633 32.4567 35.8633 32.4567 35.9993V44.6393C32.4567 44.8873 32.4287 45.0873 32.3727 45.2393C32.3167 45.3993 32.2007 45.5313 32.0247 45.6353C31.8567 45.7473 31.6047 45.8313 31.2687 45.8873H31.2087C31.0887 45.8873 31.0087 45.8193 30.9687 45.6833C30.9047 45.5073 30.8127 45.3753 30.6927 45.2873C30.4767 45.1433 30.1327 45.0353 29.6607 44.9633C29.5007 44.9393 29.4207 44.8953 29.4207 44.8313C29.4207 44.7833 29.4847 44.7593 29.6127 44.7593C29.6927 44.7593 30.0407 44.7793 30.6567 44.8193L31.3167 44.8553C31.4447 44.8553 31.5287 44.8353 31.5687 44.7953C31.6167 44.7553 31.6407 44.6793 31.6407 44.5673V37.4993ZM28.9647 38.2433C28.9807 38.1073 29.0447 38.0393 29.1567 38.0393C29.2047 38.0393 29.2447 38.0473 29.2767 38.0633L29.7567 38.2793C30.1167 38.3833 30.2967 38.4673 30.2967 38.5313C30.2967 38.5713 30.2487 38.6033 30.1527 38.6273L30.1167 38.6393C29.9807 38.6793 29.8927 38.7553 29.8527 38.8673C29.5407 39.6353 29.1447 40.3873 28.6647 41.1233C28.1847 41.8593 27.6247 42.4913 26.9847 43.0193C26.8567 43.1233 26.7727 43.1513 26.7327 43.1033C26.7247 43.0953 26.7207 43.0793 26.7207 43.0553C26.7207 42.9993 26.7567 42.9313 26.8287 42.8513C27.4127 42.1393 27.9287 41.2713 28.3767 40.2473C28.5207 39.9273 28.6447 39.5913 28.7487 39.2393C28.8527 38.8793 28.9247 38.5473 28.9647 38.2433ZM33.9567 38.4113C33.8447 38.2753 33.8127 38.1873 33.8607 38.1473C33.8687 38.1393 33.8847 38.1353 33.9087 38.1353C33.9647 38.1353 34.0327 38.1633 34.1127 38.2193C34.8167 38.6993 35.3927 39.1953 35.8407 39.7073C36.2887 40.2113 36.6087 40.6833 36.8007 41.1233C37.0007 41.5553 37.1007 41.9353 37.1007 42.2633C37.1007 42.4793 37.0607 42.6513 36.9807 42.7793C36.9087 42.8993 36.8127 42.9593 36.6927 42.9593C36.6367 42.9593 36.5687 42.9393 36.4887 42.8993C36.4007 42.8433 36.3447 42.7553 36.3207 42.6353C36.2087 41.9873 35.9247 41.2793 35.4687 40.5113C35.0207 39.7353 34.5167 39.0353 33.9567 38.4113Z" fill="#421D12"/>
<path d="M152.306 73.4404C152.399 73.4404 152.446 73.5337 152.446 73.7204C152.446 73.9071 152.399 74.0004 152.306 74.0004H146.086C145.992 74.0004 145.946 73.9071 145.946 73.7204C145.946 73.5337 145.992 73.4404 146.086 73.4404C147.086 73.4404 147.586 73.2404 147.586 72.8404C147.586 72.6537 147.472 72.4071 147.246 72.1004L143.146 67.1004C143.052 66.9937 142.952 66.9404 142.846 66.9404C142.739 66.9404 142.639 66.9871 142.546 67.0804C142.306 67.3337 142.066 67.5737 141.826 67.8004C141.826 67.8004 141.719 67.9071 141.506 68.1204C141.359 68.2671 141.286 68.4404 141.286 68.6404V72.0804C141.286 72.6004 141.426 72.9604 141.706 73.1604C141.986 73.3471 142.406 73.4404 142.966 73.4404H143.286C143.379 73.4404 143.426 73.5337 143.426 73.7204C143.426 73.9071 143.379 74.0004 143.286 74.0004H137.326C137.232 74.0004 137.186 73.9071 137.186 73.7204C137.186 73.6271 137.192 73.5604 137.206 73.5204C137.232 73.4671 137.272 73.4404 137.326 73.4404H137.626C138.199 73.4404 138.626 73.3471 138.906 73.1604C139.186 72.9604 139.326 72.6004 139.326 72.0804V61.3204C139.326 60.7871 139.186 60.4271 138.906 60.2404C138.626 60.0404 138.199 59.9404 137.626 59.9404H137.326C137.232 59.9404 137.186 59.8537 137.186 59.6804C137.186 59.4937 137.232 59.4004 137.326 59.4004H143.286C143.352 59.4004 143.392 59.4271 143.406 59.4804C143.432 59.5204 143.446 59.5871 143.446 59.6804C143.446 59.8537 143.392 59.9404 143.286 59.9404H142.966C142.392 59.9404 141.966 60.0404 141.686 60.2404C141.419 60.4404 141.286 60.8004 141.286 61.3204V66.5604C141.286 66.6671 141.306 66.7537 141.346 66.8204C141.399 66.8871 141.459 66.9204 141.526 66.9204C141.606 66.9204 141.699 66.8671 141.806 66.7604C142.739 65.8404 143.726 64.8471 144.766 63.7804C145.806 62.7004 146.572 61.9004 147.066 61.3804C147.266 61.1404 147.366 60.9271 147.366 60.7404C147.366 60.5004 147.239 60.3071 146.986 60.1604C146.732 60.0137 146.379 59.9404 145.926 59.9404C145.832 59.9404 145.786 59.8471 145.786 59.6604C145.786 59.4871 145.832 59.4004 145.926 59.4004H151.346C151.412 59.4004 151.452 59.4204 151.466 59.4604C151.492 59.5004 151.506 59.5671 151.506 59.6604C151.506 59.8471 151.452 59.9404 151.346 59.9404C150.319 59.9404 149.326 60.3937 148.366 61.3004C148.206 61.4471 146.939 62.7071 144.566 65.0804C144.459 65.1737 144.406 65.2804 144.406 65.4004C144.406 65.5071 144.439 65.5937 144.506 65.6604C147.146 68.9404 148.786 70.9671 149.426 71.7404C149.986 72.3937 150.452 72.8404 150.826 73.0804C151.212 73.3204 151.706 73.4404 152.306 73.4404Z" fill="#421D12"/>
<path d="M127.921 74.2807C126.854 74.2807 125.801 73.994 124.761 73.4207C123.734 72.834 122.887 71.974 122.221 70.8407C121.554 69.694 121.221 68.3274 121.221 66.7407C121.221 65.1674 121.554 63.814 122.221 62.6807C122.887 61.534 123.734 60.674 124.761 60.1007C125.801 59.514 126.854 59.2207 127.921 59.2207C128.987 59.2207 130.034 59.514 131.061 60.1007C132.087 60.674 132.934 61.534 133.601 62.6807C134.267 63.814 134.601 65.1674 134.601 66.7407C134.601 68.3274 134.267 69.694 133.601 70.8407C132.934 71.974 132.087 72.834 131.061 73.4207C130.034 73.994 128.987 74.2807 127.921 74.2807ZM127.921 73.6207C128.721 73.6207 129.461 73.3674 130.141 72.8607C130.834 72.3407 131.387 71.5607 131.801 70.5207C132.227 69.4807 132.441 68.2207 132.441 66.7407C132.441 65.2607 132.227 64.0074 131.801 62.9807C131.387 61.954 130.834 61.1807 130.141 60.6607C129.461 60.1407 128.721 59.8807 127.921 59.8807C127.121 59.8807 126.381 60.1407 125.701 60.6607C125.021 61.1674 124.467 61.9407 124.041 62.9807C123.627 64.0074 123.421 65.2607 123.421 66.7407C123.421 68.2207 123.627 69.4807 124.041 70.5207C124.467 71.5607 125.021 72.3407 125.701 72.8607C126.381 73.3674 127.121 73.6207 127.921 73.6207Z" fill="#421D12"/>
<path d="M115.16 61.0207C115.374 61.0207 115.54 60.934 115.66 60.7607L115.98 60.2807C116.034 60.2007 116.107 60.094 116.2 59.9607C116.307 59.814 116.387 59.7074 116.44 59.6407C116.507 59.574 116.567 59.5407 116.62 59.5407C116.727 59.5407 117 59.7274 117.44 60.1007C117.894 60.4607 118.22 60.7674 118.42 61.0207C118.487 61.114 118.52 61.194 118.52 61.2607C118.52 61.3407 118.48 61.414 118.4 61.4807C118.294 61.5474 118.167 61.5807 118.02 61.5807H115.34C115.1 61.5807 114.94 61.7007 114.86 61.9407C114.087 64.994 112.78 67.574 110.94 69.6807C110.86 69.774 110.82 69.874 110.82 69.9807C110.82 70.074 110.874 70.174 110.98 70.2807C113.034 71.9207 115.507 73.1407 118.4 73.9407C118.68 74.0074 118.807 74.0807 118.78 74.1607C118.767 74.214 118.647 74.274 118.42 74.3407C117.94 74.4874 117.567 74.8007 117.3 75.2807C117.22 75.454 117.1 75.5407 116.94 75.5407C116.9 75.5407 116.84 75.5274 116.76 75.5007C114.134 74.5274 111.887 73.1007 110.02 71.2207C109.914 71.114 109.814 71.0607 109.72 71.0607C109.654 71.0607 109.56 71.1074 109.44 71.2007C107.32 73.0807 104.647 74.5007 101.42 75.4607C101.3 75.5007 101.2 75.5207 101.12 75.5207C101.04 75.5207 100.994 75.494 100.98 75.4407V75.4007C100.98 75.3607 101.007 75.314 101.06 75.2607C101.127 75.2207 101.214 75.1807 101.32 75.1407C104.347 73.8874 106.794 72.254 108.66 70.2407C108.754 70.1474 108.8 70.0474 108.8 69.9407C108.8 69.8474 108.76 69.754 108.68 69.6607C107.547 68.1674 106.667 66.4474 106.04 64.5007C105.974 64.314 105.887 64.2207 105.78 64.2207C105.687 64.2207 105.6 64.3007 105.52 64.4607L104.6 66.2407C104.507 66.4007 104.48 66.5407 104.52 66.6607L104.54 66.8207C104.46 66.8607 104.374 66.8807 104.28 66.8807C104.174 66.8807 104.087 66.8407 104.02 66.7607L103.28 65.9207C103.2 65.814 103.16 65.7207 103.16 65.6407C103.16 65.5207 103.22 65.4207 103.34 65.3407C104.3 64.5407 105.014 63.894 105.48 63.4007C105.6 63.254 105.68 63.094 105.72 62.9207L105.82 62.4607C105.86 62.2474 105.974 62.1407 106.16 62.1407C106.2 62.1407 106.26 62.154 106.34 62.1807C106.527 62.2474 106.62 62.3474 106.62 62.4807C106.62 62.5474 106.587 62.634 106.52 62.7407L106.28 63.0607C106.2 63.1807 106.16 63.3007 106.16 63.4207C106.16 63.4474 106.174 63.514 106.2 63.6207C106.88 65.5407 107.92 67.254 109.32 68.7607C109.414 68.854 109.514 68.9007 109.62 68.9007C109.727 68.9007 109.827 68.8407 109.92 68.7207C111.36 66.734 112.367 64.5074 112.94 62.0407L112.96 61.9207C112.96 61.814 112.92 61.734 112.84 61.6807C112.774 61.614 112.68 61.5807 112.56 61.5807H104.34C103.5 61.594 102.62 61.6674 101.7 61.8007H101.6C101.4 61.8007 101.254 61.714 101.16 61.5407L101.08 61.4007C101.04 61.3207 101.02 61.2407 101.02 61.1607C101.02 61.0807 101.054 61.0207 101.12 60.9807C101.187 60.9274 101.28 60.9074 101.4 60.9207C101.854 60.9607 102.54 60.994 103.46 61.0207H108.52C108.8 61.0207 108.94 60.8807 108.94 60.6007C108.914 59.4674 108.854 58.474 108.76 57.6207V57.5807C108.76 57.3407 108.867 57.2207 109.08 57.2207C109.147 57.2207 109.2 57.2274 109.24 57.2407C110.427 57.5474 111.02 57.7874 111.02 57.9607C111.02 58.0274 110.96 58.094 110.84 58.1607L110.78 58.2007C110.594 58.3207 110.5 58.4874 110.5 58.7007V60.6007C110.5 60.734 110.534 60.8407 110.6 60.9207C110.68 60.9874 110.787 61.0207 110.92 61.0207H115.16Z" fill="#421D12"/>
<path d="M91.4006 61.0402C91.2273 60.9736 91.1073 60.8336 91.0406 60.6202C90.8673 60.1269 90.6006 59.6202 90.2406 59.1002C89.8806 58.5669 89.4806 58.0869 89.0406 57.6602C88.814 57.4469 88.734 57.3202 88.8006 57.2802C88.8273 57.2536 88.8806 57.2402 88.9606 57.2402C89.0673 57.2402 89.154 57.2536 89.2206 57.2802C90.3673 57.5602 91.2073 57.9669 91.7406 58.5002C92.2873 59.0336 92.5606 59.5669 92.5606 60.1002C92.5606 60.3936 92.4806 60.6336 92.3206 60.8202C92.174 61.0069 91.974 61.1002 91.7206 61.1002C91.614 61.1002 91.5073 61.0802 91.4006 61.0402ZM84.2406 60.6202C84.1473 60.5936 84.074 60.5536 84.0206 60.5002C83.9673 60.4336 83.9206 60.3469 83.8806 60.2402C83.7206 59.8669 83.4806 59.4802 83.1606 59.0802C82.8406 58.6802 82.5073 58.3269 82.1606 58.0202C82.054 57.9402 81.974 57.8669 81.9206 57.8002C81.8806 57.7336 81.874 57.6869 81.9006 57.6602C81.9406 57.6202 82.0073 57.6002 82.1006 57.6002C82.1806 57.6002 82.2473 57.6069 82.3006 57.6202C83.3273 57.7802 84.0873 58.0736 84.5806 58.5002C85.074 58.9136 85.3206 59.3469 85.3206 59.8002C85.3206 60.0402 85.2406 60.2469 85.0806 60.4202C84.934 60.5802 84.7473 60.6602 84.5206 60.6602C84.4673 60.6602 84.374 60.6469 84.2406 60.6202ZM96.5806 72.9202C96.6873 72.9202 96.9406 73.0936 97.3406 73.4402C97.754 73.7869 98.0473 74.0802 98.2206 74.3202C98.2873 74.4136 98.3206 74.4936 98.3206 74.5602C98.3206 74.6536 98.2806 74.7269 98.2006 74.7802C98.1073 74.8469 97.9873 74.8802 97.8406 74.8802H88.4406C87.6273 74.8936 86.7473 74.9669 85.8006 75.1002H85.6806C85.494 75.1002 85.3606 75.0136 85.2806 74.8402L85.2006 74.6602C85.1606 74.5802 85.1406 74.5002 85.1406 74.4202C85.1406 74.2336 85.2673 74.1536 85.5206 74.1802C85.974 74.2202 86.6673 74.2536 87.6006 74.2802H90.4006C90.534 74.2802 90.634 74.2402 90.7006 74.1602C90.7806 74.0936 90.8206 73.9936 90.8206 73.8602V68.3602C90.8206 68.2269 90.7806 68.1269 90.7006 68.0602C90.634 67.9802 90.534 67.9402 90.4006 67.9402H89.3406C88.6073 67.9536 87.8073 68.0269 86.9406 68.1602H86.8206C86.634 68.1602 86.5006 68.0736 86.4206 67.9002L86.3406 67.7402C86.3006 67.6602 86.2806 67.5802 86.2806 67.5002C86.2806 67.4202 86.314 67.3602 86.3806 67.3202C86.4473 67.2669 86.5406 67.2469 86.6606 67.2602C87.114 67.3002 87.8006 67.3336 88.7206 67.3602H90.4006C90.534 67.3602 90.634 67.3269 90.7006 67.2602C90.7806 67.1802 90.8206 67.0736 90.8206 66.9402V62.5802C90.8206 62.4469 90.7806 62.3469 90.7006 62.2802C90.634 62.2002 90.534 62.1602 90.4006 62.1602H89.3006C88.5673 62.1736 87.7673 62.2469 86.9006 62.3802H86.7806C86.594 62.3802 86.4606 62.2936 86.3806 62.1202C86.3406 62.0136 86.274 61.9602 86.1806 61.9602C86.0606 61.9602 85.9606 62.0736 85.8806 62.3002L85.5206 63.4002C84.5073 66.5602 83.934 68.4002 83.8006 68.9202C83.5873 69.6802 83.4806 70.2869 83.4806 70.7402C83.4806 70.9536 83.514 71.1869 83.5806 71.4402C83.6606 71.6802 83.7073 71.8269 83.7206 71.8802C83.8406 72.2802 83.9273 72.6536 83.9806 73.0002C84.0473 73.3336 84.074 73.7202 84.0606 74.1602C84.034 74.6136 83.914 74.9669 83.7006 75.2202C83.4873 75.4869 83.2006 75.6202 82.8406 75.6202C82.494 75.6202 82.2606 75.3736 82.1406 74.8802C82.1273 74.8136 82.1206 74.7269 82.1206 74.6202C82.1206 74.5136 82.1273 74.4269 82.1406 74.3602C82.2206 73.6936 82.2606 73.0869 82.2606 72.5402C82.2606 72.0336 82.2273 71.6202 82.1606 71.3002C82.094 70.9669 81.994 70.7602 81.8606 70.6802C81.6873 70.5602 81.494 70.4736 81.2806 70.4202C81.014 70.3802 80.8806 70.2936 80.8806 70.1602C80.8806 70.0136 81.0206 69.9402 81.3006 69.9402H81.7606C81.8806 69.9402 81.9673 69.9202 82.0206 69.8802C82.0873 69.8402 82.1673 69.7202 82.2606 69.5202C82.434 69.1869 82.714 68.5669 83.1006 67.6602C83.5006 66.7402 84.1873 65.1136 85.1606 62.7802L85.9406 60.9002C86.0473 60.6469 86.1473 60.5202 86.2406 60.5202C86.3206 60.5202 86.3606 60.5869 86.3606 60.7202C86.3606 60.8269 86.3473 60.9136 86.3206 60.9802L86.2806 61.1602C86.2806 61.3469 86.4006 61.4536 86.6406 61.4802C87.094 61.5202 87.7806 61.5536 88.7006 61.5802H95.0006C95.214 61.5802 95.3806 61.4869 95.5006 61.3002L95.7606 60.9202C95.814 60.8402 95.8806 60.7402 95.9606 60.6202C96.054 60.4869 96.1273 60.3936 96.1806 60.3402C96.234 60.2736 96.2873 60.2402 96.3406 60.2402C96.434 60.2402 96.6806 60.4136 97.0806 60.7602C97.4806 61.0936 97.774 61.3736 97.9606 61.6002C98.0273 61.6936 98.0606 61.7736 98.0606 61.8402C98.0606 61.9202 98.0206 61.9936 97.9406 62.0602C97.8473 62.1269 97.7273 62.1602 97.5806 62.1602H92.8006C92.6673 62.1602 92.5606 62.2002 92.4806 62.2802C92.414 62.3469 92.3806 62.4469 92.3806 62.5802V66.9402C92.3806 67.0736 92.414 67.1802 92.4806 67.2602C92.5606 67.3269 92.6673 67.3602 92.8006 67.3602H94.5806C94.794 67.3602 94.9606 67.2736 95.0806 67.1002L95.3406 66.7202C95.394 66.6536 95.4606 66.5602 95.5406 66.4402C95.634 66.3202 95.7073 66.2336 95.7606 66.1802C95.814 66.1136 95.8673 66.0802 95.9206 66.0802C96.0273 66.0802 96.2673 66.2469 96.6406 66.5802C97.0273 66.9002 97.3073 67.1736 97.4806 67.4002C97.5473 67.4936 97.5806 67.5736 97.5806 67.6402C97.5806 67.7069 97.5473 67.7736 97.4806 67.8402C97.374 67.9069 97.2406 67.9402 97.0806 67.9402H92.8006C92.6673 67.9402 92.5606 67.9802 92.4806 68.0602C92.414 68.1269 92.3806 68.2269 92.3806 68.3602V73.8602C92.3806 73.9936 92.414 74.0936 92.4806 74.1602C92.5606 74.2402 92.6673 74.2802 92.8006 74.2802H95.2206C95.434 74.2802 95.6006 74.1869 95.7206 74.0002L95.9806 73.6002C96.0206 73.5469 96.0873 73.4536 96.1806 73.3202C96.274 73.1869 96.3473 73.0869 96.4006 73.0202C96.4673 72.9536 96.5273 72.9202 96.5806 72.9202ZM82.7806 64.8202C82.6873 64.7936 82.614 64.7536 82.5606 64.7002C82.5073 64.6336 82.4606 64.5402 82.4206 64.4202C82.2606 64.0736 82.034 63.7202 81.7406 63.3602C81.4473 63.0002 81.134 62.6869 80.8006 62.4202C80.574 62.2202 80.4873 62.0936 80.5406 62.0402C80.5806 62.0002 80.6473 61.9802 80.7406 61.9802C80.8206 61.9802 80.8873 61.9869 80.9406 62.0002C81.914 62.1336 82.634 62.3936 83.1006 62.7802C83.5806 63.1669 83.8206 63.5802 83.8206 64.0202C83.8206 64.2602 83.7473 64.4602 83.6006 64.6202C83.4673 64.7802 83.2873 64.8602 83.0606 64.8602C83.0073 64.8602 82.914 64.8469 82.7806 64.8202Z" fill="#421D12"/>
<path d="M66.0208 74.7602C65.8474 74.7602 65.7608 74.7202 65.7608 74.6402C65.7608 74.5735 65.7874 74.5268 65.8408 74.5002C65.9074 74.4735 65.9741 74.4535 66.0408 74.4402C66.1208 74.4268 66.1741 74.4202 66.2008 74.4202C68.3074 74.0735 69.8941 73.4935 70.9608 72.6802C72.0408 71.8535 72.5808 70.8135 72.5808 69.5602C72.5808 68.8402 72.4141 68.2668 72.0808 67.8402C71.7608 67.4002 71.3008 67.1802 70.7008 67.1802C70.0741 67.1802 69.5208 67.4268 69.0408 67.9202C68.5608 68.4002 68.0274 69.1335 67.4408 70.1202C67.3208 70.3468 67.1408 70.5402 66.9008 70.7002C66.6608 70.8602 66.4541 70.9402 66.2808 70.9402C65.6408 70.9402 65.1474 70.7468 64.8008 70.3602C64.4674 69.9735 64.3008 69.4202 64.3008 68.7002C64.3008 68.2735 64.3274 67.6402 64.3808 66.8002C64.4474 65.9602 64.4941 65.3668 64.5208 65.0202C64.6008 64.2735 64.6408 63.7535 64.6408 63.4602C64.6408 63.2602 64.6208 63.0668 64.5808 62.8802C64.5541 62.6935 64.5408 62.5535 64.5408 62.4602C64.5408 62.1802 64.6208 61.9468 64.7808 61.7602C64.9408 61.5602 65.1941 61.3335 65.5408 61.0802C65.8208 60.8668 66.3208 60.5935 67.0408 60.2602C67.4141 60.1002 67.6741 59.9802 67.8208 59.9002C67.9808 59.8068 68.0608 59.7068 68.0608 59.6002C68.0608 59.4535 67.9408 59.2735 67.7008 59.0602C67.4608 58.8468 67.1874 58.6535 66.8808 58.4802C66.8408 58.4535 66.7808 58.4268 66.7008 58.4002C66.6341 58.3602 66.6008 58.3202 66.6008 58.2802C66.6008 58.2402 66.6808 58.2135 66.8408 58.2002C67.0008 58.1735 67.1341 58.1602 67.2408 58.1602C67.8141 58.1602 68.3208 58.2735 68.7608 58.5002C69.2008 58.7135 69.5808 59.0935 69.9008 59.6402C70.0341 59.8668 70.1008 60.1002 70.1008 60.3402C70.1008 60.6068 70.0208 60.8335 69.8608 61.0202C69.7008 61.2068 69.5208 61.3002 69.3208 61.3002C69.2141 61.3002 69.1141 61.2802 69.0208 61.2402C68.9274 61.1868 68.8341 61.1268 68.7408 61.0602C68.5541 60.9402 68.3874 60.8468 68.2408 60.7802C68.0941 60.7135 67.9074 60.6802 67.6808 60.6802C67.1474 60.6802 66.5874 60.8735 66.0008 61.2602C65.8541 61.3402 65.7408 61.4602 65.6608 61.6202C65.5808 61.7668 65.5408 61.9068 65.5408 62.0402C65.5408 62.1468 65.5608 62.2535 65.6008 62.3602C65.6541 62.4535 65.6874 62.5135 65.7008 62.5402C65.8608 62.8335 65.9408 63.1068 65.9408 63.3602C65.9408 63.5335 65.8941 63.9735 65.8008 64.6802C65.6141 65.8802 65.5208 66.7802 65.5208 67.3802C65.5208 67.7402 65.5674 68.0868 65.6608 68.4202C65.7674 68.7402 65.9074 68.9002 66.0808 68.9002C66.2674 68.9002 66.6608 68.6802 67.2608 68.2402C67.9408 67.7468 68.5674 67.3535 69.1408 67.0602C69.7274 66.7668 70.3474 66.6202 71.0008 66.6202C71.5874 66.6202 72.1341 66.7802 72.6408 67.1002C73.1474 67.4068 73.5474 67.8268 73.8408 68.3602C74.1341 68.8802 74.2808 69.4402 74.2808 70.0402C74.2808 70.6535 74.1274 71.2468 73.8208 71.8202C73.5141 72.3802 72.7808 72.9335 71.6208 73.4802C70.4741 74.0268 68.7541 74.4402 66.4608 74.7202C66.2874 74.7468 66.1408 74.7602 66.0208 74.7602Z" fill="#421D12"/>
<path d="M48.6202 63.0206C50.2202 63.0206 51.0202 64.0806 51.0202 66.2006C51.0202 66.734 50.9402 67.4473 50.7802 68.3406C50.6335 69.234 50.4002 70.114 50.0802 70.9806C49.7602 71.8473 49.3735 72.514 48.9202 72.9806C48.6935 73.2206 48.4468 73.4206 48.1802 73.5806C47.9268 73.7273 47.7068 73.8006 47.5202 73.8006C47.1335 73.8006 46.8268 73.4806 46.6002 72.8406C46.4268 72.334 46.1002 71.7673 45.6202 71.1406C45.4868 70.954 45.4202 70.834 45.4202 70.7806C45.4202 70.754 45.4402 70.7406 45.4802 70.7406C45.5335 70.7406 45.6602 70.8073 45.8602 70.9406C46.0602 71.0606 46.2135 71.1473 46.3202 71.2006C46.4135 71.254 46.5402 71.334 46.7002 71.4406C46.8735 71.5473 47.0202 71.6273 47.1402 71.6806C47.2602 71.734 47.3735 71.7606 47.4802 71.7606C47.9202 71.7606 48.3135 71.394 48.6602 70.6606C49.0202 69.9273 49.2935 69.0806 49.4802 68.1206C49.6802 67.1473 49.7802 66.3606 49.7802 65.7606C49.7802 65.1206 49.6868 64.6406 49.5002 64.3206C49.3135 63.9873 49.0068 63.8206 48.5802 63.8206C48.0735 63.8206 47.3935 64.014 46.5402 64.4006C46.3535 64.494 46.2335 64.6406 46.1802 64.8406C45.5535 67.574 44.5868 69.994 43.2802 72.1006C43.0935 72.4206 42.8868 72.674 42.6602 72.8606C42.4335 73.0473 42.2202 73.1406 42.0202 73.1406C41.8335 73.1406 41.6802 73.0806 41.5602 72.9606C41.4402 72.8273 41.3802 72.654 41.3802 72.4406C41.3802 72.014 41.6268 71.4873 42.1202 70.8606C43.3335 69.2473 44.2135 67.574 44.7602 65.8406C44.7868 65.7606 44.8002 65.7006 44.8002 65.6606C44.8002 65.4873 44.7135 65.4006 44.5402 65.4006C44.4868 65.4006 44.4068 65.4206 44.3002 65.4606C43.4468 65.874 42.8602 66.0806 42.5402 66.0806C42.2602 66.0806 41.9735 65.9873 41.6802 65.8006C41.3868 65.6006 41.1402 65.354 40.9402 65.0606C40.7535 64.7673 40.6602 64.474 40.6602 64.1806C40.6602 64.0473 40.6935 63.9806 40.7602 63.9806C40.8135 63.9806 40.8935 64.014 41.0002 64.0806C41.1068 64.134 41.1868 64.174 41.2402 64.2006C41.6135 64.374 42.0268 64.4606 42.4802 64.4606C43.3068 64.4206 44.1268 64.2606 44.9402 63.9806C45.1535 63.9006 45.2802 63.754 45.3202 63.5406C45.4535 62.8206 45.5202 62.2206 45.5202 61.7406C45.5202 61.0473 45.3802 60.534 45.1002 60.2006C44.9802 60.0406 44.8268 59.8806 44.6402 59.7206C44.4668 59.5606 44.3802 59.454 44.3802 59.4006C44.3802 59.3206 44.4468 59.2606 44.5802 59.2206C44.7135 59.1673 44.8868 59.1406 45.1002 59.1406C45.3535 59.1406 45.6202 59.174 45.9002 59.2406C46.1802 59.3073 46.3935 59.4006 46.5402 59.5206C46.8868 59.734 47.0602 60.0273 47.0602 60.4006C47.0602 60.5606 47.0068 60.8673 46.9002 61.3206C46.8202 61.5606 46.7602 61.814 46.7202 62.0806L46.6002 62.8806L46.5802 63.0206C46.5802 63.1273 46.6135 63.2073 46.6802 63.2606C46.7468 63.3006 46.8402 63.3073 46.9602 63.2806C47.5735 63.1073 48.1268 63.0206 48.6202 63.0206ZM52.7802 62.9606C53.8735 62.9873 54.7668 63.1873 55.4602 63.5606C56.1668 63.934 56.6802 64.374 57.0002 64.8806C57.3202 65.374 57.4802 65.8406 57.4802 66.2806C57.4802 66.614 57.4068 66.914 57.2602 67.1806C57.1268 67.434 56.9535 67.634 56.7402 67.7806C56.5268 67.9273 56.3202 68.0006 56.1202 68.0006C56.0002 68.0006 55.8868 67.974 55.7802 67.9206C55.6735 67.854 55.5402 67.7673 55.3802 67.6606C55.0335 67.394 54.3402 67.2006 53.3002 67.0806C53.1135 67.054 53.0202 67.014 53.0202 66.9606C53.0202 66.9073 53.1202 66.8673 53.3202 66.8406L54.1802 66.7406L54.6602 66.6806C55.0602 66.6006 55.3268 66.5206 55.4602 66.4406C55.6068 66.3606 55.6802 66.214 55.6802 66.0006C55.6802 65.374 55.3802 64.8006 54.7802 64.2806C54.1802 63.7473 53.4935 63.374 52.7202 63.1606C52.6002 63.1206 52.5402 63.0806 52.5402 63.0406C52.5402 62.9873 52.6202 62.9606 52.7802 62.9606Z" fill="#421D12"/>
<path d="M34.1012 61.5206C34.3145 61.5206 34.4812 61.4273 34.6012 61.2406L34.8612 60.8606C34.9012 60.8073 34.9678 60.714 35.0612 60.5806C35.1545 60.4473 35.2278 60.3473 35.2812 60.2806C35.3478 60.214 35.4078 60.1806 35.4612 60.1806C35.5678 60.1806 35.8145 60.354 36.2012 60.7006C36.5878 61.034 36.8678 61.3206 37.0412 61.5606C37.1078 61.654 37.1412 61.734 37.1412 61.8006C37.1412 61.8806 37.1012 61.954 37.0212 62.0206C36.9145 62.0873 36.7878 62.1206 36.6412 62.1206H35.3612C35.1078 62.1206 34.9612 62.2473 34.9212 62.5006C34.3878 65.5006 33.4678 67.974 32.1612 69.9206C32.1078 70.014 32.0812 70.1073 32.0812 70.2006C32.0812 70.294 32.1212 70.394 32.2012 70.5006C33.4812 71.9673 35.0345 73.114 36.8612 73.9406C37.0878 74.0473 37.2012 74.1273 37.2012 74.1806C37.2012 74.2206 37.1745 74.254 37.1212 74.2806C37.0812 74.3073 37.0345 74.3273 36.9812 74.3406C36.9278 74.354 36.8812 74.3673 36.8412 74.3806C36.4012 74.5406 36.0612 74.8273 35.8212 75.2406C35.7412 75.414 35.6345 75.5006 35.5012 75.5006C35.4212 75.5006 35.3478 75.474 35.2812 75.4206C33.7478 74.474 32.4545 73.2406 31.4012 71.7206C31.3078 71.5873 31.2078 71.5206 31.1012 71.5206C31.0212 71.5206 30.9278 71.574 30.8212 71.6806C29.3812 73.2273 27.5612 74.4806 25.3612 75.4406C25.2412 75.494 25.1412 75.5206 25.0612 75.5206C24.9945 75.534 24.9478 75.5206 24.9212 75.4806V75.4406C24.9212 75.3606 25.0212 75.2606 25.2212 75.1406C27.3145 73.8873 29.0012 72.3273 30.2812 70.4606C30.3478 70.354 30.3812 70.254 30.3812 70.1606C30.3812 70.0673 30.3545 69.974 30.3012 69.8806C29.5145 68.2806 28.8878 66.4006 28.4212 64.2406C28.3812 64.0406 28.3012 63.9406 28.1812 63.9406C28.0745 63.9406 27.9812 64.0073 27.9012 64.1406C27.4212 64.8473 26.9212 65.4606 26.4012 65.9806C26.2278 66.154 26.0945 66.2073 26.0012 66.1406C25.9612 66.1006 25.9412 66.0606 25.9412 66.0206C25.9412 65.9673 25.9878 65.8606 26.0812 65.7006C26.8012 64.5006 27.4212 63.0806 27.9412 61.4406C28.1145 60.8806 28.2678 60.2273 28.4012 59.4806C28.5478 58.734 28.6345 58.074 28.6612 57.5006C28.6612 57.2606 28.7745 57.1406 29.0012 57.1406C29.0678 57.1406 29.1212 57.1473 29.1612 57.1606C30.3878 57.494 31.0012 57.7406 31.0012 57.9006C31.0012 57.954 30.9412 58.0073 30.8212 58.0606L30.7412 58.1006C30.5545 58.2073 30.4345 58.354 30.3812 58.5406C30.1278 59.4606 29.8412 60.294 29.5212 61.0406C29.4945 61.1206 29.4812 61.1806 29.4812 61.2206C29.4812 61.314 29.5145 61.3873 29.5812 61.4406C29.6478 61.494 29.7412 61.5206 29.8612 61.5206H34.1012ZM24.2412 61.8606C24.4278 61.8606 24.5812 61.7673 24.7012 61.5806L24.9012 61.2406C24.9545 61.1606 25.0145 61.0673 25.0812 60.9606C25.1612 60.8406 25.2278 60.754 25.2812 60.7006C25.3345 60.6473 25.3878 60.6206 25.4412 60.6206C25.5478 60.6206 25.7745 60.774 26.1212 61.0806C26.4812 61.3873 26.7412 61.654 26.9012 61.8806C26.9678 61.974 27.0012 62.054 27.0012 62.1206C27.0012 62.2006 26.9612 62.274 26.8812 62.3406C26.7745 62.4073 26.6478 62.4406 26.5012 62.4406H24.3612C24.2278 62.4406 24.1212 62.4806 24.0412 62.5606C23.9745 62.6273 23.9412 62.7273 23.9412 62.8606V64.5206L23.9612 64.8606C24.8812 65.2606 25.5545 65.714 25.9812 66.2206C26.4212 66.7273 26.6412 67.2006 26.6412 67.6406C26.6412 67.894 26.5745 68.1073 26.4412 68.2806C26.3078 68.4406 26.1345 68.5206 25.9212 68.5206C25.8145 68.5206 25.6812 68.4873 25.5212 68.4206C25.3878 68.3273 25.2878 68.174 25.2212 67.9606C25.1012 67.4806 24.8478 66.874 24.4612 66.1406C24.3812 65.994 24.2878 65.9206 24.1812 65.9206C24.1145 65.9206 24.0545 65.954 24.0012 66.0206C23.9612 66.0873 23.9412 66.1806 23.9412 66.3006V70.2806C23.9678 71.734 24.0145 73.2006 24.0812 74.6806V74.7806C24.0812 74.954 24.0212 75.094 23.9012 75.2006C23.7545 75.3073 23.5745 75.4006 23.3612 75.4806C23.1612 75.5606 22.9545 75.6006 22.7412 75.6006C22.5945 75.6006 22.4678 75.5606 22.3612 75.4806C22.2678 75.4006 22.2212 75.3073 22.2212 75.2006C22.2745 74.414 22.3212 73.654 22.3612 72.9206C22.4012 72.174 22.4278 71.2006 22.4412 70.0006V67.6006C22.4412 67.3606 22.3745 67.2406 22.2412 67.2406C22.1345 67.2406 22.0412 67.3206 21.9612 67.4806C21.2812 68.7073 20.5078 69.774 19.6412 70.6806C19.4545 70.8806 19.3212 70.9406 19.2412 70.8606C19.2145 70.834 19.2012 70.794 19.2012 70.7406C19.2012 70.6606 19.2412 70.554 19.3212 70.4206C20.5478 68.4873 21.4812 65.9806 22.1212 62.9006V62.8006C22.1212 62.694 22.0878 62.6073 22.0212 62.5406C21.9545 62.474 21.8612 62.4406 21.7412 62.4406H21.3012C20.9012 62.454 20.5212 62.514 20.1612 62.6206C20.1212 62.634 20.0678 62.6406 20.0012 62.6406C19.8145 62.6406 19.6812 62.554 19.6012 62.3806L19.5412 62.2406C19.5012 62.1606 19.4812 62.0873 19.4812 62.0206C19.4812 61.9273 19.5145 61.8606 19.5812 61.8206C19.6478 61.7673 19.7412 61.7473 19.8612 61.7606C20.2212 61.8006 20.7478 61.834 21.4412 61.8606H22.0212C22.1545 61.8606 22.2545 61.8273 22.3212 61.7606C22.4012 61.6806 22.4412 61.574 22.4412 61.4406V61.2206C22.4412 59.9006 22.3812 58.7073 22.2612 57.6406V57.5606C22.2612 57.3473 22.3678 57.2406 22.5812 57.2406C22.6478 57.2406 22.7012 57.2473 22.7412 57.2606C23.3812 57.4473 23.8278 57.6006 24.0812 57.7206C24.3345 57.8273 24.4612 57.9206 24.4612 58.0006C24.4612 58.0673 24.4012 58.134 24.2812 58.2006L24.2212 58.2406C24.0345 58.3606 23.9412 58.5273 23.9412 58.7406V61.4406C23.9412 61.7206 24.0412 61.8606 24.2412 61.8606ZM33.1412 62.4806C33.1412 62.2406 33.0145 62.1206 32.7612 62.1206H29.3812C29.1678 62.1206 29.0012 62.2206 28.8812 62.4206L28.7012 62.7806C28.6345 62.914 28.6012 63.0273 28.6012 63.1206C28.6012 63.1606 28.6145 63.234 28.6412 63.3406C29.1612 65.354 29.8812 67.1006 30.8012 68.5806C30.8945 68.7273 31.0012 68.8006 31.1212 68.8006C31.2412 68.8006 31.3278 68.734 31.3812 68.6006C32.2478 66.8406 32.8345 64.8273 33.1412 62.5606V62.4806Z" fill="#421D12"/>
<path d="M9.24742 74C9.19409 74 9.15409 73.98 9.12742 73.94C9.11409 73.8867 9.10742 73.8133 9.10742 73.72C9.10742 73.6267 9.11409 73.56 9.12742 73.52C9.15409 73.4667 9.19409 73.44 9.24742 73.44H9.54742C11.0674 73.44 11.8274 72.9867 11.8274 72.08V62.78C11.8274 62.34 11.7808 62.0333 11.6874 61.86C11.6074 61.6867 11.4274 61.58 11.1474 61.54C10.8808 61.4867 10.4008 61.46 9.70742 61.46H9.26742C9.17409 61.46 9.12742 61.3667 9.12742 61.18C9.12742 60.9933 9.17409 60.9 9.26742 60.9C10.7874 60.8467 12.1074 60.42 13.2274 59.62C13.3341 59.54 13.4208 59.5 13.4874 59.5C13.5541 59.5 13.6074 59.5333 13.6474 59.6C13.7008 59.6667 13.7274 59.7533 13.7274 59.86V72.08C13.7274 72.9867 14.4941 73.44 16.0274 73.44H16.3074C16.3608 73.44 16.3941 73.4667 16.4074 73.52C16.4341 73.56 16.4474 73.6267 16.4474 73.72C16.4474 73.9067 16.4008 74 16.3074 74H9.24742Z" fill="#421D12"/>
</svg>
