<svg width="160" height="111" viewBox="0 0 160 111" fill="none" xmlns="http://www.w3.org/2000/svg">
<path d="M0 6C0 2.68629 2.68629 0 6 0H154C157.314 0 160 2.68629 160 6V105C160 108.314 157.314 111 154 111H6C2.6863 111 0 108.314 0 105V6Z" fill="#F1ECE8"/>
<path d="M114.252 57.37C114.185 57.37 114.132 57.39 114.092 57.43C114.059 57.4633 114.042 57.5133 114.042 57.58V59.08C114.055 59.8 114.079 60.5367 114.112 61.29V61.35C114.112 61.4233 114.085 61.4867 114.032 61.54C113.959 61.6133 113.865 61.6733 113.752 61.72C113.645 61.7667 113.532 61.79 113.412 61.79C113.345 61.79 113.285 61.77 113.232 61.73C113.185 61.69 113.162 61.6433 113.162 61.59C113.189 61.1967 113.212 60.8167 113.232 60.45C113.252 60.0767 113.265 59.59 113.272 58.99V55.09C113.272 54.4433 113.242 53.86 113.182 53.34V53.3C113.182 53.2 113.225 53.15 113.312 53.15C113.352 53.15 113.385 53.1567 113.412 53.17L113.992 53.43C114.085 53.47 114.172 53.49 114.252 53.49H119.702C119.809 53.49 119.892 53.4467 119.952 53.36L120.032 53.25C120.052 53.2233 120.079 53.1867 120.112 53.14C120.145 53.0933 120.172 53.06 120.192 53.04C120.219 53.0133 120.245 53 120.272 53C120.319 53 120.435 53.07 120.622 53.21C120.815 53.3433 120.962 53.4633 121.062 53.57C121.095 53.6167 121.112 53.6533 121.112 53.68C121.112 53.7333 121.082 53.7767 121.022 53.81L120.912 53.87C120.852 53.8967 120.805 53.9267 120.772 53.96C120.745 53.9933 120.732 54.04 120.732 54.1V60.66C120.732 60.8733 120.705 61.0467 120.652 61.18C120.605 61.3133 120.505 61.4233 120.352 61.51C120.199 61.6033 119.972 61.6733 119.672 61.72H119.642C119.529 61.72 119.455 61.66 119.422 61.54C119.382 61.3933 119.305 61.2767 119.192 61.19C119.005 61.07 118.725 60.98 118.352 60.92C118.219 60.9 118.152 60.8633 118.152 60.81C118.152 60.77 118.205 60.75 118.312 60.75C118.359 60.75 118.642 60.7667 119.162 60.8C119.275 60.8067 119.375 60.8133 119.462 60.82C119.555 60.8267 119.632 60.83 119.692 60.83C119.792 60.83 119.862 60.81 119.902 60.77C119.942 60.73 119.962 60.6667 119.962 60.58V57.58C119.962 57.5133 119.942 57.4633 119.902 57.43C119.869 57.39 119.819 57.37 119.752 57.37H114.252ZM116.582 53.98C116.582 53.9133 116.562 53.8633 116.522 53.83C116.489 53.79 116.439 53.77 116.372 53.77H114.252C114.185 53.77 114.132 53.79 114.092 53.83C114.059 53.8633 114.042 53.9133 114.042 53.98V56.87C114.042 56.9367 114.059 56.99 114.092 57.03C114.132 57.0633 114.185 57.08 114.252 57.08H116.372C116.439 57.08 116.489 57.0633 116.522 57.03C116.562 56.99 116.582 56.9367 116.582 56.87V53.98ZM117.562 53.77C117.495 53.77 117.442 53.79 117.402 53.83C117.369 53.8633 117.352 53.9133 117.352 53.98V56.87C117.352 56.9367 117.369 56.99 117.402 57.03C117.442 57.0633 117.495 57.08 117.562 57.08H119.752C119.819 57.08 119.869 57.0633 119.902 57.03C119.942 56.99 119.962 56.9367 119.962 56.87V53.98C119.962 53.9133 119.942 53.8633 119.902 53.83C119.869 53.79 119.819 53.77 119.752 53.77H117.562Z" fill="#421D12"/>
<path d="M104.836 61.3357C103.892 61.3357 102.996 60.9997 102.148 60.3277C101.316 59.6557 100.636 58.6397 100.108 57.2797C99.5958 55.9197 99.3398 54.2637 99.3398 52.3117C99.3398 50.3757 99.5958 48.7277 100.108 47.3677C100.636 45.9917 101.324 44.9677 102.172 44.2957C103.02 43.6077 103.924 43.2637 104.884 43.2637C105.828 43.2637 106.724 43.6077 107.572 44.2957C108.42 44.9677 109.1 45.9917 109.612 47.3677C110.14 48.7277 110.404 50.3757 110.404 52.3117C110.404 54.2637 110.14 55.9197 109.612 57.2797C109.084 58.6237 108.396 59.6397 107.548 60.3277C106.7 60.9997 105.796 61.3357 104.836 61.3357ZM104.884 60.4957C105.844 60.4957 106.596 59.8157 107.14 58.4557C107.684 57.0957 107.956 55.0477 107.956 52.3117C107.956 49.5757 107.684 47.5277 107.14 46.1677C106.596 44.7917 105.844 44.1037 104.884 44.1037C103.908 44.1037 103.14 44.7917 102.58 46.1677C102.036 47.5277 101.764 49.5757 101.764 52.3117C101.764 55.0477 102.036 57.0957 102.58 58.4557C103.14 59.8157 103.908 60.4957 104.884 60.4957Z" fill="#421D12"/>
<path d="M91.0663 61.3357C90.1223 61.3357 89.2263 60.9997 88.3783 60.3277C87.5463 59.6557 86.8663 58.6397 86.3383 57.2797C85.8263 55.9197 85.5703 54.2637 85.5703 52.3117C85.5703 50.3757 85.8263 48.7277 86.3383 47.3677C86.8663 45.9917 87.5543 44.9677 88.4023 44.2957C89.2503 43.6077 90.1543 43.2637 91.1143 43.2637C92.0583 43.2637 92.9543 43.6077 93.8023 44.2957C94.6503 44.9677 95.3303 45.9917 95.8423 47.3677C96.3703 48.7277 96.6343 50.3757 96.6343 52.3117C96.6343 54.2637 96.3703 55.9197 95.8423 57.2797C95.3143 58.6237 94.6263 59.6397 93.7783 60.3277C92.9303 60.9997 92.0263 61.3357 91.0663 61.3357ZM91.1143 60.4957C92.0743 60.4957 92.8263 59.8157 93.3703 58.4557C93.9143 57.0957 94.1863 55.0477 94.1863 52.3117C94.1863 49.5757 93.9143 47.5277 93.3703 46.1677C92.8263 44.7917 92.0743 44.1037 91.1143 44.1037C90.1383 44.1037 89.3703 44.7917 88.8103 46.1677C88.2663 47.5277 87.9943 49.5757 87.9943 52.3117C87.9943 55.0477 88.2663 57.0957 88.8103 58.4557C89.3703 59.8157 90.1383 60.4957 91.1143 60.4957Z" fill="#421D12"/>
<path d="M77.5738 49.7205C78.3098 49.7205 79.0778 49.8965 79.8778 50.2485C80.6938 50.5845 81.3898 51.1765 81.9658 52.0245C82.5578 52.8725 82.8538 53.9925 82.8538 55.3845C82.8538 56.5685 82.5738 57.6165 82.0138 58.5285C81.4538 59.4245 80.7338 60.1205 79.8538 60.6165C78.9738 61.0965 78.0618 61.3365 77.1178 61.3365C76.3018 61.3365 75.5098 61.1925 74.7418 60.9045C73.9898 60.6165 73.3738 60.2005 72.8938 59.6565C72.4138 59.0965 72.1738 58.4325 72.1738 57.6645C72.1738 57.1205 72.3098 56.7285 72.5818 56.4885C72.8538 56.2325 73.1498 56.1045 73.4698 56.1045C73.8538 56.1045 74.1898 56.2005 74.4778 56.3925C74.7658 56.5845 74.9098 56.8965 74.9098 57.3285C74.9098 57.5365 74.8778 57.7205 74.8138 57.8805C74.7498 58.0405 74.7098 58.1365 74.6938 58.1685C74.5658 58.4565 74.5018 58.6725 74.5018 58.8165C74.5018 59.3605 74.7258 59.7845 75.1738 60.0885C75.6218 60.3765 76.1658 60.5205 76.8058 60.5205C77.3978 60.5205 77.9578 60.3285 78.4858 59.9445C79.0298 59.5605 79.4698 58.9925 79.8058 58.2405C80.1578 57.4885 80.3338 56.5845 80.3338 55.5285C80.3338 54.0565 80.0218 52.8965 79.3978 52.0485C78.7738 51.1845 77.9578 50.7525 76.9498 50.7525C75.7818 50.7525 74.7018 51.3925 73.7098 52.6725C73.6138 52.8005 73.5018 52.8805 73.3738 52.9125H73.2778C73.1818 52.9125 73.1178 52.8885 73.0858 52.8405H73.0618C72.8218 52.6965 72.7178 52.4885 72.7498 52.2165L73.1338 43.9605C73.1498 43.6405 73.3258 43.4805 73.6618 43.4805H81.5098C81.6858 43.4805 81.8058 43.5285 81.8698 43.6245C81.9498 43.7205 81.9738 43.8565 81.9418 44.0325L81.7258 45.1125C81.7098 45.2565 81.6458 45.3685 81.5338 45.4485C81.4378 45.5285 81.3178 45.5685 81.1738 45.5685H74.3818C74.0618 45.5685 73.8938 45.7285 73.8778 46.0485L73.6378 50.7525C73.6218 50.9765 73.7018 51.0885 73.8778 51.0885C74.0698 51.0885 74.2618 51.0005 74.4538 50.8245C74.9658 50.4245 75.4698 50.1445 75.9658 49.9845C76.4618 49.8085 76.9978 49.7205 77.5738 49.7205Z" fill="#421D12"/>
<path d="M66.7699 63.7127C66.7219 63.7127 66.6819 63.6887 66.6499 63.6407C66.6179 63.5927 66.6019 63.5527 66.6019 63.5207C66.6019 63.4887 66.6179 63.4567 66.6499 63.4247C66.9699 63.1367 67.2099 62.8567 67.3699 62.5847C67.5459 62.3127 67.6339 62.0727 67.6339 61.8647C67.6339 61.5767 67.5139 61.3767 67.2739 61.2647C66.6499 60.9607 66.3379 60.5367 66.3379 59.9927C66.3379 59.5767 66.4739 59.2327 66.7459 58.9607C67.0339 58.6887 67.3779 58.5527 67.7779 58.5527C68.1619 58.5527 68.4899 58.6967 68.7619 58.9847C69.0499 59.2567 69.1939 59.6087 69.1939 60.0407C69.1939 60.8567 68.9539 61.5847 68.4739 62.2247C68.0099 62.8647 67.4739 63.3527 66.8659 63.6887L66.7699 63.7127Z" fill="#421D12"/>
<path d="M54.2032 60.9996C54.1392 60.9996 54.0912 60.9756 54.0592 60.9276C54.0432 60.8636 54.0352 60.7756 54.0352 60.6636C54.0352 60.5516 54.0432 60.4716 54.0592 60.4236C54.0912 60.3596 54.1392 60.3276 54.2032 60.3276H54.5632C56.3872 60.3276 57.2992 59.7836 57.2992 58.6956V47.5356C57.2992 47.0076 57.2432 46.6396 57.1312 46.4316C57.0352 46.2236 56.8192 46.0956 56.4832 46.0476C56.1632 45.9836 55.5872 45.9516 54.7552 45.9516H54.2272C54.1152 45.9516 54.0592 45.8396 54.0592 45.6156C54.0592 45.3916 54.1152 45.2796 54.2272 45.2796C56.0512 45.2156 57.6352 44.7036 58.9792 43.7436C59.1072 43.6476 59.2112 43.5996 59.2912 43.5996C59.3712 43.5996 59.4352 43.6396 59.4832 43.7196C59.5472 43.7996 59.5792 43.9036 59.5792 44.0316V58.6956C59.5792 59.7836 60.4992 60.3276 62.3392 60.3276H62.6752C62.7392 60.3276 62.7792 60.3596 62.7952 60.4236C62.8272 60.4716 62.8432 60.5516 62.8432 60.6636C62.8432 60.8876 62.7872 60.9996 62.6752 60.9996H54.2032Z" fill="#421D12"/>
<path d="M46.4925 52.8893C46.2858 52.8893 46.0958 52.756 45.9225 52.4893C45.7625 52.236 45.5525 52.0193 45.2925 51.8393C45.0325 51.6526 44.7625 51.5293 44.4825 51.4693C44.3692 51.436 44.3125 51.406 44.3125 51.3793C44.3125 51.346 44.3758 51.3226 44.5025 51.3093C44.6292 51.2893 44.7592 51.2793 44.8925 51.2793C45.1792 51.2793 45.4692 51.3126 45.7625 51.3793C46.0625 51.446 46.3092 51.5526 46.5025 51.6993C46.6358 51.7993 46.7358 51.9126 46.8025 52.0393C46.8758 52.166 46.9125 52.2893 46.9125 52.4093C46.9125 52.5426 46.8758 52.656 46.8025 52.7493C46.7292 52.8426 46.6258 52.8893 46.4925 52.8893ZM44.5425 56.5693C44.5092 56.4226 44.4925 56.3093 44.4925 56.2293C44.4925 56.1293 44.5025 56.046 44.5225 55.9793C44.5492 55.906 44.5725 55.8693 44.5925 55.8693C44.6192 55.8693 44.6525 55.9093 44.6925 55.9893C44.7325 56.0626 44.7892 56.136 44.8625 56.2093C45.0092 56.3693 45.1692 56.4493 45.3425 56.4493C45.5825 56.4493 46.0158 56.2626 46.6425 55.8893C47.2692 55.516 48.0058 54.9793 48.8525 54.2793C49.6992 53.5793 50.5558 52.766 51.4225 51.8393C51.4825 51.766 51.5325 51.7293 51.5725 51.7293C51.5992 51.7293 51.6125 51.7426 51.6125 51.7693C51.6125 51.816 51.5825 51.886 51.5225 51.9793C51.0492 52.6593 50.5058 53.3293 49.8925 53.9893C49.2858 54.6426 48.6958 55.226 48.1225 55.7393C47.5492 56.246 47.0725 56.6293 46.6925 56.8893L46.5125 57.0093C46.4258 57.056 46.3558 57.0993 46.3025 57.1393C46.2558 57.1793 46.1892 57.246 46.1025 57.3393C45.9758 57.4926 45.8292 57.5693 45.6625 57.5693C45.4358 57.5693 45.2058 57.466 44.9725 57.2593C44.7458 57.046 44.6025 56.816 44.5425 56.5693Z" fill="#421D12"/>
<path d="M39.1639 50.4707C39.2706 50.5374 39.3672 50.624 39.4539 50.7307C39.5406 50.8307 39.5839 50.924 39.5839 51.0107C39.5839 51.0574 39.5739 51.0907 39.5539 51.1107C39.5339 51.1307 39.4972 51.154 39.4439 51.1807C39.4372 51.1874 39.4072 51.204 39.3539 51.2307C39.3006 51.2574 39.2506 51.304 39.2039 51.3707C38.8506 51.8574 38.4906 52.3007 38.1239 52.7007C38.0772 52.7474 38.0539 52.794 38.0539 52.8407C38.0539 52.894 38.0906 52.9374 38.1639 52.9707C38.2172 52.9907 38.2906 53.024 38.3839 53.0707C38.4906 53.1307 38.5439 53.2207 38.5439 53.3407C38.5439 53.3874 38.5272 53.4674 38.4939 53.5807C38.4472 53.7874 38.4206 53.9474 38.4139 54.0607V54.2707C38.4072 54.4107 38.4039 54.7174 38.4039 55.1907C38.4039 56.324 38.4239 57.0307 38.4639 57.3107C38.4839 57.4574 38.4939 57.5907 38.4939 57.7107C38.4939 58.0907 38.3772 58.2807 38.1439 58.2807C37.9772 58.2807 37.8472 58.2207 37.7539 58.1007C37.6672 57.9807 37.6239 57.8107 37.6239 57.5907C37.6239 57.3774 37.6272 57.1907 37.6339 57.0307C37.6406 56.864 37.6472 56.7207 37.6539 56.6007C37.6806 56.1207 37.6939 55.7674 37.6939 55.5407L37.6839 53.9807C37.6839 53.794 37.6706 53.644 37.6439 53.5307C37.6239 53.4507 37.5772 53.4107 37.5039 53.4107C37.4506 53.4107 37.4006 53.434 37.3539 53.4807C36.3672 54.394 35.3406 55.0974 34.2739 55.5907C34.1806 55.6307 34.1139 55.6507 34.0739 55.6507C34.0272 55.6507 34.0039 55.6407 34.0039 55.6207C34.0039 55.574 34.0706 55.5074 34.2039 55.4207C35.0506 54.7874 35.7939 54.1507 36.4339 53.5107C37.0739 52.864 37.5639 52.2974 37.9039 51.8107C38.2439 51.3174 38.4139 50.9774 38.4139 50.7907C38.4139 50.6507 38.3672 50.534 38.2739 50.4407C38.2472 50.414 38.2172 50.3874 38.1839 50.3607C38.1506 50.334 38.1339 50.314 38.1339 50.3007C38.1339 50.2474 38.2006 50.2207 38.3339 50.2207C38.6339 50.2207 38.9106 50.304 39.1639 50.4707Z" fill="#421D12"/>
<path d="M30.843 49.7207C31.0297 49.7207 31.2464 49.7574 31.493 49.8307C31.7397 49.8974 31.953 50.0074 32.133 50.1607C32.313 50.3074 32.403 50.4874 32.403 50.7007C32.403 50.8207 32.3664 50.914 32.293 50.9807C32.2197 51.0407 32.143 51.0707 32.063 51.0707C31.8897 51.0707 31.7597 50.974 31.673 50.7807C31.573 50.5874 31.4697 50.434 31.363 50.3207C31.263 50.2074 31.1264 50.1007 30.953 50.0007C30.913 49.974 30.8697 49.9507 30.823 49.9307C30.7764 49.904 30.7364 49.8807 30.703 49.8607C30.6764 49.834 30.663 49.8074 30.663 49.7807C30.663 49.7407 30.723 49.7207 30.843 49.7207ZM30.853 52.4307C30.973 52.4307 31.123 52.4674 31.303 52.5407C31.483 52.614 31.6397 52.7074 31.773 52.8207C31.913 52.9274 31.983 53.0374 31.983 53.1507C31.983 53.2374 31.953 53.294 31.893 53.3207C31.8397 53.3474 31.7597 53.3607 31.653 53.3607C31.533 53.3607 31.3897 53.3474 31.223 53.3207C30.8497 53.2674 30.2964 53.2407 29.563 53.2407H29.113C28.9797 53.254 28.9097 53.3274 28.903 53.4607C28.863 54.4074 28.7264 55.2107 28.493 55.8707C28.2597 56.524 27.9364 57.0674 27.523 57.5007C27.1097 57.9274 26.5897 58.294 25.963 58.6007C25.883 58.634 25.833 58.6507 25.813 58.6507C25.7664 58.6507 25.743 58.634 25.743 58.6007C25.743 58.5607 25.7997 58.504 25.913 58.4307C26.6597 57.9307 27.2097 57.2807 27.563 56.4807C27.9164 55.6807 28.113 54.6874 28.153 53.5007V53.4807C28.153 53.354 28.0897 53.2907 27.963 53.2907C27.903 53.2907 27.8397 53.294 27.773 53.3007C27.7064 53.3074 27.6564 53.314 27.623 53.3207C27.4697 53.334 27.2397 53.3607 26.933 53.4007C26.7997 53.414 26.733 53.4907 26.733 53.6307C26.7397 53.9107 26.753 54.314 26.773 54.8407C26.7797 54.9274 26.783 55.0207 26.783 55.1207C26.783 55.5407 26.673 55.7507 26.453 55.7507C26.3997 55.7507 26.3364 55.7174 26.263 55.6507C26.1964 55.5774 26.1364 55.4807 26.083 55.3607C26.0364 55.2407 26.013 55.104 26.013 54.9507C26.013 54.9107 26.023 54.754 26.043 54.4807C26.0697 54.2007 26.083 53.9607 26.083 53.7607V53.7507C26.083 53.6774 26.0597 53.624 26.013 53.5907C25.973 53.5574 25.9197 53.5474 25.853 53.5607C25.3997 53.634 24.9664 53.714 24.553 53.8007C24.3664 53.8407 24.2364 53.8607 24.163 53.8607C24.043 53.8607 23.903 53.8207 23.743 53.7407C23.583 53.6474 23.4397 53.5174 23.313 53.3507C23.1864 53.1774 23.123 53.044 23.123 52.9507C23.123 52.9107 23.143 52.8907 23.183 52.8907C23.223 52.8907 23.273 52.9074 23.333 52.9407C23.393 52.974 23.433 52.9974 23.453 53.0107C23.5397 53.064 23.6697 53.1107 23.843 53.1507C24.0164 53.184 24.213 53.2007 24.433 53.2007C24.6064 53.2007 25.083 53.1574 25.863 53.0707C25.9897 53.0574 26.053 52.9907 26.053 52.8707C26.053 52.604 26.033 52.3707 25.993 52.1707C25.933 51.8374 25.753 51.6307 25.453 51.5507C25.4064 51.544 25.3597 51.534 25.313 51.5207C25.273 51.5007 25.253 51.4774 25.253 51.4507C25.253 51.4107 25.3064 51.374 25.413 51.3407C25.5197 51.3074 25.6264 51.2907 25.733 51.2907C25.993 51.2907 26.243 51.3407 26.483 51.4407C26.7297 51.534 26.853 51.6474 26.853 51.7807C26.853 51.8207 26.833 51.8874 26.793 51.9807C26.7864 52.0007 26.7764 52.034 26.763 52.0807C26.7497 52.1207 26.7397 52.1607 26.733 52.2007V52.7607C26.733 52.9074 26.8064 52.974 26.953 52.9607L27.613 52.9007L27.963 52.8807C28.0964 52.8674 28.163 52.7974 28.163 52.6707C28.163 52.1174 28.1464 51.7107 28.113 51.4507C28.0797 51.1907 28.0164 50.9974 27.923 50.8707C27.8364 50.7374 27.6764 50.6207 27.443 50.5207C27.3764 50.494 27.343 50.4674 27.343 50.4407C27.343 50.414 27.3697 50.3874 27.423 50.3607C27.5564 50.274 27.6997 50.2307 27.853 50.2307C27.9864 50.2307 28.1564 50.264 28.363 50.3307C28.5697 50.3974 28.7497 50.484 28.903 50.5907C29.0564 50.6974 29.133 50.804 29.133 50.9107C29.133 50.9707 29.1064 51.054 29.053 51.1607C29.0464 51.174 29.0297 51.2107 29.003 51.2707C28.9764 51.3307 28.9564 51.4007 28.943 51.4807C28.9297 51.6007 28.923 51.8307 28.923 52.1707V52.6107C28.923 52.684 28.943 52.7407 28.983 52.7807C29.023 52.814 29.0764 52.8274 29.143 52.8207L29.963 52.7507C30.1364 52.724 30.3064 52.6607 30.473 52.5607C30.533 52.5274 30.5964 52.4974 30.663 52.4707C30.7297 52.444 30.793 52.4307 30.853 52.4307ZM29.963 50.6707C29.923 50.644 29.873 50.614 29.813 50.5807C29.7597 50.5407 29.733 50.5074 29.733 50.4807C29.733 50.454 29.7464 50.4374 29.773 50.4307C29.7997 50.424 29.833 50.4207 29.873 50.4207C29.973 50.4207 30.153 50.4607 30.413 50.5407C30.6797 50.614 30.923 50.7307 31.143 50.8907C31.363 51.0507 31.473 51.254 31.473 51.5007C31.473 51.6407 31.433 51.744 31.353 51.8107C31.2797 51.8707 31.193 51.9007 31.093 51.9007C31.0064 51.9007 30.923 51.8774 30.843 51.8307C30.763 51.7774 30.703 51.6974 30.663 51.5907C30.5897 51.3907 30.4997 51.2174 30.393 51.0707C30.2864 50.924 30.143 50.7907 29.963 50.6707Z" fill="#421D12"/>
<path d="M20.7731 50C20.9531 50 21.1665 50.0367 21.4131 50.11C21.6598 50.1833 21.8731 50.2933 22.0531 50.44C22.2398 50.58 22.3331 50.75 22.3331 50.95C22.3331 51.07 22.2965 51.16 22.2231 51.22C22.1565 51.28 22.0831 51.31 22.0031 51.31C21.8498 51.31 21.7198 51.2233 21.6131 51.05C21.5065 50.8567 21.4031 50.7033 21.3031 50.59C21.2031 50.4767 21.0731 50.37 20.9131 50.27C20.8665 50.2433 20.8198 50.22 20.7731 50.2C20.7265 50.1733 20.6865 50.15 20.6531 50.13C20.6265 50.1033 20.6131 50.08 20.6131 50.06C20.6131 50.02 20.6665 50 20.7731 50ZM16.5431 51.5C16.3631 51.5 16.1965 51.47 16.0431 51.41C15.8898 51.35 15.7698 51.2733 15.6831 51.18C15.5698 51.04 15.5131 50.9433 15.5131 50.89C15.5131 50.8567 15.5331 50.84 15.5731 50.84C15.5998 50.84 15.6465 50.85 15.7131 50.87C15.7798 50.8833 15.8465 50.8967 15.9131 50.91C15.9798 50.9233 16.0598 50.93 16.1531 50.93C16.3198 50.93 16.4865 50.92 16.6531 50.9C16.9931 50.8733 17.2698 50.8333 17.4831 50.78C17.7031 50.7267 17.9165 50.66 18.1231 50.58C18.2098 50.5467 18.2931 50.52 18.3731 50.5C18.4598 50.4733 18.5431 50.46 18.6231 50.46C18.8231 50.46 19.0098 50.5167 19.1831 50.63C19.3631 50.7433 19.4531 50.8633 19.4531 50.99C19.4531 51.1633 19.2831 51.2567 18.9431 51.27L18.4931 51.26C18.2398 51.2667 17.9631 51.2933 17.6631 51.34C17.3698 51.3867 17.1931 51.4133 17.1331 51.42C16.8465 51.4733 16.6498 51.5 16.5431 51.5ZM19.8631 50.67C19.9498 50.67 20.1231 50.7067 20.3831 50.78C20.6498 50.8467 20.8965 50.96 21.1231 51.12C21.3498 51.28 21.4631 51.4867 21.4631 51.74C21.4631 51.8667 21.4231 51.9633 21.3431 52.03C21.2698 52.09 21.1831 52.12 21.0831 52.12C20.9965 52.12 20.9131 52.0967 20.8331 52.05C20.7598 52.0033 20.7031 51.9267 20.6631 51.82C20.5898 51.62 20.4998 51.45 20.3931 51.31C20.2931 51.1633 20.1565 51.0333 19.9831 50.92C19.9631 50.9067 19.9298 50.8867 19.8831 50.86C19.8365 50.8333 19.8031 50.81 19.7831 50.79C19.7631 50.77 19.7531 50.75 19.7531 50.73C19.7531 50.69 19.7898 50.67 19.8631 50.67ZM19.6531 52.27C19.7998 52.27 19.9731 52.2967 20.1731 52.35C20.3798 52.4033 20.5565 52.48 20.7031 52.58C20.8498 52.6733 20.9231 52.7767 20.9231 52.89C20.9231 53.0567 20.8065 53.14 20.5731 53.14L20.2231 53.12C19.8498 53.0933 19.5165 53.08 19.2231 53.08C18.9098 53.08 18.6765 53.0833 18.5231 53.09C18.4165 53.0967 18.3631 53.1233 18.3631 53.17C18.3631 53.21 18.3965 53.2567 18.4631 53.31C18.6298 53.4433 18.7131 53.5633 18.7131 53.67C18.7131 53.7033 18.6998 53.7367 18.6731 53.77C18.6465 53.8033 18.6165 53.8333 18.5831 53.86C18.4831 53.9467 18.4198 54.0267 18.3931 54.1C17.5531 56.32 16.1431 57.82 14.1631 58.6C14.1098 58.62 14.0598 58.63 14.0131 58.63C13.9731 58.63 13.9531 58.62 13.9531 58.6C13.9531 58.5733 14.0031 58.53 14.1031 58.47C15.8831 57.29 17.0465 55.73 17.5931 53.79C17.6131 53.6967 17.6231 53.6167 17.6231 53.55C17.6231 53.45 17.5798 53.3567 17.4931 53.27C17.4265 53.2033 17.3398 53.18 17.2331 53.2C16.9731 53.24 16.7498 53.2867 16.5631 53.34C16.3831 53.3867 16.1865 53.4467 15.9731 53.52C15.9465 53.5267 15.8831 53.5467 15.7831 53.58C15.6898 53.6133 15.6065 53.6367 15.5331 53.65C15.4598 53.6633 15.3898 53.67 15.3231 53.67C15.1831 53.67 15.0331 53.6167 14.8731 53.51C14.7131 53.3967 14.5765 53.2667 14.4631 53.12C14.3565 52.9733 14.3031 52.8533 14.3031 52.76C14.3031 52.7333 14.3098 52.7133 14.3231 52.7C14.3365 52.6867 14.3498 52.68 14.3631 52.68C14.3898 52.68 14.4331 52.6967 14.4931 52.73C14.5531 52.7567 14.6031 52.7767 14.6431 52.79C14.8231 52.8767 15.0931 52.92 15.4531 52.92C15.6598 52.92 16.1998 52.8767 17.0731 52.79C17.9465 52.7033 18.5331 52.6233 18.8331 52.55C19.0731 52.49 19.2731 52.4167 19.4331 52.33C19.5065 52.29 19.5798 52.27 19.6531 52.27Z" fill="#421D12"/>
<path d="M8.33758 58C8.31091 58 8.29091 57.99 8.27758 57.97C8.27091 57.9433 8.26758 57.9067 8.26758 57.86C8.26758 57.8133 8.27091 57.78 8.27758 57.76C8.29091 57.7333 8.31091 57.72 8.33758 57.72H8.48758C9.24758 57.72 9.62758 57.4933 9.62758 57.04V52.39C9.62758 52.17 9.60424 52.0167 9.55758 51.93C9.51758 51.8433 9.42758 51.79 9.28758 51.77C9.15424 51.7433 8.91424 51.73 8.56758 51.73H8.34758C8.30091 51.73 8.27758 51.6833 8.27758 51.59C8.27758 51.4967 8.30091 51.45 8.34758 51.45C9.10758 51.4233 9.76758 51.21 10.3276 50.81C10.3809 50.77 10.4242 50.75 10.4576 50.75C10.4909 50.75 10.5176 50.7667 10.5376 50.8C10.5642 50.8333 10.5776 50.8767 10.5776 50.93V57.04C10.5776 57.4933 10.9609 57.72 11.7276 57.72H11.8676C11.8942 57.72 11.9109 57.7333 11.9176 57.76C11.9309 57.78 11.9376 57.8133 11.9376 57.86C11.9376 57.9533 11.9142 58 11.8676 58H8.33758Z" fill="#421D12"/>
<path d="M101.786 21.9096C101.786 21.7416 101.739 21.6576 101.646 21.6576C101.571 21.6576 101.501 21.7043 101.436 21.7976C100.923 22.4603 100.465 22.9783 100.064 23.3516C99.9799 23.4356 99.9052 23.4776 99.8399 23.4776C99.7839 23.4776 99.7559 23.4543 99.7559 23.4076C99.7559 23.3423 99.7885 23.2583 99.8539 23.1556C100.573 22.0823 101.249 20.7289 101.884 19.0956C102.033 18.7129 102.173 18.2696 102.304 17.7656C102.444 17.2616 102.542 16.8136 102.598 16.4216C102.626 16.2629 102.701 16.1836 102.822 16.1836C102.85 16.1836 102.892 16.1929 102.948 16.2116L104.152 16.6596C104.301 16.7156 104.376 16.7903 104.376 16.8836C104.376 16.9396 104.343 16.9816 104.278 17.0096C104.241 17.0283 104.213 17.0376 104.194 17.0376C104.026 17.0843 103.919 17.1683 103.872 17.2896C103.499 18.2509 103.125 19.0629 102.752 19.7256C102.715 19.7723 102.696 19.8283 102.696 19.8936C102.696 19.9776 102.747 20.0616 102.85 20.1456C103.083 20.3229 103.2 20.4536 103.2 20.5376C103.2 20.5936 103.153 20.6356 103.06 20.6636C102.92 20.7196 102.85 20.8316 102.85 20.9996V25.4096C102.869 26.4269 102.901 27.4536 102.948 28.4896V28.5456C102.948 28.6763 102.901 28.7743 102.808 28.8396C102.537 29.0356 102.267 29.1336 101.996 29.1336C101.893 29.1336 101.805 29.1056 101.73 29.0496C101.665 28.9936 101.632 28.9283 101.632 28.8536C101.669 28.3029 101.702 27.7709 101.73 27.2576C101.758 26.7349 101.777 26.0536 101.786 25.2136V21.9096ZM109.948 20.4116C110.107 20.3929 110.219 20.3183 110.284 20.1876L110.452 19.8796C110.489 19.8236 110.531 19.7489 110.578 19.6556C110.634 19.5623 110.681 19.4923 110.718 19.4456C110.755 19.3989 110.793 19.3756 110.83 19.3756C110.886 19.3756 111.031 19.4409 111.264 19.5716C111.497 19.7023 111.712 19.8423 111.908 19.9916C112.113 20.1409 112.216 20.2483 112.216 20.3136C112.207 20.3789 112.169 20.4349 112.104 20.4816C112.048 20.5283 111.973 20.5609 111.88 20.5796L108.03 21.0416C107.834 21.0696 107.75 21.1816 107.778 21.3776C108.235 24.2429 109.257 26.2216 110.844 27.3136C110.965 27.4163 111.049 27.4676 111.096 27.4676C111.143 27.4676 111.18 27.4489 111.208 27.4116C111.245 27.3649 111.278 27.3089 111.306 27.2436C111.334 27.1783 111.357 27.1316 111.376 27.1036C111.544 26.8049 111.717 26.3989 111.894 25.8856C111.969 25.7176 112.025 25.6383 112.062 25.6476C112.109 25.6569 112.123 25.7549 112.104 25.9416L111.908 27.6216V27.6916C111.908 27.8036 111.941 27.9109 112.006 28.0136C112.202 28.3029 112.3 28.5223 112.3 28.6716V28.7416C112.281 28.8443 112.211 28.9376 112.09 29.0216C111.997 29.0869 111.875 29.1196 111.726 29.1196C111.511 29.1196 111.273 29.0543 111.012 28.9236C110.751 28.8023 110.499 28.6483 110.256 28.4616C108.427 27.0616 107.241 24.7423 106.7 21.5036C106.672 21.2983 106.565 21.2096 106.378 21.2376L103.858 21.5456C103.849 21.5456 103.835 21.5503 103.816 21.5596C103.807 21.5596 103.793 21.5549 103.774 21.5456C103.634 21.5456 103.55 21.4896 103.522 21.3776L103.508 21.3356C103.508 21.2329 103.601 21.1676 103.788 21.1396L106.308 20.8316C106.504 20.8036 106.588 20.6963 106.56 20.5096C106.429 19.3523 106.355 18.0876 106.336 16.7156C106.336 16.5103 106.448 16.4169 106.672 16.4356C107.456 16.5103 107.848 16.6036 107.848 16.7156C107.848 16.7623 107.811 16.8089 107.736 16.8556L107.694 16.8836C107.563 16.9676 107.498 17.0843 107.498 17.2336V17.4436C107.498 18.6103 107.545 19.5903 107.638 20.3836C107.647 20.4769 107.68 20.5516 107.736 20.6076C107.801 20.6543 107.881 20.6683 107.974 20.6496L109.948 20.4116ZM108.744 17.0376C108.679 16.9816 108.627 16.9303 108.59 16.8836C108.562 16.8369 108.557 16.8043 108.576 16.7856C108.595 16.7669 108.632 16.7576 108.688 16.7576C108.763 16.7576 108.823 16.7623 108.87 16.7716C109.551 16.8929 110.051 17.0936 110.368 17.3736C110.695 17.6536 110.858 17.9383 110.858 18.2276C110.858 18.3956 110.807 18.5356 110.704 18.6476C110.601 18.7596 110.475 18.8156 110.326 18.8156C110.279 18.8156 110.219 18.8063 110.144 18.7876C110.069 18.7689 110.013 18.7409 109.976 18.7036C109.939 18.6663 109.906 18.6103 109.878 18.5356C109.663 18.0783 109.285 17.5789 108.744 17.0376Z" fill="#421D12"/>
<path d="M91.4258 20.9864C91.4258 21.1638 91.5145 21.2664 91.6918 21.2944C92.6345 21.4811 93.4558 21.7564 94.1558 22.1204C94.8558 22.4751 95.2058 22.9278 95.2058 23.4784C95.2058 23.6558 95.1591 23.8051 95.0658 23.9264C94.9725 24.0478 94.8558 24.1084 94.7158 24.1084C94.4358 24.1084 94.0951 23.8611 93.6938 23.3664C93.1058 22.6384 92.4665 22.0831 91.7758 21.7004C91.7198 21.6724 91.6731 21.6584 91.6358 21.6584C91.5705 21.6584 91.5191 21.6818 91.4818 21.7284C91.4445 21.7751 91.4258 21.8404 91.4258 21.9244V24.0244C91.4444 25.4991 91.4725 26.3671 91.5098 26.6284C91.6031 27.1138 91.6498 27.4498 91.6498 27.6364C91.6498 27.8884 91.5798 28.0938 91.4398 28.2524C91.3091 28.4111 91.1784 28.4904 91.0478 28.4904C90.8984 28.4904 90.7584 28.3784 90.6278 28.1544C90.4971 27.9304 90.3898 27.6738 90.3058 27.3844C90.2311 27.0951 90.1938 26.8851 90.1938 26.7544C90.1938 26.6518 90.2078 26.5164 90.2358 26.3484C90.2918 25.9844 90.3291 25.6811 90.3478 25.4384C90.3758 25.0931 90.4038 24.4678 90.4318 23.5624C90.4318 23.3758 90.4411 23.0864 90.4598 22.6944C90.4784 22.0971 90.4878 21.2244 90.4878 20.0764C90.4878 19.1618 90.4644 18.5598 90.4178 18.2704C90.3898 18.0558 90.3291 17.8971 90.2358 17.7944C90.1424 17.6918 90.0071 17.5798 89.8298 17.4584C89.7831 17.4304 89.7458 17.4071 89.7178 17.3884C89.6898 17.3698 89.6758 17.3464 89.6758 17.3184C89.6758 17.2064 89.7925 17.1224 90.0258 17.0664C90.2685 17.0104 90.4785 16.9824 90.6558 16.9824C90.9825 16.9824 91.2624 17.0991 91.4958 17.3324C91.6078 17.4444 91.6638 17.5798 91.6638 17.7384C91.6638 17.8224 91.6451 17.9391 91.6078 18.0884C91.5051 18.4991 91.4538 18.9938 91.4538 19.5724L91.4258 20.9864Z" fill="#421D12"/>
<path d="M76.4875 20.8458C76.1982 20.8458 75.9322 20.6591 75.6895 20.2858C75.4655 19.9311 75.1715 19.6278 74.8075 19.3758C74.4435 19.1145 74.0655 18.9418 73.6735 18.8578C73.5149 18.8111 73.4355 18.7691 73.4355 18.7318C73.4355 18.6851 73.5242 18.6525 73.7015 18.6338C73.8789 18.6058 74.0609 18.5918 74.2475 18.5918C74.6489 18.5918 75.0549 18.6385 75.4655 18.7318C75.8855 18.8251 76.2309 18.9745 76.5015 19.1798C76.6882 19.3198 76.8282 19.4785 76.9215 19.6558C77.0242 19.8331 77.0755 20.0058 77.0755 20.1738C77.0755 20.3605 77.0242 20.5191 76.9215 20.6498C76.8189 20.7805 76.6742 20.8458 76.4875 20.8458ZM73.7575 25.9978C73.7109 25.7925 73.6875 25.6338 73.6875 25.5218C73.6875 25.3818 73.7015 25.2651 73.7295 25.1718C73.7669 25.0691 73.7995 25.0178 73.8275 25.0178C73.8649 25.0178 73.9115 25.0738 73.9675 25.1858C74.0235 25.2885 74.1029 25.3911 74.2055 25.4938C74.4109 25.7178 74.6349 25.8298 74.8775 25.8298C75.2135 25.8298 75.8202 25.5685 76.6975 25.0458C77.5749 24.5231 78.6062 23.7718 79.7915 22.7918C80.9769 21.8118 82.1762 20.6731 83.3895 19.3758C83.4735 19.2731 83.5435 19.2218 83.5995 19.2218C83.6369 19.2218 83.6555 19.2405 83.6555 19.2778C83.6555 19.3431 83.6135 19.4411 83.5295 19.5718C82.8669 20.5238 82.1062 21.4618 81.2475 22.3858C80.3982 23.3005 79.5722 24.1171 78.7695 24.8358C77.9669 25.5451 77.2995 26.0818 76.7675 26.4458L76.5155 26.6138C76.3942 26.6791 76.2962 26.7398 76.2215 26.7958C76.1562 26.8518 76.0629 26.9451 75.9415 27.0758C75.7642 27.2905 75.5589 27.3978 75.3255 27.3978C75.0082 27.3978 74.6862 27.2531 74.3595 26.9638C74.0422 26.6651 73.8415 26.3431 73.7575 25.9978Z" fill="#421D12"/>
<path d="M60.6813 28.6854C60.6347 28.6854 60.6113 28.6667 60.6113 28.6294C60.6113 28.5921 60.6907 28.5314 60.8493 28.4474C62.1 27.7661 63.052 27.0194 63.7053 26.2074C64.3587 25.3861 64.7973 24.4947 65.0213 23.5334C65.2547 22.5627 65.3713 21.3961 65.3713 20.0334C65.3713 19.6974 65.3527 19.2587 65.3153 18.7174C65.2967 18.2787 65.18 17.9754 64.9653 17.8074C64.8533 17.7234 64.7507 17.6627 64.6573 17.6254C64.5733 17.5881 64.5127 17.5601 64.4753 17.5414C64.438 17.5227 64.4193 17.4901 64.4193 17.4434C64.4193 17.3687 64.494 17.3081 64.6433 17.2614C64.802 17.2147 64.9747 17.1914 65.1613 17.1914C65.2733 17.1914 65.3947 17.2007 65.5253 17.2194C65.796 17.2941 66.0667 17.4434 66.3373 17.6674C66.6173 17.8821 66.7573 18.0687 66.7573 18.2274C66.7573 18.3114 66.7247 18.4187 66.6593 18.5494C66.622 18.6334 66.5847 18.7267 66.5473 18.8294C66.5193 18.9227 66.5053 19.0161 66.5053 19.1094C66.5053 19.4921 66.496 19.9541 66.4773 20.4954C66.44 21.9421 66.258 23.1601 65.9313 24.1494C65.614 25.1387 65.054 26.0067 64.2513 26.7534C63.458 27.4907 62.338 28.1207 60.8913 28.6434C60.798 28.6714 60.728 28.6854 60.6813 28.6854ZM62.3753 23.9534C62.2447 23.9534 62.1047 23.8554 61.9553 23.6594C61.8153 23.4541 61.7453 23.2161 61.7453 22.9454C61.7453 22.8894 61.764 22.6794 61.8013 22.3154C61.8387 21.9514 61.8573 21.6201 61.8573 21.3214C61.8573 20.4441 61.8153 19.8047 61.7313 19.4034C61.6473 19.0674 61.484 18.8481 61.2413 18.7454C61.1667 18.7174 61.106 18.6894 61.0593 18.6614C61.0127 18.6241 60.9893 18.5867 60.9893 18.5494C60.9893 18.4841 61.0687 18.4094 61.2273 18.3254C61.3953 18.2321 61.5727 18.1854 61.7593 18.1854C61.8807 18.1854 61.9833 18.2041 62.0673 18.2414C62.4127 18.3627 62.6507 18.4887 62.7813 18.6194C62.912 18.7407 62.9773 18.8854 62.9773 19.0534C62.9773 19.1187 62.968 19.1981 62.9493 19.2914C62.9307 19.3754 62.9167 19.4407 62.9073 19.4874C62.87 19.7487 62.8513 20.1921 62.8513 20.8174L62.8653 21.9234C62.8653 21.9607 62.8793 22.1754 62.9073 22.5674C62.926 22.8474 62.9353 23.0387 62.9353 23.1414C62.9353 23.3467 62.884 23.5334 62.7813 23.7014C62.6787 23.8694 62.5433 23.9534 62.3753 23.9534Z" fill="#421D12"/>
<path d="M55.3753 18.9979C55.0019 18.9979 54.6846 18.8719 54.4233 18.6199C54.1619 18.3586 54.0313 18.0412 54.0313 17.6679C54.0313 17.2946 54.1619 16.9819 54.4233 16.7299C54.6846 16.4686 55.0019 16.3379 55.3753 16.3379C55.7486 16.3379 56.0613 16.4686 56.3133 16.7299C56.5746 16.9912 56.7053 17.3039 56.7053 17.6679C56.7053 18.0412 56.5746 18.3586 56.3133 18.6199C56.0519 18.8719 55.7393 18.9979 55.3753 18.9979ZM55.3753 18.6199C55.6366 18.6199 55.8606 18.5266 56.0473 18.3399C56.2339 18.1532 56.3273 17.9292 56.3273 17.6679C56.3273 17.4066 56.2339 17.1826 56.0473 16.9959C55.8606 16.7999 55.6366 16.7019 55.3753 16.7019C55.1139 16.7019 54.8899 16.7999 54.7033 16.9959C54.5166 17.1826 54.4233 17.4066 54.4233 17.6679C54.4233 17.9292 54.5166 18.1532 54.7033 18.3399C54.8899 18.5266 55.1139 18.6199 55.3753 18.6199ZM45.2953 28.1399C45.2299 28.1399 45.1973 28.1166 45.1973 28.0699C45.1973 28.0139 45.2906 27.9346 45.4773 27.8319C47.1573 26.9639 48.5526 25.9559 49.6633 24.8079C50.7833 23.6506 51.6093 22.5819 52.1413 21.6019C52.6733 20.6219 52.9486 19.9686 52.9673 19.6419C52.9673 19.5672 52.9253 19.5299 52.8413 19.5299C52.7573 19.5299 52.3699 19.5766 51.6793 19.6699C50.9979 19.7632 50.2653 19.8846 49.4813 20.0339C48.7066 20.1832 48.0579 20.3372 47.5353 20.4959C47.3299 20.5612 47.1386 20.5939 46.9613 20.5939C46.6719 20.5939 46.4199 20.5099 46.2053 20.3419C46.0373 20.2019 45.8926 20.0106 45.7713 19.7679C45.6499 19.5252 45.5893 19.3292 45.5893 19.1799C45.5893 19.0772 45.6313 19.0259 45.7153 19.0259C45.7993 19.0259 45.9066 19.0632 46.0373 19.1379C46.2426 19.2219 46.4153 19.2779 46.5553 19.3059C46.6953 19.3339 46.8493 19.3479 47.0173 19.3479C47.3066 19.3479 48.1466 19.2919 49.5373 19.1799C50.9373 19.0679 51.7866 18.9699 52.0853 18.8859C52.2533 18.8392 52.4213 18.7739 52.5893 18.6899C52.9253 18.5592 53.1399 18.4939 53.2333 18.4939C53.3359 18.4939 53.5039 18.5686 53.7373 18.7179C53.9706 18.8672 54.1806 19.0399 54.3673 19.2359C54.5539 19.4319 54.6473 19.5952 54.6473 19.7259C54.6473 19.8286 54.6193 19.9219 54.5633 20.0059C54.5073 20.0899 54.4139 20.2019 54.2833 20.3419C54.0406 20.6032 53.8679 20.8319 53.7653 21.0279C53.1399 22.2506 52.4306 23.2912 51.6373 24.1499C50.8439 25.0086 49.9619 25.7366 48.9913 26.3339C48.0206 26.9312 46.8679 27.5099 45.5333 28.0699C45.4213 28.1166 45.3419 28.1399 45.2953 28.1399Z" fill="#421D12"/>
<path d="M113.843 94.4805C113.971 94.4805 114.071 94.4245 114.143 94.3125L114.251 94.1565C114.275 94.1165 114.307 94.0685 114.347 94.0125C114.395 93.9485 114.431 93.9005 114.455 93.8685C114.487 93.8365 114.519 93.8205 114.551 93.8205C114.615 93.8205 114.747 93.9045 114.947 94.0725C115.147 94.2325 115.291 94.3765 115.379 94.5045C115.419 94.5605 115.439 94.6045 115.439 94.6365C115.439 94.6845 115.419 94.7285 115.379 94.7685C115.315 94.8085 115.239 94.8285 115.151 94.8285H113.423C113.343 94.8285 113.279 94.8525 113.231 94.9005C113.191 94.9405 113.171 95.0005 113.171 95.0805V95.4165C113.171 95.5605 113.243 95.6565 113.387 95.7045C114.003 95.9045 114.455 96.1565 114.743 96.4605C115.031 96.7565 115.175 97.0405 115.175 97.3125C115.175 97.4405 115.143 97.5445 115.079 97.6245C115.015 97.7045 114.931 97.7445 114.827 97.7445C114.771 97.7445 114.727 97.7365 114.695 97.7205C114.639 97.7045 114.595 97.6805 114.563 97.6485C114.531 97.6085 114.503 97.5525 114.479 97.4805C114.399 97.2645 114.267 97.0365 114.083 96.7965C113.907 96.5485 113.707 96.3205 113.483 96.1125C113.427 96.0565 113.375 96.0285 113.327 96.0285C113.223 96.0285 113.171 96.1045 113.171 96.2565V97.7445C113.187 98.6085 113.215 99.4925 113.255 100.396V100.468C113.255 100.556 113.223 100.632 113.159 100.696C113.095 100.76 113.011 100.812 112.907 100.852C112.803 100.9 112.699 100.924 112.595 100.924C112.531 100.924 112.471 100.9 112.415 100.852C112.367 100.804 112.343 100.748 112.343 100.684C112.375 100.244 112.399 99.8125 112.415 99.3885C112.439 98.9565 112.455 98.4125 112.463 97.7565V96.7845C112.463 96.6405 112.423 96.5685 112.343 96.5685C112.287 96.5685 112.231 96.6205 112.175 96.7245C111.727 97.5405 111.167 98.2645 110.495 98.8965C110.439 98.9525 110.387 98.9885 110.339 99.0045C110.291 99.0205 110.259 99.0165 110.243 98.9925C110.227 98.9765 110.219 98.9565 110.219 98.9325C110.219 98.8845 110.251 98.8165 110.315 98.7285C111.051 97.7365 111.623 96.5325 112.031 95.1165C112.039 95.0925 112.043 95.0605 112.043 95.0205C112.043 94.8925 111.967 94.8285 111.815 94.8285H111.479C111.191 94.8365 110.903 94.8725 110.615 94.9365C110.591 94.9445 110.559 94.9485 110.519 94.9485C110.423 94.9485 110.347 94.8965 110.291 94.7925L110.243 94.7085C110.219 94.6605 110.207 94.6165 110.207 94.5765C110.207 94.4565 110.287 94.4045 110.447 94.4205C110.719 94.4445 111.131 94.4645 111.683 94.4805H112.211C112.291 94.4805 112.351 94.4605 112.391 94.4205C112.439 94.3725 112.463 94.3085 112.463 94.2285V92.3685C112.463 91.5685 112.427 90.8565 112.355 90.2325V90.1845C112.355 90.0565 112.411 89.9925 112.523 89.9925C112.539 89.9925 112.579 90.0005 112.643 90.0165C112.955 90.1125 113.171 90.1925 113.291 90.2565C113.419 90.3205 113.483 90.3765 113.483 90.4245C113.483 90.4725 113.447 90.5165 113.375 90.5565L113.339 90.5805C113.227 90.6525 113.171 90.7525 113.171 90.8805V94.2285C113.171 94.3085 113.191 94.3725 113.231 94.4205C113.279 94.4605 113.343 94.4805 113.423 94.4805H113.843ZM119.411 96.9645C119.523 96.9645 119.607 96.8925 119.663 96.7485L119.759 96.4965C119.775 96.4565 119.799 96.3965 119.831 96.3165C119.871 96.2285 119.903 96.1645 119.927 96.1245C119.959 96.0765 119.991 96.0525 120.023 96.0525C120.071 96.0525 120.175 96.1005 120.335 96.1965C120.503 96.2925 120.655 96.3965 120.791 96.5085C120.935 96.6205 121.007 96.7045 121.007 96.7605C121.007 96.8245 120.983 96.8805 120.935 96.9285C120.895 96.9765 120.839 97.0085 120.767 97.0245L119.495 97.3125C119.351 97.3445 119.279 97.4365 119.279 97.5885V98.4525C119.303 99.3165 119.327 99.9605 119.351 100.384V100.456C119.351 100.544 119.319 100.62 119.255 100.684C119.191 100.748 119.103 100.804 118.991 100.852C118.887 100.9 118.787 100.924 118.691 100.924C118.619 100.924 118.559 100.9 118.511 100.852C118.463 100.804 118.439 100.748 118.439 100.684C118.487 100.012 118.519 99.3405 118.535 98.6685V97.8165C118.535 97.7285 118.507 97.6645 118.451 97.6245C118.403 97.5845 118.339 97.5725 118.259 97.5885L115.427 98.2245C115.403 98.2325 115.371 98.2365 115.331 98.2365C115.235 98.2365 115.167 98.1965 115.127 98.1165L115.115 98.0685C115.115 98.0285 115.135 97.9925 115.175 97.9605C115.215 97.9285 115.267 97.9085 115.331 97.9005L118.319 97.2165C118.463 97.1765 118.535 97.0845 118.535 96.9405V92.3685C118.535 91.5685 118.499 90.8565 118.427 90.2325V90.1845C118.427 90.0485 118.487 89.9805 118.607 89.9805C118.631 89.9805 118.667 89.9885 118.715 90.0045C119.291 90.1965 119.579 90.3405 119.579 90.4365C119.579 90.4765 119.547 90.5165 119.483 90.5565L119.447 90.5805C119.335 90.6525 119.279 90.7525 119.279 90.8805V96.7125C119.279 96.8805 119.323 96.9645 119.411 96.9645ZM114.131 91.1085C114.147 90.9645 114.207 90.8925 114.311 90.8925C114.359 90.8925 114.399 90.9005 114.431 90.9165L114.707 91.0365C114.787 91.0765 114.887 91.1085 115.007 91.1325C115.223 91.2045 115.331 91.2685 115.331 91.3245C115.331 91.3645 115.291 91.4045 115.211 91.4445L115.175 91.4565C115.071 91.5045 114.991 91.5805 114.935 91.6845C114.559 92.4285 114.219 93.0285 113.915 93.4845C113.827 93.6205 113.751 93.6685 113.687 93.6285C113.631 93.5965 113.615 93.5325 113.639 93.4365L113.687 93.2805C113.783 92.9525 113.871 92.5885 113.951 92.1885C114.039 91.7885 114.099 91.4285 114.131 91.1085ZM110.471 91.2525C110.439 91.1805 110.419 91.1205 110.411 91.0725C110.403 91.0245 110.407 90.9965 110.423 90.9885L110.459 90.9765C110.499 90.9765 110.563 91.0125 110.651 91.0845C111.035 91.3965 111.315 91.7125 111.491 92.0325C111.667 92.3525 111.755 92.6445 111.755 92.9085C111.755 93.0925 111.715 93.2405 111.635 93.3525C111.563 93.4565 111.471 93.5085 111.359 93.5085C111.303 93.5085 111.247 93.4925 111.191 93.4605C111.103 93.4125 111.051 93.3165 111.035 93.1725C110.995 92.6045 110.807 91.9645 110.471 91.2525ZM116.015 91.3605C115.879 91.2485 115.831 91.1725 115.871 91.1325C115.887 91.1165 115.915 91.1085 115.955 91.1085C115.995 91.1085 116.051 91.1205 116.123 91.1445C116.715 91.3205 117.151 91.5485 117.431 91.8285C117.719 92.1085 117.863 92.3805 117.863 92.6445C117.863 92.7725 117.831 92.8765 117.767 92.9565C117.703 93.0285 117.619 93.0645 117.515 93.0645C117.459 93.0645 117.415 93.0565 117.383 93.0405C117.287 93.0085 117.219 92.9365 117.179 92.8245C117.083 92.5925 116.927 92.3445 116.711 92.0805C116.495 91.8165 116.263 91.5765 116.015 91.3605ZM115.739 94.1565C115.603 94.0445 115.551 93.9725 115.583 93.9405C115.607 93.9165 115.639 93.9045 115.679 93.9045L115.835 93.9285C116.467 94.0805 116.931 94.2965 117.227 94.5765C117.523 94.8485 117.671 95.1165 117.671 95.3805C117.671 95.5085 117.639 95.6125 117.575 95.6925C117.511 95.7645 117.427 95.8005 117.323 95.8005C117.275 95.8005 117.235 95.7965 117.203 95.7885C117.115 95.7645 117.043 95.6965 116.987 95.5845C116.875 95.3445 116.703 95.0965 116.471 94.8405C116.247 94.5845 116.003 94.3565 115.739 94.1565Z" fill="#421D12"/>
<path d="M107.173 94.4928C107.301 94.4928 107.401 94.4368 107.473 94.3248L107.593 94.1328C107.625 94.0928 107.661 94.0408 107.701 93.9768C107.749 93.9048 107.789 93.8528 107.821 93.8208C107.853 93.7888 107.885 93.7728 107.917 93.7728C107.965 93.7728 108.065 93.8328 108.217 93.9528C108.369 94.0728 108.509 94.2048 108.637 94.3488C108.773 94.4848 108.841 94.5808 108.841 94.6368C108.833 94.7648 108.737 94.8288 108.553 94.8288H107.077C106.997 94.8288 106.933 94.8528 106.885 94.9008C106.845 94.9408 106.825 95.0008 106.825 95.0808V97.0608C106.825 97.1408 106.845 97.2048 106.885 97.2528C106.933 97.2928 106.997 97.3128 107.077 97.3128H107.125C107.269 97.3128 107.373 97.2568 107.437 97.1448L107.545 96.9528C107.569 96.9208 107.601 96.8728 107.641 96.8088C107.689 96.7368 107.729 96.6848 107.761 96.6528C107.793 96.6128 107.825 96.5928 107.857 96.5928C107.913 96.5928 108.041 96.6808 108.241 96.8568C108.449 97.0328 108.597 97.1888 108.685 97.3248C108.725 97.3808 108.745 97.4288 108.745 97.4688C108.745 97.5168 108.721 97.5608 108.673 97.6008C108.617 97.6328 108.549 97.6488 108.469 97.6488H100.285C99.7967 97.6568 99.2687 97.7008 98.7007 97.7808H98.6287C98.5167 97.7808 98.4367 97.7288 98.3887 97.6248L98.3407 97.5408C98.3167 97.4928 98.3047 97.4448 98.3047 97.3968C98.3047 97.2928 98.3847 97.2488 98.5447 97.2648C98.7447 97.2808 99.0447 97.2968 99.4447 97.3128H99.8047C99.8847 97.3128 99.9447 97.2928 99.9847 97.2528C100.033 97.2048 100.057 97.1408 100.057 97.0608V95.0808C100.057 95.0008 100.033 94.9408 99.9847 94.9008C99.9447 94.8528 99.8847 94.8288 99.8047 94.8288H99.4567C99.1767 94.8368 98.8967 94.8728 98.6167 94.9368C98.5927 94.9448 98.5607 94.9488 98.5207 94.9488C98.4247 94.9488 98.3487 94.8968 98.2927 94.7928L98.2567 94.7208C98.2327 94.6728 98.2207 94.6248 98.2207 94.5768C98.2207 94.5288 98.2407 94.4928 98.2807 94.4688C98.3207 94.4368 98.3767 94.4248 98.4487 94.4328C98.6647 94.4568 98.9927 94.4768 99.4327 94.4928H99.8047C99.8847 94.4928 99.9447 94.4728 99.9847 94.4328C100.033 94.3848 100.057 94.3208 100.057 94.2408V92.7168C100.057 92.6528 100.045 92.6008 100.021 92.5608C99.9967 92.5208 99.9647 92.5008 99.9247 92.5008C99.8687 92.5008 99.8087 92.5328 99.7447 92.5968C99.4087 92.9328 99.0127 93.2488 98.5567 93.5448C98.4287 93.6248 98.3407 93.6408 98.2927 93.5928C98.2767 93.5768 98.2687 93.5608 98.2687 93.5448C98.2687 93.4968 98.3127 93.4288 98.4007 93.3408C98.7527 92.9888 99.0767 92.5968 99.3727 92.1648C99.5647 91.8848 99.7607 91.5448 99.9607 91.1448C100.161 90.7448 100.317 90.3808 100.429 90.0528C100.469 89.9408 100.533 89.8848 100.621 89.8848C100.653 89.8848 100.701 89.8968 100.765 89.9208C101.349 90.2088 101.641 90.4008 101.641 90.4968C101.641 90.5288 101.601 90.5528 101.521 90.5688L101.473 90.5808C101.361 90.6048 101.269 90.6688 101.197 90.7728C101.037 91.0288 100.913 91.2168 100.825 91.3368C100.721 91.4808 100.701 91.5728 100.765 91.6128C100.821 91.6448 100.909 91.6608 101.029 91.6608H106.813C106.941 91.6608 107.041 91.6088 107.113 91.5048L107.257 91.3008C107.281 91.2688 107.317 91.2208 107.365 91.1568C107.413 91.0848 107.453 91.0328 107.485 91.0008C107.525 90.9608 107.561 90.9408 107.593 90.9408C107.657 90.9408 107.793 91.0328 108.001 91.2168C108.217 91.3928 108.373 91.5488 108.469 91.6848C108.509 91.7408 108.529 91.7848 108.529 91.8168C108.529 91.8648 108.509 91.9088 108.469 91.9488C108.405 91.9888 108.329 92.0088 108.241 92.0088H107.077C106.997 92.0088 106.933 92.0328 106.885 92.0808C106.845 92.1208 106.825 92.1808 106.825 92.2608V94.2408C106.825 94.3208 106.845 94.3848 106.885 94.4328C106.933 94.4728 106.997 94.4928 107.077 94.4928H107.173ZM102.013 92.2608C102.013 92.1808 101.989 92.1208 101.941 92.0808C101.901 92.0328 101.841 92.0088 101.761 92.0088H101.005C100.925 92.0088 100.861 92.0328 100.813 92.0808C100.773 92.1208 100.753 92.1808 100.753 92.2608V94.2408C100.753 94.3208 100.773 94.3848 100.813 94.4328C100.861 94.4728 100.925 94.4928 101.005 94.4928H101.761C101.841 94.4928 101.901 94.4728 101.941 94.4328C101.989 94.3848 102.013 94.3208 102.013 94.2408V92.2608ZM103.813 94.4928C103.893 94.4928 103.953 94.4728 103.993 94.4328C104.041 94.3848 104.065 94.3208 104.065 94.2408V92.2608C104.065 92.1808 104.041 92.1208 103.993 92.0808C103.953 92.0328 103.893 92.0088 103.813 92.0088H102.961C102.881 92.0088 102.817 92.0328 102.769 92.0808C102.729 92.1208 102.709 92.1808 102.709 92.2608V94.2408C102.709 94.3208 102.729 94.3848 102.769 94.4328C102.817 94.4728 102.881 94.4928 102.961 94.4928H103.813ZM105.865 94.4928C105.945 94.4928 106.005 94.4728 106.045 94.4328C106.093 94.3848 106.117 94.3208 106.117 94.2408V92.2608C106.117 92.1808 106.093 92.1208 106.045 92.0808C106.005 92.0328 105.945 92.0088 105.865 92.0088H105.037C104.957 92.0088 104.893 92.0328 104.845 92.0808C104.805 92.1208 104.785 92.1808 104.785 92.2608V94.2408C104.785 94.3208 104.805 94.3848 104.845 94.4328C104.893 94.4728 104.957 94.4928 105.037 94.4928H105.865ZM102.013 95.0808C102.013 95.0008 101.989 94.9408 101.941 94.9008C101.901 94.8528 101.841 94.8288 101.761 94.8288H101.005C100.925 94.8288 100.861 94.8528 100.813 94.9008C100.773 94.9408 100.753 95.0008 100.753 95.0808V97.0608C100.753 97.1408 100.773 97.2048 100.813 97.2528C100.861 97.2928 100.925 97.3128 101.005 97.3128H101.761C101.841 97.3128 101.901 97.2928 101.941 97.2528C101.989 97.2048 102.013 97.1408 102.013 97.0608V95.0808ZM103.813 97.3128C103.893 97.3128 103.953 97.2928 103.993 97.2528C104.041 97.2048 104.065 97.1408 104.065 97.0608V95.0808C104.065 95.0008 104.041 94.9408 103.993 94.9008C103.953 94.8528 103.893 94.8288 103.813 94.8288H102.961C102.881 94.8288 102.817 94.8528 102.769 94.9008C102.729 94.9408 102.709 95.0008 102.709 95.0808V97.0608C102.709 97.1408 102.729 97.2048 102.769 97.2528C102.817 97.2928 102.881 97.3128 102.961 97.3128H103.813ZM104.785 97.0608C104.785 97.1408 104.805 97.2048 104.845 97.2528C104.893 97.2928 104.957 97.3128 105.037 97.3128H105.865C105.945 97.3128 106.005 97.2928 106.045 97.2528C106.093 97.2048 106.117 97.1408 106.117 97.0608V95.0808C106.117 95.0008 106.093 94.9408 106.045 94.9008C106.005 94.8528 105.945 94.8288 105.865 94.8288H105.037C104.957 94.8288 104.893 94.8528 104.845 94.9008C104.805 94.9408 104.785 95.0008 104.785 95.0808V97.0608ZM106.189 98.3568C106.053 98.2368 106.005 98.1568 106.045 98.1168C106.077 98.1008 106.101 98.0928 106.117 98.0928C106.133 98.0928 106.197 98.1088 106.309 98.1408C106.861 98.3648 107.309 98.6128 107.653 98.8848C108.005 99.1568 108.257 99.4288 108.409 99.7008C108.569 99.9648 108.649 100.205 108.649 100.421C108.649 100.573 108.613 100.693 108.541 100.781C108.477 100.869 108.389 100.913 108.277 100.913C108.253 100.913 108.201 100.905 108.121 100.889C108.025 100.849 107.957 100.773 107.917 100.661C107.789 100.293 107.561 99.9008 107.233 99.4848C106.913 99.0608 106.565 98.6848 106.189 98.3568ZM99.9847 98.3568C100.009 98.1888 100.049 98.1048 100.105 98.1048C100.169 98.1208 100.213 98.1968 100.237 98.3328C100.253 98.5408 100.261 98.6808 100.261 98.7528C100.261 99.2488 100.161 99.6688 99.9607 100.013C99.7607 100.357 99.5207 100.605 99.2407 100.757C99.0887 100.861 98.9247 100.913 98.7487 100.913C98.6287 100.913 98.5287 100.885 98.4487 100.829C98.3767 100.773 98.3407 100.685 98.3407 100.565C98.3407 100.381 98.4487 100.221 98.6647 100.085C98.9607 99.9568 99.2367 99.7368 99.4927 99.4248C99.7487 99.1128 99.9127 98.7568 99.9847 98.3568ZM103.873 98.5128C103.769 98.3688 103.741 98.2848 103.789 98.2608C103.805 98.2448 103.825 98.2368 103.849 98.2368C103.897 98.2368 103.961 98.2648 104.041 98.3208C104.545 98.6248 104.913 98.9488 105.145 99.2928C105.377 99.6368 105.493 99.9488 105.493 100.229C105.493 100.389 105.457 100.517 105.385 100.613C105.321 100.709 105.237 100.757 105.133 100.757C105.085 100.757 105.029 100.745 104.965 100.721C104.885 100.673 104.829 100.585 104.797 100.457C104.749 100.161 104.637 99.8408 104.461 99.4968C104.293 99.1528 104.097 98.8248 103.873 98.5128ZM101.665 98.5248C101.617 98.3728 101.617 98.2848 101.665 98.2608L101.701 98.2488C101.741 98.2488 101.805 98.2928 101.893 98.3808C102.189 98.6768 102.405 98.9768 102.541 99.2808C102.677 99.5768 102.745 99.8528 102.745 100.109C102.745 100.325 102.701 100.501 102.613 100.637C102.525 100.773 102.421 100.841 102.301 100.841C102.253 100.841 102.189 100.821 102.109 100.781C102.029 100.717 101.989 100.621 101.989 100.493V100.337C101.989 100.049 101.957 99.7448 101.893 99.4248C101.837 99.1048 101.761 98.8048 101.665 98.5248Z" fill="#421D12"/>
<path d="M87.947 94.6719C87.947 94.5999 87.935 94.5479 87.911 94.5159C87.887 94.4759 87.855 94.4559 87.815 94.4559C87.759 94.4559 87.703 94.4959 87.647 94.5759C87.287 95.1039 86.895 95.5839 86.471 96.0159C86.399 96.1039 86.339 96.1479 86.291 96.1479C86.235 96.1479 86.207 96.1199 86.207 96.0639C86.207 96.0079 86.235 95.9399 86.291 95.8599C86.923 94.9159 87.511 93.7599 88.055 92.3919C88.191 92.0639 88.319 91.6879 88.439 91.2639C88.567 90.8319 88.659 90.4519 88.715 90.1239C88.739 89.9879 88.807 89.9199 88.919 89.9199C88.935 89.9199 88.975 89.9279 89.039 89.9439C89.679 90.1839 89.999 90.3479 89.999 90.4359C89.999 90.4679 89.963 90.4959 89.891 90.5199L89.843 90.5319C89.723 90.5719 89.639 90.6519 89.591 90.7719C89.311 91.5399 88.995 92.2519 88.643 92.9079C88.619 92.9559 88.607 92.9999 88.607 93.0399C88.607 93.1279 88.647 93.1999 88.727 93.2559C88.903 93.3999 88.991 93.5079 88.991 93.5799C88.991 93.6279 88.955 93.6639 88.883 93.6879C88.771 93.7359 88.715 93.8279 88.715 93.9639V97.7799C88.731 98.6519 88.759 99.5319 88.799 100.42V100.468C88.799 100.58 88.759 100.664 88.679 100.72C88.471 100.864 88.279 100.936 88.103 100.936C88.023 100.936 87.955 100.912 87.899 100.864C87.843 100.816 87.815 100.76 87.815 100.696C87.847 100.224 87.875 99.7679 87.899 99.3279C87.923 98.8799 87.939 98.2959 87.947 97.5759V94.6719ZM95.051 93.4839C95.179 93.4759 95.275 93.4119 95.339 93.2919L95.459 93.0759C95.491 93.0279 95.527 92.9679 95.567 92.8959C95.607 92.8239 95.639 92.7719 95.663 92.7399C95.695 92.6999 95.727 92.6799 95.759 92.6799C95.823 92.6799 95.975 92.7559 96.215 92.9079C96.455 93.0519 96.627 93.1799 96.731 93.2919C96.779 93.3399 96.803 93.3879 96.803 93.4359C96.803 93.4759 96.783 93.5159 96.743 93.5559C96.703 93.5959 96.635 93.6239 96.539 93.6399L93.143 94.0359C93.063 94.0519 93.003 94.0839 92.963 94.1319C92.931 94.1799 92.919 94.2439 92.927 94.3239C93.127 95.5159 93.451 96.5639 93.899 97.4679C94.347 98.3639 94.939 99.0599 95.675 99.5559C95.779 99.6439 95.855 99.6879 95.903 99.6879C95.959 99.6879 96.011 99.6279 96.059 99.5079C96.155 99.3479 96.311 98.9679 96.527 98.3679C96.551 98.2959 96.575 98.2399 96.599 98.1999C96.631 98.1599 96.655 98.1439 96.671 98.1519C96.703 98.1599 96.715 98.2399 96.707 98.3919L96.563 99.7959V99.8559C96.563 99.9519 96.591 100.044 96.647 100.132C96.799 100.324 96.875 100.48 96.875 100.6C96.875 100.664 96.859 100.712 96.827 100.744C96.747 100.864 96.623 100.924 96.455 100.924C96.303 100.924 96.119 100.872 95.903 100.768C95.695 100.672 95.491 100.548 95.291 100.396C93.683 99.2119 92.643 97.2159 92.171 94.4079C92.147 94.2399 92.055 94.1679 91.895 94.1919L89.603 94.4679C89.595 94.4679 89.583 94.4719 89.567 94.4799C89.559 94.4799 89.547 94.4759 89.531 94.4679C89.411 94.4679 89.339 94.4199 89.315 94.3239L89.303 94.2879C89.303 94.1999 89.383 94.1439 89.543 94.1199L91.835 93.8559C92.003 93.8319 92.075 93.7399 92.051 93.5799C91.931 92.6279 91.863 91.5559 91.847 90.3639C91.847 90.1879 91.943 90.1079 92.135 90.1239C92.687 90.1799 92.963 90.2519 92.963 90.3399C92.963 90.3719 92.931 90.4079 92.867 90.4479L92.831 90.4719C92.719 90.5439 92.663 90.6439 92.663 90.7719C92.663 91.7399 92.715 92.6439 92.819 93.4839C92.827 93.6519 92.919 93.7279 93.095 93.7119L95.051 93.4839ZM93.791 90.6639C93.663 90.5519 93.619 90.4759 93.659 90.4359C93.675 90.4199 93.703 90.4119 93.743 90.4119C93.807 90.4119 93.863 90.4199 93.911 90.4359C94.463 90.5639 94.871 90.7479 95.135 90.9879C95.399 91.2279 95.531 91.4639 95.531 91.6959C95.531 91.8159 95.495 91.9159 95.423 91.9959C95.351 92.0759 95.259 92.1159 95.147 92.1159C95.099 92.1159 95.059 92.1119 95.027 92.1039C94.939 92.0799 94.867 92.0119 94.811 91.8999C94.707 91.7079 94.559 91.4999 94.367 91.2759C94.183 91.0519 93.991 90.8479 93.791 90.6639Z" fill="#421D12"/>
<path d="M78.9115 93.9758C78.9115 94.1358 78.9875 94.2318 79.1395 94.2638C79.9235 94.4398 80.6155 94.6958 81.2155 95.0318C81.8235 95.3678 82.1275 95.7558 82.1275 96.1958C82.1275 96.3318 82.0915 96.4438 82.0195 96.5318C81.9555 96.6198 81.8715 96.6638 81.7675 96.6638C81.5515 96.6638 81.2675 96.4478 80.9155 96.0158C80.4435 95.4158 79.8755 94.9358 79.2115 94.5758C79.1475 94.5438 79.0875 94.5278 79.0315 94.5278C78.9515 94.5278 78.9115 94.5638 78.9115 94.6358L78.8995 96.6038C78.8995 97.9558 78.9195 98.7358 78.9595 98.9438C78.9675 98.9998 78.9915 99.1278 79.0315 99.3278C79.0715 99.5198 79.0915 99.6718 79.0915 99.7838C79.0915 99.9438 79.0395 100.084 78.9355 100.204C78.8315 100.332 78.7355 100.396 78.6475 100.396C78.5355 100.396 78.4275 100.304 78.3235 100.12C78.2275 99.9438 78.1475 99.7438 78.0835 99.5198C78.0195 99.2878 77.9875 99.1278 77.9875 99.0398C77.9875 98.9918 78.0035 98.8958 78.0355 98.7518C78.0675 98.5998 78.0915 98.4038 78.1075 98.1638L78.1435 97.1918C78.1595 96.9518 78.1715 96.7198 78.1795 96.4958C78.1875 96.2638 78.1955 96.0478 78.2035 95.8478C78.2275 95.3118 78.2395 94.4958 78.2395 93.3998C78.2395 92.5198 78.2235 91.9398 78.1915 91.6598C78.1675 91.4918 78.1195 91.3638 78.0475 91.2758C77.9755 91.1798 77.9035 91.1078 77.8315 91.0598C77.7675 91.0038 77.7235 90.9678 77.6995 90.9518C77.6355 90.9038 77.6035 90.8638 77.6035 90.8318C77.6035 90.7358 77.6795 90.6718 77.8315 90.6398C77.9835 90.6078 78.1275 90.5918 78.2635 90.5918C78.5355 90.5918 78.7595 90.6798 78.9355 90.8558C79.0235 90.9438 79.0675 91.0478 79.0675 91.1678C79.0675 91.2238 79.0635 91.2718 79.0555 91.3118C79.0475 91.3518 79.0395 91.3878 79.0315 91.4198C79.0235 91.4598 79.0035 91.5718 78.9715 91.7558C78.9475 91.9398 78.9355 92.1438 78.9355 92.3678C78.9355 92.4238 78.9315 92.6078 78.9235 92.9198C78.9155 93.2318 78.9115 93.5838 78.9115 93.9758Z" fill="#421D12"/>
<path d="M66.2039 93.7964C65.9799 93.7964 65.7639 93.6364 65.5559 93.3164C65.3719 93.0364 65.1319 92.8044 64.8359 92.6204C64.5399 92.4364 64.2239 92.2964 63.8879 92.2004C63.8239 92.1844 63.7719 92.1684 63.7319 92.1524C63.6919 92.1364 63.6719 92.1164 63.6719 92.0924C63.6719 92.0204 63.8559 91.9844 64.2239 91.9844C64.5599 91.9844 64.9079 92.0284 65.2679 92.1164C65.6359 92.1964 65.9399 92.3284 66.1799 92.5124C66.4839 92.7524 66.6359 93.0164 66.6359 93.3044C66.6359 93.4484 66.5959 93.5684 66.5159 93.6644C66.4439 93.7524 66.3399 93.7964 66.2039 93.7964ZM63.9119 98.3324C63.8799 98.2044 63.8639 98.0804 63.8639 97.9604C63.8639 97.8564 63.8759 97.7724 63.8999 97.7084C63.9319 97.6364 63.9599 97.6004 63.9839 97.6004C64.0079 97.6004 64.0439 97.6444 64.0919 97.7324C64.1399 97.8204 64.2039 97.9044 64.2839 97.9844C64.3639 98.0644 64.4359 98.1284 64.4999 98.1764C64.5719 98.2164 64.6719 98.2364 64.7999 98.2364C65.0879 98.2364 65.6119 98.0044 66.3719 97.5404C67.1319 97.0764 68.0159 96.4244 69.0239 95.5844C70.0399 94.7364 71.0559 93.7684 72.0719 92.6804C72.1439 92.5924 72.2079 92.5484 72.2639 92.5484C72.2959 92.5484 72.3119 92.5644 72.3119 92.5964C72.3119 92.6444 72.2719 92.7284 72.1919 92.8484C71.6479 93.6084 70.9999 94.3804 70.2479 95.1644C69.4959 95.9484 68.7679 96.6484 68.0639 97.2644C67.3679 97.8724 66.8159 98.3204 66.4079 98.6084C66.3119 98.6804 66.2319 98.7324 66.1679 98.7644C66.0959 98.8124 66.0239 98.8644 65.9519 98.9204C65.8799 98.9764 65.7999 99.0524 65.7119 99.1484C65.5439 99.3404 65.3519 99.4364 65.1359 99.4364C64.8719 99.4364 64.6159 99.3284 64.3679 99.1124C64.1279 98.8884 63.9759 98.6284 63.9119 98.3324Z" fill="#421D12"/>
<path d="M52.7768 100.539C52.7368 100.539 52.7168 100.523 52.7168 100.491C52.7168 100.459 52.7848 100.407 52.9208 100.335C53.9688 99.7435 54.7648 99.1035 55.3088 98.4155C55.8608 97.7195 56.2288 96.9715 56.4128 96.1715C56.6048 95.3635 56.7008 94.4035 56.7008 93.2915C56.7008 92.9555 56.6848 92.5315 56.6528 92.0195C56.6368 91.6675 56.5528 91.4235 56.4008 91.2875C56.3128 91.2075 56.2288 91.1515 56.1488 91.1195C56.0688 91.0795 56.0128 91.0515 55.9808 91.0355C55.9568 91.0115 55.9448 90.9795 55.9448 90.9395C55.9448 90.8275 56.1008 90.7715 56.4128 90.7715C56.5248 90.7715 56.6368 90.7795 56.7488 90.7955C56.9488 90.8435 57.1608 90.9595 57.3848 91.1435C57.6088 91.3275 57.7208 91.4835 57.7208 91.6115C57.7208 91.6755 57.6928 91.7635 57.6368 91.8755C57.6288 91.8915 57.6048 91.9475 57.5648 92.0435C57.5328 92.1395 57.5168 92.2475 57.5168 92.3675C57.5168 92.7115 57.5088 93.1155 57.4928 93.5795C57.4448 94.8755 57.2768 95.9435 56.9888 96.7835C56.7008 97.6235 56.2368 98.3355 55.5968 98.9195C54.9648 99.4955 54.0848 100.019 52.9568 100.491C52.8768 100.523 52.8168 100.539 52.7768 100.539ZM54.1808 96.4235C54.0848 96.4235 53.9888 96.3435 53.8928 96.1835C53.7968 96.0235 53.7488 95.8315 53.7488 95.6075C53.7488 95.5835 53.7608 95.4275 53.7848 95.1395C53.8088 94.8435 53.8208 94.5875 53.8208 94.3715C53.8208 93.5635 53.7888 92.9835 53.7248 92.6315C53.7008 92.4795 53.6648 92.3595 53.6168 92.2715C53.5768 92.1835 53.5048 92.1115 53.4008 92.0555C53.3288 92.0155 53.2688 91.9795 53.2208 91.9475C53.1728 91.9155 53.1488 91.8795 53.1488 91.8395C53.1488 91.7835 53.2008 91.7355 53.3048 91.6955C53.4088 91.6475 53.5248 91.6235 53.6528 91.6235C53.7648 91.6235 53.8568 91.6395 53.9288 91.6715C54.1928 91.7675 54.3728 91.8675 54.4688 91.9715C54.5728 92.0755 54.6248 92.1995 54.6248 92.3435C54.6248 92.4395 54.6128 92.5475 54.5888 92.6675C54.5488 92.8835 54.5288 93.2995 54.5288 93.9155L54.5408 94.8515C54.5408 95.0115 54.5488 95.2035 54.5648 95.4275C54.5808 95.6195 54.5888 95.7395 54.5888 95.7875C54.5888 95.9475 54.5528 96.0955 54.4808 96.2315C54.4088 96.3595 54.3088 96.4235 54.1808 96.4235Z" fill="#421D12"/>
<path d="M48.1191 92.2956C47.7991 92.2956 47.5271 92.1876 47.3031 91.9716C47.0791 91.7476 46.9671 91.4756 46.9671 91.1556C46.9671 90.8356 47.0791 90.5676 47.3031 90.3516C47.5271 90.1276 47.7991 90.0156 48.1191 90.0156C48.4391 90.0156 48.7071 90.1276 48.9231 90.3516C49.1471 90.5756 49.2591 90.8436 49.2591 91.1556C49.2591 91.4756 49.1471 91.7476 48.9231 91.9716C48.6991 92.1876 48.4311 92.2956 48.1191 92.2956ZM48.1191 91.9836C48.3511 91.9836 48.5471 91.9036 48.7071 91.7436C48.8671 91.5756 48.9471 91.3796 48.9471 91.1556C48.9471 90.9236 48.8631 90.7276 48.6951 90.5676C48.5351 90.3996 48.3431 90.3156 48.1191 90.3156C47.8871 90.3156 47.6871 90.3996 47.5191 90.5676C47.3591 90.7276 47.2791 90.9236 47.2791 91.1556C47.2791 91.3876 47.3591 91.5836 47.5191 91.7436C47.6871 91.9036 47.8871 91.9836 48.1191 91.9836ZM39.5391 100.108C39.4831 100.108 39.4551 100.088 39.4551 100.048C39.4551 99.9916 39.5351 99.9236 39.6951 99.8436C41.0711 99.1796 42.2431 98.3556 43.2111 97.3716C44.1791 96.3876 44.9111 95.4556 45.4071 94.5756C45.9111 93.6956 46.1711 93.0996 46.1871 92.7876C46.1871 92.7156 46.1471 92.6796 46.0671 92.6796C45.9791 92.6796 45.6391 92.7156 45.0471 92.7876C44.4631 92.8596 43.8271 92.9556 43.1391 93.0756C42.4511 93.1956 41.8511 93.3276 41.3391 93.4716C41.1551 93.5196 40.9951 93.5436 40.8591 93.5436C40.5871 93.5436 40.3711 93.4756 40.2111 93.3396C40.0991 93.2436 39.9951 93.1076 39.8991 92.9316C39.8111 92.7476 39.7671 92.6036 39.7671 92.4996C39.7671 92.4196 39.8071 92.3796 39.8871 92.3796C39.9511 92.3796 40.0471 92.4076 40.1751 92.4636C40.4391 92.5676 40.6991 92.6196 40.9551 92.6196C41.1391 92.6196 41.8511 92.5716 43.0911 92.4756C44.3311 92.3796 45.0631 92.2996 45.2871 92.2356C45.3991 92.2036 45.5431 92.1516 45.7191 92.0796C45.9911 91.9596 46.1791 91.8996 46.2831 91.8996C46.3791 91.8996 46.5191 91.9596 46.7031 92.0796C46.8871 92.1996 47.0511 92.3396 47.1951 92.4996C47.3471 92.6516 47.4231 92.7836 47.4231 92.8956C47.4231 92.9836 47.3951 93.0676 47.3391 93.1476C47.2911 93.2276 47.2151 93.3196 47.1111 93.4236C47.0951 93.4476 47.0351 93.5196 46.9311 93.6396C46.8351 93.7516 46.7471 93.8796 46.6671 94.0236C46.1231 95.0636 45.5111 95.9516 44.8311 96.6876C44.1511 97.4236 43.4071 98.0476 42.5991 98.5596C41.7911 99.0716 40.8391 99.5676 39.7431 100.048C39.6471 100.088 39.5791 100.108 39.5391 100.108Z" fill="#421D12"/>
<path d="M146.78 82.8714C147.004 83.0954 147.116 83.2954 147.116 83.4714C147.116 83.5594 147.088 83.6394 147.032 83.7114C146.976 83.7834 146.904 83.8194 146.816 83.8194C146.712 83.8194 146.604 83.7834 146.492 83.7114C146.38 83.6314 146.268 83.5434 146.156 83.4474C146.044 83.3434 145.96 83.2674 145.904 83.2194C145.744 83.0834 145.58 82.9674 145.412 82.8714L145.376 82.8474C145.312 82.8154 145.268 82.7994 145.244 82.7994C145.148 82.7994 145.088 82.8674 145.064 83.0034C144.904 83.7714 144.336 84.1554 143.36 84.1554C142.888 84.1554 142.476 84.0514 142.124 83.8434C141.772 83.6274 141.596 83.3194 141.596 82.9194C141.596 82.4554 141.84 82.1394 142.328 81.9714C142.816 81.8034 143.28 81.7194 143.72 81.7194C143.888 81.7194 144.016 81.7234 144.104 81.7314H144.14C144.292 81.7314 144.368 81.6554 144.368 81.5034C144.328 80.3754 144.304 79.4874 144.296 78.8394C144.288 78.6714 144.236 78.5874 144.14 78.5874C144.1 78.5874 144.04 78.5954 143.96 78.6114C143.904 78.6194 143.816 78.6234 143.696 78.6234C143.344 78.6234 143.044 78.5594 142.796 78.4314C142.556 78.2954 142.332 78.0714 142.124 77.7594C142.084 77.7034 142.064 77.6514 142.064 77.6034C142.064 77.5474 142.088 77.5194 142.136 77.5194C142.16 77.5194 142.196 77.5394 142.244 77.5794C142.3 77.6114 142.336 77.6354 142.352 77.6514C142.464 77.7394 142.588 77.8154 142.724 77.8794C142.868 77.9434 143.052 77.9754 143.276 77.9754C143.452 77.9754 143.708 77.9434 144.044 77.8794C144.196 77.8474 144.272 77.7554 144.272 77.6034C144.264 77.3874 144.26 77.0834 144.26 76.6914V76.0794C144.26 75.7354 144.088 75.4834 143.744 75.3234C143.672 75.2834 143.636 75.2474 143.636 75.2154C143.636 75.1674 143.68 75.1234 143.768 75.0834C143.864 75.0434 144.02 75.0234 144.236 75.0234C144.468 75.0234 144.676 75.0954 144.86 75.2394C145.052 75.3754 145.148 75.5154 145.148 75.6594C145.148 75.6754 145.124 75.7554 145.076 75.8994C145.02 76.0114 144.98 76.1194 144.956 76.2234L144.944 76.2714C144.936 76.2954 144.932 76.3234 144.932 76.3554C144.932 76.4514 144.976 76.5314 145.064 76.5954C145.384 76.8034 145.632 76.9314 145.808 76.9794C145.88 76.9954 145.976 77.0154 146.096 77.0394C146.224 77.0634 146.312 77.0914 146.36 77.1234C146.408 77.1554 146.44 77.2034 146.456 77.2674C146.472 77.3154 146.48 77.3674 146.48 77.4234C146.48 77.5994 146.324 77.7674 146.012 77.9274C145.66 78.1034 145.324 78.2474 145.004 78.3594C144.86 78.4074 144.788 78.4554 144.788 78.5034C144.788 79.1354 144.82 79.7354 144.884 80.3034C144.948 80.8714 144.984 81.1954 144.992 81.2754C145.024 81.5234 145.044 81.6754 145.052 81.7314C145.076 81.8674 145.156 81.9594 145.292 82.0074C145.916 82.2154 146.412 82.5034 146.78 82.8714ZM140.648 78.1794C140.672 78.1794 140.684 78.1994 140.684 78.2394C140.684 78.2714 140.672 78.3234 140.648 78.3954C140.352 79.2354 140.096 80.0274 139.88 80.7714C139.664 81.5154 139.556 82.0394 139.556 82.3434C139.556 82.4634 139.592 82.7234 139.664 83.1234C139.728 83.4434 139.76 83.6474 139.76 83.7354C139.76 83.8474 139.732 83.9394 139.676 84.0114C139.62 84.0914 139.544 84.1314 139.448 84.1314C139.296 84.1314 139.176 84.0834 139.088 83.9874C139 83.8914 138.896 83.7394 138.776 83.5314C138.48 83.0514 138.332 82.3514 138.332 81.4314C138.332 80.9834 138.372 80.4474 138.452 79.8234C138.54 79.1994 138.648 78.5754 138.776 77.9514C138.808 77.8074 138.828 77.7034 138.836 77.6394C138.892 77.3914 138.94 77.1514 138.98 76.9194C139.02 76.6794 139.04 76.4754 139.04 76.3074C139.04 76.1074 139.024 75.9594 138.992 75.8634C138.968 75.7674 138.904 75.6274 138.8 75.4434C138.776 75.3954 138.764 75.3594 138.764 75.3354C138.764 75.3034 138.772 75.2754 138.788 75.2514C138.812 75.2274 138.84 75.2154 138.872 75.2154C138.92 75.2154 138.988 75.2514 139.076 75.3234C139.268 75.5074 139.44 75.7274 139.592 75.9834C139.752 76.2314 139.832 76.4714 139.832 76.7034C139.832 76.8634 139.804 77.0314 139.748 77.2074C139.7 77.3834 139.62 77.6194 139.508 77.9154L139.34 78.3714C139.196 78.7794 139.088 79.1994 139.016 79.6314C138.944 80.0554 138.908 80.4514 138.908 80.8194C138.908 81.2594 138.96 81.4794 139.064 81.4794C139.128 81.4794 139.204 81.3834 139.292 81.1914C139.388 80.9914 139.524 80.6714 139.7 80.2314C139.964 79.5674 140.24 78.9234 140.528 78.2994C140.56 78.2194 140.6 78.1794 140.648 78.1794ZM145.184 76.9194C145.12 76.8714 145.064 76.8474 145.016 76.8474C144.928 76.8474 144.876 76.9154 144.86 77.0514L144.836 77.3634V77.3874C144.836 77.4514 144.852 77.5034 144.884 77.5434C144.916 77.5834 144.96 77.6034 145.016 77.6034L145.124 77.5794C145.404 77.4594 145.544 77.3594 145.544 77.2794C145.544 77.2154 145.424 77.0954 145.184 76.9194ZM143.228 83.6034C143.508 83.6034 143.752 83.5434 143.96 83.4234C144.168 83.2954 144.3 83.0394 144.356 82.6554V82.5954C144.356 82.4754 144.288 82.3954 144.152 82.3554C143.856 82.2754 143.56 82.2354 143.264 82.2354C142.944 82.2354 142.648 82.2834 142.376 82.3794C142.112 82.4674 141.98 82.6274 141.98 82.8594C141.98 83.1154 142.116 83.3034 142.388 83.4234C142.668 83.5434 142.948 83.6034 143.228 83.6034Z" fill="#421D12"/>
<path d="M125.373 85.2243C125.373 85.1923 125.401 85.1403 125.457 85.0683C125.481 85.0363 125.677 84.8123 126.045 84.3963C126.421 83.9803 126.773 83.3083 127.101 82.3803C127.429 81.4523 127.593 80.4723 127.593 79.4403C127.593 78.4083 127.453 77.5003 127.173 76.7163C126.893 75.9243 126.625 75.3523 126.369 75.0003C126.121 74.6403 125.817 74.2443 125.457 73.8123C125.401 73.7403 125.373 73.6883 125.373 73.6563C125.373 73.6323 125.381 73.6123 125.397 73.5963C125.421 73.5803 125.445 73.5723 125.469 73.5723C125.509 73.5723 125.553 73.5923 125.601 73.6323C125.881 73.8403 126.221 74.1683 126.621 74.6163C127.021 75.0563 127.405 75.6963 127.773 76.5363C128.141 77.3683 128.325 78.3363 128.325 79.4403C128.325 80.5443 128.141 81.5163 127.773 82.3563C127.405 83.1883 127.021 83.8243 126.621 84.2643C126.221 84.7123 125.881 85.0403 125.601 85.2483C125.553 85.2883 125.509 85.3083 125.469 85.3083C125.453 85.3083 125.433 85.3003 125.409 85.2843C125.385 85.2763 125.373 85.2563 125.373 85.2243Z" fill="#421D12"/>
<path d="M116.877 74.711C117.005 74.711 117.105 74.655 117.177 74.543L117.237 74.459C117.261 74.435 117.297 74.387 117.345 74.315C117.401 74.243 117.453 74.207 117.501 74.207C117.557 74.207 117.669 74.275 117.837 74.411C118.005 74.547 118.137 74.675 118.233 74.795C118.265 74.827 118.281 74.867 118.281 74.915C118.281 74.971 118.241 75.027 118.161 75.083C118.153 75.091 118.141 75.095 118.125 75.095C118.117 75.095 118.109 75.099 118.101 75.107C117.965 75.171 117.897 75.267 117.897 75.395V76.259C117.921 77.131 117.945 77.771 117.969 78.179V78.227C117.969 78.339 117.925 78.423 117.837 78.479C117.757 78.527 117.661 78.571 117.549 78.611C117.445 78.643 117.353 78.659 117.273 78.659C117.209 78.659 117.177 78.575 117.177 78.407V78.371C117.177 78.291 117.153 78.231 117.105 78.191C117.065 78.143 117.005 78.119 116.925 78.119H115.005C114.925 78.119 114.861 78.143 114.813 78.191C114.773 78.231 114.753 78.291 114.753 78.371V81.731C114.769 82.595 114.797 83.479 114.837 84.383V84.443C114.837 84.539 114.805 84.619 114.741 84.683C114.597 84.843 114.405 84.923 114.165 84.923C114.093 84.923 114.029 84.899 113.973 84.851C113.917 84.803 113.889 84.747 113.889 84.683C113.921 84.211 113.949 83.755 113.973 83.315C113.997 82.867 114.013 82.283 114.021 81.563V76.727C114.021 75.951 113.985 75.251 113.913 74.627V74.579C113.913 74.459 113.965 74.399 114.069 74.399C114.117 74.399 114.157 74.407 114.189 74.423L114.669 74.639C114.773 74.687 114.877 74.711 114.981 74.711H116.877ZM120.249 78.119C120.169 78.119 120.105 78.143 120.057 78.191C120.017 78.231 119.997 78.291 119.997 78.371V78.383C119.997 78.423 119.925 78.475 119.781 78.539C119.645 78.595 119.505 78.623 119.361 78.623C119.313 78.623 119.273 78.599 119.241 78.551C119.209 78.503 119.193 78.447 119.193 78.383C119.225 78.079 119.249 77.687 119.265 77.207V76.487C119.265 75.791 119.237 75.179 119.181 74.651V74.603C119.181 74.483 119.233 74.423 119.337 74.423C119.385 74.423 119.425 74.431 119.457 74.447L119.901 74.639C120.013 74.687 120.117 74.711 120.213 74.711H122.205C122.333 74.711 122.433 74.659 122.505 74.555L122.565 74.471C122.589 74.439 122.625 74.391 122.673 74.327C122.721 74.255 122.769 74.219 122.817 74.219C122.873 74.219 123.001 74.287 123.201 74.423C123.401 74.559 123.553 74.687 123.657 74.807C123.689 74.847 123.705 74.891 123.705 74.939C123.705 74.995 123.673 75.047 123.609 75.095L123.465 75.167C123.321 75.223 123.249 75.319 123.249 75.455V83.771C123.249 84.099 123.189 84.351 123.069 84.527C122.949 84.703 122.693 84.827 122.301 84.899H122.241C122.121 84.899 122.041 84.827 122.001 84.683C121.969 84.539 121.905 84.427 121.809 84.347C121.657 84.243 121.405 84.151 121.053 84.071C120.893 84.047 120.813 84.003 120.813 83.939C120.813 83.891 120.877 83.867 121.005 83.867C121.165 83.867 121.421 83.883 121.773 83.915L122.229 83.939C122.333 83.939 122.405 83.919 122.445 83.879C122.493 83.839 122.517 83.771 122.517 83.675V78.371C122.517 78.291 122.493 78.231 122.445 78.191C122.405 78.143 122.345 78.119 122.265 78.119H120.249ZM116.925 76.223C117.005 76.223 117.065 76.203 117.105 76.163C117.153 76.115 117.177 76.051 117.177 75.971V75.323C117.177 75.243 117.153 75.183 117.105 75.143C117.065 75.095 117.005 75.071 116.925 75.071H115.005C114.925 75.071 114.861 75.095 114.813 75.143C114.773 75.183 114.753 75.243 114.753 75.323V75.971C114.753 76.051 114.773 76.115 114.813 76.163C114.861 76.203 114.925 76.223 115.005 76.223H116.925ZM122.265 76.223C122.345 76.223 122.405 76.203 122.445 76.163C122.493 76.115 122.517 76.051 122.517 75.971V75.323C122.517 75.243 122.493 75.183 122.445 75.143C122.405 75.095 122.345 75.071 122.265 75.071H120.249C120.169 75.071 120.105 75.095 120.057 75.143C120.017 75.183 119.997 75.243 119.997 75.323V75.971C119.997 76.051 120.017 76.115 120.057 76.163C120.105 76.203 120.169 76.223 120.249 76.223H122.265ZM115.005 76.571C114.925 76.571 114.861 76.595 114.813 76.643C114.773 76.683 114.753 76.743 114.753 76.823V77.519C114.753 77.599 114.773 77.663 114.813 77.711C114.861 77.751 114.925 77.771 115.005 77.771H116.925C117.005 77.771 117.065 77.751 117.105 77.711C117.153 77.663 117.177 77.599 117.177 77.519V76.823C117.177 76.743 117.153 76.683 117.105 76.643C117.065 76.595 117.005 76.571 116.925 76.571H115.005ZM120.249 76.571C120.169 76.571 120.105 76.595 120.057 76.643C120.017 76.683 119.997 76.743 119.997 76.823V77.519C119.997 77.599 120.017 77.663 120.057 77.711C120.105 77.751 120.169 77.771 120.249 77.771H122.265C122.345 77.771 122.405 77.751 122.445 77.711C122.493 77.663 122.517 77.599 122.517 77.519V76.823C122.517 76.743 122.493 76.683 122.445 76.643C122.405 76.595 122.345 76.571 122.265 76.571H120.249ZM117.465 83.183C117.385 83.183 117.321 83.207 117.273 83.255C117.233 83.295 117.213 83.355 117.213 83.435V83.687C117.213 83.727 117.145 83.779 117.009 83.843C116.881 83.907 116.749 83.939 116.613 83.939C116.557 83.939 116.509 83.915 116.469 83.867C116.437 83.819 116.421 83.763 116.421 83.699C116.453 83.323 116.477 82.855 116.493 82.295V81.467C116.493 80.691 116.457 79.991 116.385 79.367V79.319C116.385 79.199 116.437 79.139 116.541 79.139C116.589 79.139 116.629 79.147 116.661 79.163L117.117 79.367C117.229 79.415 117.333 79.439 117.429 79.439H119.721C119.849 79.439 119.949 79.387 120.021 79.283L120.081 79.211C120.105 79.187 120.141 79.143 120.189 79.079C120.237 79.015 120.285 78.983 120.333 78.983C120.389 78.983 120.501 79.043 120.669 79.163C120.837 79.283 120.969 79.395 121.065 79.499C121.105 79.555 121.125 79.599 121.125 79.631C121.125 79.695 121.089 79.747 121.017 79.787L120.945 79.823C120.873 79.863 120.821 79.903 120.789 79.943C120.757 79.983 120.741 80.039 120.741 80.111V81.119C120.765 82.111 120.789 82.843 120.813 83.315V83.375C120.813 83.487 120.773 83.567 120.693 83.615C120.613 83.679 120.517 83.731 120.405 83.771C120.301 83.811 120.205 83.831 120.117 83.831C120.069 83.831 120.029 83.803 119.997 83.747C119.973 83.699 119.961 83.659 119.961 83.627C119.961 83.587 119.969 83.543 119.985 83.495L120.009 83.291C120.009 83.259 119.985 83.235 119.937 83.219C119.897 83.195 119.837 83.183 119.757 83.183H117.465ZM119.757 81.083C119.837 81.083 119.897 81.063 119.937 81.023C119.985 80.975 120.009 80.911 120.009 80.831V80.027C120.009 79.947 119.985 79.887 119.937 79.847C119.897 79.799 119.837 79.775 119.757 79.775H117.465C117.385 79.775 117.321 79.799 117.273 79.847C117.233 79.887 117.213 79.947 117.213 80.027V80.831C117.213 80.911 117.233 80.975 117.273 81.023C117.321 81.063 117.385 81.083 117.465 81.083H119.757ZM117.465 81.443C117.385 81.443 117.321 81.467 117.273 81.515C117.233 81.555 117.213 81.615 117.213 81.695V82.571C117.213 82.651 117.233 82.715 117.273 82.763C117.321 82.803 117.385 82.823 117.465 82.823H119.757C119.837 82.823 119.897 82.803 119.937 82.763C119.985 82.715 120.009 82.651 120.009 82.571V81.695C120.009 81.615 119.985 81.555 119.937 81.515C119.897 81.467 119.837 81.443 119.757 81.443H117.465Z" fill="#421D12"/>
<path d="M109.377 78.2888C109.505 78.2888 109.605 78.2368 109.677 78.1328L109.809 77.9408C109.841 77.9008 109.877 77.8488 109.917 77.7848C109.965 77.7128 110.005 77.6608 110.037 77.6288C110.069 77.5968 110.101 77.5808 110.133 77.5808C110.181 77.5808 110.285 77.6448 110.445 77.7728C110.605 77.8928 110.753 78.0248 110.889 78.1688C111.033 78.3048 111.105 78.4008 111.105 78.4568C111.097 78.5128 111.065 78.5568 111.009 78.5888C110.961 78.6208 110.897 78.6368 110.817 78.6368H107.757C107.677 78.6368 107.613 78.6608 107.565 78.7088C107.525 78.7488 107.505 78.8088 107.505 78.8888V81.1808C107.505 81.2608 107.525 81.3248 107.565 81.3728C107.613 81.4128 107.677 81.4328 107.757 81.4328H110.049C110.177 81.4328 110.277 81.3808 110.349 81.2768L110.517 81.0488C110.549 81.0088 110.589 80.9528 110.637 80.8808C110.693 80.8008 110.737 80.7448 110.769 80.7128C110.809 80.6728 110.845 80.6528 110.877 80.6528C110.941 80.6528 111.093 80.7528 111.333 80.9528C111.573 81.1448 111.745 81.3088 111.849 81.4448C111.889 81.5008 111.909 81.5488 111.909 81.5888C111.909 81.6288 111.889 81.6688 111.849 81.7088C111.785 81.7488 111.709 81.7688 111.621 81.7688H107.757C107.677 81.7688 107.613 81.7928 107.565 81.8408C107.525 81.8808 107.505 81.9408 107.505 82.0208V82.7408C107.529 83.4928 107.549 84.0528 107.565 84.4208V84.4808C107.565 84.5848 107.529 84.6688 107.457 84.7328C107.297 84.8608 107.093 84.9248 106.845 84.9248C106.789 84.9248 106.737 84.9008 106.689 84.8528C106.649 84.8048 106.629 84.7488 106.629 84.6848C106.677 84.0768 106.709 83.4568 106.725 82.8248V82.0208C106.725 81.9408 106.701 81.8808 106.653 81.8408C106.613 81.7928 106.553 81.7688 106.473 81.7688H103.401C102.913 81.7768 102.385 81.8208 101.817 81.9008H101.745C101.633 81.9008 101.553 81.8488 101.505 81.7448L101.457 81.6608C101.433 81.6128 101.421 81.5648 101.421 81.5168C101.421 81.4688 101.441 81.4328 101.481 81.4088C101.521 81.3768 101.577 81.3648 101.649 81.3728C101.881 81.3968 102.233 81.4168 102.705 81.4328H103.137C103.217 81.4328 103.277 81.4128 103.317 81.3728C103.365 81.3248 103.389 81.2608 103.389 81.1808V80.2808C103.389 79.4968 103.353 78.7928 103.281 78.1688V78.1208C103.281 78.0008 103.333 77.9408 103.437 77.9408C103.485 77.9408 103.525 77.9488 103.557 77.9648L104.169 78.2288C104.257 78.2688 104.357 78.2888 104.469 78.2888H106.473C106.553 78.2888 106.613 78.2688 106.653 78.2288C106.701 78.1808 106.725 78.1168 106.725 78.0368V76.3088C106.725 76.2288 106.701 76.1688 106.653 76.1288C106.613 76.0808 106.553 76.0568 106.473 76.0568H104.277C104.141 76.0568 104.041 76.1128 103.977 76.2248C103.281 77.2408 102.501 78.0608 101.637 78.6848C101.557 78.7408 101.493 78.7688 101.445 78.7688C101.389 78.7688 101.361 78.7488 101.361 78.7088C101.361 78.6688 101.405 78.5968 101.493 78.4928C102.093 77.8368 102.657 77.0448 103.185 76.1168C103.361 75.8048 103.533 75.4408 103.701 75.0248C103.877 74.6008 104.005 74.2248 104.085 73.8968C104.125 73.7768 104.189 73.7168 104.277 73.7168C104.317 73.7168 104.365 73.7288 104.421 73.7528C105.029 74.0168 105.333 74.1968 105.333 74.2928C105.333 74.3248 105.293 74.3528 105.213 74.3768L105.165 74.3888C105.053 74.4288 104.969 74.5048 104.913 74.6168C104.793 74.8568 104.653 75.1168 104.493 75.3968C104.461 75.4368 104.445 75.4848 104.445 75.5408C104.445 75.5888 104.465 75.6288 104.505 75.6608C104.545 75.6848 104.597 75.6968 104.661 75.6968H109.629C109.757 75.6968 109.857 75.6448 109.929 75.5408L110.085 75.3248C110.117 75.2848 110.157 75.2328 110.205 75.1688C110.261 75.0968 110.305 75.0448 110.337 75.0128C110.377 74.9728 110.413 74.9528 110.445 74.9528C110.509 74.9528 110.657 75.0488 110.889 75.2408C111.129 75.4248 111.301 75.5848 111.405 75.7208C111.445 75.7768 111.465 75.8248 111.465 75.8648C111.465 75.9128 111.441 75.9568 111.393 75.9968C111.329 76.0368 111.253 76.0568 111.165 76.0568H107.757C107.677 76.0568 107.613 76.0808 107.565 76.1288C107.525 76.1688 107.505 76.2288 107.505 76.3088V78.0368C107.505 78.1168 107.525 78.1808 107.565 78.2288C107.613 78.2688 107.677 78.2888 107.757 78.2888H109.377ZM104.433 78.6368C104.353 78.6368 104.289 78.6608 104.241 78.7088C104.201 78.7488 104.181 78.8088 104.181 78.8888V81.1808C104.181 81.2608 104.201 81.3248 104.241 81.3728C104.289 81.4128 104.353 81.4328 104.433 81.4328H106.473C106.553 81.4328 106.613 81.4128 106.653 81.3728C106.701 81.3248 106.725 81.2608 106.725 81.1808V78.8888C106.725 78.8088 106.701 78.7488 106.653 78.7088C106.613 78.6608 106.553 78.6368 106.473 78.6368H104.433Z" fill="#421D12"/>
<path d="M98.115 79.3197C98.019 79.3437 97.971 79.3677 97.971 79.3917C97.971 79.4157 98.019 79.4397 98.115 79.4637C98.699 79.6157 99.167 79.8797 99.519 80.2557C99.871 80.6317 100.047 81.0877 100.047 81.6237C100.047 81.9837 99.963 82.3597 99.795 82.7517C99.635 83.1357 99.347 83.4677 98.931 83.7477C98.515 84.0277 97.959 84.1677 97.263 84.1677C96.719 84.1677 96.271 84.0677 95.919 83.8677C95.575 83.6677 95.327 83.4277 95.175 83.1477C95.031 82.8597 94.959 82.5837 94.959 82.3197C94.959 82.0637 95.019 81.8757 95.139 81.7557C95.267 81.6277 95.411 81.5637 95.571 81.5637C95.739 81.5637 95.891 81.6157 96.027 81.7197C96.163 81.8157 96.231 81.9557 96.231 82.1397C96.231 82.2277 96.187 82.3437 96.099 82.4877C96.059 82.5437 96.023 82.5997 95.991 82.6557C95.967 82.7117 95.955 82.7757 95.955 82.8477C95.955 83.0797 96.043 83.2917 96.219 83.4837C96.395 83.6757 96.707 83.7717 97.155 83.7717C97.507 83.7717 97.823 83.6757 98.103 83.4837C98.383 83.2917 98.603 83.0277 98.763 82.6917C98.923 82.3557 99.003 81.9717 99.003 81.5397C99.003 80.9557 98.843 80.4837 98.523 80.1237C98.203 79.7637 97.759 79.5837 97.191 79.5837C97.135 79.5837 97.051 79.5917 96.939 79.6077C96.827 79.6237 96.731 79.6317 96.651 79.6317C96.563 79.6317 96.487 79.6117 96.423 79.5717C96.367 79.5237 96.339 79.4597 96.339 79.3797C96.339 79.3077 96.367 79.2477 96.423 79.1997C96.487 79.1517 96.563 79.1277 96.651 79.1277C96.763 79.1277 96.867 79.1397 96.963 79.1637C97.091 79.1797 97.191 79.1877 97.263 79.1877C97.599 79.1877 97.923 79.0757 98.235 78.8517C98.547 78.6277 98.703 78.1477 98.703 77.4117C98.703 76.7477 98.559 76.2797 98.271 76.0077C97.991 75.7277 97.663 75.5877 97.287 75.5877C97.055 75.5877 96.827 75.6437 96.603 75.7557C96.387 75.8597 96.279 76.0597 96.279 76.3557C96.279 76.4837 96.311 76.6197 96.375 76.7637C96.431 76.8597 96.459 76.9637 96.459 77.0757C96.459 77.2277 96.411 77.3517 96.315 77.4477C96.227 77.5437 96.115 77.5917 95.979 77.5917C95.731 77.5917 95.551 77.5157 95.439 77.3637C95.335 77.2037 95.283 77.0277 95.283 76.8357C95.283 76.6197 95.371 76.3837 95.547 76.1277C95.731 75.8637 95.987 75.6397 96.315 75.4557C96.643 75.2717 97.019 75.1797 97.443 75.1797C97.907 75.1797 98.311 75.2797 98.655 75.4797C99.007 75.6717 99.275 75.9317 99.459 76.2597C99.643 76.5797 99.735 76.9277 99.735 77.3037C99.735 77.7757 99.599 78.1957 99.327 78.5637C99.055 78.9237 98.651 79.1757 98.115 79.3197Z" fill="#421D12"/>
<path d="M93.5318 85.3083C93.4918 85.3083 93.4478 85.2883 93.3998 85.2483C93.1198 85.0403 92.7798 84.7123 92.3798 84.2643C91.9798 83.8243 91.5958 83.1883 91.2278 82.3563C90.8598 81.5163 90.6758 80.5443 90.6758 79.4403C90.6758 78.3363 90.8598 77.3683 91.2278 76.5363C91.5958 75.6963 91.9798 75.0563 92.3798 74.6163C92.7798 74.1683 93.1198 73.8403 93.3998 73.6323C93.4478 73.5923 93.4918 73.5723 93.5318 73.5723C93.5558 73.5723 93.5758 73.5803 93.5918 73.5963C93.6158 73.6123 93.6278 73.6323 93.6278 73.6563C93.6278 73.6883 93.5998 73.7403 93.5438 73.8123C93.5198 73.8443 93.3198 74.0683 92.9438 74.4843C92.5758 74.9003 92.2278 75.5723 91.8998 76.5003C91.5718 77.4283 91.4078 78.4083 91.4078 79.4403C91.4078 80.4723 91.5478 81.3843 91.8278 82.1763C92.1078 82.9603 92.3718 83.5323 92.6198 83.8923C92.8758 84.2443 93.1838 84.6363 93.5438 85.0683C93.5998 85.1403 93.6278 85.1923 93.6278 85.2243C93.6278 85.2563 93.6158 85.2763 93.5918 85.2843C93.5678 85.3003 93.5478 85.3083 93.5318 85.3083Z" fill="#421D12"/>
<path d="M79.7681 76.225C79.8961 76.225 79.9961 76.173 80.0681 76.069L80.2241 75.841C80.2561 75.801 80.2961 75.745 80.3441 75.673C80.4001 75.593 80.4441 75.537 80.4761 75.505C80.5161 75.465 80.5521 75.445 80.5841 75.445C80.6481 75.445 80.8001 75.545 81.0401 75.745C81.2801 75.937 81.4521 76.101 81.5561 76.237C81.5961 76.293 81.6161 76.341 81.6161 76.381C81.6161 76.429 81.5921 76.473 81.5441 76.513C81.4881 76.545 81.4161 76.561 81.3281 76.561H79.6961C79.5521 76.561 79.4561 76.633 79.4081 76.777C78.9201 78.601 78.1201 80.145 77.0081 81.409C76.9601 81.465 76.9361 81.525 76.9361 81.589C76.9361 81.645 76.9681 81.705 77.0321 81.769C78.2641 82.817 79.7641 83.593 81.5321 84.097C81.6041 84.121 81.6601 84.145 81.7001 84.169C81.7481 84.201 81.7681 84.225 81.7601 84.241C81.7521 84.265 81.6801 84.297 81.5441 84.337C81.3281 84.401 81.1601 84.533 81.0401 84.733C80.9761 84.837 80.9001 84.889 80.8121 84.889L80.7041 84.865C79.0721 84.265 77.6881 83.393 76.5521 82.249C76.4881 82.185 76.4281 82.153 76.3721 82.153C76.3321 82.153 76.2761 82.181 76.2041 82.237C74.9161 83.373 73.3241 84.241 71.4281 84.841C71.3561 84.865 71.2961 84.877 71.2481 84.877C71.2001 84.877 71.1721 84.861 71.1641 84.829V84.805C71.1641 84.741 71.2321 84.685 71.3681 84.637C73.1841 83.909 74.6601 82.945 75.7961 81.745C75.8521 81.689 75.8801 81.629 75.8801 81.565C75.8801 81.509 75.8561 81.453 75.8081 81.397C75.1201 80.509 74.5801 79.485 74.1881 78.325C74.1561 78.213 74.1081 78.157 74.0441 78.157C73.9801 78.157 73.9241 78.201 73.8761 78.289C73.5801 78.809 73.3841 79.149 73.2881 79.309C73.2321 79.421 73.2161 79.505 73.2401 79.561L73.2521 79.645C73.2041 79.677 73.1521 79.693 73.0961 79.693C73.0401 79.693 72.9881 79.669 72.9401 79.621L72.5681 79.201C72.5201 79.137 72.4961 79.081 72.4961 79.033C72.4961 78.961 72.5281 78.901 72.5921 78.853C73.1761 78.341 73.6041 77.945 73.8761 77.665C73.9481 77.593 73.9961 77.501 74.0201 77.389L74.0921 77.125C74.1001 77.069 74.1241 77.025 74.1641 76.993C74.2041 76.953 74.2481 76.933 74.2961 76.933C74.3201 76.933 74.3561 76.941 74.4041 76.957C74.5001 76.989 74.5481 77.045 74.5481 77.125C74.5481 77.173 74.5241 77.229 74.4761 77.293L74.3321 77.473C74.2761 77.537 74.2481 77.609 74.2481 77.689C74.2481 77.721 74.2561 77.761 74.2721 77.809C74.6961 78.969 75.3241 80.009 76.1561 80.929C76.2121 80.985 76.2721 81.013 76.3361 81.013C76.4001 81.013 76.4601 80.977 76.5161 80.905C77.4281 79.713 78.0721 78.357 78.4481 76.837C78.4561 76.821 78.4601 76.793 78.4601 76.753C78.4601 76.625 78.3841 76.561 78.2321 76.561H73.1441C72.6561 76.569 72.1281 76.613 71.5601 76.693H71.4881C71.3761 76.693 71.2961 76.641 71.2481 76.537L71.2001 76.453C71.1761 76.405 71.1641 76.361 71.1641 76.321C71.1641 76.201 71.2441 76.149 71.4041 76.165C71.6761 76.189 72.0881 76.209 72.6401 76.225H75.7241C75.8921 76.225 75.9761 76.141 75.9761 75.973C75.9601 75.301 75.9241 74.709 75.8681 74.197V74.173C75.8681 74.029 75.9281 73.957 76.0481 73.957C76.0641 73.957 76.1041 73.965 76.1681 73.981C76.7601 74.157 77.0561 74.293 77.0561 74.389C77.0561 74.429 77.0241 74.469 76.9601 74.509L76.9241 74.533C76.8121 74.605 76.7561 74.705 76.7561 74.833V75.973C76.7561 76.053 76.7761 76.117 76.8161 76.165C76.8641 76.205 76.9281 76.225 77.0081 76.225H79.7681Z" fill="#421D12"/>
<path d="M65.6068 76.2005C65.5188 76.1685 65.4548 76.0885 65.4148 75.9605C65.3188 75.6725 65.1588 75.3765 64.9348 75.0725C64.7108 74.7605 64.4668 74.4805 64.2028 74.2325C64.0748 74.1045 64.0268 74.0285 64.0588 74.0045C64.0748 73.9885 64.1068 73.9805 64.1548 73.9805C64.2188 73.9805 64.2708 73.9885 64.3108 74.0045C64.9588 74.1965 65.4348 74.4525 65.7388 74.7725C66.0508 75.0925 66.2068 75.4005 66.2068 75.6965C66.2068 75.8565 66.1668 75.9885 66.0868 76.0925C66.0068 76.1885 65.9028 76.2365 65.7748 76.2365C65.7268 76.2365 65.6708 76.2245 65.6068 76.2005ZM61.3468 75.9365C61.2668 75.9045 61.2028 75.8285 61.1548 75.7085C61.0588 75.5005 60.9148 75.2845 60.7228 75.0605C60.5308 74.8365 60.3228 74.6325 60.0988 74.4485C59.9708 74.3445 59.9188 74.2725 59.9428 74.2325C59.9588 74.2165 59.9908 74.2085 60.0388 74.2085C60.1028 74.2085 60.1548 74.2125 60.1948 74.2205C60.7708 74.3245 61.1948 74.5005 61.4668 74.7485C61.7468 74.9965 61.8868 75.2485 61.8868 75.5045C61.8868 75.6405 61.8508 75.7525 61.7788 75.8405C61.7068 75.9205 61.6108 75.9605 61.4908 75.9605C61.4588 75.9605 61.4108 75.9525 61.3468 75.9365ZM68.7628 83.4365C68.8268 83.4365 68.9668 83.5285 69.1828 83.7125C69.3988 83.8885 69.5548 84.0445 69.6508 84.1805C69.6908 84.2365 69.7108 84.2805 69.7108 84.3125C69.7108 84.3685 69.6868 84.4125 69.6388 84.4445C69.5988 84.4765 69.5268 84.4925 69.4228 84.4925H63.7828C63.2948 84.5005 62.7668 84.5445 62.1988 84.6245H62.1268C62.0148 84.6245 61.9348 84.5725 61.8868 84.4685L61.8388 84.3845C61.8148 84.3365 61.8028 84.2885 61.8028 84.2405C61.8028 84.1925 61.8228 84.1525 61.8628 84.1205C61.9028 84.0965 61.9588 84.0885 62.0308 84.0965C62.3028 84.1205 62.7148 84.1405 63.2668 84.1565H65.0788C65.1588 84.1565 65.2188 84.1325 65.2588 84.0845C65.3068 84.0445 65.3308 83.9845 65.3308 83.9045V80.6285C65.3308 80.5485 65.3068 80.4885 65.2588 80.4485C65.2188 80.4005 65.1588 80.3765 65.0788 80.3765H64.3948C63.9308 80.3845 63.4268 80.4285 62.8828 80.5085H62.8228C62.7028 80.5085 62.6188 80.4525 62.5708 80.3405L62.5228 80.2445C62.4988 80.1965 62.4868 80.1525 62.4868 80.1125C62.4868 80.0565 62.5068 80.0165 62.5468 79.9925C62.5868 79.9605 62.6428 79.9485 62.7148 79.9565C62.9948 79.9805 63.4108 80.0005 63.9628 80.0165H65.0788C65.1588 80.0165 65.2188 79.9965 65.2588 79.9565C65.3068 79.9085 65.3308 79.8445 65.3308 79.7645V77.1485C65.3308 77.0685 65.3068 77.0085 65.2588 76.9685C65.2188 76.9205 65.1588 76.8965 65.0788 76.8965H64.3948C63.9068 76.9045 63.3948 76.9485 62.8588 77.0285H62.7868C62.6748 77.0285 62.5948 76.9765 62.5468 76.8725C62.5148 76.8005 62.4708 76.7645 62.4148 76.7645C62.3348 76.7645 62.2748 76.8285 62.2348 76.9565C62.1628 77.1805 62.0908 77.3925 62.0188 77.5925C61.9548 77.7925 61.8948 77.9805 61.8388 78.1565C61.3348 79.7085 61.0348 80.6525 60.9388 80.9885C60.8188 81.4285 60.7588 81.7845 60.7588 82.0565C60.7588 82.2325 60.7988 82.4605 60.8788 82.7405C60.9428 83.0045 60.9868 83.2365 61.0108 83.4365C61.0428 83.6285 61.0548 83.8525 61.0468 84.1085C61.0468 84.3565 60.9908 84.5525 60.8788 84.6965C60.7668 84.8485 60.6148 84.9245 60.4228 84.9245C60.2308 84.9245 60.1108 84.7805 60.0628 84.4925C60.0548 84.3885 60.0548 84.2845 60.0628 84.1805C60.1028 83.7645 60.1228 83.4245 60.1228 83.1605C60.1228 82.5125 60.0468 82.1285 59.8948 82.0085C59.7988 81.9365 59.6868 81.8885 59.5588 81.8645C59.3988 81.8405 59.3188 81.7885 59.3188 81.7085C59.3188 81.6205 59.4028 81.5765 59.5708 81.5765H59.8348C59.9068 81.5765 59.9588 81.5645 59.9908 81.5405C60.0228 81.5085 60.0628 81.4405 60.1108 81.3365C60.1988 81.1605 60.3388 80.8365 60.5308 80.3645C60.7308 79.8845 61.0748 79.0525 61.5628 77.8685L62.2348 76.2245C62.2828 76.0805 62.3428 76.0085 62.4148 76.0085C62.4548 76.0085 62.4828 76.0365 62.4988 76.0925V76.1405C62.4988 76.1885 62.4828 76.2605 62.4508 76.3565C62.5068 76.4365 62.5908 76.4805 62.7028 76.4885C62.9748 76.5125 63.3868 76.5325 63.9388 76.5485H67.8508C67.9788 76.5485 68.0788 76.4925 68.1508 76.3805L68.2828 76.1885C68.3068 76.1565 68.3428 76.1085 68.3908 76.0445C68.4388 75.9725 68.4788 75.9205 68.5108 75.8885C68.5508 75.8485 68.5868 75.8285 68.6188 75.8285C68.6828 75.8285 68.8228 75.9205 69.0388 76.1045C69.2548 76.2805 69.4108 76.4365 69.5068 76.5725C69.5468 76.6285 69.5668 76.6725 69.5668 76.7045C69.5668 76.7525 69.5468 76.7965 69.5068 76.8365C69.4428 76.8765 69.3668 76.8965 69.2788 76.8965H66.3268C66.2468 76.8965 66.1828 76.9205 66.1348 76.9685C66.0948 77.0085 66.0748 77.0685 66.0748 77.1485V79.7645C66.0748 79.8445 66.0948 79.9085 66.1348 79.9565C66.1828 79.9965 66.2468 80.0165 66.3268 80.0165H67.5868C67.7148 80.0165 67.8148 79.9645 67.8868 79.8605L68.0188 79.6685C68.0508 79.6285 68.0828 79.5805 68.1148 79.5245C68.1548 79.4685 68.1948 79.4205 68.2348 79.3805C68.2748 79.3405 68.3108 79.3205 68.3428 79.3205C68.4068 79.3205 68.5428 79.4125 68.7508 79.5965C68.9668 79.7725 69.1228 79.9245 69.2188 80.0525C69.2588 80.0925 69.2788 80.1365 69.2788 80.1845C69.2788 80.2325 69.2548 80.2765 69.2068 80.3165C69.1508 80.3565 69.0748 80.3765 68.9788 80.3765H66.3268C66.2468 80.3765 66.1828 80.4005 66.1348 80.4485C66.0948 80.4885 66.0748 80.5485 66.0748 80.6285V83.9045C66.0748 83.9845 66.0948 84.0445 66.1348 84.0845C66.1828 84.1325 66.2468 84.1565 66.3268 84.1565H67.9948C68.1228 84.1565 68.2228 84.1005 68.2948 83.9885L68.4268 83.7965C68.4508 83.7645 68.4868 83.7165 68.5348 83.6525C68.5828 83.5805 68.6228 83.5285 68.6548 83.4965C68.6948 83.4565 68.7308 83.4365 68.7628 83.4365ZM60.5068 78.4085C60.4348 78.3845 60.3668 78.3125 60.3028 78.1925C60.2068 77.9925 60.0668 77.7925 59.8828 77.5925C59.6988 77.3845 59.4988 77.2005 59.2828 77.0405C59.1468 76.9445 59.0908 76.8765 59.1148 76.8365C59.1388 76.8045 59.1828 76.7885 59.2468 76.7885C59.2948 76.7885 59.3348 76.7925 59.3668 76.8005C59.9268 76.8965 60.3428 77.0605 60.6148 77.2925C60.8868 77.5245 61.0228 77.7605 61.0228 78.0005C61.0228 78.1205 60.9868 78.2245 60.9148 78.3125C60.8428 78.3925 60.7548 78.4325 60.6508 78.4325C60.6188 78.4325 60.5708 78.4245 60.5068 78.4085Z" fill="#421D12"/>
<path d="M51.7709 77.9758C51.7709 78.1358 51.8469 78.2318 51.9989 78.2638C52.7829 78.4398 53.4749 78.6958 54.0749 79.0318C54.6829 79.3678 54.9869 79.7558 54.9869 80.1958C54.9869 80.3318 54.9509 80.4438 54.8789 80.5318C54.8149 80.6198 54.7309 80.6638 54.6269 80.6638C54.4109 80.6638 54.1269 80.4478 53.7749 80.0158C53.3029 79.4158 52.7349 78.9358 52.0709 78.5758C52.0069 78.5438 51.9469 78.5278 51.8909 78.5278C51.8109 78.5278 51.7709 78.5638 51.7709 78.6358L51.7589 80.6038C51.7589 81.9558 51.7789 82.7358 51.8189 82.9438C51.8269 82.9998 51.8509 83.1278 51.8909 83.3278C51.9309 83.5198 51.9509 83.6718 51.9509 83.7838C51.9509 83.9438 51.8989 84.0838 51.7949 84.2038C51.6909 84.3318 51.5949 84.3958 51.5069 84.3958C51.3949 84.3958 51.2869 84.3038 51.1829 84.1198C51.0869 83.9438 51.0069 83.7438 50.9429 83.5198C50.8789 83.2878 50.8469 83.1278 50.8469 83.0398C50.8469 82.9918 50.8629 82.8958 50.8949 82.7518C50.9269 82.5998 50.9509 82.4038 50.9669 82.1638L51.0029 81.1918C51.0189 80.9518 51.0309 80.7198 51.0389 80.4958C51.0469 80.2638 51.0549 80.0478 51.0629 79.8478C51.0869 79.3118 51.0989 78.4958 51.0989 77.3998C51.0989 76.5198 51.0829 75.9398 51.0509 75.6598C51.0269 75.4918 50.9789 75.3638 50.9069 75.2758C50.8349 75.1798 50.7629 75.1078 50.6909 75.0598C50.6269 75.0038 50.5829 74.9678 50.5589 74.9518C50.4949 74.9038 50.4629 74.8638 50.4629 74.8318C50.4629 74.7358 50.5389 74.6718 50.6909 74.6398C50.8429 74.6078 50.9869 74.5918 51.1229 74.5918C51.3949 74.5918 51.6189 74.6798 51.7949 74.8558C51.8829 74.9438 51.9269 75.0478 51.9269 75.1678C51.9269 75.2238 51.9229 75.2718 51.9149 75.3118C51.9069 75.3518 51.8989 75.3878 51.8909 75.4198C51.8829 75.4598 51.8629 75.5718 51.8309 75.7558C51.8069 75.9398 51.7949 76.1438 51.7949 76.3678C51.7949 76.4238 51.7909 76.6078 51.7829 76.9198C51.7749 77.2318 51.7709 77.5838 51.7709 77.9758Z" fill="#421D12"/>
<path d="M36.6029 80.3153C36.3949 80.3153 36.2309 80.2753 36.1109 80.1953C35.9669 80.1153 35.8349 80.0073 35.7149 79.8713C35.6029 79.7352 35.5469 79.5873 35.5469 79.4273C35.5469 79.3393 35.5629 79.2513 35.5949 79.1632C35.6349 79.0752 35.6749 79.0312 35.7149 79.0312C35.7309 79.0312 35.7669 79.0513 35.8229 79.0913C35.9029 79.1553 35.9869 79.2033 36.0749 79.2353C36.3949 79.3393 36.7549 79.3913 37.1549 79.3913C37.4989 79.3833 38.0229 79.3713 38.7269 79.3553C39.4309 79.3313 40.0309 79.3112 40.5269 79.2952C41.5909 79.2552 42.4749 79.2153 43.1789 79.1753C43.5869 79.1512 43.9069 79.1392 44.1389 79.1392C44.4509 79.1392 44.6949 79.1672 44.8709 79.2232C45.0469 79.2792 45.1349 79.4032 45.1349 79.5953C45.1349 79.7873 44.9709 79.8993 44.6429 79.9313C44.4829 79.9473 44.2629 79.9553 43.9829 79.9553L40.5029 80.0393C39.8869 80.0553 39.2149 80.0833 38.4869 80.1233C37.7669 80.1632 37.2989 80.2073 37.0829 80.2553C36.8829 80.2953 36.7229 80.3153 36.6029 80.3153Z" fill="#421D12"/>
<path d="M31.552 75.1211C31.872 75.1211 32.14 75.2331 32.356 75.4571C32.58 75.6811 32.692 75.9491 32.692 76.2611C32.692 76.5811 32.58 76.8531 32.356 77.0771C32.132 77.2931 31.864 77.4011 31.552 77.4011C31.232 77.4011 30.96 77.2931 30.736 77.0771C30.512 76.8531 30.4 76.5811 30.4 76.2611C30.4 75.9411 30.512 75.6731 30.736 75.4571C30.96 75.2331 31.232 75.1211 31.552 75.1211ZM31.552 77.0891C31.784 77.0891 31.98 77.0091 32.14 76.8491C32.3 76.6811 32.38 76.4851 32.38 76.2611C32.38 76.0291 32.296 75.8331 32.128 75.6731C31.968 75.5051 31.776 75.4211 31.552 75.4211C31.32 75.4211 31.12 75.5051 30.952 75.6731C30.792 75.8331 30.712 76.0291 30.712 76.2611C30.712 76.4931 30.792 76.6891 30.952 76.8491C31.12 77.0091 31.32 77.0891 31.552 77.0891ZM30.772 82.4171C30.852 82.4171 30.956 82.4531 31.084 82.5251C31.22 82.5971 31.336 82.6851 31.432 82.7891C31.536 82.8851 31.588 82.9771 31.588 83.0651C31.588 83.4091 30.656 83.5811 28.792 83.5811C27.96 83.5811 27.352 83.5251 26.968 83.4131C26.584 83.2931 26.32 83.0731 26.176 82.7531C26.04 82.4331 25.972 81.9291 25.972 81.2411C25.972 80.6331 25.984 80.0051 26.008 79.3571C26.032 78.8051 26.044 78.3451 26.044 77.9771C26.044 77.6331 26.008 77.3131 25.936 77.0171C25.872 76.7131 25.712 76.4971 25.456 76.3691C25.432 76.3611 25.4 76.3491 25.36 76.3331C25.328 76.3091 25.3 76.2891 25.276 76.2731C25.26 76.2491 25.252 76.2211 25.252 76.1891C25.252 76.1411 25.34 76.0931 25.516 76.0451C25.7 75.9971 25.856 75.9731 25.984 75.9731C26.096 75.9731 26.252 76.0451 26.452 76.1891C26.652 76.3251 26.812 76.4971 26.932 76.7051C27.028 76.8571 27.076 76.9771 27.076 77.0651C27.076 77.1291 27.044 77.2131 26.98 77.3171C26.916 77.4211 26.876 77.5291 26.86 77.6411C26.844 77.7851 26.824 78.0211 26.8 78.3491C26.776 78.6691 26.756 79.0411 26.74 79.4651V79.4891C26.74 79.5531 26.752 79.6051 26.776 79.6451C26.808 79.6851 26.848 79.7051 26.896 79.7051C26.92 79.7051 26.964 79.6891 27.028 79.6571C28.204 79.0011 28.888 78.5131 29.08 78.1931C29.112 78.1371 29.128 78.0891 29.128 78.0491C29.128 77.9851 29.096 77.9331 29.032 77.8931C28.968 77.8531 28.864 77.8091 28.72 77.7611C28.648 77.7371 28.612 77.7011 28.612 77.6531C28.612 77.6131 28.64 77.5851 28.696 77.5691C28.888 77.5051 29.092 77.4731 29.308 77.4731C29.54 77.4731 29.78 77.5171 30.028 77.6051C30.524 77.7731 30.772 77.9931 30.772 78.2651C30.772 78.3611 30.716 78.4411 30.604 78.5051C30.5 78.5611 30.304 78.6331 30.016 78.7211C29.872 78.7691 29.648 78.8691 29.344 79.0211C28.304 79.5091 27.488 79.8491 26.896 80.0411C26.768 80.0731 26.696 80.1651 26.68 80.3171L26.668 80.8571C26.652 81.2091 26.644 81.4411 26.644 81.5531C26.644 81.8491 26.66 82.0851 26.692 82.2611C26.732 82.4291 26.824 82.5651 26.968 82.6691C27.12 82.7731 27.348 82.8251 27.652 82.8251C28.036 82.8251 28.48 82.8051 28.984 82.7651C29.496 82.7171 29.856 82.6651 30.064 82.6091L30.388 82.5131C30.556 82.4491 30.684 82.4171 30.772 82.4171Z" fill="#421D12"/>
<path d="M13.6362 84.5395C13.5962 84.5395 13.5762 84.5235 13.5762 84.4915C13.5762 84.4595 13.6442 84.4075 13.7802 84.3355C14.8282 83.7435 15.6242 83.1035 16.1682 82.4155C16.7202 81.7195 17.0882 80.9715 17.2722 80.1715C17.4642 79.3635 17.5602 78.4035 17.5602 77.2915C17.5602 76.9555 17.5442 76.5315 17.5122 76.0195C17.4962 75.6675 17.4122 75.4235 17.2602 75.2875C17.1722 75.2075 17.0882 75.1515 17.0082 75.1195C16.9282 75.0795 16.8722 75.0515 16.8402 75.0355C16.8162 75.0115 16.8042 74.9795 16.8042 74.9395C16.8042 74.8275 16.9602 74.7715 17.2722 74.7715C17.3842 74.7715 17.4962 74.7795 17.6082 74.7955C17.8082 74.8435 18.0202 74.9595 18.2442 75.1435C18.4682 75.3275 18.5802 75.4835 18.5802 75.6115C18.5802 75.6755 18.5522 75.7635 18.4962 75.8755C18.4882 75.8915 18.4642 75.9475 18.4242 76.0435C18.3922 76.1395 18.3762 76.2475 18.3762 76.3675C18.3762 76.7115 18.3682 77.1155 18.3522 77.5795C18.3042 78.8755 18.1362 79.9435 17.8482 80.7835C17.5602 81.6235 17.0962 82.3355 16.4562 82.9195C15.8242 83.4955 14.9442 84.0195 13.8162 84.4915C13.7362 84.5235 13.6762 84.5395 13.6362 84.5395ZM15.0402 80.4235C14.9442 80.4235 14.8482 80.3435 14.7522 80.1835C14.6562 80.0235 14.6082 79.8315 14.6082 79.6075C14.6082 79.5835 14.6202 79.4275 14.6442 79.1395C14.6682 78.8435 14.6802 78.5875 14.6802 78.3715C14.6802 77.5635 14.6482 76.9835 14.5842 76.6315C14.5602 76.4795 14.5242 76.3595 14.4762 76.2715C14.4362 76.1835 14.3642 76.1115 14.2602 76.0555C14.1882 76.0155 14.1282 75.9795 14.0802 75.9475C14.0322 75.9155 14.0082 75.8795 14.0082 75.8395C14.0082 75.7835 14.0602 75.7355 14.1642 75.6955C14.2682 75.6475 14.3842 75.6235 14.5122 75.6235C14.6242 75.6235 14.7162 75.6395 14.7882 75.6715C15.0522 75.7675 15.2322 75.8675 15.3282 75.9715C15.4322 76.0755 15.4842 76.1995 15.4842 76.3435C15.4842 76.4395 15.4722 76.5475 15.4482 76.6675C15.4082 76.8835 15.3882 77.2995 15.3882 77.9155L15.4002 78.8515C15.4002 79.0115 15.4082 79.2035 15.4242 79.4275C15.4402 79.6195 15.4482 79.7395 15.4482 79.7875C15.4482 79.9475 15.4122 80.0955 15.3402 80.2315C15.2682 80.3595 15.1682 80.4235 15.0402 80.4235Z" fill="#421D12"/>
</svg>
