<svg width="273" height="110" viewBox="0 0 273 110" fill="none" xmlns="http://www.w3.org/2000/svg">
<path d="M0 6C0 2.68629 2.68629 0 6 0H267C270.314 0 273 2.68629 273 6V104C273 107.314 270.314 110 267 110H6C2.68629 110 0 107.314 0 104V6Z" fill="white"/>
<path d="M183.242 27.7031C183.466 27.7031 183.746 27.7451 184.082 27.8291C184.418 27.9131 184.717 28.0485 184.978 28.2351C185.24 28.4218 185.37 28.6598 185.37 28.9491C185.37 29.0891 185.324 29.1965 185.23 29.2711C185.146 29.3458 185.053 29.3831 184.95 29.3831C184.736 29.3831 184.563 29.2758 184.432 29.0611C184.274 28.8091 184.129 28.6178 183.998 28.4871C183.868 28.3471 183.681 28.2118 183.438 28.0811C183.364 28.0345 183.294 28.0018 183.228 27.9831C183.163 27.9551 183.107 27.9271 183.06 27.8991C183.014 27.8711 182.99 27.8431 182.99 27.8151C182.99 27.7405 183.074 27.7031 183.242 27.7031ZM181.954 28.6691C182.076 28.6691 182.309 28.7205 182.654 28.8231C183.009 28.9165 183.331 29.0705 183.62 29.2851C183.919 29.4905 184.068 29.7611 184.068 30.0971C184.068 30.2651 184.022 30.3911 183.928 30.4751C183.844 30.5498 183.737 30.5871 183.606 30.5871C183.513 30.5871 183.41 30.5591 183.298 30.5031C183.196 30.4378 183.116 30.3398 183.06 30.2091C182.939 29.9291 182.808 29.6958 182.668 29.5091C182.528 29.3225 182.337 29.1591 182.094 29.0191C182.057 29.0005 182.006 28.9771 181.94 28.9491C181.875 28.9118 181.828 28.8791 181.8 28.8511C181.772 28.8231 181.758 28.7951 181.758 28.7671C181.758 28.7018 181.824 28.6691 181.954 28.6691ZM179.854 33.8491C179.798 33.9145 179.77 33.9751 179.77 34.0311C179.77 34.1245 179.826 34.1991 179.938 34.2551C180.816 34.6471 181.618 35.1231 182.346 35.6831C183.074 36.2431 183.438 36.7798 183.438 37.2931C183.438 37.4611 183.387 37.6105 183.284 37.7411C183.182 37.8718 183.065 37.9371 182.934 37.9371C182.804 37.9371 182.668 37.8811 182.528 37.7691C182.388 37.6478 182.262 37.4798 182.15 37.2651C181.833 36.6585 181.464 36.1125 181.044 35.6271C180.624 35.1418 180.176 34.7405 179.7 34.4231C179.654 34.3858 179.598 34.3671 179.532 34.3671C179.448 34.3671 179.369 34.4091 179.294 34.4931C178.501 35.3891 177.624 36.2058 176.662 36.9431C175.701 37.6711 174.679 38.2591 173.596 38.7071C173.55 38.7258 173.512 38.7351 173.484 38.7351C173.428 38.7351 173.4 38.7118 173.4 38.6651C173.4 38.6278 173.447 38.5811 173.54 38.5251C174.567 37.9838 175.57 37.2371 176.55 36.2851C177.54 35.3331 178.38 34.3765 179.07 33.4151C179.77 32.4538 180.228 31.6931 180.442 31.1331L180.47 31.0211C180.47 30.9651 180.424 30.9371 180.33 30.9371C180.144 30.9371 179.612 31.0538 178.734 31.2871C177.857 31.5205 177.274 31.7025 176.984 31.8331C176.947 31.8518 176.886 31.8845 176.802 31.9311C176.718 31.9778 176.63 32.0011 176.536 32.0011C176.303 32.0011 176.088 31.9265 175.892 31.7771C175.696 31.6185 175.542 31.4365 175.43 31.2311C175.318 31.0258 175.262 30.8625 175.262 30.7411C175.262 30.6198 175.295 30.5591 175.36 30.5591C175.388 30.5591 175.444 30.5918 175.528 30.6571C175.622 30.7131 175.724 30.7598 175.836 30.7971C175.986 30.8531 176.158 30.8811 176.354 30.8811C176.55 30.8811 177.166 30.8018 178.202 30.6431C179.238 30.4751 179.896 30.3491 180.176 30.2651C180.316 30.2278 180.461 30.1671 180.61 30.0831C180.797 29.9991 180.914 29.9571 180.96 29.9571C181.054 29.9571 181.194 30.0178 181.38 30.1391C181.576 30.2511 181.744 30.3865 181.884 30.5451C182.034 30.6945 182.108 30.8251 182.108 30.9371C182.108 31.0025 182.08 31.0631 182.024 31.1191C181.968 31.1658 181.875 31.2405 181.744 31.3431C181.548 31.4738 181.427 31.5811 181.38 31.6651C180.904 32.4398 180.396 33.1678 179.854 33.8491Z" fill="#421D12"/>
<path d="M167.114 28.4021C167.263 28.4767 167.398 28.5887 167.52 28.7381C167.65 28.8781 167.716 29.0087 167.716 29.1301C167.716 29.1954 167.702 29.2421 167.674 29.2701C167.655 29.2887 167.613 29.3167 167.548 29.3541C167.538 29.3634 167.501 29.3914 167.436 29.4381C167.37 29.4754 167.31 29.5314 167.254 29.6061C166.824 30.2407 166.32 30.8941 165.742 31.5661C165.676 31.6501 165.644 31.7154 165.644 31.7621C165.644 31.8367 165.695 31.8974 165.798 31.9441C165.835 31.9627 165.877 31.9861 165.924 32.0141C165.97 32.0327 166.022 32.0607 166.078 32.0981C166.218 32.1821 166.288 32.3034 166.288 32.4621C166.288 32.5461 166.264 32.6721 166.218 32.8401C166.152 33.1667 166.12 33.3814 166.12 33.4841L166.106 35.3321C166.106 36.7134 166.129 37.6047 166.176 38.0061C166.204 38.2301 166.218 38.4307 166.218 38.6081C166.218 39.0747 166.078 39.3081 165.798 39.3081C165.583 39.3081 165.42 39.2334 165.308 39.0841C165.205 38.9347 165.154 38.7201 165.154 38.4401C165.154 37.9547 165.168 37.4741 165.196 36.9981C165.214 36.4007 165.224 35.9574 165.224 35.6681L165.21 33.3721C165.21 33.1014 165.186 32.8774 165.14 32.7001C165.112 32.5881 165.046 32.5321 164.944 32.5321C164.869 32.5321 164.799 32.5647 164.734 32.6301C163.418 33.9181 161.999 34.9354 160.478 35.6821C160.366 35.7381 160.277 35.7661 160.212 35.7661C160.137 35.7661 160.1 35.7474 160.1 35.7101C160.1 35.6447 160.193 35.5514 160.38 35.4301C161.574 34.5621 162.62 33.6801 163.516 32.7841C164.412 31.8787 165.093 31.0761 165.56 30.3761C166.036 29.6667 166.274 29.1767 166.274 28.9061C166.274 28.7194 166.227 28.5747 166.134 28.4721C166.096 28.4347 166.054 28.3974 166.008 28.3601C165.961 28.3227 165.938 28.2947 165.938 28.2761C165.938 28.2014 166.008 28.1641 166.148 28.1641C166.484 28.1641 166.806 28.2434 167.114 28.4021Z" fill="#421D12"/>
<path d="M155.718 31.2867C155.877 31.2867 156.064 31.3334 156.278 31.4267C156.502 31.5107 156.694 31.6227 156.852 31.7627C157.011 31.8934 157.09 32.0287 157.09 32.1687C157.09 32.2714 157.053 32.3414 156.978 32.3787C156.913 32.4067 156.82 32.4207 156.698 32.4207C156.484 32.4207 156.292 32.4067 156.124 32.3787C155.602 32.3041 154.734 32.2667 153.52 32.2667H153.058C152.872 32.2854 152.774 32.3881 152.764 32.5747C152.699 33.9001 152.512 35.0247 152.204 35.9487C151.896 36.8634 151.462 37.6287 150.902 38.2447C150.342 38.8607 149.642 39.3787 148.802 39.7987C148.709 39.8454 148.639 39.8687 148.592 39.8687C148.527 39.8687 148.494 39.8454 148.494 39.7987C148.494 39.7334 148.574 39.6541 148.732 39.5607C149.778 38.8607 150.548 37.9461 151.042 36.8167C151.546 35.6781 151.826 34.2781 151.882 32.6167V32.5887C151.882 32.4114 151.794 32.3227 151.616 32.3227C151.486 32.3227 151.374 32.3274 151.28 32.3367C151.187 32.3461 151.112 32.3554 151.056 32.3647C150.842 32.3834 150.501 32.4207 150.034 32.4767C149.848 32.4954 149.754 32.6074 149.754 32.8127C149.764 33.5594 149.782 34.2034 149.81 34.7447C149.82 34.8287 149.824 34.9267 149.824 35.0387C149.824 35.5241 149.698 35.7667 149.446 35.7667C149.39 35.7667 149.32 35.7247 149.236 35.6407C149.152 35.5474 149.078 35.4214 149.012 35.2627C148.947 35.1041 148.914 34.9267 148.914 34.7307C148.914 34.6841 148.928 34.4927 148.956 34.1567C148.984 33.8114 148.998 33.5081 148.998 33.2467V32.9107C148.998 32.8174 148.966 32.7474 148.9 32.7007C148.844 32.6447 148.765 32.6261 148.662 32.6447C147.766 32.7754 147.094 32.8967 146.646 33.0087C146.45 33.0647 146.278 33.0927 146.128 33.0927C145.979 33.0927 145.802 33.0367 145.596 32.9247C145.391 32.8127 145.209 32.6681 145.05 32.4907C144.901 32.3041 144.826 32.1454 144.826 32.0147C144.826 31.9587 144.854 31.9307 144.91 31.9307C144.966 31.9307 145.088 31.9821 145.274 32.0847C145.368 32.1407 145.531 32.1921 145.764 32.2387C146.007 32.2854 146.278 32.3087 146.576 32.3087C146.8 32.3087 147.5 32.2387 148.676 32.0987C148.882 32.0801 148.975 31.9727 148.956 31.7767C148.928 31.2541 148.9 30.9321 148.872 30.8107C148.788 30.4001 148.536 30.1434 148.116 30.0407C148.107 30.0407 148.056 30.0314 147.962 30.0127C147.878 29.9847 147.836 29.9474 147.836 29.9007C147.836 29.8447 147.911 29.7934 148.06 29.7467C148.219 29.6907 148.373 29.6627 148.522 29.6627C148.886 29.6627 149.208 29.7234 149.488 29.8447C149.768 29.9567 149.908 30.0967 149.908 30.2647C149.908 30.3207 149.88 30.4094 149.824 30.5307C149.778 30.6521 149.754 30.7454 149.754 30.8107V31.6787C149.754 31.8841 149.857 31.9774 150.062 31.9587L151.126 31.8607L151.616 31.8327C151.803 31.8141 151.896 31.7161 151.896 31.5387C151.896 30.8107 151.873 30.2414 151.826 29.8307C151.78 29.4761 151.686 29.2007 151.546 29.0047C151.406 28.8087 151.182 28.6501 150.874 28.5287C150.781 28.4914 150.734 28.4541 150.734 28.4167C150.734 28.3794 150.767 28.3421 150.832 28.3047C151 28.1927 151.192 28.1367 151.406 28.1367C151.556 28.1367 151.766 28.1834 152.036 28.2767C152.316 28.3607 152.559 28.4727 152.764 28.6127C152.97 28.7434 153.072 28.8787 153.072 29.0187C153.072 29.1214 153.04 29.2381 152.974 29.3687C152.9 29.4994 152.853 29.6301 152.834 29.7607C152.806 29.9474 152.792 30.2881 152.792 30.7827V31.4687C152.792 31.5621 152.816 31.6367 152.862 31.6927C152.918 31.7487 152.993 31.7721 153.086 31.7627L154.556 31.6647C154.724 31.6461 154.939 31.5761 155.2 31.4547C155.424 31.3427 155.597 31.2867 155.718 31.2867Z" fill="#421D12"/>
<path d="M136.313 31.9714C136.313 32.1581 136.402 32.2701 136.579 32.3074C137.494 32.5128 138.301 32.8114 139.001 33.2034C139.71 33.5954 140.065 34.0481 140.065 34.5614C140.065 34.7201 140.023 34.8508 139.939 34.9534C139.864 35.0561 139.766 35.1074 139.645 35.1074C139.393 35.1074 139.062 34.8554 138.651 34.3514C138.1 33.6514 137.438 33.0914 136.663 32.6714C136.588 32.6341 136.518 32.6154 136.453 32.6154C136.36 32.6154 136.313 32.6574 136.313 32.7414L136.299 35.0374C136.299 36.6148 136.322 37.5248 136.369 37.7674C136.378 37.8328 136.406 37.9821 136.453 38.2154C136.5 38.4394 136.523 38.6168 136.523 38.7474C136.523 38.9341 136.462 39.0974 136.341 39.2374C136.22 39.3868 136.108 39.4614 136.005 39.4614C135.874 39.4614 135.748 39.3541 135.627 39.1394C135.515 38.9341 135.422 38.7008 135.347 38.4394C135.272 38.1688 135.235 37.9821 135.235 37.8794C135.235 37.8234 135.254 37.7114 135.291 37.5434C135.328 37.3661 135.356 37.1374 135.375 36.8574L135.417 35.7234C135.436 35.4434 135.45 35.1728 135.459 34.9114C135.468 34.6408 135.478 34.3888 135.487 34.1554C135.515 33.5301 135.529 32.5781 135.529 31.2994C135.529 30.2728 135.51 29.5961 135.473 29.2694C135.445 29.0734 135.389 28.9241 135.305 28.8214C135.221 28.7094 135.137 28.6254 135.053 28.5694C134.978 28.5041 134.927 28.4621 134.899 28.4434C134.824 28.3874 134.787 28.3408 134.787 28.3034C134.787 28.1914 134.876 28.1168 135.053 28.0794C135.23 28.0421 135.398 28.0234 135.557 28.0234C135.874 28.0234 136.136 28.1261 136.341 28.3314C136.444 28.4341 136.495 28.5554 136.495 28.6954C136.495 28.7608 136.49 28.8168 136.481 28.8634C136.472 28.9101 136.462 28.9521 136.453 28.9894C136.444 29.0361 136.42 29.1668 136.383 29.3814C136.355 29.5961 136.341 29.8341 136.341 30.0954C136.341 30.1608 136.336 30.3754 136.327 30.7394C136.318 31.1034 136.313 31.5141 136.313 31.9714Z" fill="#421D12"/>
<path d="M118.619 34.7011C118.376 34.7011 118.185 34.6545 118.045 34.5611C117.877 34.4678 117.723 34.3418 117.583 34.1831C117.452 34.0245 117.387 33.8518 117.387 33.6651C117.387 33.5625 117.405 33.4598 117.443 33.3571C117.489 33.2545 117.536 33.2031 117.583 33.2031C117.601 33.2031 117.643 33.2265 117.709 33.2731C117.802 33.3478 117.9 33.4038 118.003 33.4411C118.376 33.5625 118.796 33.6231 119.263 33.6231C119.664 33.6138 120.275 33.5998 121.097 33.5811C121.918 33.5531 122.618 33.5298 123.197 33.5111C124.438 33.4645 125.469 33.4178 126.291 33.3711C126.767 33.3431 127.14 33.3291 127.411 33.3291C127.775 33.3291 128.059 33.3618 128.265 33.4271C128.47 33.4925 128.573 33.6371 128.573 33.8611C128.573 34.0851 128.381 34.2158 127.999 34.2531C127.812 34.2718 127.555 34.2811 127.229 34.2811L123.169 34.3791C122.45 34.3978 121.666 34.4305 120.817 34.4771C119.977 34.5238 119.431 34.5751 119.179 34.6311C118.945 34.6778 118.759 34.7011 118.619 34.7011Z" fill="#421D12"/>
<path d="M106.578 37.6556C106.456 37.6556 106.321 37.5903 106.172 37.4596C106.022 37.329 105.887 37.1843 105.766 37.0256C105.654 36.8576 105.598 36.7456 105.598 36.6896C105.598 36.6523 105.612 36.601 105.64 36.5356C105.677 36.461 105.7 36.3816 105.71 36.2976C105.775 35.7936 105.808 35.117 105.808 34.2676C105.808 33.2036 105.752 32.2236 105.64 31.3276C105.612 31.0476 105.42 30.9076 105.066 30.9076C105.01 30.9076 104.958 30.903 104.912 30.8936C104.865 30.8843 104.842 30.8656 104.842 30.8376C104.842 30.7256 104.912 30.6463 105.052 30.5996C105.192 30.5436 105.336 30.5156 105.486 30.5156C105.644 30.5156 105.84 30.5483 106.074 30.6136C106.316 30.679 106.526 30.7676 106.704 30.8796C106.881 30.9916 106.97 31.1083 106.97 31.2296C106.97 31.3323 106.928 31.4443 106.844 31.5656C106.778 31.6683 106.727 31.7616 106.69 31.8456C106.652 31.9296 106.634 32.051 106.634 32.2096L106.606 32.9516C106.578 33.9876 106.564 34.585 106.564 34.7436C106.564 35.1916 106.578 35.579 106.606 35.9056C106.615 35.999 106.629 36.0736 106.648 36.1296C106.676 36.1763 106.718 36.1996 106.774 36.1996C106.904 36.1996 107.38 35.999 108.202 35.5976C109.032 35.1963 109.975 34.6363 111.03 33.9176C112.084 33.1896 113.074 32.3356 113.998 31.3556C114.11 31.2436 114.194 31.1876 114.25 31.1876C114.278 31.1876 114.292 31.211 114.292 31.2576C114.292 31.323 114.24 31.421 114.138 31.5516C113.036 32.9423 111.828 34.1136 110.512 35.0656C109.205 36.0083 108.16 36.6803 107.376 37.0816C107.301 37.119 107.189 37.2123 107.04 37.3616C106.956 37.455 106.876 37.5296 106.802 37.5856C106.736 37.6323 106.662 37.6556 106.578 37.6556Z" fill="#421D12"/>
<path d="M100.389 30.0116C100.016 30.0116 99.6986 29.8856 99.4373 29.6336C99.1759 29.3722 99.0452 29.0549 99.0452 28.6816C99.0452 28.3082 99.1759 27.9956 99.4373 27.7436C99.6986 27.4822 100.016 27.3516 100.389 27.3516C100.763 27.3516 101.075 27.4822 101.327 27.7436C101.589 28.0049 101.719 28.3176 101.719 28.6816C101.719 29.0549 101.589 29.3722 101.327 29.6336C101.066 29.8856 100.753 30.0116 100.389 30.0116ZM100.389 29.6476C100.66 29.6476 100.889 29.5542 101.075 29.3676C101.262 29.1716 101.355 28.9429 101.355 28.6816C101.355 28.4109 101.257 28.1822 101.061 27.9956C100.875 27.7996 100.651 27.7016 100.389 27.7016C100.119 27.7016 99.8853 27.7996 99.6893 27.9956C99.5026 28.1822 99.4093 28.4109 99.4093 28.6816C99.4093 28.9522 99.5026 29.1809 99.6893 29.3676C99.8853 29.5542 100.119 29.6476 100.389 29.6476ZM90.3793 39.1256C90.3139 39.1256 90.2812 39.1022 90.2812 39.0556C90.2812 38.9902 90.3746 38.9109 90.5613 38.8176C92.1666 38.0429 93.5339 37.0816 94.6632 35.9336C95.7926 34.7856 96.6466 33.6982 97.2253 32.6716C97.8133 31.6449 98.1166 30.9496 98.1353 30.5856C98.1353 30.5016 98.0886 30.4596 97.9953 30.4596C97.8926 30.4596 97.4959 30.5016 96.8052 30.5856C96.1239 30.6696 95.3819 30.7816 94.5793 30.9216C93.7766 31.0616 93.0766 31.2156 92.4793 31.3836C92.2646 31.4396 92.0779 31.4676 91.9193 31.4676C91.6019 31.4676 91.3499 31.3882 91.1632 31.2296C91.0326 31.1176 90.9112 30.9589 90.7992 30.7536C90.6966 30.5389 90.6453 30.3709 90.6453 30.2496C90.6453 30.1562 90.6919 30.1096 90.7853 30.1096C90.8599 30.1096 90.9719 30.1422 91.1212 30.2076C91.4292 30.3289 91.7326 30.3896 92.0312 30.3896C92.2459 30.3896 93.0766 30.3336 94.5233 30.2216C95.9699 30.1096 96.8239 30.0162 97.0853 29.9416C97.2159 29.9042 97.3839 29.8436 97.5893 29.7596C97.9066 29.6196 98.1259 29.5496 98.2473 29.5496C98.3593 29.5496 98.5226 29.6196 98.7372 29.7596C98.9519 29.8996 99.1433 30.0629 99.3113 30.2496C99.4886 30.4269 99.5772 30.5809 99.5772 30.7116C99.5772 30.8142 99.5446 30.9122 99.4792 31.0056C99.4232 31.0989 99.3346 31.2062 99.2133 31.3276C99.1946 31.3556 99.1246 31.4396 99.0033 31.5796C98.8913 31.7102 98.7886 31.8596 98.6953 32.0276C98.0606 33.2409 97.3466 34.2769 96.5532 35.1356C95.7599 35.9942 94.8919 36.7222 93.9493 37.3196C93.0066 37.9169 91.8959 38.4956 90.6172 39.0556C90.5053 39.1022 90.4259 39.1256 90.3793 39.1256Z" fill="#421D12"/>
<path d="M221.163 62.3008C221.536 62.3541 221.829 62.4408 222.043 62.5608C222.256 62.6808 222.363 62.8874 222.363 63.1808C222.363 63.6074 222.083 63.8208 221.523 63.8208C221.323 63.8208 220.969 63.7808 220.463 63.7008C219.036 63.5141 217.903 63.4208 217.063 63.4208C216.636 63.4208 216.323 63.4274 216.123 63.4408C215.869 63.4541 215.729 63.6008 215.703 63.8808C215.676 64.9208 215.663 65.7008 215.663 66.2208V67.0808C215.676 67.2674 215.729 67.4408 215.823 67.6008C216.049 68.0541 216.229 68.5474 216.363 69.0808C216.496 69.6008 216.563 70.1074 216.563 70.6008C216.563 71.6674 216.303 72.5874 215.783 73.3608C215.263 74.1208 214.636 74.7208 213.903 75.1608C213.183 75.6008 212.463 75.9074 211.743 76.0808C211.649 76.1074 211.583 76.1208 211.543 76.1208C211.449 76.1208 211.403 76.0874 211.403 76.0208C211.403 75.9274 211.469 75.8541 211.603 75.8008C212.496 75.4141 213.196 74.9274 213.703 74.3408C214.209 73.7541 214.556 73.1808 214.743 72.6208C214.929 72.0608 215.029 71.5741 215.043 71.1608C215.043 71.1341 215.003 71.1608 214.923 71.2408C214.843 71.3074 214.749 71.3741 214.643 71.4408C214.496 71.5474 214.343 71.6341 214.183 71.7008C214.023 71.7541 213.883 71.7808 213.763 71.7808C213.389 71.7808 213.056 71.6408 212.763 71.3608C212.483 71.0674 212.249 70.7208 212.063 70.3208C211.903 69.9741 211.769 69.6074 211.663 69.2208C211.569 68.8341 211.523 68.4741 211.523 68.1408C211.523 67.4874 211.709 66.9341 212.083 66.4808C212.469 66.0141 212.969 65.7808 213.583 65.7808C213.756 65.7808 213.916 65.8074 214.063 65.8608C214.169 65.8874 214.236 65.9008 214.263 65.9008C214.436 65.9008 214.529 65.8008 214.543 65.6008C214.609 64.9474 214.649 64.4408 214.663 64.0808C214.663 63.9341 214.616 63.8274 214.523 63.7608C214.443 63.6808 214.336 63.6541 214.203 63.6808C213.109 63.9074 211.823 64.3474 210.343 65.0008C209.769 65.3074 209.249 65.4608 208.783 65.4608C208.409 65.4608 208.036 65.3541 207.663 65.1408C207.369 64.9674 207.069 64.7141 206.763 64.3808C206.456 64.0341 206.303 63.7874 206.303 63.6408C206.303 63.5741 206.349 63.5408 206.443 63.5408C206.523 63.5408 206.723 63.5808 207.043 63.6608C207.576 63.7541 207.983 63.8008 208.263 63.8008C208.783 63.8008 209.256 63.7474 209.683 63.6408C210.523 63.4541 212.049 63.1808 214.263 62.8208C214.516 62.7808 214.643 62.6408 214.643 62.4008C214.643 62.1341 214.616 61.6808 214.563 61.0408C214.536 60.6941 214.449 60.3808 214.303 60.1008C214.169 59.8208 214.016 59.6208 213.843 59.5008C213.749 59.4341 213.649 59.3674 213.543 59.3008C213.449 59.2341 213.403 59.1808 213.403 59.1408C213.403 59.0474 213.496 58.9674 213.683 58.9008C213.869 58.8341 214.043 58.8008 214.203 58.8008C214.456 58.8008 214.716 58.8541 214.983 58.9608C215.716 59.2274 216.083 59.6141 216.083 60.1208C216.083 60.2008 216.076 60.2674 216.063 60.3208C216.049 60.3608 216.043 60.4141 216.043 60.4808C216.043 60.6274 216.123 60.7541 216.283 60.8608C216.883 61.1808 217.403 61.4408 217.843 61.6408C218.283 61.8274 218.709 61.9541 219.123 62.0208C219.563 62.1408 220.076 62.2141 220.663 62.2408L221.163 62.3008ZM216.963 62.4608C217.029 62.4608 217.123 62.4608 217.243 62.4608C217.376 62.4474 217.469 62.4341 217.523 62.4208C217.589 62.3941 217.623 62.3608 217.623 62.3208C217.623 62.2674 217.576 62.2141 217.483 62.1608C217.403 62.1074 217.349 62.0674 217.323 62.0408C217.163 61.9474 216.843 61.7341 216.363 61.4008C216.269 61.3474 216.183 61.3208 216.103 61.3208C215.929 61.3208 215.836 61.4274 215.823 61.6408C215.796 61.8808 215.783 62.0541 215.783 62.1608C215.783 62.4408 215.983 62.5608 216.383 62.5208C216.516 62.4941 216.629 62.4808 216.723 62.4808C216.816 62.4808 216.896 62.4741 216.963 62.4608ZM213.563 70.1408C213.856 70.1408 214.089 70.0141 214.263 69.7608C214.449 69.5074 214.543 69.1341 214.543 68.6408C214.543 68.1608 214.436 67.6741 214.223 67.1808C214.009 66.6741 213.703 66.4208 213.303 66.4208C212.956 66.4208 212.669 66.5941 212.443 66.9408C212.229 67.2874 212.123 67.7008 212.123 68.1808C212.123 68.6341 212.269 69.0741 212.563 69.5008C212.869 69.9274 213.203 70.1408 213.563 70.1408Z" fill="#421D12"/>
<path d="M195.623 71.6008C195.637 71.8274 195.757 71.9808 195.983 72.0608C196.89 72.3808 197.63 72.7674 198.203 73.2208C198.79 73.6741 199.083 74.1808 199.083 74.7408C199.083 74.9808 199.023 75.1541 198.903 75.2608C198.783 75.3674 198.657 75.4208 198.523 75.4208C198.257 75.4208 197.937 75.2474 197.563 74.9008C197.11 74.4741 196.617 74.0408 196.083 73.6008C195.977 73.5341 195.897 73.5008 195.843 73.5008C195.71 73.5008 195.603 73.6008 195.523 73.8008C195.297 74.3741 194.91 74.8208 194.363 75.1408C193.83 75.4608 193.177 75.6208 192.403 75.6208C191.59 75.6208 190.863 75.4408 190.223 75.0808C189.597 74.7208 189.283 74.2074 189.283 73.5408C189.283 73.0741 189.443 72.6808 189.763 72.3608C190.097 72.0274 190.51 71.7808 191.003 71.6208C191.51 71.4474 192.017 71.3608 192.523 71.3608C192.937 71.3608 193.383 71.4074 193.863 71.5008L193.983 71.5208C194.223 71.5208 194.33 71.3874 194.303 71.1208L194.163 68.9008C194.137 68.6208 193.983 68.5008 193.703 68.5408C193.143 68.6074 192.677 68.6408 192.303 68.6408C191.543 68.6408 190.877 68.4808 190.303 68.1608C189.73 67.8408 189.323 67.4074 189.083 66.8608C189.043 66.7408 189.023 66.6674 189.023 66.6408C189.023 66.5741 189.05 66.5408 189.103 66.5408C189.143 66.5408 189.19 66.5608 189.243 66.6008C189.297 66.6408 189.337 66.6674 189.363 66.6808C189.59 66.8274 189.95 66.9941 190.443 67.1808C190.937 67.3674 191.47 67.4608 192.043 67.4608C192.563 67.4608 193.11 67.4141 193.683 67.3208C193.95 67.2808 194.083 67.1608 194.083 66.9608C194.083 66.1074 194.103 65.2741 194.143 64.4608V64.3408C194.143 64.1274 194.103 64.0208 194.023 64.0208C193.583 64.0208 193.21 63.9541 192.903 63.8208C192.623 63.6874 192.337 63.5008 192.043 63.2608C191.75 63.0074 191.53 62.7808 191.383 62.5808C191.277 62.3941 191.223 62.2874 191.223 62.2608C191.223 62.2074 191.25 62.1808 191.303 62.1808C191.357 62.1808 191.477 62.2208 191.663 62.3008C191.73 62.3408 191.87 62.4141 192.083 62.5208C192.297 62.6274 192.497 62.7074 192.683 62.7608C192.883 62.8141 193.09 62.8408 193.303 62.8408C193.53 62.8408 193.757 62.8141 193.983 62.7608C194.223 62.7208 194.363 62.5808 194.403 62.3408C194.47 61.9674 194.503 61.6208 194.503 61.3008C194.503 60.8474 194.417 60.4408 194.243 60.0808C194.163 59.9074 194.017 59.7008 193.803 59.4608C193.737 59.3941 193.677 59.3274 193.623 59.2608C193.583 59.1941 193.563 59.1341 193.563 59.0808C193.563 59.0008 193.617 58.9341 193.723 58.8808C193.83 58.8274 193.957 58.8008 194.103 58.8008C194.303 58.8008 194.543 58.8541 194.823 58.9608C195.117 59.0674 195.37 59.2341 195.583 59.4608C195.797 59.6874 195.903 59.9674 195.903 60.3008C195.903 60.4341 195.87 60.6074 195.803 60.8208C195.75 61.0208 195.69 61.2208 195.623 61.4208C195.517 61.7408 195.443 61.9808 195.403 62.1408V62.1808C195.403 62.3008 195.483 62.3608 195.643 62.3608C195.697 62.3608 195.777 62.3474 195.883 62.3208C196.017 62.2808 196.123 62.2474 196.203 62.2208C196.283 62.1941 196.35 62.1741 196.403 62.1608C196.59 62.1074 196.723 62.0808 196.803 62.0808C196.977 62.0808 197.117 62.1274 197.223 62.2208C197.33 62.3008 197.383 62.4208 197.383 62.5808C197.383 62.7408 197.323 62.9008 197.203 63.0608C197.083 63.2208 196.917 63.3474 196.703 63.4408C196.303 63.6141 195.897 63.7408 195.483 63.8208C195.23 63.8874 195.097 64.0341 195.083 64.2608C195.043 64.8208 195.023 65.3674 195.023 65.9008C195.01 66.0474 195.003 66.1808 195.003 66.3008C195.017 66.4074 195.023 66.5008 195.023 66.5808C195.023 66.8341 195.13 66.9608 195.343 66.9608L195.503 66.9208C195.903 66.7874 196.243 66.6274 196.523 66.4408C196.723 66.3074 196.823 66.1608 196.823 66.0008C196.823 65.8808 196.763 65.7474 196.643 65.6008C196.537 65.4541 196.47 65.3608 196.443 65.3208C196.31 65.1608 196.23 65.0541 196.203 65.0008C196.097 64.8274 196.043 64.7274 196.043 64.7008C196.043 64.6608 196.063 64.6408 196.103 64.6408C196.157 64.6408 196.277 64.7141 196.463 64.8608C196.837 65.1541 197.243 65.3274 197.683 65.3808C197.763 65.3941 197.923 65.4141 198.163 65.4408C198.403 65.4674 198.577 65.5408 198.683 65.6608C198.777 65.7541 198.823 65.9074 198.823 66.1208C198.823 66.3608 198.75 66.6008 198.603 66.8408C198.47 67.0674 198.25 67.2474 197.943 67.3808C197.397 67.6474 196.57 67.9141 195.463 68.1808C195.21 68.2608 195.103 68.4741 195.143 68.8208C195.197 69.2474 195.263 69.6874 195.343 70.1408C195.437 70.5941 195.497 70.9008 195.523 71.0608L195.623 71.6008ZM191.983 74.5008C192.61 74.5008 193.13 74.3674 193.543 74.1008C193.97 73.8208 194.237 73.4341 194.343 72.9408V72.8408C194.343 72.6274 194.243 72.4941 194.043 72.4408C193.51 72.2541 192.95 72.1608 192.363 72.1608C191.75 72.1608 191.21 72.2808 190.743 72.5208C190.277 72.7474 190.043 73.0608 190.043 73.4608C190.043 73.7408 190.223 73.9874 190.583 74.2008C190.957 74.4008 191.423 74.5008 191.983 74.5008Z" fill="#421D12"/>
<path d="M181.564 63.9404C181.31 63.9404 181.084 63.8271 180.884 63.6004C180.59 63.2671 180.337 63.0271 180.124 62.8804C179.91 62.7204 179.61 62.5737 179.224 62.4404C179.13 62.4004 179.004 62.3671 178.844 62.3404C178.737 62.3004 178.684 62.2471 178.684 62.1804C178.684 62.1004 178.73 62.0537 178.824 62.0404C178.957 62.0004 179.124 61.9671 179.324 61.9404C179.537 61.9137 179.71 61.9004 179.844 61.9004C180.444 61.9004 180.99 62.0271 181.484 62.2804C181.99 62.5204 182.244 62.8604 182.244 63.3004C182.244 63.5004 182.177 63.6604 182.044 63.7804C181.91 63.8871 181.75 63.9404 181.564 63.9404ZM179.944 65.7804C179.637 65.7804 179.397 65.6471 179.224 65.3804C178.957 65.0071 178.69 64.7071 178.424 64.4804C178.17 64.2537 177.857 64.0871 177.484 63.9804C177.444 63.9671 177.384 63.9471 177.304 63.9204C177.224 63.8937 177.164 63.8671 177.124 63.8404C177.084 63.8004 177.064 63.7604 177.064 63.7204C177.064 63.5871 177.344 63.5204 177.904 63.5204C178.65 63.5204 179.297 63.6604 179.844 63.9404C180.404 64.2204 180.684 64.6071 180.684 65.1004C180.684 65.3271 180.604 65.5004 180.444 65.6204C180.297 65.7271 180.13 65.7804 179.944 65.7804ZM182.044 72.1604C181.71 72.1604 181.304 72.0471 180.824 71.8204C179.477 71.1537 178.31 70.4404 177.324 69.6804C176.35 68.9204 175.137 67.8071 173.684 66.3404C173.364 66.0204 173.077 65.8604 172.824 65.8604C172.57 65.8604 172.277 66.0271 171.944 66.3604C171.717 66.5871 171.55 66.7671 171.444 66.9004C170.697 67.6471 170.184 68.2071 169.904 68.5804C169.477 69.1271 169.097 69.5271 168.764 69.7804C168.444 70.0204 168.104 70.1404 167.744 70.1404C167.424 70.1404 167.117 70.0471 166.824 69.8604C166.53 69.6737 166.29 69.4604 166.104 69.2204C165.93 68.9671 165.844 68.7604 165.844 68.6004C165.844 68.5471 165.864 68.5004 165.904 68.4604C165.944 68.4204 165.997 68.4004 166.064 68.4004C166.13 68.4004 166.244 68.4137 166.404 68.4404C166.564 68.4537 166.724 68.4604 166.884 68.4604C167.137 68.4604 167.39 68.4204 167.644 68.3404C167.897 68.2604 168.224 68.0804 168.624 67.8004C169.037 67.5071 169.53 67.1404 170.104 66.7004C170.677 66.2471 171.204 65.8204 171.684 65.4204C172.07 65.1004 172.437 64.9404 172.784 64.9404C173.144 64.9404 173.524 65.1004 173.924 65.4204C174.684 66.0604 175.35 66.6004 175.924 67.0404C176.497 67.4804 177.304 67.9937 178.344 68.5804C179.384 69.1671 180.53 69.6604 181.784 70.0604C182.224 70.1937 182.537 70.3737 182.724 70.6004C182.924 70.8271 183.024 71.0671 183.024 71.3204C183.024 71.5604 182.937 71.7604 182.764 71.9204C182.59 72.0804 182.35 72.1604 182.044 72.1604Z" fill="#421D12"/>
<path d="M154.443 60.1593C154.443 60.026 154.403 59.926 154.323 59.8593C154.256 59.7793 154.156 59.7393 154.023 59.7393H153.283C152.656 59.766 152.083 59.8326 151.563 59.9393C151.523 59.9526 151.476 59.9593 151.423 59.9593C151.276 59.9593 151.15 59.866 151.043 59.6793L150.963 59.5393C150.923 59.4593 150.903 59.3793 150.903 59.2993C150.903 59.2193 150.936 59.1593 151.003 59.1193C151.07 59.066 151.163 59.046 151.283 59.0593C151.683 59.0993 152.296 59.1326 153.123 59.1593H153.963C154.176 59.1593 154.343 59.0726 154.463 58.8993L154.583 58.7193C154.623 58.666 154.67 58.5993 154.723 58.5193C154.79 58.4393 154.843 58.3793 154.883 58.3393C154.936 58.2993 154.99 58.2793 155.043 58.2793C155.136 58.2793 155.323 58.3993 155.603 58.6393C155.896 58.866 156.123 59.086 156.283 59.2993C156.35 59.3926 156.383 59.4593 156.383 59.4993C156.383 59.5926 156.316 59.686 156.183 59.7793L156.123 59.7993C155.896 59.8793 155.783 60.0393 155.783 60.2793V60.5793L155.843 61.5193C155.843 61.6393 155.83 61.7393 155.803 61.8193C155.79 61.886 155.743 61.9526 155.663 62.0193C155.543 62.0993 155.383 62.1726 155.183 62.2393C154.983 62.306 154.81 62.3393 154.663 62.3393C154.516 62.3393 154.443 62.246 154.443 62.0593C154.443 61.8726 154.303 61.7793 154.023 61.7793H152.743C152.61 61.7793 152.503 61.8193 152.423 61.8993C152.356 61.966 152.323 62.066 152.323 62.1993V63.2393C152.323 63.3593 152.343 63.4326 152.383 63.4593C152.436 63.486 152.576 63.4993 152.803 63.4993H155.063C155.21 63.4993 155.31 63.4526 155.363 63.3593C155.456 63.266 155.57 63.026 155.703 62.6393C155.783 62.3993 155.856 62.2793 155.923 62.2793C155.99 62.2793 156.03 62.4126 156.043 62.6793L156.083 63.0193C156.096 63.206 156.203 63.3726 156.403 63.5193C156.483 63.5726 156.536 63.626 156.563 63.6793C156.59 63.7326 156.603 63.806 156.603 63.8993C156.603 64.1793 156.41 64.3726 156.023 64.4793C155.65 64.586 154.93 64.6393 153.863 64.6393H152.463C152.05 64.6393 151.743 64.606 151.543 64.5393C151.343 64.4593 151.203 64.3393 151.123 64.1793C151.056 64.0193 151.023 63.7793 151.023 63.4593V61.9793C151.023 61.526 151.016 61.1926 151.003 60.9793V60.9393C151.003 60.7126 151.083 60.5993 151.243 60.5993C151.31 60.5993 151.383 60.6193 151.463 60.6593L152.323 61.0593C152.51 61.1393 152.683 61.1793 152.843 61.1793H154.023C154.156 61.1793 154.256 61.146 154.323 61.0793C154.403 60.9993 154.443 60.8926 154.443 60.7593V60.1593ZM160.663 60.1593C160.663 60.026 160.623 59.926 160.543 59.8593C160.476 59.7793 160.376 59.7393 160.243 59.7393H159.463C158.836 59.7526 158.236 59.8193 157.663 59.9393C157.623 59.9526 157.576 59.9593 157.523 59.9593C157.35 59.9593 157.216 59.8726 157.123 59.6993L157.043 59.5393C157.003 59.4593 156.983 59.3793 156.983 59.2993C156.983 59.2193 157.016 59.1593 157.083 59.1193C157.15 59.066 157.243 59.046 157.363 59.0593C157.79 59.0993 158.43 59.1326 159.283 59.1593H160.183C160.396 59.1593 160.563 59.0726 160.683 58.8993L160.803 58.7193C160.843 58.666 160.89 58.5993 160.943 58.5193C161.01 58.4393 161.063 58.3793 161.103 58.3393C161.156 58.2993 161.21 58.2793 161.263 58.2793C161.356 58.2793 161.55 58.3993 161.843 58.6393C162.15 58.8793 162.383 59.0993 162.543 59.2993C162.61 59.3926 162.643 59.4593 162.643 59.4993C162.643 59.5926 162.576 59.686 162.443 59.7793L162.363 59.8193C162.136 59.926 162.023 60.0793 162.023 60.2793V60.5793L162.083 61.5193C162.083 61.6393 162.07 61.7393 162.043 61.8193C162.03 61.886 161.983 61.946 161.903 61.9993C161.783 62.0926 161.623 62.1726 161.423 62.2393C161.236 62.306 161.063 62.3393 160.903 62.3393C160.743 62.3393 160.663 62.246 160.663 62.0593C160.663 61.8726 160.523 61.7793 160.243 61.7793H158.963C158.83 61.7793 158.723 61.8193 158.643 61.8993C158.576 61.966 158.543 62.066 158.543 62.1993V63.2393C158.543 63.346 158.57 63.4193 158.623 63.4593C158.676 63.486 158.816 63.4993 159.043 63.4993H161.423C161.556 63.4993 161.663 63.4526 161.743 63.3593C161.85 63.226 161.97 62.9526 162.103 62.5393C162.183 62.2993 162.256 62.1793 162.323 62.1793C162.39 62.1793 162.43 62.3126 162.443 62.5793L162.463 63.0193C162.476 63.206 162.59 63.3726 162.803 63.5193C162.883 63.5726 162.936 63.626 162.963 63.6793C162.99 63.7326 163.003 63.806 163.003 63.8993C163.003 64.1793 162.803 64.3726 162.403 64.4793C162.016 64.586 161.276 64.6393 160.183 64.6393H158.703C158.276 64.6393 157.956 64.606 157.743 64.5393C157.53 64.4593 157.39 64.3393 157.323 64.1793C157.256 64.0193 157.223 63.7793 157.223 63.4593V61.9793C157.223 61.526 157.216 61.1926 157.203 60.9793V60.9393C157.203 60.7126 157.283 60.5993 157.443 60.5993C157.51 60.5993 157.583 60.6193 157.663 60.6593L158.523 61.0593C158.71 61.1393 158.883 61.1793 159.043 61.1793H160.243C160.376 61.1793 160.476 61.146 160.543 61.0793C160.623 60.9993 160.663 60.8926 160.663 60.7593V60.1593ZM148.763 62.8793C148.656 62.8793 148.523 62.846 148.363 62.7793C148.27 62.7393 148.203 62.686 148.163 62.6193C148.123 62.5393 148.083 62.4393 148.043 62.3193C147.923 61.826 147.696 61.306 147.363 60.7593C147.03 60.2126 146.663 59.7126 146.263 59.2593C146.116 59.0726 146.043 58.9526 146.043 58.8993C146.043 58.846 146.09 58.8193 146.183 58.8193C146.263 58.8193 146.363 58.8393 146.483 58.8793C147.536 59.2526 148.31 59.7193 148.803 60.2793C149.31 60.826 149.563 61.3593 149.563 61.8793C149.563 62.1726 149.483 62.4126 149.323 62.5993C149.176 62.786 148.99 62.8793 148.763 62.8793ZM155.803 74.6393C158.63 74.6393 161.083 74.6126 163.163 74.5593H163.263C163.356 74.5593 163.43 74.5726 163.483 74.5993C163.55 74.626 163.583 74.6526 163.583 74.6793C163.583 74.746 163.47 74.8326 163.243 74.9393C162.896 75.0993 162.663 75.366 162.543 75.7393C162.463 75.9926 162.31 76.1193 162.083 76.1193H155.823C154.636 76.1193 153.67 76.0526 152.923 75.9193C152.176 75.786 151.536 75.546 151.003 75.1993C150.47 74.8526 149.99 74.3393 149.563 73.6593C149.483 73.526 149.383 73.4593 149.263 73.4593C149.17 73.4593 149.076 73.5126 148.983 73.6193C148.29 74.5126 147.63 75.266 147.003 75.8793C146.856 76.026 146.783 76.1193 146.783 76.1593V76.1993C146.716 76.226 146.65 76.2393 146.583 76.2393C146.436 76.2393 146.343 76.186 146.303 76.0793L145.783 75.0993C145.743 75.0193 145.723 74.946 145.723 74.8793C145.723 74.7326 145.803 74.6193 145.963 74.5393C146.296 74.366 146.77 74.106 147.383 73.7593L147.823 73.5193C148.01 73.4126 148.103 73.2393 148.103 72.9993V67.7793C148.103 67.646 148.063 67.546 147.983 67.4793C147.916 67.3993 147.816 67.3593 147.683 67.3593H147.303C146.93 67.386 146.616 67.4393 146.363 67.5193C146.323 67.5326 146.263 67.5393 146.183 67.5393C146.023 67.5393 145.903 67.4526 145.823 67.2793L145.763 67.1393C145.723 67.0593 145.703 66.9926 145.703 66.9393C145.703 66.7526 145.836 66.6726 146.103 66.6993L147.103 66.7593H147.523C147.736 66.7593 147.903 66.666 148.023 66.4793L148.203 66.1993C148.243 66.146 148.296 66.066 148.363 65.9593C148.443 65.8393 148.51 65.7526 148.563 65.6993C148.616 65.646 148.67 65.6193 148.723 65.6193C148.83 65.6193 149.07 65.7726 149.443 66.0793C149.83 66.386 150.116 66.6593 150.303 66.8993C150.356 66.966 150.383 67.0393 150.383 67.1193C150.383 67.2126 150.323 67.2993 150.203 67.3793C150.096 67.4326 150.003 67.4726 149.923 67.4993C149.67 67.5793 149.543 67.7326 149.543 67.9593V72.5393C149.543 72.7393 149.61 72.9126 149.743 73.0593C149.956 73.2726 150.15 73.4393 150.323 73.5593C150.443 73.6393 150.53 73.6793 150.583 73.6793C150.623 73.6793 150.683 73.6526 150.763 73.5993C150.83 73.5326 150.89 73.486 150.943 73.4593L151.423 73.1593C151.89 72.8393 152.343 72.466 152.783 72.0393C153.223 71.6126 153.583 71.186 153.863 70.7593C153.916 70.666 153.943 70.586 153.943 70.5193C153.943 70.4393 153.916 70.3793 153.863 70.3393C153.81 70.286 153.736 70.2593 153.643 70.2593C152.83 70.2726 151.95 70.346 151.003 70.4793H150.883C150.696 70.4793 150.563 70.3926 150.483 70.2193L150.403 70.0593C150.363 69.9793 150.343 69.906 150.343 69.8393C150.343 69.7593 150.376 69.6926 150.443 69.6393C150.523 69.586 150.623 69.566 150.743 69.5793C151.156 69.6193 151.77 69.6526 152.583 69.6793H153.343C153.476 69.6793 153.576 69.646 153.643 69.5793C153.723 69.4993 153.763 69.3926 153.763 69.2593V67.7593C153.763 67.626 153.723 67.526 153.643 67.4593C153.576 67.3793 153.476 67.3393 153.343 67.3393H152.923C152.576 67.3526 152.203 67.406 151.803 67.4993C151.723 67.526 151.663 67.5393 151.623 67.5393C151.463 67.5393 151.343 67.4526 151.263 67.2793L151.203 67.1393C151.163 67.0593 151.143 66.9793 151.143 66.8993C151.143 66.726 151.27 66.6526 151.523 66.6793C151.816 66.706 152.256 66.7326 152.843 66.7593H153.343C153.623 66.7593 153.763 66.6193 153.763 66.3393L153.703 65.3193V65.2793C153.703 65.0393 153.803 64.9193 154.003 64.9193L154.183 64.9593C155.103 65.226 155.563 65.4393 155.563 65.5993C155.563 65.6526 155.523 65.706 155.443 65.7593C155.283 65.8793 155.203 66.046 155.203 66.2593V66.3393C155.203 66.4726 155.236 66.5793 155.303 66.6593C155.383 66.726 155.49 66.7593 155.623 66.7593H157.423C157.703 66.7593 157.843 66.6193 157.843 66.3393L157.783 65.3193V65.2793C157.783 65.0393 157.883 64.9193 158.083 64.9193L158.263 64.9593C159.183 65.226 159.643 65.4393 159.643 65.5993C159.643 65.6526 159.603 65.706 159.523 65.7593C159.363 65.8793 159.283 66.046 159.283 66.2593V66.3393C159.283 66.6193 159.416 66.7593 159.683 66.7593H159.763C159.99 66.7593 160.163 66.6726 160.283 66.4993L160.483 66.2193C160.523 66.166 160.583 66.086 160.663 65.9793C160.743 65.8726 160.81 65.7926 160.863 65.7393C160.93 65.686 160.99 65.6593 161.043 65.6593C161.15 65.6593 161.37 65.7926 161.703 66.0593C162.036 66.326 162.283 66.566 162.443 66.7793C162.51 66.8726 162.543 66.9526 162.543 67.0193C162.543 67.0993 162.503 67.1726 162.423 67.2393C162.33 67.306 162.21 67.3393 162.063 67.3393H159.703C159.57 67.3393 159.463 67.3793 159.383 67.4593C159.316 67.526 159.283 67.626 159.283 67.7593V69.2593C159.283 69.3926 159.316 69.4993 159.383 69.5793C159.463 69.646 159.57 69.6793 159.703 69.6793H160.323C160.536 69.6793 160.703 69.5926 160.823 69.4193L161.063 69.0593C161.13 68.9793 161.196 68.8926 161.263 68.7993C161.33 68.706 161.396 68.626 161.463 68.5593C161.53 68.4793 161.59 68.4393 161.643 68.4393C161.75 68.4393 161.996 68.5993 162.383 68.9193C162.77 69.226 163.05 69.4926 163.223 69.7193C163.276 69.786 163.303 69.8593 163.303 69.9393C163.303 70.0326 163.263 70.1126 163.183 70.1793C163.116 70.2326 163.003 70.2593 162.843 70.2593H155.163C154.936 70.2593 154.823 70.326 154.823 70.4593C154.823 70.5926 154.91 70.706 155.083 70.7993C155.723 71.226 156.043 71.4993 156.043 71.6193C156.043 71.6726 155.956 71.7126 155.783 71.7393L155.603 71.7593C155.403 71.7726 155.236 71.8326 155.103 71.9393C154.65 72.2593 154.11 72.5793 153.483 72.8993C152.856 73.206 152.216 73.466 151.563 73.6793C151.376 73.746 151.243 73.8193 151.163 73.8993C151.096 73.9793 151.11 74.0393 151.203 74.0793C151.71 74.2926 152.31 74.4393 153.003 74.5193C153.71 74.5993 154.643 74.6393 155.803 74.6393ZM157.843 67.7593C157.843 67.626 157.803 67.526 157.723 67.4593C157.656 67.3793 157.556 67.3393 157.423 67.3393H155.623C155.49 67.3393 155.383 67.3793 155.303 67.4593C155.236 67.526 155.203 67.626 155.203 67.7593V69.2593C155.203 69.3926 155.236 69.4993 155.303 69.5793C155.383 69.646 155.49 69.6793 155.623 69.6793H157.423C157.556 69.6793 157.656 69.646 157.723 69.5793C157.803 69.4993 157.843 69.3926 157.843 69.2593V67.7593ZM157.723 71.2593C157.523 71.1526 157.423 71.0526 157.423 70.9593C157.423 70.8393 157.576 70.7993 157.883 70.8393C159.456 71.1193 160.59 71.486 161.283 71.9393C161.99 72.3793 162.343 72.8193 162.343 73.2593C162.343 73.486 162.256 73.6726 162.083 73.8193C161.923 73.966 161.723 74.0393 161.483 74.0393C161.296 74.0393 161.116 73.986 160.943 73.8793C160.85 73.826 160.756 73.7326 160.663 73.5993C160.036 72.746 159.056 71.966 157.723 71.2593Z" fill="#421D12"/>
<path d="M131.603 75.7602C131.429 75.7602 131.343 75.7202 131.343 75.6402C131.343 75.5735 131.369 75.5268 131.423 75.5002C131.489 75.4735 131.556 75.4535 131.623 75.4402C131.703 75.4268 131.756 75.4202 131.783 75.4202C133.889 75.0735 135.476 74.4935 136.543 73.6802C137.623 72.8535 138.163 71.8135 138.163 70.5602C138.163 69.8402 137.996 69.2668 137.663 68.8402C137.343 68.4002 136.883 68.1802 136.283 68.1802C135.656 68.1802 135.103 68.4268 134.623 68.9202C134.143 69.4002 133.609 70.1335 133.023 71.1202C132.903 71.3468 132.723 71.5402 132.483 71.7002C132.243 71.8602 132.036 71.9402 131.863 71.9402C131.223 71.9402 130.729 71.7468 130.383 71.3602C130.049 70.9735 129.883 70.4202 129.883 69.7002C129.883 69.2735 129.909 68.6402 129.963 67.8002C130.029 66.9602 130.076 66.3668 130.103 66.0202C130.183 65.2735 130.223 64.7535 130.223 64.4602C130.223 64.2602 130.203 64.0668 130.163 63.8802C130.136 63.6935 130.123 63.5535 130.123 63.4602C130.123 63.1802 130.203 62.9468 130.363 62.7602C130.523 62.5602 130.776 62.3335 131.123 62.0802C131.403 61.8668 131.903 61.5935 132.623 61.2602C132.996 61.1002 133.256 60.9802 133.403 60.9002C133.563 60.8068 133.643 60.7068 133.643 60.6002C133.643 60.4535 133.523 60.2735 133.283 60.0602C133.043 59.8468 132.769 59.6535 132.463 59.4802C132.423 59.4535 132.363 59.4268 132.283 59.4002C132.216 59.3602 132.183 59.3202 132.183 59.2802C132.183 59.2402 132.263 59.2135 132.423 59.2002C132.583 59.1735 132.716 59.1602 132.823 59.1602C133.396 59.1602 133.903 59.2735 134.343 59.5002C134.783 59.7135 135.163 60.0935 135.483 60.6402C135.616 60.8668 135.683 61.1002 135.683 61.3402C135.683 61.6068 135.603 61.8335 135.443 62.0202C135.283 62.2068 135.103 62.3002 134.903 62.3002C134.796 62.3002 134.696 62.2802 134.603 62.2402C134.509 62.1868 134.416 62.1268 134.323 62.0602C134.136 61.9402 133.969 61.8468 133.823 61.7802C133.676 61.7135 133.489 61.6802 133.263 61.6802C132.729 61.6802 132.169 61.8735 131.583 62.2602C131.436 62.3402 131.323 62.4602 131.243 62.6202C131.163 62.7668 131.123 62.9068 131.123 63.0402C131.123 63.1468 131.143 63.2535 131.183 63.3602C131.236 63.4535 131.269 63.5135 131.283 63.5402C131.443 63.8335 131.523 64.1068 131.523 64.3602C131.523 64.5335 131.476 64.9735 131.383 65.6802C131.196 66.8802 131.103 67.7802 131.103 68.3802C131.103 68.7402 131.149 69.0868 131.243 69.4202C131.349 69.7402 131.489 69.9002 131.663 69.9002C131.849 69.9002 132.243 69.6802 132.843 69.2402C133.523 68.7468 134.149 68.3535 134.723 68.0602C135.309 67.7668 135.929 67.6202 136.583 67.6202C137.169 67.6202 137.716 67.7802 138.223 68.1002C138.729 68.4068 139.129 68.8268 139.423 69.3602C139.716 69.8802 139.863 70.4402 139.863 71.0402C139.863 71.6535 139.709 72.2468 139.403 72.8202C139.096 73.3802 138.363 73.9335 137.203 74.4802C136.056 75.0268 134.336 75.4402 132.043 75.7202C131.869 75.7468 131.723 75.7602 131.603 75.7602Z" fill="#421D12"/>
<path d="M114.603 64.0206C116.203 64.0206 117.003 65.0806 117.003 67.2006C117.003 67.734 116.923 68.4473 116.763 69.3406C116.616 70.234 116.383 71.114 116.063 71.9806C115.743 72.8473 115.356 73.514 114.903 73.9806C114.676 74.2206 114.429 74.4206 114.163 74.5806C113.909 74.7273 113.689 74.8006 113.503 74.8006C113.116 74.8006 112.809 74.4806 112.583 73.8406C112.409 73.334 112.083 72.7673 111.603 72.1406C111.469 71.954 111.403 71.834 111.403 71.7806C111.403 71.754 111.423 71.7406 111.463 71.7406C111.516 71.7406 111.643 71.8073 111.843 71.9406C112.043 72.0606 112.196 72.1473 112.303 72.2006C112.396 72.254 112.523 72.334 112.683 72.4406C112.856 72.5473 113.003 72.6273 113.123 72.6806C113.243 72.734 113.356 72.7606 113.463 72.7606C113.903 72.7606 114.296 72.394 114.643 71.6606C115.003 70.9273 115.276 70.0806 115.463 69.1206C115.663 68.1473 115.763 67.3606 115.763 66.7606C115.763 66.1206 115.669 65.6406 115.483 65.3206C115.296 64.9873 114.989 64.8206 114.563 64.8206C114.056 64.8206 113.376 65.014 112.523 65.4006C112.336 65.494 112.216 65.6406 112.163 65.8406C111.536 68.574 110.569 70.994 109.263 73.1006C109.076 73.4206 108.869 73.674 108.643 73.8606C108.416 74.0473 108.203 74.1406 108.003 74.1406C107.816 74.1406 107.663 74.0806 107.543 73.9606C107.423 73.8273 107.363 73.654 107.363 73.4406C107.363 73.014 107.609 72.4873 108.103 71.8606C109.316 70.2473 110.196 68.574 110.743 66.8406C110.769 66.7606 110.783 66.7006 110.783 66.6606C110.783 66.4873 110.696 66.4006 110.523 66.4006C110.469 66.4006 110.389 66.4206 110.283 66.4606C109.429 66.874 108.843 67.0806 108.523 67.0806C108.243 67.0806 107.956 66.9873 107.663 66.8006C107.369 66.6006 107.123 66.354 106.923 66.0606C106.736 65.7673 106.643 65.474 106.643 65.1806C106.643 65.0473 106.676 64.9806 106.743 64.9806C106.796 64.9806 106.876 65.014 106.983 65.0806C107.089 65.134 107.169 65.174 107.223 65.2006C107.596 65.374 108.009 65.4606 108.463 65.4606C109.289 65.4206 110.109 65.2606 110.923 64.9806C111.136 64.9006 111.263 64.754 111.303 64.5406C111.436 63.8206 111.503 63.2206 111.503 62.7406C111.503 62.0473 111.363 61.534 111.083 61.2006C110.963 61.0406 110.809 60.8806 110.623 60.7206C110.449 60.5606 110.363 60.454 110.363 60.4006C110.363 60.3206 110.429 60.2606 110.563 60.2206C110.696 60.1673 110.869 60.1406 111.083 60.1406C111.336 60.1406 111.603 60.174 111.883 60.2406C112.163 60.3073 112.376 60.4006 112.523 60.5206C112.869 60.734 113.043 61.0273 113.043 61.4006C113.043 61.5606 112.989 61.8673 112.883 62.3206C112.803 62.5606 112.743 62.814 112.703 63.0806L112.583 63.8806L112.563 64.0206C112.563 64.1273 112.596 64.2073 112.663 64.2606C112.729 64.3006 112.823 64.3073 112.943 64.2806C113.556 64.1073 114.109 64.0206 114.603 64.0206ZM118.763 63.9606C119.856 63.9873 120.749 64.1873 121.443 64.5606C122.149 64.934 122.663 65.374 122.983 65.8806C123.303 66.374 123.463 66.8406 123.463 67.2806C123.463 67.614 123.389 67.914 123.243 68.1806C123.109 68.434 122.936 68.634 122.723 68.7806C122.509 68.9273 122.303 69.0006 122.103 69.0006C121.983 69.0006 121.869 68.974 121.763 68.9206C121.656 68.854 121.523 68.7673 121.363 68.6606C121.016 68.394 120.323 68.2006 119.283 68.0806C119.096 68.054 119.003 68.014 119.003 67.9606C119.003 67.9073 119.103 67.8673 119.303 67.8406L120.163 67.7406L120.643 67.6806C121.043 67.6006 121.309 67.5206 121.443 67.4406C121.589 67.3606 121.663 67.214 121.663 67.0006C121.663 66.374 121.363 65.8006 120.763 65.2806C120.163 64.7473 119.476 64.374 118.703 64.1606C118.583 64.1206 118.523 64.0806 118.523 64.0406C118.523 63.9873 118.603 63.9606 118.763 63.9606Z" fill="#421D12"/>
<path d="M92.002 62.5804C92.2154 62.5804 92.382 62.4937 92.502 62.3204L92.662 62.0804C92.702 62.0271 92.7554 61.9537 92.822 61.8604C92.902 61.7537 92.962 61.6804 93.002 61.6404C93.0554 61.5871 93.1087 61.5604 93.162 61.5604C93.2687 61.5604 93.4754 61.6871 93.782 61.9404C94.0887 62.1804 94.3154 62.4004 94.462 62.6004C94.5287 62.6937 94.562 62.7737 94.562 62.8404C94.562 62.9204 94.522 62.9937 94.442 63.0604C94.3487 63.1271 94.2287 63.1604 94.082 63.1604H91.122C90.9887 63.1604 90.882 63.1937 90.802 63.2604C90.7354 63.3137 90.702 63.3871 90.702 63.4804C90.702 63.6937 90.8287 63.8271 91.082 63.8804C92.082 64.1337 92.822 64.4871 93.302 64.9404C93.782 65.3804 94.022 65.8137 94.022 66.2404C94.022 66.4537 93.9554 66.6337 93.822 66.7804C93.702 66.9271 93.5487 67.0004 93.362 67.0004C93.282 67.0004 93.1887 66.9804 93.082 66.9404C92.9887 66.9137 92.9154 66.8737 92.862 66.8204C92.822 66.7537 92.7687 66.6671 92.702 66.5604C92.422 65.9604 91.9287 65.3071 91.222 64.6004C91.1287 64.5071 91.0354 64.4604 90.942 64.4604C90.8754 64.4604 90.8154 64.4937 90.762 64.5604C90.722 64.6271 90.702 64.7137 90.702 64.8204V65.1604L90.742 65.9404C90.742 66.1537 90.7554 66.4471 90.782 66.8204V66.9404C90.782 67.0871 90.7287 67.2137 90.622 67.3204C90.4887 67.4271 90.3287 67.5204 90.142 67.6004C89.9554 67.6804 89.782 67.7204 89.622 67.7204C89.502 67.7204 89.4087 67.6804 89.342 67.6004C89.2887 67.5204 89.262 67.4271 89.262 67.3204C89.302 66.9737 89.3287 66.6337 89.342 66.3004C89.342 66.1004 89.3487 65.9337 89.362 65.8004V65.6204C89.362 65.3804 89.2887 65.2604 89.142 65.2604C89.0487 65.2604 88.9554 65.3204 88.862 65.4404C88.102 66.2537 87.1687 67.0071 86.062 67.7004C85.822 67.8337 85.6687 67.8471 85.602 67.7404C85.5887 67.7271 85.582 67.7004 85.582 67.6604C85.582 67.5804 85.6554 67.4737 85.802 67.3404C86.922 66.3137 87.8087 65.0871 88.462 63.6604C88.502 63.5804 88.522 63.5071 88.522 63.4404C88.522 63.2537 88.3954 63.1604 88.142 63.1604H87.742C87.302 63.1737 86.862 63.2337 86.422 63.3404C86.382 63.3537 86.3287 63.3604 86.262 63.3604C86.102 63.3604 85.9754 63.2737 85.882 63.1004L85.802 62.9604C85.762 62.8804 85.742 62.8071 85.742 62.7404C85.742 62.6604 85.7754 62.5937 85.842 62.5404C85.922 62.4871 86.022 62.4671 86.142 62.4804C86.582 62.5204 87.2487 62.5537 88.142 62.5804H88.942C89.222 62.5804 89.362 62.5204 89.362 62.4004C89.362 61.0671 89.302 59.8737 89.182 58.8204V58.7404C89.182 58.5271 89.2754 58.4204 89.462 58.4204C89.4887 58.4204 89.5554 58.4337 89.662 58.4604C90.2087 58.6204 90.5887 58.7537 90.802 58.8604C91.0287 58.9671 91.142 59.0604 91.142 59.1404C91.142 59.1804 91.0954 59.2337 91.002 59.3004H90.982C90.7954 59.4071 90.702 59.5804 90.702 59.8204V62.1604C90.702 62.2937 90.7354 62.4004 90.802 62.4804C90.882 62.5471 90.9887 62.5804 91.122 62.5804H92.002ZM100.302 62.4604C100.529 62.4604 100.702 62.3737 100.822 62.2004L100.962 62.0004C100.989 61.9604 101.035 61.8937 101.102 61.8004C101.169 61.7071 101.229 61.6404 101.282 61.6004C101.335 61.5471 101.389 61.5204 101.442 61.5204C101.535 61.5204 101.742 61.6537 102.062 61.9204C102.382 62.1737 102.629 62.4071 102.802 62.6204C102.855 62.6871 102.882 62.7604 102.882 62.8404C102.882 62.9337 102.822 63.0204 102.702 63.1004L102.602 63.1404C102.362 63.2204 102.242 63.3804 102.242 63.6204V67.4604C102.269 68.9137 102.315 70.3804 102.382 71.8604V71.9404C102.382 72.1271 102.309 72.2671 102.162 72.3604C102.002 72.4671 101.815 72.5604 101.602 72.6404C101.389 72.7204 101.195 72.7604 101.022 72.7604C100.875 72.7604 100.802 72.6204 100.802 72.3404C100.802 72.0737 100.662 71.9404 100.382 71.9404H96.762C96.6287 71.9404 96.522 71.9804 96.442 72.0604C96.3754 72.1271 96.342 72.2271 96.342 72.3604V72.5204C96.342 72.6137 96.2154 72.7271 95.962 72.8604C95.7087 72.9804 95.442 73.0404 95.162 73.0404C95.042 73.0404 94.942 73.0004 94.862 72.9204C94.782 72.8404 94.742 72.7471 94.742 72.6404C94.8354 71.2937 94.8954 69.8137 94.922 68.2004V65.7604C94.922 64.4671 94.862 63.2937 94.742 62.2404V62.1604C94.742 61.9604 94.8287 61.8604 95.002 61.8604C95.082 61.8604 95.1487 61.8737 95.202 61.9004L96.202 62.3404C96.3887 62.4204 96.562 62.4604 96.722 62.4604H97.082C97.3487 62.4604 97.4954 62.3271 97.522 62.0604C97.5754 61.5671 97.6087 61.1204 97.622 60.7204V60.6804C97.622 60.5604 97.582 60.4671 97.502 60.4004C97.4354 60.3337 97.342 60.3004 97.222 60.3004H96.582C96.0354 60.3271 95.5287 60.3937 95.062 60.5004L94.942 60.5204C94.7554 60.5204 94.6154 60.4271 94.522 60.2404L94.462 60.1204C94.422 60.0404 94.402 59.9604 94.402 59.8804C94.402 59.8004 94.4354 59.7404 94.502 59.7004C94.5687 59.6471 94.662 59.6271 94.782 59.6404C95.2354 59.6804 95.922 59.7137 96.842 59.7404H100.222C100.435 59.7404 100.602 59.6537 100.722 59.4804L101.002 59.0804C101.042 59.0271 101.109 58.9337 101.202 58.8004C101.295 58.6671 101.369 58.5671 101.422 58.5004C101.489 58.4337 101.549 58.4004 101.602 58.4004C101.709 58.4004 101.969 58.5737 102.382 58.9204C102.795 59.2537 103.089 59.5404 103.262 59.7804C103.329 59.8471 103.362 59.9204 103.362 60.0004C103.362 60.0671 103.322 60.1337 103.242 60.2004C103.135 60.2671 103.015 60.3004 102.882 60.3004H99.702C99.4887 60.3004 99.322 60.4004 99.202 60.6004C98.9754 61.0271 98.7154 61.4804 98.422 61.9604C98.3687 62.0271 98.342 62.1071 98.342 62.2004C98.342 62.3737 98.462 62.4604 98.702 62.4604H100.302ZM92.082 59.2804C92.122 59.0537 92.2287 58.9404 92.402 58.9404C92.4554 58.9404 92.522 58.9604 92.602 59.0004L93.042 59.2204C93.2287 59.3137 93.3887 59.3804 93.522 59.4204C93.882 59.5671 94.062 59.6871 94.062 59.7804C94.062 59.8604 93.9887 59.9204 93.842 59.9604L93.782 59.9804C93.6087 60.0337 93.4554 60.1337 93.322 60.2804C92.8554 60.8804 92.402 61.3804 91.962 61.7804C91.8287 61.9004 91.722 61.9604 91.642 61.9604C91.5354 61.9604 91.482 61.9004 91.482 61.7804C91.482 61.7004 91.502 61.6004 91.542 61.4804C91.7954 60.7471 91.9754 60.0137 92.082 59.2804ZM86.522 59.5204C86.3887 59.2671 86.3487 59.1204 86.402 59.0804C86.4154 59.0671 86.4487 59.0604 86.502 59.0604C86.5554 59.0604 86.662 59.0937 86.822 59.1604C87.3954 59.4537 87.8154 59.7737 88.082 60.1204C88.3487 60.4671 88.482 60.8004 88.482 61.1204C88.482 61.3604 88.4087 61.5671 88.262 61.7404C88.1287 61.9004 87.9687 61.9804 87.782 61.9804C87.662 61.9804 87.5554 61.9537 87.462 61.9004C87.302 61.8204 87.2087 61.6604 87.182 61.4204C87.142 60.8337 86.922 60.2004 86.522 59.5204ZM100.382 65.4004C100.515 65.4004 100.615 65.3671 100.682 65.3004C100.762 65.2204 100.802 65.1137 100.802 64.9804V63.4604C100.802 63.3271 100.762 63.2271 100.682 63.1604C100.615 63.0804 100.515 63.0404 100.382 63.0404H96.762C96.6287 63.0404 96.522 63.0804 96.442 63.1604C96.3754 63.2271 96.342 63.3271 96.342 63.4604V64.9804C96.342 65.1137 96.3754 65.2204 96.442 65.3004C96.522 65.3671 96.6287 65.4004 96.762 65.4004H100.382ZM100.802 66.4004C100.802 66.2671 100.762 66.1671 100.682 66.1004C100.615 66.0204 100.515 65.9804 100.382 65.9804H96.762C96.6287 65.9804 96.522 66.0204 96.442 66.1004C96.3754 66.1671 96.342 66.2671 96.342 66.4004V67.9404C96.342 68.0737 96.3754 68.1804 96.442 68.2604C96.522 68.3271 96.6287 68.3604 96.762 68.3604H100.382C100.515 68.3604 100.615 68.3271 100.682 68.2604C100.762 68.1804 100.802 68.0737 100.802 67.9404V66.4004ZM91.622 70.1404C91.8354 70.1404 92.002 70.0471 92.122 69.8604L92.342 69.5404C92.382 69.4737 92.442 69.3871 92.522 69.2804C92.6154 69.1604 92.6887 69.0737 92.742 69.0204C92.7954 68.9537 92.8487 68.9204 92.902 68.9204C92.9954 68.9204 93.222 69.0737 93.582 69.3804C93.942 69.6737 94.202 69.9337 94.362 70.1604C94.4287 70.2537 94.462 70.3337 94.462 70.4004C94.462 70.4804 94.422 70.5537 94.342 70.6204C94.2487 70.6871 94.1287 70.7204 93.982 70.7204H90.882C90.6287 70.7204 90.482 70.8471 90.442 71.1004L90.422 71.2604V71.3604C90.422 71.5471 90.5354 71.6737 90.762 71.7404C91.7754 71.9804 92.5287 72.3337 93.022 72.8004C93.5154 73.2537 93.762 73.7071 93.762 74.1604C93.762 74.4004 93.6954 74.6004 93.562 74.7604C93.4287 74.9071 93.2554 74.9804 93.042 74.9804C92.9354 74.9804 92.8554 74.9671 92.802 74.9404C92.7087 74.9271 92.6354 74.8937 92.582 74.8404C92.5287 74.7737 92.4687 74.6871 92.402 74.5804C92.042 73.8737 91.4487 73.1537 90.622 72.4204C90.5287 72.3404 90.442 72.3004 90.362 72.3004C90.2287 72.3004 90.122 72.3871 90.042 72.5604C89.7354 73.3204 89.2687 74.0071 88.642 74.6204C88.0287 75.2337 87.182 75.7804 86.102 76.2604C85.9687 76.3271 85.8687 76.3604 85.802 76.3604C85.722 76.3604 85.6687 76.3337 85.642 76.2804C85.6287 76.2671 85.622 76.2404 85.622 76.2004C85.622 76.1071 85.7154 76.0004 85.902 75.8804C86.8754 75.2537 87.5887 74.5537 88.042 73.7804C88.5087 73.0071 88.8154 72.1337 88.962 71.1604V71.0804C88.962 70.8404 88.8354 70.7204 88.582 70.7204H87.962C87.4154 70.7471 86.8954 70.8137 86.402 70.9204L86.282 70.9404C86.0954 70.9404 85.9554 70.8471 85.862 70.6604L85.782 70.5204C85.742 70.4404 85.722 70.3671 85.722 70.3004C85.722 70.2204 85.7554 70.1537 85.822 70.1004C85.902 70.0471 86.002 70.0271 86.122 70.0404C86.522 70.0804 87.122 70.1137 87.922 70.1404H88.662C88.7954 70.1404 88.902 70.1137 88.982 70.0604C89.062 69.9937 89.102 69.9071 89.102 69.8004V69.4404C89.102 69.1871 89.0887 68.8337 89.062 68.3804V68.3004C89.062 68.0471 89.2087 67.9337 89.502 67.9604C90.5687 68.0804 91.102 68.2137 91.102 68.3604C91.102 68.4004 91.0554 68.4537 90.962 68.5204L90.922 68.5404C90.762 68.6471 90.6687 68.8137 90.642 69.0404L90.602 69.7004V69.7604C90.602 70.0137 90.7354 70.1404 91.002 70.1404H91.622ZM96.762 68.9404C96.6287 68.9404 96.522 68.9804 96.442 69.0604C96.3754 69.1271 96.342 69.2271 96.342 69.3604V70.9404C96.342 71.0737 96.3754 71.1804 96.442 71.2604C96.522 71.3271 96.6287 71.3604 96.762 71.3604H100.382C100.515 71.3604 100.615 71.3271 100.682 71.2604C100.762 71.1804 100.802 71.0737 100.802 70.9404V69.3604C100.802 69.2271 100.762 69.1271 100.682 69.0604C100.615 68.9804 100.515 68.9404 100.382 68.9404H96.762ZM96.382 72.9204C96.462 72.7604 96.562 72.6804 96.682 72.6804C96.7487 72.6804 96.8354 72.7137 96.942 72.7804L97.442 73.1404C97.4954 73.1804 97.642 73.2671 97.882 73.4004C98.2554 73.6004 98.442 73.7471 98.442 73.8404C98.442 73.8937 98.3754 73.9204 98.242 73.9204H98.222C98.022 73.9204 97.8487 73.9937 97.702 74.1404C97.1687 74.6337 96.4754 75.0937 95.622 75.5204C94.782 75.9604 93.922 76.3004 93.042 76.5404C92.9754 76.5671 92.8954 76.5804 92.802 76.5804C92.722 76.5804 92.6554 76.5537 92.602 76.5004C92.5887 76.4871 92.582 76.4671 92.582 76.4404C92.582 76.3604 92.6887 76.2604 92.902 76.1404C93.1154 76.0204 93.4487 75.8137 93.902 75.5204C94.3687 75.2004 94.8287 74.8004 95.282 74.3204C95.7487 73.8404 96.1154 73.3737 96.382 72.9204ZM99.302 73.2804C99.062 73.0937 98.9754 72.9671 99.042 72.9004C99.0687 72.8737 99.1154 72.8604 99.182 72.8604C99.2887 72.8604 99.382 72.8737 99.462 72.9004C100.342 73.1004 101.062 73.3737 101.622 73.7204C102.182 74.0537 102.589 74.4071 102.842 74.7804C103.095 75.1404 103.222 75.4737 103.222 75.7804C103.222 76.0071 103.155 76.1937 103.022 76.3404C102.902 76.5004 102.742 76.5804 102.542 76.5804C102.502 76.5804 102.415 76.5671 102.282 76.5404C102.189 76.5137 102.115 76.4737 102.062 76.4204C102.022 76.3671 101.969 76.2937 101.902 76.2004C101.649 75.7337 101.282 75.2404 100.802 74.7204C100.322 74.2004 99.822 73.7204 99.302 73.2804Z" fill="#421D12"/>
<path d="M81.9823 73.9993C82.0889 73.9993 82.3289 74.1593 82.7023 74.4793C83.0889 74.7993 83.3689 75.0726 83.5423 75.2993C83.5956 75.366 83.6223 75.446 83.6223 75.5393C83.6223 75.6326 83.5889 75.706 83.5223 75.7593C83.4156 75.826 83.2889 75.8593 83.1423 75.8593H74.7423C73.9289 75.8726 73.0489 75.946 72.1023 76.0793H71.9823C71.7956 76.0793 71.6623 75.9926 71.5823 75.8193L71.5023 75.6593C71.4623 75.5793 71.4423 75.4993 71.4423 75.4193C71.4423 75.3393 71.4756 75.2726 71.5423 75.2193C71.6089 75.1793 71.7023 75.166 71.8223 75.1793C72.2756 75.2193 72.9623 75.2526 73.8823 75.2793H76.3623C76.4956 75.2793 76.5956 75.2393 76.6623 75.1593C76.7423 75.0926 76.7823 74.9926 76.7823 74.8593V73.3593C76.7823 73.226 76.7423 73.126 76.6623 73.0593C76.5956 72.9793 76.4956 72.9393 76.3623 72.9393H75.4223C74.7556 72.9526 74.0356 73.026 73.2623 73.1593H73.1423C72.9556 73.1593 72.8223 73.0726 72.7423 72.8993L72.6623 72.7393C72.6223 72.6593 72.6023 72.5793 72.6023 72.4993C72.6023 72.4193 72.6356 72.3593 72.7023 72.3193C72.7689 72.266 72.8623 72.246 72.9823 72.2593C73.4356 72.2993 74.1223 72.3326 75.0423 72.3593H76.3623C76.4956 72.3593 76.5956 72.326 76.6623 72.2593C76.7423 72.1793 76.7823 72.0726 76.7823 71.9393V70.6593C76.7823 70.526 76.7423 70.426 76.6623 70.3593C76.5956 70.2793 76.4956 70.2393 76.3623 70.2393H74.7623C74.6289 70.2393 74.5223 70.2793 74.4423 70.3593C74.3756 70.426 74.3423 70.526 74.3423 70.6593V70.7793C74.3423 70.8593 74.2156 70.9593 73.9623 71.0793C73.7089 71.1993 73.4423 71.2593 73.1623 71.2593C73.0556 71.2593 72.9689 71.2193 72.9023 71.1393C72.8489 71.0593 72.8223 70.966 72.8223 70.8593C72.8756 70.2993 72.9156 69.586 72.9423 68.7193V67.4393C72.9423 66.586 72.9156 65.8193 72.8623 65.1393C72.8489 64.846 72.7756 64.7193 72.6423 64.7593C72.6023 64.7726 72.5289 64.7793 72.4223 64.7793H70.3823C70.2489 64.7793 70.1423 64.8193 70.0623 64.8993C69.9956 64.966 69.9623 65.066 69.9623 65.1993V66.3393C69.9623 66.566 70.0756 66.726 70.3023 66.8193C71.0756 67.1926 71.6423 67.606 72.0023 68.0593C72.3756 68.4993 72.5623 68.9126 72.5623 69.2993C72.5623 69.526 72.5023 69.7126 72.3823 69.8593C72.2623 70.006 72.1089 70.0793 71.9223 70.0793C71.8156 70.0793 71.7089 70.0526 71.6023 69.9993C71.4556 69.9193 71.3489 69.7726 71.2823 69.5593C71.1089 69.066 70.8423 68.5126 70.4823 67.8993C70.3889 67.766 70.2956 67.6993 70.2023 67.6993C70.0423 67.6993 69.9623 67.8193 69.9623 68.0593V71.3193C69.9889 72.7726 70.0356 74.2393 70.1023 75.7193V75.8193C70.1023 76.006 70.0356 76.146 69.9023 76.2393C69.5823 76.4793 69.2089 76.5993 68.7823 76.5993C68.6623 76.5993 68.5556 76.5593 68.4623 76.4793C68.3689 76.3993 68.3223 76.306 68.3223 76.1993C68.3756 75.466 68.4156 74.746 68.4423 74.0393C68.4823 73.3326 68.5089 72.4393 68.5223 71.3593V69.7993C68.5223 69.5593 68.4556 69.4393 68.3223 69.4393C68.2156 69.4393 68.1223 69.5193 68.0423 69.6793C67.4289 70.8126 66.6756 71.846 65.7823 72.7793C65.6889 72.8726 65.6023 72.9393 65.5223 72.9793C65.4556 73.006 65.4023 72.9993 65.3623 72.9593C65.3356 72.9326 65.3223 72.8926 65.3223 72.8393C65.3223 72.7593 65.3623 72.6526 65.4423 72.5193C66.6423 70.6126 67.5489 68.186 68.1623 65.2393L68.1823 65.1193C68.1823 64.8926 68.0556 64.7793 67.8023 64.7793H67.4423C67.1223 64.7926 66.7823 64.846 66.4223 64.9393C66.3423 64.966 66.2823 64.9793 66.2423 64.9793C66.0823 64.9793 65.9556 64.8926 65.8623 64.7193L65.7823 64.5593C65.7423 64.4793 65.7223 64.406 65.7223 64.3393C65.7223 64.2593 65.7556 64.1993 65.8223 64.1593C65.8889 64.106 65.9889 64.086 66.1223 64.0993C66.4423 64.126 66.9223 64.1526 67.5623 64.1793H68.1023C68.2356 64.1793 68.3356 64.146 68.4023 64.0793C68.4823 63.9993 68.5223 63.8926 68.5223 63.7593V61.4793C68.5223 61.3326 68.4756 61.226 68.3823 61.1593C68.3023 61.0926 68.1956 61.0793 68.0623 61.1193C67.1556 61.306 66.4823 61.4393 66.0423 61.5193C66.0023 61.5326 65.9423 61.5393 65.8623 61.5393C65.7156 61.5393 65.6289 61.506 65.6023 61.4393V61.4193C65.6023 61.3393 65.7156 61.2526 65.9423 61.1593C66.7823 60.8126 67.6356 60.406 68.5023 59.9393C69.3689 59.4593 70.0823 59.0126 70.6423 58.5993C70.7489 58.5326 70.8489 58.4993 70.9423 58.4993C71.0356 58.4993 71.1423 58.5393 71.2623 58.6193C71.7556 59.006 72.1023 59.2993 72.3023 59.4993C72.5023 59.686 72.6023 59.8193 72.6023 59.8993C72.6023 59.966 72.4956 59.9993 72.2823 59.9993H72.0423C71.8156 59.9993 71.6423 60.026 71.5223 60.0793C71.1623 60.226 70.7623 60.366 70.3223 60.4993C70.0823 60.5526 69.9623 60.706 69.9623 60.9593V63.7593C69.9623 63.8926 69.9889 63.9993 70.0423 64.0793C70.0956 64.146 70.1623 64.1793 70.2423 64.1793C70.4156 64.1793 70.5623 64.086 70.6823 63.8993L70.9023 63.5793C70.9556 63.5126 71.0156 63.426 71.0823 63.3193C71.1623 63.1993 71.2289 63.1126 71.2823 63.0593C71.3356 63.006 71.3889 62.9793 71.4423 62.9793C71.5623 62.9793 71.8489 63.1926 72.3023 63.6193C72.4623 63.7793 72.6223 63.9526 72.7823 64.1393V64.1193V64.0393C72.7823 63.8393 72.8689 63.7393 73.0423 63.7393C73.1223 63.7393 73.1889 63.7526 73.2423 63.7793L74.2223 64.2193C74.3689 64.286 74.5423 64.3193 74.7423 64.3193H76.3623C76.4956 64.3193 76.5956 64.286 76.6623 64.2193C76.7423 64.1393 76.7823 64.0326 76.7823 63.8993V63.0393C76.7823 62.906 76.7423 62.806 76.6623 62.7393C76.5956 62.6593 76.4956 62.6193 76.3623 62.6193H75.2023C74.4289 62.6326 73.5889 62.706 72.6823 62.8393H72.5623C72.3756 62.8393 72.2423 62.7526 72.1623 62.5793L72.0823 62.4193C72.0423 62.3393 72.0223 62.2593 72.0223 62.1793C72.0223 62.0993 72.0556 62.0393 72.1223 61.9993C72.1889 61.946 72.2823 61.926 72.4023 61.9393C72.8556 61.9793 73.5423 62.0126 74.4623 62.0393H76.3623C76.4956 62.0393 76.5956 62.006 76.6623 61.9393C76.7423 61.8593 76.7823 61.7526 76.7823 61.6193V60.8793C76.7823 60.586 76.6356 60.4526 76.3423 60.4793C74.9689 60.5993 73.7823 60.666 72.7823 60.6793C72.5289 60.6793 72.3889 60.6193 72.3623 60.4993V60.4793C72.3623 60.386 72.4956 60.3193 72.7623 60.2793C74.0956 60.0793 75.4956 59.7993 76.9623 59.4393C78.4289 59.066 79.6556 58.6926 80.6423 58.3193C80.7489 58.2926 80.8156 58.2793 80.8423 58.2793C80.9756 58.2793 81.1023 58.3393 81.2223 58.4593C81.9956 59.1926 82.3823 59.6326 82.3823 59.7793C82.3823 59.8726 82.2756 59.906 82.0623 59.8793L81.7823 59.8393H81.6223C81.4756 59.8393 81.3556 59.846 81.2623 59.8593C80.4756 60.006 79.5956 60.1393 78.6223 60.2593C78.3556 60.286 78.2223 60.4326 78.2223 60.6993V61.6193C78.2223 61.7526 78.2556 61.8593 78.3223 61.9393C78.4023 62.006 78.5089 62.0393 78.6423 62.0393H80.5223C80.7356 62.0393 80.9023 61.9526 81.0223 61.7793L81.2623 61.4193C81.3023 61.3526 81.3623 61.266 81.4423 61.1593C81.5356 61.0393 81.6089 60.9526 81.6623 60.8993C81.7156 60.8326 81.7689 60.7993 81.8223 60.7993C81.9289 60.7993 82.1623 60.9593 82.5223 61.2793C82.8956 61.586 83.1689 61.8526 83.3423 62.0793C83.4089 62.1726 83.4423 62.246 83.4423 62.2993C83.4423 62.3793 83.4089 62.4526 83.3423 62.5193C83.2489 62.586 83.1289 62.6193 82.9823 62.6193H78.6423C78.5089 62.6193 78.4023 62.6593 78.3223 62.7393C78.2556 62.806 78.2223 62.906 78.2223 63.0393V63.8993C78.2223 64.0326 78.2556 64.1393 78.3223 64.2193C78.4023 64.286 78.5089 64.3193 78.6423 64.3193H80.3823C80.5956 64.3193 80.7689 64.2326 80.9023 64.0593L81.0223 63.8993C81.0623 63.8593 81.1289 63.7793 81.2223 63.6593C81.3289 63.5393 81.4223 63.4793 81.5023 63.4793C81.5956 63.4793 81.8023 63.5993 82.1223 63.8393C82.4556 64.066 82.7089 64.2793 82.8823 64.4793C82.9356 64.546 82.9623 64.6193 82.9623 64.6993C82.9623 64.7926 82.9023 64.8793 82.7823 64.9593L82.6623 65.0193C82.4356 65.0993 82.3223 65.2526 82.3223 65.4793V66.9393C82.3623 68.406 82.4023 69.4726 82.4423 70.1393V70.2193C82.4423 70.4193 82.3689 70.566 82.2223 70.6593C82.0623 70.7526 81.8756 70.8326 81.6623 70.8993C81.4489 70.966 81.2623 70.9993 81.1023 70.9993C80.9689 70.9993 80.9023 70.8726 80.9023 70.6193C80.9023 70.4993 80.8623 70.406 80.7823 70.3393C80.7156 70.2726 80.6156 70.2393 80.4823 70.2393H78.6423C78.5089 70.2393 78.4023 70.2793 78.3223 70.3593C78.2556 70.426 78.2223 70.526 78.2223 70.6593V71.9393C78.2223 72.0726 78.2556 72.1793 78.3223 72.2593C78.4023 72.326 78.5089 72.3593 78.6423 72.3593H79.9623C80.1756 72.3593 80.3423 72.266 80.4623 72.0793L80.6823 71.7593C80.7223 71.706 80.7823 71.626 80.8623 71.5193C80.9423 71.3993 81.0089 71.3126 81.0623 71.2593C81.1289 71.1926 81.1889 71.1593 81.2423 71.1593C81.3489 71.1593 81.5889 71.3126 81.9623 71.6193C82.3356 71.9126 82.6023 72.1726 82.7623 72.3993C82.8289 72.466 82.8623 72.5393 82.8623 72.6193C82.8623 72.686 82.8223 72.7593 82.7423 72.8393C82.6489 72.906 82.5289 72.9393 82.3823 72.9393H78.6423C78.5089 72.9393 78.4023 72.9793 78.3223 73.0593C78.2556 73.126 78.2223 73.226 78.2223 73.3593V74.8593C78.2223 74.9926 78.2556 75.0926 78.3223 75.1593C78.4023 75.2393 78.5089 75.2793 78.6423 75.2793H80.6623C80.8756 75.2793 81.0423 75.186 81.1623 74.9993L81.4023 74.6393C81.4556 74.5726 81.5223 74.4793 81.6023 74.3593C81.6956 74.2393 81.7689 74.1526 81.8223 74.0993C81.8756 74.0326 81.9289 73.9993 81.9823 73.9993ZM74.3423 66.5193C74.3423 66.6526 74.3756 66.7593 74.4423 66.8393C74.5223 66.906 74.6289 66.9393 74.7623 66.9393H76.3623C76.4956 66.9393 76.5956 66.906 76.6623 66.8393C76.7423 66.7593 76.7823 66.6526 76.7823 66.5193V65.3193C76.7823 65.186 76.7423 65.086 76.6623 65.0193C76.5956 64.9393 76.4956 64.8993 76.3623 64.8993H74.7623C74.6289 64.8993 74.5223 64.9393 74.4423 65.0193C74.3756 65.086 74.3423 65.186 74.3423 65.3193V66.5193ZM80.9023 65.3193C80.9023 65.186 80.8623 65.086 80.7823 65.0193C80.7156 64.9393 80.6156 64.8993 80.4823 64.8993H78.6423C78.5089 64.8993 78.4023 64.9393 78.3223 65.0193C78.2556 65.086 78.2223 65.186 78.2223 65.3193V66.5193C78.2223 66.6526 78.2556 66.7593 78.3223 66.8393C78.4023 66.906 78.5089 66.9393 78.6423 66.9393H80.4823C80.6156 66.9393 80.7156 66.906 80.7823 66.8393C80.8623 66.7593 80.9023 66.6526 80.9023 66.5193V65.3193ZM74.3423 69.2593C74.3423 69.3926 74.3756 69.4993 74.4423 69.5793C74.5223 69.646 74.6289 69.6793 74.7623 69.6793H76.3623C76.4956 69.6793 76.5956 69.646 76.6623 69.5793C76.7423 69.4993 76.7823 69.3926 76.7823 69.2593V67.9393C76.7823 67.806 76.7423 67.706 76.6623 67.6393C76.5956 67.5593 76.4956 67.5193 76.3623 67.5193H74.7623C74.6289 67.5193 74.5223 67.5593 74.4423 67.6393C74.3756 67.706 74.3423 67.806 74.3423 67.9393V69.2593ZM80.9023 67.9393C80.9023 67.806 80.8623 67.706 80.7823 67.6393C80.7156 67.5593 80.6156 67.5193 80.4823 67.5193H78.6423C78.5089 67.5193 78.4023 67.5593 78.3223 67.6393C78.2556 67.706 78.2223 67.806 78.2223 67.9393V69.2593C78.2223 69.3926 78.2556 69.4993 78.3223 69.5793C78.4023 69.646 78.5089 69.6793 78.6423 69.6793H80.4823C80.6156 69.6793 80.7156 69.646 80.7823 69.5793C80.8623 69.4993 80.9023 69.3926 80.9023 69.2593V67.9393Z" fill="#421D12"/>
<path d="M59.1429 64.1832C58.9522 64.2872 58.8569 64.3998 58.8569 64.5212C58.8569 64.6598 58.9522 64.7812 59.1429 64.8852C60.0095 65.3705 60.7202 65.8212 61.2749 66.2372C61.8295 66.6532 62.2889 67.1645 62.6529 67.7712C63.0169 68.3778 63.1989 69.0972 63.1989 69.9292C63.1989 71.0212 62.9042 71.9832 62.3149 72.8152C61.7255 73.6298 60.9542 74.2625 60.0009 74.7132C59.0649 75.1465 58.0942 75.3632 57.0889 75.3632C56.0142 75.3632 54.9915 75.1552 54.0209 74.7392C53.0502 74.3232 52.2702 73.7425 51.6809 72.9972C51.0915 72.2518 50.7969 71.4025 50.7969 70.4492C50.7969 69.4265 51.1002 68.5858 51.7069 67.9272C52.3135 67.2512 53.2062 66.5838 54.3849 65.9252C54.5929 65.8212 54.6969 65.6998 54.6969 65.5612C54.6969 65.4225 54.6015 65.3012 54.4109 65.1972C53.4749 64.6598 52.7469 64.0358 52.2269 63.3252C51.7242 62.6145 51.4729 61.7045 51.4729 60.5952C51.4729 59.8152 51.6722 59.0612 52.0709 58.3332C52.4695 57.5878 53.0675 56.9812 53.8649 56.5132C54.6795 56.0278 55.6589 55.7852 56.8029 55.7852C57.7042 55.7852 58.5622 55.9585 59.3769 56.3052C60.1915 56.6518 60.8415 57.1545 61.3269 57.8132C61.8295 58.4545 62.0809 59.2085 62.0809 60.0752C62.0809 60.9765 61.8209 61.7652 61.3009 62.4412C60.7809 63.0998 60.0615 63.6805 59.1429 64.1832ZM53.4229 59.7632C53.4229 60.3872 53.5789 60.9332 53.8909 61.4012C54.2029 61.8518 54.6015 62.2418 55.0869 62.5712C55.5895 62.9005 56.3435 63.3425 57.3489 63.8972C57.4702 63.9665 57.6002 64.0012 57.7389 64.0012C57.8775 64.0012 58.0075 63.9492 58.1289 63.8452C59.2902 62.8745 59.8709 61.6525 59.8709 60.1792C59.8709 59.6592 59.7582 59.1305 59.5329 58.5932C59.3075 58.0385 58.9435 57.5792 58.4409 57.2152C57.9382 56.8338 57.3142 56.6432 56.5689 56.6432C55.8755 56.6432 55.2862 56.8165 54.8009 57.1632C54.3329 57.4925 53.9862 57.8998 53.7609 58.3852C53.5355 58.8532 53.4229 59.3125 53.4229 59.7632ZM56.8289 74.4532C58.1289 74.4532 59.1255 74.0892 59.8189 73.3612C60.5295 72.6158 60.8849 71.6712 60.8849 70.5272C60.8849 69.6432 60.4602 68.8632 59.6109 68.1872C58.7615 67.5112 57.6089 66.8178 56.1529 66.1072C56.0662 66.0378 55.9535 66.0032 55.8149 66.0032C55.6935 66.0032 55.5549 66.0552 55.3989 66.1592C54.7055 66.7312 54.1595 67.3812 53.7609 68.1092C53.3795 68.8372 53.1889 69.6085 53.1889 70.4232C53.1889 71.1165 53.3275 71.7752 53.6049 72.3992C53.8822 73.0058 54.2895 73.4998 54.8269 73.8812C55.3815 74.2625 56.0489 74.4532 56.8289 74.4532Z" fill="#421D12"/>
</svg>
