<svg width="160" height="111" viewBox="0 0 160 111" fill="none" xmlns="http://www.w3.org/2000/svg">
<path d="M0 6C0 2.68629 2.68629 0 6 0H154C157.314 0 160 2.68629 160 6V105C160 108.314 157.314 111 154 111H6C2.6863 111 0 108.314 0 105V6Z" fill="white"/>
<path d="M126.242 21.7012C126.466 21.7012 126.746 21.7432 127.082 21.8272C127.418 21.9112 127.717 22.0465 127.978 22.2332C128.24 22.4198 128.37 22.6578 128.37 22.9472C128.37 23.0872 128.324 23.1945 128.23 23.2692C128.146 23.3438 128.053 23.3812 127.95 23.3812C127.736 23.3812 127.563 23.2738 127.432 23.0592C127.274 22.8072 127.129 22.6158 126.998 22.4852C126.868 22.3452 126.681 22.2098 126.438 22.0792C126.364 22.0325 126.294 21.9998 126.228 21.9812C126.163 21.9532 126.107 21.9252 126.06 21.8972C126.014 21.8692 125.99 21.8412 125.99 21.8132C125.99 21.7385 126.074 21.7012 126.242 21.7012ZM124.954 22.6672C125.076 22.6672 125.309 22.7185 125.654 22.8212C126.009 22.9145 126.331 23.0685 126.62 23.2832C126.919 23.4885 127.068 23.7592 127.068 24.0952C127.068 24.2632 127.022 24.3892 126.928 24.4732C126.844 24.5478 126.737 24.5852 126.606 24.5852C126.513 24.5852 126.41 24.5572 126.298 24.5012C126.196 24.4358 126.116 24.3378 126.06 24.2072C125.939 23.9272 125.808 23.6938 125.668 23.5072C125.528 23.3205 125.337 23.1572 125.094 23.0172C125.057 22.9985 125.006 22.9752 124.94 22.9472C124.875 22.9098 124.828 22.8772 124.8 22.8492C124.772 22.8212 124.758 22.7932 124.758 22.7652C124.758 22.6998 124.824 22.6672 124.954 22.6672ZM122.854 27.8472C122.798 27.9125 122.77 27.9732 122.77 28.0292C122.77 28.1225 122.826 28.1972 122.938 28.2532C123.816 28.6452 124.618 29.1212 125.346 29.6812C126.074 30.2412 126.438 30.7778 126.438 31.2912C126.438 31.4592 126.387 31.6085 126.284 31.7392C126.182 31.8698 126.065 31.9352 125.934 31.9352C125.804 31.9352 125.668 31.8792 125.528 31.7672C125.388 31.6458 125.262 31.4778 125.15 31.2632C124.833 30.6565 124.464 30.1105 124.044 29.6252C123.624 29.1398 123.176 28.7385 122.7 28.4212C122.654 28.3838 122.598 28.3652 122.532 28.3652C122.448 28.3652 122.369 28.4072 122.294 28.4912C121.501 29.3872 120.624 30.2038 119.662 30.9412C118.701 31.6692 117.679 32.2572 116.596 32.7052C116.55 32.7238 116.512 32.7332 116.484 32.7332C116.428 32.7332 116.4 32.7098 116.4 32.6632C116.4 32.6258 116.447 32.5792 116.54 32.5232C117.567 31.9818 118.57 31.2352 119.55 30.2832C120.54 29.3312 121.38 28.3745 122.07 27.4132C122.77 26.4518 123.228 25.6912 123.442 25.1312L123.47 25.0192C123.47 24.9632 123.424 24.9352 123.33 24.9352C123.144 24.9352 122.612 25.0518 121.734 25.2852C120.857 25.5185 120.274 25.7005 119.984 25.8312C119.947 25.8498 119.886 25.8825 119.802 25.9292C119.718 25.9758 119.63 25.9992 119.536 25.9992C119.303 25.9992 119.088 25.9245 118.892 25.7752C118.696 25.6165 118.542 25.4345 118.43 25.2292C118.318 25.0238 118.262 24.8605 118.262 24.7392C118.262 24.6178 118.295 24.5572 118.36 24.5572C118.388 24.5572 118.444 24.5898 118.528 24.6552C118.622 24.7112 118.724 24.7578 118.836 24.7952C118.986 24.8512 119.158 24.8792 119.354 24.8792C119.55 24.8792 120.166 24.7998 121.202 24.6412C122.238 24.4732 122.896 24.3472 123.176 24.2632C123.316 24.2258 123.461 24.1652 123.61 24.0812C123.797 23.9972 123.914 23.9552 123.96 23.9552C124.054 23.9552 124.194 24.0158 124.38 24.1372C124.576 24.2492 124.744 24.3845 124.884 24.5432C125.034 24.6925 125.108 24.8232 125.108 24.9352C125.108 25.0005 125.08 25.0612 125.024 25.1172C124.968 25.1638 124.875 25.2385 124.744 25.3412C124.548 25.4718 124.427 25.5792 124.38 25.6632C123.904 26.4378 123.396 27.1658 122.854 27.8472Z" fill="#421D12"/>
<path d="M110.114 22.4021C110.263 22.4767 110.398 22.5887 110.52 22.7381C110.65 22.8781 110.716 23.0087 110.716 23.1301C110.716 23.1954 110.702 23.2421 110.674 23.2701C110.655 23.2887 110.613 23.3167 110.548 23.3541C110.538 23.3634 110.501 23.3914 110.436 23.4381C110.37 23.4754 110.31 23.5314 110.254 23.6061C109.824 24.2407 109.32 24.8941 108.742 25.5661C108.676 25.6501 108.644 25.7154 108.644 25.7621C108.644 25.8367 108.695 25.8974 108.798 25.9441C108.835 25.9627 108.877 25.9861 108.924 26.0141C108.97 26.0327 109.022 26.0607 109.078 26.0981C109.218 26.1821 109.288 26.3034 109.288 26.4621C109.288 26.5461 109.264 26.6721 109.218 26.8401C109.152 27.1667 109.12 27.3814 109.12 27.4841L109.106 29.3321C109.106 30.7134 109.129 31.6047 109.176 32.0061C109.204 32.2301 109.218 32.4307 109.218 32.6081C109.218 33.0747 109.078 33.3081 108.798 33.3081C108.583 33.3081 108.42 33.2334 108.308 33.0841C108.205 32.9347 108.154 32.7201 108.154 32.4401C108.154 31.9547 108.168 31.4741 108.196 30.9981C108.214 30.4007 108.224 29.9574 108.224 29.6681L108.21 27.3721C108.21 27.1014 108.186 26.8774 108.14 26.7001C108.112 26.5881 108.046 26.5321 107.944 26.5321C107.869 26.5321 107.799 26.5647 107.734 26.6301C106.418 27.9181 104.999 28.9354 103.478 29.6821C103.366 29.7381 103.277 29.7661 103.212 29.7661C103.137 29.7661 103.1 29.7474 103.1 29.7101C103.1 29.6447 103.193 29.5514 103.38 29.4301C104.574 28.5621 105.62 27.6801 106.516 26.7841C107.412 25.8787 108.093 25.0761 108.56 24.3761C109.036 23.6667 109.274 23.1767 109.274 22.9061C109.274 22.7194 109.227 22.5747 109.134 22.4721C109.096 22.4347 109.054 22.3974 109.008 22.3601C108.961 22.3227 108.938 22.2947 108.938 22.2761C108.938 22.2014 109.008 22.1641 109.148 22.1641C109.484 22.1641 109.806 22.2434 110.114 22.4021Z" fill="#421D12"/>
<path d="M98.7182 25.2867C98.8768 25.2867 99.0635 25.3334 99.2782 25.4267C99.5022 25.5107 99.6935 25.6227 99.8522 25.7627C100.011 25.8934 100.09 26.0287 100.09 26.1687C100.09 26.2714 100.053 26.3414 99.9782 26.3787C99.9128 26.4067 99.8195 26.4207 99.6982 26.4207C99.4835 26.4207 99.2922 26.4067 99.1242 26.3787C98.6015 26.3041 97.7335 26.2667 96.5202 26.2667H96.0582C95.8715 26.2854 95.7735 26.3881 95.7642 26.5747C95.6988 27.9001 95.5122 29.0247 95.2042 29.9487C94.8962 30.8634 94.4622 31.6287 93.9022 32.2447C93.3422 32.8607 92.6422 33.3787 91.8022 33.7987C91.7088 33.8454 91.6388 33.8687 91.5922 33.8687C91.5268 33.8687 91.4942 33.8454 91.4942 33.7987C91.4942 33.7334 91.5735 33.6541 91.7322 33.5607C92.7775 32.8607 93.5475 31.9461 94.0422 30.8167C94.5462 29.6781 94.8262 28.2781 94.8822 26.6167V26.5887C94.8822 26.4114 94.7935 26.3227 94.6162 26.3227C94.4855 26.3227 94.3735 26.3274 94.2802 26.3367C94.1868 26.3461 94.1122 26.3554 94.0562 26.3647C93.8415 26.3834 93.5008 26.4207 93.0342 26.4767C92.8475 26.4954 92.7542 26.6074 92.7542 26.8127C92.7635 27.5594 92.7822 28.2034 92.8102 28.7447C92.8195 28.8287 92.8242 28.9267 92.8242 29.0387C92.8242 29.5241 92.6982 29.7667 92.4462 29.7667C92.3902 29.7667 92.3202 29.7247 92.2362 29.6407C92.1522 29.5474 92.0775 29.4214 92.0122 29.2627C91.9468 29.1041 91.9142 28.9267 91.9142 28.7307C91.9142 28.6841 91.9282 28.4927 91.9562 28.1567C91.9842 27.8114 91.9982 27.5081 91.9982 27.2467V26.9107C91.9982 26.8174 91.9655 26.7474 91.9002 26.7007C91.8442 26.6447 91.7648 26.6261 91.6622 26.6447C90.7662 26.7754 90.0942 26.8967 89.6462 27.0087C89.4502 27.0647 89.2775 27.0927 89.1282 27.0927C88.9788 27.0927 88.8015 27.0367 88.5962 26.9247C88.3908 26.8127 88.2088 26.6681 88.0502 26.4907C87.9008 26.3041 87.8262 26.1454 87.8262 26.0147C87.8262 25.9587 87.8542 25.9307 87.9102 25.9307C87.9662 25.9307 88.0875 25.9821 88.2742 26.0847C88.3675 26.1407 88.5308 26.1921 88.7642 26.2387C89.0068 26.2854 89.2775 26.3087 89.5762 26.3087C89.8002 26.3087 90.5002 26.2387 91.6762 26.0987C91.8815 26.0801 91.9748 25.9727 91.9562 25.7767C91.9282 25.2541 91.9002 24.9321 91.8722 24.8107C91.7882 24.4001 91.5362 24.1434 91.1162 24.0407C91.1068 24.0407 91.0555 24.0314 90.9622 24.0127C90.8782 23.9847 90.8362 23.9474 90.8362 23.9007C90.8362 23.8447 90.9108 23.7934 91.0602 23.7467C91.2188 23.6907 91.3728 23.6627 91.5222 23.6627C91.8862 23.6627 92.2082 23.7234 92.4882 23.8447C92.7682 23.9567 92.9082 24.0967 92.9082 24.2647C92.9082 24.3207 92.8802 24.4094 92.8242 24.5307C92.7775 24.6521 92.7542 24.7454 92.7542 24.8107V25.6787C92.7542 25.8841 92.8568 25.9774 93.0622 25.9587L94.1262 25.8607L94.6162 25.8327C94.8028 25.8141 94.8962 25.7161 94.8962 25.5387C94.8962 24.8107 94.8728 24.2414 94.8262 23.8307C94.7795 23.4761 94.6862 23.2007 94.5462 23.0047C94.4062 22.8087 94.1822 22.6501 93.8742 22.5287C93.7808 22.4914 93.7342 22.4541 93.7342 22.4167C93.7342 22.3794 93.7668 22.3421 93.8322 22.3047C94.0002 22.1927 94.1915 22.1367 94.4062 22.1367C94.5555 22.1367 94.7655 22.1834 95.0362 22.2767C95.3162 22.3607 95.5588 22.4727 95.7642 22.6127C95.9695 22.7434 96.0722 22.8787 96.0722 23.0187C96.0722 23.1214 96.0395 23.2381 95.9742 23.3687C95.8995 23.4994 95.8528 23.6301 95.8342 23.7607C95.8062 23.9474 95.7922 24.2881 95.7922 24.7827V25.4687C95.7922 25.5621 95.8155 25.6367 95.8622 25.6927C95.9182 25.7487 95.9928 25.7721 96.0862 25.7627L97.5562 25.6647C97.7242 25.6461 97.9388 25.5761 98.2002 25.4547C98.4242 25.3427 98.5968 25.2867 98.7182 25.2867Z" fill="#421D12"/>
<path d="M79.3131 25.9714C79.3131 26.1581 79.4018 26.2701 79.5791 26.3074C80.4938 26.5128 81.3011 26.8114 82.0011 27.2034C82.7104 27.5954 83.0651 28.0481 83.0651 28.5614C83.0651 28.7201 83.0231 28.8508 82.9391 28.9534C82.8644 29.0561 82.7664 29.1074 82.6451 29.1074C82.3931 29.1074 82.0618 28.8554 81.6511 28.3514C81.1004 27.6514 80.4378 27.0914 79.6631 26.6714C79.5884 26.6341 79.5184 26.6154 79.4531 26.6154C79.3598 26.6154 79.3131 26.6574 79.3131 26.7414L79.2991 29.0374C79.2991 30.6148 79.3224 31.5248 79.3691 31.7674C79.3784 31.8328 79.4064 31.9821 79.4531 32.2154C79.4998 32.4394 79.5231 32.6168 79.5231 32.7474C79.5231 32.9341 79.4624 33.0974 79.3411 33.2374C79.2198 33.3868 79.1078 33.4614 79.0051 33.4614C78.8744 33.4614 78.7484 33.3541 78.6271 33.1394C78.5151 32.9341 78.4218 32.7008 78.3471 32.4394C78.2724 32.1688 78.2351 31.9821 78.2351 31.8794C78.2351 31.8234 78.2538 31.7114 78.2911 31.5434C78.3284 31.3661 78.3564 31.1374 78.3751 30.8574L78.4171 29.7234C78.4358 29.4434 78.4498 29.1728 78.4591 28.9114C78.4684 28.6408 78.4778 28.3888 78.4871 28.1554C78.5151 27.5301 78.5291 26.5781 78.5291 25.2994C78.5291 24.2728 78.5104 23.5961 78.4731 23.2694C78.4451 23.0734 78.3891 22.9241 78.3051 22.8214C78.2211 22.7094 78.1371 22.6254 78.0531 22.5694C77.9784 22.5041 77.9271 22.4621 77.8991 22.4434C77.8244 22.3874 77.7871 22.3408 77.7871 22.3034C77.7871 22.1914 77.8758 22.1168 78.0531 22.0794C78.2304 22.0421 78.3984 22.0234 78.5571 22.0234C78.8744 22.0234 79.1358 22.1261 79.3411 22.3314C79.4438 22.4341 79.4951 22.5554 79.4951 22.6954C79.4951 22.7608 79.4904 22.8168 79.4811 22.8634C79.4718 22.9101 79.4624 22.9521 79.4531 22.9894C79.4438 23.0361 79.4204 23.1668 79.3831 23.3814C79.3551 23.5961 79.3411 23.8341 79.3411 24.0954C79.3411 24.1608 79.3364 24.3754 79.3271 24.7394C79.3178 25.1034 79.3131 25.5141 79.3131 25.9714Z" fill="#421D12"/>
<path d="M61.6187 28.7011C61.3761 28.7011 61.1847 28.6545 61.0447 28.5611C60.8767 28.4678 60.7227 28.3418 60.5827 28.1831C60.4521 28.0245 60.3867 27.8518 60.3867 27.6651C60.3867 27.5625 60.4054 27.4598 60.4427 27.3571C60.4894 27.2545 60.5361 27.2031 60.5827 27.2031C60.6014 27.2031 60.6434 27.2265 60.7087 27.2731C60.8021 27.3478 60.9001 27.4038 61.0027 27.4411C61.3761 27.5625 61.7961 27.6231 62.2627 27.6231C62.6641 27.6138 63.2754 27.5998 64.0967 27.5811C64.9181 27.5531 65.6181 27.5298 66.1967 27.5111C67.4381 27.4645 68.4694 27.4178 69.2907 27.3711C69.7667 27.3431 70.1401 27.3291 70.4107 27.3291C70.7747 27.3291 71.0594 27.3618 71.2647 27.4271C71.4701 27.4925 71.5727 27.6371 71.5727 27.8611C71.5727 28.0851 71.3814 28.2158 70.9987 28.2531C70.8121 28.2718 70.5554 28.2811 70.2287 28.2811L66.1687 28.3791C65.4501 28.3978 64.6661 28.4305 63.8167 28.4771C62.9767 28.5238 62.4307 28.5751 62.1787 28.6311C61.9454 28.6778 61.7587 28.7011 61.6187 28.7011Z" fill="#421D12"/>
<path d="M49.5778 31.6556C49.4565 31.6556 49.3211 31.5903 49.1718 31.4596C49.0225 31.329 48.8871 31.1843 48.7658 31.0256C48.6538 30.8576 48.5978 30.7456 48.5978 30.6896C48.5978 30.6523 48.6118 30.601 48.6398 30.5356C48.6771 30.461 48.7005 30.3816 48.7098 30.2976C48.7751 29.7936 48.8078 29.117 48.8078 28.2676C48.8078 27.2036 48.7518 26.2236 48.6398 25.3276C48.6118 25.0476 48.4205 24.9076 48.0658 24.9076C48.0098 24.9076 47.9585 24.903 47.9118 24.8936C47.8651 24.8843 47.8418 24.8656 47.8418 24.8376C47.8418 24.7256 47.9118 24.6463 48.0518 24.5996C48.1918 24.5436 48.3365 24.5156 48.4858 24.5156C48.6445 24.5156 48.8405 24.5483 49.0738 24.6136C49.3165 24.679 49.5265 24.7676 49.7038 24.8796C49.8811 24.9916 49.9698 25.1083 49.9698 25.2296C49.9698 25.3323 49.9278 25.4443 49.8438 25.5656C49.7785 25.6683 49.7271 25.7616 49.6898 25.8456C49.6525 25.9296 49.6338 26.051 49.6338 26.2096L49.6058 26.9516C49.5778 27.9876 49.5638 28.585 49.5638 28.7436C49.5638 29.1916 49.5778 29.579 49.6058 29.9056C49.6151 29.999 49.6291 30.0736 49.6478 30.1296C49.6758 30.1763 49.7178 30.1996 49.7738 30.1996C49.9045 30.1996 50.3805 29.999 51.2018 29.5976C52.0325 29.1963 52.9751 28.6363 54.0298 27.9176C55.0845 27.1896 56.0738 26.3356 56.9978 25.3556C57.1098 25.2436 57.1938 25.1876 57.2498 25.1876C57.2778 25.1876 57.2918 25.211 57.2918 25.2576C57.2918 25.323 57.2405 25.421 57.1378 25.5516C56.0365 26.9423 54.8278 28.1136 53.5118 29.0656C52.2051 30.0083 51.1598 30.6803 50.3758 31.0816C50.3011 31.119 50.1891 31.2123 50.0398 31.3616C49.9558 31.455 49.8765 31.5296 49.8018 31.5856C49.7365 31.6323 49.6618 31.6556 49.5778 31.6556Z" fill="#421D12"/>
<path d="M43.3892 24.0116C43.0159 24.0116 42.6986 23.8856 42.4373 23.6336C42.1759 23.3722 42.0452 23.0549 42.0452 22.6816C42.0452 22.3082 42.1759 21.9956 42.4373 21.7436C42.6986 21.4822 43.0159 21.3516 43.3892 21.3516C43.7626 21.3516 44.0752 21.4822 44.3272 21.7436C44.5886 22.0049 44.7192 22.3176 44.7192 22.6816C44.7192 23.0549 44.5886 23.3722 44.3272 23.6336C44.0659 23.8856 43.7532 24.0116 43.3892 24.0116ZM43.3892 23.6476C43.6599 23.6476 43.8886 23.5542 44.0753 23.3676C44.2619 23.1716 44.3553 22.9429 44.3553 22.6816C44.3553 22.4109 44.2573 22.1822 44.0613 21.9956C43.8746 21.7996 43.6506 21.7016 43.3892 21.7016C43.1186 21.7016 42.8853 21.7996 42.6893 21.9956C42.5026 22.1822 42.4093 22.4109 42.4093 22.6816C42.4093 22.9522 42.5026 23.1809 42.6893 23.3676C42.8853 23.5542 43.1186 23.6476 43.3892 23.6476ZM33.3793 33.1256C33.3139 33.1256 33.2812 33.1022 33.2812 33.0556C33.2812 32.9902 33.3746 32.9109 33.5613 32.8176C35.1666 32.0429 36.5339 31.0816 37.6632 29.9336C38.7926 28.7856 39.6466 27.6982 40.2253 26.6716C40.8133 25.6449 41.1166 24.9496 41.1353 24.5856C41.1353 24.5016 41.0886 24.4596 40.9953 24.4596C40.8926 24.4596 40.4959 24.5016 39.8052 24.5856C39.1239 24.6696 38.3819 24.7816 37.5793 24.9216C36.7766 25.0616 36.0766 25.2156 35.4793 25.3836C35.2646 25.4396 35.0779 25.4676 34.9193 25.4676C34.6019 25.4676 34.3499 25.3882 34.1632 25.2296C34.0326 25.1176 33.9112 24.9589 33.7992 24.7536C33.6966 24.5389 33.6453 24.3709 33.6453 24.2496C33.6453 24.1562 33.6919 24.1096 33.7853 24.1096C33.8599 24.1096 33.9719 24.1422 34.1212 24.2076C34.4292 24.3289 34.7326 24.3896 35.0312 24.3896C35.2459 24.3896 36.0766 24.3336 37.5233 24.2216C38.9699 24.1096 39.8239 24.0162 40.0853 23.9416C40.2159 23.9042 40.3839 23.8436 40.5893 23.7596C40.9066 23.6196 41.1259 23.5496 41.2473 23.5496C41.3593 23.5496 41.5226 23.6196 41.7372 23.7596C41.9519 23.8996 42.1433 24.0629 42.3113 24.2496C42.4886 24.4269 42.5772 24.5809 42.5772 24.7116C42.5772 24.8142 42.5446 24.9122 42.4792 25.0056C42.4232 25.0989 42.3346 25.2062 42.2133 25.3276C42.1946 25.3556 42.1246 25.4396 42.0033 25.5796C41.8913 25.7102 41.7886 25.8596 41.6953 26.0276C41.0606 27.2409 40.3466 28.2769 39.5532 29.1356C38.7599 29.9942 37.8919 30.7222 36.9493 31.3196C36.0066 31.9169 34.8959 32.4956 33.6172 33.0556C33.5053 33.1022 33.4259 33.1256 33.3793 33.1256Z" fill="#421D12"/>
<path d="M116.661 78.3008C117.034 78.3541 117.327 78.4408 117.541 78.5608C117.754 78.6808 117.861 78.8874 117.861 79.1808C117.861 79.6074 117.581 79.8208 117.021 79.8208C116.821 79.8208 116.467 79.7808 115.961 79.7008C114.534 79.5141 113.401 79.4208 112.561 79.4208C112.134 79.4208 111.821 79.4274 111.621 79.4408C111.367 79.4541 111.227 79.6008 111.201 79.8808C111.174 80.9208 111.161 81.7008 111.161 82.2208V83.0808C111.174 83.2674 111.227 83.4408 111.321 83.6008C111.547 84.0541 111.727 84.5475 111.861 85.0808C111.994 85.6008 112.061 86.1074 112.061 86.6008C112.061 87.6674 111.801 88.5874 111.281 89.3608C110.761 90.1208 110.134 90.7208 109.401 91.1608C108.681 91.6008 107.961 91.9075 107.241 92.0808C107.147 92.1075 107.081 92.1208 107.041 92.1208C106.947 92.1208 106.901 92.0874 106.901 92.0208C106.901 91.9274 106.967 91.8541 107.101 91.8008C107.994 91.4141 108.694 90.9274 109.201 90.3408C109.707 89.7541 110.054 89.1808 110.241 88.6208C110.427 88.0608 110.527 87.5741 110.541 87.1608C110.541 87.1341 110.501 87.1608 110.421 87.2408C110.341 87.3075 110.247 87.3741 110.141 87.4408C109.994 87.5474 109.841 87.6341 109.681 87.7008C109.521 87.7541 109.381 87.7808 109.261 87.7808C108.887 87.7808 108.554 87.6408 108.261 87.3608C107.981 87.0674 107.747 86.7208 107.561 86.3208C107.401 85.9741 107.267 85.6074 107.161 85.2208C107.067 84.8341 107.021 84.4741 107.021 84.1408C107.021 83.4874 107.207 82.9341 107.581 82.4808C107.967 82.0141 108.467 81.7808 109.081 81.7808C109.254 81.7808 109.414 81.8074 109.561 81.8608C109.667 81.8874 109.734 81.9008 109.761 81.9008C109.934 81.9008 110.027 81.8008 110.041 81.6008C110.107 80.9474 110.147 80.4408 110.161 80.0808C110.161 79.9341 110.114 79.8274 110.021 79.7608C109.941 79.6808 109.834 79.6541 109.701 79.6808C108.607 79.9074 107.321 80.3474 105.841 81.0008C105.267 81.3074 104.747 81.4608 104.281 81.4608C103.907 81.4608 103.534 81.3541 103.161 81.1408C102.867 80.9674 102.567 80.7141 102.261 80.3808C101.954 80.0341 101.801 79.7874 101.801 79.6408C101.801 79.5741 101.847 79.5408 101.941 79.5408C102.021 79.5408 102.221 79.5808 102.541 79.6608C103.074 79.7541 103.481 79.8008 103.761 79.8008C104.281 79.8008 104.754 79.7474 105.181 79.6408C106.021 79.4541 107.547 79.1808 109.761 78.8208C110.014 78.7808 110.141 78.6408 110.141 78.4008C110.141 78.1341 110.114 77.6808 110.061 77.0408C110.034 76.6941 109.947 76.3808 109.801 76.1008C109.667 75.8208 109.514 75.6208 109.341 75.5008C109.247 75.4341 109.147 75.3674 109.041 75.3008C108.947 75.2341 108.901 75.1808 108.901 75.1408C108.901 75.0474 108.994 74.9674 109.181 74.9008C109.367 74.8341 109.541 74.8008 109.701 74.8008C109.954 74.8008 110.214 74.8541 110.481 74.9608C111.214 75.2274 111.581 75.6141 111.581 76.1208C111.581 76.2008 111.574 76.2674 111.561 76.3208C111.547 76.3608 111.541 76.4141 111.541 76.4808C111.541 76.6274 111.621 76.7541 111.781 76.8608C112.381 77.1808 112.901 77.4408 113.341 77.6408C113.781 77.8274 114.207 77.9541 114.621 78.0208C115.061 78.1408 115.574 78.2141 116.161 78.2408L116.661 78.3008ZM112.461 78.4608C112.527 78.4608 112.621 78.4608 112.741 78.4608C112.874 78.4474 112.967 78.4341 113.021 78.4208C113.087 78.3941 113.121 78.3608 113.121 78.3208C113.121 78.2674 113.074 78.2141 112.981 78.1608C112.901 78.1074 112.847 78.0674 112.821 78.0408C112.661 77.9474 112.341 77.7341 111.861 77.4008C111.767 77.3474 111.681 77.3208 111.601 77.3208C111.427 77.3208 111.334 77.4274 111.321 77.6408C111.294 77.8808 111.281 78.0541 111.281 78.1608C111.281 78.4408 111.481 78.5608 111.881 78.5208C112.014 78.4941 112.127 78.4808 112.221 78.4808C112.314 78.4808 112.394 78.4741 112.461 78.4608ZM109.061 86.1408C109.354 86.1408 109.587 86.0141 109.761 85.7608C109.947 85.5074 110.041 85.1341 110.041 84.6408C110.041 84.1608 109.934 83.6741 109.721 83.1808C109.507 82.6741 109.201 82.4208 108.801 82.4208C108.454 82.4208 108.167 82.5941 107.941 82.9408C107.727 83.2874 107.621 83.7008 107.621 84.1808C107.621 84.6341 107.767 85.0741 108.061 85.5008C108.367 85.9274 108.701 86.1408 109.061 86.1408Z" fill="#421D12"/>
<path d="M91.1195 87.6008C91.1329 87.8274 91.2529 87.9808 91.4795 88.0608C92.3862 88.3808 93.1262 88.7674 93.6995 89.2208C94.2862 89.6741 94.5795 90.1808 94.5795 90.7408C94.5795 90.9808 94.5195 91.1541 94.3995 91.2608C94.2795 91.3674 94.1529 91.4208 94.0195 91.4208C93.7529 91.4208 93.4329 91.2475 93.0595 90.9008C92.6062 90.4741 92.1129 90.0408 91.5795 89.6008C91.4729 89.5341 91.3929 89.5008 91.3395 89.5008C91.2062 89.5008 91.0995 89.6008 91.0195 89.8008C90.7929 90.3741 90.4062 90.8208 89.8595 91.1408C89.3262 91.4608 88.6729 91.6208 87.8995 91.6208C87.0862 91.6208 86.3595 91.4408 85.7195 91.0808C85.0929 90.7208 84.7795 90.2074 84.7795 89.5408C84.7795 89.0741 84.9395 88.6808 85.2595 88.3608C85.5929 88.0274 86.0062 87.7808 86.4995 87.6208C87.0062 87.4474 87.5129 87.3608 88.0195 87.3608C88.4329 87.3608 88.8795 87.4074 89.3595 87.5008L89.4795 87.5208C89.7195 87.5208 89.8262 87.3874 89.7995 87.1208L89.6595 84.9008C89.6329 84.6208 89.4795 84.5008 89.1995 84.5408C88.6395 84.6074 88.1729 84.6408 87.7995 84.6408C87.0395 84.6408 86.3729 84.4808 85.7995 84.1608C85.2262 83.8408 84.8195 83.4074 84.5795 82.8608C84.5395 82.7408 84.5195 82.6674 84.5195 82.6408C84.5195 82.5741 84.5462 82.5408 84.5995 82.5408C84.6395 82.5408 84.6862 82.5608 84.7395 82.6008C84.7929 82.6408 84.8329 82.6674 84.8595 82.6808C85.0862 82.8274 85.4462 82.9941 85.9395 83.1808C86.4329 83.3674 86.9662 83.4608 87.5395 83.4608C88.0595 83.4608 88.6062 83.4141 89.1795 83.3208C89.4462 83.2808 89.5795 83.1608 89.5795 82.9608C89.5795 82.1074 89.5995 81.2741 89.6395 80.4608V80.3408C89.6395 80.1274 89.5995 80.0208 89.5195 80.0208C89.0795 80.0208 88.7062 79.9541 88.3995 79.8208C88.1195 79.6874 87.8329 79.5008 87.5395 79.2608C87.2462 79.0074 87.0262 78.7808 86.8795 78.5808C86.7729 78.3941 86.7195 78.2874 86.7195 78.2608C86.7195 78.2074 86.7462 78.1808 86.7995 78.1808C86.8529 78.1808 86.9729 78.2208 87.1595 78.3008C87.2262 78.3408 87.3662 78.4141 87.5795 78.5208C87.7929 78.6274 87.9929 78.7074 88.1795 78.7608C88.3795 78.8141 88.5862 78.8408 88.7995 78.8408C89.0262 78.8408 89.2529 78.8141 89.4795 78.7608C89.7195 78.7208 89.8595 78.5808 89.8995 78.3408C89.9662 77.9674 89.9995 77.6208 89.9995 77.3008C89.9995 76.8474 89.9129 76.4408 89.7395 76.0808C89.6595 75.9074 89.5129 75.7008 89.2995 75.4608C89.2329 75.3941 89.1729 75.3274 89.1195 75.2608C89.0795 75.1941 89.0595 75.1341 89.0595 75.0808C89.0595 75.0008 89.1129 74.9341 89.2195 74.8808C89.3262 74.8274 89.4529 74.8008 89.5995 74.8008C89.7995 74.8008 90.0395 74.8541 90.3195 74.9608C90.6129 75.0674 90.8662 75.2341 91.0795 75.4608C91.2929 75.6874 91.3995 75.9674 91.3995 76.3008C91.3995 76.4341 91.3662 76.6074 91.2995 76.8208C91.2462 77.0208 91.1862 77.2208 91.1195 77.4208C91.0129 77.7408 90.9395 77.9808 90.8995 78.1408V78.1808C90.8995 78.3008 90.9795 78.3608 91.1395 78.3608C91.1929 78.3608 91.2729 78.3474 91.3795 78.3208C91.5129 78.2808 91.6195 78.2474 91.6995 78.2208C91.7795 78.1941 91.8462 78.1741 91.8995 78.1608C92.0862 78.1074 92.2195 78.0808 92.2995 78.0808C92.4729 78.0808 92.6129 78.1274 92.7195 78.2208C92.8262 78.3008 92.8795 78.4208 92.8795 78.5808C92.8795 78.7408 92.8195 78.9008 92.6995 79.0608C92.5795 79.2208 92.4129 79.3474 92.1995 79.4408C91.7995 79.6141 91.3929 79.7408 90.9795 79.8208C90.7262 79.8874 90.5929 80.0341 90.5795 80.2608C90.5395 80.8208 90.5195 81.3674 90.5195 81.9008C90.5062 82.0474 90.4995 82.1808 90.4995 82.3008C90.5129 82.4074 90.5195 82.5008 90.5195 82.5808C90.5195 82.8341 90.6262 82.9608 90.8395 82.9608L90.9995 82.9208C91.3995 82.7874 91.7395 82.6274 92.0195 82.4408C92.2195 82.3074 92.3195 82.1608 92.3195 82.0008C92.3195 81.8808 92.2595 81.7474 92.1395 81.6008C92.0329 81.4541 91.9662 81.3608 91.9395 81.3208C91.8062 81.1608 91.7262 81.0541 91.6995 81.0008C91.5929 80.8274 91.5395 80.7274 91.5395 80.7008C91.5395 80.6608 91.5595 80.6408 91.5995 80.6408C91.6529 80.6408 91.7729 80.7141 91.9595 80.8608C92.3329 81.1541 92.7395 81.3275 93.1795 81.3808C93.2595 81.3941 93.4195 81.4141 93.6595 81.4408C93.8995 81.4674 94.0729 81.5408 94.1795 81.6608C94.2729 81.7541 94.3195 81.9074 94.3195 82.1208C94.3195 82.3608 94.2462 82.6008 94.0995 82.8408C93.9662 83.0674 93.7462 83.2474 93.4395 83.3808C92.8929 83.6474 92.0662 83.9141 90.9595 84.1808C90.7062 84.2608 90.5995 84.4741 90.6395 84.8208C90.6929 85.2474 90.7595 85.6874 90.8395 86.1408C90.9329 86.5941 90.9929 86.9008 91.0195 87.0608L91.1195 87.6008ZM87.4795 90.5008C88.1062 90.5008 88.6262 90.3674 89.0395 90.1008C89.4662 89.8208 89.7329 89.4341 89.8395 88.9408V88.8408C89.8395 88.6274 89.7395 88.4941 89.5395 88.4408C89.0062 88.2541 88.4462 88.1608 87.8595 88.1608C87.2462 88.1608 86.7062 88.2808 86.2395 88.5208C85.7729 88.7474 85.5395 89.0608 85.5395 89.4608C85.5395 89.7408 85.7195 89.9874 86.0795 90.2008C86.4529 90.4008 86.9195 90.5008 87.4795 90.5008Z" fill="#421D12"/>
<path d="M77.0598 79.9404C76.8065 79.9404 76.5798 79.8271 76.3798 79.6004C76.0865 79.2671 75.8332 79.0271 75.6198 78.8804C75.4065 78.7204 75.1065 78.5737 74.7198 78.4404C74.6265 78.4004 74.4998 78.3671 74.3398 78.3404C74.2332 78.3004 74.1798 78.2471 74.1798 78.1804C74.1798 78.1004 74.2265 78.0537 74.3198 78.0404C74.4532 78.0004 74.6198 77.9671 74.8198 77.9404C75.0332 77.9137 75.2065 77.9004 75.3398 77.9004C75.9398 77.9004 76.4865 78.0271 76.9798 78.2804C77.4865 78.5204 77.7398 78.8604 77.7398 79.3004C77.7398 79.5004 77.6732 79.6604 77.5398 79.7804C77.4065 79.8871 77.2465 79.9404 77.0598 79.9404ZM75.4398 81.7804C75.1332 81.7804 74.8932 81.6471 74.7198 81.3804C74.4532 81.0071 74.1865 80.7071 73.9198 80.4804C73.6665 80.2537 73.3532 80.0871 72.9798 79.9804C72.9398 79.9671 72.8798 79.9471 72.7998 79.9204C72.7198 79.8937 72.6598 79.8671 72.6198 79.8404C72.5798 79.8004 72.5598 79.7604 72.5598 79.7204C72.5598 79.5871 72.8398 79.5204 73.3998 79.5204C74.1465 79.5204 74.7932 79.6604 75.3398 79.9404C75.8998 80.2204 76.1798 80.6071 76.1798 81.1004C76.1798 81.3271 76.0998 81.5004 75.9398 81.6204C75.7932 81.7271 75.6265 81.7804 75.4398 81.7804ZM77.5398 88.1604C77.2065 88.1604 76.7998 88.0471 76.3198 87.8204C74.9732 87.1537 73.8065 86.4404 72.8198 85.6804C71.8465 84.9204 70.6332 83.8071 69.1798 82.3404C68.8598 82.0204 68.5732 81.8604 68.3198 81.8604C68.0665 81.8604 67.7732 82.0271 67.4398 82.3604C67.2132 82.5871 67.0465 82.7671 66.9398 82.9004C66.1932 83.6471 65.6798 84.2071 65.3998 84.5804C64.9732 85.1271 64.5932 85.5271 64.2598 85.7804C63.9398 86.0204 63.5998 86.1404 63.2398 86.1404C62.9198 86.1404 62.6132 86.0471 62.3198 85.8604C62.0265 85.6737 61.7865 85.4604 61.5998 85.2204C61.4265 84.9671 61.3398 84.7604 61.3398 84.6004C61.3398 84.5471 61.3598 84.5004 61.3998 84.4604C61.4398 84.4204 61.4932 84.4004 61.5598 84.4004C61.6265 84.4004 61.7398 84.4137 61.8998 84.4404C62.0598 84.4537 62.2198 84.4604 62.3798 84.4604C62.6332 84.4604 62.8865 84.4204 63.1398 84.3404C63.3932 84.2604 63.7198 84.0804 64.1198 83.8004C64.5332 83.5071 65.0265 83.1404 65.5998 82.7004C66.1732 82.2471 66.6998 81.8204 67.1798 81.4204C67.5665 81.1004 67.9332 80.9404 68.2798 80.9404C68.6398 80.9404 69.0198 81.1004 69.4198 81.4204C70.1798 82.0604 70.8465 82.6004 71.4198 83.0404C71.9932 83.4804 72.7998 83.9937 73.8398 84.5804C74.8798 85.1671 76.0265 85.6604 77.2798 86.0604C77.7198 86.1937 78.0332 86.3737 78.2198 86.6004C78.4198 86.8271 78.5198 87.0671 78.5198 87.3204C78.5198 87.5604 78.4332 87.7604 78.2598 87.9204C78.0865 88.0804 77.8465 88.1604 77.5398 88.1604Z" fill="#421D12"/>
<path d="M49.9392 76.1593C49.9392 76.026 49.8992 75.926 49.8192 75.8593C49.7526 75.7793 49.6526 75.7393 49.5192 75.7393H48.7792C48.1526 75.766 47.5792 75.8326 47.0592 75.9393C47.0192 75.9526 46.9726 75.9593 46.9192 75.9593C46.7726 75.9593 46.6459 75.866 46.5392 75.6793L46.4592 75.5393C46.4192 75.4593 46.3992 75.3793 46.3992 75.2993C46.3992 75.2193 46.4326 75.1593 46.4992 75.1193C46.5659 75.066 46.6592 75.046 46.7792 75.0593C47.1792 75.0993 47.7926 75.1326 48.6192 75.1593H49.4592C49.6726 75.1593 49.8392 75.0726 49.9592 74.8993L50.0792 74.7193C50.1192 74.666 50.1659 74.5993 50.2192 74.5193C50.2859 74.4393 50.3392 74.3793 50.3792 74.3393C50.4326 74.2993 50.4859 74.2793 50.5392 74.2793C50.6326 74.2793 50.8192 74.3993 51.0992 74.6393C51.3926 74.866 51.6192 75.086 51.7792 75.2993C51.8459 75.3926 51.8792 75.4593 51.8792 75.4993C51.8792 75.5926 51.8126 75.686 51.6792 75.7793L51.6192 75.7993C51.3926 75.8793 51.2792 76.0393 51.2792 76.2793V76.5793L51.3392 77.5193C51.3392 77.6393 51.3259 77.7393 51.2992 77.8193C51.2859 77.886 51.2392 77.9526 51.1592 78.0193C51.0392 78.0993 50.8792 78.1726 50.6792 78.2393C50.4792 78.306 50.3059 78.3393 50.1592 78.3393C50.0126 78.3393 49.9392 78.246 49.9392 78.0593C49.9392 77.8726 49.7992 77.7793 49.5192 77.7793H48.2392C48.1059 77.7793 47.9992 77.8193 47.9192 77.8993C47.8526 77.966 47.8192 78.066 47.8192 78.1993V79.2393C47.8192 79.3593 47.8392 79.4326 47.8792 79.4593C47.9326 79.486 48.0726 79.4993 48.2992 79.4993H50.5592C50.7059 79.4993 50.8059 79.4526 50.8592 79.3593C50.9526 79.266 51.0659 79.026 51.1992 78.6393C51.2792 78.3993 51.3526 78.2793 51.4192 78.2793C51.4859 78.2793 51.5259 78.4126 51.5392 78.6793L51.5792 79.0193C51.5926 79.206 51.6992 79.3726 51.8992 79.5193C51.9792 79.5726 52.0326 79.626 52.0592 79.6793C52.0859 79.7326 52.0992 79.806 52.0992 79.8993C52.0992 80.1793 51.9059 80.3726 51.5192 80.4793C51.1459 80.586 50.4259 80.6393 49.3592 80.6393H47.9592C47.5459 80.6393 47.2392 80.606 47.0392 80.5393C46.8392 80.4593 46.6992 80.3393 46.6192 80.1793C46.5526 80.0193 46.5192 79.7793 46.5192 79.4593V77.9793C46.5192 77.526 46.5126 77.1926 46.4992 76.9793V76.9393C46.4992 76.7126 46.5792 76.5993 46.7392 76.5993C46.8059 76.5993 46.8792 76.6193 46.9592 76.6593L47.8192 77.0593C48.0059 77.1393 48.1792 77.1793 48.3392 77.1793H49.5192C49.6526 77.1793 49.7526 77.146 49.8192 77.0793C49.8992 76.9993 49.9392 76.8926 49.9392 76.7593V76.1593ZM56.1592 76.1593C56.1592 76.026 56.1192 75.926 56.0392 75.8593C55.9726 75.7793 55.8726 75.7393 55.7392 75.7393H54.9592C54.3326 75.7526 53.7326 75.8193 53.1592 75.9393C53.1192 75.9526 53.0726 75.9593 53.0192 75.9593C52.8459 75.9593 52.7126 75.8726 52.6192 75.6993L52.5392 75.5393C52.4992 75.4593 52.4792 75.3793 52.4792 75.2993C52.4792 75.2193 52.5126 75.1593 52.5792 75.1193C52.6459 75.066 52.7392 75.046 52.8592 75.0593C53.2859 75.0993 53.9259 75.1326 54.7792 75.1593H55.6792C55.8926 75.1593 56.0592 75.0726 56.1792 74.8993L56.2992 74.7193C56.3392 74.666 56.3859 74.5993 56.4392 74.5193C56.5059 74.4393 56.5592 74.3793 56.5992 74.3393C56.6526 74.2993 56.7059 74.2793 56.7592 74.2793C56.8526 74.2793 57.0459 74.3993 57.3392 74.6393C57.6459 74.8793 57.8792 75.0993 58.0392 75.2993C58.1059 75.3926 58.1392 75.4593 58.1392 75.4993C58.1392 75.5926 58.0726 75.686 57.9392 75.7793L57.8592 75.8193C57.6326 75.926 57.5192 76.0793 57.5192 76.2793V76.5793L57.5792 77.5193C57.5792 77.6393 57.5659 77.7393 57.5392 77.8193C57.5259 77.886 57.4792 77.946 57.3992 77.9993C57.2792 78.0926 57.1192 78.1726 56.9192 78.2393C56.7326 78.306 56.5592 78.3393 56.3992 78.3393C56.2392 78.3393 56.1592 78.246 56.1592 78.0593C56.1592 77.8726 56.0192 77.7793 55.7392 77.7793H54.4592C54.3259 77.7793 54.2192 77.8193 54.1392 77.8993C54.0726 77.966 54.0392 78.066 54.0392 78.1993V79.2393C54.0392 79.346 54.0659 79.4193 54.1192 79.4593C54.1726 79.486 54.3126 79.4993 54.5392 79.4993H56.9192C57.0526 79.4993 57.1592 79.4526 57.2392 79.3593C57.3459 79.226 57.4659 78.9526 57.5992 78.5393C57.6792 78.2993 57.7526 78.1793 57.8192 78.1793C57.8859 78.1793 57.9259 78.3126 57.9392 78.5793L57.9592 79.0193C57.9726 79.206 58.0859 79.3726 58.2992 79.5193C58.3792 79.5726 58.4326 79.626 58.4592 79.6793C58.4859 79.7326 58.4992 79.806 58.4992 79.8993C58.4992 80.1793 58.2992 80.3726 57.8992 80.4793C57.5126 80.586 56.7726 80.6393 55.6792 80.6393H54.1992C53.7726 80.6393 53.4526 80.606 53.2392 80.5393C53.0259 80.4593 52.8859 80.3393 52.8192 80.1793C52.7526 80.0193 52.7192 79.7793 52.7192 79.4593V77.9793C52.7192 77.526 52.7126 77.1926 52.6992 76.9793V76.9393C52.6992 76.7126 52.7792 76.5993 52.9392 76.5993C53.0059 76.5993 53.0792 76.6193 53.1592 76.6593L54.0192 77.0593C54.2059 77.1393 54.3792 77.1793 54.5392 77.1793H55.7392C55.8726 77.1793 55.9726 77.146 56.0392 77.0793C56.1192 76.9993 56.1592 76.8926 56.1592 76.7593V76.1593ZM44.2592 78.8793C44.1526 78.8793 44.0192 78.846 43.8592 78.7793C43.7659 78.7393 43.6992 78.686 43.6592 78.6193C43.6192 78.5393 43.5792 78.4393 43.5392 78.3193C43.4192 77.826 43.1926 77.306 42.8592 76.7593C42.5259 76.2126 42.1592 75.7126 41.7592 75.2593C41.6126 75.0726 41.5392 74.9526 41.5392 74.8993C41.5392 74.846 41.5859 74.8193 41.6792 74.8193C41.7592 74.8193 41.8592 74.8393 41.9792 74.8793C43.0326 75.2526 43.8059 75.7193 44.2992 76.2793C44.8059 76.826 45.0592 77.3593 45.0592 77.8793C45.0592 78.1726 44.9792 78.4126 44.8192 78.5993C44.6726 78.786 44.4859 78.8793 44.2592 78.8793ZM51.2992 90.6393C54.1259 90.6393 56.5792 90.6126 58.6592 90.5593H58.7592C58.8526 90.5593 58.9259 90.5726 58.9792 90.5993C59.0459 90.626 59.0792 90.6526 59.0792 90.6793C59.0792 90.746 58.9659 90.8326 58.7392 90.9393C58.3926 91.0993 58.1592 91.366 58.0392 91.7393C57.9592 91.9926 57.8059 92.1193 57.5792 92.1193H51.3192C50.1326 92.1193 49.1659 92.0526 48.4192 91.9193C47.6726 91.786 47.0326 91.546 46.4992 91.1993C45.9659 90.8526 45.4859 90.3393 45.0592 89.6593C44.9792 89.526 44.8792 89.4593 44.7592 89.4593C44.6659 89.4593 44.5726 89.5126 44.4792 89.6193C43.7859 90.5126 43.1259 91.266 42.4992 91.8793C42.3526 92.026 42.2792 92.1193 42.2792 92.1593V92.1993C42.2126 92.226 42.1459 92.2393 42.0792 92.2393C41.9326 92.2393 41.8392 92.186 41.7992 92.0793L41.2792 91.0993C41.2392 91.0193 41.2192 90.946 41.2192 90.8793C41.2192 90.7326 41.2992 90.6193 41.4592 90.5393C41.7926 90.366 42.2659 90.106 42.8792 89.7593L43.3192 89.5193C43.5059 89.4126 43.5992 89.2393 43.5992 88.9993V83.7793C43.5992 83.646 43.5592 83.546 43.4792 83.4793C43.4126 83.3993 43.3126 83.3593 43.1792 83.3593H42.7992C42.4259 83.386 42.1126 83.4393 41.8592 83.5193C41.8192 83.5326 41.7592 83.5393 41.6792 83.5393C41.5192 83.5393 41.3992 83.4526 41.3192 83.2793L41.2592 83.1393C41.2192 83.0593 41.1992 82.9926 41.1992 82.9393C41.1992 82.7526 41.3326 82.6726 41.5992 82.6993L42.5992 82.7593H43.0192C43.2326 82.7593 43.3992 82.666 43.5192 82.4793L43.6992 82.1993C43.7392 82.146 43.7926 82.066 43.8592 81.9593C43.9392 81.8393 44.0059 81.7526 44.0592 81.6993C44.1126 81.646 44.1659 81.6193 44.2192 81.6193C44.3259 81.6193 44.5659 81.7726 44.9392 82.0793C45.3259 82.386 45.6126 82.6593 45.7992 82.8993C45.8526 82.966 45.8792 83.0393 45.8792 83.1193C45.8792 83.2126 45.8192 83.2993 45.6992 83.3793C45.5926 83.4326 45.4992 83.4726 45.4192 83.4993C45.1659 83.5793 45.0392 83.7326 45.0392 83.9593V88.5393C45.0392 88.7393 45.1059 88.9126 45.2392 89.0593C45.4526 89.2726 45.6459 89.4393 45.8192 89.5593C45.9392 89.6393 46.0259 89.6793 46.0792 89.6793C46.1192 89.6793 46.1792 89.6526 46.2592 89.5993C46.3259 89.5326 46.3859 89.486 46.4392 89.4593L46.9192 89.1593C47.3859 88.8393 47.8392 88.466 48.2792 88.0393C48.7192 87.6126 49.0792 87.186 49.3592 86.7593C49.4126 86.666 49.4392 86.586 49.4392 86.5193C49.4392 86.4393 49.4126 86.3793 49.3592 86.3393C49.3059 86.286 49.2326 86.2593 49.1392 86.2593C48.3259 86.2726 47.4459 86.346 46.4992 86.4793H46.3792C46.1926 86.4793 46.0592 86.3926 45.9792 86.2193L45.8992 86.0593C45.8592 85.9793 45.8392 85.906 45.8392 85.8393C45.8392 85.7593 45.8726 85.6926 45.9392 85.6393C46.0192 85.586 46.1192 85.566 46.2392 85.5793C46.6526 85.6193 47.2659 85.6526 48.0792 85.6793H48.8392C48.9726 85.6793 49.0726 85.646 49.1392 85.5793C49.2192 85.4993 49.2592 85.3926 49.2592 85.2593V83.7593C49.2592 83.626 49.2192 83.526 49.1392 83.4593C49.0726 83.3793 48.9726 83.3393 48.8392 83.3393H48.4192C48.0726 83.3526 47.6992 83.406 47.2992 83.4993C47.2192 83.526 47.1592 83.5393 47.1192 83.5393C46.9592 83.5393 46.8392 83.4526 46.7592 83.2793L46.6992 83.1393C46.6592 83.0593 46.6392 82.9793 46.6392 82.8993C46.6392 82.726 46.7659 82.6526 47.0192 82.6793C47.3126 82.706 47.7526 82.7326 48.3392 82.7593H48.8392C49.1192 82.7593 49.2592 82.6193 49.2592 82.3393L49.1992 81.3193V81.2793C49.1992 81.0393 49.2992 80.9193 49.4992 80.9193L49.6792 80.9593C50.5992 81.226 51.0592 81.4393 51.0592 81.5993C51.0592 81.6526 51.0192 81.706 50.9392 81.7593C50.7792 81.8793 50.6992 82.046 50.6992 82.2593V82.3393C50.6992 82.4726 50.7326 82.5793 50.7992 82.6593C50.8792 82.726 50.9859 82.7593 51.1192 82.7593H52.9192C53.1992 82.7593 53.3392 82.6193 53.3392 82.3393L53.2792 81.3193V81.2793C53.2792 81.0393 53.3792 80.9193 53.5792 80.9193L53.7592 80.9593C54.6792 81.226 55.1392 81.4393 55.1392 81.5993C55.1392 81.6526 55.0992 81.706 55.0192 81.7593C54.8592 81.8793 54.7792 82.046 54.7792 82.2593V82.3393C54.7792 82.6193 54.9126 82.7593 55.1792 82.7593H55.2592C55.4859 82.7593 55.6592 82.6726 55.7792 82.4993L55.9792 82.2193C56.0192 82.166 56.0792 82.086 56.1592 81.9793C56.2392 81.8726 56.3059 81.7926 56.3592 81.7393C56.4259 81.686 56.4859 81.6593 56.5392 81.6593C56.6459 81.6593 56.8659 81.7926 57.1992 82.0593C57.5326 82.326 57.7792 82.566 57.9392 82.7793C58.0059 82.8726 58.0392 82.9526 58.0392 83.0193C58.0392 83.0993 57.9992 83.1726 57.9192 83.2393C57.8259 83.306 57.7059 83.3393 57.5592 83.3393H55.1992C55.0659 83.3393 54.9592 83.3793 54.8792 83.4593C54.8126 83.526 54.7792 83.626 54.7792 83.7593V85.2593C54.7792 85.3926 54.8126 85.4993 54.8792 85.5793C54.9592 85.646 55.0659 85.6793 55.1992 85.6793H55.8192C56.0326 85.6793 56.1992 85.5926 56.3192 85.4193L56.5592 85.0593C56.6259 84.9793 56.6926 84.8926 56.7592 84.7993C56.8259 84.706 56.8926 84.626 56.9592 84.5593C57.0259 84.4793 57.0859 84.4393 57.1392 84.4393C57.2459 84.4393 57.4926 84.5993 57.8792 84.9193C58.2659 85.226 58.5459 85.4926 58.7192 85.7193C58.7726 85.786 58.7992 85.8593 58.7992 85.9393C58.7992 86.0326 58.7592 86.1126 58.6792 86.1793C58.6126 86.2326 58.4992 86.2593 58.3392 86.2593H50.6592C50.4326 86.2593 50.3192 86.326 50.3192 86.4593C50.3192 86.5926 50.4059 86.706 50.5792 86.7993C51.2192 87.226 51.5392 87.4993 51.5392 87.6193C51.5392 87.6726 51.4526 87.7126 51.2792 87.7393L51.0992 87.7593C50.8992 87.7726 50.7326 87.8326 50.5992 87.9393C50.1459 88.2593 49.6059 88.5793 48.9792 88.8993C48.3526 89.206 47.7126 89.466 47.0592 89.6793C46.8726 89.746 46.7392 89.8193 46.6592 89.8993C46.5926 89.9793 46.6059 90.0393 46.6992 90.0793C47.2059 90.2926 47.8059 90.4393 48.4992 90.5193C49.2059 90.5993 50.1392 90.6393 51.2992 90.6393ZM53.3392 83.7593C53.3392 83.626 53.2992 83.526 53.2192 83.4593C53.1526 83.3793 53.0526 83.3393 52.9192 83.3393H51.1192C50.9859 83.3393 50.8792 83.3793 50.7992 83.4593C50.7326 83.526 50.6992 83.626 50.6992 83.7593V85.2593C50.6992 85.3926 50.7326 85.4993 50.7992 85.5793C50.8792 85.646 50.9859 85.6793 51.1192 85.6793H52.9192C53.0526 85.6793 53.1526 85.646 53.2192 85.5793C53.2992 85.4993 53.3392 85.3926 53.3392 85.2593V83.7593ZM53.2192 87.2593C53.0192 87.1526 52.9192 87.0526 52.9192 86.9593C52.9192 86.8393 53.0726 86.7993 53.3792 86.8393C54.9526 87.1193 56.0859 87.486 56.7792 87.9393C57.4859 88.3793 57.8392 88.8193 57.8392 89.2593C57.8392 89.486 57.7526 89.6726 57.5792 89.8193C57.4192 89.966 57.2192 90.0393 56.9792 90.0393C56.7926 90.0393 56.6126 89.986 56.4392 89.8793C56.3459 89.826 56.2526 89.7326 56.1592 89.5993C55.5326 88.746 54.5526 87.966 53.2192 87.2593Z" fill="#421D12"/>
<path d="M114.603 65.7602C114.429 65.7602 114.343 65.7202 114.343 65.6402C114.343 65.5735 114.369 65.5268 114.423 65.5002C114.489 65.4735 114.556 65.4535 114.623 65.4402C114.703 65.4268 114.756 65.4202 114.783 65.4202C116.889 65.0735 118.476 64.4935 119.543 63.6802C120.623 62.8535 121.163 61.8135 121.163 60.5602C121.163 59.8402 120.996 59.2668 120.663 58.8402C120.343 58.4002 119.883 58.1802 119.283 58.1802C118.656 58.1802 118.103 58.4268 117.623 58.9202C117.143 59.4002 116.609 60.1335 116.023 61.1202C115.903 61.3468 115.723 61.5402 115.483 61.7002C115.243 61.8602 115.036 61.9402 114.863 61.9402C114.223 61.9402 113.729 61.7468 113.383 61.3602C113.049 60.9735 112.883 60.4202 112.883 59.7002C112.883 59.2735 112.909 58.6402 112.963 57.8002C113.029 56.9602 113.076 56.3668 113.103 56.0202C113.183 55.2735 113.223 54.7535 113.223 54.4602C113.223 54.2602 113.203 54.0668 113.163 53.8802C113.136 53.6935 113.123 53.5535 113.123 53.4602C113.123 53.1802 113.203 52.9468 113.363 52.7602C113.523 52.5602 113.776 52.3335 114.123 52.0802C114.403 51.8668 114.903 51.5935 115.623 51.2602C115.996 51.1002 116.256 50.9802 116.403 50.9002C116.563 50.8068 116.643 50.7068 116.643 50.6002C116.643 50.4535 116.523 50.2735 116.283 50.0602C116.043 49.8468 115.769 49.6535 115.463 49.4802C115.423 49.4535 115.363 49.4268 115.283 49.4002C115.216 49.3602 115.183 49.3202 115.183 49.2802C115.183 49.2402 115.263 49.2135 115.423 49.2002C115.583 49.1735 115.716 49.1602 115.823 49.1602C116.396 49.1602 116.903 49.2735 117.343 49.5002C117.783 49.7135 118.163 50.0935 118.483 50.6402C118.616 50.8668 118.683 51.1002 118.683 51.3402C118.683 51.6068 118.603 51.8335 118.443 52.0202C118.283 52.2068 118.103 52.3002 117.903 52.3002C117.796 52.3002 117.696 52.2802 117.603 52.2402C117.509 52.1868 117.416 52.1268 117.323 52.0602C117.136 51.9402 116.969 51.8468 116.823 51.7802C116.676 51.7135 116.489 51.6802 116.263 51.6802C115.729 51.6802 115.169 51.8735 114.583 52.2602C114.436 52.3402 114.323 52.4602 114.243 52.6202C114.163 52.7668 114.123 52.9068 114.123 53.0402C114.123 53.1468 114.143 53.2535 114.183 53.3602C114.236 53.4535 114.269 53.5135 114.283 53.5402C114.443 53.8335 114.523 54.1068 114.523 54.3602C114.523 54.5335 114.476 54.9735 114.383 55.6802C114.196 56.8802 114.103 57.7802 114.103 58.3802C114.103 58.7402 114.149 59.0868 114.243 59.4202C114.349 59.7402 114.489 59.9002 114.663 59.9002C114.849 59.9002 115.243 59.6802 115.843 59.2402C116.523 58.7468 117.149 58.3535 117.723 58.0602C118.309 57.7668 118.929 57.6202 119.583 57.6202C120.169 57.6202 120.716 57.7802 121.223 58.1002C121.729 58.4068 122.129 58.8268 122.423 59.3602C122.716 59.8802 122.863 60.4402 122.863 61.0402C122.863 61.6535 122.709 62.2468 122.403 62.8202C122.096 63.3802 121.363 63.9335 120.203 64.4802C119.056 65.0268 117.336 65.4402 115.043 65.7202C114.869 65.7468 114.723 65.7602 114.603 65.7602Z" fill="#421D12"/>
<path d="M97.6026 54.0206C99.2026 54.0206 100.003 55.0806 100.003 57.2006C100.003 57.734 99.9226 58.4473 99.7626 59.3406C99.6159 60.234 99.3826 61.114 99.0626 61.9806C98.7426 62.8473 98.3559 63.514 97.9026 63.9806C97.6759 64.2206 97.4292 64.4206 97.1626 64.5806C96.9092 64.7273 96.6892 64.8006 96.5026 64.8006C96.1159 64.8006 95.8092 64.4806 95.5826 63.8406C95.4092 63.334 95.0826 62.7673 94.6026 62.1406C94.4692 61.954 94.4026 61.834 94.4026 61.7806C94.4026 61.754 94.4226 61.7406 94.4626 61.7406C94.5159 61.7406 94.6426 61.8073 94.8426 61.9406C95.0426 62.0606 95.1959 62.1473 95.3026 62.2006C95.3959 62.254 95.5226 62.334 95.6826 62.4406C95.8559 62.5473 96.0026 62.6273 96.1226 62.6806C96.2426 62.734 96.3559 62.7606 96.4626 62.7606C96.9026 62.7606 97.2959 62.394 97.6426 61.6606C98.0026 60.9273 98.2759 60.0806 98.4626 59.1206C98.6626 58.1473 98.7626 57.3606 98.7626 56.7606C98.7626 56.1206 98.6692 55.6406 98.4826 55.3206C98.2959 54.9873 97.9892 54.8206 97.5626 54.8206C97.0559 54.8206 96.3759 55.014 95.5226 55.4006C95.3359 55.494 95.2159 55.6406 95.1626 55.8406C94.5359 58.574 93.5692 60.994 92.2626 63.1006C92.0759 63.4206 91.8692 63.674 91.6426 63.8606C91.4159 64.0473 91.2026 64.1406 91.0026 64.1406C90.8159 64.1406 90.6626 64.0806 90.5426 63.9606C90.4226 63.8273 90.3626 63.654 90.3626 63.4406C90.3626 63.014 90.6092 62.4873 91.1026 61.8606C92.3159 60.2473 93.1959 58.574 93.7426 56.8406C93.7692 56.7606 93.7826 56.7006 93.7826 56.6606C93.7826 56.4873 93.6959 56.4006 93.5226 56.4006C93.4692 56.4006 93.3892 56.4206 93.2826 56.4606C92.4292 56.874 91.8426 57.0806 91.5226 57.0806C91.2426 57.0806 90.9559 56.9873 90.6626 56.8006C90.3692 56.6006 90.1226 56.354 89.9226 56.0606C89.7359 55.7673 89.6426 55.474 89.6426 55.1806C89.6426 55.0473 89.6759 54.9806 89.7426 54.9806C89.7959 54.9806 89.8759 55.014 89.9826 55.0806C90.0892 55.134 90.1692 55.174 90.2226 55.2006C90.5959 55.374 91.0092 55.4606 91.4626 55.4606C92.2892 55.4206 93.1092 55.2606 93.9226 54.9806C94.1359 54.9006 94.2626 54.754 94.3026 54.5406C94.4359 53.8206 94.5026 53.2206 94.5026 52.7406C94.5026 52.0473 94.3626 51.534 94.0826 51.2006C93.9626 51.0406 93.8092 50.8806 93.6226 50.7206C93.4492 50.5606 93.3626 50.454 93.3626 50.4006C93.3626 50.3206 93.4292 50.2606 93.5626 50.2206C93.6959 50.1673 93.8692 50.1406 94.0826 50.1406C94.3359 50.1406 94.6026 50.174 94.8826 50.2406C95.1626 50.3073 95.3759 50.4006 95.5226 50.5206C95.8692 50.734 96.0426 51.0273 96.0426 51.4006C96.0426 51.5606 95.9892 51.8673 95.8826 52.3206C95.8026 52.5606 95.7426 52.814 95.7026 53.0806L95.5826 53.8806L95.5626 54.0206C95.5626 54.1273 95.5959 54.2073 95.6626 54.2606C95.7292 54.3006 95.8226 54.3073 95.9426 54.2806C96.5559 54.1073 97.1092 54.0206 97.6026 54.0206ZM101.763 53.9606C102.856 53.9873 103.749 54.1873 104.443 54.5606C105.149 54.934 105.663 55.374 105.983 55.8806C106.303 56.374 106.463 56.8406 106.463 57.2806C106.463 57.614 106.389 57.914 106.243 58.1806C106.109 58.434 105.936 58.634 105.723 58.7806C105.509 58.9273 105.303 59.0006 105.103 59.0006C104.983 59.0006 104.869 58.974 104.763 58.9206C104.656 58.854 104.523 58.7673 104.363 58.6606C104.016 58.394 103.323 58.2006 102.283 58.0806C102.096 58.054 102.003 58.014 102.003 57.9606C102.003 57.9073 102.103 57.8673 102.303 57.8406L103.163 57.7406L103.643 57.6806C104.043 57.6006 104.309 57.5206 104.443 57.4406C104.589 57.3606 104.663 57.214 104.663 57.0006C104.663 56.374 104.363 55.8006 103.763 55.2806C103.163 54.7473 102.476 54.374 101.703 54.1606C101.583 54.1206 101.523 54.0806 101.523 54.0406C101.523 53.9873 101.603 53.9606 101.763 53.9606Z" fill="#421D12"/>
<path d="M75.002 52.5804C75.2154 52.5804 75.382 52.4937 75.502 52.3204L75.662 52.0804C75.702 52.0271 75.7554 51.9537 75.822 51.8604C75.902 51.7537 75.962 51.6804 76.002 51.6404C76.0554 51.5871 76.1087 51.5604 76.162 51.5604C76.2687 51.5604 76.4754 51.6871 76.782 51.9404C77.0887 52.1804 77.3154 52.4004 77.462 52.6004C77.5287 52.6937 77.562 52.7737 77.562 52.8404C77.562 52.9204 77.522 52.9937 77.442 53.0604C77.3487 53.1271 77.2287 53.1604 77.082 53.1604H74.122C73.9887 53.1604 73.882 53.1937 73.802 53.2604C73.7354 53.3137 73.702 53.3871 73.702 53.4804C73.702 53.6937 73.8287 53.8271 74.082 53.8804C75.082 54.1337 75.822 54.4871 76.302 54.9404C76.782 55.3804 77.022 55.8137 77.022 56.2404C77.022 56.4537 76.9554 56.6337 76.822 56.7804C76.702 56.9271 76.5487 57.0004 76.362 57.0004C76.282 57.0004 76.1887 56.9804 76.082 56.9404C75.9887 56.9137 75.9154 56.8737 75.862 56.8204C75.822 56.7537 75.7687 56.6671 75.702 56.5604C75.422 55.9604 74.9287 55.3071 74.222 54.6004C74.1287 54.5071 74.0354 54.4604 73.942 54.4604C73.8754 54.4604 73.8154 54.4937 73.762 54.5604C73.722 54.6271 73.702 54.7137 73.702 54.8204V55.1604L73.742 55.9404C73.742 56.1537 73.7554 56.4471 73.782 56.8204V56.9404C73.782 57.0871 73.7287 57.2137 73.622 57.3204C73.4887 57.4271 73.3287 57.5204 73.142 57.6004C72.9554 57.6804 72.782 57.7204 72.622 57.7204C72.502 57.7204 72.4087 57.6804 72.342 57.6004C72.2887 57.5204 72.262 57.4271 72.262 57.3204C72.302 56.9737 72.3287 56.6337 72.342 56.3004C72.342 56.1004 72.3487 55.9337 72.362 55.8004V55.6204C72.362 55.3804 72.2887 55.2604 72.142 55.2604C72.0487 55.2604 71.9554 55.3204 71.862 55.4404C71.102 56.2537 70.1687 57.0071 69.062 57.7004C68.822 57.8337 68.6687 57.8471 68.602 57.7404C68.5887 57.7271 68.582 57.7004 68.582 57.6604C68.582 57.5804 68.6554 57.4737 68.802 57.3404C69.922 56.3137 70.8087 55.0871 71.462 53.6604C71.502 53.5804 71.522 53.5071 71.522 53.4404C71.522 53.2537 71.3954 53.1604 71.142 53.1604H70.742C70.302 53.1737 69.862 53.2337 69.422 53.3404C69.382 53.3537 69.3287 53.3604 69.262 53.3604C69.102 53.3604 68.9754 53.2737 68.882 53.1004L68.802 52.9604C68.762 52.8804 68.742 52.8071 68.742 52.7404C68.742 52.6604 68.7754 52.5937 68.842 52.5404C68.922 52.4871 69.022 52.4671 69.142 52.4804C69.582 52.5204 70.2487 52.5537 71.142 52.5804H71.942C72.222 52.5804 72.362 52.5204 72.362 52.4004C72.362 51.0671 72.302 49.8737 72.182 48.8204V48.7404C72.182 48.5271 72.2754 48.4204 72.462 48.4204C72.4887 48.4204 72.5554 48.4337 72.662 48.4604C73.2087 48.6204 73.5887 48.7537 73.802 48.8604C74.0287 48.9671 74.142 49.0604 74.142 49.1404C74.142 49.1804 74.0954 49.2337 74.002 49.3004H73.982C73.7954 49.4071 73.702 49.5804 73.702 49.8204V52.1604C73.702 52.2937 73.7354 52.4004 73.802 52.4804C73.882 52.5471 73.9887 52.5804 74.122 52.5804H75.002ZM83.302 52.4604C83.5287 52.4604 83.702 52.3737 83.822 52.2004L83.962 52.0004C83.9887 51.9604 84.0354 51.8937 84.102 51.8004C84.1687 51.7071 84.2287 51.6404 84.282 51.6004C84.3354 51.5471 84.3887 51.5204 84.442 51.5204C84.5354 51.5204 84.742 51.6537 85.062 51.9204C85.382 52.1737 85.6287 52.4071 85.802 52.6204C85.8554 52.6871 85.882 52.7604 85.882 52.8404C85.882 52.9337 85.822 53.0204 85.702 53.1004L85.602 53.1404C85.362 53.2204 85.242 53.3804 85.242 53.6204V57.4604C85.2687 58.9137 85.3154 60.3804 85.382 61.8604V61.9404C85.382 62.1271 85.3087 62.2671 85.162 62.3604C85.002 62.4671 84.8154 62.5604 84.602 62.6404C84.3887 62.7204 84.1954 62.7604 84.022 62.7604C83.8754 62.7604 83.802 62.6204 83.802 62.3404C83.802 62.0737 83.662 61.9404 83.382 61.9404H79.762C79.6287 61.9404 79.522 61.9804 79.442 62.0604C79.3754 62.1271 79.342 62.2271 79.342 62.3604V62.5204C79.342 62.6137 79.2154 62.7271 78.962 62.8604C78.7087 62.9804 78.442 63.0404 78.162 63.0404C78.042 63.0404 77.942 63.0004 77.862 62.9204C77.782 62.8404 77.742 62.7471 77.742 62.6404C77.8354 61.2937 77.8954 59.8137 77.922 58.2004V55.7604C77.922 54.4671 77.862 53.2937 77.742 52.2404V52.1604C77.742 51.9604 77.8287 51.8604 78.002 51.8604C78.082 51.8604 78.1487 51.8737 78.202 51.9004L79.202 52.3404C79.3887 52.4204 79.562 52.4604 79.722 52.4604H80.082C80.3487 52.4604 80.4954 52.3271 80.522 52.0604C80.5754 51.5671 80.6087 51.1204 80.622 50.7204V50.6804C80.622 50.5604 80.582 50.4671 80.502 50.4004C80.4354 50.3337 80.342 50.3004 80.222 50.3004H79.582C79.0354 50.3271 78.5287 50.3937 78.062 50.5004L77.942 50.5204C77.7554 50.5204 77.6154 50.4271 77.522 50.2404L77.462 50.1204C77.422 50.0404 77.402 49.9604 77.402 49.8804C77.402 49.8004 77.4354 49.7404 77.502 49.7004C77.5687 49.6471 77.662 49.6271 77.782 49.6404C78.2354 49.6804 78.922 49.7137 79.842 49.7404H83.222C83.4354 49.7404 83.602 49.6537 83.722 49.4804L84.002 49.0804C84.042 49.0271 84.1087 48.9337 84.202 48.8004C84.2954 48.6671 84.3687 48.5671 84.422 48.5004C84.4887 48.4337 84.5487 48.4004 84.602 48.4004C84.7087 48.4004 84.9687 48.5737 85.382 48.9204C85.7954 49.2537 86.0887 49.5404 86.262 49.7804C86.3287 49.8471 86.362 49.9204 86.362 50.0004C86.362 50.0671 86.322 50.1337 86.242 50.2004C86.1354 50.2671 86.0154 50.3004 85.882 50.3004H82.702C82.4887 50.3004 82.322 50.4004 82.202 50.6004C81.9754 51.0271 81.7154 51.4804 81.422 51.9604C81.3687 52.0271 81.342 52.1071 81.342 52.2004C81.342 52.3737 81.462 52.4604 81.702 52.4604H83.302ZM75.082 49.2804C75.122 49.0537 75.2287 48.9404 75.402 48.9404C75.4554 48.9404 75.522 48.9604 75.602 49.0004L76.042 49.2204C76.2287 49.3137 76.3887 49.3804 76.522 49.4204C76.882 49.5671 77.062 49.6871 77.062 49.7804C77.062 49.8604 76.9887 49.9204 76.842 49.9604L76.782 49.9804C76.6087 50.0337 76.4554 50.1337 76.322 50.2804C75.8554 50.8804 75.402 51.3804 74.962 51.7804C74.8287 51.9004 74.722 51.9604 74.642 51.9604C74.5354 51.9604 74.482 51.9004 74.482 51.7804C74.482 51.7004 74.502 51.6004 74.542 51.4804C74.7954 50.7471 74.9754 50.0137 75.082 49.2804ZM69.522 49.5204C69.3887 49.2671 69.3487 49.1204 69.402 49.0804C69.4154 49.0671 69.4487 49.0604 69.502 49.0604C69.5554 49.0604 69.662 49.0937 69.822 49.1604C70.3954 49.4537 70.8154 49.7737 71.082 50.1204C71.3487 50.4671 71.482 50.8004 71.482 51.1204C71.482 51.3604 71.4087 51.5671 71.262 51.7404C71.1287 51.9004 70.9687 51.9804 70.782 51.9804C70.662 51.9804 70.5554 51.9537 70.462 51.9004C70.302 51.8204 70.2087 51.6604 70.182 51.4204C70.142 50.8337 69.922 50.2004 69.522 49.5204ZM83.382 55.4004C83.5154 55.4004 83.6154 55.3671 83.682 55.3004C83.762 55.2204 83.802 55.1137 83.802 54.9804V53.4604C83.802 53.3271 83.762 53.2271 83.682 53.1604C83.6154 53.0804 83.5154 53.0404 83.382 53.0404H79.762C79.6287 53.0404 79.522 53.0804 79.442 53.1604C79.3754 53.2271 79.342 53.3271 79.342 53.4604V54.9804C79.342 55.1137 79.3754 55.2204 79.442 55.3004C79.522 55.3671 79.6287 55.4004 79.762 55.4004H83.382ZM83.802 56.4004C83.802 56.2671 83.762 56.1671 83.682 56.1004C83.6154 56.0204 83.5154 55.9804 83.382 55.9804H79.762C79.6287 55.9804 79.522 56.0204 79.442 56.1004C79.3754 56.1671 79.342 56.2671 79.342 56.4004V57.9404C79.342 58.0737 79.3754 58.1804 79.442 58.2604C79.522 58.3271 79.6287 58.3604 79.762 58.3604H83.382C83.5154 58.3604 83.6154 58.3271 83.682 58.2604C83.762 58.1804 83.802 58.0737 83.802 57.9404V56.4004ZM74.622 60.1404C74.8354 60.1404 75.002 60.0471 75.122 59.8604L75.342 59.5404C75.382 59.4737 75.442 59.3871 75.522 59.2804C75.6154 59.1604 75.6887 59.0737 75.742 59.0204C75.7954 58.9537 75.8487 58.9204 75.902 58.9204C75.9954 58.9204 76.222 59.0737 76.582 59.3804C76.942 59.6737 77.202 59.9337 77.362 60.1604C77.4287 60.2537 77.462 60.3337 77.462 60.4004C77.462 60.4804 77.422 60.5537 77.342 60.6204C77.2487 60.6871 77.1287 60.7204 76.982 60.7204H73.882C73.6287 60.7204 73.482 60.8471 73.442 61.1004L73.422 61.2604V61.3604C73.422 61.5471 73.5354 61.6737 73.762 61.7404C74.7754 61.9804 75.5287 62.3337 76.022 62.8004C76.5154 63.2537 76.762 63.7071 76.762 64.1604C76.762 64.4004 76.6954 64.6004 76.562 64.7604C76.4287 64.9071 76.2554 64.9804 76.042 64.9804C75.9354 64.9804 75.8554 64.9671 75.802 64.9404C75.7087 64.9271 75.6354 64.8937 75.582 64.8404C75.5287 64.7737 75.4687 64.6871 75.402 64.5804C75.042 63.8737 74.4487 63.1537 73.622 62.4204C73.5287 62.3404 73.442 62.3004 73.362 62.3004C73.2287 62.3004 73.122 62.3871 73.042 62.5604C72.7354 63.3204 72.2687 64.0071 71.642 64.6204C71.0287 65.2337 70.182 65.7804 69.102 66.2604C68.9687 66.3271 68.8687 66.3604 68.802 66.3604C68.722 66.3604 68.6687 66.3337 68.642 66.2804C68.6287 66.2671 68.622 66.2404 68.622 66.2004C68.622 66.1071 68.7154 66.0004 68.902 65.8804C69.8754 65.2537 70.5887 64.5537 71.042 63.7804C71.5087 63.0071 71.8154 62.1337 71.962 61.1604V61.0804C71.962 60.8404 71.8354 60.7204 71.582 60.7204H70.962C70.4154 60.7471 69.8954 60.8137 69.402 60.9204L69.282 60.9404C69.0954 60.9404 68.9554 60.8471 68.862 60.6604L68.782 60.5204C68.742 60.4404 68.722 60.3671 68.722 60.3004C68.722 60.2204 68.7554 60.1537 68.822 60.1004C68.902 60.0471 69.002 60.0271 69.122 60.0404C69.522 60.0804 70.122 60.1137 70.922 60.1404H71.662C71.7954 60.1404 71.902 60.1137 71.982 60.0604C72.062 59.9937 72.102 59.9071 72.102 59.8004V59.4404C72.102 59.1871 72.0887 58.8337 72.062 58.3804V58.3004C72.062 58.0471 72.2087 57.9337 72.502 57.9604C73.5687 58.0804 74.102 58.2137 74.102 58.3604C74.102 58.4004 74.0554 58.4537 73.962 58.5204L73.922 58.5404C73.762 58.6471 73.6687 58.8137 73.642 59.0404L73.602 59.7004V59.7604C73.602 60.0137 73.7354 60.1404 74.002 60.1404H74.622ZM79.762 58.9404C79.6287 58.9404 79.522 58.9804 79.442 59.0604C79.3754 59.1271 79.342 59.2271 79.342 59.3604V60.9404C79.342 61.0737 79.3754 61.1804 79.442 61.2604C79.522 61.3271 79.6287 61.3604 79.762 61.3604H83.382C83.5154 61.3604 83.6154 61.3271 83.682 61.2604C83.762 61.1804 83.802 61.0737 83.802 60.9404V59.3604C83.802 59.2271 83.762 59.1271 83.682 59.0604C83.6154 58.9804 83.5154 58.9404 83.382 58.9404H79.762ZM79.382 62.9204C79.462 62.7604 79.562 62.6804 79.682 62.6804C79.7487 62.6804 79.8354 62.7137 79.942 62.7804L80.442 63.1404C80.4954 63.1804 80.642 63.2671 80.882 63.4004C81.2554 63.6004 81.442 63.7471 81.442 63.8404C81.442 63.8937 81.3754 63.9204 81.242 63.9204H81.222C81.022 63.9204 80.8487 63.9937 80.702 64.1404C80.1687 64.6337 79.4754 65.0937 78.622 65.5204C77.782 65.9604 76.922 66.3004 76.042 66.5404C75.9754 66.5671 75.8954 66.5804 75.802 66.5804C75.722 66.5804 75.6554 66.5537 75.602 66.5004C75.5887 66.4871 75.582 66.4671 75.582 66.4404C75.582 66.3604 75.6887 66.2604 75.902 66.1404C76.1154 66.0204 76.4487 65.8137 76.902 65.5204C77.3687 65.2004 77.8287 64.8004 78.282 64.3204C78.7487 63.8404 79.1154 63.3737 79.382 62.9204ZM82.302 63.2804C82.062 63.0937 81.9754 62.9671 82.042 62.9004C82.0687 62.8737 82.1154 62.8604 82.182 62.8604C82.2887 62.8604 82.382 62.8737 82.462 62.9004C83.342 63.1004 84.062 63.3737 84.622 63.7204C85.182 64.0537 85.5887 64.4071 85.842 64.7804C86.0954 65.1404 86.222 65.4737 86.222 65.7804C86.222 66.0071 86.1554 66.1937 86.022 66.3404C85.902 66.5004 85.742 66.5804 85.542 66.5804C85.502 66.5804 85.4154 66.5671 85.282 66.5404C85.1887 66.5137 85.1154 66.4737 85.062 66.4204C85.022 66.3671 84.9687 66.2937 84.902 66.2004C84.6487 65.7337 84.282 65.2404 83.802 64.7204C83.322 64.2004 82.822 63.7204 82.302 63.2804Z" fill="#421D12"/>
<path d="M64.9823 63.9993C65.0889 63.9993 65.3289 64.1593 65.7023 64.4793C66.0889 64.7993 66.3689 65.0726 66.5423 65.2993C66.5956 65.366 66.6223 65.446 66.6223 65.5393C66.6223 65.6326 66.5889 65.706 66.5223 65.7593C66.4156 65.826 66.2889 65.8593 66.1423 65.8593H57.7423C56.9289 65.8726 56.0489 65.946 55.1023 66.0793H54.9823C54.7956 66.0793 54.6623 65.9926 54.5823 65.8193L54.5023 65.6593C54.4623 65.5793 54.4423 65.4993 54.4423 65.4193C54.4423 65.3393 54.4756 65.2726 54.5423 65.2193C54.6089 65.1793 54.7023 65.166 54.8223 65.1793C55.2756 65.2193 55.9623 65.2526 56.8823 65.2793H59.3623C59.4956 65.2793 59.5956 65.2393 59.6623 65.1593C59.7423 65.0926 59.7823 64.9926 59.7823 64.8593V63.3593C59.7823 63.226 59.7423 63.126 59.6623 63.0593C59.5956 62.9793 59.4956 62.9393 59.3623 62.9393H58.4223C57.7556 62.9526 57.0356 63.026 56.2623 63.1593H56.1423C55.9556 63.1593 55.8223 63.0726 55.7423 62.8993L55.6623 62.7393C55.6223 62.6593 55.6023 62.5793 55.6023 62.4993C55.6023 62.4193 55.6356 62.3593 55.7023 62.3193C55.7689 62.266 55.8623 62.246 55.9823 62.2593C56.4356 62.2993 57.1223 62.3326 58.0423 62.3593H59.3623C59.4956 62.3593 59.5956 62.326 59.6623 62.2593C59.7423 62.1793 59.7823 62.0726 59.7823 61.9393V60.6593C59.7823 60.526 59.7423 60.426 59.6623 60.3593C59.5956 60.2793 59.4956 60.2393 59.3623 60.2393H57.7623C57.6289 60.2393 57.5223 60.2793 57.4423 60.3593C57.3756 60.426 57.3423 60.526 57.3423 60.6593V60.7793C57.3423 60.8593 57.2156 60.9593 56.9623 61.0793C56.7089 61.1993 56.4423 61.2593 56.1623 61.2593C56.0556 61.2593 55.9689 61.2193 55.9023 61.1393C55.8489 61.0593 55.8223 60.966 55.8223 60.8593C55.8756 60.2993 55.9156 59.586 55.9423 58.7193V57.4393C55.9423 56.586 55.9156 55.8193 55.8623 55.1393C55.8489 54.846 55.7756 54.7193 55.6423 54.7593C55.6023 54.7726 55.5289 54.7793 55.4223 54.7793H53.3823C53.2489 54.7793 53.1423 54.8193 53.0623 54.8993C52.9956 54.966 52.9623 55.066 52.9623 55.1993V56.3393C52.9623 56.566 53.0756 56.726 53.3023 56.8193C54.0756 57.1926 54.6423 57.606 55.0023 58.0593C55.3756 58.4993 55.5623 58.9126 55.5623 59.2993C55.5623 59.526 55.5023 59.7126 55.3823 59.8593C55.2623 60.006 55.1089 60.0793 54.9223 60.0793C54.8156 60.0793 54.7089 60.0526 54.6023 59.9993C54.4556 59.9193 54.3489 59.7726 54.2823 59.5593C54.1089 59.066 53.8423 58.5126 53.4823 57.8993C53.3889 57.766 53.2956 57.6993 53.2023 57.6993C53.0423 57.6993 52.9623 57.8193 52.9623 58.0593V61.3193C52.9889 62.7726 53.0356 64.2393 53.1023 65.7193V65.8193C53.1023 66.006 53.0356 66.146 52.9023 66.2393C52.5823 66.4793 52.2089 66.5993 51.7823 66.5993C51.6623 66.5993 51.5556 66.5593 51.4623 66.4793C51.3689 66.3993 51.3223 66.306 51.3223 66.1993C51.3756 65.466 51.4156 64.746 51.4423 64.0393C51.4823 63.3326 51.5089 62.4393 51.5223 61.3593V59.7993C51.5223 59.5593 51.4556 59.4393 51.3223 59.4393C51.2156 59.4393 51.1223 59.5193 51.0423 59.6793C50.4289 60.8126 49.6756 61.846 48.7823 62.7793C48.6889 62.8726 48.6023 62.9393 48.5223 62.9793C48.4556 63.006 48.4023 62.9993 48.3623 62.9593C48.3356 62.9326 48.3223 62.8926 48.3223 62.8393C48.3223 62.7593 48.3623 62.6526 48.4423 62.5193C49.6423 60.6126 50.5489 58.186 51.1623 55.2393L51.1823 55.1193C51.1823 54.8926 51.0556 54.7793 50.8023 54.7793H50.4423C50.1223 54.7926 49.7823 54.846 49.4223 54.9393C49.3423 54.966 49.2823 54.9793 49.2423 54.9793C49.0823 54.9793 48.9556 54.8926 48.8623 54.7193L48.7823 54.5593C48.7423 54.4793 48.7223 54.406 48.7223 54.3393C48.7223 54.2593 48.7556 54.1993 48.8223 54.1593C48.8889 54.106 48.9889 54.086 49.1223 54.0993C49.4423 54.126 49.9223 54.1526 50.5623 54.1793H51.1023C51.2356 54.1793 51.3356 54.146 51.4023 54.0793C51.4823 53.9993 51.5223 53.8926 51.5223 53.7593V51.4793C51.5223 51.3326 51.4756 51.226 51.3823 51.1593C51.3023 51.0926 51.1956 51.0793 51.0623 51.1193C50.1556 51.306 49.4823 51.4393 49.0423 51.5193C49.0023 51.5326 48.9423 51.5393 48.8623 51.5393C48.7156 51.5393 48.6289 51.506 48.6023 51.4393V51.4193C48.6023 51.3393 48.7156 51.2526 48.9423 51.1593C49.7823 50.8126 50.6356 50.406 51.5023 49.9393C52.3689 49.4593 53.0823 49.0126 53.6423 48.5993C53.7489 48.5326 53.8489 48.4993 53.9423 48.4993C54.0356 48.4993 54.1423 48.5393 54.2623 48.6193C54.7556 49.006 55.1023 49.2993 55.3023 49.4993C55.5023 49.686 55.6023 49.8193 55.6023 49.8993C55.6023 49.966 55.4956 49.9993 55.2823 49.9993H55.0423C54.8156 49.9993 54.6423 50.026 54.5223 50.0793C54.1623 50.226 53.7623 50.366 53.3223 50.4993C53.0823 50.5526 52.9623 50.706 52.9623 50.9593V53.7593C52.9623 53.8926 52.9889 53.9993 53.0423 54.0793C53.0956 54.146 53.1623 54.1793 53.2423 54.1793C53.4156 54.1793 53.5623 54.086 53.6823 53.8993L53.9023 53.5793C53.9556 53.5126 54.0156 53.426 54.0823 53.3193C54.1623 53.1993 54.2289 53.1126 54.2823 53.0593C54.3356 53.006 54.3889 52.9793 54.4423 52.9793C54.5623 52.9793 54.8489 53.1926 55.3023 53.6193C55.4623 53.7793 55.6223 53.9526 55.7823 54.1393V54.1193V54.0393C55.7823 53.8393 55.8689 53.7393 56.0423 53.7393C56.1223 53.7393 56.1889 53.7526 56.2423 53.7793L57.2223 54.2193C57.3689 54.286 57.5423 54.3193 57.7423 54.3193H59.3623C59.4956 54.3193 59.5956 54.286 59.6623 54.2193C59.7423 54.1393 59.7823 54.0326 59.7823 53.8993V53.0393C59.7823 52.906 59.7423 52.806 59.6623 52.7393C59.5956 52.6593 59.4956 52.6193 59.3623 52.6193H58.2023C57.4289 52.6326 56.5889 52.706 55.6823 52.8393H55.5623C55.3756 52.8393 55.2423 52.7526 55.1623 52.5793L55.0823 52.4193C55.0423 52.3393 55.0223 52.2593 55.0223 52.1793C55.0223 52.0993 55.0556 52.0393 55.1223 51.9993C55.1889 51.946 55.2823 51.926 55.4023 51.9393C55.8556 51.9793 56.5423 52.0126 57.4623 52.0393H59.3623C59.4956 52.0393 59.5956 52.006 59.6623 51.9393C59.7423 51.8593 59.7823 51.7526 59.7823 51.6193V50.8793C59.7823 50.586 59.6356 50.4526 59.3423 50.4793C57.9689 50.5993 56.7823 50.666 55.7823 50.6793C55.5289 50.6793 55.3889 50.6193 55.3623 50.4993V50.4793C55.3623 50.386 55.4956 50.3193 55.7623 50.2793C57.0956 50.0793 58.4956 49.7993 59.9623 49.4393C61.4289 49.066 62.6556 48.6926 63.6423 48.3193C63.7489 48.2926 63.8156 48.2793 63.8423 48.2793C63.9756 48.2793 64.1023 48.3393 64.2223 48.4593C64.9956 49.1926 65.3823 49.6326 65.3823 49.7793C65.3823 49.8726 65.2756 49.906 65.0623 49.8793L64.7823 49.8393H64.6223C64.4756 49.8393 64.3556 49.846 64.2623 49.8593C63.4756 50.006 62.5956 50.1393 61.6223 50.2593C61.3556 50.286 61.2223 50.4326 61.2223 50.6993V51.6193C61.2223 51.7526 61.2556 51.8593 61.3223 51.9393C61.4023 52.006 61.5089 52.0393 61.6423 52.0393H63.5223C63.7356 52.0393 63.9023 51.9526 64.0223 51.7793L64.2623 51.4193C64.3023 51.3526 64.3623 51.266 64.4423 51.1593C64.5356 51.0393 64.6089 50.9526 64.6623 50.8993C64.7156 50.8326 64.7689 50.7993 64.8223 50.7993C64.9289 50.7993 65.1623 50.9593 65.5223 51.2793C65.8956 51.586 66.1689 51.8526 66.3423 52.0793C66.4089 52.1726 66.4423 52.246 66.4423 52.2993C66.4423 52.3793 66.4089 52.4526 66.3423 52.5193C66.2489 52.586 66.1289 52.6193 65.9823 52.6193H61.6423C61.5089 52.6193 61.4023 52.6593 61.3223 52.7393C61.2556 52.806 61.2223 52.906 61.2223 53.0393V53.8993C61.2223 54.0326 61.2556 54.1393 61.3223 54.2193C61.4023 54.286 61.5089 54.3193 61.6423 54.3193H63.3823C63.5956 54.3193 63.7689 54.2326 63.9023 54.0593L64.0223 53.8993C64.0623 53.8593 64.1289 53.7793 64.2223 53.6593C64.3289 53.5393 64.4223 53.4793 64.5023 53.4793C64.5956 53.4793 64.8023 53.5993 65.1223 53.8393C65.4556 54.066 65.7089 54.2793 65.8823 54.4793C65.9356 54.546 65.9623 54.6193 65.9623 54.6993C65.9623 54.7926 65.9023 54.8793 65.7823 54.9593L65.6623 55.0193C65.4356 55.0993 65.3223 55.2526 65.3223 55.4793V56.9393C65.3623 58.406 65.4023 59.4726 65.4423 60.1393V60.2193C65.4423 60.4193 65.3689 60.566 65.2223 60.6593C65.0623 60.7526 64.8756 60.8326 64.6623 60.8993C64.4489 60.966 64.2623 60.9993 64.1023 60.9993C63.9689 60.9993 63.9023 60.8726 63.9023 60.6193C63.9023 60.4993 63.8623 60.406 63.7823 60.3393C63.7156 60.2726 63.6156 60.2393 63.4823 60.2393H61.6423C61.5089 60.2393 61.4023 60.2793 61.3223 60.3593C61.2556 60.426 61.2223 60.526 61.2223 60.6593V61.9393C61.2223 62.0726 61.2556 62.1793 61.3223 62.2593C61.4023 62.326 61.5089 62.3593 61.6423 62.3593H62.9623C63.1756 62.3593 63.3423 62.266 63.4623 62.0793L63.6823 61.7593C63.7223 61.706 63.7823 61.626 63.8623 61.5193C63.9423 61.3993 64.0089 61.3126 64.0623 61.2593C64.1289 61.1926 64.1889 61.1593 64.2423 61.1593C64.3489 61.1593 64.5889 61.3126 64.9623 61.6193C65.3356 61.9126 65.6023 62.1726 65.7623 62.3993C65.8289 62.466 65.8623 62.5393 65.8623 62.6193C65.8623 62.686 65.8223 62.7593 65.7423 62.8393C65.6489 62.906 65.5289 62.9393 65.3823 62.9393H61.6423C61.5089 62.9393 61.4023 62.9793 61.3223 63.0593C61.2556 63.126 61.2223 63.226 61.2223 63.3593V64.8593C61.2223 64.9926 61.2556 65.0926 61.3223 65.1593C61.4023 65.2393 61.5089 65.2793 61.6423 65.2793H63.6623C63.8756 65.2793 64.0423 65.186 64.1623 64.9993L64.4023 64.6393C64.4556 64.5726 64.5223 64.4793 64.6023 64.3593C64.6956 64.2393 64.7689 64.1526 64.8223 64.0993C64.8756 64.0326 64.9289 63.9993 64.9823 63.9993ZM57.3423 56.5193C57.3423 56.6526 57.3756 56.7593 57.4423 56.8393C57.5223 56.906 57.6289 56.9393 57.7623 56.9393H59.3623C59.4956 56.9393 59.5956 56.906 59.6623 56.8393C59.7423 56.7593 59.7823 56.6526 59.7823 56.5193V55.3193C59.7823 55.186 59.7423 55.086 59.6623 55.0193C59.5956 54.9393 59.4956 54.8993 59.3623 54.8993H57.7623C57.6289 54.8993 57.5223 54.9393 57.4423 55.0193C57.3756 55.086 57.3423 55.186 57.3423 55.3193V56.5193ZM63.9023 55.3193C63.9023 55.186 63.8623 55.086 63.7823 55.0193C63.7156 54.9393 63.6156 54.8993 63.4823 54.8993H61.6423C61.5089 54.8993 61.4023 54.9393 61.3223 55.0193C61.2556 55.086 61.2223 55.186 61.2223 55.3193V56.5193C61.2223 56.6526 61.2556 56.7593 61.3223 56.8393C61.4023 56.906 61.5089 56.9393 61.6423 56.9393H63.4823C63.6156 56.9393 63.7156 56.906 63.7823 56.8393C63.8623 56.7593 63.9023 56.6526 63.9023 56.5193V55.3193ZM57.3423 59.2593C57.3423 59.3926 57.3756 59.4993 57.4423 59.5793C57.5223 59.646 57.6289 59.6793 57.7623 59.6793H59.3623C59.4956 59.6793 59.5956 59.646 59.6623 59.5793C59.7423 59.4993 59.7823 59.3926 59.7823 59.2593V57.9393C59.7823 57.806 59.7423 57.706 59.6623 57.6393C59.5956 57.5593 59.4956 57.5193 59.3623 57.5193H57.7623C57.6289 57.5193 57.5223 57.5593 57.4423 57.6393C57.3756 57.706 57.3423 57.806 57.3423 57.9393V59.2593ZM63.9023 57.9393C63.9023 57.806 63.8623 57.706 63.7823 57.6393C63.7156 57.5593 63.6156 57.5193 63.4823 57.5193H61.6423C61.5089 57.5193 61.4023 57.5593 61.3223 57.6393C61.2556 57.706 61.2223 57.806 61.2223 57.9393V59.2593C61.2223 59.3926 61.2556 59.4993 61.3223 59.5793C61.4023 59.646 61.5089 59.6793 61.6423 59.6793H63.4823C63.6156 59.6793 63.7156 59.646 63.7823 59.5793C63.8623 59.4993 63.9023 59.3926 63.9023 59.2593V57.9393Z" fill="#421D12"/>
<path d="M42.1429 54.1832C41.9522 54.2872 41.8569 54.3998 41.8569 54.5212C41.8569 54.6598 41.9522 54.7812 42.1429 54.8852C43.0095 55.3705 43.7202 55.8212 44.2749 56.2372C44.8295 56.6532 45.2889 57.1645 45.6529 57.7712C46.0169 58.3778 46.1989 59.0972 46.1989 59.9292C46.1989 61.0212 45.9042 61.9832 45.3149 62.8152C44.7255 63.6298 43.9542 64.2625 43.0009 64.7132C42.0649 65.1465 41.0942 65.3632 40.0889 65.3632C39.0142 65.3632 37.9915 65.1552 37.0209 64.7392C36.0502 64.3232 35.2702 63.7425 34.6809 62.9972C34.0915 62.2518 33.7969 61.4025 33.7969 60.4492C33.7969 59.4265 34.1002 58.5858 34.7069 57.9272C35.3135 57.2512 36.2062 56.5838 37.3849 55.9252C37.5929 55.8212 37.6969 55.6998 37.6969 55.5612C37.6969 55.4225 37.6015 55.3012 37.4109 55.1972C36.4749 54.6598 35.7469 54.0358 35.2269 53.3252C34.7242 52.6145 34.4729 51.7045 34.4729 50.5952C34.4729 49.8152 34.6722 49.0612 35.0709 48.3332C35.4695 47.5878 36.0675 46.9812 36.8649 46.5132C37.6795 46.0278 38.6589 45.7852 39.8029 45.7852C40.7042 45.7852 41.5622 45.9585 42.3769 46.3052C43.1915 46.6518 43.8415 47.1545 44.3269 47.8132C44.8295 48.4545 45.0809 49.2085 45.0809 50.0752C45.0809 50.9765 44.8209 51.7652 44.3009 52.4412C43.7809 53.0998 43.0615 53.6805 42.1429 54.1832ZM36.4229 49.7632C36.4229 50.3872 36.5789 50.9332 36.8909 51.4012C37.2029 51.8518 37.6015 52.2418 38.0869 52.5712C38.5895 52.9005 39.3435 53.3425 40.3489 53.8972C40.4702 53.9665 40.6002 54.0012 40.7389 54.0012C40.8775 54.0012 41.0075 53.9492 41.1289 53.8452C42.2902 52.8745 42.8709 51.6525 42.8709 50.1792C42.8709 49.6592 42.7582 49.1305 42.5329 48.5932C42.3075 48.0385 41.9435 47.5792 41.4409 47.2152C40.9382 46.8338 40.3142 46.6432 39.5689 46.6432C38.8755 46.6432 38.2862 46.8165 37.8009 47.1632C37.3329 47.4925 36.9862 47.8998 36.7609 48.3852C36.5355 48.8532 36.4229 49.3125 36.4229 49.7632ZM39.8289 64.4532C41.1289 64.4532 42.1255 64.0892 42.8189 63.3612C43.5295 62.6158 43.8849 61.6712 43.8849 60.5272C43.8849 59.6432 43.4602 58.8632 42.6109 58.1872C41.7615 57.5112 40.6089 56.8178 39.1529 56.1072C39.0662 56.0378 38.9535 56.0032 38.8149 56.0032C38.6935 56.0032 38.5549 56.0552 38.3989 56.1592C37.7055 56.7312 37.1595 57.3812 36.7609 58.1092C36.3795 58.8372 36.1889 59.6085 36.1889 60.4232C36.1889 61.1165 36.3275 61.7752 36.6049 62.3992C36.8822 63.0058 37.2895 63.4998 37.8269 63.8812C38.3815 64.2625 39.0489 64.4532 39.8289 64.4532Z" fill="#421D12"/>
</svg>
