<svg width="300" height="51" viewBox="0 0 300 51" fill="none" xmlns="http://www.w3.org/2000/svg">
<path d="M93.2344 40.5293V48.3804H126.882V40.5293" stroke="#421D12" stroke-width="2" stroke-linecap="round" stroke-linejoin="round"/>
<path d="M110.066 20.3389V9.12305" stroke="#421D12" stroke-width="2" stroke-linecap="round" stroke-linejoin="round"/>
<path d="M121.279 20.3389V9.12305" stroke="#421D12" stroke-width="2" stroke-linecap="round" stroke-linejoin="round"/>
<path d="M98.8555 20.3389V9.12305" stroke="#421D12" stroke-width="2" stroke-linecap="round" stroke-linejoin="round"/>
<ellipse cx="121.288" cy="3.51661" rx="2.24317" ry="2.24318" fill="white" stroke="#421D12" stroke-width="2" stroke-linecap="round" stroke-linejoin="round"/>
<ellipse cx="110.075" cy="3.51661" rx="2.24317" ry="2.24318" fill="white" stroke="#421D12" stroke-width="2" stroke-linecap="round" stroke-linejoin="round"/>
<ellipse cx="98.835" cy="3.51661" rx="2.24317" ry="2.24318" fill="white" stroke="#421D12" stroke-width="2" stroke-linecap="round" stroke-linejoin="round"/>
<path d="M91 33.8031C92.1887 33.8018 93.3616 33.5305 94.4301 33.0098C95.4987 32.4891 96.4351 31.7326 97.1687 30.7973C97.9035 31.7305 98.8404 32.4849 99.9089 33.0036C100.977 33.5223 102.15 33.7918 103.337 33.7918C104.525 33.7918 105.697 33.5223 106.766 33.0036C107.835 32.4849 108.771 31.7305 109.506 30.7973C110.293 31.7958 111.311 32.5883 112.471 33.1067C113.632 33.6251 114.901 33.8539 116.17 33.7734C117.439 33.6928 118.669 33.3054 119.755 32.6444C120.841 31.9834 121.75 31.0685 122.404 29.9785C123.1 31.1431 124.086 32.1075 125.265 32.7778C126.444 33.4481 127.777 33.8013 129.134 33.8031" stroke="#421D12" stroke-width="2" stroke-linecap="round" stroke-linejoin="round"/>
<path d="M91 33.795V23.7007C91 22.8083 91.3545 21.9525 91.9855 21.3215C92.6165 20.6904 93.4724 20.3359 94.3648 20.3359H125.769C126.662 20.3359 127.517 20.6904 128.148 21.3215C128.779 21.9525 129.134 22.8083 129.134 23.7007V33.795" stroke="#421D12" stroke-width="2" stroke-linecap="round" stroke-linejoin="round"/>
<path d="M179.334 1.51361C185.593 1.51361 190.686 6.60689 190.686 12.8656C190.686 19.1244 185.593 24.2177 179.334 24.2177C173.076 24.2177 167.982 19.1244 167.982 12.8656C167.982 6.60689 173.076 1.51361 179.334 1.51361ZM179.334 0C172.228 0 166.469 5.75927 166.469 12.8656C166.469 19.972 172.228 25.7313 179.334 25.7313C186.441 25.7313 192.2 19.972 192.2 12.8656C192.2 5.75927 186.441 0 179.334 0Z" fill="#421D12"/>
<path d="M166.151 26.7831C172.41 26.7831 177.503 31.8764 177.503 38.1352C177.503 44.3939 172.41 49.4872 166.151 49.4872C159.892 49.4872 154.799 44.3939 154.799 38.1352C154.799 31.8764 159.892 26.7831 166.151 26.7831ZM166.151 25.2695C159.044 25.2695 153.285 31.0288 153.285 38.1352C153.285 45.2416 159.044 51.0008 166.151 51.0008C173.257 51.0008 179.016 45.2416 179.016 38.1352C179.016 31.0288 173.257 25.2695 166.151 25.2695Z" fill="#421D12"/>
<path d="M195.815 25.6855C202.074 25.6855 207.167 30.7788 207.167 37.0375C207.167 43.2963 202.074 48.3896 195.815 48.3896C189.556 48.3896 184.463 43.2963 184.463 37.0375C184.463 30.7788 189.556 25.6855 195.815 25.6855ZM195.815 24.1719C188.708 24.1719 182.949 29.9311 182.949 37.0375C182.949 44.1439 188.708 49.9032 195.815 49.9032C202.921 49.9032 208.681 44.1439 208.681 37.0375C208.681 29.9311 202.921 24.1719 195.815 24.1719Z" fill="#421D12"/>
</svg>
