<svg width="338" height="58" viewBox="0 0 338 58" fill="none" xmlns="http://www.w3.org/2000/svg">
<path d="M124.758 31.8828V38.0593H151.228V31.8828" stroke="#421D12" stroke-width="2" stroke-linecap="round" stroke-linejoin="round"/>
<path d="M138 15.9993V7.17578" stroke="#421D12" stroke-width="2" stroke-linecap="round" stroke-linejoin="round"/>
<path d="M146.82 15.9993V7.17578" stroke="#421D12" stroke-width="2" stroke-linecap="round" stroke-linejoin="round"/>
<path d="M129.18 15.9993V7.17578" stroke="#421D12" stroke-width="2" stroke-linecap="round" stroke-linejoin="round"/>
<ellipse cx="146.827" cy="2.76471" rx="1.76471" ry="1.76471" fill="white" stroke="#421D12" stroke-width="2" stroke-linecap="round" stroke-linejoin="round"/>
<ellipse cx="138.007" cy="2.76471" rx="1.76471" ry="1.76471" fill="white" stroke="#421D12" stroke-width="2" stroke-linecap="round" stroke-linejoin="round"/>
<ellipse cx="129.163" cy="2.76471" rx="1.76471" ry="1.76471" fill="white" stroke="#421D12" stroke-width="2" stroke-linecap="round" stroke-linejoin="round"/>
<path d="M123 26.5909C123.935 26.5898 124.858 26.3764 125.698 25.9668C126.539 25.5571 127.276 24.962 127.853 24.2261C128.431 24.9603 129.168 25.5538 130.009 25.9619C130.849 26.3699 131.771 26.5819 132.706 26.5819C133.64 26.5819 134.563 26.3699 135.403 25.9619C136.244 25.5538 136.981 24.9603 137.559 24.2261C138.178 25.0117 138.978 25.6352 139.892 26.043C140.805 26.4508 141.803 26.6308 142.801 26.5674C143.8 26.5041 144.767 26.1993 145.622 25.6793C146.476 25.1592 147.191 24.4395 147.706 23.582C148.253 24.4982 149.029 25.2569 149.956 25.7842C150.884 26.3115 151.933 26.5894 153 26.5909" stroke="#421D12" stroke-width="2" stroke-linecap="round" stroke-linejoin="round"/>
<path d="M123 26.5843V18.6432C123 17.9411 123.279 17.2678 123.775 16.7714C124.272 16.275 124.945 15.9961 125.647 15.9961H150.353C151.055 15.9961 151.728 16.275 152.225 16.7714C152.721 17.2678 153 17.9411 153 18.6432V26.5843" stroke="#421D12" stroke-width="2" stroke-linecap="round" stroke-linejoin="round"/>
<path d="M192.493 1.19075C197.416 1.19075 201.423 5.19764 201.423 10.1214C201.423 15.0452 197.416 19.0521 192.493 19.0521C187.569 19.0521 183.562 15.0452 183.562 10.1214C183.562 5.19764 187.569 1.19075 192.493 1.19075ZM192.493 0C186.902 0 182.371 4.53082 182.371 10.1214C182.371 15.712 186.902 20.2428 192.493 20.2428C198.083 20.2428 202.614 15.712 202.614 10.1214C202.614 4.53082 198.083 0 192.493 0Z" fill="#421D12"/>
<path d="M182.121 21.0697C187.045 21.0697 191.052 25.0766 191.052 30.0003C191.052 34.9241 187.045 38.931 182.121 38.931C177.198 38.931 173.191 34.9241 173.191 30.0003C173.191 25.0766 177.198 21.0697 182.121 21.0697ZM182.121 19.8789C176.531 19.8789 172 24.4097 172 30.0003C172 35.5909 176.531 40.1217 182.121 40.1217C187.712 40.1217 192.243 35.5909 192.243 30.0003C192.243 24.4097 187.712 19.8789 182.121 19.8789Z" fill="#421D12"/>
<path d="M205.457 20.2044C210.381 20.2044 214.388 24.2113 214.388 29.1351C214.388 34.0589 210.381 38.0657 205.457 38.0657C200.534 38.0657 196.527 34.0589 196.527 29.1351C196.527 24.2113 200.534 20.2044 205.457 20.2044ZM205.457 19.0137C199.867 19.0137 195.336 23.5445 195.336 29.1351C195.336 34.7257 199.867 39.2565 205.457 39.2565C211.048 39.2565 215.579 34.7257 215.579 29.1351C215.579 23.5445 211.048 19.0137 205.457 19.0137Z" fill="#421D12"/>
</svg>
