<svg width="294" height="51" viewBox="0 0 294 51" fill="none" xmlns="http://www.w3.org/2000/svg">
<path d="M160.747 8.46094C159.763 8.64075 159.689 9.96292 159.763 10.7033C160.747 28.5578 174.497 41.2506 191.421 42.2449C192.108 42.2449 193.536 41.991 193.536 41.2506" stroke="#421D12" stroke-width="2" stroke-miterlimit="10" stroke-linecap="round"/>
<path d="M169.586 21.9844C172.065 26.3683 175.698 29.9897 180.089 32.4559" stroke="#421D12" stroke-width="2" stroke-miterlimit="10" stroke-linecap="round"/>
<path d="M193.54 30.6757L184.031 28.5391L180.086 32.4527" stroke="#421D12" stroke-width="2" stroke-linecap="round" stroke-linejoin="round"/>
<path d="M171.326 8.46094L173.463 17.97L169.592 21.9788" stroke="#421D12" stroke-width="2" stroke-linecap="round" stroke-linejoin="round"/>
<path d="M160.75 8.46094H171.327" stroke="#421D12" stroke-width="2" stroke-miterlimit="10" stroke-linecap="round"/>
<path d="M193.539 30.6719V41.2492" stroke="#421D12" stroke-width="2" stroke-miterlimit="10" stroke-linecap="round"/>
<path d="M117.524 21.2943C121.029 21.2943 123.87 18.453 123.87 14.948C123.87 11.4429 121.029 8.60156 117.524 8.60156C114.019 8.60156 111.178 11.4429 111.178 14.948C111.178 18.453 114.019 21.2943 117.524 21.2943Z" stroke="#421D12" stroke-width="2" stroke-linecap="round" stroke-linejoin="round"/>
<path d="M101.443 42.9981V39.8249C101.443 33.7007 105.917 28.7188 111.439 28.7188H123.592C129.113 28.7188 133.587 33.7007 133.587 39.8249V42.9981" stroke="#421D12" stroke-width="2" stroke-linecap="round" stroke-linejoin="round"/>
</svg>
