<svg width="15" height="15" viewBox="0 0 15 15" fill="none" xmlns="http://www.w3.org/2000/svg">
<path d="M2.98438 11.2461V13.2691H11.6544V11.2461" stroke="white" stroke-linecap="round" stroke-linejoin="round"/>
<path d="M7.32031 6.04627V3.15625" stroke="white" stroke-linecap="round" stroke-linejoin="round"/>
<path d="M10.2031 6.04627V3.15625" stroke="white" stroke-linecap="round" stroke-linejoin="round"/>
<path d="M4.42969 6.04627V3.15625" stroke="white" stroke-linecap="round" stroke-linejoin="round"/>
<ellipse cx="10.2108" cy="1.71082" rx="0.578005" ry="0.578004" fill="white"/>
<ellipse cx="7.32019" cy="1.71082" rx="0.578005" ry="0.578004" fill="white"/>
<ellipse cx="4.42957" cy="1.71082" rx="0.578005" ry="0.578004" fill="white"/>
<path d="M2.40625 9.51284C2.71254 9.51249 3.01476 9.4426 3.29011 9.30843C3.56545 9.17426 3.80674 8.97932 3.99576 8.73832C4.18509 8.97879 4.4265 9.17317 4.70183 9.30682C4.97716 9.44047 5.27922 9.50991 5.58528 9.50991C5.89133 9.50991 6.1934 9.44047 6.46873 9.30682C6.74405 9.17317 6.98547 8.97879 7.17479 8.73832C7.37754 8.99561 7.63973 9.19982 7.93884 9.3334C8.23794 9.46698 8.56501 9.52592 8.89193 9.50517C9.21885 9.48442 9.53584 9.38459 9.81565 9.21426C10.0955 9.04394 10.3297 8.80821 10.4983 8.52734C10.6776 8.82742 10.9315 9.07592 11.2354 9.24864C11.5393 9.42135 11.8828 9.51238 12.2323 9.51284" stroke="white" stroke-linecap="round" stroke-linejoin="round"/>
<path d="M2.40625 9.51099V6.90998C2.40625 6.68003 2.4976 6.4595 2.66019 6.29691C2.82279 6.13431 3.04331 6.04297 3.27326 6.04297H11.3653C11.5953 6.04297 11.8158 6.13431 11.9784 6.29691C12.141 6.4595 12.2323 6.68003 12.2323 6.90998V9.51099" stroke="white" stroke-linecap="round" stroke-linejoin="round"/>
</svg>
