<svg width="24" height="24" viewBox="0 0 24 24" fill="none" xmlns="http://www.w3.org/2000/svg">
<path d="M12 21C10.3872 21 9.06733 20.7942 8.0405 20.3825C7.0135 19.971 6.5 19.4397 6.5 18.7885C6.5 18.4782 6.6465 18.181 6.9395 17.897C7.23233 17.6132 7.63392 17.3718 8.14425 17.173L8.93075 17.8405C8.65258 17.9455 8.36508 18.0846 8.06825 18.2578C7.77142 18.4307 7.58583 18.6013 7.5115 18.7693C7.62567 19.1001 8.10967 19.3879 8.9635 19.6327C9.81733 19.8776 10.8263 20 11.9905 20C13.1545 20 14.1676 19.8776 15.0297 19.6327C15.8919 19.3879 16.3801 19.1001 16.4943 18.7693C16.4418 18.5974 16.2501 18.425 15.9193 18.252C15.5884 18.0788 15.2756 17.9397 14.9808 17.8345L15.7615 17.1615C16.318 17.3642 16.7468 17.6074 17.048 17.8913C17.3493 18.1753 17.5 18.4714 17.5 18.7797C17.5 19.4336 16.9865 19.9671 15.9595 20.3803C14.9327 20.7934 13.6128 21 12 21ZM12.025 16.75C13.6878 15.4563 14.9327 14.1907 15.7595 12.953C16.5865 11.7152 17 10.4988 17 9.30375C17 7.55308 16.4615 6.23142 15.3845 5.33875C14.3077 4.44625 13.1827 4 12.0095 4C10.8365 4 9.70833 4.44675 8.625 5.34025C7.54167 6.23375 7 7.55683 7 9.3095C7 10.4608 7.4115 11.6503 8.2345 12.878C9.05767 14.1055 10.3212 15.3962 12.025 16.75ZM12 18C9.98567 16.4703 8.48208 14.9848 7.48925 13.5433C6.49642 12.1018 6 10.6897 6 9.307C6 8.26267 6.18042 7.34908 6.54125 6.56625C6.90225 5.78358 7.37117 5.1275 7.948 4.598C8.525 4.0685 9.17025 3.66983 9.88375 3.402C10.5973 3.134 11.3037 3 12.003 3C12.7023 3 13.4078 3.134 14.1193 3.402C14.8308 3.66983 15.475 4.0685 16.052 4.598C16.6288 5.1275 17.0977 5.78417 17.4587 6.568C17.8196 7.35167 18 8.26358 18 9.30375C18 10.6869 17.5036 12.0995 16.5107 13.5415C15.5179 14.9835 14.0143 16.4697 12 18ZM12.0095 10.7885C12.4507 10.7885 12.8286 10.6343 13.1432 10.326C13.4581 10.0177 13.6155 9.63658 13.6155 9.18275C13.6155 8.72892 13.4573 8.34458 13.1408 8.02975C12.8244 7.71508 12.4442 7.55775 12 7.55775C11.5653 7.55775 11.1874 7.71592 10.8663 8.03225C10.5451 8.34858 10.3845 8.72883 10.3845 9.173C10.3845 9.63333 10.5451 10.0177 10.8663 10.326C11.1874 10.6343 11.5685 10.7885 12.0095 10.7885Z" fill="#421D12"/>
</svg>
