<svg width="24" height="24" viewBox="0 0 24 24" fill="none" xmlns="http://www.w3.org/2000/svg">
<path d="M10.7236 7.64258L8.83887 9.53125L8.62305 9.74707L8.7168 10.0371C9.07124 11.1425 9.93146 12.3665 11.1982 13.6699C12.4808 14.9895 13.7656 15.833 14.8652 16.1855L15.1553 16.2783L15.3711 16.0625L17.2568 14.1719L21.1953 18.1064L19.415 19.8867C19.4104 19.8863 19.4052 19.8862 19.4004 19.8857C19.2444 19.8704 19.0134 19.8433 18.7207 19.7969C18.1346 19.7038 17.3025 19.5335 16.3301 19.2236C14.3836 18.6035 11.8866 17.4301 9.66602 15.2178C7.44651 13.0065 6.2778 10.5138 5.66406 8.56934C5.35745 7.59782 5.19078 6.76572 5.10059 6.17969C5.05555 5.88705 5.02912 5.65597 5.01465 5.5C5.01411 5.49415 5.01321 5.48806 5.0127 5.48242L6.79102 3.70605L10.7236 7.64258Z" stroke="#421D12"/>
</svg>
