<svg width="24" height="24" viewBox="0 0 24 24" fill="none" xmlns="http://www.w3.org/2000/svg">
<path d="M19.4853 20.154L13.2238 13.8925C12.7238 14.3182 12.1488 14.6477 11.4988 14.881C10.8488 15.1144 10.1957 15.231 9.53934 15.231C7.93768 15.231 6.58209 14.6766 5.47259 13.5678C4.36326 12.4589 3.80859 11.1042 3.80859 9.50353C3.80859 7.9027 4.36301 6.54678 5.47184 5.43578C6.58068 4.32495 7.93543 3.76953 9.53609 3.76953C11.1369 3.76953 12.4928 4.3242 13.6038 5.43353C14.7147 6.54303 15.2701 7.89861 15.2701 9.50028C15.2701 10.1951 15.147 10.8675 14.9008 11.5175C14.6547 12.1675 14.3316 12.7233 13.9316 13.1848L20.1931 19.4465L19.4853 20.154ZM9.53934 14.231C10.8662 14.231 11.9863 13.7743 12.8998 12.8608C13.8133 11.9474 14.2701 10.8273 14.2701 9.50028C14.2701 8.17328 13.8133 7.05311 12.8998 6.13978C11.9863 5.22628 10.8662 4.76953 9.53934 4.76953C8.21234 4.76953 7.09218 5.22628 6.17884 6.13978C5.26534 7.05311 4.80859 8.17328 4.80859 9.50028C4.80859 10.8273 5.26534 11.9474 6.17884 12.8608C7.09218 13.7743 8.21234 14.231 9.53934 14.231Z" fill="#421D12"/>
</svg>
