<svg width="65" height="30" viewBox="0 0 65 30" fill="none" xmlns="http://www.w3.org/2000/svg">
<rect x="0.5" y="0.5" width="64" height="29" rx="4.5" fill="#421D12" stroke="#421D12"/>
<path d="M31.66 6.762C31.864 6.762 32.059 6.816 32.245 6.924C32.437 7.026 32.533 7.14 32.533 7.266C32.533 7.332 32.503 7.392 32.443 7.446C32.389 7.494 32.314 7.518 32.218 7.518C32.182 7.518 32.119 7.509 32.029 7.491C31.747 7.449 31.507 7.428 31.309 7.428C31.153 7.428 30.883 7.44 30.499 7.464C30.373 7.476 30.31 7.509 30.31 7.563C30.31 7.587 30.322 7.608 30.346 7.626L30.499 7.788C30.559 7.854 30.589 7.92 30.589 7.986C30.589 8.058 30.544 8.145 30.454 8.247C30.382 8.343 30.337 8.418 30.319 8.472C30.127 9.036 29.884 9.543 29.59 9.993C29.29 10.449 28.942 10.845 28.546 11.181C28.156 11.517 27.718 11.766 27.232 11.928C27.184 11.946 27.151 11.955 27.133 11.955C27.091 11.955 27.07 11.94 27.07 11.91C27.07 11.88 27.106 11.844 27.178 11.802C27.544 11.622 27.907 11.34 28.267 10.956C28.633 10.572 28.942 10.137 29.194 9.651C29.374 9.303 29.515 8.955 29.617 8.607C29.719 8.259 29.77 8.028 29.77 7.914C29.77 7.83 29.746 7.749 29.698 7.671C29.65 7.593 29.605 7.554 29.563 7.554C29.551 7.56 29.533 7.563 29.509 7.563C29.299 7.587 29.077 7.626 28.843 7.68C28.597 7.734 28.42 7.761 28.312 7.761L28.168 7.743C28.15 7.737 28.123 7.734 28.087 7.734C28.027 7.734 27.97 7.764 27.916 7.824C27.622 8.172 27.325 8.49 27.025 8.778C26.725 9.06 26.458 9.267 26.224 9.399C26.164 9.429 26.125 9.444 26.107 9.444C26.071 9.444 26.053 9.429 26.053 9.399C26.053 9.369 26.086 9.321 26.152 9.255C26.482 8.919 26.761 8.619 26.989 8.355C27.217 8.085 27.445 7.767 27.673 7.401C27.901 7.029 28.09 6.621 28.24 6.177C28.276 6.087 28.294 6.006 28.294 5.934C28.294 5.808 28.213 5.706 28.051 5.628C28.033 5.616 28 5.601 27.952 5.583C27.91 5.565 27.889 5.544 27.889 5.52C27.889 5.496 27.922 5.475 27.988 5.457C28.054 5.433 28.132 5.421 28.222 5.421C28.354 5.421 28.492 5.451 28.636 5.511C28.786 5.571 28.909 5.646 29.005 5.736C29.107 5.826 29.158 5.916 29.158 6.006C29.158 6.042 29.149 6.072 29.131 6.096C29.119 6.12 29.095 6.147 29.059 6.177C28.969 6.261 28.903 6.342 28.861 6.42C28.771 6.612 28.639 6.837 28.465 7.095C28.417 7.173 28.393 7.233 28.393 7.275C28.393 7.305 28.411 7.32 28.447 7.32H28.591C29.629 7.278 30.34 7.203 30.724 7.095C30.922 7.041 31.096 6.972 31.246 6.888C31.33 6.84 31.399 6.807 31.453 6.789C31.513 6.771 31.582 6.762 31.66 6.762ZM35.683 9.237C35.527 9.237 35.404 9.207 35.314 9.147C35.206 9.087 35.107 9.006 35.017 8.904C34.933 8.802 34.891 8.691 34.891 8.571C34.891 8.505 34.903 8.439 34.927 8.373C34.957 8.307 34.987 8.274 35.017 8.274C35.029 8.274 35.056 8.289 35.098 8.319C35.158 8.367 35.221 8.403 35.287 8.427C35.527 8.505 35.797 8.544 36.097 8.544C36.355 8.538 36.748 8.529 37.276 8.517C37.804 8.499 38.254 8.484 38.626 8.472C39.424 8.442 40.087 8.412 40.615 8.382C40.921 8.364 41.161 8.355 41.335 8.355C41.569 8.355 41.752 8.376 41.884 8.418C42.016 8.46 42.082 8.553 42.082 8.697C42.082 8.841 41.959 8.925 41.713 8.949C41.593 8.961 41.428 8.967 41.218 8.967L38.608 9.03C38.146 9.042 37.642 9.063 37.096 9.093C36.556 9.123 36.205 9.156 36.043 9.192C35.893 9.222 35.773 9.237 35.683 9.237ZM49.93 8.148C50.026 8.148 50.158 8.172 50.326 8.22C50.5 8.268 50.65 8.331 50.776 8.409C50.902 8.487 50.965 8.571 50.965 8.661C50.965 8.733 50.908 8.784 50.794 8.814C50.686 8.844 50.566 8.859 50.434 8.859C50.284 8.859 50.167 8.862 50.083 8.868C49.453 8.91 48.784 8.997 48.076 9.129C48.016 9.135 47.971 9.159 47.941 9.201C47.917 9.243 47.914 9.294 47.932 9.354C48.118 10.05 48.319 10.701 48.535 11.307C48.541 11.331 48.568 11.412 48.616 11.55C48.664 11.682 48.688 11.805 48.688 11.919C48.688 12.129 48.583 12.234 48.373 12.234C48.259 12.234 48.157 12.189 48.067 12.099C47.983 12.015 47.926 11.91 47.896 11.784C47.866 11.664 47.812 11.403 47.734 11.001L47.527 10.002L47.401 9.453C47.377 9.333 47.302 9.285 47.176 9.309C46.306 9.507 45.73 9.693 45.448 9.867C45.334 9.933 45.214 9.966 45.088 9.966C44.896 9.966 44.719 9.903 44.557 9.777C44.401 9.651 44.275 9.528 44.179 9.408C44.119 9.33 44.089 9.276 44.089 9.246C44.089 9.204 44.116 9.183 44.17 9.183C44.206 9.183 44.239 9.186 44.269 9.192C44.305 9.198 44.338 9.204 44.368 9.21C44.692 9.252 44.92 9.273 45.052 9.273C45.31 9.273 45.991 9.165 47.095 8.949C47.215 8.931 47.266 8.856 47.248 8.724L46.969 7.473C46.939 7.353 46.861 7.308 46.735 7.338C46.309 7.44 45.952 7.542 45.664 7.644C45.61 7.668 45.55 7.68 45.484 7.68C45.262 7.68 45.019 7.53 44.755 7.23C44.689 7.152 44.656 7.095 44.656 7.059C44.656 7.029 44.671 7.014 44.701 7.014C44.731 7.014 44.773 7.023 44.827 7.041C44.983 7.101 45.178 7.131 45.412 7.131C45.682 7.131 46.093 7.074 46.645 6.96C46.771 6.942 46.819 6.867 46.789 6.735C46.699 6.357 46.639 6.126 46.609 6.042C46.519 5.784 46.426 5.619 46.33 5.547C46.24 5.469 46.108 5.43 45.934 5.43C45.88 5.43 45.841 5.427 45.817 5.421C45.793 5.415 45.781 5.397 45.781 5.367C45.781 5.313 45.838 5.253 45.952 5.187C46.072 5.115 46.192 5.067 46.312 5.043C46.348 5.037 46.402 5.034 46.474 5.034C46.648 5.034 46.807 5.067 46.951 5.133C47.101 5.199 47.176 5.292 47.176 5.412C47.176 5.442 47.167 5.499 47.149 5.583C47.131 5.661 47.122 5.736 47.122 5.808C47.122 5.952 47.164 6.228 47.248 6.636C47.272 6.762 47.35 6.81 47.482 6.78C47.806 6.696 48.04 6.624 48.184 6.564C48.214 6.552 48.304 6.504 48.454 6.42C48.526 6.378 48.586 6.348 48.634 6.33C48.688 6.306 48.751 6.294 48.823 6.294C48.967 6.294 49.129 6.333 49.309 6.411C49.489 6.483 49.579 6.567 49.579 6.663C49.579 6.723 49.543 6.771 49.471 6.807C49.399 6.843 49.33 6.864 49.264 6.87C48.784 6.918 48.217 7.014 47.563 7.158C47.437 7.176 47.389 7.248 47.419 7.374C47.551 7.938 47.656 8.358 47.734 8.634C47.764 8.76 47.839 8.808 47.959 8.778C48.529 8.652 48.928 8.556 49.156 8.49C49.282 8.454 49.375 8.412 49.435 8.364C49.501 8.316 49.54 8.289 49.552 8.283C49.618 8.235 49.675 8.202 49.723 8.184C49.771 8.16 49.84 8.148 49.93 8.148ZM27.421 16.466C27.451 16.466 27.469 16.478 27.475 16.502C27.487 16.52 27.493 16.55 27.493 16.592C27.493 16.676 27.469 16.718 27.421 16.718H27.286C27.13 16.718 26.968 16.778 26.8 16.898C26.638 17.018 26.515 17.201 26.431 17.447C26.377 17.597 26.158 18.356 25.774 19.724C25.39 21.092 25.09 22.172 24.874 22.964C24.85 23.072 24.781 23.126 24.667 23.126H24.55C24.436 23.126 24.364 23.072 24.334 22.964C23.944 21.488 23.533 19.979 23.101 18.437C23.095 18.395 23.08 18.362 23.056 18.338C23.032 18.314 23.008 18.302 22.984 18.302C22.936 18.302 22.897 18.347 22.867 18.437L21.625 22.964C21.601 23.072 21.529 23.126 21.409 23.126H21.292C21.178 23.126 21.106 23.072 21.076 22.964C20.872 22.154 20.587 21.05 20.221 19.652C19.861 18.248 19.654 17.456 19.6 17.276C19.474 16.904 19.213 16.718 18.817 16.718H18.673C18.631 16.718 18.61 16.676 18.61 16.592C18.61 16.508 18.631 16.466 18.673 16.466H21.175C21.205 16.466 21.223 16.478 21.229 16.502C21.241 16.52 21.247 16.55 21.247 16.592C21.247 16.676 21.223 16.718 21.175 16.718H21.04C20.824 16.718 20.65 16.757 20.518 16.835C20.392 16.913 20.329 17.024 20.329 17.168C20.329 17.222 20.332 17.261 20.338 17.285C20.386 17.525 20.737 18.95 21.391 21.56C21.421 21.65 21.46 21.695 21.508 21.695C21.532 21.695 21.556 21.683 21.58 21.659C21.604 21.635 21.619 21.602 21.625 21.56L22.759 17.447C22.777 17.387 22.786 17.339 22.786 17.303L22.777 17.276C22.711 17.066 22.606 16.922 22.462 16.844C22.324 16.76 22.147 16.718 21.931 16.718H21.778C21.736 16.718 21.715 16.676 21.715 16.592C21.715 16.508 21.736 16.466 21.778 16.466H24.226C24.256 16.466 24.274 16.478 24.28 16.502C24.292 16.52 24.298 16.55 24.298 16.592C24.298 16.676 24.274 16.718 24.226 16.718H24.091C23.929 16.718 23.791 16.76 23.677 16.844C23.563 16.928 23.506 17.036 23.506 17.168C23.506 17.216 23.509 17.252 23.515 17.276L24.073 19.418C24.331 20.402 24.52 21.131 24.64 21.605C24.67 21.695 24.712 21.74 24.766 21.74C24.82 21.74 24.859 21.695 24.883 21.605C25.573 19.181 25.963 17.792 26.053 17.438C26.065 17.402 26.071 17.345 26.071 17.267C26.071 17.105 26.011 16.973 25.891 16.871C25.771 16.769 25.621 16.718 25.441 16.718H25.288C25.246 16.718 25.225 16.676 25.225 16.592C25.225 16.508 25.246 16.466 25.288 16.466H27.421ZM33.6621 21.407C33.7161 21.425 33.7431 21.461 33.7431 21.515C33.7431 21.533 33.7281 21.581 33.6981 21.659C33.5001 22.157 33.3501 22.553 33.2481 22.847C33.2121 22.949 33.1401 23 33.0321 23H28.1991C28.1571 23 28.1361 22.958 28.1361 22.874C28.1361 22.79 28.1571 22.748 28.1991 22.748H28.3431C28.6131 22.748 28.8081 22.706 28.9281 22.622C29.0541 22.532 29.1171 22.385 29.1171 22.181V17.285C29.1171 17.075 29.0511 16.928 28.9191 16.844C28.7931 16.76 28.6011 16.718 28.3431 16.718H28.1991C28.1571 16.718 28.1361 16.676 28.1361 16.592C28.1361 16.508 28.1571 16.466 28.1991 16.466H32.7621C32.8701 16.466 32.9451 16.511 32.9871 16.601C33.0891 16.775 33.1851 16.946 33.2751 17.114C33.3651 17.282 33.4311 17.405 33.4731 17.483C33.4791 17.495 33.4821 17.51 33.4821 17.528C33.4821 17.558 33.4581 17.588 33.4101 17.618C33.3921 17.63 33.3681 17.636 33.3381 17.636C33.3021 17.636 33.2721 17.624 33.2481 17.6C32.9841 17.336 32.6631 17.126 32.2851 16.97C31.9071 16.808 31.4991 16.727 31.0611 16.727H30.8361C30.5901 16.727 30.4011 16.739 30.2691 16.763C30.1371 16.781 30.0321 16.829 29.9541 16.907C29.8761 16.985 29.8371 17.111 29.8371 17.285V19.274C29.8371 19.334 29.8521 19.382 29.8821 19.418C29.9181 19.448 29.9661 19.463 30.0261 19.463H30.6471C31.0131 19.463 31.2531 19.46 31.3671 19.454C31.6191 19.448 31.8141 19.364 31.9521 19.202C32.0961 19.04 32.1681 18.836 32.1681 18.59C32.1681 18.548 32.2071 18.527 32.2851 18.527C32.3271 18.527 32.3571 18.533 32.3751 18.545C32.3991 18.551 32.4111 18.566 32.4111 18.59V20.651C32.4111 20.699 32.3691 20.723 32.2851 20.723C32.2071 20.723 32.1681 20.699 32.1681 20.651C32.1681 20.405 32.0961 20.201 31.9521 20.039C31.8141 19.877 31.6191 19.793 31.3671 19.787C31.2531 19.781 31.0131 19.778 30.6471 19.778H30.0261C29.9661 19.778 29.9181 19.796 29.8821 19.832C29.8521 19.862 29.8371 19.907 29.8371 19.967V22.181C29.8371 22.385 29.9001 22.526 30.0261 22.604C30.1521 22.682 30.3471 22.727 30.6111 22.739C30.6891 22.745 30.8241 22.748 31.0161 22.748C31.1601 22.748 31.2651 22.745 31.3311 22.739C31.7031 22.709 32.0211 22.631 32.2851 22.505C32.5491 22.379 32.7651 22.235 32.9331 22.073C33.1071 21.905 33.2991 21.689 33.5091 21.425C33.5271 21.401 33.5511 21.389 33.5811 21.389C33.5991 21.389 33.6261 21.395 33.6621 21.407ZM34.6767 23C34.6347 23 34.6137 22.958 34.6137 22.874C34.6137 22.79 34.6347 22.748 34.6767 22.748H34.8207C35.0967 22.748 35.2917 22.706 35.4057 22.622C35.5257 22.538 35.5857 22.391 35.5857 22.181V17.285C35.5857 17.075 35.5227 16.928 35.3967 16.844C35.2767 16.76 35.0847 16.718 34.8207 16.718H34.6767C34.6347 16.718 34.6137 16.676 34.6137 16.592V16.547C34.6197 16.511 34.6347 16.49 34.6587 16.484C34.6887 16.472 34.7307 16.466 34.7847 16.466L36.2517 16.457C36.8337 16.457 37.2597 16.46 37.5297 16.466C38.1537 16.478 38.6697 16.622 39.0777 16.898C39.4857 17.174 39.6897 17.543 39.6897 18.005C39.6897 18.365 39.5547 18.662 39.2847 18.896C39.0147 19.13 38.6667 19.31 38.2407 19.436C38.1687 19.454 38.1327 19.478 38.1327 19.508C38.1327 19.532 38.1687 19.553 38.2407 19.571C38.7627 19.703 39.1947 19.904 39.5367 20.174C39.8847 20.444 40.0587 20.786 40.0587 21.2C40.0587 21.572 39.9477 21.896 39.7257 22.172C39.5097 22.442 39.2187 22.649 38.8527 22.793C38.4867 22.931 38.0817 23 37.6377 23H34.6767ZM36.3147 19.193C36.3147 19.253 36.3297 19.301 36.3597 19.337C36.3957 19.367 36.4437 19.382 36.5037 19.382H36.5487C37.4187 19.382 38.0187 19.256 38.3487 19.004C38.6847 18.752 38.8527 18.407 38.8527 17.969C38.8527 17.597 38.6937 17.297 38.3757 17.069C38.0637 16.835 37.6167 16.718 37.0347 16.718C36.7767 16.718 36.5907 16.763 36.4767 16.853C36.3687 16.937 36.3147 17.081 36.3147 17.285V19.193ZM37.1067 22.748C37.7127 22.748 38.2137 22.619 38.6097 22.361C39.0117 22.097 39.2127 21.707 39.2127 21.191C39.2127 20.159 38.3247 19.643 36.5487 19.643H36.5037C36.4437 19.643 36.3957 19.661 36.3597 19.697C36.3297 19.727 36.3147 19.772 36.3147 19.832V22.181C36.3147 22.397 36.3747 22.547 36.4947 22.631C36.6147 22.709 36.8097 22.748 37.0797 22.748H37.1067ZM46.879 16.115C46.975 16.115 47.053 16.079 47.113 16.007L47.221 15.89C47.251 15.86 47.293 15.815 47.347 15.755C47.401 15.695 47.446 15.665 47.482 15.665C47.524 15.665 47.611 15.734 47.743 15.872C47.875 16.01 47.977 16.136 48.049 16.25C48.073 16.298 48.085 16.331 48.085 16.349C48.085 16.409 48.049 16.445 47.977 16.457C47.929 16.469 47.89 16.475 47.86 16.475C47.77 16.481 47.692 16.508 47.626 16.556C47.17 16.856 46.477 17.207 45.547 17.609C45.475 17.633 45.439 17.672 45.439 17.726C45.439 17.768 45.466 17.813 45.52 17.861C45.688 17.999 45.811 18.134 45.889 18.266C45.973 18.398 46.015 18.521 46.015 18.635V18.671V18.734C46.015 18.788 46.024 18.827 46.042 18.851C46.06 18.869 46.096 18.878 46.15 18.878H47.86C47.95 18.878 48.025 18.845 48.085 18.779L48.175 18.68C48.193 18.662 48.229 18.626 48.283 18.572C48.337 18.512 48.385 18.482 48.427 18.482C48.469 18.482 48.556 18.548 48.688 18.68C48.826 18.806 48.931 18.923 49.003 19.031C49.027 19.061 49.039 19.094 49.039 19.13C49.039 19.184 49.006 19.22 48.94 19.238L48.868 19.256C48.808 19.268 48.76 19.283 48.724 19.301C48.694 19.313 48.664 19.337 48.634 19.373C48.412 19.631 48.13 19.913 47.788 20.219C47.446 20.519 47.113 20.786 46.789 21.02C46.729 21.062 46.681 21.083 46.645 21.083C46.615 21.083 46.6 21.071 46.6 21.047C46.6 21.005 46.63 20.951 46.69 20.885C47.116 20.399 47.491 19.895 47.815 19.373C47.839 19.343 47.851 19.307 47.851 19.265C47.851 19.187 47.797 19.148 47.689 19.148H45.538C45.478 19.148 45.43 19.166 45.394 19.202C45.364 19.232 45.349 19.277 45.349 19.337V22.811C45.349 23.063 45.289 23.258 45.169 23.396C45.055 23.54 44.824 23.636 44.476 23.684L44.422 23.693C44.338 23.693 44.281 23.639 44.251 23.531C44.209 23.423 44.143 23.339 44.053 23.279C43.897 23.177 43.633 23.102 43.261 23.054C43.141 23.036 43.081 23.003 43.081 22.955C43.081 22.925 43.126 22.91 43.216 22.91C43.282 22.91 43.555 22.925 44.035 22.955C44.251 22.973 44.413 22.982 44.521 22.982C44.611 22.982 44.674 22.967 44.71 22.937C44.746 22.907 44.764 22.856 44.764 22.784V19.337C44.764 19.277 44.746 19.232 44.71 19.202C44.68 19.166 44.635 19.148 44.575 19.148H42.595C42.229 19.154 41.833 19.187 41.407 19.247H41.353C41.269 19.247 41.209 19.208 41.173 19.13L41.128 19.049C41.11 19.013 41.101 18.98 41.101 18.95C41.101 18.86 41.161 18.821 41.281 18.833C41.485 18.851 41.794 18.866 42.208 18.878H45.286C45.34 18.878 45.382 18.866 45.412 18.842C45.442 18.818 45.457 18.791 45.457 18.761C45.457 18.731 45.442 18.695 45.412 18.653C45.22 18.419 44.968 18.179 44.656 17.933C44.344 17.681 43.99 17.459 43.594 17.267C43.504 17.219 43.459 17.177 43.459 17.141C43.459 17.087 43.489 17.06 43.549 17.06L43.657 17.078C44.167 17.192 44.614 17.345 44.998 17.537C45.046 17.555 45.085 17.564 45.115 17.564C45.151 17.564 45.199 17.549 45.259 17.519C45.769 17.195 46.207 16.892 46.573 16.61C46.621 16.568 46.645 16.526 46.645 16.484C46.645 16.412 46.591 16.376 46.483 16.376H43.585C43.219 16.382 42.823 16.415 42.397 16.475H42.343C42.259 16.475 42.199 16.436 42.163 16.358L42.127 16.286C42.109 16.25 42.1 16.214 42.1 16.178C42.1 16.142 42.115 16.115 42.145 16.097C42.175 16.073 42.217 16.064 42.271 16.07C42.475 16.088 42.784 16.103 43.198 16.115H46.879ZM50.947 17.159L50.956 17.141C51.064 16.913 51.16 16.658 51.244 16.376C51.334 16.088 51.403 15.821 51.451 15.575C51.469 15.479 51.52 15.431 51.604 15.431C51.646 15.431 51.679 15.437 51.703 15.449C52.129 15.623 52.342 15.743 52.342 15.809C52.342 15.827 52.315 15.848 52.261 15.872L52.234 15.881C52.144 15.917 52.078 15.968 52.036 16.034C51.748 16.508 51.49 16.88 51.262 17.15C51.232 17.186 51.217 17.228 51.217 17.276C51.217 17.33 51.238 17.378 51.28 17.42C51.46 17.606 51.55 17.786 51.55 17.96C51.55 18.05 51.526 18.122 51.478 18.176C51.436 18.23 51.379 18.257 51.307 18.257L51.226 18.248C51.16 18.218 51.106 18.155 51.064 18.059C50.998 17.903 50.899 17.738 50.767 17.564C50.641 17.39 50.5 17.231 50.344 17.087C50.248 17.003 50.215 16.946 50.245 16.916C50.251 16.91 50.266 16.907 50.29 16.907C50.338 16.907 50.398 16.919 50.47 16.943C50.56 16.973 50.659 17.015 50.767 17.069L50.947 17.159ZM56.833 17.375C56.929 17.375 57.004 17.336 57.058 17.258L57.121 17.177C57.133 17.159 57.154 17.132 57.184 17.096C57.214 17.054 57.241 17.024 57.265 17.006C57.289 16.988 57.313 16.979 57.337 16.979C57.379 16.979 57.466 17.033 57.598 17.141C57.736 17.249 57.841 17.348 57.913 17.438C57.937 17.468 57.949 17.501 57.949 17.537C57.949 17.585 57.922 17.624 57.868 17.654L57.796 17.681C57.682 17.711 57.622 17.78 57.616 17.888C57.532 20.996 57.304 22.781 56.932 23.243C56.71 23.489 56.419 23.63 56.059 23.666H56.032C55.978 23.666 55.936 23.651 55.906 23.621C55.882 23.591 55.864 23.546 55.852 23.486C55.834 23.372 55.78 23.285 55.69 23.225C55.576 23.141 55.291 23.054 54.835 22.964C54.727 22.934 54.673 22.895 54.673 22.847C54.673 22.823 54.691 22.808 54.727 22.802C54.763 22.79 54.811 22.787 54.871 22.793L55.114 22.82C55.72 22.874 56.053 22.901 56.113 22.901C56.209 22.901 56.281 22.892 56.329 22.874C56.377 22.856 56.431 22.82 56.491 22.766C56.773 22.484 56.962 20.837 57.058 17.825V17.807C57.058 17.747 57.04 17.702 57.004 17.672C56.974 17.642 56.932 17.627 56.878 17.627H54.592C54.496 17.627 54.421 17.672 54.367 17.762C54.133 18.218 53.89 18.608 53.638 18.932C53.554 19.022 53.494 19.052 53.458 19.022C53.434 19.004 53.422 18.98 53.422 18.95C53.422 18.92 53.437 18.875 53.467 18.815C53.695 18.371 53.89 17.888 54.052 17.366C54.136 17.114 54.211 16.829 54.277 16.511C54.343 16.187 54.388 15.899 54.412 15.647C54.424 15.539 54.475 15.485 54.565 15.485C54.601 15.485 54.628 15.488 54.646 15.494C55.102 15.638 55.33 15.743 55.33 15.809C55.33 15.833 55.303 15.857 55.249 15.881L55.222 15.89C55.144 15.92 55.087 15.983 55.051 16.079C54.943 16.415 54.814 16.775 54.664 17.159C54.646 17.195 54.637 17.225 54.637 17.249C54.637 17.333 54.694 17.375 54.808 17.375H56.833ZM51.532 19.004C51.496 19.046 51.478 19.088 51.478 19.13C51.478 19.208 51.535 19.241 51.649 19.229L52.558 19.148C52.66 19.136 52.711 19.094 52.711 19.022C52.711 18.98 52.699 18.944 52.675 18.914L52.477 18.599C52.441 18.551 52.42 18.509 52.414 18.473C52.408 18.437 52.411 18.413 52.423 18.401C52.429 18.395 52.441 18.392 52.459 18.392C52.495 18.392 52.543 18.413 52.603 18.455C52.951 18.659 53.206 18.875 53.368 19.103C53.536 19.331 53.62 19.541 53.62 19.733C53.62 19.841 53.593 19.931 53.539 20.003C53.491 20.069 53.428 20.102 53.35 20.102C53.314 20.102 53.272 20.093 53.224 20.075C53.188 20.057 53.161 20.033 53.143 20.003C53.125 19.973 53.107 19.931 53.089 19.877C53.065 19.763 53.023 19.631 52.963 19.481C52.915 19.373 52.834 19.331 52.72 19.355C52.636 19.379 52.51 19.409 52.342 19.445C52.228 19.469 52.171 19.538 52.171 19.652V21.335C52.183 21.989 52.204 22.649 52.234 23.315V23.36C52.234 23.438 52.207 23.501 52.153 23.549C52.021 23.645 51.874 23.693 51.712 23.693C51.664 23.693 51.619 23.672 51.577 23.63C51.541 23.594 51.523 23.555 51.523 23.513C51.547 23.159 51.568 22.817 51.586 22.487C51.604 22.151 51.616 21.713 51.622 21.173V19.814C51.622 19.748 51.601 19.7 51.559 19.67C51.523 19.64 51.475 19.631 51.415 19.643L51.199 19.688C50.983 19.736 50.803 19.769 50.659 19.787C50.563 19.805 50.506 19.829 50.488 19.859C50.488 19.871 50.479 19.886 50.461 19.904C50.437 19.928 50.41 19.94 50.38 19.94C50.314 19.94 50.266 19.892 50.236 19.796L50.164 19.526C50.158 19.508 50.155 19.484 50.155 19.454C50.155 19.364 50.212 19.319 50.326 19.319L50.893 19.283C50.995 19.271 51.07 19.229 51.118 19.157C51.328 18.821 51.535 18.467 51.739 18.095C51.871 17.861 51.994 17.609 52.108 17.339C52.222 17.069 52.312 16.823 52.378 16.601C52.408 16.511 52.459 16.466 52.531 16.466C52.573 16.466 52.606 16.472 52.63 16.484C53.044 16.664 53.251 16.79 53.251 16.862C53.251 16.886 53.221 16.907 53.161 16.925L53.125 16.934C53.041 16.958 52.981 17.003 52.945 17.069C52.585 17.669 52.114 18.314 51.532 19.004ZM54.538 19.067C54.484 18.983 54.457 18.929 54.457 18.905C54.457 18.881 54.472 18.869 54.502 18.869C54.538 18.869 54.586 18.887 54.646 18.923C55.072 19.169 55.381 19.433 55.573 19.715C55.771 19.991 55.87 20.246 55.87 20.48C55.87 20.612 55.84 20.72 55.78 20.804C55.726 20.882 55.654 20.921 55.564 20.921C55.522 20.921 55.477 20.912 55.429 20.894C55.357 20.858 55.312 20.789 55.294 20.687C55.258 20.429 55.168 20.156 55.024 19.868C54.886 19.574 54.724 19.307 54.538 19.067ZM50.578 20.534C50.59 20.42 50.641 20.363 50.731 20.363L50.803 20.381L50.974 20.444C50.992 20.45 51.067 20.468 51.199 20.498C51.337 20.534 51.406 20.573 51.406 20.615C51.406 20.645 51.373 20.678 51.307 20.714L51.28 20.723C51.202 20.753 51.148 20.819 51.118 20.921C50.884 21.689 50.605 22.31 50.281 22.784C50.227 22.856 50.179 22.892 50.137 22.892C50.101 22.892 50.083 22.868 50.083 22.82C50.083 22.784 50.092 22.739 50.11 22.685L50.272 22.217C50.35 21.965 50.419 21.683 50.479 21.371C50.539 21.053 50.572 20.774 50.578 20.534ZM52.585 20.579C52.555 20.525 52.537 20.48 52.531 20.444C52.525 20.402 52.531 20.378 52.549 20.372L52.576 20.363C52.618 20.363 52.669 20.39 52.729 20.444C53.035 20.678 53.257 20.915 53.395 21.155C53.533 21.389 53.602 21.605 53.602 21.803C53.602 21.935 53.575 22.04 53.521 22.118C53.473 22.196 53.407 22.235 53.323 22.235C53.275 22.235 53.23 22.223 53.188 22.199C53.146 22.181 53.116 22.157 53.098 22.127C53.086 22.091 53.077 22.046 53.071 21.992C53.017 21.602 52.855 21.131 52.585 20.579Z" fill="white"/>
<path d="M5.52734 18.5469V20.3998H13.4693V18.5469" stroke="white" stroke-linecap="round" stroke-linejoin="round"/>
<path d="M9.5 13.7799V11.1328" stroke="white" stroke-linecap="round" stroke-linejoin="round"/>
<path d="M12.1484 13.7799V11.1328" stroke="white" stroke-linecap="round" stroke-linejoin="round"/>
<path d="M6.85156 13.7799V11.1328" stroke="white" stroke-linecap="round" stroke-linejoin="round"/>
<ellipse cx="12.1466" cy="9.81066" rx="0.529461" ry="0.529411" fill="white"/>
<ellipse cx="9.50212" cy="9.81066" rx="0.529461" ry="0.529411" fill="white"/>
<ellipse cx="6.85368" cy="9.81066" rx="0.529461" ry="0.529411" fill="white"/>
<path d="M5 16.9583C5.28057 16.958 5.5574 16.894 5.80962 16.7711C6.06184 16.6482 6.28287 16.4696 6.45602 16.2489C6.62944 16.4692 6.85058 16.6472 7.10278 16.7696C7.35499 16.892 7.63168 16.9556 7.91203 16.9556C8.19238 16.9556 8.46908 16.892 8.72128 16.7696C8.97349 16.6472 9.19463 16.4692 9.36805 16.2489C9.55377 16.4846 9.79394 16.6716 10.0679 16.794C10.3419 16.9163 10.6415 16.9703 10.941 16.9513C11.2404 16.9323 11.5308 16.8408 11.7871 16.6848C12.0434 16.5288 12.258 16.3129 12.4124 16.0557C12.5767 16.3305 12.8093 16.5581 13.0877 16.7163C13.366 16.8745 13.6806 16.9579 14.0008 16.9583" stroke="white" stroke-linecap="round" stroke-linejoin="round"/>
<path d="M5 16.9567V14.5744C5 14.3638 5.08367 14.1618 5.23261 14.0129C5.38155 13.8639 5.58356 13.7803 5.79419 13.7803H13.2066C13.4173 13.7803 13.6193 13.8639 13.7682 14.0129C13.9172 14.1618 14.0008 14.3638 14.0008 14.5744V16.9567" stroke="white" stroke-linecap="round" stroke-linejoin="round"/>
</svg>
