<svg width="205" height="45" viewBox="0 0 205 45" fill="none" xmlns="http://www.w3.org/2000/svg">
<path d="M0 3C0 1.34315 1.34315 0 3 0H202C203.657 0 205 1.34315 205 3V42C205 43.6569 203.657 45 202 45H3C1.34314 45 0 43.6569 0 42V3Z" fill="#D9D9D9"/>
<path d="M142.544 20.496C142.637 20.552 142.717 20.6267 142.782 20.72C142.847 20.804 142.88 20.888 142.88 20.972C142.88 21.112 142.829 21.238 142.726 21.35C142.623 21.4527 142.502 21.504 142.362 21.504C142.297 21.504 142.18 21.49 142.012 21.462C141.34 21.35 140.785 21.294 140.346 21.294L139.59 21.308C139.394 21.3267 139.291 21.4247 139.282 21.602C139.198 22.3673 139.086 23.002 138.946 23.506C138.675 24.4953 138.283 24.99 137.77 24.99C137.611 24.99 137.509 24.962 137.462 24.906C137.415 24.8407 137.373 24.7333 137.336 24.584C137.299 24.3507 137.21 24.1267 137.07 23.912C136.939 23.688 136.776 23.4593 136.58 23.226C136.543 23.1793 136.505 23.142 136.468 23.114C136.44 23.086 136.417 23.058 136.398 23.03C136.379 23.002 136.37 22.9693 136.37 22.932C136.37 22.904 136.384 22.89 136.412 22.89C136.459 22.89 136.519 22.9133 136.594 22.96C136.65 22.9973 136.818 23.114 137.098 23.31C137.387 23.4967 137.588 23.59 137.7 23.59C137.784 23.59 137.854 23.562 137.91 23.506C138.162 23.2073 138.335 22.6147 138.428 21.728V21.672C138.428 21.5787 138.4 21.5133 138.344 21.476C138.297 21.4293 138.227 21.4153 138.134 21.434C137.07 21.5927 136.085 21.8493 135.18 22.204C135.031 22.2693 134.956 22.386 134.956 22.554C135.012 24.1593 135.105 25.2793 135.236 25.914C135.311 26.278 135.465 26.516 135.698 26.628C135.941 26.74 136.258 26.796 136.65 26.796C137.033 26.796 137.443 26.7727 137.882 26.726C138.33 26.67 138.736 26.5907 139.1 26.488C139.287 26.4507 139.417 26.432 139.492 26.432C139.707 26.432 139.889 26.488 140.038 26.6C140.197 26.7027 140.276 26.8333 140.276 26.992C140.276 27.2067 140.187 27.3607 140.01 27.454C139.833 27.538 139.599 27.6033 139.31 27.65C138.685 27.7433 138.045 27.79 137.392 27.79C136.048 27.79 135.194 27.5567 134.83 27.09C134.662 26.922 134.536 26.6513 134.452 26.278C134.377 25.9047 134.312 25.4333 134.256 24.864C134.2 24.2293 134.163 23.6273 134.144 23.058C134.125 22.8153 134.097 22.6987 134.06 22.708L133.99 22.75C133.607 22.9367 133.36 23.0627 133.248 23.128C132.977 23.2587 132.781 23.3473 132.66 23.394C132.548 23.4313 132.408 23.45 132.24 23.45C131.857 23.45 131.545 23.324 131.302 23.072C131.069 22.8107 130.952 22.5167 130.952 22.19C130.952 22.0967 130.961 22.0267 130.98 21.98C131.008 21.9333 131.036 21.91 131.064 21.91C131.101 21.91 131.171 21.9613 131.274 22.064C131.498 22.2693 131.769 22.372 132.086 22.372C132.291 22.372 132.571 22.3113 132.926 22.19L133.248 22.078C133.313 22.0593 133.393 22.036 133.486 22.008C133.579 21.9707 133.691 21.9333 133.822 21.896C133.981 21.84 134.06 21.7373 134.06 21.588C134.06 21.2427 134.037 20.8973 133.99 20.552C133.943 20.2067 133.892 19.9687 133.836 19.838C133.761 19.67 133.677 19.544 133.584 19.46C133.5 19.3667 133.393 19.292 133.262 19.236C133.085 19.1613 132.996 19.0913 132.996 19.026C132.996 18.942 133.094 18.872 133.29 18.816C133.495 18.7507 133.682 18.718 133.85 18.718C134.27 18.718 134.615 18.8533 134.886 19.124C135.007 19.2453 135.068 19.3853 135.068 19.544C135.068 19.6187 135.063 19.6887 135.054 19.754C135.045 19.81 135.035 19.866 135.026 19.922C134.979 20.1553 134.956 20.5847 134.956 21.21C134.956 21.3127 134.984 21.3873 135.04 21.434C135.105 21.4807 135.189 21.49 135.292 21.462C136.533 21.126 137.523 20.902 138.26 20.79C138.437 20.762 138.526 20.6593 138.526 20.482C138.535 20.4167 138.54 20.3187 138.54 20.188C138.549 19.7213 138.54 19.2967 138.512 18.914C138.465 18.438 138.251 18.1207 137.868 17.962C137.775 17.9153 137.728 17.8733 137.728 17.836C137.728 17.7613 137.789 17.7007 137.91 17.654C138.031 17.6073 138.153 17.584 138.274 17.584C138.433 17.584 138.61 17.6167 138.806 17.682C139.002 17.738 139.156 17.808 139.268 17.892C139.501 18.0693 139.618 18.2793 139.618 18.522C139.618 18.5873 139.581 18.8067 139.506 19.18L139.492 19.264C139.492 19.3853 139.553 19.4787 139.674 19.544C140.01 19.768 140.369 19.964 140.752 20.132C141.144 20.3 141.48 20.3887 141.76 20.398C141.863 20.4073 141.961 20.412 142.054 20.412C142.157 20.4027 142.25 20.4027 142.334 20.412C142.418 20.4213 142.488 20.4493 142.544 20.496ZM139.842 20.65C140.197 20.65 140.374 20.6033 140.374 20.51C140.374 20.4353 140.169 20.2627 139.758 19.992C139.693 19.9453 139.637 19.922 139.59 19.922C139.478 19.922 139.413 20.006 139.394 20.174L139.38 20.356V20.398C139.38 20.566 139.464 20.65 139.632 20.65H139.842Z" fill="#421D12"/>
<path d="M124.792 20.3981C125.417 20.3981 125.973 20.5334 126.458 20.8041C126.953 21.0748 127.335 21.4434 127.606 21.9101C127.886 22.3768 128.026 22.8994 128.026 23.4781C128.026 24.2714 127.774 24.9854 127.27 25.6201C126.775 26.2454 126.131 26.7588 125.338 27.1601C124.554 27.5614 123.719 27.8461 122.832 28.0141C122.711 28.0421 122.613 28.0561 122.538 28.0561C122.445 28.0561 122.398 28.0328 122.398 27.9861C122.398 27.9301 122.454 27.8881 122.566 27.8601C123.378 27.6454 124.106 27.2954 124.75 26.8101C125.403 26.3248 125.912 25.7648 126.276 25.1301C126.649 24.4861 126.836 23.8421 126.836 23.1981C126.836 22.7408 126.729 22.3441 126.514 22.0081C126.309 21.6628 126.024 21.3968 125.66 21.2101C125.296 21.0234 124.895 20.9301 124.456 20.9301C123.905 20.9301 123.327 21.0794 122.72 21.3781C122.113 21.6768 121.549 22.0968 121.026 22.6381C120.933 22.7408 120.881 22.8621 120.872 23.0021V23.5061C120.872 24.6728 120.97 25.7508 121.166 26.7401C121.194 26.9081 121.208 27.0528 121.208 27.1741C121.208 27.4074 121.161 27.5848 121.068 27.7061C120.984 27.8274 120.886 27.8881 120.774 27.8881C120.625 27.8881 120.489 27.8274 120.368 27.7061C120.256 27.5848 120.181 27.4261 120.144 27.2301C120.079 26.7541 119.934 26.1241 119.71 25.3401C119.673 25.2001 119.607 25.1301 119.514 25.1301C119.43 25.1301 119.36 25.1861 119.304 25.2981L119.024 25.8581C118.931 26.0541 118.819 26.1988 118.688 26.2921C118.567 26.3854 118.445 26.4321 118.324 26.4321C118.212 26.4321 118.109 26.3854 118.016 26.2921C117.923 26.1894 117.876 26.0681 117.876 25.9281V25.8301C117.904 25.7181 117.941 25.6061 117.988 25.4941C118.063 25.3168 118.179 25.1254 118.338 24.9201C118.506 24.7054 118.753 24.4068 119.08 24.0241C119.145 23.9494 119.178 23.8701 119.178 23.7861C119.178 23.7488 119.169 23.6928 119.15 23.6181C118.823 22.7688 118.576 22.2461 118.408 22.0501C118.203 21.8074 118.1 21.6301 118.1 21.5181C118.1 21.4154 118.147 21.3361 118.24 21.2801C118.343 21.2148 118.445 21.1821 118.548 21.1821L118.828 21.1961C119.024 21.1961 119.183 21.1821 119.304 21.1541C119.425 21.1261 119.556 21.0748 119.696 21.0001C119.901 20.8788 120.135 20.7201 120.396 20.5241C120.508 20.4401 120.569 20.3234 120.578 20.1741C120.625 19.7541 120.667 19.4088 120.704 19.1381C120.769 18.6248 120.802 18.2514 120.802 18.0181C120.802 17.5328 120.643 17.1314 120.326 16.8141C120.298 16.7768 120.256 16.7348 120.2 16.6881C120.144 16.6414 120.116 16.6041 120.116 16.5761C120.116 16.5294 120.163 16.5061 120.256 16.5061C120.433 16.5061 120.653 16.5668 120.914 16.6881C121.521 16.9681 121.824 17.3228 121.824 17.7521C121.824 17.9388 121.754 18.1814 121.614 18.4801C121.465 18.7881 121.371 19.0308 121.334 19.2081C121.315 19.2641 121.297 19.3481 121.278 19.4601L121.25 19.6421C121.25 19.7634 121.287 19.8101 121.362 19.7821C121.418 19.7541 121.479 19.7401 121.544 19.7401C121.675 19.7401 121.829 19.8194 122.006 19.9781C122.099 20.0434 122.146 20.1461 122.146 20.2861C122.146 20.5008 122.057 20.7294 121.88 20.9721L121.852 21.0141C121.768 21.1261 121.698 21.2521 121.642 21.3921C121.595 21.5321 121.6 21.5834 121.656 21.5461C121.871 21.4061 121.992 21.3268 122.02 21.3081C122.991 20.7014 123.915 20.3981 124.792 20.3981ZM118.87 22.0221C118.833 22.0221 118.814 22.0548 118.814 22.1201C118.814 22.1854 118.833 22.2694 118.87 22.3721L119.248 23.2681C119.285 23.3801 119.332 23.4548 119.388 23.4921C119.444 23.5201 119.495 23.5108 119.542 23.4641L119.682 23.2821C119.981 22.8994 120.2 22.5728 120.34 22.3021C120.405 22.1901 120.443 22.0688 120.452 21.9381L120.466 21.6721V21.6441C120.466 21.5788 120.447 21.5228 120.41 21.4761C120.382 21.4294 120.345 21.4061 120.298 21.4061C120.242 21.4061 120.177 21.4434 120.102 21.5181C120.083 21.5461 120.037 21.6021 119.962 21.6861C119.887 21.7701 119.813 21.8401 119.738 21.8961C119.673 21.9428 119.603 21.9801 119.528 22.0081C119.416 22.0548 119.285 22.0781 119.136 22.0781C119.061 22.0781 118.987 22.0594 118.912 22.0221H118.87ZM120.34 24.0801C120.331 23.6881 120.317 23.5061 120.298 23.5341L120.228 23.6321C120.144 23.7534 120.018 23.9634 119.85 24.2621C119.803 24.3368 119.78 24.4068 119.78 24.4721C119.78 24.5094 119.799 24.5748 119.836 24.6681C119.995 25.0601 120.111 25.3028 120.186 25.3961C120.242 25.2841 120.275 25.1861 120.284 25.1021C120.303 24.5981 120.321 24.2574 120.34 24.0801Z" fill="#421D12"/>
<path d="M109.49 17.4159C109.434 17.3039 109.373 17.2479 109.308 17.2479C109.233 17.2479 109.168 17.2945 109.112 17.3879C108.468 18.3399 107.595 19.2779 106.494 20.2019C105.392 21.1259 104.254 21.8632 103.078 22.4139C102.994 22.4512 102.924 22.4745 102.868 22.4839C102.821 22.4839 102.788 22.4699 102.77 22.4419V22.4139C102.77 22.3579 102.835 22.2879 102.966 22.2039C103.684 21.7465 104.412 21.1725 105.15 20.4819C105.887 19.7912 106.531 19.0819 107.082 18.3539C107.614 17.6352 107.964 16.9585 108.132 16.3239C108.188 16.1279 108.309 16.0579 108.496 16.1139L109.756 16.4919C109.821 16.5105 109.877 16.5432 109.924 16.5899C109.97 16.6272 109.994 16.6692 109.994 16.7159C109.994 16.7719 109.961 16.8045 109.896 16.8139C109.793 16.8885 109.742 16.9725 109.742 17.0659C109.742 17.0939 109.756 17.1312 109.784 17.1779C110.353 17.9245 111.1 18.6012 112.024 19.2079C112.948 19.8052 113.965 20.3232 115.076 20.7619C115.234 20.8365 115.314 20.9019 115.314 20.9579C115.304 21.0139 115.225 21.0745 115.076 21.1399C114.805 21.2705 114.609 21.4712 114.488 21.7419C114.422 21.8539 114.343 21.9099 114.25 21.9099C114.212 21.9099 114.156 21.8959 114.082 21.8679C113.092 21.3265 112.192 20.6732 111.38 19.9079C110.568 19.1332 109.938 18.3025 109.49 17.4159ZM107.908 21.7559C107.413 21.7652 106.89 21.8165 106.34 21.9099H106.256C106.134 21.9099 106.041 21.8492 105.976 21.7279L105.92 21.6299C105.892 21.5739 105.878 21.5179 105.878 21.4619C105.878 21.4059 105.901 21.3639 105.948 21.3359C105.994 21.2985 106.06 21.2845 106.144 21.2939C106.461 21.3219 106.942 21.3452 107.586 21.3639H110.036C110.185 21.3639 110.302 21.3032 110.386 21.1819L110.582 20.9019C110.619 20.8459 110.67 20.7759 110.736 20.6919C110.801 20.5985 110.852 20.5332 110.89 20.4959C110.936 20.4492 110.978 20.4259 111.016 20.4259C111.081 20.4259 111.254 20.5425 111.534 20.7759C111.823 21.0092 112.038 21.2099 112.178 21.3779C112.224 21.4432 112.248 21.4992 112.248 21.5459C112.248 21.6019 112.224 21.6439 112.178 21.6719C112.122 21.7279 112.028 21.7559 111.898 21.7559H107.908ZM106.508 28.0419C106.414 28.0419 106.34 28.0652 106.284 28.1119C106.237 28.1679 106.214 28.2425 106.214 28.3359V28.7419C106.214 28.7979 106.111 28.8725 105.906 28.9659C105.7 29.0592 105.49 29.1059 105.276 29.1059C105.201 29.1059 105.14 29.0779 105.094 29.0219C105.047 28.9659 105.024 28.9005 105.024 28.8259C105.061 28.3872 105.089 27.8319 105.108 27.1599V26.1799C105.108 25.2839 105.066 24.4625 104.982 23.7159V23.6599C104.982 23.5199 105.042 23.4499 105.164 23.4499C105.22 23.4499 105.266 23.4592 105.304 23.4779L106.13 23.8419C106.251 23.8979 106.372 23.9259 106.494 23.9259H111.45C111.599 23.9259 111.72 23.8699 111.814 23.7579L111.94 23.5899C111.968 23.5619 112.005 23.5152 112.052 23.4499C112.108 23.3845 112.154 23.3379 112.192 23.3099C112.229 23.2725 112.266 23.2539 112.304 23.2539C112.369 23.2539 112.532 23.3519 112.794 23.5479C113.055 23.7439 113.256 23.9165 113.396 24.0659C113.442 24.1312 113.466 24.1825 113.466 24.2199C113.466 24.2945 113.424 24.3552 113.34 24.4019C113.312 24.4205 113.284 24.4345 113.256 24.4439C113.228 24.4532 113.204 24.4625 113.186 24.4719C113.018 24.5279 112.934 24.6352 112.934 24.7939V25.9279C112.962 27.0479 112.99 27.8645 113.018 28.3779V28.4339C113.018 28.5739 112.966 28.6765 112.864 28.7419C112.742 28.8072 112.598 28.8632 112.43 28.9099C112.262 28.9659 112.117 28.9939 111.996 28.9939H111.94C111.828 28.9659 111.772 28.8725 111.772 28.7139C111.79 28.6392 111.8 28.5832 111.8 28.5459L111.828 28.3639V28.3359C111.828 28.2425 111.8 28.1679 111.744 28.1119C111.697 28.0652 111.627 28.0419 111.534 28.0419H106.508ZM106.508 24.3319C106.414 24.3319 106.34 24.3599 106.284 24.4159C106.237 24.4625 106.214 24.5325 106.214 24.6259V27.3419C106.214 27.4352 106.237 27.5099 106.284 27.5659C106.34 27.6125 106.414 27.6359 106.508 27.6359H111.534C111.627 27.6359 111.697 27.6125 111.744 27.5659C111.8 27.5099 111.828 27.4352 111.828 27.3419V24.6259C111.828 24.5325 111.8 24.4625 111.744 24.4159C111.697 24.3599 111.627 24.3319 111.534 24.3319H106.508Z" fill="#421D12"/>
<path d="M93.516 27.636C93.3106 27.636 93.0493 27.5614 92.732 27.412C92.424 27.2627 92.088 27.0294 91.724 26.712C90.8093 25.8907 90.352 24.654 90.352 23.002C90.352 22.5634 90.3893 22.0734 90.464 21.532C90.52 21.1027 90.548 20.8134 90.548 20.664C90.548 20.384 90.506 20.1367 90.422 19.922C90.338 19.7074 90.1933 19.516 89.988 19.348C89.9133 19.2827 89.876 19.236 89.876 19.208C89.876 19.18 89.904 19.1614 89.96 19.152C90.0253 19.1334 90.0906 19.124 90.156 19.124C90.3986 19.124 90.646 19.1847 90.898 19.306C91.1593 19.418 91.374 19.5767 91.542 19.782C91.7193 19.9874 91.808 20.2067 91.808 20.44C91.808 20.5614 91.7846 20.706 91.738 20.874C91.7006 21.042 91.654 21.21 91.598 21.378C91.486 21.7514 91.3973 22.078 91.332 22.358C91.276 22.6287 91.248 22.9414 91.248 23.296C91.248 23.7627 91.332 24.1967 91.5 24.598C91.6773 24.99 91.8826 25.3027 92.116 25.536C92.3586 25.7694 92.5733 25.886 92.76 25.886C92.8813 25.886 92.9606 25.7927 92.998 25.606C93.194 24.7847 93.376 24.1967 93.544 23.842C93.628 23.6647 93.698 23.576 93.754 23.576C93.782 23.576 93.796 23.604 93.796 23.66C93.796 23.66 93.782 23.744 93.754 23.912C93.6513 24.388 93.6 24.8314 93.6 25.242C93.6 25.4287 93.628 25.69 93.684 26.026C93.712 26.1847 93.7726 26.3714 93.866 26.586C93.9686 26.8287 94.02 27.0154 94.02 27.146C94.02 27.2954 93.9733 27.4167 93.88 27.51C93.796 27.594 93.6746 27.636 93.516 27.636ZM99.396 24.038C99.2 24.038 99.0506 23.9867 98.948 23.884C98.8453 23.7814 98.7706 23.6414 98.724 23.464C98.7146 23.4267 98.668 23.2447 98.584 22.918C98.5093 22.5914 98.3786 22.2694 98.192 21.952C98.0146 21.6347 97.814 21.4154 97.59 21.294C97.3753 21.182 97.0766 21.126 96.694 21.126H96.456C96.372 21.126 96.33 21.1027 96.33 21.056C96.33 21.0094 96.3813 20.9674 96.484 20.93C96.764 20.8367 97.0626 20.79 97.38 20.79C98.0426 20.79 98.626 21.0094 99.13 21.448C99.4753 21.756 99.718 22.078 99.858 22.414C100.007 22.75 100.082 23.0207 100.082 23.226C100.082 23.4407 100.012 23.632 99.872 23.8C99.7413 23.9587 99.5826 24.038 99.396 24.038Z" fill="#421D12"/>
<path d="M78.8298 17.1501C78.9791 17.1501 79.0958 17.0894 79.1798 16.9681L79.2917 16.8141C79.3197 16.7768 79.3571 16.7254 79.4037 16.6601C79.4504 16.5948 79.4878 16.5481 79.5158 16.5201C79.5531 16.4828 79.5904 16.4641 79.6278 16.4641C79.6931 16.4641 79.8331 16.5574 80.0478 16.7441C80.2718 16.9214 80.4491 17.0894 80.5798 17.2481C80.6171 17.2948 80.6357 17.3461 80.6357 17.4021C80.6357 17.4768 80.5891 17.5421 80.4958 17.5981L80.4398 17.6261C80.3558 17.6634 80.2904 17.7054 80.2437 17.7521C80.2064 17.7988 80.1877 17.8641 80.1877 17.9481V18.9841C80.2157 20.0201 80.2437 20.7854 80.2717 21.2801V21.3361C80.2717 21.4668 80.2204 21.5648 80.1178 21.6301C80.0058 21.6954 79.8751 21.7514 79.7257 21.7981C79.5764 21.8448 79.4457 21.8681 79.3337 21.8681C79.2497 21.8681 79.1891 21.8354 79.1518 21.7701C79.1238 21.7141 79.1098 21.6674 79.1098 21.6301C79.1098 21.5834 79.1191 21.5321 79.1378 21.4761C79.1564 21.3641 79.1658 21.2754 79.1658 21.2101C79.1658 21.1728 79.1378 21.1448 79.0818 21.1261C79.0351 21.0981 78.9651 21.0841 78.8717 21.0841H76.8278C76.7344 21.0841 76.6598 21.1121 76.6038 21.1681C76.5571 21.2148 76.5338 21.2848 76.5338 21.3781V25.3401C76.5524 26.3481 76.5851 27.3794 76.6318 28.4341V28.5181C76.6318 28.6208 76.5944 28.7094 76.5198 28.7841C76.4264 28.8774 76.3051 28.9568 76.1558 29.0221C76.0158 29.0874 75.8618 29.1201 75.6938 29.1201C75.6004 29.1201 75.5164 29.0921 75.4418 29.0361C75.3764 28.9801 75.3438 28.9148 75.3438 28.8401C75.3811 28.2894 75.4138 27.7574 75.4418 27.2441C75.4698 26.7214 75.4884 26.0401 75.4978 25.2001V19.4041C75.4978 18.4988 75.4557 17.6821 75.3717 16.9541V16.8981C75.3717 16.7488 75.4278 16.6741 75.5398 16.6741C75.5864 16.6741 75.6378 16.6881 75.6938 16.7161L76.4218 17.0661C76.5244 17.1221 76.6457 17.1501 76.7857 17.1501H78.8298ZM82.9738 21.0841C82.8804 21.0841 82.8058 21.1121 82.7498 21.1681C82.7031 21.2148 82.6798 21.2848 82.6798 21.3781V21.4341C82.6798 21.4994 82.5817 21.5741 82.3857 21.6581C82.1991 21.7328 82.0078 21.7701 81.8118 21.7701C81.7464 21.7701 81.6904 21.7421 81.6438 21.6861C81.6064 21.6301 81.5878 21.5648 81.5878 21.4901C81.6251 21.1074 81.6531 20.6314 81.6718 20.0621V19.2081C81.6718 18.4521 81.6344 17.7148 81.5597 16.9961V16.9401C81.5597 16.8001 81.6204 16.7301 81.7418 16.7301C81.7978 16.7301 81.8444 16.7394 81.8818 16.7581L82.5818 17.0661C82.7031 17.1221 82.8244 17.1501 82.9458 17.1501H85.0597C85.2091 17.1501 85.3257 17.0848 85.4097 16.9541L85.5077 16.8141C85.5264 16.7861 85.5591 16.7394 85.6058 16.6741C85.6524 16.6088 85.6944 16.5621 85.7318 16.5341C85.7691 16.4968 85.8064 16.4781 85.8438 16.4781C85.9091 16.4781 86.0678 16.5761 86.3198 16.7721C86.5811 16.9588 86.7818 17.1268 86.9218 17.2761C86.9591 17.3228 86.9778 17.3741 86.9778 17.4301C86.9778 17.4954 86.9358 17.5561 86.8518 17.6121C86.8238 17.6308 86.7817 17.6494 86.7257 17.6681C86.5577 17.7241 86.4738 17.8361 86.4738 18.0041V27.6501C86.4738 28.0608 86.3898 28.3688 86.2218 28.5741C86.0631 28.7888 85.7318 28.9334 85.2278 29.0081L85.1438 29.0221C85.0131 29.0221 84.9244 28.9381 84.8778 28.7701C84.8311 28.5834 84.7518 28.4434 84.6398 28.3501C84.4811 28.2008 84.2104 28.0888 83.8278 28.0141C83.6411 27.9861 83.5478 27.9348 83.5478 27.8601C83.5478 27.8134 83.6177 27.7901 83.7577 27.7901C83.7484 27.7901 84.0378 27.8041 84.6258 27.8321L85.1018 27.8601C85.2231 27.8601 85.3071 27.8368 85.3538 27.7901C85.4004 27.7341 85.4237 27.6501 85.4237 27.5381V21.3781C85.4237 21.2848 85.3958 21.2148 85.3398 21.1681C85.2931 21.1121 85.2231 21.0841 85.1298 21.0841H82.9738ZM78.8717 18.8861C78.9651 18.8861 79.0351 18.8628 79.0818 18.8161C79.1378 18.7601 79.1658 18.6854 79.1658 18.5921V17.8361C79.1658 17.7428 79.1378 17.6728 79.0818 17.6261C79.0351 17.5701 78.9651 17.5421 78.8717 17.5421H76.8278C76.7344 17.5421 76.6598 17.5701 76.6038 17.6261C76.5571 17.6728 76.5338 17.7428 76.5338 17.8361V18.5921C76.5338 18.6854 76.5571 18.7601 76.6038 18.8161C76.6598 18.8628 76.7344 18.8861 76.8278 18.8861H78.8717ZM85.1298 18.8861C85.2231 18.8861 85.2931 18.8628 85.3398 18.8161C85.3958 18.7601 85.4237 18.6854 85.4237 18.5921V17.8361C85.4237 17.7428 85.3958 17.6728 85.3398 17.6261C85.2931 17.5701 85.2231 17.5421 85.1298 17.5421H82.9738C82.8804 17.5421 82.8058 17.5701 82.7498 17.6261C82.7031 17.6728 82.6798 17.7428 82.6798 17.8361V18.5921C82.6798 18.6854 82.7031 18.7601 82.7498 18.8161C82.8058 18.8628 82.8804 18.8861 82.9738 18.8861H85.1298ZM76.8278 19.2921C76.7344 19.2921 76.6598 19.3201 76.6038 19.3761C76.5571 19.4228 76.5338 19.4928 76.5338 19.5861V20.3841C76.5338 20.4774 76.5571 20.5521 76.6038 20.6081C76.6598 20.6548 76.7344 20.6781 76.8278 20.6781H78.8717C78.9651 20.6781 79.0351 20.6548 79.0818 20.6081C79.1378 20.5521 79.1658 20.4774 79.1658 20.3841V19.5861C79.1658 19.4928 79.1378 19.4228 79.0818 19.3761C79.0351 19.3201 78.9651 19.2921 78.8717 19.2921H76.8278ZM82.9738 19.2921C82.8804 19.2921 82.8058 19.3201 82.7498 19.3761C82.7031 19.4228 82.6798 19.4928 82.6798 19.5861V20.3841C82.6798 20.4774 82.7031 20.5521 82.7498 20.6081C82.8058 20.6548 82.8804 20.6781 82.9738 20.6781H85.1298C85.2231 20.6781 85.2931 20.6548 85.3398 20.6081C85.3958 20.5521 85.4237 20.4774 85.4237 20.3841V19.5861C85.4237 19.4928 85.3958 19.4228 85.3398 19.3761C85.2931 19.3201 85.2231 19.2921 85.1298 19.2921H82.9738ZM79.6978 26.4461C79.5018 26.4461 79.4037 26.4834 79.4037 26.5581C79.4037 26.6608 79.4084 26.7354 79.4178 26.7821V26.8801V26.9921C79.4178 27.1041 79.3804 27.1881 79.3057 27.2441C79.2124 27.3094 79.0957 27.3701 78.9557 27.4261C78.8157 27.4728 78.6711 27.4961 78.5217 27.4961C78.4564 27.4961 78.4004 27.4681 78.3538 27.4121C78.3164 27.3561 78.2978 27.2908 78.2978 27.2161C78.3351 26.8614 78.3631 26.4041 78.3818 25.8441V25.0181C78.3818 24.1968 78.3491 23.4874 78.2838 22.8901V22.8341C78.2838 22.6941 78.3444 22.6241 78.4657 22.6241C78.5217 22.6241 78.5684 22.6334 78.6058 22.6521L79.2917 22.9601C79.4224 23.0161 79.5438 23.0441 79.6558 23.0441H82.0638C82.2131 23.0441 82.3344 22.9881 82.4278 22.8761L82.5258 22.7501C82.5444 22.7221 82.5771 22.6801 82.6238 22.6241C82.6704 22.5588 82.7124 22.5121 82.7498 22.4841C82.7871 22.4561 82.8244 22.4421 82.8617 22.4421C82.9271 22.4421 83.0718 22.5261 83.2958 22.6941C83.5291 22.8528 83.7064 23.0021 83.8278 23.1421C83.8651 23.1888 83.8838 23.2401 83.8838 23.2961C83.8838 23.3614 83.8417 23.4221 83.7577 23.4781L83.6737 23.5201C83.5151 23.5761 83.4358 23.6834 83.4358 23.8421V24.7101C83.4638 25.5594 83.4871 26.2034 83.5058 26.6421V26.7121C83.5058 26.8428 83.4591 26.9361 83.3658 26.9921C83.2631 27.0668 83.1371 27.1321 82.9878 27.1881C82.8384 27.2441 82.7031 27.2721 82.5818 27.2721C82.4978 27.2721 82.4371 27.2394 82.3997 27.1741C82.3717 27.1181 82.3577 27.0714 82.3577 27.0341C82.3577 26.9968 82.3671 26.9408 82.3857 26.8661L82.4137 26.7261C82.4137 26.5394 82.3158 26.4461 82.1198 26.4461H79.6978ZM79.6978 23.4361C79.6044 23.4361 79.5298 23.4641 79.4738 23.5201C79.4271 23.5668 79.4037 23.6368 79.4037 23.7301V25.7321C79.4037 25.8254 79.4271 25.9001 79.4738 25.9561C79.5298 26.0028 79.6044 26.0261 79.6978 26.0261H82.1198C82.2131 26.0261 82.2831 26.0028 82.3298 25.9561C82.3857 25.9001 82.4137 25.8254 82.4137 25.7321V23.7301C82.4137 23.6368 82.3857 23.5668 82.3298 23.5201C82.2831 23.4641 82.2131 23.4361 82.1198 23.4361H79.6978Z" fill="#421D12"/>
<path d="M69.8284 22.3859C70.351 22.3859 70.7617 22.5119 71.0604 22.7639C71.3684 23.0159 71.5224 23.4126 71.5224 23.9539C71.5224 24.4579 71.3404 24.9759 70.9764 25.5079C70.6124 26.0399 70.155 26.4832 69.6044 26.8379C69.0537 27.1926 68.5217 27.3699 68.0084 27.3699C67.6444 27.3699 67.3457 27.2672 67.1124 27.0619C66.8884 26.8566 66.7764 26.5672 66.7764 26.1939C66.7764 25.6806 67.0097 25.0692 67.4764 24.3599C67.5604 24.2479 67.621 24.1919 67.6584 24.1919C67.6957 24.1919 67.7144 24.2152 67.7144 24.2619C67.7144 24.3086 67.6677 24.4299 67.5744 24.6259C67.509 24.7752 67.4484 24.9619 67.3924 25.1859C67.3364 25.4006 67.3084 25.6012 67.3084 25.7879C67.3084 26.2266 67.4624 26.4459 67.7704 26.4459C68.1064 26.4459 68.4937 26.3012 68.9324 26.0119C69.371 25.7132 69.7444 25.3539 70.0524 24.9339C70.3697 24.5139 70.5284 24.1312 70.5284 23.7859C70.5284 23.1792 70.1877 22.8759 69.5064 22.8759C68.881 22.8759 68.069 23.1046 67.0704 23.5619C66.6877 23.7299 66.263 23.9586 65.7964 24.2479C65.6657 24.3319 65.605 24.4532 65.6144 24.6119C65.661 25.4052 65.6844 25.8906 65.6844 26.0679C65.6844 26.3292 65.661 26.5859 65.6144 26.8379C65.577 27.0899 65.535 27.2579 65.4884 27.3419C65.4324 27.4446 65.3437 27.5426 65.2224 27.6359C65.101 27.7292 65.0124 27.7759 64.9564 27.7759C64.779 27.7759 64.653 27.6686 64.5784 27.4539C64.4477 27.1179 64.289 26.8286 64.1024 26.5859C64.009 26.4739 63.8224 26.3246 63.5424 26.1379C63.477 26.1006 63.4117 26.0819 63.3464 26.0819C63.2624 26.0819 63.1924 26.1052 63.1364 26.1519C63.0617 26.2079 62.9684 26.2779 62.8564 26.3619C62.7537 26.4366 62.665 26.4926 62.5904 26.5299C62.525 26.5672 62.455 26.5859 62.3804 26.5859C62.147 26.5859 61.937 26.4786 61.7504 26.2639C61.573 26.0399 61.4844 25.8019 61.4844 25.5499C61.4844 25.3632 61.5357 25.2232 61.6384 25.1299C61.7504 25.0366 61.853 24.9899 61.9464 24.9899C62.0024 24.9899 62.0957 25.0179 62.2264 25.0739C62.3664 25.1299 62.455 25.1579 62.4924 25.1579L62.6044 25.1439C62.9964 25.0132 63.701 24.6819 64.7184 24.1499C64.8584 24.0659 64.9284 23.9492 64.9284 23.7999C64.9284 23.0906 64.9237 22.5726 64.9144 22.2459C64.9144 22.1619 64.8957 22.0966 64.8584 22.0499C64.821 22.0032 64.7697 21.9799 64.7044 21.9799C64.6764 21.9799 64.6344 21.9892 64.5784 22.0079L63.8784 22.2319C63.6824 22.2599 63.5657 22.2739 63.5284 22.2739C63.2204 22.2739 62.959 22.1992 62.7444 22.0499C62.3897 21.8072 62.105 21.5412 61.8904 21.2519C61.8157 21.1772 61.7784 21.1166 61.7784 21.0699C61.7784 21.0326 61.8017 21.0139 61.8484 21.0139C61.895 21.0139 61.9744 21.0419 62.0864 21.0979C62.2544 21.1726 62.3664 21.2192 62.4224 21.2379C62.7397 21.3312 63.057 21.3779 63.3744 21.3779C63.505 21.3779 63.5984 21.3732 63.6544 21.3639C63.9157 21.3359 64.2517 21.2519 64.6624 21.1119C64.8304 21.0559 64.9144 20.9439 64.9144 20.7759C64.8957 20.3746 64.8677 20.0339 64.8304 19.7539C64.8024 19.4739 64.751 19.2592 64.6764 19.1099C64.611 18.9606 64.513 18.8439 64.3824 18.7599C64.261 18.6759 64.1397 18.6106 64.0184 18.5639C63.9064 18.5172 63.8317 18.4846 63.7944 18.4659C63.7664 18.4566 63.7197 18.4426 63.6544 18.4239C63.5984 18.4052 63.5704 18.3819 63.5704 18.3539C63.5704 18.2886 63.659 18.2186 63.8364 18.1439C64.0324 18.0786 64.1957 18.0459 64.3264 18.0459C64.541 18.0459 64.7557 18.0879 64.9704 18.1719C65.1944 18.2559 65.367 18.3539 65.4884 18.4659C65.6284 18.5872 65.6984 18.7739 65.6984 19.0259C65.6984 19.1006 65.689 19.1846 65.6704 19.2779C65.6517 19.3712 65.6377 19.4412 65.6284 19.4879C65.6284 19.5252 65.6237 19.5532 65.6144 19.5719C65.7544 19.7306 65.8897 19.8519 66.0204 19.9359C66.263 20.1039 66.487 20.2112 66.6924 20.2579C66.8697 20.2952 67.005 20.3466 67.0984 20.4119C67.1917 20.4679 67.2384 20.5519 67.2384 20.6639C67.2384 20.8039 67.2104 20.9112 67.1544 20.9859C67.0984 21.0512 67.005 21.1119 66.8744 21.1679C66.8184 21.1959 66.6737 21.2519 66.4404 21.3359L65.7964 21.5879C65.6377 21.6439 65.5584 21.7559 65.5584 21.9239V22.4279C65.5584 22.8292 65.563 23.1279 65.5724 23.3239C65.591 23.4919 65.661 23.5759 65.7824 23.5759C65.829 23.5759 65.8804 23.5619 65.9364 23.5339C66.3657 23.3192 66.6877 23.1699 66.9024 23.0859C68.1064 22.6192 69.0817 22.3859 69.8284 22.3859ZM65.7264 20.0339C65.7077 20.0152 65.6937 20.0059 65.6844 20.0059C65.6657 20.0059 65.6424 20.0339 65.6144 20.0899C65.5957 20.1459 65.5817 20.2159 65.5724 20.2999V20.3559C65.5724 20.4679 65.577 20.5612 65.5864 20.6359C65.605 20.7012 65.6237 20.7292 65.6424 20.7199L65.7124 20.6779C65.7404 20.6592 65.7824 20.6312 65.8384 20.5939C65.9037 20.5472 65.9364 20.4959 65.9364 20.4399C65.9364 20.3839 65.9084 20.3139 65.8524 20.2299C65.815 20.1646 65.773 20.0992 65.7264 20.0339ZM71.6624 20.1039C71.961 20.1039 72.2317 20.1692 72.4744 20.2999C72.717 20.4212 72.9037 20.5799 73.0344 20.7759C73.1744 20.9719 73.2444 21.1679 73.2444 21.3639C73.2444 21.5599 73.1884 21.7139 73.0764 21.8259C72.9644 21.9286 72.829 21.9799 72.6704 21.9799C72.465 21.9799 72.3064 21.9006 72.1944 21.7419C71.737 21.1632 71.2984 20.8739 70.8784 20.8739C70.6917 20.8739 70.491 20.9532 70.2764 21.1119C70.1924 21.1586 70.099 21.2239 69.9964 21.3079C69.8937 21.3919 69.8284 21.4339 69.8004 21.4339C69.7444 21.4339 69.7164 21.4059 69.7164 21.3499C69.7164 21.3126 69.7397 21.2612 69.7864 21.1959C70.0944 20.7852 70.3977 20.5006 70.6964 20.3419C70.995 20.1832 71.317 20.1039 71.6624 20.1039ZM64.9004 26.1239C64.919 26.0306 64.9284 25.7506 64.9284 25.2839C64.9284 25.1999 64.9097 25.1346 64.8724 25.0879C64.835 25.0319 64.7884 25.0039 64.7324 25.0039C64.6857 25.0039 64.6297 25.0272 64.5644 25.0739L63.8924 25.5639C63.8084 25.6292 63.7664 25.6992 63.7664 25.7739C63.7664 25.8579 63.8177 25.9279 63.9204 25.9839C64.0884 26.0679 64.2564 26.1472 64.4244 26.2219C64.6017 26.2872 64.709 26.3199 64.7464 26.3199C64.8397 26.3199 64.891 26.2546 64.9004 26.1239Z" fill="#421D12"/>
<path d="M9.6155 30C9.15517 30 8.77083 29.8458 8.4625 29.5375C8.15417 29.2292 8 28.8448 8 28.3845V17.6155C8 17.1552 8.15417 16.7708 8.4625 16.4625C8.77083 16.1542 9.15517 16 9.6155 16H24.3845C24.8448 16 25.2292 16.1542 25.5375 16.4625C25.8458 16.7708 26 17.1552 26 17.6155V28.3845C26 28.8448 25.8458 29.2292 25.5375 29.5375C25.2292 29.8458 24.8448 30 24.3845 30H9.6155ZM17 23.1155L9 17.8845V28.3845C9 28.564 9.05767 28.7115 9.173 28.827C9.2885 28.9423 9.436 29 9.6155 29H24.3845C24.564 29 24.7115 28.9423 24.827 28.827C24.9423 28.7115 25 28.564 25 28.3845V17.8845L17 23.1155ZM17 22L24.6923 17H9.30775L17 22ZM9 17.8845V17V28.3845C9 28.564 9.05767 28.7115 9.173 28.827C9.2885 28.9423 9.436 29 9.6155 29H9V17.8845Z" fill="#421D12"/>
</svg>
