<svg width="65" height="30" viewBox="0 0 65 30" fill="none" xmlns="http://www.w3.org/2000/svg">
<rect x="0.5" y="0.5" width="64" height="29" rx="4.5" fill="white" stroke="#421D12"/>
<path d="M24.3045 13.12C23.6845 13.12 23.1312 12.9767 22.6445 12.69C22.1645 12.3967 21.7912 12.0033 21.5245 11.51C21.2645 11.01 21.1345 10.4667 21.1345 9.88C21.1345 9.19333 21.3079 8.60667 21.6545 8.12C22.0012 7.62667 22.4445 7.25667 22.9845 7.01C23.5312 6.76333 24.0879 6.64 24.6545 6.64C25.2879 6.64 25.8445 6.79 26.3245 7.09C26.8045 7.38333 27.1712 7.77333 27.4245 8.26C27.6845 8.74667 27.8145 9.26333 27.8145 9.81C27.8145 10.4167 27.6545 10.9733 27.3345 11.48C27.0145 11.9867 26.5845 12.3867 26.0445 12.68C25.5112 12.9733 24.9312 13.12 24.3045 13.12ZM24.6545 12.91C25.1079 12.91 25.5145 12.8 25.8745 12.58C26.2412 12.36 26.5279 12.04 26.7345 11.62C26.9479 11.1933 27.0545 10.6833 27.0545 10.09C27.0545 9.46333 26.9379 8.90667 26.7045 8.42C26.4712 7.93333 26.1412 7.55333 25.7145 7.28C25.2945 7.00667 24.8012 6.87 24.2345 6.87C23.5012 6.87 22.9279 7.10667 22.5145 7.58C22.1012 8.05333 21.8945 8.70333 21.8945 9.53C21.8945 10.1567 22.0112 10.73 22.2445 11.25C22.4779 11.7633 22.8045 12.17 23.2245 12.47C23.6445 12.7633 24.1212 12.91 24.6545 12.91ZM30.0008 6.98L30.2308 7V11.91C30.2308 12.2567 30.2908 12.5067 30.4108 12.66C30.5374 12.8067 30.7374 12.88 31.0108 12.88C31.0308 12.88 31.0408 12.9 31.0408 12.94C31.0408 12.98 31.0308 13 31.0108 13C30.8441 13 30.7174 12.9967 30.6308 12.99L30.1308 12.98L29.6208 12.99C29.5274 12.9967 29.3908 13 29.2108 13C29.1974 13 29.1908 12.98 29.1908 12.94C29.1908 12.9 29.1974 12.88 29.2108 12.88C29.4974 12.88 29.7008 12.8067 29.8208 12.66C29.9408 12.5067 30.0008 12.2567 30.0008 11.91V6.98ZM35.0408 13.12C35.0408 13.1333 35.0241 13.1433 34.9908 13.15C34.9574 13.1567 34.9341 13.1533 34.9208 13.14L30.3208 7.57C30.1074 7.31 29.9108 7.13 29.7308 7.03C29.5574 6.92333 29.3841 6.87 29.2108 6.87C29.1908 6.87 29.1808 6.85 29.1808 6.81C29.1808 6.77 29.1908 6.75 29.2108 6.75L29.5808 6.76C29.6608 6.76667 29.7708 6.77 29.9108 6.77C30.0574 6.77 30.1774 6.76667 30.2708 6.76C30.3641 6.75333 30.4374 6.75 30.4908 6.75C30.5374 6.75 30.5741 6.76333 30.6008 6.79C30.6341 6.81 30.6708 6.85667 30.7108 6.93C30.7908 7.05 30.8741 7.16333 30.9608 7.27L34.9608 12.18L35.0408 13.12ZM35.0408 13.12L34.8108 12.81V7.85C34.8108 7.50333 34.7508 7.25333 34.6308 7.1C34.5174 6.94667 34.3241 6.87 34.0508 6.87C34.0374 6.87 34.0308 6.85 34.0308 6.81C34.0308 6.77 34.0374 6.75 34.0508 6.75L34.4408 6.76C34.6408 6.77333 34.8041 6.78 34.9308 6.78C35.0508 6.78 35.2174 6.77333 35.4308 6.76L35.8408 6.75C35.8608 6.75 35.8708 6.77 35.8708 6.81C35.8708 6.85 35.8608 6.87 35.8408 6.87C35.5608 6.87 35.3574 6.94667 35.2308 7.1C35.1041 7.25333 35.0408 7.50333 35.0408 7.85V13.12ZM38.4164 12.15C38.4164 12.3433 38.4364 12.4833 38.4764 12.57C38.5164 12.6567 38.5897 12.7167 38.6964 12.75C38.8031 12.7767 38.9764 12.79 39.2164 12.79H40.3064C40.6864 12.79 40.9897 12.6733 41.2164 12.44C41.4431 12.2067 41.5931 11.8833 41.6664 11.47C41.6664 11.45 41.6831 11.4433 41.7164 11.45C41.7564 11.45 41.7764 11.46 41.7764 11.48C41.7164 12.0333 41.6864 12.49 41.6864 12.85C41.6864 12.9033 41.6764 12.9433 41.6564 12.97C41.6364 12.99 41.5964 13 41.5364 13H36.9164C36.9031 13 36.8964 12.98 36.8964 12.94C36.8964 12.9 36.9031 12.88 36.9164 12.88C37.1697 12.88 37.3531 12.8633 37.4664 12.83C37.5864 12.7967 37.6664 12.7333 37.7064 12.64C37.7464 12.54 37.7664 12.39 37.7664 12.19V7.56C37.7664 7.36 37.7464 7.21333 37.7064 7.12C37.6664 7.02667 37.5864 6.96333 37.4664 6.93C37.3531 6.89 37.1697 6.87 36.9164 6.87C36.9031 6.87 36.8964 6.85 36.8964 6.81C36.8964 6.77 36.9031 6.75 36.9164 6.75L37.4064 6.76C37.6864 6.77333 37.9131 6.78 38.0864 6.78C38.2731 6.78 38.5064 6.77333 38.7864 6.76L39.2664 6.75C39.2864 6.75 39.2964 6.77 39.2964 6.81C39.2964 6.85 39.2864 6.87 39.2664 6.87C39.0197 6.87 38.8364 6.89 38.7164 6.93C38.5964 6.96333 38.5164 7.03 38.4764 7.13C38.4364 7.22333 38.4164 7.37 38.4164 7.57V12.15ZM44.3884 12.19C44.3884 12.3967 44.4084 12.5467 44.4484 12.64C44.4884 12.7333 44.5651 12.7967 44.6784 12.83C44.7984 12.8633 44.9851 12.88 45.2384 12.88C45.2584 12.88 45.2684 12.9 45.2684 12.94C45.2684 12.98 45.2584 13 45.2384 13C45.0384 13 44.8784 12.9967 44.7584 12.99L44.0484 12.98L43.3584 12.99C43.2384 12.9967 43.0751 13 42.8684 13C42.8484 13 42.8384 12.98 42.8384 12.94C42.8384 12.9 42.8484 12.88 42.8684 12.88C43.1218 12.88 43.3051 12.8633 43.4184 12.83C43.5384 12.7967 43.6184 12.7333 43.6584 12.64C43.7051 12.54 43.7284 12.39 43.7284 12.19V7.56C43.7284 7.36 43.7051 7.21333 43.6584 7.12C43.6184 7.02667 43.5384 6.96333 43.4184 6.93C43.3051 6.89 43.1218 6.87 42.8684 6.87C42.8484 6.87 42.8384 6.85 42.8384 6.81C42.8384 6.77 42.8484 6.75 42.8684 6.75L43.3584 6.76C43.6384 6.77333 43.8684 6.78 44.0484 6.78C44.2484 6.78 44.4884 6.77333 44.7684 6.76L45.2384 6.75C45.2584 6.75 45.2684 6.77 45.2684 6.81C45.2684 6.85 45.2584 6.87 45.2384 6.87C44.9918 6.87 44.8084 6.89 44.6884 6.93C44.5684 6.97 44.4884 7.04 44.4484 7.14C44.4084 7.23333 44.3884 7.38 44.3884 7.58V12.19ZM47.4188 6.98L47.6488 7V11.91C47.6488 12.2567 47.7088 12.5067 47.8288 12.66C47.9554 12.8067 48.1554 12.88 48.4288 12.88C48.4488 12.88 48.4588 12.9 48.4588 12.94C48.4588 12.98 48.4488 13 48.4288 13C48.2621 13 48.1354 12.9967 48.0488 12.99L47.5488 12.98L47.0388 12.99C46.9454 12.9967 46.8088 13 46.6288 13C46.6154 13 46.6088 12.98 46.6088 12.94C46.6088 12.9 46.6154 12.88 46.6288 12.88C46.9154 12.88 47.1188 12.8067 47.2388 12.66C47.3588 12.5067 47.4188 12.2567 47.4188 11.91V6.98ZM52.4588 13.12C52.4588 13.1333 52.4421 13.1433 52.4088 13.15C52.3754 13.1567 52.3521 13.1533 52.3388 13.14L47.7388 7.57C47.5254 7.31 47.3288 7.13 47.1488 7.03C46.9754 6.92333 46.8021 6.87 46.6288 6.87C46.6088 6.87 46.5988 6.85 46.5988 6.81C46.5988 6.77 46.6088 6.75 46.6288 6.75L46.9988 6.76C47.0788 6.76667 47.1888 6.77 47.3288 6.77C47.4754 6.77 47.5954 6.76667 47.6887 6.76C47.7821 6.75333 47.8554 6.75 47.9088 6.75C47.9554 6.75 47.9921 6.76333 48.0188 6.79C48.0521 6.81 48.0888 6.85667 48.1288 6.93C48.2088 7.05 48.2921 7.16333 48.3788 7.27L52.3788 12.18L52.4588 13.12ZM52.4588 13.12L52.2288 12.81V7.85C52.2288 7.50333 52.1688 7.25333 52.0488 7.1C51.9354 6.94667 51.7421 6.87 51.4688 6.87C51.4554 6.87 51.4488 6.85 51.4488 6.81C51.4488 6.77 51.4554 6.75 51.4688 6.75L51.8588 6.76C52.0588 6.77333 52.2221 6.78 52.3488 6.78C52.4688 6.78 52.6354 6.77333 52.8488 6.76L53.2588 6.75C53.2788 6.75 53.2888 6.77 53.2888 6.81C53.2888 6.85 53.2788 6.87 53.2588 6.87C52.9788 6.87 52.7754 6.94667 52.6488 7.1C52.5221 7.25333 52.4588 7.50333 52.4588 7.85V13.12ZM54.4144 13C54.401 13 54.3944 12.98 54.3944 12.94C54.3944 12.9 54.401 12.88 54.4144 12.88C54.6677 12.88 54.851 12.8633 54.9644 12.83C55.0844 12.7967 55.1644 12.7333 55.2044 12.64C55.251 12.54 55.2744 12.39 55.2744 12.19V7.56C55.2744 7.36 55.251 7.21333 55.2044 7.12C55.1644 7.02667 55.0844 6.96333 54.9644 6.93C54.851 6.89 54.6677 6.87 54.4144 6.87C54.401 6.87 54.3944 6.85 54.3944 6.81C54.3944 6.77 54.401 6.75 54.4144 6.75H58.4344C58.4944 6.75 58.5244 6.78 58.5244 6.84L58.5444 8.07C58.5444 8.09 58.5244 8.10333 58.4844 8.11C58.451 8.11 58.4344 8.1 58.4344 8.08C58.4144 7.72667 58.3077 7.45333 58.1144 7.26C57.921 7.06 57.6644 6.96 57.3444 6.96H56.7344C56.501 6.96 56.3277 6.98 56.2144 7.02C56.101 7.05333 56.021 7.11333 55.9744 7.2C55.9344 7.28667 55.9144 7.42333 55.9144 7.61V12.15C55.9144 12.33 55.9344 12.4667 55.9744 12.56C56.021 12.6467 56.0977 12.7067 56.2044 12.74C56.311 12.7733 56.4777 12.79 56.7044 12.79H57.5044C57.8244 12.79 58.091 12.6767 58.3044 12.45C58.5177 12.2233 58.661 11.91 58.7344 11.51C58.7344 11.4967 58.7477 11.49 58.7744 11.49C58.7944 11.49 58.811 11.4967 58.8244 11.51C58.8444 11.5167 58.8544 11.5233 58.8544 11.53C58.7944 11.95 58.7644 12.39 58.7644 12.85C58.7644 12.9033 58.751 12.9433 58.7244 12.97C58.7044 12.99 58.6644 13 58.6044 13H54.4144ZM58.0444 10.67C58.0444 10.3767 57.971 10.1667 57.8244 10.04C57.6844 9.91333 57.4477 9.85 57.1144 9.85H55.6144V9.64H57.1444C57.4644 9.64 57.691 9.58667 57.8244 9.48C57.9644 9.37333 58.0344 9.19333 58.0344 8.94C58.0344 8.92667 58.0544 8.92 58.0944 8.92C58.1344 8.92 58.1544 8.92667 58.1544 8.94L58.1444 9.75C58.1444 9.94333 58.1477 10.09 58.1544 10.19L58.1644 10.67C58.1644 10.6833 58.1444 10.69 58.1044 10.69C58.0644 10.69 58.0444 10.6833 58.0444 10.67ZM27.907 17.92C27.907 18.18 27.9704 18.4067 28.097 18.6C28.2237 18.7933 28.377 18.9567 28.557 19.09C28.737 19.2167 28.9904 19.38 29.317 19.58C29.6637 19.7867 29.9337 19.96 30.127 20.1C30.3204 20.24 30.4837 20.42 30.617 20.64C30.757 20.8533 30.827 21.11 30.827 21.41C30.827 21.73 30.747 22.02 30.587 22.28C30.427 22.54 30.1904 22.7467 29.877 22.9C29.5704 23.0467 29.2004 23.12 28.767 23.12C28.2537 23.12 27.7837 23.0033 27.357 22.77C27.3237 22.75 27.3004 22.7267 27.287 22.7C27.2804 22.6733 27.2737 22.6333 27.267 22.58L27.137 21.22C27.1304 21.1933 27.1437 21.1767 27.177 21.17C27.217 21.1633 27.2404 21.1733 27.247 21.2C27.347 21.6733 27.5437 22.0867 27.837 22.44C28.1304 22.7867 28.517 22.96 28.997 22.96C29.3304 22.96 29.6104 22.87 29.837 22.69C30.0704 22.5033 30.187 22.21 30.187 21.81C30.187 21.51 30.1204 21.25 29.987 21.03C29.8537 20.81 29.6904 20.63 29.497 20.49C29.3104 20.3433 29.0537 20.1733 28.727 19.98C28.407 19.7867 28.1537 19.62 27.967 19.48C27.787 19.34 27.6337 19.1633 27.507 18.95C27.3804 18.7367 27.317 18.4867 27.317 18.2C27.317 17.8667 27.4037 17.5833 27.577 17.35C27.757 17.11 27.987 16.9333 28.267 16.82C28.5537 16.7 28.857 16.64 29.177 16.64C29.5704 16.64 29.9604 16.72 30.347 16.88C30.447 16.9133 30.497 16.97 30.497 17.05L30.567 18.19C30.567 18.2233 30.547 18.24 30.507 18.24C30.4737 18.24 30.4537 18.2267 30.447 18.2C30.4004 17.8533 30.2604 17.5333 30.027 17.24C29.7937 16.94 29.457 16.79 29.017 16.79C28.6437 16.79 28.3637 16.9 28.177 17.12C27.997 17.3333 27.907 17.6 27.907 17.92ZM37.5791 17.58C37.5791 17.38 37.5558 17.2333 37.5091 17.14C37.4691 17.04 37.3891 16.97 37.2691 16.93C37.1491 16.89 36.9591 16.87 36.6991 16.87C36.6791 16.87 36.6691 16.85 36.6691 16.81C36.6691 16.77 36.6791 16.75 36.6991 16.75L37.1791 16.76C37.4725 16.7733 37.7158 16.78 37.9091 16.78C38.0891 16.78 38.3191 16.7733 38.5991 16.76L39.0891 16.75C39.1091 16.75 39.1191 16.77 39.1191 16.81C39.1191 16.85 39.1091 16.87 39.0891 16.87C38.8358 16.87 38.6491 16.89 38.5291 16.93C38.4091 16.9633 38.3258 17.0267 38.2791 17.12C38.2391 17.2133 38.2191 17.36 38.2191 17.56V22.19C38.2191 22.39 38.2391 22.54 38.2791 22.64C38.3258 22.7333 38.4091 22.7967 38.5291 22.83C38.6491 22.8633 38.8358 22.88 39.0891 22.88C39.1091 22.88 39.1191 22.9 39.1191 22.94C39.1191 22.98 39.1091 23 39.0891 23C38.8825 23 38.7191 22.9967 38.5991 22.99L37.9091 22.98L37.1791 22.99C37.0591 22.9967 36.8991 23 36.6991 23C36.6791 23 36.6691 22.98 36.6691 22.94C36.6691 22.9 36.6791 22.88 36.6991 22.88C36.9591 22.88 37.1491 22.8633 37.2691 22.83C37.3891 22.7967 37.4691 22.7333 37.5091 22.64C37.5558 22.54 37.5791 22.39 37.5791 22.19V17.58ZM33.3891 19.64H37.8591V19.85H33.3891V19.64ZM33.0991 17.56C33.0991 17.36 33.0758 17.2133 33.0291 17.12C32.9891 17.0267 32.9091 16.9633 32.7891 16.93C32.6691 16.89 32.4825 16.87 32.2291 16.87C32.2158 16.87 32.2091 16.85 32.2091 16.81C32.2091 16.77 32.2158 16.75 32.2291 16.75L32.7391 16.76C33.0191 16.7733 33.2425 16.78 33.4091 16.78C33.6025 16.78 33.8458 16.7733 34.1391 16.76L34.6191 16.75C34.6325 16.75 34.6391 16.77 34.6391 16.81C34.6391 16.85 34.6325 16.87 34.6191 16.87C34.3658 16.87 34.1758 16.89 34.0491 16.93C33.9291 16.97 33.8458 17.04 33.7991 17.14C33.7591 17.2333 33.7391 17.38 33.7391 17.58V22.19C33.7391 22.39 33.7591 22.54 33.7991 22.64C33.8458 22.7333 33.9291 22.7967 34.0491 22.83C34.1691 22.8633 34.3591 22.88 34.6191 22.88C34.6325 22.88 34.6391 22.9 34.6391 22.94C34.6391 22.98 34.6325 23 34.6191 23C34.4125 23 34.2491 22.9967 34.1291 22.99L33.4091 22.98L32.7191 22.99C32.5991 22.9967 32.4325 23 32.2191 23C32.2058 23 32.1991 22.98 32.1991 22.94C32.1991 22.9 32.2058 22.88 32.2191 22.88C32.4725 22.88 32.6591 22.8633 32.7791 22.83C32.9058 22.7967 32.9891 22.7333 33.0291 22.64C33.0758 22.54 33.0991 22.39 33.0991 22.19V17.56ZM43.617 23.12C42.997 23.12 42.4437 22.9767 41.957 22.69C41.477 22.3967 41.1037 22.0033 40.837 21.51C40.577 21.01 40.447 20.4667 40.447 19.88C40.447 19.1933 40.6204 18.6067 40.967 18.12C41.3137 17.6267 41.757 17.2567 42.297 17.01C42.8437 16.7633 43.4004 16.64 43.967 16.64C44.6004 16.64 45.157 16.79 45.637 17.09C46.117 17.3833 46.4837 17.7733 46.737 18.26C46.997 18.7467 47.127 19.2633 47.127 19.81C47.127 20.4167 46.967 20.9733 46.647 21.48C46.327 21.9867 45.897 22.3867 45.357 22.68C44.8237 22.9733 44.2437 23.12 43.617 23.12ZM43.967 22.91C44.4204 22.91 44.827 22.8 45.187 22.58C45.5537 22.36 45.8404 22.04 46.047 21.62C46.2604 21.1933 46.367 20.6833 46.367 20.09C46.367 19.4633 46.2504 18.9067 46.017 18.42C45.7837 17.9333 45.4537 17.5533 45.027 17.28C44.607 17.0067 44.1137 16.87 43.547 16.87C42.8137 16.87 42.2404 17.1067 41.827 17.58C41.4137 18.0533 41.207 18.7033 41.207 19.53C41.207 20.1567 41.3237 20.73 41.557 21.25C41.7904 21.7633 42.117 22.17 42.537 22.47C42.957 22.7633 43.4337 22.91 43.967 22.91ZM50.0333 22.15C50.0333 22.3633 50.0599 22.52 50.1133 22.62C50.1733 22.7133 50.2833 22.78 50.4433 22.82C50.6099 22.86 50.8699 22.88 51.2233 22.88C51.2433 22.88 51.2533 22.9 51.2533 22.94C51.2533 22.98 51.2433 23 51.2233 23C50.9499 23 50.7366 22.9967 50.5833 22.99L49.7133 22.98L49.0433 22.99C48.9166 22.9967 48.7466 23 48.5333 23C48.5199 23 48.5133 22.98 48.5133 22.94C48.5133 22.9 48.5199 22.88 48.5333 22.88C48.7866 22.88 48.9699 22.8633 49.0833 22.83C49.2033 22.7967 49.2833 22.7333 49.3233 22.64C49.3633 22.54 49.3833 22.39 49.3833 22.19V17.56C49.3833 17.36 49.3633 17.2133 49.3233 17.12C49.2833 17.0267 49.2033 16.9633 49.0833 16.93C48.9699 16.89 48.7866 16.87 48.5333 16.87C48.5199 16.87 48.5133 16.85 48.5133 16.81C48.5133 16.77 48.5199 16.75 48.5333 16.75L49.0333 16.76C49.3133 16.7733 49.5366 16.78 49.7033 16.78C49.8699 16.78 50.0566 16.77 50.2633 16.75C50.3433 16.75 50.4699 16.7467 50.6433 16.74C50.8166 16.7267 50.9666 16.72 51.0933 16.72C51.7066 16.72 52.1966 16.8567 52.5633 17.13C52.9366 17.4033 53.1233 17.82 53.1233 18.38C53.1233 18.82 53.0133 19.19 52.7933 19.49C52.5799 19.79 52.3033 20.0133 51.9633 20.16C51.6233 20.3067 51.2733 20.38 50.9133 20.38C50.7199 20.38 50.5599 20.3633 50.4333 20.33C50.4133 20.33 50.4033 20.3133 50.4033 20.28C50.4033 20.26 50.4066 20.24 50.4133 20.22C50.4266 20.2 50.4399 20.1933 50.4533 20.2C50.5599 20.2267 50.6799 20.24 50.8133 20.24C51.2533 20.24 51.6233 20.0967 51.9233 19.81C52.2299 19.5233 52.3833 19.11 52.3833 18.57C52.3833 18.0433 52.2399 17.63 51.9533 17.33C51.6666 17.0233 51.2999 16.87 50.8533 16.87C50.6133 16.87 50.4399 16.8833 50.3333 16.91C50.2266 16.9367 50.1499 17 50.1033 17.1C50.0566 17.1933 50.0333 17.3533 50.0333 17.58V22.15Z" fill="#421D12"/>
<g clip-path="url(#clip0_2908_42460)">
<path d="M7.27734 12.8799H15.6423L15.0473 15.7645L10.194 17.0449" stroke="#421D12" stroke-width="1.08544" stroke-linecap="round" stroke-linejoin="round"/>
<path d="M5.14453 9.88379H6.40161L8.1137 16.8809L7.4487 18.2605" stroke="#421D12" stroke-width="1.08544" stroke-linecap="round" stroke-linejoin="round"/>
<path d="M6.40104 20.2435C7.04537 20.2435 7.56771 19.7212 7.56771 19.0768C7.56771 18.4325 7.04537 17.9102 6.40104 17.9102C5.75671 17.9102 5.23438 18.4325 5.23438 19.0768C5.23438 19.7212 5.75671 20.2435 6.40104 20.2435Z" stroke="#421D12" stroke-width="1.08544" stroke-linecap="round" stroke-linejoin="round"/>
<path d="M14.569 20.2445C15.2133 20.2445 15.7357 19.7221 15.7357 19.0778C15.7357 18.4335 15.2133 17.9111 14.569 17.9111C13.9247 17.9111 13.4023 18.4335 13.4023 19.0778C13.4023 19.7221 13.9247 20.2445 14.569 20.2445Z" stroke="#421D12" stroke-width="1.08544" stroke-linecap="round" stroke-linejoin="round"/>
</g>
<defs>
<clipPath id="clip0_2908_42460">
<rect width="14" height="14" fill="white" transform="translate(3 8)"/>
</clipPath>
</defs>
</svg>
