<svg width="205" height="45" viewBox="0 0 205 45" fill="none" xmlns="http://www.w3.org/2000/svg">
<path d="M0 3C0 1.34315 1.34315 0 3 0H202C203.657 0 205 1.34315 205 3V42C205 43.6569 203.657 45 202 45H3C1.34314 45 0 43.6569 0 42V3Z" fill="#D9D9D9"/>
<path d="M137.602 15.274C138.124 15.274 138.624 15.3767 139.1 15.582C139.576 15.778 139.963 16.0814 140.262 16.492C140.57 16.9027 140.724 17.402 140.724 17.99C140.724 18.5967 140.546 19.1334 140.192 19.6C139.837 20.0574 139.375 20.412 138.806 20.664C138.236 20.9067 137.644 21.028 137.028 21.028C136.486 21.028 136.015 20.9067 135.614 20.664C135.212 20.4214 135.012 20.104 135.012 19.712C135.012 19.3947 135.138 19.1287 135.39 18.914C135.651 18.6994 135.973 18.592 136.356 18.592C136.692 18.592 137.014 18.69 137.322 18.886C137.63 19.082 137.877 19.3574 138.064 19.712C138.138 19.8334 138.218 19.894 138.302 19.894C138.358 19.894 138.409 19.8754 138.456 19.838C138.82 19.6047 139.114 19.3107 139.338 18.956C139.562 18.6014 139.674 18.2187 139.674 17.808C139.674 17.0987 139.45 16.5714 139.002 16.226C138.554 15.8807 138.026 15.708 137.42 15.708C136.832 15.708 136.281 15.8854 135.768 16.24C135.264 16.5854 134.769 17.1827 134.284 18.032C134.246 18.0974 134.172 18.2327 134.06 18.438C133.948 18.6434 133.836 18.788 133.724 18.872C133.621 18.956 133.504 18.998 133.374 18.998C133.196 18.998 133.056 18.942 132.954 18.83C132.851 18.718 132.8 18.5827 132.8 18.424C132.8 18.1347 132.902 17.836 133.108 17.528C133.313 17.22 133.663 16.7814 134.158 16.212C135.67 14.476 136.752 13.1834 137.406 12.334C137.452 12.2687 137.508 12.194 137.574 12.11C137.648 12.026 137.7 11.9514 137.728 11.886C137.765 11.8207 137.784 11.76 137.784 11.704C137.784 11.6107 137.746 11.522 137.672 11.438C137.597 11.3447 137.522 11.298 137.448 11.298C137.336 11.298 137.214 11.382 137.084 11.55C136.794 11.9327 136.486 12.25 136.16 12.502C135.833 12.7447 135.511 12.866 135.194 12.866C134.932 12.866 134.713 12.768 134.536 12.572C134.368 12.3667 134.256 12.0587 134.2 11.648L134.186 11.396C134.186 11.312 134.204 11.27 134.242 11.27C134.27 11.27 134.34 11.34 134.452 11.48C134.582 11.648 134.732 11.732 134.9 11.732C135.068 11.732 135.32 11.662 135.656 11.522C136.001 11.3727 136.379 11.1767 136.79 10.934C137.032 10.7754 137.252 10.696 137.448 10.696C137.625 10.696 137.844 10.7474 138.106 10.85C138.376 10.9527 138.61 11.0927 138.806 11.27C139.002 11.438 139.1 11.6247 139.1 11.83C139.1 12.1007 138.932 12.362 138.596 12.614C137.485 13.4727 136.542 14.3734 135.768 15.316C135.712 15.372 135.684 15.428 135.684 15.484C135.684 15.5307 135.698 15.568 135.726 15.596C135.763 15.624 135.81 15.638 135.866 15.638C135.912 15.638 135.964 15.624 136.02 15.596C136.57 15.3814 137.098 15.274 137.602 15.274ZM136.958 20.314C137.042 20.2674 137.102 20.216 137.14 20.16C137.186 20.0947 137.196 20.0294 137.168 19.964C136.934 19.488 136.603 19.25 136.174 19.25C136.006 19.25 135.88 19.292 135.796 19.376C135.712 19.4507 135.67 19.544 135.67 19.656C135.67 19.8334 135.805 19.9874 136.076 20.118C136.356 20.2487 136.65 20.314 136.958 20.314Z" fill="#421D12"/>
<path d="M127.872 12.2079C127.956 12.2733 128.008 12.3526 128.026 12.4459C128.036 12.4646 128.04 12.5019 128.04 12.5579C128.04 12.6699 128.012 12.7633 127.956 12.8379C127.91 12.9126 127.83 12.9919 127.718 13.0759C127.476 13.2439 127.037 13.4586 126.402 13.7199C126.244 13.7946 126.169 13.9113 126.178 14.0699L126.206 14.5179C126.216 14.7233 126.23 15.0406 126.248 15.4699C126.267 15.8993 126.276 16.2446 126.276 16.5059C126.276 17.5793 126.015 18.5499 125.492 19.4179C125.156 19.9779 124.727 20.4399 124.204 20.8039C123.691 21.1586 123.229 21.4153 122.818 21.5739L122.692 21.6019C122.627 21.6019 122.594 21.5739 122.594 21.5179C122.594 21.4806 122.646 21.4339 122.748 21.3779C123.439 21.0326 123.985 20.4866 124.386 19.7399C124.788 18.9839 125.058 18.1206 125.198 17.1499C125.254 16.7206 125.282 16.1373 125.282 15.3999L125.268 14.4759C125.25 14.2613 125.138 14.1726 124.932 14.2099C124.718 14.2566 124.545 14.2799 124.414 14.2799C124.078 14.2799 123.728 14.1959 123.364 14.0279C123.01 13.8506 122.734 13.6546 122.538 13.4399C122.482 13.3653 122.454 13.3093 122.454 13.2719C122.454 13.2346 122.473 13.2159 122.51 13.2159C122.538 13.2159 122.58 13.2299 122.636 13.2579C122.786 13.3139 122.972 13.3653 123.196 13.4119C123.42 13.4493 123.607 13.4679 123.756 13.4679C124.008 13.4679 124.41 13.3886 124.96 13.2299C125.128 13.1833 125.208 13.0713 125.198 12.8939L125.17 12.4319C125.142 11.7879 125.114 11.3819 125.086 11.2139C125.058 10.9899 124.979 10.8033 124.848 10.6539C124.718 10.4953 124.587 10.3879 124.456 10.3319C124.326 10.2666 124.26 10.2106 124.26 10.1639C124.26 10.1173 124.307 10.0846 124.4 10.0659C124.494 10.0379 124.601 10.0239 124.722 10.0239C125.105 10.0239 125.474 10.0986 125.828 10.2479C126.192 10.3973 126.374 10.6026 126.374 10.8639C126.374 10.9293 126.346 11.0646 126.29 11.2699L126.248 11.4099V11.4939C126.248 11.6246 126.309 11.7226 126.43 11.7879C126.682 11.9093 126.892 11.9886 127.06 12.0259C127.154 12.0539 127.256 12.0679 127.368 12.0679C127.387 12.0679 127.457 12.0773 127.578 12.0959C127.7 12.1146 127.798 12.1519 127.872 12.2079ZM121.502 14.5459C121.549 14.5459 121.572 14.5739 121.572 14.6299C121.572 14.6673 121.526 14.7886 121.432 14.9939C121.106 15.7406 120.816 16.5246 120.564 17.3459C120.322 18.1579 120.2 18.7179 120.2 19.0259C120.2 19.2033 120.219 19.3666 120.256 19.5159C120.303 19.6653 120.364 19.8333 120.438 20.0199C120.55 20.2719 120.606 20.4679 120.606 20.6079C120.606 20.7666 120.55 20.8926 120.438 20.9859C120.336 21.0699 120.228 21.1119 120.116 21.1119C119.958 21.1119 119.776 20.9906 119.57 20.7479C119.16 20.2719 118.87 19.6466 118.702 18.8719C118.534 18.0879 118.45 17.3646 118.45 16.7019C118.45 16.2539 118.478 15.8386 118.534 15.4559C118.59 15.0733 118.674 14.6486 118.786 14.1819C118.87 13.7899 118.936 13.4539 118.982 13.1739C119.029 12.8846 119.052 12.5906 119.052 12.2919C119.052 11.9373 119.006 11.6106 118.912 11.3119C118.819 11.0133 118.688 10.7753 118.52 10.5979C118.446 10.5233 118.408 10.4673 118.408 10.4299C118.408 10.3739 118.441 10.3459 118.506 10.3459C118.534 10.3459 118.614 10.3739 118.744 10.4299C119.155 10.6259 119.496 10.9106 119.766 11.2839C120.037 11.6573 120.172 12.0493 120.172 12.4599C120.172 12.7399 120.14 12.9966 120.074 13.2299C120.009 13.4633 119.902 13.7759 119.752 14.1679C119.575 14.6066 119.44 15.0033 119.346 15.3579C119.253 15.7033 119.206 16.1046 119.206 16.5619C119.206 16.8513 119.234 17.1546 119.29 17.4719C119.346 17.7799 119.421 17.9339 119.514 17.9339C119.561 17.9339 119.608 17.8919 119.654 17.8079C119.71 17.7239 119.743 17.6726 119.752 17.6539L120.06 17.0659C120.704 15.8713 121.082 15.1526 121.194 14.9099C121.325 14.6673 121.428 14.5459 121.502 14.5459ZM126.78 12.5439C126.827 12.5159 126.85 12.4786 126.85 12.4319C126.85 12.3573 126.799 12.2966 126.696 12.2499L126.514 12.1379C126.449 12.1006 126.388 12.0819 126.332 12.0819C126.22 12.0819 126.155 12.1613 126.136 12.3199C126.127 12.4039 126.122 12.5346 126.122 12.7119C126.122 12.7493 126.15 12.7679 126.206 12.7679C126.3 12.7679 126.412 12.7353 126.542 12.6699L126.78 12.5439Z" fill="#421D12"/>
<path d="M109.07 13.3139C110.19 13.3139 110.75 14.0559 110.75 15.5399C110.75 15.9132 110.694 16.4126 110.582 17.0379C110.479 17.6632 110.316 18.2792 110.092 18.8859C109.868 19.4926 109.597 19.9592 109.28 20.2859C109.121 20.4539 108.949 20.5939 108.762 20.7059C108.585 20.8086 108.431 20.8599 108.3 20.8599C108.029 20.8599 107.815 20.6359 107.656 20.1879C107.535 19.8332 107.306 19.4366 106.97 18.9979C106.877 18.8672 106.83 18.7832 106.83 18.7459C106.83 18.7272 106.844 18.7179 106.872 18.7179C106.909 18.7179 106.998 18.7646 107.138 18.8579C107.278 18.9419 107.385 19.0026 107.46 19.0399C107.525 19.0772 107.614 19.1332 107.726 19.2079C107.847 19.2826 107.95 19.3386 108.034 19.3759C108.118 19.4132 108.197 19.4319 108.272 19.4319C108.58 19.4319 108.855 19.1752 109.098 18.6619C109.35 18.1486 109.541 17.5559 109.672 16.8839C109.812 16.2026 109.882 15.6519 109.882 15.2319C109.882 14.7839 109.817 14.4479 109.686 14.2239C109.555 13.9906 109.341 13.8739 109.042 13.8739C108.687 13.8739 108.211 14.0092 107.614 14.2799C107.483 14.3452 107.399 14.4479 107.362 14.5879C106.923 16.5012 106.247 18.1952 105.332 19.6699C105.201 19.8939 105.057 20.0712 104.898 20.2019C104.739 20.3326 104.59 20.3979 104.45 20.3979C104.319 20.3979 104.212 20.3559 104.128 20.2719C104.044 20.1786 104.002 20.0572 104.002 19.9079C104.002 19.6092 104.175 19.2406 104.52 18.8019C105.369 17.6726 105.985 16.5012 106.368 15.2879C106.387 15.2319 106.396 15.1899 106.396 15.1619C106.396 15.0406 106.335 14.9799 106.214 14.9799C106.177 14.9799 106.121 14.9939 106.046 15.0219C105.449 15.3112 105.038 15.4559 104.814 15.4559C104.618 15.4559 104.417 15.3906 104.212 15.2599C104.007 15.1199 103.834 14.9472 103.694 14.7419C103.563 14.5366 103.498 14.3312 103.498 14.1259C103.498 14.0326 103.521 13.9859 103.568 13.9859C103.605 13.9859 103.661 14.0092 103.736 14.0559C103.811 14.0932 103.867 14.1212 103.904 14.1399C104.165 14.2612 104.455 14.3219 104.772 14.3219C105.351 14.2939 105.925 14.1819 106.494 13.9859C106.643 13.9299 106.732 13.8272 106.76 13.6779C106.853 13.1739 106.9 12.7539 106.9 12.4179C106.9 11.9326 106.802 11.5732 106.606 11.3399C106.522 11.2279 106.415 11.1159 106.284 11.0039C106.163 10.8919 106.102 10.8172 106.102 10.7799C106.102 10.7239 106.149 10.6819 106.242 10.6539C106.335 10.6166 106.457 10.5979 106.606 10.5979C106.783 10.5979 106.97 10.6212 107.166 10.6679C107.362 10.7146 107.511 10.7799 107.614 10.8639C107.857 11.0132 107.978 11.2186 107.978 11.4799C107.978 11.5919 107.941 11.8066 107.866 12.1239C107.81 12.2919 107.768 12.4692 107.74 12.6559L107.656 13.2159L107.642 13.3139C107.642 13.3886 107.665 13.4446 107.712 13.4819C107.759 13.5099 107.824 13.5146 107.908 13.4959C108.337 13.3746 108.725 13.3139 109.07 13.3139ZM111.982 13.2719C112.747 13.2906 113.373 13.4306 113.858 13.6919C114.353 13.9532 114.712 14.2612 114.936 14.6159C115.16 14.9612 115.272 15.2879 115.272 15.5959C115.272 15.8292 115.221 16.0392 115.118 16.2259C115.025 16.4032 114.903 16.5432 114.754 16.6459C114.605 16.7486 114.46 16.7999 114.32 16.7999C114.236 16.7999 114.157 16.7812 114.082 16.7439C114.007 16.6972 113.914 16.6366 113.802 16.5619C113.559 16.3752 113.074 16.2399 112.346 16.1559C112.215 16.1372 112.15 16.1092 112.15 16.0719C112.15 16.0346 112.22 16.0066 112.36 15.9879L112.962 15.9179L113.298 15.8759C113.578 15.8199 113.765 15.7639 113.858 15.7079C113.961 15.6519 114.012 15.5492 114.012 15.3999C114.012 14.9612 113.802 14.5599 113.382 14.1959C112.962 13.8226 112.481 13.5612 111.94 13.4119C111.856 13.3839 111.814 13.3559 111.814 13.3279C111.814 13.2906 111.87 13.2719 111.982 13.2719Z" fill="#421D12"/>
<path d="M98.6256 12.95C98.9616 12.95 99.2556 13.0573 99.5076 13.272C99.7596 13.4867 99.8856 13.7667 99.8856 14.112C99.8856 14.56 99.6896 14.938 99.2976 15.246C98.9149 15.5447 98.4062 15.8247 97.7716 16.086L97.1276 16.324C96.0729 16.7253 95.5829 16.912 95.6576 16.884C95.4989 16.9587 95.4196 17.0707 95.4196 17.22C95.4009 17.416 95.4009 17.6167 95.4196 17.822C95.4196 17.906 95.4196 18.074 95.4196 18.326C95.4289 18.578 95.4289 18.7413 95.4196 18.816C95.4102 18.984 95.3449 19.1333 95.2236 19.264C95.1116 19.3947 94.9809 19.46 94.8316 19.46C94.6916 19.46 94.5656 19.3993 94.4536 19.278C94.3509 19.1567 94.2996 19.0167 94.2996 18.858C94.2996 18.8207 94.3182 18.606 94.3556 18.214C94.3556 18.158 94.3649 18.0553 94.3836 17.906V17.85C94.3836 17.7007 94.3229 17.626 94.2016 17.626C94.1362 17.626 94.0802 17.6447 94.0336 17.682C93.1749 18.2047 92.7456 18.7647 92.7456 19.362C92.7456 20.0433 93.4129 20.384 94.7476 20.384C95.0182 20.384 95.2609 20.3653 95.4756 20.328C95.6996 20.2907 95.9422 20.2393 96.2036 20.174C96.2502 20.1647 96.3669 20.1413 96.5536 20.104C96.7402 20.0573 96.9176 20.034 97.0856 20.034C97.2909 20.034 97.4496 20.076 97.5616 20.16C97.6736 20.244 97.7296 20.3607 97.7296 20.51C97.7296 20.8273 97.4589 21.0513 96.9176 21.182C96.3856 21.3127 95.8116 21.378 95.1956 21.378C94.1129 21.378 93.3429 21.21 92.8856 20.874C92.4376 20.5287 92.2136 20.0853 92.2136 19.544C92.2136 19.0587 92.3909 18.62 92.7456 18.228C93.1002 17.836 93.6042 17.458 94.2576 17.094C94.3976 17.01 94.4676 16.898 94.4676 16.758V16.548C94.4676 16.0533 94.3882 15.68 94.2296 15.428C94.0709 15.176 93.8842 15.05 93.6696 15.05C93.3709 15.05 93.0722 15.218 92.7736 15.554C92.4842 15.8807 92.1716 16.296 91.8356 16.8L91.6816 17.038C91.6536 17.0753 91.5836 17.178 91.4716 17.346C91.3596 17.514 91.2522 17.6447 91.1496 17.738C91.0469 17.8313 90.9536 17.878 90.8696 17.878C90.6922 17.878 90.5522 17.808 90.4496 17.668C90.3562 17.528 90.3096 17.3553 90.3096 17.15C90.3096 16.8793 90.4262 16.632 90.6596 16.408L90.8696 16.212C91.1309 15.9693 91.3549 15.75 91.5416 15.554C91.7376 15.3487 91.9196 15.12 92.0876 14.868C92.4796 14.2613 92.8062 13.594 93.0676 12.866C93.0862 12.81 93.0956 12.768 93.0956 12.74C93.0956 12.6747 93.0676 12.628 93.0116 12.6C92.9649 12.5627 92.8949 12.5487 92.8016 12.558C92.5029 12.5953 92.2836 12.614 92.1436 12.614C91.8262 12.614 91.5509 12.5533 91.3176 12.432C91.0936 12.3013 90.8229 12.096 90.5056 11.816C90.4682 11.7787 90.4496 11.746 90.4496 11.718C90.4496 11.69 90.4729 11.676 90.5196 11.676C90.5569 11.676 90.6222 11.69 90.7156 11.718C91.0516 11.8393 91.3922 11.9 91.7376 11.9C92.1949 11.9 92.6849 11.8253 93.2076 11.676C93.3569 11.6387 93.4456 11.536 93.4736 11.368C93.5016 11.2 93.5156 11.0507 93.5156 10.92C93.5156 10.528 93.3662 10.2293 93.0676 10.024C92.9929 9.97734 92.9556 9.93067 92.9556 9.884C92.9649 9.8 92.9929 9.73467 93.0396 9.688C93.0862 9.632 93.1516 9.604 93.2356 9.604C93.3662 9.604 93.5482 9.632 93.7816 9.688C94.0242 9.744 94.1829 9.814 94.2576 9.898C94.3229 9.97267 94.3556 10.0893 94.3556 10.248V10.276C94.3556 10.3413 94.3696 10.4113 94.3976 10.486C94.4349 10.5513 94.4909 10.598 94.5656 10.626C94.6869 10.654 94.8082 10.668 94.9296 10.668C95.0509 10.668 95.1536 10.654 95.2376 10.626C95.3496 10.6073 95.4476 10.598 95.5316 10.598C95.7556 10.598 95.8676 10.6867 95.8676 10.864C95.8676 11.0227 95.7882 11.186 95.6296 11.354C95.4802 11.522 95.2842 11.676 95.0416 11.816C94.7896 11.956 94.4629 12.096 94.0616 12.236C93.9216 12.292 93.8282 12.3853 93.7816 12.516C93.5669 13.1787 93.3242 13.7993 93.0536 14.378C93.0256 14.4433 93.0116 14.504 93.0116 14.56C93.0116 14.6347 93.0489 14.672 93.1236 14.672L93.2356 14.644C93.4036 14.6067 93.5296 14.588 93.6136 14.588C94.3602 14.588 94.8596 14.9287 95.1116 15.61C95.1582 15.7127 95.1956 15.764 95.2236 15.764C95.2702 15.764 95.3122 15.7173 95.3496 15.624C95.5829 15.1013 95.9282 14.588 96.3856 14.084C96.6656 13.7853 97.0062 13.524 97.4076 13.3C97.8182 13.0667 98.2242 12.95 98.6256 12.95ZM94.3416 10.836C94.3042 10.836 94.2622 10.9107 94.2156 11.06C94.2156 11.2 94.2436 11.256 94.2996 11.228L94.4536 11.13C94.5189 11.0927 94.5516 11.0553 94.5516 11.018C94.5516 10.9807 94.5142 10.9387 94.4396 10.892L94.3696 10.836H94.3416ZM97.4496 15.428C97.8789 15.176 98.2196 14.9053 98.4716 14.616C98.7329 14.3173 98.8636 14.0607 98.8636 13.846C98.8636 13.5567 98.6816 13.412 98.3176 13.412C98.0749 13.412 97.7996 13.496 97.4916 13.664C97.1836 13.8227 96.8942 14.0467 96.6236 14.336C96.4369 14.5413 96.2549 14.7887 96.0776 15.078C95.9096 15.3673 95.7696 15.6613 95.6576 15.96C95.6202 16.044 95.6016 16.1327 95.6016 16.226C95.6016 16.2727 95.6109 16.31 95.6296 16.338C95.6482 16.366 95.6669 16.3707 95.6856 16.352L95.9936 16.198C96.5816 15.9087 97.0669 15.652 97.4496 15.428Z" fill="#421D12"/>
<path d="M84.8642 16.6881C85.0135 16.6881 85.1302 16.6274 85.2142 16.5061L85.3402 16.3381C85.3682 16.3007 85.4055 16.2494 85.4522 16.1841C85.5082 16.1187 85.5548 16.0721 85.5922 16.0441C85.6295 16.0067 85.6668 15.9881 85.7042 15.9881C85.7695 15.9881 85.9235 16.0861 86.1662 16.2821C86.4182 16.4781 86.6095 16.6554 86.7402 16.8141C86.7775 16.8607 86.7962 16.9121 86.7962 16.9681C86.7962 17.0334 86.7495 17.0987 86.6562 17.1641L86.5302 17.2341C86.4462 17.2714 86.3808 17.3134 86.3342 17.3601C86.2968 17.4067 86.2782 17.4721 86.2782 17.5561V18.7461C86.3062 19.9034 86.3342 20.7621 86.3622 21.3221V21.3781C86.3622 21.5087 86.3108 21.6067 86.2082 21.6721C86.0962 21.7467 85.9608 21.8121 85.8022 21.8681C85.6528 21.9241 85.5175 21.9521 85.3962 21.9521C85.3682 21.9521 85.3448 21.9474 85.3262 21.9381C85.2142 21.9101 85.1582 21.8261 85.1582 21.6861C85.1582 21.6487 85.1675 21.5927 85.1862 21.5181L85.2142 21.3641C85.2142 21.2707 85.1862 21.1961 85.1302 21.1401C85.0835 21.0934 85.0135 21.0701 84.9202 21.0701H82.1062C82.0128 21.0701 81.9382 21.0934 81.8822 21.1401C81.8355 21.1961 81.8122 21.2707 81.8122 21.3641V21.7561C81.8122 21.8214 81.7188 21.8961 81.5322 21.9801C81.3455 22.0734 81.1495 22.1201 80.9442 22.1201C80.8695 22.1201 80.8088 22.0921 80.7622 22.0361C80.7155 21.9801 80.6922 21.9147 80.6922 21.8401C80.7295 21.4014 80.7622 20.8041 80.7902 20.0481V18.9981C80.7902 18.0927 80.7482 17.2714 80.6642 16.5341V16.4781C80.6642 16.3381 80.7248 16.2681 80.8462 16.2681C80.9022 16.2681 80.9488 16.2774 80.9862 16.2961L81.7002 16.6181C81.8028 16.6647 81.9242 16.6881 82.0642 16.6881H82.6662C82.7595 16.6881 82.8295 16.6647 82.8762 16.6181C82.9322 16.5621 82.9602 16.4874 82.9602 16.3941V14.3501C82.9602 14.2567 82.9322 14.1867 82.8762 14.1401C82.8295 14.0841 82.7595 14.0561 82.6662 14.0561H82.0082C81.5508 14.0654 81.0655 14.1167 80.5522 14.2101H80.4822C80.3422 14.2101 80.2442 14.1447 80.1882 14.0141L80.1322 13.9021C80.1042 13.8461 80.0902 13.7901 80.0902 13.7341C80.0902 13.6781 80.1135 13.6361 80.1602 13.6081C80.2068 13.5707 80.2722 13.5567 80.3562 13.5661C80.6735 13.5941 81.1542 13.6174 81.7982 13.6361H82.6662C82.7595 13.6361 82.8295 13.6127 82.8762 13.5661C82.9322 13.5101 82.9602 13.4354 82.9602 13.3421V11.4101C82.9602 11.2047 82.8528 11.1161 82.6382 11.1441C81.9568 11.2654 81.2988 11.3447 80.6642 11.3821H80.5802C80.4495 11.3821 80.3795 11.3494 80.3702 11.2841V11.2701C80.3702 11.1954 80.4588 11.1394 80.6362 11.1021C81.4388 10.9154 82.2555 10.6681 83.0862 10.3601C83.9262 10.0427 84.6168 9.72538 85.1582 9.40805C85.2328 9.37072 85.2888 9.35205 85.3262 9.35205C85.4008 9.35205 85.4848 9.38938 85.5782 9.46405C86.1288 9.94938 86.4042 10.2387 86.4042 10.3321C86.4042 10.3974 86.3388 10.4207 86.2082 10.4021L86.0402 10.3881H85.9562C85.8815 10.3881 85.7882 10.4021 85.6762 10.4301C85.3588 10.5421 84.8875 10.6727 84.2622 10.8221C84.0942 10.8594 84.0102 10.9667 84.0102 11.1441V13.3421C84.0102 13.4354 84.0335 13.5101 84.0802 13.5661C84.1362 13.6127 84.2108 13.6361 84.3042 13.6361H85.1582C85.3075 13.6361 85.4242 13.5707 85.5082 13.4401L85.6762 13.1741C85.7228 13.1181 85.7742 13.0481 85.8302 12.9641C85.8862 12.8801 85.9328 12.8194 85.9702 12.7821C86.0075 12.7354 86.0448 12.7121 86.0822 12.7121C86.1568 12.7121 86.3248 12.8334 86.5862 13.0761C86.8568 13.3094 87.0482 13.5101 87.1602 13.6781C87.2068 13.7434 87.2302 13.7947 87.2302 13.8321C87.2302 13.8881 87.2068 13.9394 87.1602 13.9861C87.0948 14.0327 87.0108 14.0561 86.9082 14.0561H84.3042C84.2108 14.0561 84.1362 14.0841 84.0802 14.1401C84.0335 14.1867 84.0102 14.2567 84.0102 14.3501V16.3941C84.0102 16.4874 84.0335 16.5621 84.0802 16.6181C84.1362 16.6647 84.2108 16.6881 84.3042 16.6881H84.8642ZM77.7662 10.2061C77.9155 10.2061 78.0322 10.1454 78.1162 10.0241L78.2702 9.80005C78.3075 9.75338 78.3495 9.69272 78.3962 9.61805C78.4522 9.53405 78.4988 9.47338 78.5362 9.43605C78.5735 9.39872 78.6108 9.38005 78.6482 9.38005C78.7228 9.38005 78.8768 9.48272 79.1102 9.68805C79.3528 9.89338 79.5302 10.0707 79.6422 10.2201C79.6888 10.2854 79.7122 10.3414 79.7122 10.3881C79.7122 10.4441 79.6842 10.4954 79.6282 10.5421C79.5628 10.5794 79.4788 10.5981 79.3762 10.5981H77.8222C77.2528 10.6074 76.6368 10.6587 75.9742 10.7521H75.8902C75.7595 10.7521 75.6662 10.6914 75.6102 10.5701L75.5542 10.4721C75.5262 10.4161 75.5122 10.3601 75.5122 10.3041C75.5122 10.2481 75.5355 10.2061 75.5822 10.1781C75.6288 10.1407 75.6942 10.1267 75.7782 10.1361C76.0768 10.1641 76.5342 10.1874 77.1502 10.2061H77.7662ZM76.6462 12.3621C76.1795 12.3807 75.7408 12.4274 75.3302 12.5021C75.3022 12.5114 75.2695 12.5161 75.2322 12.5161C75.1108 12.5161 75.0222 12.4554 74.9662 12.3341L74.9102 12.2221C74.8822 12.1661 74.8682 12.1101 74.8682 12.0541C74.8682 11.9981 74.8915 11.9561 74.9382 11.9281C74.9848 11.8907 75.0502 11.8767 75.1342 11.8861C75.4515 11.9141 75.9322 11.9374 76.5762 11.9561H78.4522C78.6015 11.9561 78.7182 11.8954 78.8022 11.7741L78.9422 11.5641C78.9795 11.5174 79.0168 11.4614 79.0542 11.3961C79.1008 11.3307 79.1475 11.2747 79.1942 11.2281C79.2408 11.1814 79.2828 11.1581 79.3202 11.1581C79.3948 11.1581 79.5535 11.2561 79.7962 11.4521C80.0388 11.6481 80.2162 11.8207 80.3282 11.9701C80.3748 12.0354 80.3982 12.0914 80.3982 12.1381C80.3982 12.1847 80.3748 12.2314 80.3282 12.2781C80.2722 12.3341 80.1882 12.3621 80.0762 12.3621H76.6462ZM77.7942 13.7481C77.9435 13.7481 78.0602 13.6874 78.1442 13.5661L78.2702 13.3841C78.2982 13.3467 78.3355 13.2954 78.3822 13.2301C78.4382 13.1554 78.4848 13.0994 78.5222 13.0621C78.5595 13.0247 78.5968 13.0061 78.6342 13.0061C78.7088 13.0061 78.8582 13.0994 79.0822 13.2861C79.3062 13.4727 79.4695 13.6407 79.5722 13.7901C79.6095 13.8274 79.6282 13.8787 79.6282 13.9441C79.6282 14.0001 79.6048 14.0514 79.5582 14.0981C79.4835 14.1447 79.3948 14.1681 79.2922 14.1681H77.7662C77.1968 14.1774 76.5808 14.2287 75.9182 14.3221H75.8342C75.7035 14.3221 75.6102 14.2614 75.5542 14.1401L75.4982 14.0141C75.4702 13.9581 75.4562 13.9021 75.4562 13.8461C75.4562 13.7154 75.5448 13.6594 75.7222 13.6781C76.0395 13.7061 76.5108 13.7294 77.1362 13.7481H77.7942ZM77.7522 15.5401C77.9015 15.5401 78.0182 15.4747 78.1022 15.3441L78.2282 15.1621C78.2562 15.1247 78.2935 15.0687 78.3402 14.9941C78.3962 14.9194 78.4428 14.8634 78.4802 14.8261C78.5175 14.7887 78.5548 14.7701 78.5922 14.7701C78.6668 14.7701 78.8162 14.8681 79.0402 15.0641C79.2735 15.2507 79.4415 15.4187 79.5442 15.5681C79.5908 15.6334 79.6142 15.6894 79.6142 15.7361C79.6142 15.7921 79.5862 15.8434 79.5302 15.8901C79.4648 15.9367 79.3855 15.9601 79.2922 15.9601H77.7662C77.1968 15.9694 76.5808 16.0207 75.9182 16.1141H75.8342C75.7035 16.1141 75.6102 16.0534 75.5542 15.9321L75.4982 15.8061C75.4702 15.7501 75.4562 15.6941 75.4562 15.6381C75.4562 15.5821 75.4795 15.5401 75.5262 15.5121C75.5728 15.4747 75.6382 15.4607 75.7222 15.4701C76.0395 15.4981 76.5015 15.5214 77.1082 15.5401H77.7522ZM76.7582 21.0421C76.6648 21.0421 76.5902 21.0514 76.5342 21.0701C76.4875 21.0981 76.4642 21.1307 76.4642 21.1681C76.4642 21.2707 76.4688 21.3454 76.4782 21.3921V21.4901V21.6021C76.4782 21.7234 76.4455 21.8121 76.3802 21.8681C76.2962 21.9334 76.1842 21.9894 76.0442 22.0361C75.9042 22.0921 75.7595 22.1201 75.6102 22.1201C75.5448 22.1201 75.4888 22.0921 75.4422 22.0361C75.4048 21.9801 75.3862 21.9147 75.3862 21.8401C75.4235 21.4481 75.4515 20.9534 75.4702 20.3561V19.4601C75.4702 18.6667 75.4328 17.8967 75.3582 17.1501V17.0941C75.3582 16.9541 75.4188 16.8841 75.5402 16.8841C75.5962 16.8841 75.6428 16.8934 75.6802 16.9121L76.3522 17.2201C76.4735 17.2761 76.5948 17.3041 76.7162 17.3041H78.0322C78.1815 17.3041 78.3028 17.2434 78.3962 17.1221L78.4942 16.9961C78.5222 16.9587 78.5735 16.8981 78.6482 16.8141C78.7228 16.7301 78.7882 16.6881 78.8442 16.6881C78.9095 16.6881 79.0588 16.7721 79.2922 16.9401C79.5255 17.1081 79.7075 17.2621 79.8382 17.4021C79.8755 17.4487 79.8942 17.5001 79.8942 17.5561C79.8942 17.6214 79.8522 17.6821 79.7682 17.7381L79.6422 17.7941C79.4835 17.8687 79.4042 17.9807 79.4042 18.1301V19.0961C79.4322 20.0387 79.4555 20.7527 79.4742 21.2381V21.3081C79.4742 21.4387 79.4275 21.5321 79.3342 21.5881C79.2315 21.6627 79.1055 21.7234 78.9562 21.7701C78.8068 21.8261 78.6715 21.8541 78.5502 21.8541C78.4755 21.8541 78.4195 21.8214 78.3822 21.7561C78.3542 21.7001 78.3402 21.6534 78.3402 21.6161C78.3402 21.5787 78.3495 21.5227 78.3682 21.4481C78.3682 21.4574 78.3775 21.4154 78.3962 21.3221C78.3962 21.1354 78.2982 21.0421 78.1022 21.0421H76.7582ZM84.9202 20.6641C85.0135 20.6641 85.0835 20.6407 85.1302 20.5941C85.1862 20.5381 85.2142 20.4634 85.2142 20.3701V17.4021C85.2142 17.3087 85.1862 17.2387 85.1302 17.1921C85.0835 17.1361 85.0135 17.1081 84.9202 17.1081H82.1062C82.0128 17.1081 81.9382 17.1361 81.8822 17.1921C81.8355 17.2387 81.8122 17.3087 81.8122 17.4021V20.3701C81.8122 20.4634 81.8355 20.5381 81.8822 20.5941C81.9382 20.6407 82.0128 20.6641 82.1062 20.6641H84.9202ZM76.7582 17.6961C76.6648 17.6961 76.5902 17.7241 76.5342 17.7801C76.4875 17.8267 76.4642 17.8967 76.4642 17.9901V20.3421C76.4642 20.4354 76.4875 20.5101 76.5342 20.5661C76.5902 20.6127 76.6648 20.6361 76.7582 20.6361H78.1022C78.1955 20.6361 78.2655 20.6127 78.3122 20.5661C78.3682 20.5101 78.3962 20.4354 78.3962 20.3421V17.9901C78.3962 17.8967 78.3682 17.8267 78.3122 17.7801C78.2655 17.7241 78.1955 17.6961 78.1022 17.6961H76.7582Z" fill="#421D12"/>
<path d="M70.0102 10.08C70.1595 10.08 70.2762 10.0193 70.3602 9.89799L70.5282 9.65999C70.5655 9.61332 70.6122 9.55266 70.6682 9.47799C70.7335 9.39399 70.7848 9.33332 70.8222 9.29599C70.8595 9.25866 70.8968 9.23999 70.9342 9.23999C71.0088 9.23999 71.1815 9.34732 71.4522 9.56199C71.7322 9.76732 71.9375 9.94932 72.0682 10.108C72.1148 10.1547 72.1382 10.206 72.1382 10.262C72.1382 10.318 72.1102 10.3693 72.0542 10.416C71.9795 10.4627 71.8908 10.486 71.7882 10.486H67.7982C67.7048 10.486 67.6302 10.514 67.5742 10.57C67.5275 10.6167 67.5042 10.6867 67.5042 10.78V11.34C67.5042 11.4333 67.5275 11.508 67.5742 11.564C67.6302 11.6107 67.7048 11.634 67.7982 11.634H71.3402C71.4988 11.634 71.6202 11.578 71.7042 11.466L71.8442 11.312C71.8815 11.2747 71.9375 11.2093 72.0122 11.116C72.0962 11.0227 72.1662 10.976 72.2222 10.976C72.2875 10.976 72.4275 11.0833 72.6422 11.298C72.8662 11.5033 73.0342 11.6947 73.1462 11.872C73.1835 11.9093 73.2022 11.956 73.2022 12.012C73.2022 12.096 73.1555 12.152 73.0622 12.18C73.0435 12.1893 73.0202 12.194 72.9922 12.194C72.8242 12.2407 72.7028 12.306 72.6282 12.39C72.2735 12.8193 71.9282 13.1787 71.5922 13.468C71.4802 13.5707 71.3915 13.6033 71.3262 13.566C71.2888 13.5473 71.2702 13.51 71.2702 13.454C71.2702 13.4073 71.2842 13.342 71.3122 13.258C71.3962 13.0153 71.4802 12.712 71.5642 12.348L71.5782 12.264C71.5782 12.1893 71.5502 12.1333 71.4942 12.096C71.4475 12.0493 71.3822 12.026 71.2982 12.026H67.7982C67.7048 12.026 67.6302 12.054 67.5742 12.11C67.5275 12.1567 67.5042 12.2267 67.5042 12.32V13.104C67.5322 13.9253 67.5555 14.5507 67.5742 14.98V15.05C67.5742 15.1807 67.5275 15.274 67.4342 15.33C67.2288 15.47 66.9488 15.54 66.5942 15.54C66.5102 15.54 66.4448 15.512 66.3982 15.456C66.3515 15.4 66.3282 15.3347 66.3282 15.26C66.3748 14.7467 66.4075 14.0607 66.4262 13.202V12.32C66.4262 12.2267 66.3982 12.1567 66.3422 12.11C66.2955 12.054 66.2255 12.026 66.1322 12.026H62.8842C62.6788 12.026 62.5762 12.068 62.5762 12.152C62.5855 12.18 62.5902 12.2173 62.5902 12.264C62.5902 12.6187 62.5295 12.9267 62.4082 13.188C62.2868 13.4493 62.1328 13.6453 61.9462 13.776C61.7968 13.8787 61.6335 13.93 61.4562 13.93C61.2975 13.93 61.1668 13.8833 61.0642 13.79C60.9615 13.6967 60.9102 13.5613 60.9102 13.384C60.9102 13.2627 60.9475 13.1507 61.0222 13.048C61.1062 12.936 61.2135 12.8473 61.3442 12.782C61.5588 12.6607 61.7408 12.4647 61.8902 12.194C62.0488 11.914 62.1375 11.6153 62.1562 11.298C62.1562 11.0927 62.1888 10.99 62.2542 10.99C62.3288 10.99 62.3848 11.0693 62.4222 11.228L62.4642 11.382C62.5108 11.55 62.6182 11.634 62.7862 11.634H66.1322C66.2255 11.634 66.2955 11.6107 66.3422 11.564C66.3982 11.508 66.4262 11.4333 66.4262 11.34V10.78C66.4262 10.6867 66.3982 10.6167 66.3422 10.57C66.2955 10.514 66.2255 10.486 66.1322 10.486H64.5082C63.9388 10.4953 63.3228 10.5467 62.6602 10.64H62.5762C62.4455 10.64 62.3522 10.5793 62.2962 10.458L62.2402 10.346C62.2122 10.29 62.1982 10.234 62.1982 10.178C62.1982 10.122 62.2215 10.08 62.2682 10.052C62.3148 10.0147 62.3802 10.0007 62.4642 10.01C62.7815 10.038 63.2622 10.0613 63.9062 10.08H70.0102ZM69.0022 13.524C68.8062 13.5427 68.6335 13.5753 68.4842 13.622C68.4282 13.6407 68.3862 13.65 68.3582 13.65C68.2462 13.65 68.1575 13.5893 68.0922 13.468L68.0502 13.384C68.0222 13.328 68.0082 13.272 68.0082 13.216C68.0082 13.0947 68.1015 13.0433 68.2882 13.062C68.4842 13.0807 68.7782 13.0993 69.1702 13.118H69.5762C69.7255 13.118 69.8468 13.0573 69.9402 12.936L70.0242 12.824C70.0522 12.7867 70.0848 12.74 70.1222 12.684C70.1688 12.628 70.2062 12.586 70.2342 12.558C70.2715 12.53 70.3088 12.516 70.3462 12.516C70.4115 12.516 70.5375 12.5907 70.7242 12.74C70.9108 12.88 71.0555 13.0153 71.1582 13.146C71.1955 13.1927 71.2142 13.2487 71.2142 13.314C71.2142 13.3607 71.1955 13.4027 71.1582 13.44C71.1022 13.496 71.0135 13.524 70.8922 13.524H69.0022ZM63.8362 13.524C63.6402 13.5427 63.4675 13.5753 63.3182 13.622C63.2622 13.6407 63.2202 13.65 63.1922 13.65C63.0802 13.65 62.9915 13.5893 62.9262 13.468L62.8842 13.384C62.8562 13.328 62.8422 13.272 62.8422 13.216C62.8422 13.0947 62.9355 13.0433 63.1222 13.062C63.3182 13.0807 63.6122 13.0993 64.0042 13.118H64.3962C64.5548 13.118 64.6762 13.0573 64.7602 12.936L64.8302 12.838C64.8582 12.8007 64.9048 12.7447 64.9702 12.67C65.0355 12.586 65.0962 12.544 65.1522 12.544C65.2268 12.544 65.3528 12.614 65.5302 12.754C65.7075 12.894 65.8428 13.0247 65.9362 13.146C65.9735 13.1927 65.9922 13.244 65.9922 13.3C65.9922 13.3653 65.9688 13.4167 65.9222 13.454C65.8568 13.5007 65.7775 13.524 65.6842 13.524H63.8362ZM69.8422 14.532C69.9915 14.532 70.1082 14.4713 70.1922 14.35L70.2902 14.224C70.3182 14.1867 70.3648 14.126 70.4302 14.042C70.5048 13.9487 70.5702 13.902 70.6262 13.902C70.7008 13.902 70.8408 13.9813 71.0462 14.14C71.2608 14.2893 71.4148 14.4293 71.5082 14.56C71.5548 14.6253 71.5782 14.6767 71.5782 14.714C71.5782 14.77 71.5548 14.8213 71.5082 14.868C71.4428 14.9147 71.3588 14.938 71.2562 14.938H70.1922C69.6508 14.9473 69.0722 14.9987 68.4562 15.092H68.3722C68.2415 15.092 68.1482 15.0313 68.0922 14.91L68.0362 14.798C68.0082 14.742 67.9942 14.686 67.9942 14.63C67.9942 14.5087 68.0828 14.4573 68.2602 14.476C68.5028 14.4947 68.8668 14.5133 69.3522 14.532H69.8422ZM63.6682 14.938C63.4442 14.9567 63.2435 14.9893 63.0662 15.036C63.0102 15.0547 62.9682 15.064 62.9402 15.064C62.8282 15.064 62.7395 15.0033 62.6742 14.882L62.6322 14.798C62.6042 14.742 62.5902 14.686 62.5902 14.63C62.5902 14.5087 62.6788 14.4573 62.8562 14.476C63.0988 14.4947 63.4535 14.5133 63.9202 14.532H64.3962C64.5455 14.532 64.6668 14.4713 64.7602 14.35L64.8442 14.238C64.8722 14.2007 64.9188 14.1447 64.9842 14.07C65.0495 13.986 65.1102 13.944 65.1662 13.944C65.2408 13.944 65.3715 14.014 65.5582 14.154C65.7542 14.294 65.8988 14.4247 65.9922 14.546C66.0388 14.6113 66.0622 14.6673 66.0622 14.714C66.0622 14.77 66.0388 14.8213 65.9922 14.868C65.9175 14.9147 65.8335 14.938 65.7402 14.938H63.6682ZM69.9542 16.03C70.1035 16.03 70.2202 15.9693 70.3042 15.848L70.4162 15.68C70.4442 15.6427 70.4815 15.5913 70.5282 15.526C70.5842 15.4513 70.6262 15.4 70.6542 15.372C70.6915 15.3347 70.7288 15.316 70.7662 15.316C70.8408 15.316 70.9948 15.414 71.2282 15.61C71.4708 15.806 71.6528 15.9833 71.7742 16.142C71.8115 16.1793 71.8302 16.226 71.8302 16.282C71.8302 16.3473 71.7928 16.408 71.7182 16.464L71.5922 16.52C71.4335 16.5947 71.3542 16.7067 71.3542 16.856V17.738C71.3822 18.6247 71.4055 19.2827 71.4242 19.712V19.782C71.4242 19.9127 71.3775 20.006 71.2842 20.062C71.1722 20.1367 71.0368 20.202 70.8782 20.258C70.7288 20.3047 70.5888 20.328 70.4582 20.328C70.4115 20.328 70.3695 20.3047 70.3322 20.258C70.3042 20.202 70.2902 20.1273 70.2902 20.034C70.2902 19.9407 70.2622 19.8707 70.2062 19.824C70.1595 19.768 70.0895 19.74 69.9962 19.74H67.7842C67.6908 19.74 67.6162 19.768 67.5602 19.824C67.5135 19.8707 67.4902 19.9407 67.4902 20.034V20.44C67.4902 20.608 67.4995 20.7247 67.5182 20.79C67.5462 20.8553 67.5975 20.8973 67.6722 20.916C67.7562 20.9347 67.9008 20.944 68.1062 20.944H71.4242C71.5922 20.944 71.7135 20.9347 71.7882 20.916C71.8722 20.8973 71.9422 20.8553 71.9982 20.79C72.0822 20.65 72.1942 20.314 72.3342 19.782C72.3715 19.6047 72.4228 19.516 72.4882 19.516C72.5442 19.516 72.5722 19.614 72.5722 19.81L72.5862 20.524C72.5862 20.6733 72.6702 20.79 72.8382 20.874C72.9408 20.9207 73.0062 20.9627 73.0342 21C73.0622 21.0373 73.0762 21.0933 73.0762 21.168C73.0762 21.4013 72.9502 21.574 72.6982 21.686C72.4462 21.8073 72.0028 21.868 71.3682 21.868H68.0782C67.6022 21.868 67.2522 21.8307 67.0282 21.756C66.8042 21.6813 66.6455 21.5413 66.5522 21.336C66.4682 21.1307 66.4262 20.8133 66.4262 20.384V20.034C66.4262 19.9407 66.3982 19.8707 66.3422 19.824C66.2955 19.768 66.2255 19.74 66.1322 19.74H64.0462C63.9528 19.74 63.8782 19.768 63.8222 19.824C63.7755 19.8707 63.7522 19.9407 63.7522 20.034V20.398C63.7522 20.4633 63.6542 20.5427 63.4582 20.636C63.2622 20.72 63.0615 20.762 62.8562 20.762C62.7815 20.762 62.7208 20.734 62.6742 20.678C62.6368 20.622 62.6182 20.5567 62.6182 20.482C62.6555 20.09 62.6835 19.6 62.7022 19.012V18.13C62.7022 17.346 62.6648 16.5807 62.5902 15.834V15.778C62.5902 15.7127 62.6042 15.6613 62.6322 15.624C62.6695 15.5867 62.7115 15.568 62.7582 15.568C62.8048 15.568 62.8562 15.582 62.9122 15.61L63.6682 15.946C63.7988 16.002 63.9202 16.03 64.0322 16.03H69.9542ZM66.1322 17.654C66.2255 17.654 66.2955 17.6307 66.3422 17.584C66.3982 17.528 66.4262 17.4533 66.4262 17.36V16.716C66.4262 16.6227 66.3982 16.5527 66.3422 16.506C66.2955 16.45 66.2255 16.422 66.1322 16.422H64.0462C63.9528 16.422 63.8782 16.45 63.8222 16.506C63.7755 16.5527 63.7522 16.6227 63.7522 16.716V17.36C63.7522 17.4533 63.7755 17.528 63.8222 17.584C63.8782 17.6307 63.9528 17.654 64.0462 17.654H66.1322ZM69.9962 17.654C70.0895 17.654 70.1595 17.6307 70.2062 17.584C70.2622 17.528 70.2902 17.4533 70.2902 17.36V16.716C70.2902 16.6227 70.2622 16.5527 70.2062 16.506C70.1595 16.45 70.0895 16.422 69.9962 16.422H67.7842C67.6908 16.422 67.6162 16.45 67.5602 16.506C67.5135 16.5527 67.4902 16.6227 67.4902 16.716V17.36C67.4902 17.4533 67.5135 17.528 67.5602 17.584C67.6162 17.6307 67.6908 17.654 67.7842 17.654H69.9962ZM64.0462 18.06C63.9528 18.06 63.8782 18.088 63.8222 18.144C63.7755 18.1907 63.7522 18.2607 63.7522 18.354V19.04C63.7522 19.1333 63.7755 19.208 63.8222 19.264C63.8782 19.3107 63.9528 19.334 64.0462 19.334H66.1322C66.2255 19.334 66.2955 19.3107 66.3422 19.264C66.3982 19.208 66.4262 19.1333 66.4262 19.04V18.354C66.4262 18.2607 66.3982 18.1907 66.3422 18.144C66.2955 18.088 66.2255 18.06 66.1322 18.06H64.0462ZM67.7842 18.06C67.6908 18.06 67.6162 18.088 67.5602 18.144C67.5135 18.1907 67.4902 18.2607 67.4902 18.354V19.04C67.4902 19.1333 67.5135 19.208 67.5602 19.264C67.6162 19.3107 67.6908 19.334 67.7842 19.334H69.9962C70.0895 19.334 70.1595 19.3107 70.2062 19.264C70.2622 19.208 70.2902 19.1333 70.2902 19.04V18.354C70.2902 18.2607 70.2622 18.1907 70.2062 18.144C70.1595 18.088 70.0895 18.06 69.9962 18.06H67.7842Z" fill="#421D12"/>
<path d="M138.996 36.1559C138.788 36.1559 138.632 36.0559 138.528 35.8559C138.432 35.6479 138.384 35.4079 138.384 35.1359C138.384 34.3439 138.68 33.3519 139.272 32.1599C139.864 30.9679 140.564 29.7279 141.372 28.4399C141.404 28.3999 141.42 28.3519 141.42 28.2959C141.42 28.1919 141.348 28.1399 141.204 28.1399H139.44C138.952 28.1399 138.58 28.1959 138.324 28.3079C138.076 28.4119 137.888 28.5639 137.76 28.7639C137.64 28.9639 137.5 29.2879 137.34 29.7359C137.324 29.7679 137.308 29.7879 137.292 29.7959C137.284 29.8039 137.268 29.8079 137.244 29.8079L137.148 29.7839C137.1 29.7679 137.064 29.7519 137.04 29.7359C137.016 29.7199 137.004 29.6999 137.004 29.6759L137.028 29.5439L137.22 28.6679C137.26 28.4599 137.304 28.2559 137.352 28.0559C137.4 27.8479 137.44 27.6559 137.472 27.4799C137.512 27.3359 137.604 27.2639 137.748 27.2639H141.996C142.14 27.2639 142.228 27.3079 142.26 27.3959C142.276 27.4439 142.284 27.4759 142.284 27.4919C142.284 27.5479 142.264 27.6159 142.224 27.6959C141.472 28.9839 140.912 30.0279 140.544 30.8279C140.176 31.6279 139.924 32.3519 139.788 32.9999C139.66 33.6479 139.596 34.3959 139.596 35.2439C139.596 35.8519 139.396 36.1559 138.996 36.1559Z" fill="#421D12"/>
<path d="M132.394 30.5639C132.858 30.5639 133.258 30.6839 133.594 30.9239C133.93 31.1559 134.186 31.4639 134.362 31.8479C134.538 32.2319 134.626 32.6439 134.626 33.0839C134.626 33.6359 134.518 34.1479 134.302 34.6199C134.094 35.0919 133.794 35.4679 133.402 35.7479C133.018 36.0279 132.574 36.1679 132.07 36.1679C131.55 36.1679 131.082 36.0159 130.666 35.7119C130.25 35.4079 129.926 34.9839 129.694 34.4399C129.462 33.8879 129.346 33.2559 129.346 32.5439C129.346 31.3999 129.506 30.4239 129.826 29.6159C130.146 28.7999 130.546 28.1919 131.026 27.7919C131.514 27.3839 131.99 27.1799 132.454 27.1799C132.822 27.1799 133.138 27.2359 133.402 27.3479C133.674 27.4519 133.878 27.5919 134.014 27.7679C134.15 27.9439 134.218 28.1279 134.218 28.3199C134.218 28.4879 134.158 28.6319 134.038 28.7519C133.926 28.8639 133.79 28.9199 133.63 28.9199C133.462 28.9199 133.314 28.8479 133.186 28.7039C133.058 28.5519 132.986 28.3559 132.97 28.1159C132.954 27.9319 132.906 27.7959 132.826 27.7079C132.746 27.6199 132.614 27.5759 132.43 27.5759C131.902 27.5759 131.478 27.9119 131.158 28.5839C130.838 29.2559 130.614 30.0679 130.486 31.0199C130.478 31.0839 130.49 31.1359 130.522 31.1759C130.554 31.2079 130.602 31.2239 130.666 31.2239C130.762 31.2239 130.866 31.1799 130.978 31.0919C131.402 30.7399 131.874 30.5639 132.394 30.5639ZM132.07 35.7119C132.366 35.7119 132.626 35.6039 132.85 35.3879C133.082 35.1719 133.262 34.8759 133.39 34.4999C133.518 34.1239 133.582 33.7039 133.582 33.2399C133.582 32.3919 133.418 31.8279 133.09 31.5479C132.77 31.2679 132.422 31.1279 132.046 31.1279C131.734 31.1279 131.426 31.2319 131.122 31.4399C130.818 31.6479 130.59 31.9759 130.438 32.4239C130.406 32.5279 130.39 32.6319 130.39 32.7359C130.406 33.5839 130.53 34.2919 130.762 34.8599C131.002 35.4279 131.438 35.7119 132.07 35.7119Z" fill="#421D12"/>
<path d="M124.546 30.3961C124.858 30.3961 125.198 30.4761 125.566 30.6361C125.942 30.7881 126.274 31.0761 126.562 31.5001C126.85 31.9161 126.994 32.4921 126.994 33.2281C126.994 33.8121 126.862 34.3281 126.598 34.7761C126.334 35.2241 125.998 35.5681 125.59 35.8081C125.182 36.0481 124.77 36.1681 124.354 36.1681C123.986 36.1681 123.622 36.1001 123.262 35.9641C122.91 35.8281 122.618 35.6241 122.386 35.3521C122.162 35.0801 122.05 34.7561 122.05 34.3801C122.05 34.1161 122.106 33.9281 122.218 33.8161C122.338 33.6961 122.47 33.6361 122.614 33.6361C122.782 33.6361 122.934 33.6841 123.07 33.7801C123.206 33.8681 123.274 34.0081 123.274 34.2001C123.274 34.3041 123.25 34.4281 123.202 34.5721C123.194 34.6041 123.182 34.6521 123.166 34.7161C123.15 34.7801 123.142 34.8401 123.142 34.8961C123.142 35.1841 123.254 35.4041 123.478 35.5561C123.71 35.7001 123.966 35.7721 124.246 35.7721C124.55 35.7721 124.83 35.6721 125.086 35.4721C125.342 35.2641 125.546 34.9761 125.698 34.6081C125.858 34.2321 125.938 33.8001 125.938 33.3121C125.938 32.5841 125.79 32.0001 125.494 31.5601C125.198 31.1201 124.802 30.9001 124.306 30.9001C123.762 30.9001 123.242 31.2161 122.746 31.8481C122.698 31.9121 122.642 31.9521 122.578 31.9681H122.53C122.482 31.9681 122.45 31.9561 122.434 31.9321H122.422C122.318 31.8681 122.266 31.7641 122.266 31.6201L122.41 27.5401C122.41 27.4601 122.434 27.4001 122.482 27.3601C122.53 27.3121 122.594 27.2881 122.674 27.2881H126.358C126.446 27.2881 126.51 27.3121 126.55 27.3601C126.59 27.4081 126.602 27.4761 126.586 27.5641L126.514 27.9601C126.506 28.0321 126.474 28.0881 126.418 28.1281C126.37 28.1681 126.31 28.1881 126.238 28.1881H123.058C122.898 28.1881 122.81 28.2721 122.794 28.4401L122.698 30.9001C122.682 31.0121 122.722 31.0681 122.818 31.0681C122.898 31.0681 123.002 31.0161 123.13 30.9121C123.37 30.7281 123.602 30.5961 123.826 30.5161C124.05 30.4361 124.29 30.3961 124.546 30.3961Z" fill="#421D12"/>
<path d="M119.836 33.3241C119.836 33.4041 119.812 33.4681 119.764 33.5161C119.724 33.5561 119.664 33.5761 119.584 33.5761H117.868C117.788 33.5761 117.724 33.5561 117.676 33.5161C117.636 33.4681 117.616 33.4041 117.616 33.3241V33.0601C117.616 32.9801 117.636 32.9201 117.676 32.8801C117.724 32.8321 117.788 32.8081 117.868 32.8081H119.584C119.664 32.8081 119.724 32.8321 119.764 32.8801C119.812 32.9201 119.836 32.9801 119.836 33.0601V33.3241Z" fill="#421D12"/>
<path d="M113.125 30.5639C113.589 30.5639 113.989 30.6839 114.325 30.9239C114.661 31.1559 114.917 31.4639 115.093 31.8479C115.269 32.2319 115.357 32.6439 115.357 33.0839C115.357 33.6359 115.249 34.1479 115.033 34.6199C114.825 35.0919 114.525 35.4679 114.133 35.7479C113.749 36.0279 113.305 36.1679 112.801 36.1679C112.281 36.1679 111.813 36.0159 111.397 35.7119C110.981 35.4079 110.657 34.9839 110.425 34.4399C110.193 33.8879 110.077 33.2559 110.077 32.5439C110.077 31.3999 110.237 30.4239 110.557 29.6159C110.877 28.7999 111.277 28.1919 111.757 27.7919C112.245 27.3839 112.721 27.1799 113.185 27.1799C113.553 27.1799 113.869 27.2359 114.133 27.3479C114.405 27.4519 114.609 27.5919 114.745 27.7679C114.881 27.9439 114.949 28.1279 114.949 28.3199C114.949 28.4879 114.889 28.6319 114.769 28.7519C114.657 28.8639 114.521 28.9199 114.361 28.9199C114.193 28.9199 114.045 28.8479 113.917 28.7039C113.789 28.5519 113.717 28.3559 113.701 28.1159C113.685 27.9319 113.637 27.7959 113.557 27.7079C113.477 27.6199 113.345 27.5759 113.161 27.5759C112.633 27.5759 112.209 27.9119 111.889 28.5839C111.569 29.2559 111.345 30.0679 111.217 31.0199C111.209 31.0839 111.221 31.1359 111.253 31.1759C111.285 31.2079 111.333 31.2239 111.397 31.2239C111.493 31.2239 111.597 31.1799 111.709 31.0919C112.133 30.7399 112.605 30.5639 113.125 30.5639ZM112.801 35.7119C113.097 35.7119 113.357 35.6039 113.581 35.3879C113.813 35.1719 113.993 34.8759 114.121 34.4999C114.249 34.1239 114.313 33.7039 114.313 33.2399C114.313 32.3919 114.149 31.8279 113.821 31.5479C113.501 31.2679 113.153 31.1279 112.777 31.1279C112.465 31.1279 112.157 31.2319 111.853 31.4399C111.549 31.6479 111.321 31.9759 111.169 32.4239C111.137 32.5279 111.121 32.6319 111.121 32.7359C111.137 33.5839 111.261 34.2919 111.493 34.8599C111.733 35.4279 112.169 35.7119 112.801 35.7119Z" fill="#421D12"/>
<path d="M105.278 30.3961C105.59 30.3961 105.93 30.4761 106.298 30.6361C106.674 30.7881 107.006 31.0761 107.294 31.5001C107.582 31.9161 107.726 32.4921 107.726 33.2281C107.726 33.8121 107.594 34.3281 107.33 34.7761C107.066 35.2241 106.73 35.5681 106.322 35.8081C105.914 36.0481 105.502 36.1681 105.086 36.1681C104.718 36.1681 104.354 36.1001 103.994 35.9641C103.642 35.8281 103.35 35.6241 103.118 35.3521C102.894 35.0801 102.782 34.7561 102.782 34.3801C102.782 34.1161 102.838 33.9281 102.95 33.8161C103.07 33.6961 103.202 33.6361 103.346 33.6361C103.514 33.6361 103.666 33.6841 103.802 33.7801C103.938 33.8681 104.006 34.0081 104.006 34.2001C104.006 34.3041 103.982 34.4281 103.934 34.5721C103.926 34.6041 103.914 34.6521 103.898 34.7161C103.882 34.7801 103.874 34.8401 103.874 34.8961C103.874 35.1841 103.986 35.4041 104.21 35.5561C104.442 35.7001 104.698 35.7721 104.978 35.7721C105.282 35.7721 105.562 35.6721 105.818 35.4721C106.074 35.2641 106.278 34.9761 106.43 34.6081C106.59 34.2321 106.67 33.8001 106.67 33.3121C106.67 32.5841 106.522 32.0001 106.226 31.5601C105.93 31.1201 105.534 30.9001 105.038 30.9001C104.494 30.9001 103.974 31.2161 103.478 31.8481C103.43 31.9121 103.374 31.9521 103.31 31.9681H103.262C103.214 31.9681 103.182 31.9561 103.166 31.9321H103.154C103.05 31.8681 102.998 31.7641 102.998 31.6201L103.142 27.5401C103.142 27.4601 103.166 27.4001 103.214 27.3601C103.262 27.3121 103.326 27.2881 103.406 27.2881H107.09C107.178 27.2881 107.242 27.3121 107.282 27.3601C107.322 27.4081 107.334 27.4761 107.318 27.5641L107.246 27.9601C107.238 28.0321 107.206 28.0881 107.15 28.1281C107.102 28.1681 107.042 28.1881 106.97 28.1881H103.79C103.63 28.1881 103.542 28.2721 103.526 28.4401L103.43 30.9001C103.414 31.0121 103.454 31.0681 103.55 31.0681C103.63 31.0681 103.734 31.0161 103.862 30.9121C104.102 30.7281 104.334 30.5961 104.558 30.5161C104.782 30.4361 105.022 30.3961 105.278 30.3961Z" fill="#421D12"/>
<path d="M98.3156 30.5639C98.7796 30.5639 99.1796 30.6839 99.5156 30.9239C99.8516 31.1559 100.108 31.4639 100.284 31.8479C100.46 32.2319 100.548 32.6439 100.548 33.0839C100.548 33.6359 100.44 34.1479 100.224 34.6199C100.016 35.0919 99.7156 35.4679 99.3236 35.7479C98.9396 36.0279 98.4956 36.1679 97.9916 36.1679C97.4716 36.1679 97.0036 36.0159 96.5876 35.7119C96.1716 35.4079 95.8476 34.9839 95.6156 34.4399C95.3836 33.8879 95.2676 33.2559 95.2676 32.5439C95.2676 31.3999 95.4276 30.4239 95.7476 29.6159C96.0676 28.7999 96.4676 28.1919 96.9476 27.7919C97.4356 27.3839 97.9116 27.1799 98.3756 27.1799C98.7436 27.1799 99.0596 27.2359 99.3236 27.3479C99.5956 27.4519 99.7996 27.5919 99.9356 27.7679C100.072 27.9439 100.14 28.1279 100.14 28.3199C100.14 28.4879 100.08 28.6319 99.9596 28.7519C99.8476 28.8639 99.7116 28.9199 99.5516 28.9199C99.3836 28.9199 99.2356 28.8479 99.1076 28.7039C98.9796 28.5519 98.9076 28.3559 98.8916 28.1159C98.8756 27.9319 98.8276 27.7959 98.7476 27.7079C98.6676 27.6199 98.5356 27.5759 98.3516 27.5759C97.8236 27.5759 97.3996 27.9119 97.0796 28.5839C96.7596 29.2559 96.5356 30.0679 96.4076 31.0199C96.3996 31.0839 96.4116 31.1359 96.4436 31.1759C96.4756 31.2079 96.5236 31.2239 96.5876 31.2239C96.6836 31.2239 96.7876 31.1799 96.8996 31.0919C97.3236 30.7399 97.7956 30.5639 98.3156 30.5639ZM97.9916 35.7119C98.2876 35.7119 98.5476 35.6039 98.7716 35.3879C99.0036 35.1719 99.1836 34.8759 99.3116 34.4999C99.4396 34.1239 99.5036 33.7039 99.5036 33.2399C99.5036 32.3919 99.3396 31.8279 99.0116 31.5479C98.6916 31.2679 98.3436 31.1279 97.9676 31.1279C97.6556 31.1279 97.3476 31.2319 97.0436 31.4399C96.7396 31.6479 96.5116 31.9759 96.3596 32.4239C96.3276 32.5279 96.3116 32.6319 96.3116 32.7359C96.3276 33.5839 96.4516 34.2919 96.6836 34.8599C96.9236 35.4279 97.3596 35.7119 97.9916 35.7119Z" fill="#421D12"/>
<path d="M92.9817 33.3241C92.9817 33.4041 92.9577 33.4681 92.9097 33.5161C92.8697 33.5561 92.8097 33.5761 92.7297 33.5761H91.0137C90.9337 33.5761 90.8697 33.5561 90.8217 33.5161C90.7817 33.4681 90.7617 33.4041 90.7617 33.3241V33.0601C90.7617 32.9801 90.7817 32.9201 90.8217 32.8801C90.8697 32.8321 90.9337 32.8081 91.0137 32.8081H92.7297C92.8097 32.8081 92.8697 32.8321 92.9097 32.8801C92.9577 32.9201 92.9817 32.9801 92.9817 33.0601V33.3241Z" fill="#421D12"/>
<path d="M85.919 36.1679C85.471 36.1679 85.051 35.9999 84.659 35.6639C84.275 35.3279 83.963 34.8239 83.723 34.1519C83.491 33.4799 83.375 32.6599 83.375 31.6919C83.375 30.7239 83.495 29.8999 83.735 29.2199C83.975 28.5399 84.287 28.0319 84.671 27.6959C85.063 27.3519 85.487 27.1799 85.943 27.1799C86.391 27.1799 86.807 27.3519 87.191 27.6959C87.583 28.0319 87.895 28.5399 88.127 29.2199C88.367 29.8999 88.487 30.7239 88.487 31.6919C88.487 32.6599 88.367 33.4799 88.127 34.1519C87.887 34.8239 87.571 35.3279 87.179 35.6639C86.795 35.9999 86.375 36.1679 85.919 36.1679ZM85.943 35.7599C86.407 35.7599 86.771 35.4239 87.035 34.7519C87.307 34.0719 87.443 33.0519 87.443 31.6919C87.443 30.3319 87.307 29.3119 87.035 28.6319C86.771 27.9439 86.407 27.5999 85.943 27.5999C85.471 27.5999 85.099 27.9439 84.827 28.6319C84.555 29.3119 84.419 30.3319 84.419 31.6919C84.419 33.0519 84.555 34.0719 84.827 34.7519C85.099 35.4239 85.471 35.7599 85.943 35.7599Z" fill="#421D12"/>
<path d="M80.6058 35.7839C80.5738 35.9279 80.4817 35.9999 80.3297 35.9999H76.3937C76.2497 35.9999 76.1617 35.9559 76.1297 35.8679C76.1057 35.8199 76.0938 35.7719 76.0938 35.7239C76.0938 35.6759 76.1057 35.6239 76.1297 35.5679C76.3617 34.9919 76.6457 34.4599 76.9817 33.9719C77.3177 33.4759 77.7577 32.9039 78.3017 32.2559C78.8857 31.5759 79.3098 31.0159 79.5738 30.5759C79.8378 30.1279 79.9698 29.6719 79.9698 29.2079C79.9698 28.7759 79.8497 28.3959 79.6097 28.0679C79.3697 27.7399 78.9937 27.5759 78.4817 27.5759C78.1057 27.5759 77.7858 27.6719 77.5218 27.8639C77.2578 28.0479 77.1258 28.2759 77.1258 28.5479C77.1258 28.6519 77.1377 28.7399 77.1617 28.8119C77.1937 28.8839 77.2417 28.9639 77.3057 29.0519C77.3617 29.1399 77.4017 29.2199 77.4257 29.2919C77.4577 29.3559 77.4738 29.4359 77.4738 29.5319C77.4738 29.7239 77.4137 29.8799 77.2937 29.9999C77.1817 30.1119 77.0337 30.1679 76.8497 30.1679C76.6897 30.1679 76.5417 30.0919 76.4057 29.9399C76.2777 29.7799 76.2137 29.5639 76.2137 29.2919C76.2137 28.9959 76.3017 28.6839 76.4777 28.3559C76.6617 28.0279 76.9337 27.7519 77.2937 27.5279C77.6617 27.2959 78.1097 27.1799 78.6377 27.1799C79.2137 27.1799 79.6777 27.2959 80.0297 27.5279C80.3817 27.7519 80.6297 28.0359 80.7737 28.3799C80.9257 28.7159 81.0017 29.0679 81.0017 29.4359C81.0017 29.7719 80.9457 30.0679 80.8337 30.3239C80.7217 30.5719 80.5697 30.8039 80.3777 31.0199C80.1857 31.2279 79.8977 31.5079 79.5137 31.8599C79.4257 31.9479 79.3138 32.0519 79.1778 32.1719C79.0418 32.2919 78.8858 32.4399 78.7098 32.6159C78.0058 33.3279 77.4538 34.0639 77.0538 34.8239C77.0297 34.8719 77.0177 34.9159 77.0177 34.9559C77.0177 35.0679 77.0937 35.1239 77.2457 35.1239H78.3378C78.9218 35.1239 79.3577 35.0919 79.6457 35.0279C79.9337 34.9559 80.1497 34.8319 80.2937 34.6559C80.4457 34.4799 80.5938 34.1959 80.7378 33.8039C80.7538 33.7559 80.7817 33.7319 80.8217 33.7319C80.8297 33.7319 80.8657 33.7399 80.9297 33.7559C80.9777 33.7719 81.0137 33.7879 81.0377 33.8039C81.0617 33.8199 81.0738 33.8439 81.0738 33.8759L81.0617 33.9359L80.6058 35.7839Z" fill="#421D12"/>
<path d="M69.5147 36.0001C69.4587 36.0001 69.4307 35.9441 69.4307 35.8321C69.4307 35.7121 69.4587 35.6521 69.5147 35.6521H69.7067C70.0987 35.6521 70.4147 35.5921 70.6547 35.4721C70.8947 35.3521 71.0147 35.1641 71.0147 34.9081V29.1601C71.0147 28.9201 70.9907 28.7601 70.9427 28.6801C70.9027 28.5921 70.7987 28.5361 70.6307 28.5121C70.4707 28.4801 70.1667 28.4641 69.7187 28.4641H69.5147C69.4587 28.4641 69.4307 28.4041 69.4307 28.2841C69.4307 28.1721 69.4587 28.1161 69.5147 28.1161C69.9467 28.1161 70.3347 28.0641 70.6787 27.9601C71.0307 27.8481 71.3627 27.6721 71.6747 27.4321C71.7387 27.3841 71.7907 27.3601 71.8307 27.3601C71.9267 27.3601 71.9747 27.4321 71.9747 27.5761V34.9081C71.9747 35.4041 72.4107 35.6521 73.2827 35.6521H73.4627C73.4947 35.6521 73.5147 35.6681 73.5227 35.7001C73.5387 35.7241 73.5467 35.7681 73.5467 35.8321C73.5467 35.9441 73.5187 36.0001 73.4627 36.0001H69.5147Z" fill="#421D12"/>
<path d="M64.1085 36.1679C63.6605 36.1679 63.2405 35.9999 62.8485 35.6639C62.4645 35.3279 62.1525 34.8239 61.9125 34.1519C61.6805 33.4799 61.5645 32.6599 61.5645 31.6919C61.5645 30.7239 61.6845 29.8999 61.9245 29.2199C62.1645 28.5399 62.4765 28.0319 62.8605 27.6959C63.2525 27.3519 63.6765 27.1799 64.1325 27.1799C64.5805 27.1799 64.9965 27.3519 65.3805 27.6959C65.7725 28.0319 66.0845 28.5399 66.3165 29.2199C66.5565 29.8999 66.6765 30.7239 66.6765 31.6919C66.6765 32.6599 66.5565 33.4799 66.3165 34.1519C66.0765 34.8239 65.7605 35.3279 65.3685 35.6639C64.9845 35.9999 64.5645 36.1679 64.1085 36.1679ZM64.1325 35.7599C64.5965 35.7599 64.9605 35.4239 65.2245 34.7519C65.4965 34.0719 65.6325 33.0519 65.6325 31.6919C65.6325 30.3319 65.4965 29.3119 65.2245 28.6319C64.9605 27.9439 64.5965 27.5999 64.1325 27.5999C63.6605 27.5999 63.2885 27.9439 63.0165 28.6319C62.7445 29.3119 62.6085 30.3319 62.6085 31.6919C62.6085 33.0519 62.7445 34.0719 63.0165 34.7519C63.2885 35.4239 63.6605 35.7599 64.1325 35.7599Z" fill="#421D12"/>
<path d="M16.4297 18.6428L14.1924 20.885C14.512 21.8818 15.3103 23.0391 16.5566 24.3215C17.7254 25.524 18.8684 26.2895 19.8281 26.6438L20.0176 26.7092L22.2568 24.4661L26.9023 29.1077L24.6064 31.4036L24.3516 31.384C23.2366 31.2745 18.6659 30.6158 14.7461 26.9875L14.3135 26.5715C9.7311 22.0061 9.49805 16.2913 9.49805 16.2913L11.792 13.9993L16.4297 18.6428ZM10.5352 16.6682C10.5493 16.79 10.5689 16.9361 10.5947 17.1038C10.6817 17.6687 10.8429 18.4749 11.1406 19.4182C11.737 21.3079 12.8714 23.7233 15.0195 25.8635C17.1693 28.0052 19.589 29.1443 21.4814 29.7473C22.4262 30.0483 23.2335 30.2132 23.7988 30.303C23.965 30.3293 24.1103 30.3488 24.2314 30.3635L25.4883 29.1067L22.2578 25.8801L20.7256 27.4163L20.2939 27.8479L19.7119 27.6614C18.5097 27.2759 17.1581 26.3751 15.8398 25.0188C14.5526 23.6944 13.6294 22.4037 13.2402 21.1897L13.0547 20.6096L15.0166 18.6428L11.791 15.4133L10.5352 16.6682Z" fill="#421D12"/>
</svg>
