<svg width="125" height="40" viewBox="0 0 125 40" fill="none" xmlns="http://www.w3.org/2000/svg">
<path d="M0 0H125V40H0V0Z" fill="#F28962"/>
<path d="M100.662 17.1099C100.923 17.1472 101.128 17.2079 101.278 17.2919C101.427 17.3759 101.502 17.5206 101.502 17.7259C101.502 18.0246 101.306 18.1739 100.914 18.1739C100.774 18.1739 100.526 18.1459 100.172 18.0899C99.1731 17.9592 98.3798 17.8939 97.7918 17.8939C97.4931 17.8939 97.2738 17.8986 97.1338 17.9079C96.9564 17.9172 96.8584 18.0199 96.8398 18.2159C96.8211 18.9439 96.8118 19.4899 96.8118 19.8539V20.4559C96.8211 20.5866 96.8584 20.7079 96.9238 20.8199C97.0824 21.1372 97.2084 21.4826 97.3018 21.8559C97.3951 22.2199 97.4418 22.5746 97.4418 22.9199C97.4418 23.6666 97.2598 24.3106 96.8958 24.8519C96.5318 25.3839 96.0931 25.8039 95.5798 26.1119C95.0758 26.4199 94.5718 26.6346 94.0678 26.7559C94.0024 26.7746 93.9558 26.7839 93.9278 26.7839C93.8624 26.7839 93.8298 26.7606 93.8298 26.7139C93.8298 26.6486 93.8764 26.5972 93.9698 26.5599C94.5951 26.2892 95.0851 25.9486 95.4398 25.5379C95.7944 25.1272 96.0371 24.7259 96.1678 24.3339C96.2984 23.9419 96.3684 23.6012 96.3778 23.3119C96.3778 23.2932 96.3498 23.3119 96.2938 23.3679C96.2378 23.4146 96.1724 23.4612 96.0978 23.5079C95.9951 23.5826 95.8878 23.6432 95.7758 23.6899C95.6638 23.7272 95.5658 23.7459 95.4818 23.7459C95.2204 23.7459 94.9871 23.6479 94.7818 23.4519C94.5858 23.2466 94.4224 23.0039 94.2918 22.7239C94.1798 22.4812 94.0864 22.2246 94.0118 21.9539C93.9464 21.6832 93.9138 21.4312 93.9138 21.1979C93.9138 20.7406 94.0444 20.3532 94.3058 20.0359C94.5764 19.7092 94.9264 19.5459 95.3558 19.5459C95.4771 19.5459 95.5891 19.5646 95.6918 19.6019C95.7664 19.6206 95.8131 19.6299 95.8318 19.6299C95.9531 19.6299 96.0184 19.5599 96.0278 19.4199C96.0744 18.9626 96.1024 18.6079 96.1118 18.3559C96.1118 18.2532 96.0791 18.1786 96.0138 18.1319C95.9578 18.0759 95.8831 18.0572 95.7898 18.0759C95.0244 18.2346 94.1238 18.5426 93.0878 18.9999C92.6864 19.2146 92.3224 19.3219 91.9958 19.3219C91.7344 19.3219 91.4731 19.2472 91.2118 19.0979C91.0064 18.9766 90.7964 18.7992 90.5818 18.5659C90.3671 18.3232 90.2598 18.1506 90.2598 18.0479C90.2598 18.0012 90.2924 17.9779 90.3578 17.9779C90.4138 17.9779 90.5538 18.0059 90.7778 18.0619C91.1511 18.1272 91.4358 18.1599 91.6318 18.1599C91.9958 18.1599 92.3271 18.1226 92.6258 18.0479C93.2138 17.9172 94.2824 17.7259 95.8318 17.4739C96.0091 17.4459 96.0978 17.3479 96.0978 17.1799C96.0978 16.9932 96.0791 16.6759 96.0418 16.2279C96.0231 15.9852 95.9624 15.7659 95.8598 15.5699C95.7664 15.3739 95.6591 15.2339 95.5378 15.1499C95.4724 15.1032 95.4024 15.0566 95.3278 15.0099C95.2624 14.9632 95.2298 14.9259 95.2298 14.8979C95.2298 14.8326 95.2951 14.7766 95.4258 14.7299C95.5564 14.6832 95.6778 14.6599 95.7898 14.6599C95.9671 14.6599 96.1491 14.6972 96.3358 14.7719C96.8491 14.9586 97.1058 15.2292 97.1058 15.5839C97.1058 15.6399 97.1011 15.6866 97.0918 15.7239C97.0824 15.7519 97.0778 15.7892 97.0778 15.8359C97.0778 15.9386 97.1338 16.0272 97.2458 16.1019C97.6658 16.3259 98.0298 16.5079 98.3378 16.6479C98.6458 16.7786 98.9444 16.8672 99.2338 16.9139C99.5418 16.9979 99.9011 17.0492 100.312 17.0679L100.662 17.1099ZM97.7218 17.2219C97.7684 17.2219 97.8338 17.2219 97.9178 17.2219C98.0111 17.2126 98.0764 17.2032 98.1138 17.1939C98.1604 17.1752 98.1838 17.1519 98.1838 17.1239C98.1838 17.0866 98.1511 17.0492 98.0858 17.0119C98.0298 16.9746 97.9924 16.9466 97.9738 16.9279C97.8618 16.8626 97.6378 16.7132 97.3018 16.4799C97.2364 16.4426 97.1758 16.4239 97.1198 16.4239C96.9984 16.4239 96.9331 16.4986 96.9238 16.6479C96.9051 16.8159 96.8958 16.9372 96.8958 17.0119C96.8958 17.2079 97.0358 17.2919 97.3158 17.2639C97.4091 17.2452 97.4884 17.2359 97.5538 17.2359C97.6191 17.2359 97.6751 17.2312 97.7218 17.2219ZM95.3418 22.5979C95.5471 22.5979 95.7104 22.5092 95.8318 22.3319C95.9624 22.1546 96.0278 21.8932 96.0278 21.5479C96.0278 21.2119 95.9531 20.8712 95.8038 20.5259C95.6544 20.1712 95.4398 19.9939 95.1598 19.9939C94.9171 19.9939 94.7164 20.1152 94.5578 20.3579C94.4084 20.6006 94.3338 20.8899 94.3338 21.2259C94.3338 21.5432 94.4364 21.8512 94.6418 22.1499C94.8564 22.4486 95.0898 22.5979 95.3418 22.5979Z" fill="white"/>
<path d="M78.7662 17.3761C78.8315 17.3761 78.9062 17.3107 78.9902 17.1801L79.1302 16.9421C79.1582 16.9047 79.1955 16.8441 79.2422 16.7601C79.2982 16.6667 79.3448 16.6014 79.3822 16.5641C79.4195 16.5174 79.4568 16.4941 79.4942 16.4941C79.5595 16.4941 79.7042 16.6061 79.9282 16.8301C80.1522 17.0447 80.3155 17.2314 80.4182 17.3901C80.4555 17.4367 80.4742 17.4927 80.4742 17.5581C80.4742 17.6141 80.4508 17.6654 80.4042 17.7121C80.3388 17.7587 80.2548 17.7821 80.1522 17.7821H78.9482C78.8548 17.7821 78.7802 17.8101 78.7242 17.8661C78.6775 17.9127 78.6542 17.9827 78.6542 18.0761V20.2461C78.6542 20.3487 78.6822 20.4234 78.7382 20.4701C78.8035 20.5167 78.8875 20.5261 78.9902 20.4981L80.2362 20.0921C80.3202 20.0641 80.3855 20.0501 80.4322 20.0501C80.4975 20.0501 80.5395 20.0687 80.5582 20.1061V20.1201C80.5582 20.1947 80.4928 20.2694 80.3622 20.3441C80.0915 20.5027 79.9048 20.6147 79.8022 20.6801C79.5408 20.8201 79.2282 21.0021 78.8642 21.2261C78.7242 21.2914 78.6542 21.4081 78.6542 21.5761V25.6361C78.6542 26.0747 78.5795 26.4014 78.4302 26.6161C78.2902 26.8401 77.9868 26.9941 77.5202 27.0781H77.4502C77.2915 27.0781 77.1982 26.9941 77.1702 26.8261C77.1235 26.5927 77.0535 26.4294 76.9602 26.3361C76.8108 26.1867 76.5775 26.0747 76.2602 26.0001C76.0735 25.9721 75.9802 25.9207 75.9802 25.8461C75.9802 25.7901 76.0548 25.7621 76.2042 25.7621C76.4468 25.7621 76.6942 25.7761 76.9462 25.8041L77.3382 25.8181C77.4408 25.8181 77.5108 25.7994 77.5482 25.7621C77.5855 25.7247 77.6042 25.6547 77.6042 25.5521V22.3041C77.6042 22.1361 77.5388 22.0521 77.4082 22.0521C77.3615 22.0521 77.3102 22.0661 77.2542 22.0941L76.6942 22.3881C76.5822 22.4534 76.5122 22.5094 76.4842 22.5561L76.4562 22.6121C76.4188 22.6774 76.3722 22.7101 76.3162 22.7101C76.2695 22.7101 76.2228 22.6914 76.1762 22.6541C76.1388 22.6167 76.1108 22.5701 76.0922 22.5141L75.8122 21.7441C75.7935 21.6881 75.7842 21.6461 75.7842 21.6181C75.7842 21.4967 75.8588 21.4127 76.0082 21.3661C76.1948 21.3194 76.6428 21.1934 77.3522 20.9881C77.5202 20.9414 77.6042 20.8341 77.6042 20.6661V18.0761C77.6042 17.9827 77.5762 17.9127 77.5202 17.8661C77.4735 17.8101 77.4035 17.7821 77.3102 17.7821H77.0162C76.7922 17.7914 76.5495 17.8287 76.2882 17.8941C76.2322 17.9127 76.1902 17.9221 76.1622 17.9221C76.0502 17.9221 75.9662 17.8614 75.9102 17.7401L75.8682 17.6421C75.8402 17.5861 75.8262 17.5301 75.8262 17.4741C75.8262 17.3527 75.9148 17.3014 76.0922 17.3201C76.2975 17.3387 76.5962 17.3574 76.9882 17.3761H77.3102C77.4035 17.3761 77.4735 17.3527 77.5202 17.3061C77.5762 17.2501 77.6042 17.1754 77.6042 17.0821V17.0121C77.6042 16.0787 77.5622 15.2434 77.4782 14.5061V14.4501C77.4782 14.3007 77.5528 14.2261 77.7022 14.2261C77.7488 14.2261 77.7862 14.2307 77.8142 14.2401C78.2622 14.3707 78.5748 14.4781 78.7522 14.5621C78.9295 14.6367 79.0182 14.7021 79.0182 14.7581C79.0182 14.8047 78.9762 14.8514 78.8922 14.8981L78.8502 14.9261C78.7195 15.0101 78.6542 15.1267 78.6542 15.2761V17.0821C78.6542 17.2781 78.6915 17.3761 78.7662 17.3761ZM86.4102 15.1361C86.5688 15.1361 86.6902 15.0801 86.7742 14.9681L86.9142 14.8001C86.9515 14.7627 87.0075 14.6974 87.0822 14.6041C87.1662 14.5107 87.2362 14.4641 87.2922 14.4641C87.3575 14.4641 87.5022 14.5714 87.7262 14.7861C87.9502 15.0007 88.1275 15.1967 88.2582 15.3741C88.2862 15.4301 88.3002 15.4814 88.3002 15.5281C88.3002 15.6121 88.2535 15.6681 88.1602 15.6961L88.0762 15.7101C87.9268 15.7287 87.8102 15.7894 87.7262 15.8921C87.2595 16.4054 86.8862 16.7881 86.6062 17.0401C86.5128 17.1241 86.4382 17.1661 86.3822 17.1661C86.3168 17.1661 86.2842 17.1241 86.2842 17.0401C86.2842 16.9934 86.2982 16.9281 86.3262 16.8441L86.5922 15.8641C86.6015 15.8361 86.6062 15.8034 86.6062 15.7661C86.6062 15.6167 86.5175 15.5421 86.3402 15.5421H85.8502C85.7568 15.5421 85.6822 15.5701 85.6262 15.6261C85.5795 15.6727 85.5562 15.7427 85.5562 15.8361V18.1741C85.5562 18.2581 85.5748 18.3141 85.6122 18.3421C85.6495 18.3607 85.7335 18.3701 85.8642 18.3701H87.2082C87.3108 18.3514 87.3808 18.3187 87.4182 18.2721C87.4742 18.2067 87.5628 17.9547 87.6842 17.5161C87.7028 17.4414 87.7262 17.3807 87.7542 17.3341C87.7915 17.2874 87.8195 17.2641 87.8382 17.2641C87.8848 17.2641 87.9128 17.3621 87.9222 17.5581L87.9362 18.0481C87.9362 18.1134 87.9502 18.1694 87.9782 18.2161C88.0155 18.2627 88.0762 18.3234 88.1602 18.3981C88.2442 18.4541 88.2862 18.5521 88.2862 18.6921C88.2862 18.9161 88.1602 19.0747 87.9082 19.1681C87.6655 19.2521 87.1988 19.2941 86.5082 19.2941H85.6122C85.2015 19.2941 84.9308 19.2334 84.8002 19.1121C84.6788 18.9814 84.6182 18.7434 84.6182 18.3981V15.8361C84.6182 15.7427 84.5902 15.6727 84.5342 15.6261C84.4875 15.5701 84.4175 15.5421 84.3242 15.5421H83.8482C83.6708 15.5421 83.5682 15.6354 83.5402 15.8221C83.4842 16.4287 83.3582 16.9561 83.1622 17.4041C82.9755 17.8521 82.6488 18.2674 82.1822 18.6501C81.7248 19.0327 81.0855 19.3687 80.2642 19.6581C80.2175 19.6767 80.1568 19.6861 80.0822 19.6861C80.0075 19.6861 79.9562 19.6674 79.9282 19.6301L79.9142 19.6021C79.9142 19.5367 79.9935 19.4621 80.1522 19.3781C80.7588 19.0607 81.2302 18.7201 81.5662 18.3561C81.9022 17.9921 82.1308 17.6141 82.2522 17.2221C82.3828 16.8207 82.4622 16.3587 82.4902 15.8361V15.8081C82.4902 15.7241 82.4622 15.6587 82.4062 15.6121C82.3595 15.5654 82.2942 15.5421 82.2102 15.5421H81.9022C81.7342 15.5421 81.6268 15.6354 81.5802 15.8221C81.4962 16.2794 81.3048 16.6107 81.0062 16.8161C80.8755 16.8907 80.7308 16.9281 80.5722 16.9281C80.4042 16.9281 80.2735 16.8814 80.1802 16.7881C80.1242 16.7414 80.0915 16.6947 80.0822 16.6481C80.0728 16.6014 80.0682 16.5734 80.0682 16.5641C80.0588 16.5361 80.0542 16.5034 80.0542 16.4661C80.0542 16.2141 80.1942 16.0134 80.4742 15.8641C80.6515 15.7707 80.8148 15.6214 80.9642 15.4161C81.1135 15.2014 81.2068 14.9681 81.2442 14.7161C81.2722 14.5294 81.3188 14.4361 81.3842 14.4361C81.4588 14.4361 81.5148 14.5247 81.5522 14.7021L81.5802 14.8701C81.6082 15.0474 81.7155 15.1361 81.9022 15.1361H86.4102ZM86.1582 21.5061C86.3075 21.5061 86.4242 21.4407 86.5082 21.3101L86.6762 21.0581C86.7135 21.0114 86.7602 20.9461 86.8162 20.8621C86.8815 20.7781 86.9328 20.7174 86.9702 20.6801C87.0075 20.6334 87.0448 20.6101 87.0822 20.6101C87.1475 20.6101 87.3155 20.7267 87.5862 20.9601C87.8568 21.1841 88.0575 21.3754 88.1882 21.5341C88.2348 21.5994 88.2582 21.6554 88.2582 21.7021C88.2582 21.7581 88.2302 21.8094 88.1742 21.8561C88.1088 21.9027 88.0248 21.9261 87.9222 21.9261H85.0242C84.8468 21.9261 84.7582 21.9867 84.7582 22.1081C84.7582 22.1547 84.7815 22.2107 84.8282 22.2761C85.2295 22.8734 85.7148 23.4147 86.2842 23.9001C86.8628 24.3761 87.4648 24.7541 88.0902 25.0341C88.2488 25.1087 88.3282 25.1601 88.3282 25.1881C88.3282 25.2161 88.3142 25.2394 88.2862 25.2581C88.2582 25.2767 88.2255 25.2954 88.1882 25.3141C88.1508 25.3234 88.1182 25.3327 88.0902 25.3421C87.8568 25.4541 87.6748 25.6594 87.5442 25.9581C87.4882 26.0887 87.4135 26.1541 87.3202 26.1541C87.2642 26.1541 87.2128 26.1354 87.1662 26.0981C86.0648 25.2767 85.2202 24.1801 84.6322 22.8081C84.5762 22.6774 84.5108 22.6121 84.4362 22.6121C84.4082 22.6121 84.3802 22.6354 84.3522 22.6821C84.3335 22.7194 84.3242 22.7754 84.3242 22.8501V23.5921C84.3428 24.5721 84.3755 25.5381 84.4222 26.4901V26.5601C84.4222 26.6814 84.3802 26.7794 84.2962 26.8541C84.1842 26.9287 84.0535 26.9941 83.9042 27.0501C83.7642 27.1061 83.6242 27.1341 83.4842 27.1341C83.3815 27.1341 83.3022 27.1061 83.2462 27.0501C83.1902 26.9941 83.1622 26.9287 83.1622 26.8541C83.2182 26.0794 83.2555 25.3094 83.2742 24.5441V23.8161C83.2742 23.7414 83.2602 23.6807 83.2322 23.6341C83.2042 23.5874 83.1668 23.5641 83.1202 23.5641C83.0548 23.5641 82.9895 23.6107 82.9242 23.7041C82.0375 24.7774 80.8942 25.6361 79.4942 26.2801C79.3262 26.3547 79.2235 26.3594 79.1862 26.2941C79.1768 26.2847 79.1722 26.2661 79.1722 26.2381C79.1722 26.1821 79.2375 26.1121 79.3682 26.0281C80.0775 25.5427 80.7028 24.9827 81.2442 24.3481C81.7948 23.7134 82.2428 23.0227 82.5882 22.2761C82.6162 22.2201 82.6302 22.1687 82.6302 22.1221C82.6302 21.9914 82.5415 21.9261 82.3642 21.9261H81.7902C81.3235 21.9354 80.8288 21.9867 80.3062 22.0801H80.2362C80.0962 22.0801 79.9982 22.0147 79.9422 21.8841L79.8862 21.7721C79.8582 21.7161 79.8442 21.6647 79.8442 21.6181C79.8442 21.5527 79.8675 21.5061 79.9142 21.4781C79.9608 21.4407 80.0262 21.4267 80.1102 21.4361C80.4462 21.4641 80.9315 21.4874 81.5662 21.5061H82.9802C83.1762 21.5061 83.2742 21.4081 83.2742 21.2121C83.2555 20.6614 83.2275 20.1714 83.1902 19.7421V19.7141C83.1902 19.5461 83.2602 19.4621 83.4002 19.4621L83.5262 19.4901C83.9462 19.6114 84.2355 19.7094 84.3942 19.7841C84.5622 19.8494 84.6462 19.9101 84.6462 19.9661C84.6462 19.9941 84.6275 20.0221 84.5902 20.0501C84.5622 20.0687 84.5435 20.0827 84.5342 20.0921H84.5202C84.3895 20.1667 84.3242 20.2881 84.3242 20.4561V21.2121C84.3242 21.3054 84.3475 21.3801 84.3942 21.4361C84.4502 21.4827 84.5248 21.5061 84.6182 21.5061H86.1582Z" fill="white"/>
<path d="M71.6256 17.95C71.9616 17.95 72.2556 18.0573 72.5076 18.272C72.7596 18.4867 72.8856 18.7667 72.8856 19.112C72.8856 19.56 72.6896 19.938 72.2976 20.246C71.9149 20.5447 71.4062 20.8247 70.7716 21.086L70.1276 21.324C69.0729 21.7253 68.5829 21.912 68.6576 21.884C68.4989 21.9587 68.4196 22.0707 68.4196 22.22C68.4009 22.416 68.4009 22.6167 68.4196 22.822C68.4196 22.906 68.4196 23.074 68.4196 23.326C68.4289 23.578 68.4289 23.7413 68.4196 23.816C68.4102 23.984 68.3449 24.1333 68.2236 24.264C68.1116 24.3947 67.9809 24.46 67.8316 24.46C67.6916 24.46 67.5656 24.3993 67.4536 24.278C67.3509 24.1567 67.2996 24.0167 67.2996 23.858C67.2996 23.8207 67.3182 23.606 67.3556 23.214C67.3556 23.158 67.3649 23.0553 67.3836 22.906V22.85C67.3836 22.7007 67.3229 22.626 67.2016 22.626C67.1362 22.626 67.0802 22.6447 67.0336 22.682C66.1749 23.2047 65.7456 23.7647 65.7456 24.362C65.7456 25.0433 66.4129 25.384 67.7476 25.384C68.0182 25.384 68.2609 25.3653 68.4756 25.328C68.6996 25.2907 68.9422 25.2393 69.2036 25.174C69.2502 25.1647 69.3669 25.1413 69.5536 25.104C69.7402 25.0573 69.9176 25.034 70.0856 25.034C70.2909 25.034 70.4496 25.076 70.5616 25.16C70.6736 25.244 70.7296 25.3607 70.7296 25.51C70.7296 25.8273 70.4589 26.0513 69.9176 26.182C69.3856 26.3127 68.8116 26.378 68.1956 26.378C67.1129 26.378 66.3429 26.21 65.8856 25.874C65.4376 25.5287 65.2136 25.0853 65.2136 24.544C65.2136 24.0587 65.3909 23.62 65.7456 23.228C66.1002 22.836 66.6042 22.458 67.2576 22.094C67.3976 22.01 67.4676 21.898 67.4676 21.758V21.548C67.4676 21.0533 67.3882 20.68 67.2296 20.428C67.0709 20.176 66.8842 20.05 66.6696 20.05C66.3709 20.05 66.0722 20.218 65.7736 20.554C65.4842 20.8807 65.1716 21.296 64.8356 21.8L64.6816 22.038C64.6536 22.0753 64.5836 22.178 64.4716 22.346C64.3596 22.514 64.2522 22.6447 64.1496 22.738C64.0469 22.8313 63.9536 22.878 63.8696 22.878C63.6922 22.878 63.5522 22.808 63.4496 22.668C63.3562 22.528 63.3096 22.3553 63.3096 22.15C63.3096 21.8793 63.4262 21.632 63.6596 21.408L63.8696 21.212C64.1309 20.9693 64.3549 20.75 64.5416 20.554C64.7376 20.3487 64.9196 20.12 65.0876 19.868C65.4796 19.2613 65.8062 18.594 66.0676 17.866C66.0862 17.81 66.0956 17.768 66.0956 17.74C66.0956 17.6747 66.0676 17.628 66.0116 17.6C65.9649 17.5627 65.8949 17.5487 65.8016 17.558C65.5029 17.5953 65.2836 17.614 65.1436 17.614C64.8262 17.614 64.5509 17.5533 64.3176 17.432C64.0936 17.3013 63.8229 17.096 63.5056 16.816C63.4682 16.7787 63.4496 16.746 63.4496 16.718C63.4496 16.69 63.4729 16.676 63.5196 16.676C63.5569 16.676 63.6222 16.69 63.7156 16.718C64.0516 16.8393 64.3922 16.9 64.7376 16.9C65.1949 16.9 65.6849 16.8253 66.2076 16.676C66.3569 16.6387 66.4456 16.536 66.4736 16.368C66.5016 16.2 66.5156 16.0507 66.5156 15.92C66.5156 15.528 66.3662 15.2293 66.0676 15.024C65.9929 14.9773 65.9556 14.9307 65.9556 14.884C65.9649 14.8 65.9929 14.7347 66.0396 14.688C66.0862 14.632 66.1516 14.604 66.2356 14.604C66.3662 14.604 66.5482 14.632 66.7816 14.688C67.0242 14.744 67.1829 14.814 67.2576 14.898C67.3229 14.9727 67.3556 15.0893 67.3556 15.248V15.276C67.3556 15.3413 67.3696 15.4113 67.3976 15.486C67.4349 15.5513 67.4909 15.598 67.5656 15.626C67.6869 15.654 67.8082 15.668 67.9296 15.668C68.0509 15.668 68.1536 15.654 68.2376 15.626C68.3496 15.6073 68.4476 15.598 68.5316 15.598C68.7556 15.598 68.8676 15.6867 68.8676 15.864C68.8676 16.0227 68.7882 16.186 68.6296 16.354C68.4802 16.522 68.2842 16.676 68.0416 16.816C67.7896 16.956 67.4629 17.096 67.0616 17.236C66.9216 17.292 66.8282 17.3853 66.7816 17.516C66.5669 18.1787 66.3242 18.7993 66.0536 19.378C66.0256 19.4433 66.0116 19.504 66.0116 19.56C66.0116 19.6347 66.0489 19.672 66.1236 19.672L66.2356 19.644C66.4036 19.6067 66.5296 19.588 66.6136 19.588C67.3602 19.588 67.8596 19.9287 68.1116 20.61C68.1582 20.7127 68.1956 20.764 68.2236 20.764C68.2702 20.764 68.3122 20.7173 68.3496 20.624C68.5829 20.1013 68.9282 19.588 69.3856 19.084C69.6656 18.7853 70.0062 18.524 70.4076 18.3C70.8182 18.0667 71.2242 17.95 71.6256 17.95ZM67.3416 15.836C67.3042 15.836 67.2622 15.9107 67.2156 16.06C67.2156 16.2 67.2436 16.256 67.2996 16.228L67.4536 16.13C67.5189 16.0927 67.5516 16.0553 67.5516 16.018C67.5516 15.9807 67.5142 15.9387 67.4396 15.892L67.3696 15.836H67.3416ZM70.4496 20.428C70.8789 20.176 71.2196 19.9053 71.4716 19.616C71.7329 19.3173 71.8636 19.0607 71.8636 18.846C71.8636 18.5567 71.6816 18.412 71.3176 18.412C71.0749 18.412 70.7996 18.496 70.4916 18.664C70.1836 18.8227 69.8942 19.0467 69.6236 19.336C69.4369 19.5413 69.2549 19.7887 69.0776 20.078C68.9096 20.3673 68.7696 20.6613 68.6576 20.96C68.6202 21.044 68.6016 21.1327 68.6016 21.226C68.6016 21.2727 68.6109 21.31 68.6296 21.338C68.6482 21.366 68.6669 21.3707 68.6856 21.352L68.9936 21.198C69.5816 20.9087 70.0669 20.652 70.4496 20.428Z" fill="white"/>
<path d="M55.9597 15.1081C56.1091 15.1081 56.2257 15.0427 56.3097 14.9121L56.4357 14.7301C56.4731 14.6834 56.5104 14.6321 56.5477 14.5761C56.5851 14.5201 56.6224 14.4687 56.6597 14.4221C56.7064 14.3754 56.7484 14.3521 56.7857 14.3521C56.8511 14.3521 57.0097 14.4594 57.2617 14.6741C57.5137 14.8887 57.7051 15.0754 57.8357 15.2341C57.8731 15.2807 57.8917 15.3321 57.8917 15.3881C57.8917 15.4534 57.8544 15.5141 57.7797 15.5701L57.6397 15.6401C57.4717 15.6961 57.3877 15.8034 57.3877 15.9621V17.0961C57.4157 18.2254 57.4437 19.0514 57.4717 19.5741V19.6441C57.4717 19.7747 57.4251 19.8681 57.3317 19.9241C57.2197 19.9987 57.0844 20.0641 56.9257 20.1201C56.7671 20.1761 56.6224 20.2041 56.4917 20.2041C56.4637 20.2041 56.4404 20.1994 56.4217 20.1901C56.3097 20.1621 56.2537 20.0734 56.2537 19.9241C56.2724 19.8494 56.2817 19.7934 56.2817 19.7561L56.3097 19.5181V19.4621C56.3097 19.3687 56.2817 19.2987 56.2257 19.2521C56.1791 19.1961 56.1091 19.1681 56.0157 19.1681H52.0257C51.8297 19.1681 51.7317 19.2521 51.7317 19.4201C51.7411 19.4854 51.7457 19.5601 51.7457 19.6441V19.7561C51.7457 19.8774 51.7131 19.9614 51.6477 20.0081C51.5451 20.0827 51.4191 20.1481 51.2697 20.2041C51.1204 20.2601 50.9664 20.2881 50.8077 20.2881C50.7331 20.2881 50.6724 20.2601 50.6257 20.2041C50.5884 20.1481 50.5697 20.0827 50.5697 20.0081C50.6071 19.5787 50.6351 19.0281 50.6537 18.3561V17.3901C50.6537 16.4754 50.6117 15.6541 50.5277 14.9261V14.8701C50.5277 14.7301 50.5884 14.6601 50.7097 14.6601C50.7657 14.6601 50.8124 14.6694 50.8497 14.6881L51.6477 15.0381C51.7504 15.0847 51.8671 15.1081 51.9977 15.1081H55.9597ZM56.0157 18.7481C56.1091 18.7481 56.1791 18.7247 56.2257 18.6781C56.2817 18.6221 56.3097 18.5474 56.3097 18.4541V15.8081C56.3097 15.7147 56.2817 15.6447 56.2257 15.5981C56.1791 15.5421 56.1091 15.5141 56.0157 15.5141H52.0257C51.9324 15.5141 51.8577 15.5421 51.8017 15.5981C51.7551 15.6447 51.7317 15.7147 51.7317 15.8081V18.4541C51.7317 18.5474 51.7551 18.6221 51.8017 18.6781C51.8577 18.7247 51.9324 18.7481 52.0257 18.7481H56.0157ZM49.8417 25.7481C49.7484 25.7481 49.6737 25.7761 49.6177 25.8321C49.5711 25.8787 49.5477 25.9487 49.5477 26.0421V26.0561C49.5757 26.3267 49.5851 26.4434 49.5757 26.4061V26.4901C49.5757 26.6021 49.5431 26.6907 49.4777 26.7561C49.3937 26.8401 49.2771 26.9054 49.1277 26.9521C48.9877 27.0081 48.8384 27.0361 48.6797 27.0361C48.5957 27.0361 48.5304 27.0081 48.4837 26.9521C48.4371 26.8961 48.4137 26.8307 48.4137 26.7561C48.4511 26.2521 48.4837 25.5707 48.5117 24.7121V23.5501C48.5117 22.6354 48.4697 21.8141 48.3857 21.0861V21.0301C48.3857 20.8901 48.4464 20.8201 48.5677 20.8201C48.6237 20.8201 48.6704 20.8294 48.7077 20.8481L49.4497 21.1701C49.5524 21.2167 49.6691 21.2401 49.7997 21.2401H51.7877C51.9371 21.2401 52.0584 21.1794 52.1517 21.0581L52.2497 20.9321C52.2871 20.8947 52.3384 20.8341 52.4037 20.7501C52.4784 20.6567 52.5437 20.6101 52.5997 20.6101C52.6651 20.6101 52.8191 20.6987 53.0617 20.8761C53.3137 21.0534 53.5097 21.2167 53.6497 21.3661C53.6871 21.4127 53.7057 21.4641 53.7057 21.5201C53.7057 21.5854 53.6637 21.6461 53.5797 21.7021L53.4537 21.7721C53.3697 21.8094 53.3044 21.8514 53.2577 21.8981C53.2204 21.9447 53.2017 22.0101 53.2017 22.0941V23.3821C53.2297 24.6234 53.2577 25.5474 53.2857 26.1541V26.2241C53.2857 26.3547 53.2391 26.4481 53.1457 26.5041C53.0337 26.5787 52.8984 26.6441 52.7397 26.7001C52.5811 26.7561 52.4364 26.7841 52.3057 26.7841H52.2637C52.2077 26.7747 52.1657 26.7421 52.1377 26.6861C52.1097 26.6301 52.0957 26.5694 52.0957 26.5041C52.1144 26.4294 52.1237 26.3734 52.1237 26.3361L52.1517 26.0981V26.0421C52.1517 25.9487 52.1237 25.8787 52.0677 25.8321C52.0211 25.7761 51.9511 25.7481 51.8577 25.7481H49.8417ZM56.0997 25.7481C56.0064 25.7481 55.9317 25.7761 55.8757 25.8321C55.8291 25.8787 55.8057 25.9487 55.8057 26.0421V26.0701L55.8337 26.4341V26.5321C55.8337 26.6441 55.8011 26.7281 55.7357 26.7841C55.6424 26.8587 55.5164 26.9241 55.3577 26.9801C55.2084 27.0361 55.0591 27.0641 54.9097 27.0641C54.8351 27.0641 54.7744 27.0361 54.7277 26.9801C54.6811 26.9241 54.6577 26.8587 54.6577 26.7841C54.7044 26.2707 54.7371 25.5847 54.7557 24.7261V23.5501C54.7557 22.6354 54.7137 21.8141 54.6297 21.0861V21.0301C54.6297 20.8901 54.6904 20.8201 54.8117 20.8201C54.8677 20.8201 54.9144 20.8294 54.9517 20.8481L55.6937 21.1701C55.7964 21.2167 55.9131 21.2401 56.0437 21.2401H58.1297C58.2791 21.2401 58.4004 21.1794 58.4937 21.0581L58.5917 20.9321C58.6291 20.8947 58.6804 20.8341 58.7457 20.7501C58.8204 20.6567 58.8857 20.6101 58.9417 20.6101C59.0071 20.6101 59.1657 20.7034 59.4177 20.8901C59.6697 21.0674 59.8611 21.2261 59.9917 21.3661C60.0384 21.4314 60.0617 21.4827 60.0617 21.5201C60.0617 21.5947 60.0197 21.6554 59.9357 21.7021C59.8891 21.7394 59.8377 21.7627 59.7817 21.7721C59.6231 21.8467 59.5437 21.9587 59.5437 22.1081V23.4241C59.5717 24.7027 59.5997 25.6547 59.6277 26.2801V26.3501C59.6277 26.4807 59.5764 26.5741 59.4737 26.6301C59.3524 26.6954 59.2171 26.7514 59.0677 26.7981C58.9184 26.8447 58.7831 26.8681 58.6617 26.8681H58.6057C58.4937 26.8401 58.4377 26.7467 58.4377 26.5881C58.4564 26.5134 58.4657 26.4574 58.4657 26.4201C58.4657 26.4107 58.4751 26.3127 58.4937 26.1261V26.0421C58.4937 25.9487 58.4657 25.8787 58.4097 25.8321C58.3631 25.7761 58.2931 25.7481 58.1997 25.7481H56.0997ZM49.8417 21.6461C49.7484 21.6461 49.6737 21.6741 49.6177 21.7301C49.5711 21.7767 49.5477 21.8467 49.5477 21.9401V25.0481C49.5477 25.1414 49.5711 25.2161 49.6177 25.2721C49.6737 25.3187 49.7484 25.3421 49.8417 25.3421H51.8577C51.9511 25.3421 52.0211 25.3187 52.0677 25.2721C52.1237 25.2161 52.1517 25.1414 52.1517 25.0481V21.9401C52.1517 21.8467 52.1237 21.7767 52.0677 21.7301C52.0211 21.6741 51.9511 21.6461 51.8577 21.6461H49.8417ZM56.0997 21.6461C56.0064 21.6461 55.9317 21.6741 55.8757 21.7301C55.8291 21.7767 55.8057 21.8467 55.8057 21.9401V25.0481C55.8057 25.1414 55.8291 25.2161 55.8757 25.2721C55.9317 25.3187 56.0064 25.3421 56.0997 25.3421H58.1997C58.2931 25.3421 58.3631 25.3187 58.4097 25.2721C58.4657 25.2161 58.4937 25.1414 58.4937 25.0481V21.9401C58.4937 21.8467 58.4657 21.7767 58.4097 21.7301C58.3631 21.6741 58.2931 21.6461 58.1997 21.6461H56.0997Z" fill="white"/>
<path d="M43.9055 18.3981C44.0548 18.3981 44.1715 18.3327 44.2555 18.2021L44.3675 18.0341C44.3955 17.9967 44.4328 17.9454 44.4795 17.8801C44.5262 17.8054 44.5635 17.7494 44.5915 17.7121C44.6288 17.6747 44.6662 17.6561 44.7035 17.6561C44.7782 17.6561 44.9415 17.7634 45.1935 17.9781C45.4548 18.1834 45.6508 18.3701 45.7815 18.5381C45.8188 18.5847 45.8375 18.6361 45.8375 18.6921C45.8375 18.7574 45.7955 18.8181 45.7115 18.8741L45.5715 18.9441C45.4035 19.0001 45.3195 19.1074 45.3195 19.2661V25.6361C45.3195 25.9161 45.2868 26.1447 45.2215 26.3221C45.1655 26.5087 45.0442 26.6627 44.8575 26.7841C44.6802 26.9147 44.4142 27.0081 44.0595 27.0641H43.9895C43.8495 27.0641 43.7562 26.9801 43.7095 26.8121C43.6628 26.5881 43.5835 26.4247 43.4715 26.3221C43.2848 26.1634 43.0002 26.0421 42.6175 25.9581C42.4308 25.9301 42.3375 25.8787 42.3375 25.8041C42.3375 25.7574 42.4075 25.7341 42.5475 25.7341C42.7248 25.7341 43.0188 25.7527 43.4295 25.7901L43.9475 25.8181C44.0688 25.8181 44.1482 25.7947 44.1855 25.7481C44.2322 25.7014 44.2555 25.6267 44.2555 25.5241V19.0981C44.2555 19.0047 44.2275 18.9347 44.1715 18.8881C44.1248 18.8321 44.0548 18.8041 43.9615 18.8041H41.7915C41.6982 18.8041 41.6235 18.8321 41.5675 18.8881C41.5208 18.9347 41.4975 19.0047 41.4975 19.0981V20.0501C41.4975 20.1994 41.5068 20.2881 41.5255 20.3161C41.5535 20.3441 41.6282 20.3581 41.7495 20.3581H42.9535C43.0282 20.3581 43.0795 20.3534 43.1075 20.3441C43.1448 20.3347 43.1728 20.3067 43.1915 20.2601C43.2382 20.1947 43.2988 20.0127 43.3735 19.7141C43.4295 19.5367 43.4855 19.4481 43.5415 19.4481C43.6068 19.4481 43.6395 19.5461 43.6395 19.7421L43.6535 19.9941C43.6535 20.1341 43.7282 20.2507 43.8775 20.3441C43.9242 20.3814 43.9522 20.4141 43.9615 20.4421C43.9802 20.4701 43.9895 20.5121 43.9895 20.5681C43.9895 20.7641 43.9055 20.9134 43.7375 21.0161C43.5788 21.1187 43.3128 21.1701 42.9395 21.1701H41.6375C41.3295 21.1701 41.1008 21.1421 40.9515 21.0861C40.8115 21.0301 40.7135 20.9227 40.6575 20.7641C40.6108 20.6054 40.5875 20.3581 40.5875 20.0221V19.0981C40.5875 19.0047 40.5595 18.9347 40.5035 18.8881C40.4568 18.8321 40.3868 18.8041 40.2935 18.8041H39.5375C39.3695 18.8041 39.2575 18.8881 39.2015 19.0561C39.0055 19.7561 38.6788 20.3301 38.2215 20.7781C37.7735 21.2167 37.1668 21.5714 36.4015 21.8421C36.3175 21.8701 36.2522 21.8841 36.2055 21.8841C36.1308 21.8841 36.0888 21.8654 36.0795 21.8281V21.8001C36.0795 21.7441 36.1495 21.6741 36.2895 21.5901C36.8215 21.2914 37.2322 20.9414 37.5215 20.5401C37.8202 20.1387 38.0302 19.6674 38.1515 19.1261L38.1655 19.0421C38.1655 18.9674 38.1375 18.9114 38.0815 18.8741C38.0348 18.8274 37.9695 18.8041 37.8855 18.8041H36.0655C35.9722 18.8041 35.8975 18.8321 35.8415 18.8881C35.7948 18.9347 35.7715 19.0047 35.7715 19.0981V23.3821C35.7902 24.3994 35.8228 25.4261 35.8695 26.4621V26.5321C35.8695 26.6534 35.8275 26.7514 35.7435 26.8261C35.6408 26.9101 35.5102 26.9801 35.3515 27.0361C35.2022 27.1014 35.0482 27.1341 34.8895 27.1341C34.8055 27.1341 34.7308 27.1061 34.6655 27.0501C34.6002 26.9941 34.5675 26.9287 34.5675 26.8541C34.6048 26.3034 34.6375 25.7714 34.6655 25.2581C34.6935 24.7354 34.7122 24.0541 34.7215 23.2141V20.6661C34.7215 19.7607 34.6795 18.9394 34.5955 18.2021V18.1461C34.5955 18.0061 34.6562 17.9361 34.7775 17.9361C34.8335 17.9361 34.8802 17.9454 34.9175 17.9641L35.7015 18.3141C35.8322 18.3701 35.9535 18.3981 36.0655 18.3981H37.6055C37.7268 18.3981 37.8108 18.3887 37.8575 18.3701C37.9135 18.3421 37.9275 18.3047 37.8995 18.2581C37.8622 18.2021 37.8342 18.1414 37.8155 18.0761C37.7222 17.6374 37.5355 17.1941 37.2555 16.7461C37.1528 16.5874 37.1155 16.4987 37.1435 16.4801C37.1622 16.4614 36.9615 16.4521 36.5415 16.4521H36.0935C35.5522 16.4614 34.9642 16.5127 34.3295 16.6061H34.2455C34.1148 16.6061 34.0215 16.5454 33.9655 16.4241L33.8955 16.2981C33.8675 16.2421 33.8535 16.1861 33.8535 16.1301C33.8535 16.0741 33.8768 16.0321 33.9235 16.0041C33.9702 15.9667 34.0355 15.9527 34.1195 15.9621C34.4368 15.9901 34.9175 16.0134 35.5615 16.0321H39.1175C39.3135 16.0321 39.4115 15.9341 39.4115 15.7381C39.3928 15.1781 39.3695 14.7814 39.3415 14.5481V14.5201C39.3415 14.3521 39.4162 14.2681 39.5655 14.2681C39.6122 14.2681 39.6495 14.2727 39.6775 14.2821C40.4708 14.5061 40.8675 14.6741 40.8675 14.7861C40.8675 14.8327 40.8255 14.8794 40.7415 14.9261L40.6995 14.9541C40.5688 15.0381 40.5035 15.1547 40.5035 15.3041V15.7381C40.5035 15.8314 40.5268 15.9061 40.5735 15.9621C40.6295 16.0087 40.7042 16.0321 40.7975 16.0321H43.8215C43.9708 16.0321 44.0875 15.9714 44.1715 15.8501L44.3955 15.5561C44.4328 15.5094 44.4842 15.4394 44.5495 15.3461C44.6242 15.2527 44.6802 15.1827 44.7175 15.1361C44.7642 15.0894 44.8062 15.0661 44.8435 15.0661C44.9182 15.0661 45.1095 15.1921 45.4175 15.4441C45.7348 15.6961 45.9635 15.9061 46.1035 16.0741C46.1502 16.1207 46.1735 16.1721 46.1735 16.2281C46.1735 16.2841 46.1455 16.3354 46.0895 16.3821C46.0148 16.4287 45.9309 16.4521 45.8375 16.4521H43.0095C42.8788 16.4521 42.7622 16.4754 42.6595 16.5221C42.5662 16.5594 42.5615 16.5874 42.6455 16.6061C43.0188 16.6901 43.2055 16.7741 43.2055 16.8581C43.2055 16.8954 43.1635 16.9327 43.0795 16.9701L43.0235 16.9981C42.9022 17.0541 42.7995 17.1287 42.7155 17.2221C42.5568 17.4461 42.3235 17.7167 42.0155 18.0341C41.9502 18.0994 41.9175 18.1647 41.9175 18.2301C41.9175 18.2767 41.9408 18.3187 41.9875 18.3561C42.0342 18.3841 42.0948 18.3981 42.1695 18.3981H43.9055ZM41.6795 16.6901C41.6795 16.6154 41.6515 16.5594 41.5955 16.5221C41.5488 16.4754 41.4835 16.4521 41.3995 16.4521H37.9135C37.7735 16.4521 37.7035 16.4754 37.7035 16.5221C37.7035 16.5687 37.7688 16.6201 37.8995 16.6761C38.2262 16.8441 38.4642 17.0307 38.6135 17.2361C38.7722 17.4414 38.8515 17.6421 38.8515 17.8381C38.8515 17.9407 38.8328 18.0294 38.7955 18.1041C38.7675 18.1694 38.7535 18.2301 38.7535 18.2861C38.7535 18.3607 38.8188 18.3981 38.9495 18.3981H40.9095C41.0775 18.3981 41.1895 18.3234 41.2455 18.1741C41.2828 18.0434 41.3155 17.9454 41.3435 17.8801C41.5115 17.3201 41.6188 16.9514 41.6655 16.7741L41.6795 16.6901ZM41.0355 21.9541C41.1848 21.9541 41.3015 21.8934 41.3855 21.7721L41.4835 21.6461C41.5115 21.6087 41.5582 21.5481 41.6235 21.4641C41.6982 21.3707 41.7635 21.3241 41.8195 21.3241C41.8848 21.3241 42.0202 21.4081 42.2255 21.5761C42.4402 21.7441 42.6035 21.8981 42.7155 22.0381C42.7528 22.0847 42.7715 22.1361 42.7715 22.1921C42.7715 22.2574 42.7295 22.3181 42.6455 22.3741L42.6035 22.4021C42.4355 22.4581 42.3515 22.5654 42.3515 22.7241V23.4661C42.3795 24.2314 42.4028 24.7914 42.4215 25.1461V25.2161C42.4215 25.3467 42.3702 25.4401 42.2675 25.4961C42.1648 25.5521 42.0435 25.6034 41.9035 25.6501C41.7635 25.6874 41.6375 25.7061 41.5255 25.7061C41.4508 25.7061 41.3948 25.6734 41.3575 25.6081C41.3295 25.5521 41.3155 25.5054 41.3155 25.4681C41.3155 25.4214 41.3248 25.3701 41.3435 25.3141C41.3622 25.2021 41.3715 25.1134 41.3715 25.0481C41.3715 25.0107 41.3435 24.9827 41.2875 24.9641C41.2408 24.9361 41.1708 24.9221 41.0775 24.9221H38.8655C38.7722 24.9221 38.6975 24.9501 38.6415 25.0061C38.5948 25.0527 38.5715 25.1227 38.5715 25.2161V25.5381C38.5715 25.5941 38.4782 25.6641 38.2915 25.7481C38.1142 25.8227 37.9322 25.8601 37.7455 25.8601C37.6708 25.8601 37.6148 25.8321 37.5775 25.7761C37.5402 25.7201 37.5215 25.6547 37.5215 25.5801C37.5495 25.3094 37.5682 25.0434 37.5775 24.7821L37.5915 24.4041V23.6621C37.5915 22.9994 37.5635 22.3834 37.5075 21.8141V21.7581C37.5075 21.6181 37.5682 21.5481 37.6895 21.5481C37.7455 21.5481 37.7922 21.5574 37.8295 21.5761L38.4735 21.8701C38.6042 21.9261 38.7255 21.9541 38.8375 21.9541H41.0355ZM38.8655 22.3601C38.7722 22.3601 38.6975 22.3881 38.6415 22.4441C38.5948 22.4907 38.5715 22.5607 38.5715 22.6541V24.2081C38.5715 24.3014 38.5948 24.3761 38.6415 24.4321C38.6975 24.4787 38.7722 24.5021 38.8655 24.5021H41.0775C41.1708 24.5021 41.2408 24.4787 41.2875 24.4321C41.3435 24.3761 41.3715 24.3014 41.3715 24.2081V22.6541C41.3715 22.5607 41.3435 22.4907 41.2875 22.4441C41.2408 22.3881 41.1708 22.3601 41.0775 22.3601H38.8655Z" fill="white"/>
<path d="M23.2368 26.7949L18.0189 21.5769C17.6022 21.9317 17.1231 22.2063 16.5814 22.4007C16.0397 22.5951 15.4954 22.6924 14.9485 22.6924C13.6138 22.6924 12.4841 22.2303 11.5595 21.3063C10.6351 20.3823 10.1729 19.2533 10.1729 17.9194C10.1729 16.5854 10.6349 15.4555 11.5589 14.5297C12.4829 13.604 13.6119 13.1411 14.9458 13.1411C16.2798 13.1411 17.4097 13.6033 18.3356 14.5278C19.2613 15.4524 19.7241 16.582 19.7241 17.9167C19.7241 18.4958 19.6215 19.0561 19.4164 19.5978C19.2113 20.1394 18.942 20.6026 18.6087 20.9872L23.8266 26.2053L23.2368 26.7949ZM14.9485 21.859C16.0542 21.859 16.9876 21.4784 17.7489 20.7172C18.5101 19.956 18.8908 19.0226 18.8908 17.9167C18.8908 16.8109 18.5101 15.8774 17.7489 15.1163C16.9876 14.3551 16.0542 13.9744 14.9485 13.9744C13.8426 13.9744 12.9092 14.3551 12.1481 15.1163C11.3868 15.8774 11.0062 16.8109 11.0062 17.9167C11.0062 19.0226 11.3868 19.956 12.1481 20.7172C12.9092 21.4784 13.8426 21.859 14.9485 21.859Z" fill="white"/>
</svg>
