<svg width="45" height="105" viewBox="0 0 45 105" fill="none" xmlns="http://www.w3.org/2000/svg">
<path d="M15 105C6.71573 105 0 98.2843 0 90V15C0 6.71573 6.71573 0 15 0H45V105H15Z" fill="#421D12"/>
<path d="M23.4648 85.9251C23.5348 85.9251 23.7048 86.0401 23.9748 86.2701C24.2548 86.5001 24.4598 86.7001 24.5898 86.8701C24.6398 86.9401 24.6648 87.0001 24.6648 87.0501C24.6648 87.1101 24.6348 87.1651 24.5748 87.2151C24.4948 87.2651 24.3998 87.2901 24.2898 87.2901H21.9348C21.8348 87.2901 21.7548 87.3201 21.6948 87.3801C21.6448 87.4301 21.6198 87.5051 21.6198 87.6051V89.0451C21.6198 89.1451 21.6448 89.2251 21.6948 89.2851C21.7548 89.3351 21.8348 89.3601 21.9348 89.3601H22.3698C22.5298 89.3601 22.6548 89.2901 22.7448 89.1501L22.9248 88.8801C22.9548 88.8401 22.9998 88.7751 23.0598 88.6851C23.1198 88.5851 23.1698 88.5151 23.2098 88.4751C23.2598 88.4251 23.3048 88.4001 23.3448 88.4001C23.4148 88.4001 23.5848 88.5251 23.8548 88.7751C24.1348 89.0151 24.3348 89.2201 24.4548 89.3901C24.4948 89.4401 24.5148 89.4951 24.5148 89.5551C24.5148 89.6151 24.4848 89.6701 24.4248 89.7201C24.3448 89.7701 24.2548 89.7951 24.1548 89.7951H21.9348C21.8348 89.7951 21.7548 89.8251 21.6948 89.8851C21.6448 89.9351 21.6198 90.0101 21.6198 90.1101V90.8301C21.6498 91.6201 21.6748 92.2051 21.6948 92.5851V92.6601C21.6948 92.8001 21.6498 92.9001 21.5598 92.9601C21.3298 93.1301 21.0448 93.2151 20.7048 93.2151C20.6148 93.2151 20.5448 93.1851 20.4948 93.1251C20.4448 93.0651 20.4198 92.9951 20.4198 92.9151C20.4698 92.4251 20.5048 91.7651 20.5248 90.9351V90.1101C20.5248 90.0101 20.4948 89.9351 20.4348 89.8851C20.3848 89.8251 20.3098 89.7951 20.2098 89.7951H19.7148C19.3048 89.8151 18.9148 89.8651 18.5448 89.9451H18.4548C18.3148 89.9451 18.2148 89.8801 18.1548 89.7501L18.0948 89.6451C18.0648 89.5851 18.0498 89.5301 18.0498 89.4801C18.0498 89.4201 18.0748 89.3701 18.1248 89.3301C18.1848 89.2901 18.2598 89.2751 18.3498 89.2851C18.6398 89.3151 19.0798 89.3401 19.6698 89.3601H20.2098C20.3098 89.3601 20.3848 89.3351 20.4348 89.2851C20.4948 89.2251 20.5248 89.1451 20.5248 89.0451V87.6051C20.5248 87.5051 20.4948 87.4301 20.4348 87.3801C20.3848 87.3201 20.3098 87.2901 20.2098 87.2901H19.6548C19.1848 87.3101 18.7448 87.3601 18.3348 87.4401C18.3148 87.4501 18.2798 87.4551 18.2298 87.4551C18.0998 87.4551 18.0048 87.3851 17.9448 87.2451L17.8848 87.1251C17.8548 87.0651 17.8398 87.0101 17.8398 86.9601C17.8398 86.8901 17.8648 86.8401 17.9148 86.8101C17.9648 86.7701 18.0348 86.7551 18.1248 86.7651C18.4848 86.7951 19.0048 86.8201 19.6848 86.8401H21.3348C21.5348 86.8401 21.6548 86.7501 21.6948 86.5701C21.8548 85.9201 21.9698 85.2251 22.0398 84.4851V84.4551C22.0398 84.2551 21.9348 84.1551 21.7248 84.1551H20.3148C19.7048 84.1651 19.0448 84.2201 18.3348 84.3201H18.2448C18.1048 84.3201 18.0048 84.2551 17.9448 84.1251L17.8848 84.0201C17.8548 83.9601 17.8398 83.9051 17.8398 83.8551C17.8398 83.7951 17.8648 83.7451 17.9148 83.7051C17.9748 83.6651 18.0498 83.6501 18.1398 83.6601C18.4698 83.6901 18.9598 83.7151 19.6098 83.7351H20.2098C20.3098 83.7351 20.3848 83.7101 20.4348 83.6601C20.4948 83.6001 20.5248 83.5201 20.5248 83.4201V82.1601C20.5248 82.0601 20.4948 81.9851 20.4348 81.9351C20.3848 81.8751 20.3098 81.8451 20.2098 81.8451H19.7748C19.4148 81.8551 19.0548 81.9001 18.6948 81.9801C18.6648 81.9901 18.6298 81.9951 18.5898 81.9951C18.4598 81.9951 18.3648 81.9301 18.3048 81.8001L18.2448 81.6951C18.2148 81.6351 18.1998 81.5801 18.1998 81.5301C18.1998 81.4701 18.2248 81.4201 18.2748 81.3801C18.3348 81.3401 18.4098 81.3251 18.4998 81.3351C18.7698 81.3651 19.1798 81.3901 19.7298 81.4101H20.2098C20.4198 81.4101 20.5248 81.3051 20.5248 81.0951C20.5048 80.5651 20.4748 80.0901 20.4348 79.6701V79.6401C20.4348 79.4601 20.5098 79.3701 20.6598 79.3701L20.7948 79.4001C21.2348 79.5301 21.5398 79.6351 21.7098 79.7151C21.8898 79.7851 21.9798 79.8501 21.9798 79.9101C21.9798 79.9401 21.9598 79.9701 21.9198 80.0001C21.8898 80.0201 21.8698 80.0351 21.8598 80.0451L21.8298 80.0601C21.6898 80.1501 21.6198 80.2751 21.6198 80.4351V81.0951C21.6198 81.1951 21.6448 81.2751 21.6948 81.3351C21.7548 81.3851 21.8348 81.4101 21.9348 81.4101H22.2348C22.3948 81.4101 22.5198 81.3401 22.6098 81.2001L22.7748 80.9601C22.8148 80.9001 22.8598 80.8301 22.9098 80.7501C22.9698 80.6601 23.0198 80.5951 23.0598 80.5551C23.0998 80.5151 23.1398 80.4951 23.1798 80.4951C23.2398 80.4951 23.3648 80.5751 23.5548 80.7351C23.7448 80.8851 23.9198 81.0501 24.0798 81.2301C24.2498 81.4101 24.3348 81.5351 24.3348 81.6051C24.3248 81.6851 24.2848 81.7451 24.2148 81.7851C24.1448 81.8251 24.0598 81.8451 23.9598 81.8451H21.9348C21.8348 81.8451 21.7548 81.8751 21.6948 81.9351C21.6448 81.9851 21.6198 82.0601 21.6198 82.1601V83.4201C21.6198 83.5201 21.6448 83.6001 21.6948 83.6601C21.7548 83.7101 21.8348 83.7351 21.9348 83.7351H22.5048C22.6648 83.7351 22.7898 83.6651 22.8798 83.5251L23.0598 83.2551C23.1098 83.1951 23.1648 83.1201 23.2248 83.0301C23.2848 82.9401 23.3348 82.8751 23.3748 82.8351C23.4148 82.7851 23.4548 82.7601 23.4948 82.7601C23.5548 82.7601 23.6848 82.8451 23.8848 83.0151C24.0848 83.1751 24.2698 83.3501 24.4398 83.5401C24.6098 83.7201 24.6948 83.8451 24.6948 83.9151C24.6848 84.0751 24.5598 84.1551 24.3198 84.1551H23.1348C22.9548 84.1551 22.8648 84.1951 22.8648 84.2751C22.8648 84.3251 22.9248 84.3751 23.0448 84.4251C23.2648 84.5151 23.4198 84.5901 23.5098 84.6501C23.5998 84.7001 23.6448 84.7451 23.6448 84.7851C23.6448 84.8151 23.5998 84.8501 23.5098 84.8901L23.4348 84.9201C23.2948 84.9801 23.1898 85.0651 23.1198 85.1751C22.7198 85.8051 22.4348 86.2351 22.2648 86.4651C22.1948 86.5451 22.1598 86.6201 22.1598 86.6901C22.1598 86.7901 22.2248 86.8401 22.3548 86.8401H22.5048C22.6648 86.8401 22.7898 86.7701 22.8798 86.6301L23.0448 86.3901C23.0748 86.3401 23.1198 86.2751 23.1798 86.1951C23.2498 86.1051 23.3048 86.0401 23.3448 86.0001C23.3848 85.9501 23.4248 85.9251 23.4648 85.9251ZM29.1648 89.9601C29.1248 90.0601 29.1048 90.1251 29.1048 90.1551C29.1048 90.2351 29.1448 90.3151 29.2248 90.3951C29.8148 91.0251 30.4648 91.5251 31.1748 91.8951C31.3248 91.9751 31.3998 92.0401 31.3998 92.0901C31.3998 92.1201 31.3798 92.1451 31.3398 92.1651C31.3098 92.1851 31.2748 92.2001 31.2348 92.2101C31.1948 92.2201 31.1598 92.2301 31.1298 92.2401C30.8598 92.3501 30.6398 92.5401 30.4698 92.8101C30.3998 92.9301 30.3198 92.9901 30.2298 92.9901C30.1798 92.9901 30.1198 92.9651 30.0498 92.9151C29.5298 92.4951 29.0548 91.9951 28.6248 91.4151C28.5448 91.3151 28.4698 91.2651 28.3998 91.2651C28.3198 91.2651 28.2498 91.3101 28.1898 91.4001C27.6798 92.0201 27.0798 92.5651 26.3898 93.0351C26.2198 93.1351 26.1098 93.1551 26.0598 93.0951C26.0498 93.0851 26.0448 93.0651 26.0448 93.0351C26.0448 92.9751 26.0998 92.8951 26.2098 92.7951C26.8498 92.1951 27.3998 91.4601 27.8598 90.5901C27.9098 90.5101 27.9348 90.4351 27.9348 90.3651C27.9348 90.3351 27.9148 90.2701 27.8748 90.1701C27.3448 89.1001 26.9598 87.7851 26.7198 86.2251C26.6898 86.0351 26.5748 85.9401 26.3748 85.9401H26.2698C26.1698 85.9401 26.0898 85.9701 26.0298 86.0301C25.9798 86.0801 25.9548 86.1551 25.9548 86.2551V89.1501C25.9748 90.2301 26.0098 91.3351 26.0598 92.4651V92.5551C26.0598 92.6651 26.0198 92.7601 25.9398 92.8401C25.8398 92.9401 25.7098 93.0251 25.5498 93.0951C25.3998 93.1651 25.2348 93.2001 25.0548 93.2001C24.9548 93.2001 24.8698 93.1701 24.7998 93.1101C24.7298 93.0501 24.6948 92.9801 24.6948 92.9001C24.7348 92.3101 24.7698 91.7401 24.7998 91.1901C24.8298 90.6301 24.8498 89.9001 24.8598 89.0001V82.8351C24.8598 81.8651 24.8148 80.9901 24.7248 80.2101V80.1501C24.7248 80.0001 24.7898 79.9251 24.9198 79.9251C24.9798 79.9251 25.0298 79.9351 25.0698 79.9551L25.8498 80.3151C25.9798 80.3751 26.1098 80.4051 26.2398 80.4051H28.8948C29.0548 80.4051 29.1798 80.3351 29.2698 80.1951L29.3748 80.0301C29.4048 79.9901 29.4448 79.9351 29.4948 79.8651C29.5448 79.7951 29.5848 79.7451 29.6148 79.7151C29.6548 79.6751 29.6948 79.6551 29.7348 79.6551C29.8048 79.6551 29.9748 79.7651 30.2448 79.9851C30.5148 80.1951 30.7198 80.3851 30.8598 80.5551C30.8998 80.6051 30.9198 80.6601 30.9198 80.7201C30.9198 80.7901 30.8748 80.8551 30.7848 80.9151L30.6498 80.9601C30.4698 81.0201 30.3798 81.1401 30.3798 81.3201V83.1501C30.3798 83.5801 30.2898 83.9051 30.1098 84.1251C29.9398 84.3451 29.5748 84.4951 29.0148 84.5751L28.9248 84.5901C28.7948 84.5901 28.7048 84.5001 28.6548 84.3201C28.5848 84.0801 28.4948 83.9151 28.3848 83.8251C28.1248 83.6651 27.8098 83.5501 27.4398 83.4801C27.2398 83.4501 27.1398 83.3951 27.1398 83.3151C27.1398 83.2551 27.2198 83.2251 27.3798 83.2251C27.5498 83.2251 27.7198 83.2301 27.8898 83.2401C28.0598 83.2501 28.2098 83.2601 28.3398 83.2701C28.6098 83.3001 28.8198 83.3151 28.9698 83.3151C29.0898 83.3151 29.1698 83.2951 29.2098 83.2551C29.2598 83.2051 29.2848 83.1251 29.2848 83.0151V81.1401C29.2848 81.0401 29.2548 80.9651 29.1948 80.9151C29.1448 80.8551 29.0698 80.8251 28.9698 80.8251H26.2698C26.1698 80.8251 26.0898 80.8551 26.0298 80.9151C25.9798 80.9651 25.9548 81.0401 25.9548 81.1401V85.1901C25.9548 85.2901 25.9798 85.3701 26.0298 85.4301C26.0898 85.4801 26.1698 85.5051 26.2698 85.5051H29.0748C29.2448 85.5051 29.3748 85.4451 29.4648 85.3251L29.5998 85.1751C29.6398 85.1351 29.6998 85.0701 29.7798 84.9801C29.8698 84.8801 29.9448 84.8301 30.0048 84.8301C30.0748 84.8301 30.2248 84.9301 30.4548 85.1301C30.6848 85.3201 30.8648 85.4951 30.9948 85.6551C31.0348 85.7051 31.0548 85.7601 31.0548 85.8201C31.0548 85.9001 31.0098 85.9651 30.9198 86.0151L30.8298 86.0451C30.6498 86.0951 30.5398 86.1951 30.4998 86.3451C30.1998 87.7151 29.7548 88.9201 29.1648 89.9601ZM19.8798 86.8251C19.7898 86.8251 19.6898 86.7951 19.5798 86.7351C19.4598 86.6551 19.3998 86.5301 19.3998 86.3601C19.3698 85.8801 19.2298 85.3151 18.9798 84.6651C18.9398 84.5751 18.9198 84.5001 18.9198 84.4401C18.9198 84.3801 18.9298 84.3451 18.9498 84.3351C18.9598 84.3251 18.9748 84.3201 18.9948 84.3201C19.0548 84.3201 19.1348 84.3551 19.2348 84.4251C19.6548 84.6851 19.9598 84.9601 20.1498 85.2501C20.3498 85.5401 20.4498 85.8201 20.4498 86.0901C20.4498 86.3001 20.3948 86.4751 20.2848 86.6151C20.1748 86.7551 20.0398 86.8251 19.8798 86.8251ZM29.3448 86.1951C29.3448 86.1151 29.3148 86.0551 29.2548 86.0151C29.2048 85.9651 29.1348 85.9401 29.0448 85.9401H27.3198C27.2098 85.9401 27.1298 85.9751 27.0798 86.0451C27.0298 86.1051 27.0198 86.1851 27.0498 86.2851C27.2998 87.2851 27.6748 88.1951 28.1748 89.0151C28.2448 89.1151 28.3198 89.1651 28.3998 89.1651C28.5098 89.1651 28.5848 89.1001 28.6248 88.9701C28.9448 88.0901 29.1798 87.1951 29.3298 86.2851L29.3448 86.1951Z" fill="white"/>
<path d="M19.8657 66.37C19.8657 65.37 19.8207 64.475 19.7307 63.685V63.625C19.7307 63.465 19.8007 63.385 19.9407 63.385C19.9607 63.385 20.0107 63.395 20.0907 63.415C20.5507 63.555 20.8707 63.67 21.0507 63.76C21.2407 63.84 21.3357 63.91 21.3357 63.97C21.3357 64.02 21.2957 64.07 21.2157 64.12L21.1707 64.15C21.0307 64.24 20.9607 64.365 20.9607 64.525V73.21C20.9807 74.29 21.0157 75.395 21.0657 76.525V76.615C21.0657 76.725 21.0257 76.82 20.9457 76.9C20.8357 76.99 20.7007 77.065 20.5407 77.125C20.3807 77.185 20.2257 77.215 20.0757 77.215C19.9757 77.215 19.8857 77.185 19.8057 77.125C19.7357 77.065 19.7007 76.995 19.7007 76.915C19.7407 76.325 19.7757 75.755 19.8057 75.205C19.8357 74.645 19.8557 73.915 19.8657 73.015V66.37ZM28.5057 66.67C28.6657 66.67 28.7907 66.605 28.8807 66.475L29.0457 66.235C29.0857 66.185 29.1307 66.12 29.1807 66.04C29.2407 65.95 29.2907 65.885 29.3307 65.845C29.3707 65.805 29.4107 65.785 29.4507 65.785C29.5307 65.785 29.7007 65.895 29.9607 66.115C30.2307 66.335 30.4307 66.525 30.5607 66.685C30.6107 66.755 30.6357 66.815 30.6357 66.865C30.6357 66.925 30.6057 66.98 30.5457 67.03C30.4657 67.08 30.3707 67.105 30.2607 67.105H27.3507C27.2507 67.105 27.1707 67.135 27.1107 67.195C27.0607 67.245 27.0357 67.32 27.0357 67.42V68.125C27.0357 68.225 27.0607 68.305 27.1107 68.365C27.1707 68.415 27.2507 68.44 27.3507 68.44H29.1057C29.2657 68.44 29.3907 68.375 29.4807 68.245L29.6607 67.99C29.6907 67.94 29.7357 67.875 29.7957 67.795C29.8657 67.705 29.9207 67.64 29.9607 67.6C30.0007 67.55 30.0407 67.525 30.0807 67.525C30.1507 67.525 30.3257 67.64 30.6057 67.87C30.8857 68.1 31.0907 68.3 31.2207 68.47C31.2707 68.54 31.2957 68.6 31.2957 68.65C31.2957 68.71 31.2657 68.765 31.2057 68.815C31.1257 68.865 31.0307 68.89 30.9207 68.89H24.5607C23.9507 68.9 23.2907 68.955 22.5807 69.055H22.4907C22.3507 69.055 22.2507 68.99 22.1907 68.86L22.1307 68.725C22.1007 68.665 22.0857 68.605 22.0857 68.545C22.0857 68.405 22.1807 68.345 22.3707 68.365C22.7107 68.395 23.2307 68.42 23.9307 68.44H25.5957C25.6957 68.44 25.7707 68.415 25.8207 68.365C25.8807 68.305 25.9107 68.225 25.9107 68.125V67.42C25.9107 67.32 25.8807 67.245 25.8207 67.195C25.7707 67.135 25.6957 67.105 25.5957 67.105H24.9957C24.4957 67.125 24.0257 67.175 23.5857 67.255C23.5557 67.265 23.5207 67.27 23.4807 67.27C23.3507 67.27 23.2557 67.205 23.1957 67.075L23.1357 66.955C23.1057 66.895 23.0907 66.835 23.0907 66.775C23.0907 66.715 23.1157 66.67 23.1657 66.64C23.2157 66.6 23.2857 66.585 23.3757 66.595C23.7157 66.625 24.2307 66.65 24.9207 66.67H25.5957C25.6957 66.67 25.7707 66.645 25.8207 66.595C25.8807 66.535 25.9107 66.455 25.9107 66.355V65.74C25.9107 65.64 25.8807 65.565 25.8207 65.515C25.7707 65.455 25.6957 65.425 25.5957 65.425H24.7707C24.1907 65.435 23.5807 65.49 22.9407 65.59H22.8507C22.7107 65.59 22.6107 65.525 22.5507 65.395L22.4907 65.275C22.4607 65.215 22.4457 65.16 22.4457 65.11C22.4457 65.04 22.4707 64.99 22.5207 64.96C22.5707 64.92 22.6407 64.905 22.7307 64.915C23.0907 64.945 23.6107 64.97 24.2907 64.99H25.5957C25.8057 64.99 25.9107 64.885 25.9107 64.675L25.8657 63.76V63.7C25.8657 63.54 25.9357 63.46 26.0757 63.46C26.0957 63.46 26.1457 63.47 26.2257 63.49C26.6657 63.62 26.9707 63.725 27.1407 63.805C27.3107 63.885 27.3957 63.955 27.3957 64.015C27.3957 64.045 27.3557 64.09 27.2757 64.15L27.2457 64.165C27.1057 64.255 27.0357 64.38 27.0357 64.54V64.675C27.0357 64.775 27.0607 64.855 27.1107 64.915C27.1707 64.965 27.2507 64.99 27.3507 64.99H28.8507C29.0107 64.99 29.1357 64.925 29.2257 64.795L29.4057 64.54C29.4357 64.49 29.4807 64.425 29.5407 64.345C29.6107 64.255 29.6657 64.19 29.7057 64.15C29.7457 64.1 29.7857 64.075 29.8257 64.075C29.9057 64.075 30.0857 64.19 30.3657 64.42C30.6457 64.65 30.8507 64.845 30.9807 65.005C31.0307 65.075 31.0557 65.135 31.0557 65.185C31.0557 65.245 31.0257 65.3 30.9657 65.35C30.8957 65.4 30.8107 65.425 30.7107 65.425H27.3507C27.2507 65.425 27.1707 65.455 27.1107 65.515C27.0607 65.565 27.0357 65.64 27.0357 65.74V66.355C27.0357 66.455 27.0607 66.535 27.1107 66.595C27.1707 66.645 27.2507 66.67 27.3507 66.67H28.5057ZM21.2607 66.01C21.1707 65.82 21.1557 65.71 21.2157 65.68C21.2257 65.67 21.2457 65.665 21.2757 65.665C21.3557 65.665 21.4357 65.7 21.5157 65.77C21.9257 66.04 22.2257 66.325 22.4157 66.625C22.6157 66.925 22.7157 67.205 22.7157 67.465C22.7157 67.665 22.6657 67.83 22.5657 67.96C22.4657 68.09 22.3457 68.155 22.2057 68.155C22.1257 68.155 22.0507 68.135 21.9807 68.095C21.9107 68.055 21.8607 68.01 21.8307 67.96C21.8107 67.9 21.7957 67.825 21.7857 67.735C21.7257 67.165 21.5507 66.59 21.2607 66.01ZM18.7557 66.415C18.7757 66.195 18.8207 66.085 18.8907 66.085C18.9807 66.105 19.0407 66.195 19.0707 66.355C19.1807 66.825 19.2357 67.285 19.2357 67.735C19.2357 68.125 19.1957 68.475 19.1157 68.785C19.0457 69.085 18.9507 69.325 18.8307 69.505C18.7407 69.635 18.6307 69.735 18.5007 69.805C18.3807 69.875 18.2607 69.91 18.1407 69.91C18.0107 69.91 17.9007 69.86 17.8107 69.76C17.7507 69.67 17.7207 69.57 17.7207 69.46C17.7207 69.3 17.7757 69.15 17.8857 69.01C17.9257 68.95 17.9607 68.905 17.9907 68.875C18.0207 68.835 18.0457 68.8 18.0657 68.77C18.2357 68.5 18.3857 68.15 18.5157 67.72C18.6557 67.28 18.7357 66.845 18.7557 66.415ZM24.7857 73.99C24.6857 73.99 24.6057 74.02 24.5457 74.08C24.4957 74.13 24.4707 74.205 24.4707 74.305V74.92L24.5007 75.655C24.5007 75.855 24.5107 76.135 24.5307 76.495V76.585C24.5307 76.695 24.4907 76.79 24.4107 76.87C24.3107 76.96 24.1807 77.035 24.0207 77.095C23.8607 77.155 23.7007 77.185 23.5407 77.185C23.4507 77.185 23.3707 77.155 23.3007 77.095C23.2407 77.035 23.2107 76.965 23.2107 76.885C23.2807 76.025 23.3257 75.07 23.3457 74.02V72.43C23.3457 71.46 23.3007 70.58 23.2107 69.79V69.73C23.2107 69.58 23.2757 69.505 23.4057 69.505C23.4657 69.505 23.5157 69.515 23.5557 69.535L24.3807 69.895C24.5107 69.955 24.6407 69.985 24.7707 69.985H28.3257C28.4857 69.985 28.6107 69.92 28.7007 69.79L28.8057 69.64C28.8357 69.6 28.8857 69.535 28.9557 69.445C29.0257 69.345 29.0907 69.295 29.1507 69.295C29.2207 69.295 29.3957 69.395 29.6757 69.595C29.9557 69.795 30.1707 69.975 30.3207 70.135C30.3607 70.185 30.3807 70.24 30.3807 70.3C30.3807 70.37 30.3407 70.435 30.2607 70.495C30.2307 70.515 30.2007 70.53 30.1707 70.54C30.1407 70.55 30.1157 70.56 30.0957 70.57C29.9157 70.63 29.8257 70.745 29.8257 70.915V75.655C29.8257 76.105 29.7457 76.445 29.5857 76.675C29.4357 76.905 29.1107 77.06 28.6107 77.14L28.5207 77.155C28.3707 77.155 28.2807 77.055 28.2507 76.855C28.2207 76.625 28.1507 76.455 28.0407 76.345C27.9007 76.185 27.6557 76.065 27.3057 75.985C27.1157 75.935 27.0207 75.875 27.0207 75.805C27.0207 75.755 27.0957 75.73 27.2457 75.73C27.5057 75.73 27.7607 75.745 28.0107 75.775L28.4157 75.79C28.5257 75.79 28.6007 75.77 28.6407 75.73C28.6807 75.68 28.7007 75.6 28.7007 75.49V74.305C28.7007 74.205 28.6707 74.13 28.6107 74.08C28.5607 74.02 28.4857 73.99 28.3857 73.99H24.7857ZM28.3857 71.755C28.4857 71.755 28.5607 71.73 28.6107 71.68C28.6707 71.62 28.7007 71.54 28.7007 71.44V70.75C28.7007 70.65 28.6707 70.575 28.6107 70.525C28.5607 70.465 28.4857 70.435 28.3857 70.435H24.7857C24.6857 70.435 24.6057 70.465 24.5457 70.525C24.4957 70.575 24.4707 70.65 24.4707 70.75V71.44C24.4707 71.54 24.4957 71.62 24.5457 71.68C24.6057 71.73 24.6857 71.755 24.7857 71.755H28.3857ZM24.7857 72.19C24.6857 72.19 24.6057 72.22 24.5457 72.28C24.4957 72.33 24.4707 72.405 24.4707 72.505V73.24C24.4707 73.34 24.4957 73.42 24.5457 73.48C24.6057 73.53 24.6857 73.555 24.7857 73.555H28.3857C28.4857 73.555 28.5607 73.53 28.6107 73.48C28.6707 73.42 28.7007 73.34 28.7007 73.24V72.505C28.7007 72.405 28.6707 72.33 28.6107 72.28C28.5607 72.22 28.4857 72.19 28.3857 72.19H24.7857Z" fill="white"/>
<path d="M28.0859 50.295C27.9859 50.295 27.9059 50.325 27.8459 50.385C27.7959 50.435 27.7709 50.51 27.7709 50.61V51.465C27.7709 51.565 27.7959 51.645 27.8459 51.705C27.9059 51.755 27.9859 51.78 28.0859 51.78H29.0159C29.1959 51.78 29.3259 51.71 29.4059 51.57L29.4959 51.405C29.5259 51.355 29.5659 51.3 29.6159 51.24C29.6659 51.17 29.7059 51.12 29.7359 51.09C29.7659 51.05 29.8009 51.03 29.8409 51.03C29.9109 51.03 30.0759 51.135 30.3359 51.345C30.6059 51.555 30.8159 51.745 30.9659 51.915C31.0159 51.985 31.0409 52.04 31.0409 52.08C31.0409 52.16 30.9959 52.225 30.9059 52.275C30.8459 52.315 30.7959 52.34 30.7559 52.35C30.5759 52.42 30.4859 52.54 30.4859 52.71V59.745C30.4859 60.175 30.4209 60.495 30.2909 60.705C30.1709 60.915 29.9009 61.06 29.4809 61.14L29.3909 61.155C29.2509 61.155 29.1559 61.06 29.1059 60.87C29.0759 60.67 29.0259 60.52 28.9559 60.42C28.8359 60.28 28.6759 60.18 28.4759 60.12C28.2859 60.06 28.1909 60 28.1909 59.94C28.1909 59.88 28.2709 59.85 28.4309 59.85C28.5909 59.85 28.7359 59.855 28.8659 59.865C28.9959 59.875 29.0959 59.88 29.1659 59.88C29.2659 59.88 29.3309 59.865 29.3609 59.835C29.3909 59.795 29.4059 59.725 29.4059 59.625V57.525C29.4059 57.425 29.3759 57.35 29.3159 57.3C29.2659 57.24 29.1909 57.21 29.0909 57.21H28.0859C27.9859 57.21 27.9059 57.24 27.8459 57.3C27.7959 57.35 27.7709 57.425 27.7709 57.525V58.365C27.8009 59.235 27.8259 59.905 27.8459 60.375V60.465C27.8459 60.585 27.8109 60.68 27.7409 60.75C27.6409 60.85 27.5109 60.93 27.3509 60.99C27.1909 61.06 27.0359 61.095 26.8859 61.095C26.7959 61.095 26.7209 61.065 26.6609 61.005C26.6109 60.945 26.5859 60.875 26.5859 60.795C26.6259 60.235 26.6609 59.475 26.6909 58.515V57.525C26.6909 57.425 26.6609 57.35 26.6009 57.3C26.5509 57.24 26.4759 57.21 26.3759 57.21H25.4459C25.3459 57.21 25.2659 57.24 25.2059 57.3C25.1559 57.35 25.1309 57.425 25.1309 57.525V58.395C25.1609 59.315 25.1859 60.01 25.2059 60.48V60.57C25.2059 60.68 25.1659 60.775 25.0859 60.855C24.9959 60.945 24.8759 61.02 24.7259 61.08C24.5759 61.14 24.4209 61.17 24.2609 61.17C24.1609 61.17 24.0759 61.14 24.0059 61.08C23.9359 61.02 23.9009 60.95 23.9009 60.87C23.9409 60.28 23.9759 59.71 24.0059 59.16C24.0359 58.6 24.0559 57.87 24.0659 56.97V54.255C24.0659 53.285 24.0209 52.405 23.9309 51.615V51.555C23.9309 51.405 23.9959 51.33 24.1259 51.33C24.1859 51.33 24.2359 51.34 24.2759 51.36L25.0259 51.69C25.1659 51.75 25.2959 51.78 25.4159 51.78H26.3759C26.4759 51.78 26.5509 51.755 26.6009 51.705C26.6609 51.645 26.6909 51.565 26.6909 51.465V50.61C26.6909 50.51 26.6609 50.435 26.6009 50.385C26.5509 50.325 26.4759 50.295 26.3759 50.295H25.7159C25.2459 50.305 24.7459 50.36 24.2159 50.46H24.1259C23.9859 50.46 23.8809 50.395 23.8109 50.265L23.6309 49.905C23.6409 49.935 23.6459 49.985 23.6459 50.055C23.6459 50.235 23.5909 50.385 23.4809 50.505C23.3709 50.615 23.2409 50.67 23.0909 50.67C23.0109 50.67 22.9359 50.655 22.8659 50.625C22.7559 50.575 22.6709 50.475 22.6109 50.325C22.3709 49.835 22.0059 49.305 21.5159 48.735C21.4359 48.655 21.3659 48.615 21.3059 48.615C21.2059 48.615 21.1259 48.675 21.0659 48.795C20.4559 49.905 19.7659 50.875 18.9959 51.705C18.9259 51.775 18.8909 51.845 18.8909 51.915C18.8909 52.025 18.9709 52.09 19.1309 52.11L19.7909 52.14H20.0609C20.2709 52.14 20.3759 52.035 20.3759 51.825C20.3559 51.235 20.3309 50.82 20.3009 50.58V50.55C20.3009 50.37 20.3759 50.28 20.5259 50.28L20.6609 50.31C21.0809 50.43 21.3759 50.53 21.5459 50.61C21.7159 50.69 21.8009 50.76 21.8009 50.82C21.8009 50.85 21.7609 50.895 21.6809 50.955L21.6509 50.97C21.5109 51.06 21.4409 51.185 21.4409 51.345V51.825C21.4409 52.035 21.5409 52.14 21.7409 52.14H21.8009C21.9609 52.14 22.0859 52.07 22.1759 51.93L22.3109 51.735C22.3409 51.685 22.3809 51.625 22.4309 51.555C22.4909 51.475 22.5359 51.415 22.5659 51.375C22.6059 51.335 22.6459 51.315 22.6859 51.315C22.7659 51.315 22.9209 51.415 23.1509 51.615C23.3909 51.815 23.5609 51.995 23.6609 52.155C23.7109 52.225 23.7359 52.285 23.7359 52.335C23.7359 52.395 23.7059 52.45 23.6459 52.5C23.5759 52.55 23.4859 52.575 23.3759 52.575H21.7559C21.6559 52.575 21.5759 52.605 21.5159 52.665C21.4659 52.715 21.4409 52.79 21.4409 52.89V54.045C21.4409 54.145 21.4659 54.225 21.5159 54.285C21.5759 54.335 21.6559 54.36 21.7559 54.36H21.8909C22.0509 54.36 22.1759 54.29 22.2659 54.15L22.4159 53.925C22.4459 53.885 22.4859 53.825 22.5359 53.745C22.5959 53.655 22.6459 53.59 22.6859 53.55C22.7259 53.51 22.7659 53.49 22.8059 53.49C22.8759 53.49 23.0359 53.6 23.2859 53.82C23.5459 54.03 23.7359 54.22 23.8559 54.39C23.9059 54.46 23.9309 54.52 23.9309 54.57C23.9309 54.63 23.9009 54.685 23.8409 54.735C23.7909 54.775 23.7059 54.795 23.5859 54.795H20.4959C19.8859 54.805 19.2259 54.86 18.5159 54.96H18.4259C18.2859 54.96 18.1859 54.895 18.1259 54.765L18.0659 54.645C18.0359 54.585 18.0209 54.53 18.0209 54.48C18.0209 54.42 18.0459 54.37 18.0959 54.33C18.1559 54.29 18.2309 54.275 18.3209 54.285C18.6009 54.315 19.0209 54.34 19.5809 54.36H20.0609C20.1609 54.36 20.2359 54.335 20.2859 54.285C20.3459 54.225 20.3759 54.145 20.3759 54.045V52.89C20.3759 52.79 20.3459 52.715 20.2859 52.665C20.2359 52.605 20.1609 52.575 20.0609 52.575H19.8209C19.5809 52.595 19.3659 52.63 19.1759 52.68C19.1159 52.7 19.0709 52.71 19.0409 52.71C18.9209 52.71 18.8259 52.645 18.7559 52.515L18.7259 52.47C18.6659 52.35 18.5909 52.29 18.5009 52.29C18.4509 52.29 18.3809 52.325 18.2909 52.395L17.9759 52.665C17.8259 52.785 17.7209 52.815 17.6609 52.755L17.6309 52.695C17.6309 52.655 17.6809 52.57 17.7809 52.44C18.3009 51.8 18.7959 51.01 19.2659 50.07C19.4659 49.67 19.6459 49.25 19.8059 48.81C19.9659 48.36 20.0809 47.95 20.1509 47.58C20.1709 47.41 20.2459 47.325 20.3759 47.325C20.4359 47.325 20.4859 47.335 20.5259 47.355L21.5909 47.775C21.6609 47.805 21.7159 47.845 21.7559 47.895C21.8059 47.935 21.8309 47.975 21.8309 48.015C21.8309 48.055 21.8059 48.09 21.7559 48.12C21.7759 48.24 21.8759 48.34 22.0559 48.42C22.7559 48.74 23.2359 49.11 23.4959 49.53C23.5859 49.69 23.7059 49.775 23.8559 49.785C24.4059 49.825 24.9709 49.855 25.5509 49.875H26.3759C26.5859 49.875 26.6909 49.77 26.6909 49.56C26.6709 48.82 26.6359 48.21 26.5859 47.73V47.7C26.5859 47.52 26.6609 47.43 26.8109 47.43L26.9459 47.46C27.7459 47.69 28.1459 47.87 28.1459 48C28.1459 48.05 28.1059 48.1 28.0259 48.15L27.9809 48.18C27.8409 48.27 27.7709 48.395 27.7709 48.555V49.56C27.7709 49.66 27.7959 49.74 27.8459 49.8C27.9059 49.85 27.9859 49.875 28.0859 49.875H29.0609C29.2209 49.875 29.3459 49.81 29.4359 49.68L29.4959 49.59C29.5659 49.5 29.6159 49.42 29.6459 49.35C29.6859 49.28 29.6959 49.245 29.6759 49.245L29.6159 49.23C29.5459 49.21 29.4909 49.18 29.4509 49.14C29.4209 49.09 29.3809 49.025 29.3309 48.945C29.1509 48.625 28.8959 48.305 28.5659 47.985C28.4059 47.825 28.3459 47.73 28.3859 47.7C28.4159 47.67 28.4709 47.655 28.5509 47.655C28.6109 47.655 28.6609 47.66 28.7009 47.67C29.2309 47.74 29.6209 47.88 29.8709 48.09C30.1309 48.29 30.2609 48.505 30.2609 48.735C30.2609 48.785 30.2559 48.825 30.2459 48.855C30.2359 48.895 30.2309 48.945 30.2309 49.005C30.2309 49.105 30.2709 49.19 30.3509 49.26C30.5809 49.44 30.8109 49.645 31.0409 49.875C31.1309 49.965 31.1759 50.05 31.1759 50.13C31.1759 50.19 31.1409 50.235 31.0709 50.265C30.9909 50.285 30.9209 50.295 30.8609 50.295H28.0859ZM25.1309 53.955C25.1309 54.055 25.1559 54.135 25.2059 54.195C25.2659 54.245 25.3459 54.27 25.4459 54.27H26.3759C26.4759 54.27 26.5509 54.245 26.6009 54.195C26.6609 54.135 26.6909 54.055 26.6909 53.955V52.53C26.6909 52.43 26.6609 52.355 26.6009 52.305C26.5509 52.245 26.4759 52.215 26.3759 52.215H25.4459C25.3459 52.215 25.2659 52.245 25.2059 52.305C25.1559 52.355 25.1309 52.43 25.1309 52.53V53.955ZM29.0909 54.27C29.1909 54.27 29.2659 54.245 29.3159 54.195C29.3759 54.135 29.4059 54.055 29.4059 53.955V52.53C29.4059 52.43 29.3759 52.355 29.3159 52.305C29.2659 52.245 29.1909 52.215 29.0909 52.215H28.0859C27.9859 52.215 27.9059 52.245 27.8459 52.305C27.7959 52.355 27.7709 52.43 27.7709 52.53V53.955C27.7709 54.055 27.7959 54.135 27.8459 54.195C27.9059 54.245 27.9859 54.27 28.0859 54.27H29.0909ZM25.1309 56.46C25.1309 56.56 25.1559 56.64 25.2059 56.7C25.2659 56.75 25.3459 56.775 25.4459 56.775H26.3759C26.4759 56.775 26.5509 56.75 26.6009 56.7C26.6609 56.64 26.6909 56.56 26.6909 56.46V55.02C26.6909 54.92 26.6609 54.845 26.6009 54.795C26.5509 54.735 26.4759 54.705 26.3759 54.705H25.4459C25.3459 54.705 25.2659 54.735 25.2059 54.795C25.1559 54.845 25.1309 54.92 25.1309 55.02V56.46ZM27.7709 56.46C27.7709 56.56 27.7959 56.64 27.8459 56.7C27.9059 56.75 27.9859 56.775 28.0859 56.775H29.0909C29.1909 56.775 29.2659 56.75 29.3159 56.7C29.3759 56.64 29.4059 56.56 29.4059 56.46V55.02C29.4059 54.92 29.3759 54.845 29.3159 54.795C29.2659 54.735 29.1909 54.705 29.0909 54.705H28.0859C27.9859 54.705 27.9059 54.735 27.8459 54.795C27.7959 54.845 27.7709 54.92 27.7709 55.02V56.46ZM22.5059 55.365C22.5759 55.365 22.7359 55.45 22.9859 55.62C23.2359 55.79 23.4259 55.95 23.5559 56.1C23.6059 56.17 23.6309 56.225 23.6309 56.265C23.6309 56.345 23.5859 56.41 23.4959 56.46L23.3909 56.52C23.3009 56.56 23.2309 56.605 23.1809 56.655C23.1409 56.705 23.1209 56.775 23.1209 56.865V57.915C23.1509 58.925 23.1759 59.695 23.1959 60.225V60.3C23.1959 60.44 23.1409 60.54 23.0309 60.6C22.9209 60.66 22.7859 60.715 22.6259 60.765C22.4659 60.815 22.3259 60.84 22.2059 60.84C22.1359 60.84 22.0809 60.805 22.0409 60.735C22.0109 60.675 21.9959 60.625 21.9959 60.585C21.9959 60.535 22.0059 60.48 22.0259 60.42C22.0459 60.32 22.0559 60.235 22.0559 60.165C22.0559 60.115 22.0259 60.075 21.9659 60.045C21.9159 60.025 21.8409 60.015 21.7409 60.015H20.0309C19.8209 60.015 19.7159 60.105 19.7159 60.285C19.7259 60.355 19.7309 60.435 19.7309 60.525V60.645C19.7309 60.775 19.6959 60.865 19.6259 60.915C19.5359 60.995 19.4159 61.06 19.2659 61.11C19.1259 61.16 18.9759 61.185 18.8159 61.185C18.7359 61.185 18.6709 61.155 18.6209 61.095C18.5809 61.035 18.5609 60.965 18.5609 60.885C18.6009 60.465 18.6309 59.93 18.6509 59.28V58.32C18.6509 57.46 18.6109 56.63 18.5309 55.83V55.77C18.5309 55.62 18.5959 55.545 18.7259 55.545C18.7859 55.545 18.8359 55.555 18.8759 55.575L19.6109 55.905C19.7409 55.965 19.8709 55.995 20.0009 55.995H21.6659C21.8259 55.995 21.9559 55.93 22.0559 55.8L22.1459 55.68C22.1759 55.65 22.2259 55.59 22.2959 55.5C22.3759 55.41 22.4459 55.365 22.5059 55.365ZM19.7159 59.25C19.7159 59.35 19.7409 59.43 19.7909 59.49C19.8509 59.54 19.9309 59.565 20.0309 59.565H21.7409C21.8409 59.565 21.9159 59.54 21.9659 59.49C22.0259 59.43 22.0559 59.35 22.0559 59.25V56.73C22.0559 56.63 22.0259 56.555 21.9659 56.505C21.9159 56.445 21.8409 56.415 21.7409 56.415H20.0309C19.9309 56.415 19.8509 56.445 19.7909 56.505C19.7409 56.555 19.7159 56.63 19.7159 56.73V59.25Z" fill="white"/>
<path d="M28.6405 33.6199C28.8005 33.6199 28.9255 33.5499 29.0155 33.4099L29.2405 33.0799C29.2805 33.0199 29.3355 32.9399 29.4055 32.8399C29.4755 32.7399 29.5305 32.6649 29.5705 32.6149C29.6205 32.5649 29.6655 32.5399 29.7055 32.5399C29.7755 32.5399 29.9755 32.6799 30.3055 32.9599C30.6355 33.2299 30.8705 33.4549 31.0105 33.6349C31.0605 33.7049 31.0855 33.7649 31.0855 33.8149C31.0855 33.8749 31.0555 33.9299 30.9955 33.9799C30.9255 34.0299 30.8355 34.0549 30.7255 34.0549H20.8105C20.7105 34.0549 20.6305 34.0849 20.5705 34.1449C20.5205 34.1949 20.4955 34.2699 20.4955 34.3699V37.2799C20.4955 38.3099 20.4455 39.2499 20.3455 40.0999C20.2555 40.9499 20.0405 41.8099 19.7005 42.6799C19.3605 43.5399 18.8605 44.3049 18.2005 44.9749C18.0705 45.1249 17.9705 45.1699 17.9005 45.1099C17.8705 45.0799 17.8555 45.0499 17.8555 45.0199C17.8555 44.9699 17.8855 44.8899 17.9455 44.7799C18.5255 43.7799 18.9055 42.6799 19.0855 41.4799C19.2755 40.2799 19.3705 38.8849 19.3705 37.2949V35.1649C19.3705 34.5949 19.3455 34.0099 19.2955 33.4099V33.3499C19.2955 33.1999 19.3605 33.1249 19.4905 33.1249C19.5505 33.1249 19.6005 33.1349 19.6405 33.1549L20.5255 33.5449C20.6355 33.5949 20.7605 33.6199 20.9005 33.6199H23.9905C24.2005 33.6199 24.3055 33.5149 24.3055 33.3049C24.2855 32.6949 24.2555 32.1599 24.2155 31.6999V31.6699C24.2155 31.4899 24.2955 31.3999 24.4555 31.3999C24.5055 31.3999 24.5455 31.4049 24.5755 31.4149C25.4055 31.6449 25.8205 31.8249 25.8205 31.9549C25.8205 31.9949 25.7755 32.0399 25.6855 32.0899L25.6255 32.1199C25.4855 32.2099 25.4155 32.3399 25.4155 32.5099V33.3049C25.4155 33.4049 25.4405 33.4849 25.4905 33.5449C25.5505 33.5949 25.6305 33.6199 25.7305 33.6199H28.6405ZM28.1605 39.9949C28.3205 39.9949 28.4455 39.9299 28.5355 39.7999L28.6555 39.6199C28.6755 39.5899 28.7105 39.5349 28.7605 39.4549C28.8105 39.3749 28.8555 39.3199 28.8955 39.2899C28.9355 39.2499 28.9755 39.2299 29.0155 39.2299C29.0855 39.2299 29.2355 39.3249 29.4655 39.5149C29.6955 39.7049 29.8755 39.8799 30.0055 40.0399C30.0455 40.0899 30.0655 40.1449 30.0655 40.2049C30.0655 40.2849 30.0205 40.3499 29.9305 40.3999C29.8905 40.4199 29.8605 40.4299 29.8405 40.4299C29.6605 40.4999 29.5705 40.6199 29.5705 40.7899V41.9449C29.6005 43.1149 29.6305 43.9699 29.6605 44.5099V44.5849C29.6605 44.7249 29.6105 44.8249 29.5105 44.8849C29.2705 45.0449 28.9805 45.1249 28.6405 45.1249C28.6105 45.1249 28.5855 45.1199 28.5655 45.1099C28.4455 45.0799 28.3855 44.9849 28.3855 44.8249C28.4055 44.7449 28.4155 44.6849 28.4155 44.6449L28.4455 44.4649V44.4499C28.4455 44.3499 28.4155 44.2699 28.3555 44.2099C28.3055 44.1599 28.2305 44.1349 28.1305 44.1349H22.9105C22.8105 44.1349 22.7305 44.1599 22.6705 44.2099C22.6205 44.2699 22.5955 44.3499 22.5955 44.4499V44.8849C22.5955 44.9449 22.5055 45.0149 22.3255 45.0949C22.1555 45.1749 21.9455 45.2149 21.6955 45.2149C21.6055 45.2149 21.5355 45.1849 21.4855 45.1249C21.4355 45.0649 21.4105 44.9949 21.4105 44.9149C21.4505 44.4849 21.4805 43.9449 21.5005 43.2949V42.3349C21.5005 41.4549 21.4605 40.6149 21.3805 39.8149V39.7549C21.3805 39.5949 21.4455 39.5149 21.5755 39.5149C21.6355 39.5149 21.6855 39.5249 21.7255 39.5449L22.5805 39.9199C22.6905 39.9699 22.8155 39.9949 22.9555 39.9949H24.4555C24.5555 39.9949 24.6305 39.9699 24.6805 39.9199C24.7405 39.8599 24.7705 39.7799 24.7705 39.6799V37.5049C24.7705 36.5049 24.7255 35.6099 24.6355 34.8199V34.7599C24.6355 34.5999 24.7105 34.5199 24.8605 34.5199C24.9105 34.5199 24.9505 34.5249 24.9805 34.5349C25.8805 34.7649 26.3305 34.9449 26.3305 35.0749C26.3305 35.1249 26.2855 35.1749 26.1955 35.2249L26.1355 35.2699C25.9955 35.3699 25.9255 35.4949 25.9255 35.6449V36.6199C25.9255 36.7199 25.9505 36.7999 26.0005 36.8599C26.0605 36.9099 26.1405 36.9349 26.2405 36.9349H28.5205C28.6805 36.9349 28.8055 36.8699 28.8955 36.7399L29.1055 36.4249C29.1455 36.3749 29.1955 36.2999 29.2555 36.1999C29.3255 36.0999 29.3805 36.0249 29.4205 35.9749C29.4705 35.9249 29.5155 35.8999 29.5555 35.8999C29.6255 35.8999 29.8155 36.0299 30.1255 36.2899C30.4455 36.5499 30.6755 36.7699 30.8155 36.9499C30.8555 36.9999 30.8755 37.0549 30.8755 37.1149C30.8755 37.1849 30.8455 37.2449 30.7855 37.2949C30.7355 37.3349 30.6455 37.3549 30.5155 37.3549H26.2405C26.1405 37.3549 26.0605 37.3849 26.0005 37.4449C25.9505 37.4949 25.9255 37.5699 25.9255 37.6699V39.6799C25.9255 39.7799 25.9505 39.8599 26.0005 39.9199C26.0605 39.9699 26.1405 39.9949 26.2405 39.9949H28.1605ZM28.1305 43.6999C28.2305 43.6999 28.3055 43.6749 28.3555 43.6249C28.4155 43.5649 28.4455 43.4849 28.4455 43.3849V40.7449C28.4455 40.6449 28.4155 40.5699 28.3555 40.5199C28.3055 40.4599 28.2305 40.4299 28.1305 40.4299H22.9105C22.8105 40.4299 22.7305 40.4599 22.6705 40.5199C22.6205 40.5699 22.5955 40.6449 22.5955 40.7449V43.3849C22.5955 43.4849 22.6205 43.5649 22.6705 43.6249C22.7305 43.6749 22.8105 43.6999 22.9105 43.6999H28.1305Z" fill="white"/>
<path d="M25 23.5C23.656 23.5 22.5561 23.3285 21.7004 22.9854C20.8446 22.6425 20.4167 22.1997 20.4167 21.6571C20.4167 21.3985 20.5387 21.1508 20.7829 20.9142C21.0269 20.6776 21.3616 20.4765 21.7869 20.3108L22.4423 20.8671C22.2105 20.9546 21.9709 21.0705 21.7235 21.2148C21.4762 21.359 21.3215 21.501 21.2596 21.641C21.3547 21.9167 21.7581 22.1566 22.4696 22.3606C23.1811 22.5647 24.0219 22.6667 24.9921 22.6667C25.9621 22.6667 26.8063 22.5647 27.5248 22.3606C28.2433 22.1566 28.6501 21.9167 28.7452 21.641C28.7015 21.4978 28.5417 21.3542 28.266 21.21C27.9903 21.0657 27.7297 20.9497 27.484 20.8621L28.1346 20.3012C28.5983 20.4701 28.9557 20.6728 29.2067 20.9094C29.4578 21.146 29.5833 21.3928 29.5833 21.6498C29.5833 22.1947 29.1554 22.6392 28.2996 22.9835C27.4439 23.3278 26.344 23.5 25 23.5ZM25.0208 19.9583C26.4065 18.8803 27.4439 17.8256 28.1329 16.7942C28.8221 15.7626 29.1667 14.749 29.1667 13.7531C29.1667 12.2942 28.7179 11.1928 27.8204 10.449C26.9231 9.70521 25.9856 9.33333 25.0079 9.33333C24.0304 9.33333 23.0903 9.70562 22.1875 10.4502C21.2847 11.1948 20.8333 12.2974 20.8333 13.7579C20.8333 14.7174 21.1763 15.7086 21.8621 16.7317C22.5481 17.7546 23.601 18.8301 25.0208 19.9583ZM25 21C23.3214 19.7253 22.0684 18.4873 21.241 17.286C20.4137 16.0848 20 14.9081 20 13.7558C20 12.8856 20.1503 12.1242 20.451 11.4719C20.7519 10.8197 21.1426 10.2729 21.6233 9.83167C22.1042 9.39042 22.6419 9.05819 23.2365 8.835C23.831 8.61167 24.4197 8.5 25.0025 8.5C25.5853 8.5 26.1731 8.61167 26.766 8.835C27.359 9.05819 27.8958 9.39042 28.3767 9.83167C28.8574 10.2729 29.2481 10.8201 29.549 11.4733C29.8497 12.1264 30 12.8863 30 13.7531C30 14.9058 29.5863 16.0829 28.759 17.2846C27.9316 18.4862 26.6786 19.7247 25 21ZM25.0079 14.9904C25.3756 14.9904 25.6905 14.8619 25.9527 14.605C26.2151 14.3481 26.3463 14.0305 26.3463 13.6523C26.3463 13.2741 26.2144 12.9538 25.9506 12.6915C25.687 12.4292 25.3701 12.2981 25 12.2981C24.6378 12.2981 24.3228 12.4299 24.0552 12.6935C23.7876 12.9572 23.6537 13.274 23.6537 13.6442C23.6537 14.0278 23.7876 14.3481 24.0552 14.605C24.3228 14.8619 24.6404 14.9904 25.0079 14.9904Z" fill="white"/>
</svg>
