<svg width="45" height="95" viewBox="0 0 45 95" fill="none" xmlns="http://www.w3.org/2000/svg">
<path d="M15 95C6.71573 95 0 88.2843 0 80V15C0 6.71573 6.71573 0 15 0H45V95H15Z" fill="#421D12"/>
<path d="M21.6357 75.7299C21.4257 75.7299 21.3207 75.8299 21.3207 76.0299C21.3307 76.1199 21.3357 76.2249 21.3357 76.3449L21.3507 76.4949C21.3507 76.5949 21.3207 76.6749 21.2607 76.7349C21.1707 76.8349 21.0407 76.9199 20.8707 76.9899C20.7107 77.0599 20.5407 77.0949 20.3607 77.0949C20.2507 77.0949 20.1557 77.0649 20.0757 77.0049C20.0057 76.9449 19.9707 76.8749 19.9707 76.7949C20.0107 76.2049 20.0457 75.6349 20.0757 75.0849C20.1057 74.5249 20.1257 73.7949 20.1357 72.8949V67.2999C20.1357 66.3299 20.0907 65.4499 20.0007 64.6599V64.5999C20.0007 64.4499 20.0657 64.3749 20.1957 64.3749C20.2557 64.3749 20.3057 64.3849 20.3457 64.4049L21.2607 64.8099C21.3907 64.8699 21.5207 64.8999 21.6507 64.8999H27.3657C27.5257 64.8999 27.6557 64.8349 27.7557 64.7049L27.8907 64.5249C27.9307 64.4749 27.9907 64.3999 28.0707 64.2999C28.1607 64.1999 28.2357 64.1499 28.2957 64.1499C28.3757 64.1499 28.5507 64.2599 28.8207 64.4799C29.1007 64.6899 29.3107 64.8799 29.4507 65.0499C29.5007 65.0999 29.5257 65.1549 29.5257 65.2149C29.5257 65.2849 29.4857 65.3449 29.4057 65.3949L29.2557 65.4849C29.1657 65.5249 29.0957 65.5699 29.0457 65.6199C29.0057 65.6699 28.9857 65.7399 28.9857 65.8299V72.9849C29.0057 74.0749 29.0407 75.1749 29.0907 76.2849V76.3449C29.0907 76.4849 29.0357 76.5899 28.9257 76.6599C28.7957 76.7499 28.6357 76.8299 28.4457 76.8999C28.2557 76.9699 28.0857 77.0049 27.9357 77.0049H27.8757C27.7557 76.9749 27.6957 76.8749 27.6957 76.7049C27.7157 76.6249 27.7257 76.5649 27.7257 76.5249C27.7257 76.5049 27.7357 76.3849 27.7557 76.1649V76.0449C27.7557 75.9449 27.7257 75.8699 27.6657 75.8199C27.6157 75.7599 27.5407 75.7299 27.4407 75.7299H21.6357ZM27.4407 69.9999C27.5407 69.9999 27.6157 69.9749 27.6657 69.9249C27.7257 69.8649 27.7557 69.7849 27.7557 69.6849V65.6499C27.7557 65.5499 27.7257 65.4749 27.6657 65.4249C27.6157 65.3649 27.5407 65.3349 27.4407 65.3349H21.6357C21.5357 65.3349 21.4557 65.3649 21.3957 65.4249C21.3457 65.4749 21.3207 65.5499 21.3207 65.6499V69.6849C21.3207 69.7849 21.3457 69.8649 21.3957 69.9249C21.4557 69.9749 21.5357 69.9999 21.6357 69.9999H27.4407ZM21.6357 70.4349C21.5357 70.4349 21.4557 70.4649 21.3957 70.5249C21.3457 70.5749 21.3207 70.6499 21.3207 70.7499V74.9799C21.3207 75.0799 21.3457 75.1599 21.3957 75.2199C21.4557 75.2699 21.5357 75.2949 21.6357 75.2949H27.4407C27.5407 75.2949 27.6157 75.2699 27.6657 75.2199C27.7257 75.1599 27.7557 75.0799 27.7557 74.9799V70.7499C27.7557 70.6499 27.7257 70.5749 27.6657 70.5249C27.6157 70.4649 27.5407 70.4349 27.4407 70.4349H21.6357Z" fill="white"/>
<path d="M28.5809 56.415C28.7409 56.415 28.8659 56.35 28.9559 56.22L29.1509 55.95C29.1909 55.9 29.2409 55.835 29.3009 55.755C29.3709 55.665 29.4259 55.6 29.4659 55.56C29.5159 55.51 29.5609 55.485 29.6009 55.485C29.6809 55.485 29.8709 55.605 30.1709 55.845C30.4709 56.075 30.6859 56.27 30.8159 56.43C30.8659 56.5 30.8909 56.56 30.8909 56.61C30.8909 56.67 30.8609 56.725 30.8009 56.775C30.7209 56.825 30.6259 56.85 30.5159 56.85H26.1509C25.9609 56.85 25.8659 56.915 25.8659 57.045C25.8659 57.115 25.9059 57.18 25.9859 57.24C26.6259 57.78 27.3859 58.27 28.2659 58.71C29.1559 59.15 30.0359 59.485 30.9059 59.715C31.1159 59.765 31.2109 59.815 31.1909 59.865C31.1809 59.905 31.1459 59.94 31.0859 59.97C31.0259 59.99 30.9759 60.01 30.9359 60.03C30.7059 60.14 30.5209 60.335 30.3809 60.615C30.3209 60.755 30.2359 60.825 30.1259 60.825C30.1059 60.825 30.0559 60.815 29.9759 60.795C29.0459 60.405 28.1659 59.89 27.3359 59.25C26.5159 58.6 25.8309 57.87 25.2809 57.06C25.2009 56.92 25.1409 56.85 25.1009 56.85C25.0609 56.85 25.0409 56.955 25.0409 57.165V58.2C25.0709 59.25 25.0959 60.045 25.1159 60.585V60.66C25.1159 60.8 25.0709 60.9 24.9809 60.96C24.7509 61.13 24.4459 61.215 24.0659 61.215C23.9759 61.215 23.9059 61.185 23.8559 61.125C23.8059 61.065 23.7809 60.995 23.7809 60.915C23.8209 60.365 23.8559 59.625 23.8859 58.695V57.975C23.8859 57.895 23.8659 57.83 23.8259 57.78C23.7959 57.73 23.7559 57.705 23.7059 57.705C23.6459 57.705 23.5809 57.74 23.5109 57.81C22.8309 58.44 22.0459 59.01 21.1559 59.52C20.2659 60.02 19.3159 60.445 18.3059 60.795C18.2159 60.825 18.1459 60.84 18.0959 60.84C18.0459 60.84 18.0059 60.82 17.9759 60.78C17.9659 60.77 17.9609 60.755 17.9609 60.735C17.9609 60.675 18.0409 60.6 18.2009 60.51C19.0409 60.08 19.8359 59.585 20.5859 59.025C21.3459 58.455 22.0009 57.86 22.5509 57.24C22.6109 57.16 22.6409 57.09 22.6409 57.03C22.6409 56.91 22.5509 56.85 22.3709 56.85H20.7059C20.0959 56.86 19.4359 56.915 18.7259 57.015H18.6359C18.4959 57.015 18.3959 56.95 18.3359 56.82L18.2759 56.7C18.2459 56.64 18.2309 56.58 18.2309 56.52C18.2309 56.46 18.2559 56.415 18.3059 56.385C18.3559 56.345 18.4259 56.33 18.5159 56.34C18.8559 56.37 19.3709 56.395 20.0609 56.415H23.5709C23.6709 56.415 23.7459 56.39 23.7959 56.34C23.8559 56.28 23.8859 56.2 23.8859 56.1V55.26C23.8859 55.16 23.8559 55.085 23.7959 55.035C23.7459 54.975 23.6709 54.945 23.5709 54.945H22.0859C21.4759 54.955 20.8159 55.01 20.1059 55.11H20.0159C19.8759 55.11 19.7759 55.045 19.7159 54.915L19.6559 54.81C19.6259 54.75 19.6109 54.695 19.6109 54.645C19.6109 54.495 19.7109 54.43 19.9109 54.45C20.2509 54.48 20.7659 54.505 21.4559 54.525H23.5709C23.6709 54.525 23.7459 54.5 23.7959 54.45C23.8559 54.39 23.8859 54.31 23.8859 54.21V53.46C23.8859 53.36 23.8559 53.285 23.7959 53.235C23.7459 53.175 23.6709 53.145 23.5709 53.145H21.3959C20.7859 53.155 20.1259 53.21 19.4159 53.31H19.3259C19.1859 53.31 19.0859 53.245 19.0259 53.115L18.9659 52.995C18.9359 52.935 18.9209 52.875 18.9209 52.815C18.9209 52.755 18.9459 52.71 18.9959 52.68C19.0459 52.64 19.1159 52.625 19.2059 52.635C19.5459 52.665 20.0609 52.69 20.7509 52.71H22.0559C22.2659 52.71 22.3709 52.675 22.3709 52.605C22.3709 52.585 22.3609 52.525 22.3409 52.425C22.2409 51.935 21.9909 51.415 21.5909 50.865C21.5009 50.745 21.3709 50.685 21.2009 50.685H20.3159C19.7559 50.695 19.1659 50.75 18.5459 50.85H18.4559C18.3159 50.85 18.2159 50.785 18.1559 50.655L18.0959 50.55C18.0659 50.49 18.0509 50.435 18.0509 50.385C18.0509 50.235 18.1509 50.17 18.3509 50.19C18.6909 50.22 19.2059 50.245 19.8959 50.265H22.4909C22.7009 50.265 22.8059 50.16 22.8059 49.95C22.7859 49.1 22.7409 48.355 22.6709 47.715V47.685C22.6709 47.505 22.7459 47.415 22.8959 47.415C22.9159 47.415 22.9659 47.425 23.0459 47.445C23.8059 47.665 24.1859 47.83 24.1859 47.94C24.1859 47.97 24.1659 48 24.1259 48.03C24.0959 48.05 24.0759 48.065 24.0659 48.075L24.0509 48.09C23.9109 48.19 23.8409 48.315 23.8409 48.465V49.95C23.8409 50.05 23.8659 50.13 23.9159 50.19C23.9759 50.24 24.0559 50.265 24.1559 50.265H24.8909C25.1009 50.265 25.2059 50.16 25.2059 49.95C25.1859 49.1 25.1409 48.355 25.0709 47.715V47.685C25.0709 47.505 25.1459 47.415 25.2959 47.415C25.3159 47.415 25.3659 47.425 25.4459 47.445C25.8759 47.565 26.1709 47.665 26.3309 47.745C26.5009 47.825 26.5859 47.895 26.5859 47.955C26.5859 47.995 26.5509 48.04 26.4809 48.09L26.4659 48.105C26.3259 48.205 26.2559 48.33 26.2559 48.48V49.95C26.2559 50.05 26.2759 50.13 26.3159 50.19C26.3659 50.24 26.4259 50.265 26.4959 50.265C26.6659 50.265 26.7909 50.195 26.8709 50.055C27.0709 49.735 27.2559 49.38 27.4259 48.99C27.6059 48.59 27.7509 48.22 27.8609 47.88C27.9109 47.73 27.9959 47.655 28.1159 47.655C28.1659 47.655 28.2209 47.67 28.2809 47.7C29.0709 48.01 29.4659 48.22 29.4659 48.33C29.4659 48.37 29.4209 48.4 29.3309 48.42L29.2559 48.435C29.1059 48.475 28.9909 48.545 28.9109 48.645C28.4709 49.115 28.0409 49.53 27.6209 49.89C27.5309 49.96 27.4859 50.03 27.4859 50.1C27.4859 50.15 27.5109 50.19 27.5609 50.22C27.6109 50.25 27.6759 50.265 27.7559 50.265H28.7759C28.9359 50.265 29.0609 50.2 29.1509 50.07L29.3309 49.815C29.3709 49.765 29.4209 49.7 29.4809 49.62C29.5509 49.53 29.6059 49.465 29.6459 49.425C29.6859 49.385 29.7259 49.365 29.7659 49.365C29.8459 49.365 30.0309 49.48 30.3209 49.71C30.6209 49.93 30.8359 50.12 30.9659 50.28C31.0159 50.33 31.0409 50.385 31.0409 50.445C31.0409 50.505 31.0109 50.56 30.9509 50.61C30.8809 50.66 30.7909 50.685 30.6809 50.685H28.0409C27.8809 50.685 27.7409 50.7 27.6209 50.73C27.5109 50.76 27.4909 50.785 27.5609 50.805C27.7709 50.875 27.8759 50.945 27.8759 51.015C27.8759 51.055 27.8209 51.1 27.7109 51.15L27.6359 51.18C27.5059 51.22 27.3959 51.295 27.3059 51.405C26.9259 51.805 26.6159 52.115 26.3759 52.335C26.2959 52.405 26.2559 52.475 26.2559 52.545C26.2559 52.655 26.3409 52.71 26.5109 52.71H28.0409C28.2009 52.71 28.3259 52.645 28.4159 52.515L28.6109 52.26C28.6509 52.21 28.7009 52.145 28.7609 52.065C28.8309 51.975 28.8859 51.91 28.9259 51.87C28.9659 51.83 29.0059 51.81 29.0459 51.81C29.1259 51.81 29.3059 51.925 29.5859 52.155C29.8759 52.375 30.0859 52.565 30.2159 52.725C30.2659 52.795 30.2909 52.855 30.2909 52.905C30.2909 52.965 30.2609 53.02 30.2009 53.07C30.1209 53.12 30.0309 53.145 29.9309 53.145H25.3559C25.2559 53.145 25.1759 53.175 25.1159 53.235C25.0659 53.285 25.0409 53.36 25.0409 53.46V54.21C25.0409 54.31 25.0659 54.39 25.1159 54.45C25.1759 54.5 25.2559 54.525 25.3559 54.525H27.3959C27.5559 54.525 27.6809 54.46 27.7709 54.33L27.9359 54.105C27.9759 54.055 28.0159 53.995 28.0559 53.925C28.1059 53.855 28.1559 53.795 28.2059 53.745C28.2559 53.695 28.3009 53.67 28.3409 53.67C28.4109 53.67 28.5809 53.775 28.8509 53.985C29.1209 54.195 29.3209 54.38 29.4509 54.54C29.5009 54.61 29.5259 54.67 29.5259 54.72C29.5259 54.79 29.4909 54.845 29.4209 54.885C29.3709 54.925 29.2859 54.945 29.1659 54.945H25.3559C25.2559 54.945 25.1759 54.975 25.1159 55.035C25.0659 55.085 25.0409 55.16 25.0409 55.26V56.1C25.0409 56.2 25.0659 56.28 25.1159 56.34C25.1759 56.39 25.2559 56.415 25.3559 56.415H28.5809ZM19.8959 48.105C19.7859 47.995 19.7309 47.91 19.7309 47.85C19.7309 47.8 19.7659 47.775 19.8359 47.775C19.8959 47.775 19.9709 47.79 20.0609 47.82C20.6809 48.04 21.1309 48.31 21.4109 48.63C21.7009 48.94 21.8459 49.25 21.8459 49.56C21.8459 49.75 21.7959 49.905 21.6959 50.025C21.5959 50.145 21.4709 50.205 21.3209 50.205C21.2309 50.205 21.1509 50.185 21.0809 50.145C21.0109 50.115 20.9609 50.075 20.9309 50.025C20.9009 49.975 20.8709 49.905 20.8409 49.815C20.7709 49.535 20.6509 49.24 20.4809 48.93C20.3109 48.62 20.1159 48.345 19.8959 48.105ZM26.2859 50.91C26.2859 50.84 26.2609 50.785 26.2109 50.745C26.1609 50.705 26.0959 50.685 26.0159 50.685H22.6559C22.4959 50.685 22.4159 50.72 22.4159 50.79C22.4159 50.84 22.4759 50.91 22.5959 51C22.8559 51.18 23.0509 51.38 23.1809 51.6C23.3109 51.81 23.3759 52.01 23.3759 52.2C23.3759 52.28 23.3709 52.335 23.3609 52.365C23.3409 52.465 23.3309 52.525 23.3309 52.545C23.3309 52.655 23.4059 52.71 23.5559 52.71H25.1759C25.3459 52.71 25.4709 52.64 25.5509 52.5C25.8409 51.96 26.0759 51.475 26.2559 51.045L26.2859 50.91Z" fill="white"/>
<path d="M28.9252 34.16C29.0952 34.16 29.2252 34.1 29.3152 33.98L29.4802 33.785C29.5302 33.735 29.6002 33.66 29.6902 33.56C29.7802 33.46 29.8552 33.41 29.9152 33.41C29.9852 33.41 30.1502 33.535 30.4102 33.785C30.6702 34.025 30.8702 34.24 31.0102 34.43C31.0502 34.48 31.0702 34.535 31.0702 34.595C31.0702 34.685 31.0152 34.745 30.9052 34.775L30.8002 34.805C30.6302 34.835 30.5002 34.89 30.4102 34.97C29.9802 35.35 29.4952 35.71 28.9552 36.05C28.8152 36.15 28.7152 36.175 28.6552 36.125C28.6352 36.115 28.6252 36.09 28.6252 36.05C28.6252 35.98 28.6502 35.895 28.7002 35.795C28.8202 35.535 28.9352 35.25 29.0452 34.94C29.0652 34.88 29.0752 34.835 29.0752 34.805C29.0752 34.735 29.0502 34.68 29.0002 34.64C28.9502 34.6 28.8802 34.58 28.7902 34.58H20.2702C20.0802 34.58 19.9752 34.685 19.9552 34.895C19.9352 35.285 19.8552 35.62 19.7152 35.9C19.5752 36.18 19.4052 36.395 19.2052 36.545C19.0152 36.675 18.8252 36.74 18.6352 36.74C18.4652 36.74 18.3202 36.695 18.2002 36.605C18.0902 36.505 18.0352 36.365 18.0352 36.185C18.0352 35.915 18.1852 35.685 18.4852 35.495C18.7452 35.325 18.9702 35.07 19.1602 34.73C19.3502 34.38 19.4502 33.995 19.4602 33.575C19.4802 33.365 19.5202 33.26 19.5802 33.26C19.6602 33.26 19.7202 33.345 19.7602 33.515C19.7902 33.595 19.8252 33.715 19.8652 33.875C19.8952 34.065 20.0052 34.16 20.1952 34.16H26.0002C26.1702 34.16 26.2702 34.135 26.3002 34.085C26.5302 33.705 26.7452 33.29 26.9452 32.84C27.1452 32.38 27.2952 31.96 27.3952 31.58C27.4452 31.43 27.5302 31.355 27.6502 31.355C27.7202 31.355 27.7752 31.365 27.8152 31.385C28.7252 31.775 29.1802 32.03 29.1802 32.15C29.1802 32.19 29.1302 32.22 29.0302 32.24L28.9552 32.255C28.8152 32.285 28.6952 32.355 28.5952 32.465C28.2152 32.895 27.7402 33.33 27.1702 33.77C27.0802 33.84 27.0352 33.915 27.0352 33.995C27.0352 34.045 27.0602 34.085 27.1102 34.115C27.1602 34.145 27.2252 34.16 27.3052 34.16H28.9252ZM23.3152 31.7C23.2152 31.52 23.1852 31.415 23.2252 31.385C23.2352 31.375 23.2552 31.37 23.2852 31.37C23.3252 31.37 23.4052 31.395 23.5252 31.445C24.0452 31.715 24.4252 32.01 24.6652 32.33C24.9152 32.64 25.0402 32.94 25.0402 33.23C25.0402 33.44 24.9852 33.615 24.8752 33.755C24.7652 33.885 24.6252 33.95 24.4552 33.95C24.3352 33.95 24.2252 33.915 24.1252 33.845C24.0152 33.785 23.9502 33.665 23.9302 33.485C23.8602 32.925 23.6552 32.33 23.3152 31.7ZM20.2402 31.955C20.1002 31.785 20.0552 31.68 20.1052 31.64C20.1152 31.63 20.1452 31.625 20.1952 31.625C20.2452 31.625 20.3152 31.64 20.4052 31.67C21.0152 31.88 21.4602 32.145 21.7402 32.465C22.0302 32.775 22.1752 33.08 22.1752 33.38C22.1752 33.57 22.1202 33.73 22.0102 33.86C21.9102 33.98 21.7802 34.04 21.6202 34.04C21.5202 34.04 21.4302 34.02 21.3502 33.98C21.2802 33.95 21.2302 33.91 21.2002 33.86C21.1702 33.81 21.1402 33.74 21.1102 33.65C21.0502 33.38 20.9402 33.095 20.7802 32.795C20.6202 32.485 20.4402 32.205 20.2402 31.955ZM26.5702 36.08C26.7302 36.08 26.8552 36.015 26.9452 35.885L27.0652 35.72C27.0952 35.68 27.1352 35.625 27.1852 35.555C27.2452 35.485 27.2902 35.435 27.3202 35.405C27.3602 35.375 27.4002 35.36 27.4402 35.36C27.5102 35.36 27.6702 35.46 27.9202 35.66C28.1802 35.86 28.3802 36.04 28.5202 36.2C28.5602 36.25 28.5802 36.305 28.5802 36.365C28.5802 36.435 28.5352 36.5 28.4452 36.56L28.3402 36.605C28.1702 36.685 28.0852 36.805 28.0852 36.965V37.55L28.1152 38.195C28.1152 38.395 28.1252 38.645 28.1452 38.945V39.02C28.1452 39.16 28.0952 39.26 27.9952 39.32C27.8852 39.39 27.7452 39.45 27.5752 39.5C27.4152 39.55 27.2702 39.575 27.1402 39.575C27.0102 39.575 26.9452 39.475 26.9452 39.275C26.9452 39.075 26.8402 38.975 26.6302 38.975H25.2652C25.0852 38.975 24.9602 39.045 24.8902 39.185L24.1552 40.4C24.1052 40.48 24.0802 40.545 24.0802 40.595C24.0802 40.645 24.1052 40.69 24.1552 40.73C24.2052 40.76 24.2702 40.775 24.3502 40.775H27.5302C27.6902 40.775 27.8202 40.71 27.9202 40.58L28.0252 40.445C28.0552 40.405 28.1052 40.34 28.1752 40.25C28.2552 40.15 28.3252 40.1 28.3852 40.1C28.4552 40.1 28.6252 40.2 28.8952 40.4C29.1652 40.59 29.3752 40.765 29.5252 40.925C29.5652 40.975 29.5852 41.03 29.5852 41.09C29.5852 41.16 29.5402 41.225 29.4502 41.285L29.3152 41.36C29.2252 41.4 29.1552 41.445 29.1052 41.495C29.0652 41.545 29.0452 41.615 29.0452 41.705V42.575C29.0752 43.425 29.1002 44.075 29.1202 44.525V44.6C29.1202 44.74 29.0652 44.84 28.9552 44.9C28.8352 44.97 28.6902 45.03 28.5202 45.08C28.3502 45.14 28.2002 45.17 28.0702 45.17C28.0002 45.17 27.9452 45.135 27.9052 45.065C27.8752 45.005 27.8602 44.95 27.8602 44.9C27.8602 44.86 27.8702 44.79 27.8902 44.69L27.9202 44.51V44.48C27.9202 44.38 27.8902 44.3 27.8302 44.24C27.7802 44.19 27.7052 44.165 27.6052 44.165H21.4102C21.3102 44.165 21.2302 44.19 21.1702 44.24C21.1202 44.3 21.0952 44.38 21.0952 44.48V44.84C21.0952 44.9 20.9902 44.975 20.7802 45.065C20.5702 45.155 20.3602 45.2 20.1502 45.2C20.0802 45.2 20.0202 45.17 19.9702 45.11C19.9302 45.05 19.9102 44.98 19.9102 44.9C19.9502 44.54 19.9802 44.09 20.0002 43.55V42.71C20.0002 41.9 19.9652 41.195 19.8952 40.595V40.535C19.8952 40.385 19.9602 40.31 20.0902 40.31C20.1502 40.31 20.2002 40.32 20.2402 40.34L21.0052 40.685C21.1352 40.745 21.2652 40.775 21.3952 40.775H23.0152C23.2052 40.775 23.3202 40.685 23.3602 40.505C23.4602 40.055 23.5402 39.655 23.6002 39.305L23.6152 39.215C23.6152 39.145 23.5852 39.09 23.5252 39.05C23.4752 39 23.4052 38.975 23.3152 38.975H22.3102C22.2102 38.975 22.1302 39.005 22.0702 39.065C22.0202 39.115 21.9952 39.19 21.9952 39.29V39.365C21.9952 39.415 21.8852 39.49 21.6652 39.59C21.4552 39.68 21.2452 39.725 21.0352 39.725C20.9552 39.725 20.8952 39.695 20.8552 39.635C20.8152 39.575 20.7952 39.505 20.7952 39.425C20.8252 39.175 20.8452 38.93 20.8552 38.69L20.8702 38.345V37.64C20.8702 37.09 20.8452 36.515 20.7952 35.915V35.855C20.7952 35.705 20.8602 35.63 20.9902 35.63C21.0502 35.63 21.1002 35.64 21.1402 35.66L21.9052 36.005C22.0152 36.055 22.1452 36.08 22.2952 36.08H26.5702ZM26.9452 36.83C26.9452 36.73 26.9152 36.655 26.8552 36.605C26.8052 36.545 26.7302 36.515 26.6302 36.515H22.3102C22.2102 36.515 22.1302 36.545 22.0702 36.605C22.0202 36.655 21.9952 36.73 21.9952 36.83V38.225C21.9952 38.325 22.0202 38.405 22.0702 38.465C22.1302 38.515 22.2102 38.54 22.3102 38.54H26.6302C26.7302 38.54 26.8052 38.515 26.8552 38.465C26.9152 38.405 26.9452 38.325 26.9452 38.225V36.83ZM21.4102 41.225C21.3102 41.225 21.2302 41.255 21.1702 41.315C21.1202 41.365 21.0952 41.44 21.0952 41.54V43.415C21.0952 43.515 21.1202 43.595 21.1702 43.655C21.2302 43.705 21.3102 43.73 21.4102 43.73H27.6052C27.7052 43.73 27.7802 43.705 27.8302 43.655C27.8902 43.595 27.9202 43.515 27.9202 43.415V41.54C27.9202 41.44 27.8902 41.365 27.8302 41.315C27.7802 41.255 27.7052 41.225 27.6052 41.225H21.4102Z" fill="white"/>
<path d="M18.7615 15.3399H29.4227V13.0001C29.4227 12.88 29.3739 12.7699 29.2763 12.6699C29.1787 12.57 29.0712 12.52 28.954 12.52H19.2302C19.1129 12.52 19.0055 12.57 18.9079 12.6699C18.8103 12.7699 18.7615 12.88 18.7615 13.0001V15.3399ZM19.2302 24.22C18.8797 24.22 18.587 24.0997 18.3522 23.8592C18.1174 23.6187 18 23.319 18 22.9599V13.0001C18 12.641 18.1174 12.3412 18.3522 12.1007C18.587 11.8602 18.8797 11.74 19.2302 11.74H20.5773V10H21.3975V11.74H26.8453V10H27.6068V11.74H28.954C29.3045 11.74 29.5972 11.8602 29.832 12.1007C30.0668 12.3412 30.1842 12.641 30.1842 13.0001V17.0964C30.0602 17.0495 29.9347 17.0145 29.8078 16.9915C29.6809 16.9685 29.5525 16.9475 29.4227 16.9286V16.1201H18.7615V22.9599C18.7615 23.08 18.8103 23.1901 18.9079 23.29C19.0055 23.39 19.1129 23.44 19.2302 23.44H24.3352C24.3752 23.586 24.4262 23.7215 24.4883 23.8466C24.5502 23.9715 24.6149 24.096 24.6823 24.22H19.2302ZM28.954 25C28.1056 25 27.3859 24.6972 26.7947 24.0917C26.2035 23.4863 25.9079 22.749 25.9079 21.88C25.9079 21.0109 26.2035 20.2737 26.7947 19.6683C27.3859 19.0628 28.1056 18.76 28.954 18.76C29.8024 18.76 30.5222 19.0628 31.1134 19.6683C31.7045 20.2737 32 21.0109 32 21.88C32 22.749 31.7045 23.4863 31.1134 24.0917C30.5222 24.6972 29.8024 25 28.954 25ZM30.215 23.5976L30.6308 23.1715L29.2469 21.754V19.6301H28.6612V22.006L30.215 23.5976Z" fill="white"/>
</svg>
