<svg width="125" height="40" viewBox="0 0 125 40" fill="none" xmlns="http://www.w3.org/2000/svg">
<path d="M0 0H125V40H0V0Z" fill="#846B63"/>
<path d="M77.3265 25.7479C77.1305 25.7479 77.0325 25.8413 77.0325 26.0279C77.0418 26.1119 77.0465 26.2099 77.0465 26.3219L77.0605 26.4619C77.0605 26.5553 77.0325 26.6299 76.9765 26.6859C76.8925 26.7793 76.7711 26.8586 76.6125 26.9239C76.4631 26.9893 76.3045 27.0219 76.1365 27.0219C76.0338 27.0219 75.9451 26.9939 75.8705 26.9379C75.8051 26.8819 75.7725 26.8166 75.7725 26.7419C75.8098 26.1913 75.8425 25.6593 75.8705 25.1459C75.8985 24.6233 75.9171 23.9419 75.9265 23.1019V17.8799C75.9265 16.9746 75.8845 16.1533 75.8005 15.4159V15.3599C75.8005 15.2199 75.8611 15.1499 75.9825 15.1499C76.0385 15.1499 76.0851 15.1593 76.1225 15.1779L76.9765 15.5559C77.0978 15.6119 77.2191 15.6399 77.3405 15.6399H82.6745C82.8238 15.6399 82.9451 15.5793 83.0385 15.4579L83.1645 15.2899C83.2018 15.2433 83.2578 15.1733 83.3325 15.0799C83.4165 14.9866 83.4865 14.9399 83.5425 14.9399C83.6171 14.9399 83.7805 15.0426 84.0325 15.2479C84.2938 15.4439 84.4898 15.6213 84.6205 15.7799C84.6671 15.8266 84.6905 15.8779 84.6905 15.9339C84.6905 15.9993 84.6531 16.0553 84.5785 16.1019L84.4385 16.1859C84.3545 16.2233 84.2891 16.2653 84.2425 16.3119C84.2051 16.3586 84.1865 16.4239 84.1865 16.5079V23.1859C84.2051 24.2033 84.2378 25.2299 84.2845 26.2659V26.3219C84.2845 26.4526 84.2331 26.5506 84.1305 26.6159C84.0091 26.6999 83.8598 26.7746 83.6825 26.8399C83.5051 26.9053 83.3465 26.9379 83.2065 26.9379H83.1505C83.0385 26.9099 82.9825 26.8166 82.9825 26.6579C83.0011 26.5833 83.0105 26.5273 83.0105 26.4899C83.0105 26.4713 83.0198 26.3593 83.0385 26.1539V26.0419C83.0385 25.9486 83.0105 25.8786 82.9545 25.8319C82.9078 25.7759 82.8378 25.7479 82.7445 25.7479H77.3265ZM82.7445 20.3999C82.8378 20.3999 82.9078 20.3766 82.9545 20.3299C83.0105 20.2739 83.0385 20.1993 83.0385 20.1059V16.3399C83.0385 16.2466 83.0105 16.1766 82.9545 16.1299C82.9078 16.0739 82.8378 16.0459 82.7445 16.0459H77.3265C77.2331 16.0459 77.1585 16.0739 77.1025 16.1299C77.0558 16.1766 77.0325 16.2466 77.0325 16.3399V20.1059C77.0325 20.1993 77.0558 20.2739 77.1025 20.3299C77.1585 20.3766 77.2331 20.3999 77.3265 20.3999H82.7445ZM77.3265 20.8059C77.2331 20.8059 77.1585 20.8339 77.1025 20.8899C77.0558 20.9366 77.0325 21.0066 77.0325 21.0999V25.0479C77.0325 25.1413 77.0558 25.2159 77.1025 25.2719C77.1585 25.3186 77.2331 25.3419 77.3265 25.3419H82.7445C82.8378 25.3419 82.9078 25.3186 82.9545 25.2719C83.0105 25.2159 83.0385 25.1413 83.0385 25.0479V21.0999C83.0385 21.0066 83.0105 20.9366 82.9545 20.8899C82.9078 20.8339 82.8378 20.8059 82.7445 20.8059H77.3265Z" fill="white"/>
<path d="M69.8085 22.6539C69.9578 22.6539 70.0745 22.5932 70.1585 22.4719L70.3405 22.2199C70.3778 22.1732 70.4245 22.1126 70.4805 22.0379C70.5458 21.9539 70.5972 21.8932 70.6345 21.8559C70.6812 21.8092 70.7232 21.7859 70.7605 21.7859C70.8352 21.7859 71.0125 21.8979 71.2925 22.1219C71.5725 22.3366 71.7732 22.5186 71.8945 22.6679C71.9412 22.7332 71.9645 22.7892 71.9645 22.8359C71.9645 22.8919 71.9365 22.9432 71.8805 22.9899C71.8058 23.0366 71.7172 23.0599 71.6145 23.0599H67.5405C67.3632 23.0599 67.2745 23.1206 67.2745 23.2419C67.2745 23.3072 67.3118 23.3679 67.3865 23.4239C67.9838 23.9279 68.6932 24.3852 69.5145 24.7959C70.3452 25.2066 71.1665 25.5192 71.9785 25.7339C72.1745 25.7806 72.2632 25.8272 72.2445 25.8739C72.2352 25.9112 72.2025 25.9439 72.1465 25.9719C72.0905 25.9906 72.0438 26.0092 72.0065 26.0279C71.7918 26.1306 71.6192 26.3126 71.4885 26.5739C71.4325 26.7046 71.3532 26.7699 71.2505 26.7699C71.2318 26.7699 71.1852 26.7606 71.1105 26.7419C70.2425 26.3779 69.4212 25.8972 68.6465 25.2999C67.8812 24.6932 67.2418 24.0119 66.7285 23.2559C66.6538 23.1252 66.5978 23.0599 66.5605 23.0599C66.5232 23.0599 66.5045 23.1579 66.5045 23.3539V24.3199C66.5325 25.2999 66.5558 26.0419 66.5745 26.5459V26.6159C66.5745 26.7466 66.5325 26.8399 66.4485 26.8959C66.2338 27.0546 65.9492 27.1339 65.5945 27.1339C65.5105 27.1339 65.4452 27.1059 65.3985 27.0499C65.3518 26.9939 65.3285 26.9286 65.3285 26.8539C65.3658 26.3406 65.3985 25.6499 65.4265 24.7819V24.1099C65.4265 24.0352 65.4078 23.9746 65.3705 23.9279C65.3425 23.8812 65.3052 23.8579 65.2585 23.8579C65.2025 23.8579 65.1418 23.8906 65.0765 23.9559C64.4418 24.5439 63.7092 25.0759 62.8785 25.5519C62.0478 26.0186 61.1612 26.4152 60.2185 26.7419C60.1345 26.7699 60.0692 26.7839 60.0225 26.7839C59.9758 26.7839 59.9385 26.7652 59.9105 26.7279C59.9012 26.7186 59.8965 26.7046 59.8965 26.6859C59.8965 26.6299 59.9712 26.5599 60.1205 26.4759C60.9045 26.0746 61.6465 25.6126 62.3465 25.0899C63.0558 24.5579 63.6672 24.0026 64.1805 23.4239C64.2365 23.3492 64.2645 23.2839 64.2645 23.2279C64.2645 23.1159 64.1805 23.0599 64.0125 23.0599H62.4585C61.8892 23.0692 61.2732 23.1206 60.6105 23.2139H60.5265C60.3958 23.2139 60.3025 23.1532 60.2465 23.0319L60.1905 22.9199C60.1625 22.8639 60.1485 22.8079 60.1485 22.7519C60.1485 22.6959 60.1718 22.6539 60.2185 22.6259C60.2652 22.5886 60.3305 22.5746 60.4145 22.5839C60.7318 22.6119 61.2125 22.6352 61.8565 22.6539H65.1325C65.2258 22.6539 65.2958 22.6306 65.3425 22.5839C65.3985 22.5279 65.4265 22.4532 65.4265 22.3599V21.5759C65.4265 21.4826 65.3985 21.4126 65.3425 21.3659C65.2958 21.3099 65.2258 21.2819 65.1325 21.2819H63.7465C63.1772 21.2912 62.5612 21.3426 61.8985 21.4359H61.8145C61.6838 21.4359 61.5905 21.3752 61.5345 21.2539L61.4785 21.1559C61.4505 21.0999 61.4365 21.0486 61.4365 21.0019C61.4365 20.8619 61.5298 20.8012 61.7165 20.8199C62.0338 20.8479 62.5145 20.8712 63.1585 20.8899H65.1325C65.2258 20.8899 65.2958 20.8666 65.3425 20.8199C65.3985 20.7639 65.4265 20.6892 65.4265 20.5959V19.8959C65.4265 19.8026 65.3985 19.7326 65.3425 19.6859C65.2958 19.6299 65.2258 19.6019 65.1325 19.6019H63.1025C62.5332 19.6112 61.9172 19.6626 61.2545 19.7559H61.1705C61.0398 19.7559 60.9465 19.6952 60.8905 19.5739L60.8345 19.4619C60.8065 19.4059 60.7925 19.3499 60.7925 19.2939C60.7925 19.2379 60.8158 19.1959 60.8625 19.1679C60.9092 19.1306 60.9745 19.1166 61.0585 19.1259C61.3758 19.1539 61.8565 19.1772 62.5005 19.1959H63.7185C63.9145 19.1959 64.0125 19.1632 64.0125 19.0979C64.0125 19.0792 64.0032 19.0232 63.9845 18.9299C63.8912 18.4726 63.6578 17.9872 63.2845 17.4739C63.2005 17.3619 63.0792 17.3059 62.9205 17.3059H62.0945C61.5718 17.3152 61.0212 17.3666 60.4425 17.4599H60.3585C60.2278 17.4599 60.1345 17.3992 60.0785 17.2779L60.0225 17.1799C59.9945 17.1239 59.9805 17.0726 59.9805 17.0259C59.9805 16.8859 60.0738 16.8252 60.2605 16.8439C60.5778 16.8719 61.0585 16.8952 61.7025 16.9139H64.1245C64.3205 16.9139 64.4185 16.8159 64.4185 16.6199C64.3998 15.8266 64.3578 15.1312 64.2925 14.5339V14.5059C64.2925 14.3379 64.3625 14.2539 64.5025 14.2539C64.5212 14.2539 64.5678 14.2632 64.6425 14.2819C65.3518 14.4872 65.7065 14.6412 65.7065 14.7439C65.7065 14.7719 65.6878 14.7999 65.6505 14.8279C65.6225 14.8466 65.6038 14.8606 65.5945 14.8699L65.5805 14.8839C65.4498 14.9772 65.3845 15.0939 65.3845 15.2339V16.6199C65.3845 16.7132 65.4078 16.7879 65.4545 16.8439C65.5105 16.8906 65.5852 16.9139 65.6785 16.9139H66.3645C66.5605 16.9139 66.6585 16.8159 66.6585 16.6199C66.6398 15.8266 66.5978 15.1312 66.5325 14.5339V14.5059C66.5325 14.3379 66.6025 14.2539 66.7425 14.2539C66.7612 14.2539 66.8078 14.2632 66.8825 14.2819C67.2838 14.3939 67.5592 14.4872 67.7085 14.5619C67.8672 14.6366 67.9465 14.7019 67.9465 14.7579C67.9465 14.7952 67.9138 14.8372 67.8485 14.8839L67.8345 14.8979C67.7038 14.9912 67.6385 15.1079 67.6385 15.2479V16.6199C67.6385 16.7132 67.6572 16.7879 67.6945 16.8439C67.7412 16.8906 67.7972 16.9139 67.8625 16.9139C68.0212 16.9139 68.1378 16.8486 68.2125 16.7179C68.3992 16.4192 68.5718 16.0879 68.7305 15.7239C68.8985 15.3506 69.0338 15.0052 69.1365 14.6879C69.1832 14.5479 69.2625 14.4779 69.3745 14.4779C69.4212 14.4779 69.4725 14.4919 69.5285 14.5199C70.2658 14.8092 70.6345 15.0052 70.6345 15.1079C70.6345 15.1452 70.5925 15.1732 70.5085 15.1919L70.4385 15.2059C70.2985 15.2432 70.1912 15.3086 70.1165 15.4019C69.7058 15.8406 69.3045 16.2279 68.9125 16.5639C68.8285 16.6292 68.7865 16.6946 68.7865 16.7599C68.7865 16.8066 68.8098 16.8439 68.8565 16.8719C68.9032 16.8999 68.9638 16.9139 69.0385 16.9139H69.9905C70.1398 16.9139 70.2565 16.8532 70.3405 16.7319L70.5085 16.4939C70.5458 16.4472 70.5925 16.3866 70.6485 16.3119C70.7138 16.2279 70.7652 16.1672 70.8025 16.1299C70.8398 16.0926 70.8772 16.0739 70.9145 16.0739C70.9892 16.0739 71.1618 16.1812 71.4325 16.3959C71.7125 16.6012 71.9132 16.7786 72.0345 16.9279C72.0812 16.9746 72.1045 17.0259 72.1045 17.0819C72.1045 17.1379 72.0765 17.1892 72.0205 17.2359C71.9552 17.2826 71.8712 17.3059 71.7685 17.3059H69.3045C69.1552 17.3059 69.0245 17.3199 68.9125 17.3479C68.8098 17.3759 68.7912 17.3992 68.8565 17.4179C69.0525 17.4832 69.1505 17.5486 69.1505 17.6139C69.1505 17.6512 69.0992 17.6932 68.9965 17.7399L68.9265 17.7679C68.8052 17.8052 68.7025 17.8752 68.6185 17.9779C68.2638 18.3512 67.9745 18.6406 67.7505 18.8459C67.6758 18.9112 67.6385 18.9766 67.6385 19.0419C67.6385 19.1446 67.7178 19.1959 67.8765 19.1959H69.3045C69.4538 19.1959 69.5705 19.1352 69.6545 19.0139L69.8365 18.7759C69.8738 18.7292 69.9205 18.6686 69.9765 18.5939C70.0418 18.5099 70.0932 18.4492 70.1305 18.4119C70.1678 18.3746 70.2052 18.3559 70.2425 18.3559C70.3172 18.3559 70.4852 18.4632 70.7465 18.6779C71.0172 18.8832 71.2132 19.0606 71.3345 19.2099C71.3812 19.2752 71.4045 19.3312 71.4045 19.3779C71.4045 19.4339 71.3765 19.4852 71.3205 19.5319C71.2458 19.5786 71.1618 19.6019 71.0685 19.6019H66.7985C66.7052 19.6019 66.6305 19.6299 66.5745 19.6859C66.5278 19.7326 66.5045 19.8026 66.5045 19.8959V20.5959C66.5045 20.6892 66.5278 20.7639 66.5745 20.8199C66.6305 20.8666 66.7052 20.8899 66.7985 20.8899H68.7025C68.8518 20.8899 68.9685 20.8292 69.0525 20.7079L69.2065 20.4979C69.2438 20.4512 69.2812 20.3952 69.3185 20.3299C69.3652 20.2646 69.4118 20.2086 69.4585 20.1619C69.5052 20.1152 69.5472 20.0919 69.5845 20.0919C69.6498 20.0919 69.8085 20.1899 70.0605 20.3859C70.3125 20.5819 70.4992 20.7546 70.6205 20.9039C70.6672 20.9692 70.6905 21.0252 70.6905 21.0719C70.6905 21.1372 70.6578 21.1886 70.5925 21.2259C70.5458 21.2632 70.4665 21.2819 70.3545 21.2819H66.7985C66.7052 21.2819 66.6305 21.3099 66.5745 21.3659C66.5278 21.4126 66.5045 21.4826 66.5045 21.5759V22.3599C66.5045 22.4532 66.5278 22.5279 66.5745 22.5839C66.6305 22.6306 66.7052 22.6539 66.7985 22.6539H69.8085ZM61.7025 14.8979C61.5998 14.7952 61.5485 14.7159 61.5485 14.6599C61.5485 14.6132 61.5812 14.5899 61.6465 14.5899C61.7025 14.5899 61.7725 14.6039 61.8565 14.6319C62.4352 14.8372 62.8552 15.0892 63.1165 15.3879C63.3872 15.6772 63.5225 15.9666 63.5225 16.2559C63.5225 16.4332 63.4758 16.5779 63.3825 16.6899C63.2892 16.8019 63.1725 16.8579 63.0325 16.8579C62.9485 16.8579 62.8738 16.8392 62.8085 16.8019C62.7432 16.7739 62.6965 16.7366 62.6685 16.6899C62.6405 16.6432 62.6125 16.5779 62.5845 16.4939C62.5192 16.2326 62.4072 15.9572 62.2485 15.6679C62.0898 15.3786 61.9078 15.1219 61.7025 14.8979ZM67.6665 17.5159C67.6665 17.4506 67.6432 17.3992 67.5965 17.3619C67.5498 17.3246 67.4892 17.3059 67.4145 17.3059H64.2785C64.1292 17.3059 64.0545 17.3386 64.0545 17.4039C64.0545 17.4506 64.1105 17.5159 64.2225 17.5999C64.4652 17.7679 64.6472 17.9546 64.7685 18.1599C64.8898 18.3559 64.9505 18.5426 64.9505 18.7199C64.9505 18.7946 64.9458 18.8459 64.9365 18.8739C64.9178 18.9672 64.9085 19.0232 64.9085 19.0419C64.9085 19.1446 64.9785 19.1959 65.1185 19.1959H66.6305C66.7892 19.1959 66.9058 19.1306 66.9805 18.9999C67.2512 18.4959 67.4705 18.0432 67.6385 17.6419L67.6665 17.5159Z" fill="white"/>
<path d="M56.1298 16.816C56.2885 16.816 56.4098 16.76 56.4938 16.648L56.6478 16.466C56.6945 16.4193 56.7598 16.3493 56.8438 16.256C56.9278 16.1627 56.9978 16.116 57.0538 16.116C57.1192 16.116 57.2732 16.2327 57.5158 16.466C57.7585 16.69 57.9452 16.8907 58.0758 17.068C58.1132 17.1147 58.1318 17.166 58.1318 17.222C58.1318 17.306 58.0805 17.362 57.9778 17.39L57.8798 17.418C57.7212 17.446 57.5998 17.4973 57.5158 17.572C57.1145 17.9267 56.6618 18.2627 56.1578 18.58C56.0272 18.6733 55.9338 18.6967 55.8778 18.65C55.8592 18.6407 55.8498 18.6173 55.8498 18.58C55.8498 18.5147 55.8732 18.4353 55.9198 18.342C56.0318 18.0993 56.1392 17.8333 56.2418 17.544C56.2605 17.488 56.2698 17.446 56.2698 17.418C56.2698 17.3527 56.2465 17.3013 56.1998 17.264C56.1532 17.2267 56.0878 17.208 56.0038 17.208H48.0518C47.8745 17.208 47.7765 17.306 47.7578 17.502C47.7392 17.866 47.6645 18.1787 47.5338 18.44C47.4032 18.7013 47.2445 18.902 47.0578 19.042C46.8805 19.1633 46.7032 19.224 46.5258 19.224C46.3672 19.224 46.2318 19.182 46.1198 19.098C46.0172 19.0047 45.9658 18.874 45.9658 18.706C45.9658 18.454 46.1058 18.2393 46.3858 18.062C46.6285 17.9033 46.8385 17.6653 47.0158 17.348C47.1932 17.0213 47.2865 16.662 47.2958 16.27C47.3145 16.074 47.3518 15.976 47.4078 15.976C47.4825 15.976 47.5385 16.0553 47.5758 16.214C47.6038 16.2887 47.6365 16.4007 47.6738 16.55C47.7018 16.7273 47.8045 16.816 47.9818 16.816H53.3998C53.5585 16.816 53.6518 16.7927 53.6798 16.746C53.8945 16.3913 54.0952 16.004 54.2818 15.584C54.4685 15.1547 54.6085 14.7627 54.7018 14.408C54.7485 14.268 54.8278 14.198 54.9398 14.198C55.0052 14.198 55.0565 14.2073 55.0938 14.226C55.9432 14.59 56.3678 14.828 56.3678 14.94C56.3678 14.9773 56.3212 15.0053 56.2278 15.024L56.1578 15.038C56.0272 15.066 55.9152 15.1313 55.8218 15.234C55.4672 15.6353 55.0238 16.0413 54.4918 16.452C54.4078 16.5173 54.3658 16.5873 54.3658 16.662C54.3658 16.7087 54.3892 16.746 54.4358 16.774C54.4825 16.802 54.5432 16.816 54.6178 16.816H56.1298ZM50.8938 14.52C50.8005 14.352 50.7725 14.254 50.8098 14.226C50.8192 14.2167 50.8378 14.212 50.8658 14.212C50.9032 14.212 50.9778 14.2353 51.0898 14.282C51.5752 14.534 51.9298 14.8093 52.1538 15.108C52.3872 15.3973 52.5038 15.6773 52.5038 15.948C52.5038 16.144 52.4525 16.3073 52.3498 16.438C52.2472 16.5593 52.1165 16.62 51.9578 16.62C51.8458 16.62 51.7432 16.5873 51.6498 16.522C51.5472 16.466 51.4865 16.354 51.4678 16.186C51.4025 15.6633 51.2112 15.108 50.8938 14.52ZM48.0238 14.758C47.8932 14.5993 47.8512 14.5013 47.8978 14.464C47.9072 14.4547 47.9352 14.45 47.9818 14.45C48.0285 14.45 48.0938 14.464 48.1778 14.492C48.7472 14.688 49.1625 14.9353 49.4238 15.234C49.6945 15.5233 49.8298 15.808 49.8298 16.088C49.8298 16.2653 49.7785 16.4147 49.6758 16.536C49.5825 16.648 49.4612 16.704 49.3118 16.704C49.2185 16.704 49.1345 16.6853 49.0598 16.648C48.9945 16.62 48.9478 16.5827 48.9198 16.536C48.8918 16.4893 48.8638 16.424 48.8358 16.34C48.7798 16.088 48.6772 15.822 48.5278 15.542C48.3785 15.2527 48.2105 14.9913 48.0238 14.758ZM53.9318 18.608C54.0812 18.608 54.1978 18.5473 54.2818 18.426L54.3938 18.272C54.4218 18.2347 54.4592 18.1833 54.5058 18.118C54.5618 18.0527 54.6038 18.006 54.6318 17.978C54.6692 17.95 54.7065 17.936 54.7438 17.936C54.8092 17.936 54.9585 18.0293 55.1918 18.216C55.4345 18.4027 55.6212 18.5707 55.7518 18.72C55.7892 18.7667 55.8078 18.818 55.8078 18.874C55.8078 18.9393 55.7658 19 55.6818 19.056L55.5838 19.098C55.4252 19.1727 55.3458 19.2847 55.3458 19.434V19.98L55.3738 20.582C55.3738 20.7687 55.3832 21.002 55.4018 21.282V21.352C55.4018 21.4827 55.3552 21.576 55.2618 21.632C55.1592 21.6973 55.0285 21.7533 54.8698 21.8C54.7205 21.8467 54.5852 21.87 54.4638 21.87C54.3425 21.87 54.2818 21.7767 54.2818 21.59C54.2818 21.4033 54.1838 21.31 53.9878 21.31H52.7138C52.5458 21.31 52.4292 21.3753 52.3638 21.506L51.6778 22.64C51.6312 22.7147 51.6078 22.7753 51.6078 22.822C51.6078 22.8687 51.6312 22.9107 51.6778 22.948C51.7245 22.976 51.7852 22.99 51.8598 22.99H54.8278C54.9772 22.99 55.0985 22.9293 55.1918 22.808L55.2898 22.682C55.3178 22.6447 55.3645 22.584 55.4298 22.5C55.5045 22.4067 55.5698 22.36 55.6258 22.36C55.6912 22.36 55.8498 22.4533 56.1018 22.64C56.3538 22.8173 56.5498 22.9807 56.6898 23.13C56.7272 23.1767 56.7458 23.228 56.7458 23.284C56.7458 23.3493 56.7038 23.41 56.6198 23.466L56.4938 23.536C56.4098 23.5733 56.3445 23.6153 56.2978 23.662C56.2605 23.7087 56.2418 23.774 56.2418 23.858V24.67C56.2698 25.4633 56.2932 26.07 56.3118 26.49V26.56C56.3118 26.6907 56.2605 26.784 56.1578 26.84C56.0458 26.9053 55.9105 26.9613 55.7518 27.008C55.5932 27.064 55.4532 27.092 55.3318 27.092C55.2665 27.092 55.2152 27.0593 55.1778 26.994C55.1498 26.938 55.1358 26.8867 55.1358 26.84C55.1358 26.8027 55.1452 26.7373 55.1638 26.644L55.1918 26.476V26.448C55.1918 26.3547 55.1638 26.28 55.1078 26.224C55.0612 26.1773 54.9912 26.154 54.8978 26.154H49.1158C49.0225 26.154 48.9478 26.1773 48.8918 26.224C48.8452 26.28 48.8218 26.3547 48.8218 26.448V26.784C48.8218 26.84 48.7238 26.91 48.5278 26.994C48.3318 27.078 48.1358 27.12 47.9398 27.12C47.8745 27.12 47.8185 27.092 47.7718 27.036C47.7345 26.98 47.7158 26.9147 47.7158 26.84C47.7532 26.504 47.7812 26.084 47.7998 25.58V24.796C47.7998 24.04 47.7672 23.382 47.7018 22.822V22.766C47.7018 22.626 47.7625 22.556 47.8838 22.556C47.9398 22.556 47.9865 22.5653 48.0238 22.584L48.7378 22.906C48.8592 22.962 48.9805 22.99 49.1018 22.99H50.6138C50.7912 22.99 50.8985 22.906 50.9358 22.738C51.0292 22.318 51.1038 21.9447 51.1598 21.618L51.1738 21.534C51.1738 21.4687 51.1458 21.4173 51.0898 21.38C51.0432 21.3333 50.9778 21.31 50.8938 21.31H49.9558C49.8625 21.31 49.7878 21.338 49.7318 21.394C49.6852 21.4407 49.6618 21.5107 49.6618 21.604V21.674C49.6618 21.7207 49.5592 21.7907 49.3538 21.884C49.1578 21.968 48.9618 22.01 48.7658 22.01C48.6912 22.01 48.6352 21.982 48.5978 21.926C48.5605 21.87 48.5418 21.8047 48.5418 21.73C48.5698 21.4967 48.5885 21.268 48.5978 21.044L48.6118 20.722V20.064C48.6118 19.5507 48.5885 19.014 48.5418 18.454V18.398C48.5418 18.258 48.6025 18.188 48.7238 18.188C48.7798 18.188 48.8265 18.1973 48.8638 18.216L49.5778 18.538C49.6805 18.5847 49.8018 18.608 49.9418 18.608H53.9318ZM54.2818 19.308C54.2818 19.2147 54.2538 19.1447 54.1978 19.098C54.1512 19.042 54.0812 19.014 53.9878 19.014H49.9558C49.8625 19.014 49.7878 19.042 49.7318 19.098C49.6852 19.1447 49.6618 19.2147 49.6618 19.308V20.61C49.6618 20.7033 49.6852 20.778 49.7318 20.834C49.7878 20.8807 49.8625 20.904 49.9558 20.904H53.9878C54.0812 20.904 54.1512 20.8807 54.1978 20.834C54.2538 20.778 54.2818 20.7033 54.2818 20.61V19.308ZM49.1158 23.41C49.0225 23.41 48.9478 23.438 48.8918 23.494C48.8452 23.5407 48.8218 23.6107 48.8218 23.704V25.454C48.8218 25.5473 48.8452 25.622 48.8918 25.678C48.9478 25.7247 49.0225 25.748 49.1158 25.748H54.8978C54.9912 25.748 55.0612 25.7247 55.1078 25.678C55.1638 25.622 55.1918 25.5473 55.1918 25.454V23.704C55.1918 23.6107 55.1638 23.5407 55.1078 23.494C55.0612 23.438 54.9912 23.41 54.8978 23.41H49.1158Z" fill="white"/>
<path d="M11.7615 18.3399H22.4227V16.0001C22.4227 15.88 22.3739 15.7699 22.2763 15.6699C22.1787 15.57 22.0712 15.52 21.954 15.52H12.2302C12.1129 15.52 12.0055 15.57 11.9079 15.6699C11.8103 15.7699 11.7615 15.88 11.7615 16.0001V18.3399ZM12.2302 27.22C11.8797 27.22 11.587 27.0997 11.3522 26.8592C11.1174 26.6187 11 26.319 11 25.9599V16.0001C11 15.641 11.1174 15.3412 11.3522 15.1007C11.587 14.8602 11.8797 14.74 12.2302 14.74H13.5773V13H14.3975V14.74H19.8453V13H20.6068V14.74H21.954C22.3045 14.74 22.5972 14.8602 22.832 15.1007C23.0668 15.3412 23.1842 15.641 23.1842 16.0001V20.0964C23.0602 20.0495 22.9347 20.0145 22.8078 19.9915C22.6809 19.9685 22.5525 19.9475 22.4227 19.9286V19.1201H11.7615V25.9599C11.7615 26.08 11.8103 26.1901 11.9079 26.29C12.0055 26.39 12.1129 26.44 12.2302 26.44H17.3352C17.3752 26.586 17.4262 26.7215 17.4883 26.8466C17.5502 26.9715 17.6149 27.096 17.6823 27.22H12.2302ZM21.954 28C21.1056 28 20.3859 27.6972 19.7947 27.0917C19.2035 26.4863 18.9079 25.749 18.9079 24.88C18.9079 24.0109 19.2035 23.2737 19.7947 22.6683C20.3859 22.0628 21.1056 21.76 21.954 21.76C22.8024 21.76 23.5222 22.0628 24.1134 22.6683C24.7045 23.2737 25 24.0109 25 24.88C25 25.749 24.7045 26.4863 24.1134 27.0917C23.5222 27.6972 22.8024 28 21.954 28ZM23.215 26.5976L23.6308 26.1715L22.2469 24.754V22.6301H21.6612V25.006L23.215 26.5976Z" fill="white"/>
</svg>
