<svg width="45" height="136" viewBox="0 0 45 136" fill="none" xmlns="http://www.w3.org/2000/svg">
<path d="M15 136C6.71573 136 0 129.284 0 121V15C0 6.71573 6.71573 0 15 0H45V136H15Z" fill="#F28962"/>
<path d="M28.4946 102.475C28.7746 102.515 28.9946 102.58 29.1546 102.67C29.3146 102.76 29.3946 102.915 29.3946 103.135C29.3946 103.455 29.1846 103.615 28.7646 103.615C28.6146 103.615 28.3496 103.585 27.9696 103.525C26.8996 103.385 26.0496 103.315 25.4196 103.315C25.0996 103.315 24.8646 103.32 24.7146 103.33C24.5246 103.34 24.4196 103.45 24.3996 103.66C24.3796 104.44 24.3696 105.025 24.3696 105.415V106.06C24.3796 106.2 24.4196 106.33 24.4896 106.45C24.6596 106.79 24.7946 107.16 24.8946 107.56C24.9946 107.95 25.0446 108.33 25.0446 108.7C25.0446 109.5 24.8496 110.19 24.4596 110.77C24.0696 111.34 23.5996 111.79 23.0496 112.12C22.5096 112.45 21.9696 112.68 21.4296 112.81C21.3596 112.83 21.3096 112.84 21.2796 112.84C21.2096 112.84 21.1746 112.815 21.1746 112.765C21.1746 112.695 21.2246 112.64 21.3246 112.6C21.9946 112.31 22.5196 111.945 22.8996 111.505C23.2796 111.065 23.5396 110.635 23.6796 110.215C23.8196 109.795 23.8946 109.43 23.9046 109.12C23.9046 109.1 23.8746 109.12 23.8146 109.18C23.7546 109.23 23.6846 109.28 23.6046 109.33C23.4946 109.41 23.3796 109.475 23.2596 109.525C23.1396 109.565 23.0346 109.585 22.9446 109.585C22.6646 109.585 22.4146 109.48 22.1946 109.27C21.9846 109.05 21.8096 108.79 21.6696 108.49C21.5496 108.23 21.4496 107.955 21.3696 107.665C21.2996 107.375 21.2646 107.105 21.2646 106.855C21.2646 106.365 21.4046 105.95 21.6846 105.61C21.9746 105.26 22.3496 105.085 22.8096 105.085C22.9396 105.085 23.0596 105.105 23.1696 105.145C23.2496 105.165 23.2996 105.175 23.3196 105.175C23.4496 105.175 23.5196 105.1 23.5296 104.95C23.5796 104.46 23.6096 104.08 23.6196 103.81C23.6196 103.7 23.5846 103.62 23.5146 103.57C23.4546 103.51 23.3746 103.49 23.2746 103.51C22.4546 103.68 21.4896 104.01 20.3796 104.5C19.9496 104.73 19.5596 104.845 19.2096 104.845C18.9296 104.845 18.6496 104.765 18.3696 104.605C18.1496 104.475 17.9246 104.285 17.6946 104.035C17.4646 103.775 17.3496 103.59 17.3496 103.48C17.3496 103.43 17.3846 103.405 17.4546 103.405C17.5146 103.405 17.6646 103.435 17.9046 103.495C18.3046 103.565 18.6096 103.6 18.8196 103.6C19.2096 103.6 19.5646 103.56 19.8846 103.48C20.5146 103.34 21.6596 103.135 23.3196 102.865C23.5096 102.835 23.6046 102.73 23.6046 102.55C23.6046 102.35 23.5846 102.01 23.5446 101.53C23.5246 101.27 23.4596 101.035 23.3496 100.825C23.2496 100.615 23.1346 100.465 23.0046 100.375C22.9346 100.325 22.8596 100.275 22.7796 100.225C22.7096 100.175 22.6746 100.135 22.6746 100.105C22.6746 100.035 22.7446 99.9751 22.8846 99.9251C23.0246 99.8751 23.1546 99.8501 23.2746 99.8501C23.4646 99.8501 23.6596 99.8901 23.8596 99.9701C24.4096 100.17 24.6846 100.46 24.6846 100.84C24.6846 100.9 24.6796 100.95 24.6696 100.99C24.6596 101.02 24.6546 101.06 24.6546 101.11C24.6546 101.22 24.7146 101.315 24.8346 101.395C25.2846 101.635 25.6746 101.83 26.0046 101.98C26.3346 102.12 26.6546 102.215 26.9646 102.265C27.2946 102.355 27.6796 102.41 28.1196 102.43L28.4946 102.475ZM25.3446 102.595C25.3946 102.595 25.4646 102.595 25.5546 102.595C25.6546 102.585 25.7246 102.575 25.7646 102.565C25.8146 102.545 25.8396 102.52 25.8396 102.49C25.8396 102.45 25.8046 102.41 25.7346 102.37C25.6746 102.33 25.6346 102.3 25.6146 102.28C25.4946 102.21 25.2546 102.05 24.8946 101.8C24.8246 101.76 24.7596 101.74 24.6996 101.74C24.5696 101.74 24.4996 101.82 24.4896 101.98C24.4696 102.16 24.4596 102.29 24.4596 102.37C24.4596 102.58 24.6096 102.67 24.9096 102.64C25.0096 102.62 25.0946 102.61 25.1646 102.61C25.2346 102.61 25.2946 102.605 25.3446 102.595ZM22.7946 108.355C23.0146 108.355 23.1896 108.26 23.3196 108.07C23.4596 107.88 23.5296 107.6 23.5296 107.23C23.5296 106.87 23.4496 106.505 23.2896 106.135C23.1296 105.755 22.8996 105.565 22.5996 105.565C22.3396 105.565 22.1246 105.695 21.9546 105.955C21.7946 106.215 21.7146 106.525 21.7146 106.885C21.7146 107.225 21.8246 107.555 22.0446 107.875C22.2746 108.195 22.5246 108.355 22.7946 108.355Z" fill="white"/>
<path d="M20.0348 86.76C20.1048 86.76 20.1848 86.69 20.2748 86.55L20.4248 86.295C20.4548 86.255 20.4948 86.19 20.5448 86.1C20.6048 86 20.6548 85.93 20.6948 85.89C20.7348 85.84 20.7748 85.815 20.8148 85.815C20.8848 85.815 21.0398 85.935 21.2798 86.175C21.5198 86.405 21.6948 86.605 21.8048 86.775C21.8448 86.825 21.8648 86.885 21.8648 86.955C21.8648 87.015 21.8398 87.07 21.7898 87.12C21.7198 87.17 21.6298 87.195 21.5198 87.195H20.2298C20.1298 87.195 20.0498 87.225 19.9898 87.285C19.9398 87.335 19.9148 87.41 19.9148 87.51V89.835C19.9148 89.945 19.9448 90.025 20.0048 90.075C20.0748 90.125 20.1648 90.135 20.2748 90.105L21.6098 89.67C21.6998 89.64 21.7698 89.625 21.8198 89.625C21.8898 89.625 21.9348 89.645 21.9548 89.685V89.7C21.9548 89.78 21.8848 89.86 21.7448 89.94C21.4548 90.11 21.2548 90.23 21.1448 90.3C20.8648 90.45 20.5298 90.645 20.1398 90.885C19.9898 90.955 19.9148 91.08 19.9148 91.26V95.61C19.9148 96.08 19.8348 96.43 19.6748 96.66C19.5248 96.9 19.1998 97.065 18.6998 97.155H18.6248C18.4548 97.155 18.3548 97.065 18.3248 96.885C18.2748 96.635 18.1998 96.46 18.0998 96.36C17.9398 96.2 17.6898 96.08 17.3498 96C17.1498 95.97 17.0498 95.915 17.0498 95.835C17.0498 95.775 17.1298 95.745 17.2898 95.745C17.5498 95.745 17.8148 95.76 18.0848 95.79L18.5048 95.805C18.6148 95.805 18.6898 95.785 18.7298 95.745C18.7698 95.705 18.7898 95.63 18.7898 95.52V92.04C18.7898 91.86 18.7198 91.77 18.5798 91.77C18.5298 91.77 18.4748 91.785 18.4148 91.815L17.8148 92.13C17.6948 92.2 17.6198 92.26 17.5898 92.31L17.5598 92.37C17.5198 92.44 17.4698 92.475 17.4098 92.475C17.3598 92.475 17.3098 92.455 17.2598 92.415C17.2198 92.375 17.1898 92.325 17.1698 92.265L16.8698 91.44C16.8498 91.38 16.8398 91.335 16.8398 91.305C16.8398 91.175 16.9198 91.085 17.0798 91.035C17.2798 90.985 17.7598 90.85 18.5198 90.63C18.6998 90.58 18.7898 90.465 18.7898 90.285V87.51C18.7898 87.41 18.7598 87.335 18.6998 87.285C18.6498 87.225 18.5748 87.195 18.4748 87.195H18.1598C17.9198 87.205 17.6598 87.245 17.3798 87.315C17.3198 87.335 17.2748 87.345 17.2448 87.345C17.1248 87.345 17.0348 87.28 16.9748 87.15L16.9298 87.045C16.8998 86.985 16.8848 86.925 16.8848 86.865C16.8848 86.735 16.9798 86.68 17.1698 86.7C17.3898 86.72 17.7098 86.74 18.1298 86.76H18.4748C18.5748 86.76 18.6498 86.735 18.6998 86.685C18.7598 86.625 18.7898 86.545 18.7898 86.445V86.37C18.7898 85.37 18.7448 84.475 18.6548 83.685V83.625C18.6548 83.465 18.7348 83.385 18.8948 83.385C18.9448 83.385 18.9848 83.39 19.0148 83.4C19.4948 83.54 19.8298 83.655 20.0198 83.745C20.2098 83.825 20.3048 83.895 20.3048 83.955C20.3048 84.005 20.2598 84.055 20.1698 84.105L20.1248 84.135C19.9848 84.225 19.9148 84.35 19.9148 84.51V86.445C19.9148 86.655 19.9548 86.76 20.0348 86.76ZM28.2248 84.36C28.3948 84.36 28.5248 84.3 28.6148 84.18L28.7648 84C28.8048 83.96 28.8648 83.89 28.9448 83.79C29.0348 83.69 29.1098 83.64 29.1698 83.64C29.2398 83.64 29.3948 83.755 29.6348 83.985C29.8748 84.215 30.0648 84.425 30.2048 84.615C30.2348 84.675 30.2498 84.73 30.2498 84.78C30.2498 84.87 30.1998 84.93 30.0998 84.96L30.0098 84.975C29.8498 84.995 29.7248 85.06 29.6348 85.17C29.1348 85.72 28.7348 86.13 28.4348 86.4C28.3348 86.49 28.2548 86.535 28.1948 86.535C28.1248 86.535 28.0898 86.49 28.0898 86.4C28.0898 86.35 28.1048 86.28 28.1348 86.19L28.4198 85.14C28.4298 85.11 28.4348 85.075 28.4348 85.035C28.4348 84.875 28.3398 84.795 28.1498 84.795H27.6248C27.5248 84.795 27.4448 84.825 27.3848 84.885C27.3348 84.935 27.3098 85.01 27.3098 85.11V87.615C27.3098 87.705 27.3298 87.765 27.3698 87.795C27.4098 87.815 27.4998 87.825 27.6398 87.825H29.0798C29.1898 87.805 29.2648 87.77 29.3048 87.72C29.3648 87.65 29.4598 87.38 29.5898 86.91C29.6098 86.83 29.6348 86.765 29.6648 86.715C29.7048 86.665 29.7348 86.64 29.7548 86.64C29.8048 86.64 29.8348 86.745 29.8448 86.955L29.8598 87.48C29.8598 87.55 29.8748 87.61 29.9048 87.66C29.9448 87.71 30.0098 87.775 30.0998 87.855C30.1898 87.915 30.2348 88.02 30.2348 88.17C30.2348 88.41 30.0998 88.58 29.8298 88.68C29.5698 88.77 29.0698 88.815 28.3298 88.815H27.3698C26.9298 88.815 26.6398 88.75 26.4998 88.62C26.3698 88.48 26.3048 88.225 26.3048 87.855V85.11C26.3048 85.01 26.2748 84.935 26.2148 84.885C26.1648 84.825 26.0898 84.795 25.9898 84.795H25.4798C25.2898 84.795 25.1798 84.895 25.1498 85.095C25.0898 85.745 24.9548 86.31 24.7448 86.79C24.5448 87.27 24.1948 87.715 23.6948 88.125C23.2048 88.535 22.5198 88.895 21.6398 89.205C21.5898 89.225 21.5248 89.235 21.4448 89.235C21.3648 89.235 21.3098 89.215 21.2798 89.175L21.2648 89.145C21.2648 89.075 21.3498 88.995 21.5198 88.905C22.1698 88.565 22.6748 88.2 23.0348 87.81C23.3948 87.42 23.6398 87.015 23.7698 86.595C23.9098 86.165 23.9948 85.67 24.0248 85.11V85.08C24.0248 84.99 23.9948 84.92 23.9348 84.87C23.8848 84.82 23.8148 84.795 23.7248 84.795H23.3948C23.2148 84.795 23.0998 84.895 23.0498 85.095C22.9598 85.585 22.7548 85.94 22.4348 86.16C22.2948 86.24 22.1398 86.28 21.9698 86.28C21.7898 86.28 21.6498 86.23 21.5498 86.13C21.4898 86.08 21.4548 86.03 21.4448 85.98C21.4348 85.93 21.4298 85.9 21.4298 85.89C21.4198 85.86 21.4148 85.825 21.4148 85.785C21.4148 85.515 21.5648 85.3 21.8648 85.14C22.0548 85.04 22.2298 84.88 22.3898 84.66C22.5498 84.43 22.6498 84.18 22.6898 83.91C22.7198 83.71 22.7698 83.61 22.8398 83.61C22.9198 83.61 22.9798 83.705 23.0198 83.895L23.0498 84.075C23.0798 84.265 23.1948 84.36 23.3948 84.36H28.2248ZM27.9548 91.185C28.1148 91.185 28.2398 91.115 28.3298 90.975L28.5098 90.705C28.5498 90.655 28.5998 90.585 28.6598 90.495C28.7298 90.405 28.7848 90.34 28.8248 90.3C28.8648 90.25 28.9048 90.225 28.9448 90.225C29.0148 90.225 29.1948 90.35 29.4848 90.6C29.7748 90.84 29.9898 91.045 30.1298 91.215C30.1798 91.285 30.2048 91.345 30.2048 91.395C30.2048 91.455 30.1748 91.51 30.1148 91.56C30.0448 91.61 29.9548 91.635 29.8448 91.635H26.7398C26.5498 91.635 26.4548 91.7 26.4548 91.83C26.4548 91.88 26.4798 91.94 26.5298 92.01C26.9598 92.65 27.4798 93.23 28.0898 93.75C28.7098 94.26 29.3548 94.665 30.0248 94.965C30.1948 95.045 30.2798 95.1 30.2798 95.13C30.2798 95.16 30.2648 95.185 30.2348 95.205C30.2048 95.225 30.1698 95.245 30.1298 95.265C30.0898 95.275 30.0548 95.285 30.0248 95.295C29.7748 95.415 29.5798 95.635 29.4398 95.955C29.3798 96.095 29.2998 96.165 29.1998 96.165C29.1398 96.165 29.0848 96.145 29.0348 96.105C27.8548 95.225 26.9498 94.05 26.3198 92.58C26.2598 92.44 26.1898 92.37 26.1098 92.37C26.0798 92.37 26.0498 92.395 26.0198 92.445C25.9998 92.485 25.9898 92.545 25.9898 92.625V93.42C26.0098 94.47 26.0448 95.505 26.0948 96.525V96.6C26.0948 96.73 26.0498 96.835 25.9598 96.915C25.8398 96.995 25.6998 97.065 25.5398 97.125C25.3898 97.185 25.2398 97.215 25.0898 97.215C24.9798 97.215 24.8948 97.185 24.8348 97.125C24.7748 97.065 24.7448 96.995 24.7448 96.915C24.8048 96.085 24.8448 95.26 24.8648 94.44V93.66C24.8648 93.58 24.8498 93.515 24.8198 93.465C24.7898 93.415 24.7498 93.39 24.6998 93.39C24.6298 93.39 24.5598 93.44 24.4898 93.54C23.5398 94.69 22.3148 95.61 20.8148 96.3C20.6348 96.38 20.5248 96.385 20.4848 96.315C20.4748 96.305 20.4698 96.285 20.4698 96.255C20.4698 96.195 20.5398 96.12 20.6798 96.03C21.4398 95.51 22.1098 94.91 22.6898 94.23C23.2798 93.55 23.7598 92.81 24.1298 92.01C24.1598 91.95 24.1748 91.895 24.1748 91.845C24.1748 91.705 24.0798 91.635 23.8898 91.635H23.2748C22.7748 91.645 22.2448 91.7 21.6848 91.8H21.6098C21.4598 91.8 21.3548 91.73 21.2948 91.59L21.2348 91.47C21.2048 91.41 21.1898 91.355 21.1898 91.305C21.1898 91.235 21.2148 91.185 21.2648 91.155C21.3148 91.115 21.3848 91.1 21.4748 91.11C21.8348 91.14 22.3548 91.165 23.0348 91.185H24.5498C24.7598 91.185 24.8648 91.08 24.8648 90.87C24.8448 90.28 24.8148 89.755 24.7748 89.295V89.265C24.7748 89.085 24.8498 88.995 24.9998 88.995L25.1348 89.025C25.5848 89.155 25.8948 89.26 26.0648 89.34C26.2448 89.41 26.3348 89.475 26.3348 89.535C26.3348 89.565 26.3148 89.595 26.2748 89.625C26.2448 89.645 26.2248 89.66 26.2148 89.67H26.1998C26.0598 89.75 25.9898 89.88 25.9898 90.06V90.87C25.9898 90.97 26.0148 91.05 26.0648 91.11C26.1248 91.16 26.2048 91.185 26.3048 91.185H27.9548Z" fill="white"/>
<path d="M27.3846 71.375C27.7446 71.375 28.0596 71.49 28.3296 71.72C28.5996 71.95 28.7346 72.25 28.7346 72.62C28.7346 73.1 28.5246 73.505 28.1046 73.835C27.6946 74.155 27.1496 74.455 26.4696 74.735L25.7796 74.99C24.6496 75.42 24.1246 75.62 24.2046 75.59C24.0346 75.67 23.9496 75.79 23.9496 75.95C23.9296 76.16 23.9296 76.375 23.9496 76.595C23.9496 76.685 23.9496 76.865 23.9496 77.135C23.9596 77.405 23.9596 77.58 23.9496 77.66C23.9396 77.84 23.8696 78 23.7396 78.14C23.6196 78.28 23.4796 78.35 23.3196 78.35C23.1696 78.35 23.0346 78.285 22.9146 78.155C22.8046 78.025 22.7496 77.875 22.7496 77.705C22.7496 77.665 22.7696 77.435 22.8096 77.015C22.8096 76.955 22.8196 76.845 22.8396 76.685V76.625C22.8396 76.465 22.7746 76.385 22.6446 76.385C22.5746 76.385 22.5146 76.405 22.4646 76.445C21.5446 77.005 21.0846 77.605 21.0846 78.245C21.0846 78.975 21.7996 79.34 23.2296 79.34C23.5196 79.34 23.7796 79.32 24.0096 79.28C24.2496 79.24 24.5096 79.185 24.7896 79.115C24.8396 79.105 24.9646 79.08 25.1646 79.04C25.3646 78.99 25.5546 78.965 25.7346 78.965C25.9546 78.965 26.1246 79.01 26.2446 79.1C26.3646 79.19 26.4246 79.315 26.4246 79.475C26.4246 79.815 26.1346 80.055 25.5546 80.195C24.9846 80.335 24.3696 80.405 23.7096 80.405C22.5496 80.405 21.7246 80.225 21.2346 79.865C20.7546 79.495 20.5146 79.02 20.5146 78.44C20.5146 77.92 20.7046 77.45 21.0846 77.03C21.4646 76.61 22.0046 76.205 22.7046 75.815C22.8546 75.725 22.9296 75.605 22.9296 75.455V75.23C22.9296 74.7 22.8446 74.3 22.6746 74.03C22.5046 73.76 22.3046 73.625 22.0746 73.625C21.7546 73.625 21.4346 73.805 21.1146 74.165C20.8046 74.515 20.4696 74.96 20.1096 75.5L19.9446 75.755C19.9146 75.795 19.8396 75.905 19.7196 76.085C19.5996 76.265 19.4846 76.405 19.3746 76.505C19.2646 76.605 19.1646 76.655 19.0746 76.655C18.8846 76.655 18.7346 76.58 18.6246 76.43C18.5246 76.28 18.4746 76.095 18.4746 75.875C18.4746 75.585 18.5996 75.32 18.8496 75.08L19.0746 74.87C19.3546 74.61 19.5946 74.375 19.7946 74.165C20.0046 73.945 20.1996 73.7 20.3796 73.43C20.7996 72.78 21.1496 72.065 21.4296 71.285C21.4496 71.225 21.4596 71.18 21.4596 71.15C21.4596 71.08 21.4296 71.03 21.3696 71C21.3196 70.96 21.2446 70.945 21.1446 70.955C20.8246 70.995 20.5896 71.015 20.4396 71.015C20.0996 71.015 19.8046 70.95 19.5546 70.82C19.3146 70.68 19.0246 70.46 18.6846 70.16C18.6446 70.12 18.6246 70.085 18.6246 70.055C18.6246 70.025 18.6496 70.01 18.6996 70.01C18.7396 70.01 18.8096 70.025 18.9096 70.055C19.2696 70.185 19.6346 70.25 20.0046 70.25C20.4946 70.25 21.0196 70.17 21.5796 70.01C21.7396 69.97 21.8346 69.86 21.8646 69.68C21.8946 69.5 21.9096 69.34 21.9096 69.2C21.9096 68.78 21.7496 68.46 21.4296 68.24C21.3496 68.19 21.3096 68.14 21.3096 68.09C21.3196 68 21.3496 67.93 21.3996 67.88C21.4496 67.82 21.5196 67.79 21.6096 67.79C21.7496 67.79 21.9446 67.82 22.1946 67.88C22.4546 67.94 22.6246 68.015 22.7046 68.105C22.7746 68.185 22.8096 68.31 22.8096 68.48V68.51C22.8096 68.58 22.8246 68.655 22.8546 68.735C22.8946 68.805 22.9546 68.855 23.0346 68.885C23.1646 68.915 23.2946 68.93 23.4246 68.93C23.5546 68.93 23.6646 68.915 23.7546 68.885C23.8746 68.865 23.9796 68.855 24.0696 68.855C24.3096 68.855 24.4296 68.95 24.4296 69.14C24.4296 69.31 24.3446 69.485 24.1746 69.665C24.0146 69.845 23.8046 70.01 23.5446 70.16C23.2746 70.31 22.9246 70.46 22.4946 70.61C22.3446 70.67 22.2446 70.77 22.1946 70.91C21.9646 71.62 21.7046 72.285 21.4146 72.905C21.3846 72.975 21.3696 73.04 21.3696 73.1C21.3696 73.18 21.4096 73.22 21.4896 73.22L21.6096 73.19C21.7896 73.15 21.9246 73.13 22.0146 73.13C22.8146 73.13 23.3496 73.495 23.6196 74.225C23.6696 74.335 23.7096 74.39 23.7396 74.39C23.7896 74.39 23.8346 74.34 23.8746 74.24C24.1246 73.68 24.4946 73.13 24.9846 72.59C25.2846 72.27 25.6496 71.99 26.0796 71.75C26.5196 71.5 26.9546 71.375 27.3846 71.375ZM22.7946 69.11C22.7546 69.11 22.7096 69.19 22.6596 69.35C22.6596 69.5 22.6896 69.56 22.7496 69.53L22.9146 69.425C22.9846 69.385 23.0196 69.345 23.0196 69.305C23.0196 69.265 22.9796 69.22 22.8996 69.17L22.8246 69.11H22.7946ZM26.1246 74.03C26.5846 73.76 26.9496 73.47 27.2196 73.16C27.4996 72.84 27.6396 72.565 27.6396 72.335C27.6396 72.025 27.4446 71.87 27.0546 71.87C26.7946 71.87 26.4996 71.96 26.1696 72.14C25.8396 72.31 25.5296 72.55 25.2396 72.86C25.0396 73.08 24.8446 73.345 24.6546 73.655C24.4746 73.965 24.3246 74.28 24.2046 74.6C24.1646 74.69 24.1446 74.785 24.1446 74.885C24.1446 74.935 24.1546 74.975 24.1746 75.005C24.1946 75.035 24.2146 75.04 24.2346 75.02L24.5646 74.855C25.1946 74.545 25.7146 74.27 26.1246 74.03Z" fill="white"/>
<path d="M25.5994 52.33C25.7594 52.33 25.8844 52.26 25.9744 52.12L26.1094 51.925C26.1494 51.875 26.1894 51.82 26.2294 51.76C26.2694 51.7 26.3094 51.645 26.3494 51.595C26.3994 51.545 26.4444 51.52 26.4844 51.52C26.5544 51.52 26.7244 51.635 26.9944 51.865C27.2644 52.095 27.4694 52.295 27.6094 52.465C27.6494 52.515 27.6694 52.57 27.6694 52.63C27.6694 52.7 27.6294 52.765 27.5494 52.825L27.3994 52.9C27.2194 52.96 27.1294 53.075 27.1294 53.245V54.46C27.1594 55.67 27.1894 56.555 27.2194 57.115V57.19C27.2194 57.33 27.1694 57.43 27.0694 57.49C26.9494 57.57 26.8044 57.64 26.6344 57.7C26.4644 57.76 26.3094 57.79 26.1694 57.79C26.1394 57.79 26.1144 57.785 26.0944 57.775C25.9744 57.745 25.9144 57.65 25.9144 57.49C25.9344 57.41 25.9444 57.35 25.9444 57.31L25.9744 57.055V56.995C25.9744 56.895 25.9444 56.82 25.8844 56.77C25.8344 56.71 25.7594 56.68 25.6594 56.68H21.3844C21.1744 56.68 21.0694 56.77 21.0694 56.95C21.0794 57.02 21.0844 57.1 21.0844 57.19V57.31C21.0844 57.44 21.0494 57.53 20.9794 57.58C20.8694 57.66 20.7344 57.73 20.5744 57.79C20.4144 57.85 20.2494 57.88 20.0794 57.88C19.9994 57.88 19.9344 57.85 19.8844 57.79C19.8444 57.73 19.8244 57.66 19.8244 57.58C19.8644 57.12 19.8944 56.53 19.9144 55.81V54.775C19.9144 53.795 19.8694 52.915 19.7794 52.135V52.075C19.7794 51.925 19.8444 51.85 19.9744 51.85C20.0344 51.85 20.0844 51.86 20.1244 51.88L20.9794 52.255C21.0894 52.305 21.2144 52.33 21.3544 52.33H25.5994ZM25.6594 56.23C25.7594 56.23 25.8344 56.205 25.8844 56.155C25.9444 56.095 25.9744 56.015 25.9744 55.915V53.08C25.9744 52.98 25.9444 52.905 25.8844 52.855C25.8344 52.795 25.7594 52.765 25.6594 52.765H21.3844C21.2844 52.765 21.2044 52.795 21.1444 52.855C21.0944 52.905 21.0694 52.98 21.0694 53.08V55.915C21.0694 56.015 21.0944 56.095 21.1444 56.155C21.2044 56.205 21.2844 56.23 21.3844 56.23H25.6594ZM19.0444 63.73C18.9444 63.73 18.8644 63.76 18.8044 63.82C18.7544 63.87 18.7294 63.945 18.7294 64.045V64.06C18.7594 64.35 18.7694 64.475 18.7594 64.435V64.525C18.7594 64.645 18.7244 64.74 18.6544 64.81C18.5644 64.9 18.4394 64.97 18.2794 65.02C18.1294 65.08 17.9694 65.11 17.7994 65.11C17.7094 65.11 17.6394 65.08 17.5894 65.02C17.5394 64.96 17.5144 64.89 17.5144 64.81C17.5544 64.27 17.5894 63.54 17.6194 62.62V61.375C17.6194 60.395 17.5744 59.515 17.4844 58.735V58.675C17.4844 58.525 17.5494 58.45 17.6794 58.45C17.7394 58.45 17.7894 58.46 17.8294 58.48L18.6244 58.825C18.7344 58.875 18.8594 58.9 18.9994 58.9H21.1294C21.2894 58.9 21.4194 58.835 21.5194 58.705L21.6244 58.57C21.6644 58.53 21.7194 58.465 21.7894 58.375C21.8694 58.275 21.9394 58.225 21.9994 58.225C22.0694 58.225 22.2344 58.32 22.4944 58.51C22.7644 58.7 22.9744 58.875 23.1244 59.035C23.1644 59.085 23.1844 59.14 23.1844 59.2C23.1844 59.27 23.1394 59.335 23.0494 59.395L22.9144 59.47C22.8244 59.51 22.7544 59.555 22.7044 59.605C22.6644 59.655 22.6444 59.725 22.6444 59.815V61.195C22.6744 62.525 22.7044 63.515 22.7344 64.165V64.24C22.7344 64.38 22.6844 64.48 22.5844 64.54C22.4644 64.62 22.3194 64.69 22.1494 64.75C21.9794 64.81 21.8244 64.84 21.6844 64.84H21.6394C21.5794 64.83 21.5344 64.795 21.5044 64.735C21.4744 64.675 21.4594 64.61 21.4594 64.54C21.4794 64.46 21.4894 64.4 21.4894 64.36L21.5194 64.105V64.045C21.5194 63.945 21.4894 63.87 21.4294 63.82C21.3794 63.76 21.3044 63.73 21.2044 63.73H19.0444ZM25.7494 63.73C25.6494 63.73 25.5694 63.76 25.5094 63.82C25.4594 63.87 25.4344 63.945 25.4344 64.045V64.075L25.4644 64.465V64.57C25.4644 64.69 25.4294 64.78 25.3594 64.84C25.2594 64.92 25.1244 64.99 24.9544 65.05C24.7944 65.11 24.6344 65.14 24.4744 65.14C24.3944 65.14 24.3294 65.11 24.2794 65.05C24.2294 64.99 24.2044 64.92 24.2044 64.84C24.2544 64.29 24.2894 63.555 24.3094 62.635V61.375C24.3094 60.395 24.2644 59.515 24.1744 58.735V58.675C24.1744 58.525 24.2394 58.45 24.3694 58.45C24.4294 58.45 24.4794 58.46 24.5194 58.48L25.3144 58.825C25.4244 58.875 25.5494 58.9 25.6894 58.9H27.9244C28.0844 58.9 28.2144 58.835 28.3144 58.705L28.4194 58.57C28.4594 58.53 28.5144 58.465 28.5844 58.375C28.6644 58.275 28.7344 58.225 28.7944 58.225C28.8644 58.225 29.0344 58.325 29.3044 58.525C29.5744 58.715 29.7794 58.885 29.9194 59.035C29.9694 59.105 29.9944 59.16 29.9944 59.2C29.9944 59.28 29.9494 59.345 29.8594 59.395C29.8094 59.435 29.7544 59.46 29.6944 59.47C29.5244 59.55 29.4394 59.67 29.4394 59.83V61.24C29.4694 62.61 29.4994 63.63 29.5294 64.3V64.375C29.5294 64.515 29.4744 64.615 29.3644 64.675C29.2344 64.745 29.0894 64.805 28.9294 64.855C28.7694 64.905 28.6244 64.93 28.4944 64.93H28.4344C28.3144 64.9 28.2544 64.8 28.2544 64.63C28.2744 64.55 28.2844 64.49 28.2844 64.45C28.2844 64.44 28.2944 64.335 28.3144 64.135V64.045C28.3144 63.945 28.2844 63.87 28.2244 63.82C28.1744 63.76 28.0994 63.73 27.9994 63.73H25.7494ZM19.0444 59.335C18.9444 59.335 18.8644 59.365 18.8044 59.425C18.7544 59.475 18.7294 59.55 18.7294 59.65V62.98C18.7294 63.08 18.7544 63.16 18.8044 63.22C18.8644 63.27 18.9444 63.295 19.0444 63.295H21.2044C21.3044 63.295 21.3794 63.27 21.4294 63.22C21.4894 63.16 21.5194 63.08 21.5194 62.98V59.65C21.5194 59.55 21.4894 59.475 21.4294 59.425C21.3794 59.365 21.3044 59.335 21.2044 59.335H19.0444ZM25.7494 59.335C25.6494 59.335 25.5694 59.365 25.5094 59.425C25.4594 59.475 25.4344 59.55 25.4344 59.65V62.98C25.4344 63.08 25.4594 63.16 25.5094 63.22C25.5694 63.27 25.6494 63.295 25.7494 63.295H27.9994C28.0994 63.295 28.1744 63.27 28.2244 63.22C28.2844 63.16 28.3144 63.08 28.3144 62.98V59.65C28.3144 59.55 28.2844 59.475 28.2244 59.425C28.1744 59.365 28.0994 59.335 27.9994 59.335H25.7494Z" fill="white"/>
<path d="M27.6841 39.8549C27.8441 39.8549 27.9691 39.7849 28.0591 39.6449L28.1791 39.4649C28.2091 39.4249 28.2491 39.3699 28.2991 39.2999C28.3491 39.2199 28.3891 39.1599 28.4191 39.1199C28.4591 39.0799 28.4991 39.0599 28.5391 39.0599C28.6191 39.0599 28.7941 39.1749 29.0641 39.4049C29.3441 39.6249 29.5541 39.8249 29.6941 40.0049C29.7341 40.0549 29.7541 40.1099 29.7541 40.1699C29.7541 40.2399 29.7091 40.3049 29.6191 40.3649L29.4691 40.4399C29.2891 40.4999 29.1991 40.6149 29.1991 40.7849V47.6099C29.1991 47.9099 29.1641 48.1549 29.0941 48.3449C29.0341 48.5449 28.9041 48.7099 28.7041 48.8399C28.5141 48.9799 28.2291 49.0799 27.8491 49.1399H27.7741C27.6241 49.1399 27.5241 49.0499 27.4741 48.8699C27.4241 48.6299 27.3391 48.4549 27.2191 48.3449C27.0191 48.1749 26.7141 48.0449 26.3041 47.9549C26.1041 47.9249 26.0041 47.8699 26.0041 47.7899C26.0041 47.7399 26.0791 47.7149 26.2291 47.7149C26.4191 47.7149 26.7341 47.7349 27.1741 47.7749L27.7291 47.8049C27.8591 47.8049 27.9441 47.7799 27.9841 47.7299C28.0341 47.6799 28.0591 47.5999 28.0591 47.4899V40.6049C28.0591 40.5049 28.0291 40.4299 27.9691 40.3799C27.9191 40.3199 27.8441 40.2899 27.7441 40.2899H25.4191C25.3191 40.2899 25.2391 40.3199 25.1791 40.3799C25.1291 40.4299 25.1041 40.5049 25.1041 40.6049V41.6249C25.1041 41.7849 25.1141 41.8799 25.1341 41.9099C25.1641 41.9399 25.2441 41.9549 25.3741 41.9549H26.6641C26.7441 41.9549 26.7991 41.9499 26.8291 41.9399C26.8691 41.9299 26.8991 41.8999 26.9191 41.8499C26.9691 41.7799 27.0341 41.5849 27.1141 41.2649C27.1741 41.0749 27.2341 40.9799 27.2941 40.9799C27.3641 40.9799 27.3991 41.0849 27.3991 41.2949L27.4141 41.5649C27.4141 41.7149 27.4941 41.8399 27.6541 41.9399C27.7041 41.9799 27.7341 42.0149 27.7441 42.0449C27.7641 42.0749 27.7741 42.1199 27.7741 42.1799C27.7741 42.3899 27.6841 42.5499 27.5041 42.6599C27.3341 42.7699 27.0491 42.8249 26.6491 42.8249H25.2541C24.9241 42.8249 24.6791 42.7949 24.5191 42.7349C24.3691 42.6749 24.2641 42.5599 24.2041 42.3899C24.1541 42.2199 24.1291 41.9549 24.1291 41.5949V40.6049C24.1291 40.5049 24.0991 40.4299 24.0391 40.3799C23.9891 40.3199 23.9141 40.2899 23.8141 40.2899H23.0041C22.8241 40.2899 22.7041 40.3799 22.6441 40.5599C22.4341 41.3099 22.0841 41.9249 21.5941 42.4049C21.1141 42.8749 20.4641 43.2549 19.6441 43.5449C19.5541 43.5749 19.4841 43.5899 19.4341 43.5899C19.3541 43.5899 19.3091 43.5699 19.2991 43.5299V43.4999C19.2991 43.4399 19.3741 43.3649 19.5241 43.2749C20.0941 42.9549 20.5341 42.5799 20.8441 42.1499C21.1641 41.7199 21.3891 41.2149 21.5191 40.6349L21.5341 40.5449C21.5341 40.4649 21.5041 40.4049 21.4441 40.3649C21.3941 40.3149 21.3241 40.2899 21.2341 40.2899H19.2841C19.1841 40.2899 19.1041 40.3199 19.0441 40.3799C18.9941 40.4299 18.9691 40.5049 18.9691 40.6049V45.1949C18.9891 46.2849 19.0241 47.3849 19.0741 48.4949V48.5699C19.0741 48.6999 19.0291 48.8049 18.9391 48.8849C18.8291 48.9749 18.6891 49.0499 18.5191 49.1099C18.3591 49.1799 18.1941 49.2149 18.0241 49.2149C17.9341 49.2149 17.8541 49.1849 17.7841 49.1249C17.7141 49.0649 17.6791 48.9949 17.6791 48.9149C17.7191 48.3249 17.7541 47.7549 17.7841 47.2049C17.8141 46.6449 17.8341 45.9149 17.8441 45.0149V42.2849C17.8441 41.3149 17.7991 40.4349 17.7091 39.6449V39.5849C17.7091 39.4349 17.7741 39.3599 17.9041 39.3599C17.9641 39.3599 18.0141 39.3699 18.0541 39.3899L18.8941 39.7649C19.0341 39.8249 19.1641 39.8549 19.2841 39.8549H20.9341C21.0641 39.8549 21.1541 39.8449 21.2041 39.8249C21.2641 39.7949 21.2791 39.7549 21.2491 39.7049C21.2091 39.6449 21.1791 39.5799 21.1591 39.5099C21.0591 39.0399 20.8591 38.5649 20.5591 38.0849C20.4491 37.9149 20.4091 37.8199 20.4391 37.7999C20.4591 37.7799 20.2441 37.7699 19.7941 37.7699H19.3141C18.7341 37.7799 18.1041 37.8349 17.4241 37.9349H17.3341C17.1941 37.9349 17.0941 37.8699 17.0341 37.7399L16.9591 37.6049C16.9291 37.5449 16.9141 37.4849 16.9141 37.4249C16.9141 37.3649 16.9391 37.3199 16.9891 37.2899C17.0391 37.2499 17.1091 37.2349 17.1991 37.2449C17.5391 37.2749 18.0541 37.2999 18.7441 37.3199H22.5541C22.7641 37.3199 22.8691 37.2149 22.8691 37.0049C22.8491 36.4049 22.8241 35.9799 22.7941 35.7299V35.6999C22.7941 35.5199 22.8741 35.4299 23.0341 35.4299C23.0841 35.4299 23.1241 35.4349 23.1541 35.4449C24.0041 35.6849 24.4291 35.8649 24.4291 35.9849C24.4291 36.0349 24.3841 36.0849 24.2941 36.1349L24.2491 36.1649C24.1091 36.2549 24.0391 36.3799 24.0391 36.5399V37.0049C24.0391 37.1049 24.0641 37.1849 24.1141 37.2449C24.1741 37.2949 24.2541 37.3199 24.3541 37.3199H27.5941C27.7541 37.3199 27.8791 37.2549 27.9691 37.1249L28.2091 36.8099C28.2491 36.7599 28.3041 36.6849 28.3741 36.5849C28.4541 36.4849 28.5141 36.4099 28.5541 36.3599C28.6041 36.3099 28.6491 36.2849 28.6891 36.2849C28.7691 36.2849 28.9741 36.4199 29.3041 36.6899C29.6441 36.9599 29.8891 37.1849 30.0391 37.3649C30.0891 37.4149 30.1141 37.4699 30.1141 37.5299C30.1141 37.5899 30.0841 37.6449 30.0241 37.6949C29.9441 37.7449 29.8541 37.7699 29.7541 37.7699H26.7241C26.5841 37.7699 26.4591 37.7949 26.3491 37.8449C26.2491 37.8849 26.2441 37.9149 26.3341 37.9349C26.7341 38.0249 26.9341 38.1149 26.9341 38.2049C26.9341 38.2449 26.8891 38.2849 26.7991 38.3249L26.7391 38.3549C26.6091 38.4149 26.4991 38.4949 26.4091 38.5949C26.2391 38.8349 25.9891 39.1249 25.6591 39.4649C25.5891 39.5349 25.5541 39.6049 25.5541 39.6749C25.5541 39.7249 25.5791 39.7699 25.6291 39.8099C25.6791 39.8399 25.7441 39.8549 25.8241 39.8549H27.6841ZM25.2991 38.0249C25.2991 37.9449 25.2691 37.8849 25.2091 37.8449C25.1591 37.7949 25.0891 37.7699 24.9991 37.7699H21.2641C21.1141 37.7699 21.0391 37.7949 21.0391 37.8449C21.0391 37.8949 21.1091 37.9499 21.2491 38.0099C21.5991 38.1899 21.8541 38.3899 22.0141 38.6099C22.1841 38.8299 22.2691 39.0449 22.2691 39.2549C22.2691 39.3649 22.2491 39.4599 22.2091 39.5399C22.1791 39.6099 22.1641 39.6749 22.1641 39.7349C22.1641 39.8149 22.2341 39.8549 22.3741 39.8549H24.4741C24.6541 39.8549 24.7741 39.7749 24.8341 39.6149C24.8741 39.4749 24.9091 39.3699 24.9391 39.2999C25.1191 38.6999 25.2341 38.3049 25.2841 38.1149L25.2991 38.0249ZM24.6091 43.6649C24.7691 43.6649 24.8941 43.5999 24.9841 43.4699L25.0891 43.3349C25.1191 43.2949 25.1691 43.2299 25.2391 43.1399C25.3191 43.0399 25.3891 42.9899 25.4491 42.9899C25.5191 42.9899 25.6641 43.0799 25.8841 43.2599C26.1141 43.4399 26.2891 43.6049 26.4091 43.7549C26.4491 43.8049 26.4691 43.8599 26.4691 43.9199C26.4691 43.9899 26.4241 44.0549 26.3341 44.1149L26.2891 44.1449C26.1091 44.2049 26.0191 44.3199 26.0191 44.4899V45.2849C26.0491 46.1049 26.0741 46.7049 26.0941 47.0849V47.1599C26.0941 47.2999 26.0391 47.3999 25.9291 47.4599C25.8191 47.5199 25.6891 47.5749 25.5391 47.6249C25.3891 47.6649 25.2541 47.6849 25.1341 47.6849C25.0541 47.6849 24.9941 47.6499 24.9541 47.5799C24.9241 47.5199 24.9091 47.4699 24.9091 47.4299C24.9091 47.3799 24.9191 47.3249 24.9391 47.2649C24.9591 47.1449 24.9691 47.0499 24.9691 46.9799C24.9691 46.9399 24.9391 46.9099 24.8791 46.8899C24.8291 46.8599 24.7541 46.8449 24.6541 46.8449H22.2841C22.1841 46.8449 22.1041 46.8749 22.0441 46.9349C21.9941 46.9849 21.9691 47.0599 21.9691 47.1599V47.5049C21.9691 47.5649 21.8691 47.6399 21.6691 47.7299C21.4791 47.8099 21.2841 47.8499 21.0841 47.8499C21.0041 47.8499 20.9441 47.8199 20.9041 47.7599C20.8641 47.6999 20.8441 47.6299 20.8441 47.5499C20.8741 47.2599 20.8941 46.9749 20.9041 46.6949L20.9191 46.2899V45.4949C20.9191 44.7849 20.8891 44.1249 20.8291 43.5149V43.4549C20.8291 43.3049 20.8941 43.2299 21.0241 43.2299C21.0841 43.2299 21.1341 43.2399 21.1741 43.2599L21.8641 43.5749C22.0041 43.6349 22.1341 43.6649 22.2541 43.6649H24.6091ZM22.2841 44.0999C22.1841 44.0999 22.1041 44.1299 22.0441 44.1899C21.9941 44.2399 21.9691 44.3149 21.9691 44.4149V46.0799C21.9691 46.1799 21.9941 46.2599 22.0441 46.3199C22.1041 46.3699 22.1841 46.3949 22.2841 46.3949H24.6541C24.7541 46.3949 24.8291 46.3699 24.8791 46.3199C24.9391 46.2599 24.9691 46.1799 24.9691 46.0799V44.4149C24.9691 44.3149 24.9391 44.2399 24.8791 44.1899C24.8291 44.1299 24.7541 44.0999 24.6541 44.0999H22.2841Z" fill="white"/>
<path d="M29.2358 28.7944L24.0179 23.5765C23.6012 23.9312 23.1221 24.2058 22.5804 24.4002C22.0388 24.5947 21.4944 24.6919 20.9475 24.6919C19.6128 24.6919 18.4831 24.2299 17.5585 23.3058C16.6341 22.3818 16.1719 21.2528 16.1719 19.919C16.1719 18.5849 16.6339 17.455 17.5579 16.5292C18.4819 15.6035 19.6109 15.1406 20.9448 15.1406C22.2788 15.1406 23.4088 15.6028 24.3346 16.5273C25.2603 17.4519 25.7231 18.5815 25.7231 19.9162C25.7231 20.4953 25.6206 21.0556 25.4154 21.5973C25.2103 22.139 24.941 22.6021 24.6077 22.9867L29.8256 28.2048L29.2358 28.7944ZM20.9475 23.8585C22.0532 23.8585 22.9867 23.4779 23.7479 22.7167C24.5092 21.9556 24.8898 21.0221 24.8898 19.9162C24.8898 18.8104 24.5092 17.8769 23.7479 17.1158C22.9867 16.3546 22.0532 15.974 20.9475 15.974C19.8417 15.974 18.9082 16.3546 18.1471 17.1158C17.3858 17.8769 17.0052 18.8104 17.0052 19.9162C17.0052 21.0221 17.3858 21.9556 18.1471 22.7167C18.9082 23.4779 19.8417 23.8585 20.9475 23.8585Z" fill="white"/>
</svg>
