<svg width="125" height="40" viewBox="0 0 125 40" fill="none" xmlns="http://www.w3.org/2000/svg">
<path d="M0 0H125V40H0V0Z" fill="#421D12"/>
<path d="M84.0342 20.3299C84.0995 20.3299 84.2582 20.4372 84.5102 20.6519C84.7715 20.8666 84.9628 21.0532 85.0842 21.2119C85.1308 21.2772 85.1542 21.3332 85.1542 21.3799C85.1542 21.4359 85.1262 21.4872 85.0702 21.5339C84.9955 21.5806 84.9068 21.6039 84.8042 21.6039H82.6062C82.5128 21.6039 82.4382 21.6319 82.3822 21.6879C82.3355 21.7346 82.3122 21.8046 82.3122 21.8979V23.2419C82.3122 23.3352 82.3355 23.4099 82.3822 23.4659C82.4382 23.5126 82.5128 23.5359 82.6062 23.5359H83.0122C83.1615 23.5359 83.2782 23.4706 83.3622 23.3399L83.5302 23.0879C83.5582 23.0506 83.6002 22.9899 83.6562 22.9059C83.7122 22.8126 83.7588 22.7472 83.7962 22.7099C83.8428 22.6632 83.8848 22.6399 83.9222 22.6399C83.9875 22.6399 84.1462 22.7566 84.3982 22.9899C84.6595 23.2139 84.8462 23.4052 84.9582 23.5639C84.9955 23.6106 85.0142 23.6619 85.0142 23.7179C85.0142 23.7739 84.9862 23.8252 84.9302 23.8719C84.8555 23.9186 84.7715 23.9419 84.6782 23.9419H82.6062C82.5128 23.9419 82.4382 23.9699 82.3822 24.0259C82.3355 24.0726 82.3122 24.1426 82.3122 24.2359V24.9079C82.3402 25.6452 82.3635 26.1912 82.3822 26.5459V26.6159C82.3822 26.7466 82.3402 26.8399 82.2562 26.8959C82.0415 27.0546 81.7755 27.1339 81.4582 27.1339C81.3742 27.1339 81.3088 27.1059 81.2622 27.0499C81.2155 26.9939 81.1922 26.9286 81.1922 26.8539C81.2388 26.3966 81.2715 25.7806 81.2902 25.0059V24.2359C81.2902 24.1426 81.2622 24.0726 81.2062 24.0259C81.1595 23.9699 81.0895 23.9419 80.9962 23.9419H80.5342C80.1515 23.9606 79.7875 24.0072 79.4422 24.0819H79.3582C79.2275 24.0819 79.1342 24.0212 79.0782 23.8999L79.0222 23.8019C78.9942 23.7459 78.9802 23.6946 78.9802 23.6479C78.9802 23.5919 79.0035 23.5452 79.0502 23.5079C79.1062 23.4706 79.1762 23.4566 79.2602 23.4659C79.5308 23.4939 79.9415 23.5172 80.4922 23.5359H80.9962C81.0895 23.5359 81.1595 23.5126 81.2062 23.4659C81.2622 23.4099 81.2902 23.3352 81.2902 23.2419V21.8979C81.2902 21.8046 81.2622 21.7346 81.2062 21.6879C81.1595 21.6319 81.0895 21.6039 80.9962 21.6039H80.4782C80.0395 21.6226 79.6288 21.6692 79.2462 21.7439C79.2275 21.7532 79.1948 21.7579 79.1482 21.7579C79.0268 21.7579 78.9382 21.6926 78.8822 21.5619L78.8262 21.4499C78.7982 21.3939 78.7842 21.3426 78.7842 21.2959C78.7842 21.2306 78.8075 21.1839 78.8542 21.1559C78.9008 21.1186 78.9662 21.1046 79.0502 21.1139C79.3862 21.1419 79.8715 21.1652 80.5062 21.1839H82.0462C82.2328 21.1839 82.3448 21.0999 82.3822 20.9319C82.5315 20.3252 82.6388 19.6766 82.7042 18.9859V18.9579C82.7042 18.7712 82.6062 18.6779 82.4102 18.6779H81.0942C80.5248 18.6872 79.9088 18.7386 79.2462 18.8319H79.1622C79.0315 18.8319 78.9382 18.7712 78.8822 18.6499L78.8262 18.5519C78.7982 18.4959 78.7842 18.4446 78.7842 18.3979C78.7842 18.3419 78.8075 18.2952 78.8542 18.2579C78.9102 18.2206 78.9802 18.2066 79.0642 18.2159C79.3722 18.2439 79.8295 18.2672 80.4362 18.2859H80.9962C81.0895 18.2859 81.1595 18.2626 81.2062 18.2159C81.2622 18.1599 81.2902 18.0852 81.2902 17.9919V16.8159C81.2902 16.7226 81.2622 16.6526 81.2062 16.6059C81.1595 16.5499 81.0895 16.5219 80.9962 16.5219H80.5902C80.2542 16.5312 79.9182 16.5732 79.5822 16.6479C79.5542 16.6572 79.5215 16.6619 79.4842 16.6619C79.3628 16.6619 79.2742 16.6012 79.2182 16.4799L79.1622 16.3819C79.1342 16.3259 79.1202 16.2746 79.1202 16.2279C79.1202 16.1719 79.1435 16.1252 79.1902 16.0879C79.2462 16.0506 79.3162 16.0366 79.4002 16.0459C79.6522 16.0739 80.0348 16.0972 80.5482 16.1159H80.9962C81.1922 16.1159 81.2902 16.0179 81.2902 15.8219C81.2715 15.3272 81.2435 14.8839 81.2062 14.4919V14.4639C81.2062 14.2959 81.2762 14.2119 81.4162 14.2119L81.5422 14.2399C81.9528 14.3612 82.2375 14.4592 82.3962 14.5339C82.5642 14.5992 82.6482 14.6599 82.6482 14.7159C82.6482 14.7439 82.6295 14.7719 82.5922 14.7999C82.5642 14.8186 82.5455 14.8326 82.5362 14.8419L82.5082 14.8559C82.3775 14.9399 82.3122 15.0566 82.3122 15.2059V15.8219C82.3122 15.9152 82.3355 15.9899 82.3822 16.0459C82.4382 16.0926 82.5128 16.1159 82.6062 16.1159H82.8862C83.0355 16.1159 83.1522 16.0506 83.2362 15.9199L83.3902 15.6959C83.4275 15.6399 83.4695 15.5746 83.5162 15.4999C83.5722 15.4159 83.6188 15.3552 83.6562 15.3179C83.6935 15.2806 83.7308 15.2619 83.7682 15.2619C83.8242 15.2619 83.9408 15.3366 84.1182 15.4859C84.2955 15.6259 84.4588 15.7799 84.6082 15.9479C84.7668 16.1159 84.8462 16.2326 84.8462 16.2979C84.8368 16.3726 84.7995 16.4286 84.7342 16.4659C84.6688 16.5032 84.5895 16.5219 84.4962 16.5219H82.6062C82.5128 16.5219 82.4382 16.5499 82.3822 16.6059C82.3355 16.6526 82.3122 16.7226 82.3122 16.8159V17.9919C82.3122 18.0852 82.3355 18.1599 82.3822 18.2159C82.4382 18.2626 82.5128 18.2859 82.6062 18.2859H83.1382C83.2875 18.2859 83.4042 18.2206 83.4882 18.0899L83.6562 17.8379C83.7028 17.7819 83.7542 17.7119 83.8102 17.6279C83.8662 17.5439 83.9128 17.4832 83.9502 17.4459C83.9875 17.3992 84.0248 17.3759 84.0622 17.3759C84.1182 17.3759 84.2395 17.4552 84.4262 17.6139C84.6128 17.7632 84.7855 17.9266 84.9442 18.1039C85.1028 18.2719 85.1822 18.3886 85.1822 18.4539C85.1728 18.6032 85.0562 18.6779 84.8322 18.6779H83.7262C83.5582 18.6779 83.4742 18.7152 83.4742 18.7899C83.4742 18.8366 83.5302 18.8832 83.6422 18.9299C83.8475 19.0139 83.9922 19.0839 84.0762 19.1399C84.1602 19.1866 84.2022 19.2286 84.2022 19.2659C84.2022 19.2939 84.1602 19.3266 84.0762 19.3639L84.0062 19.3919C83.8755 19.4479 83.7775 19.5272 83.7122 19.6299C83.3388 20.2179 83.0728 20.6192 82.9142 20.8339C82.8488 20.9086 82.8162 20.9786 82.8162 21.0439C82.8162 21.1372 82.8768 21.1839 82.9982 21.1839H83.1382C83.2875 21.1839 83.4042 21.1186 83.4882 20.9879L83.6422 20.7639C83.6702 20.7172 83.7122 20.6566 83.7682 20.5819C83.8335 20.4979 83.8848 20.4372 83.9222 20.3999C83.9595 20.3532 83.9968 20.3299 84.0342 20.3299ZM89.3542 24.0959C89.3168 24.1892 89.2982 24.2499 89.2982 24.2779C89.2982 24.3526 89.3355 24.4272 89.4102 24.5019C89.9608 25.0899 90.5675 25.5566 91.2302 25.9019C91.3702 25.9766 91.4402 26.0372 91.4402 26.0839C91.4402 26.1119 91.4215 26.1352 91.3842 26.1539C91.3562 26.1726 91.3235 26.1866 91.2862 26.1959C91.2488 26.2052 91.2162 26.2146 91.1882 26.2239C90.9362 26.3266 90.7308 26.5039 90.5722 26.7559C90.5068 26.8679 90.4322 26.9239 90.3482 26.9239C90.3015 26.9239 90.2455 26.9006 90.1802 26.8539C89.6948 26.4619 89.2515 25.9952 88.8502 25.4539C88.7755 25.3606 88.7055 25.3139 88.6402 25.3139C88.5655 25.3139 88.5002 25.3559 88.4442 25.4399C87.9682 26.0186 87.4082 26.5272 86.7642 26.9659C86.6055 27.0592 86.5028 27.0779 86.4562 27.0219C86.4468 27.0126 86.4422 26.9939 86.4422 26.9659C86.4422 26.9099 86.4935 26.8352 86.5962 26.7419C87.1935 26.1819 87.7068 25.4959 88.1362 24.6839C88.1828 24.6092 88.2062 24.5392 88.2062 24.4739C88.2062 24.4459 88.1875 24.3852 88.1502 24.2919C87.6555 23.2932 87.2962 22.0659 87.0722 20.6099C87.0442 20.4326 86.9368 20.3439 86.7502 20.3439H86.6522C86.5588 20.3439 86.4842 20.3719 86.4282 20.4279C86.3815 20.4746 86.3582 20.5446 86.3582 20.6379V23.3399C86.3768 24.3479 86.4095 25.3792 86.4562 26.4339V26.5179C86.4562 26.6206 86.4188 26.7092 86.3442 26.7839C86.2508 26.8772 86.1295 26.9566 85.9802 27.0219C85.8402 27.0872 85.6862 27.1199 85.5182 27.1199C85.4248 27.1199 85.3455 27.0919 85.2802 27.0359C85.2148 26.9799 85.1822 26.9146 85.1822 26.8399C85.2195 26.2892 85.2522 25.7572 85.2802 25.2439C85.3082 24.7212 85.3268 24.0399 85.3362 23.1999V17.4459C85.3362 16.5406 85.2942 15.7239 85.2102 14.9959V14.9399C85.2102 14.7999 85.2708 14.7299 85.3922 14.7299C85.4482 14.7299 85.4948 14.7392 85.5322 14.7579L86.2602 15.0939C86.3815 15.1499 86.5028 15.1779 86.6242 15.1779H89.1022C89.2515 15.1779 89.3682 15.1126 89.4522 14.9819L89.5502 14.8279C89.5782 14.7906 89.6155 14.7392 89.6622 14.6739C89.7088 14.6086 89.7462 14.5619 89.7742 14.5339C89.8115 14.4966 89.8488 14.4779 89.8862 14.4779C89.9515 14.4779 90.1102 14.5806 90.3622 14.7859C90.6142 14.9819 90.8055 15.1592 90.9362 15.3179C90.9735 15.3646 90.9922 15.4159 90.9922 15.4719C90.9922 15.5372 90.9502 15.5979 90.8662 15.6539L90.7402 15.6959C90.5722 15.7519 90.4882 15.8639 90.4882 16.0319V17.7399C90.4882 18.1412 90.4042 18.4446 90.2362 18.6499C90.0775 18.8552 89.7368 18.9952 89.2142 19.0699L89.1302 19.0839C89.0088 19.0839 88.9248 18.9999 88.8782 18.8319C88.8128 18.6079 88.7288 18.4539 88.6262 18.3699C88.3835 18.2206 88.0895 18.1132 87.7442 18.0479C87.5575 18.0199 87.4642 17.9686 87.4642 17.8939C87.4642 17.8379 87.5388 17.8099 87.6882 17.8099C87.8468 17.8099 88.0055 17.8146 88.1642 17.8239C88.3228 17.8332 88.4628 17.8426 88.5842 17.8519C88.8362 17.8799 89.0322 17.8939 89.1722 17.8939C89.2842 17.8939 89.3588 17.8752 89.3962 17.8379C89.4428 17.7912 89.4662 17.7166 89.4662 17.6139V15.8639C89.4662 15.7706 89.4382 15.7006 89.3822 15.6539C89.3355 15.5979 89.2655 15.5699 89.1722 15.5699H86.6522C86.5588 15.5699 86.4842 15.5979 86.4282 15.6539C86.3815 15.7006 86.3582 15.7706 86.3582 15.8639V19.6439C86.3582 19.7372 86.3815 19.8119 86.4282 19.8679C86.4842 19.9146 86.5588 19.9379 86.6522 19.9379H89.2702C89.4288 19.9379 89.5502 19.8819 89.6342 19.7699L89.7602 19.6299C89.7975 19.5926 89.8535 19.5319 89.9282 19.4479C90.0122 19.3546 90.0822 19.3079 90.1382 19.3079C90.2035 19.3079 90.3435 19.4012 90.5582 19.5879C90.7728 19.7652 90.9408 19.9286 91.0622 20.0779C91.0995 20.1246 91.1182 20.1759 91.1182 20.2319C91.1182 20.3066 91.0762 20.3672 90.9922 20.4139L90.9082 20.4419C90.7402 20.4886 90.6375 20.5819 90.6002 20.7219C90.3202 22.0006 89.9048 23.1252 89.3542 24.0959ZM80.6882 21.1699C80.6042 21.1699 80.5108 21.1419 80.4082 21.0859C80.2962 21.0112 80.2402 20.8946 80.2402 20.7359C80.2122 20.2879 80.0815 19.7606 79.8482 19.1539C79.8108 19.0699 79.7922 18.9999 79.7922 18.9439C79.7922 18.8879 79.8015 18.8552 79.8202 18.8459C79.8295 18.8366 79.8435 18.8319 79.8622 18.8319C79.9182 18.8319 79.9928 18.8646 80.0862 18.9299C80.4782 19.1726 80.7628 19.4292 80.9402 19.6999C81.1268 19.9706 81.2202 20.2319 81.2202 20.4839C81.2202 20.6799 81.1688 20.8432 81.0662 20.9739C80.9635 21.1046 80.8375 21.1699 80.6882 21.1699ZM89.5222 20.5819C89.5222 20.5072 89.4942 20.4512 89.4382 20.4139C89.3915 20.3672 89.3262 20.3439 89.2422 20.3439H87.6322C87.5295 20.3439 87.4548 20.3766 87.4082 20.4419C87.3615 20.4979 87.3522 20.5726 87.3802 20.6659C87.6135 21.5992 87.9635 22.4486 88.4302 23.2139C88.4955 23.3072 88.5655 23.3539 88.6402 23.3539C88.7428 23.3539 88.8128 23.2932 88.8502 23.1719C89.1488 22.3506 89.3682 21.5152 89.5082 20.6659L89.5222 20.5819Z" fill="white"/>
<path d="M66.6739 17.0121C66.6739 16.0787 66.6319 15.2434 66.5479 14.5061V14.4501C66.5479 14.3007 66.6132 14.2261 66.7439 14.2261C66.7625 14.2261 66.8092 14.2354 66.8839 14.2541C67.3132 14.3847 67.6119 14.4921 67.7799 14.5761C67.9572 14.6507 68.0459 14.7161 68.0459 14.7721C68.0459 14.8187 68.0085 14.8654 67.9339 14.9121L67.8919 14.9401C67.7612 15.0241 67.6959 15.1407 67.6959 15.2901V23.3961C67.7145 24.4041 67.7472 25.4354 67.7939 26.4901V26.5741C67.7939 26.6767 67.7565 26.7654 67.6819 26.8401C67.5792 26.9241 67.4532 26.9941 67.3039 27.0501C67.1545 27.1061 67.0099 27.1341 66.8699 27.1341C66.7765 27.1341 66.6925 27.1061 66.6179 27.0501C66.5525 26.9941 66.5199 26.9287 66.5199 26.8541C66.5572 26.3034 66.5899 25.7714 66.6179 25.2581C66.6459 24.7354 66.6645 24.0541 66.6739 23.2141V17.0121ZM74.7379 17.2921C74.8872 17.2921 75.0039 17.2314 75.0879 17.1101L75.2419 16.8861C75.2792 16.8394 75.3212 16.7787 75.3679 16.7041C75.4239 16.6201 75.4705 16.5594 75.5079 16.5221C75.5452 16.4847 75.5825 16.4661 75.6199 16.4661C75.6945 16.4661 75.8532 16.5687 76.0959 16.7741C76.3479 16.9794 76.5345 17.1567 76.6559 17.3061C76.7025 17.3714 76.7259 17.4274 76.7259 17.4741C76.7259 17.5301 76.6979 17.5814 76.6419 17.6281C76.5672 17.6747 76.4785 17.6981 76.3759 17.6981H73.6599C73.5665 17.6981 73.4919 17.7261 73.4359 17.7821C73.3892 17.8287 73.3659 17.8987 73.3659 17.9921V18.6501C73.3659 18.7434 73.3892 18.8181 73.4359 18.8741C73.4919 18.9207 73.5665 18.9441 73.6599 18.9441H75.2979C75.4472 18.9441 75.5639 18.8834 75.6479 18.7621L75.8159 18.5241C75.8439 18.4774 75.8859 18.4167 75.9419 18.3421C76.0072 18.2581 76.0585 18.1974 76.0959 18.1601C76.1332 18.1134 76.1705 18.0901 76.2079 18.0901C76.2732 18.0901 76.4365 18.1974 76.6979 18.4121C76.9592 18.6267 77.1505 18.8134 77.2719 18.9721C77.3185 19.0374 77.3419 19.0934 77.3419 19.1401C77.3419 19.1961 77.3139 19.2474 77.2579 19.2941C77.1832 19.3407 77.0945 19.3641 76.9919 19.3641H71.0559C70.4865 19.3734 69.8705 19.4247 69.2079 19.5181H69.1239C68.9932 19.5181 68.8999 19.4574 68.8439 19.3361L68.7879 19.2101C68.7599 19.1541 68.7459 19.0981 68.7459 19.0421C68.7459 18.9114 68.8345 18.8554 69.0119 18.8741C69.3292 18.9021 69.8145 18.9254 70.4679 18.9441H72.0219C72.1152 18.9441 72.1852 18.9207 72.2319 18.8741C72.2879 18.8181 72.3159 18.7434 72.3159 18.6501V17.9921C72.3159 17.8987 72.2879 17.8287 72.2319 17.7821C72.1852 17.7261 72.1152 17.6981 72.0219 17.6981H71.4619C70.9952 17.7167 70.5565 17.7634 70.1459 17.8381C70.1179 17.8474 70.0852 17.8521 70.0479 17.8521C69.9265 17.8521 69.8379 17.7914 69.7819 17.6701L69.7259 17.5581C69.6979 17.5021 69.6839 17.4461 69.6839 17.3901C69.6839 17.3341 69.7072 17.2921 69.7539 17.2641C69.8005 17.2267 69.8659 17.2127 69.9499 17.2221C70.2672 17.2501 70.7479 17.2734 71.3919 17.2921H72.0219C72.1152 17.2921 72.1852 17.2687 72.2319 17.2221C72.2879 17.1661 72.3159 17.0914 72.3159 16.9981V16.4241C72.3159 16.3307 72.2879 16.2607 72.2319 16.2141C72.1852 16.1581 72.1152 16.1301 72.0219 16.1301H71.2519C70.7105 16.1394 70.1412 16.1907 69.5439 16.2841H69.4599C69.3292 16.2841 69.2359 16.2234 69.1799 16.1021L69.1239 15.9901C69.0959 15.9341 69.0819 15.8827 69.0819 15.8361C69.0819 15.7707 69.1052 15.7241 69.1519 15.6961C69.1985 15.6587 69.2639 15.6447 69.3479 15.6541C69.6839 15.6821 70.1692 15.7054 70.8039 15.7241H72.0219C72.2179 15.7241 72.3159 15.6261 72.3159 15.4301L72.2739 14.5761V14.5201C72.2739 14.3707 72.3392 14.2961 72.4699 14.2961C72.4885 14.2961 72.5352 14.3054 72.6099 14.3241C73.0205 14.4454 73.3052 14.5434 73.4639 14.6181C73.6225 14.6927 73.7019 14.7581 73.7019 14.8141C73.7019 14.8421 73.6645 14.8841 73.5899 14.9401L73.5619 14.9541C73.4312 15.0381 73.3659 15.1547 73.3659 15.3041V15.4301C73.3659 15.5234 73.3892 15.5981 73.4359 15.6541C73.4919 15.7007 73.5665 15.7241 73.6599 15.7241H75.0599C75.2092 15.7241 75.3259 15.6634 75.4099 15.5421L75.5779 15.3041C75.6059 15.2574 75.6479 15.1967 75.7039 15.1221C75.7692 15.0381 75.8205 14.9774 75.8579 14.9401C75.8952 14.8934 75.9325 14.8701 75.9699 14.8701C76.0445 14.8701 76.2125 14.9774 76.4739 15.1921C76.7352 15.4067 76.9265 15.5887 77.0479 15.7381C77.0945 15.8034 77.1179 15.8594 77.1179 15.9061C77.1179 15.9621 77.0899 16.0134 77.0339 16.0601C76.9685 16.1067 76.8892 16.1301 76.7959 16.1301H73.6599C73.5665 16.1301 73.4919 16.1581 73.4359 16.2141C73.3892 16.2607 73.3659 16.3307 73.3659 16.4241V16.9981C73.3659 17.0914 73.3892 17.1661 73.4359 17.2221C73.4919 17.2687 73.5665 17.2921 73.6599 17.2921H74.7379ZM67.9759 16.6761C67.8919 16.4987 67.8779 16.3961 67.9339 16.3681C67.9432 16.3587 67.9619 16.3541 67.9899 16.3541C68.0645 16.3541 68.1392 16.3867 68.2139 16.4521C68.5965 16.7041 68.8765 16.9701 69.0539 17.2501C69.2405 17.5301 69.3339 17.7914 69.3339 18.0341C69.3339 18.2207 69.2872 18.3747 69.1939 18.4961C69.1005 18.6174 68.9885 18.6781 68.8579 18.6781C68.7832 18.6781 68.7132 18.6594 68.6479 18.6221C68.5825 18.5847 68.5359 18.5427 68.5079 18.4961C68.4892 18.4401 68.4752 18.3701 68.4659 18.2861C68.4099 17.7541 68.2465 17.2174 67.9759 16.6761ZM65.6379 17.0541C65.6565 16.8487 65.6985 16.7461 65.7639 16.7461C65.8479 16.7647 65.9039 16.8487 65.9319 16.9981C66.0345 17.4367 66.0859 17.8661 66.0859 18.2861C66.0859 18.6501 66.0485 18.9767 65.9739 19.2661C65.9085 19.5461 65.8199 19.7701 65.7079 19.9381C65.6239 20.0594 65.5212 20.1527 65.3999 20.2181C65.2879 20.2834 65.1759 20.3161 65.0639 20.3161C64.9425 20.3161 64.8399 20.2694 64.7559 20.1761C64.6999 20.0921 64.6719 19.9987 64.6719 19.8961C64.6719 19.7467 64.7232 19.6067 64.8259 19.4761C64.8632 19.4201 64.8959 19.3781 64.9239 19.3501C64.9519 19.3127 64.9752 19.2801 64.9939 19.2521C65.1525 19.0001 65.2925 18.6734 65.4139 18.2721C65.5445 17.8614 65.6192 17.4554 65.6379 17.0541ZM71.2659 24.1241C71.1725 24.1241 71.0979 24.1521 71.0419 24.2081C70.9952 24.2547 70.9719 24.3247 70.9719 24.4181V24.9921L70.9999 25.6781C70.9999 25.8647 71.0092 26.1261 71.0279 26.4621V26.5461C71.0279 26.6487 70.9905 26.7374 70.9159 26.8121C70.8225 26.8961 70.7012 26.9661 70.5519 27.0221C70.4025 27.0781 70.2532 27.1061 70.1039 27.1061C70.0199 27.1061 69.9452 27.0781 69.8799 27.0221C69.8239 26.9661 69.7959 26.9007 69.7959 26.8261C69.8612 26.0234 69.9032 25.1321 69.9219 24.1521V22.6681C69.9219 21.7627 69.8799 20.9414 69.7959 20.2041V20.1481C69.7959 20.0081 69.8565 19.9381 69.9779 19.9381C70.0339 19.9381 70.0805 19.9474 70.1179 19.9661L70.8879 20.3021C71.0092 20.3581 71.1305 20.3861 71.2519 20.3861H74.5699C74.7192 20.3861 74.8359 20.3254 74.9199 20.2041L75.0179 20.0641C75.0459 20.0267 75.0925 19.9661 75.1579 19.8821C75.2232 19.7887 75.2839 19.7421 75.3399 19.7421C75.4052 19.7421 75.5685 19.8354 75.8299 20.0221C76.0912 20.2087 76.2919 20.3767 76.4319 20.5261C76.4692 20.5727 76.4879 20.6241 76.4879 20.6801C76.4879 20.7454 76.4505 20.8061 76.3759 20.8621C76.3479 20.8807 76.3199 20.8947 76.2919 20.9041C76.2639 20.9134 76.2405 20.9227 76.2219 20.9321C76.0539 20.9881 75.9699 21.0954 75.9699 21.2541V25.6781C75.9699 26.0981 75.8952 26.4154 75.7459 26.6301C75.6059 26.8447 75.3025 26.9894 74.8359 27.0641L74.7519 27.0781C74.6119 27.0781 74.5279 26.9847 74.4999 26.7981C74.4719 26.5834 74.4065 26.4247 74.3039 26.3221C74.1732 26.1727 73.9445 26.0607 73.6179 25.9861C73.4405 25.9394 73.3519 25.8834 73.3519 25.8181C73.3519 25.7714 73.4219 25.7481 73.5619 25.7481C73.8045 25.7481 74.0425 25.7621 74.2759 25.7901L74.6539 25.8041C74.7565 25.8041 74.8265 25.7854 74.8639 25.7481C74.9012 25.7014 74.9199 25.6267 74.9199 25.5241V24.4181C74.9199 24.3247 74.8919 24.2547 74.8359 24.2081C74.7892 24.1521 74.7192 24.1241 74.6259 24.1241H71.2659ZM74.6259 22.0381C74.7192 22.0381 74.7892 22.0147 74.8359 21.9681C74.8919 21.9121 74.9199 21.8374 74.9199 21.7441V21.1001C74.9199 21.0067 74.8919 20.9367 74.8359 20.8901C74.7892 20.8341 74.7192 20.8061 74.6259 20.8061H71.2659C71.1725 20.8061 71.0979 20.8341 71.0419 20.8901C70.9952 20.9367 70.9719 21.0067 70.9719 21.1001V21.7441C70.9719 21.8374 70.9952 21.9121 71.0419 21.9681C71.0979 22.0147 71.1725 22.0381 71.2659 22.0381H74.6259ZM71.2659 22.4441C71.1725 22.4441 71.0979 22.4721 71.0419 22.5281C70.9952 22.5747 70.9719 22.6447 70.9719 22.7381V23.4241C70.9719 23.5174 70.9952 23.5921 71.0419 23.6481C71.0979 23.6947 71.1725 23.7181 71.2659 23.7181H74.6259C74.7192 23.7181 74.7892 23.6947 74.8359 23.6481C74.8919 23.5921 74.9199 23.5174 74.9199 23.4241V22.7381C74.9199 22.6447 74.8919 22.5747 74.8359 22.5281C74.7892 22.4721 74.7192 22.4441 74.6259 22.4441H71.2659Z" fill="white"/>
<path d="M60.3459 16.9419C60.2526 16.9419 60.1779 16.9699 60.1219 17.0259C60.0752 17.0726 60.0519 17.1426 60.0519 17.2359V18.0339C60.0519 18.1273 60.0752 18.2019 60.1219 18.2579C60.1779 18.3046 60.2526 18.3279 60.3459 18.3279H61.2139C61.3819 18.3279 61.5032 18.2626 61.5779 18.1319L61.6619 17.9779C61.6899 17.9313 61.7272 17.8799 61.7739 17.8239C61.8206 17.7586 61.8579 17.7119 61.8859 17.6839C61.9139 17.6466 61.9466 17.6279 61.9839 17.6279C62.0492 17.6279 62.2032 17.7259 62.4459 17.9219C62.6979 18.1179 62.8939 18.2953 63.0339 18.4539C63.0806 18.5193 63.1039 18.5706 63.1039 18.6079C63.1039 18.6826 63.0619 18.7433 62.9779 18.7899C62.9219 18.8273 62.8752 18.8506 62.8379 18.8599C62.6699 18.9253 62.5859 19.0373 62.5859 19.1959V25.7619C62.5859 26.1633 62.5252 26.4619 62.4039 26.6579C62.2919 26.8539 62.0399 26.9893 61.6479 27.0639L61.5639 27.0779C61.4332 27.0779 61.3446 26.9893 61.2979 26.8119C61.2699 26.6253 61.2232 26.4853 61.1579 26.3919C61.0459 26.2613 60.8966 26.1679 60.7099 26.1119C60.5326 26.0559 60.4439 25.9999 60.4439 25.9439C60.4439 25.8879 60.5186 25.8599 60.6679 25.8599C60.8172 25.8599 60.9526 25.8646 61.0739 25.8739C61.1952 25.8833 61.2886 25.8879 61.3539 25.8879C61.4472 25.8879 61.5079 25.8739 61.5359 25.8459C61.5639 25.8086 61.5779 25.7433 61.5779 25.6499V23.6899C61.5779 23.5966 61.5499 23.5266 61.4939 23.4799C61.4472 23.4239 61.3772 23.3959 61.2839 23.3959H60.3459C60.2526 23.3959 60.1779 23.4239 60.1219 23.4799C60.0752 23.5266 60.0519 23.5966 60.0519 23.6899V24.4739C60.0799 25.2859 60.1032 25.9113 60.1219 26.3499V26.4339C60.1219 26.5459 60.0892 26.6346 60.0239 26.6999C59.9306 26.7933 59.8092 26.8679 59.6599 26.9239C59.5106 26.9893 59.3659 27.0219 59.2259 27.0219C59.1419 27.0219 59.0719 26.9939 59.0159 26.9379C58.9692 26.8819 58.9459 26.8166 58.9459 26.7419C58.9832 26.2193 59.0159 25.5099 59.0439 24.6139V23.6899C59.0439 23.5966 59.0159 23.5266 58.9599 23.4799C58.9132 23.4239 58.8432 23.3959 58.7499 23.3959H57.8819C57.7886 23.3959 57.7139 23.4239 57.6579 23.4799C57.6112 23.5266 57.5879 23.5966 57.5879 23.6899V24.5019C57.6159 25.3606 57.6392 26.0093 57.6579 26.4479V26.5319C57.6579 26.6346 57.6206 26.7233 57.5459 26.7979C57.4619 26.8819 57.3499 26.9519 57.2099 27.0079C57.0699 27.0639 56.9252 27.0919 56.7759 27.0919C56.6826 27.0919 56.6032 27.0639 56.5379 27.0079C56.4726 26.9519 56.4399 26.8866 56.4399 26.8119C56.4772 26.2613 56.5099 25.7293 56.5379 25.2159C56.5659 24.6933 56.5846 24.0119 56.5939 23.1719V20.6379C56.5939 19.7326 56.5519 18.9113 56.4679 18.1739V18.1179C56.4679 17.9779 56.5286 17.9079 56.6499 17.9079C56.7059 17.9079 56.7526 17.9173 56.7899 17.9359L57.4899 18.2439C57.6206 18.2999 57.7419 18.3279 57.8539 18.3279H58.7499C58.8432 18.3279 58.9132 18.3046 58.9599 18.2579C59.0159 18.2019 59.0439 18.1273 59.0439 18.0339V17.2359C59.0439 17.1426 59.0159 17.0726 58.9599 17.0259C58.9132 16.9699 58.8432 16.9419 58.7499 16.9419H58.1339C57.6952 16.9513 57.2286 17.0026 56.7339 17.0959H56.6499C56.5192 17.0959 56.4212 17.0353 56.3559 16.9139L56.1879 16.5779C56.1972 16.6059 56.2019 16.6526 56.2019 16.7179C56.2019 16.8859 56.1506 17.0259 56.0479 17.1379C55.9452 17.2406 55.8239 17.2919 55.6839 17.2919C55.6092 17.2919 55.5392 17.2779 55.4739 17.2499C55.3712 17.2033 55.2919 17.1099 55.2359 16.9699C55.0119 16.5126 54.6712 16.0179 54.2139 15.4859C54.1392 15.4113 54.0739 15.3739 54.0179 15.3739C53.9246 15.3739 53.8499 15.4299 53.7939 15.5419C53.2246 16.5779 52.5806 17.4833 51.8619 18.2579C51.7966 18.3233 51.7639 18.3886 51.7639 18.4539C51.7639 18.5566 51.8386 18.6173 51.9879 18.6359L52.6039 18.6639H52.8559C53.0519 18.6639 53.1499 18.5659 53.1499 18.3699C53.1312 17.8193 53.1079 17.4319 53.0799 17.2079V17.1799C53.0799 17.0119 53.1499 16.9279 53.2899 16.9279L53.4159 16.9559C53.8079 17.0679 54.0832 17.1613 54.2419 17.2359C54.4006 17.3106 54.4799 17.3759 54.4799 17.4319C54.4799 17.4599 54.4426 17.5019 54.3679 17.5579L54.3399 17.5719C54.2092 17.6559 54.1439 17.7726 54.1439 17.9219V18.3699C54.1439 18.5659 54.2372 18.6639 54.4239 18.6639H54.4799C54.6292 18.6639 54.7459 18.5986 54.8299 18.4679L54.9559 18.2859C54.9839 18.2393 55.0212 18.1833 55.0679 18.1179C55.1239 18.0433 55.1659 17.9873 55.1939 17.9499C55.2312 17.9126 55.2686 17.8939 55.3059 17.8939C55.3806 17.8939 55.5252 17.9873 55.7399 18.1739C55.9639 18.3606 56.1226 18.5286 56.2159 18.6779C56.2626 18.7433 56.2859 18.7993 56.2859 18.8459C56.2859 18.9019 56.2579 18.9533 56.2019 18.9999C56.1366 19.0466 56.0526 19.0699 55.9499 19.0699H54.4379C54.3446 19.0699 54.2699 19.0979 54.2139 19.1539C54.1672 19.2006 54.1439 19.2706 54.1439 19.3639V20.4419C54.1439 20.5353 54.1672 20.6099 54.2139 20.6659C54.2699 20.7126 54.3446 20.7359 54.4379 20.7359H54.5639C54.7132 20.7359 54.8299 20.6706 54.9139 20.5399L55.0539 20.3299C55.0819 20.2926 55.1192 20.2366 55.1659 20.1619C55.2219 20.0779 55.2686 20.0173 55.3059 19.9799C55.3432 19.9426 55.3806 19.9239 55.4179 19.9239C55.4832 19.9239 55.6326 20.0266 55.8659 20.2319C56.1086 20.4279 56.2859 20.6053 56.3979 20.7639C56.4446 20.8293 56.4679 20.8853 56.4679 20.9319C56.4679 20.9879 56.4399 21.0393 56.3839 21.0859C56.3372 21.1233 56.2579 21.1419 56.1459 21.1419H53.2619C52.6926 21.1513 52.0766 21.2026 51.4139 21.2959H51.3299C51.1992 21.2959 51.1059 21.2353 51.0499 21.1139L50.9939 21.0019C50.9659 20.9459 50.9519 20.8946 50.9519 20.8479C50.9519 20.7919 50.9752 20.7453 51.0219 20.7079C51.0779 20.6706 51.1479 20.6566 51.2319 20.6659C51.4932 20.6939 51.8852 20.7173 52.4079 20.7359H52.8559C52.9492 20.7359 53.0192 20.7126 53.0659 20.6659C53.1219 20.6099 53.1499 20.5353 53.1499 20.4419V19.3639C53.1499 19.2706 53.1219 19.2006 53.0659 19.1539C53.0192 19.0979 52.9492 19.0699 52.8559 19.0699H52.6319C52.4079 19.0886 52.2072 19.1213 52.0299 19.1679C51.9739 19.1866 51.9319 19.1959 51.9039 19.1959C51.7919 19.1959 51.7032 19.1353 51.6379 19.0139L51.6099 18.9719C51.5539 18.8599 51.4839 18.8039 51.3999 18.8039C51.3532 18.8039 51.2879 18.8366 51.2039 18.9019L50.9099 19.1539C50.7699 19.2659 50.6719 19.2939 50.6159 19.2379L50.5879 19.1819C50.5879 19.1446 50.6346 19.0653 50.7279 18.9439C51.2132 18.3466 51.6752 17.6093 52.1139 16.7319C52.3006 16.3586 52.4686 15.9666 52.6179 15.5559C52.7672 15.1359 52.8746 14.7533 52.9399 14.4079C52.9586 14.2493 53.0286 14.1699 53.1499 14.1699C53.2059 14.1699 53.2526 14.1793 53.2899 14.1979L54.2839 14.5899C54.3492 14.6179 54.4006 14.6553 54.4379 14.7019C54.4846 14.7393 54.5079 14.7766 54.5079 14.8139C54.5079 14.8513 54.4846 14.8839 54.4379 14.9119C54.4566 15.0239 54.5499 15.1173 54.7179 15.1919C55.3712 15.4906 55.8192 15.8359 56.0619 16.2279C56.1459 16.3773 56.2579 16.4566 56.3979 16.4659C56.9112 16.5033 57.4386 16.5313 57.9799 16.5499H58.7499C58.9459 16.5499 59.0439 16.4519 59.0439 16.2559C59.0252 15.5653 58.9926 14.9959 58.9459 14.5479V14.5199C58.9459 14.3519 59.0159 14.2679 59.1559 14.2679L59.2819 14.2959C60.0286 14.5106 60.4019 14.6786 60.4019 14.7999C60.4019 14.8466 60.3646 14.8933 60.2899 14.9399L60.2479 14.9679C60.1172 15.0519 60.0519 15.1686 60.0519 15.3179V16.2559C60.0519 16.3493 60.0752 16.4239 60.1219 16.4799C60.1779 16.5266 60.2526 16.5499 60.3459 16.5499H61.2559C61.4052 16.5499 61.5219 16.4893 61.6059 16.3679L61.6619 16.2839C61.7272 16.1999 61.7739 16.1253 61.8019 16.0599C61.8392 15.9946 61.8486 15.9619 61.8299 15.9619L61.7739 15.9479C61.7086 15.9293 61.6572 15.9013 61.6199 15.8639C61.5919 15.8173 61.5546 15.7566 61.5079 15.6819C61.3399 15.3833 61.1019 15.0846 60.7939 14.7859C60.6446 14.6366 60.5886 14.5479 60.6259 14.5199C60.6539 14.4919 60.7052 14.4779 60.7799 14.4779C60.8359 14.4779 60.8826 14.4826 60.9199 14.4919C61.4146 14.5573 61.7786 14.6879 62.0119 14.8839C62.2546 15.0706 62.3759 15.2713 62.3759 15.4859C62.3759 15.5326 62.3712 15.5699 62.3619 15.5979C62.3526 15.6353 62.3479 15.6819 62.3479 15.7379C62.3479 15.8313 62.3852 15.9106 62.4599 15.9759C62.6746 16.1439 62.8892 16.3353 63.1039 16.5499C63.1879 16.6339 63.2299 16.7133 63.2299 16.7879C63.2299 16.8439 63.1972 16.8859 63.1319 16.9139C63.0572 16.9326 62.9919 16.9419 62.9359 16.9419H60.3459ZM57.5879 20.3579C57.5879 20.4513 57.6112 20.5259 57.6579 20.5819C57.7139 20.6286 57.7886 20.6519 57.8819 20.6519H58.7499C58.8432 20.6519 58.9132 20.6286 58.9599 20.5819C59.0159 20.5259 59.0439 20.4513 59.0439 20.3579V19.0279C59.0439 18.9346 59.0159 18.8646 58.9599 18.8179C58.9132 18.7619 58.8432 18.7339 58.7499 18.7339H57.8819C57.7886 18.7339 57.7139 18.7619 57.6579 18.8179C57.6112 18.8646 57.5879 18.9346 57.5879 19.0279V20.3579ZM61.2839 20.6519C61.3772 20.6519 61.4472 20.6286 61.4939 20.5819C61.5499 20.5259 61.5779 20.4513 61.5779 20.3579V19.0279C61.5779 18.9346 61.5499 18.8646 61.4939 18.8179C61.4472 18.7619 61.3772 18.7339 61.2839 18.7339H60.3459C60.2526 18.7339 60.1779 18.7619 60.1219 18.8179C60.0752 18.8646 60.0519 18.9346 60.0519 19.0279V20.3579C60.0519 20.4513 60.0752 20.5259 60.1219 20.5819C60.1779 20.6286 60.2526 20.6519 60.3459 20.6519H61.2839ZM57.5879 22.6959C57.5879 22.7893 57.6112 22.8639 57.6579 22.9199C57.7139 22.9666 57.7886 22.9899 57.8819 22.9899H58.7499C58.8432 22.9899 58.9132 22.9666 58.9599 22.9199C59.0159 22.8639 59.0439 22.7893 59.0439 22.6959V21.3519C59.0439 21.2586 59.0159 21.1886 58.9599 21.1419C58.9132 21.0859 58.8432 21.0579 58.7499 21.0579H57.8819C57.7886 21.0579 57.7139 21.0859 57.6579 21.1419C57.6112 21.1886 57.5879 21.2586 57.5879 21.3519V22.6959ZM60.0519 22.6959C60.0519 22.7893 60.0752 22.8639 60.1219 22.9199C60.1779 22.9666 60.2526 22.9899 60.3459 22.9899H61.2839C61.3772 22.9899 61.4472 22.9666 61.4939 22.9199C61.5499 22.8639 61.5779 22.7893 61.5779 22.6959V21.3519C61.5779 21.2586 61.5499 21.1886 61.4939 21.1419C61.4472 21.0859 61.3772 21.0579 61.2839 21.0579H60.3459C60.2526 21.0579 60.1779 21.0859 60.1219 21.1419C60.0752 21.1886 60.0519 21.2586 60.0519 21.3519V22.6959ZM55.1379 21.6739C55.2032 21.6739 55.3526 21.7533 55.5859 21.9119C55.8192 22.0706 55.9966 22.2199 56.1179 22.3599C56.1646 22.4253 56.1879 22.4766 56.1879 22.5139C56.1879 22.5886 56.1459 22.6493 56.0619 22.6959L55.9639 22.7519C55.8799 22.7893 55.8146 22.8313 55.7679 22.8779C55.7306 22.9246 55.7119 22.9899 55.7119 23.0739V24.0539C55.7399 24.9966 55.7632 25.7153 55.7819 26.2099V26.2799C55.7819 26.4106 55.7306 26.5039 55.6279 26.5599C55.5252 26.6159 55.3992 26.6673 55.2499 26.7139C55.1006 26.7606 54.9699 26.7839 54.8579 26.7839C54.7926 26.7839 54.7412 26.7513 54.7039 26.6859C54.6759 26.6299 54.6619 26.5833 54.6619 26.5459C54.6619 26.4993 54.6712 26.4479 54.6899 26.3919C54.7086 26.2986 54.7179 26.2193 54.7179 26.1539C54.7179 26.1073 54.6899 26.0699 54.6339 26.0419C54.5872 26.0233 54.5172 26.0139 54.4239 26.0139H52.8279C52.6319 26.0139 52.5339 26.0979 52.5339 26.2659C52.5432 26.3313 52.5479 26.4059 52.5479 26.4899V26.6019C52.5479 26.7233 52.5152 26.8073 52.4499 26.8539C52.3659 26.9286 52.2539 26.9893 52.1139 27.0359C51.9832 27.0826 51.8432 27.1059 51.6939 27.1059C51.6192 27.1059 51.5586 27.0779 51.5119 27.0219C51.4746 26.9659 51.4559 26.9006 51.4559 26.8259C51.4932 26.4339 51.5212 25.9346 51.5399 25.3279V24.4319C51.5399 23.6293 51.5026 22.8546 51.4279 22.1079V22.0519C51.4279 21.9119 51.4886 21.8419 51.6099 21.8419C51.6659 21.8419 51.7126 21.8513 51.7499 21.8699L52.4359 22.1779C52.5572 22.2339 52.6786 22.2619 52.7999 22.2619H54.3539C54.5032 22.2619 54.6246 22.2013 54.7179 22.0799L54.8019 21.9679C54.8299 21.9399 54.8766 21.8839 54.9419 21.7999C55.0166 21.7159 55.0819 21.6739 55.1379 21.6739ZM52.5339 25.2999C52.5339 25.3933 52.5572 25.4679 52.6039 25.5239C52.6599 25.5706 52.7346 25.5939 52.8279 25.5939H54.4239C54.5172 25.5939 54.5872 25.5706 54.6339 25.5239C54.6899 25.4679 54.7179 25.3933 54.7179 25.2999V22.9479C54.7179 22.8546 54.6899 22.7846 54.6339 22.7379C54.5872 22.6819 54.5172 22.6539 54.4239 22.6539H52.8279C52.7346 22.6539 52.6599 22.6819 52.6039 22.7379C52.5572 22.7846 52.5339 22.8546 52.5339 22.9479V25.2999Z" fill="white"/>
<path d="M46.8639 16.312C47.0132 16.312 47.1299 16.2467 47.2139 16.116L47.4239 15.808C47.4612 15.752 47.5125 15.6773 47.5779 15.584C47.6432 15.4907 47.6945 15.4207 47.7319 15.374C47.7785 15.3273 47.8205 15.304 47.8579 15.304C47.9232 15.304 48.1099 15.4347 48.4179 15.696C48.7259 15.948 48.9452 16.158 49.0759 16.326C49.1225 16.3913 49.1459 16.4473 49.1459 16.494C49.1459 16.55 49.1179 16.6013 49.0619 16.648C48.9965 16.6947 48.9125 16.718 48.8099 16.718H39.5559C39.4625 16.718 39.3879 16.746 39.3319 16.802C39.2852 16.8487 39.2619 16.9187 39.2619 17.012V19.728C39.2619 20.6893 39.2152 21.5667 39.1219 22.36C39.0379 23.1533 38.8372 23.956 38.5199 24.768C38.2025 25.5707 37.7359 26.2847 37.1199 26.91C36.9985 27.05 36.9052 27.092 36.8399 27.036C36.8119 27.008 36.7979 26.98 36.7979 26.952C36.7979 26.9053 36.8259 26.8307 36.8819 26.728C37.4232 25.7947 37.7779 24.768 37.9459 23.648C38.1232 22.528 38.2119 21.226 38.2119 19.742V17.754C38.2119 17.222 38.1885 16.676 38.1419 16.116V16.06C38.1419 15.92 38.2025 15.85 38.3239 15.85C38.3799 15.85 38.4265 15.8593 38.4639 15.878L39.2899 16.242C39.3925 16.2887 39.5092 16.312 39.6399 16.312H42.5239C42.7199 16.312 42.8179 16.214 42.8179 16.018C42.7992 15.4487 42.7712 14.9493 42.7339 14.52V14.492C42.7339 14.324 42.8085 14.24 42.9579 14.24C43.0045 14.24 43.0419 14.2447 43.0699 14.254C43.8445 14.4687 44.2319 14.6367 44.2319 14.758C44.2319 14.7953 44.1899 14.8373 44.1059 14.884L44.0499 14.912C43.9192 14.996 43.8539 15.1173 43.8539 15.276V16.018C43.8539 16.1113 43.8772 16.186 43.9239 16.242C43.9799 16.2887 44.0545 16.312 44.1479 16.312H46.8639ZM46.4159 22.262C46.5652 22.262 46.6819 22.2013 46.7659 22.08L46.8779 21.912C46.8965 21.884 46.9292 21.8327 46.9759 21.758C47.0225 21.6833 47.0645 21.632 47.1019 21.604C47.1392 21.5667 47.1765 21.548 47.2139 21.548C47.2792 21.548 47.4192 21.6367 47.6339 21.814C47.8485 21.9913 48.0165 22.1547 48.1379 22.304C48.1752 22.3507 48.1939 22.402 48.1939 22.458C48.1939 22.5327 48.1519 22.5933 48.0679 22.64C48.0305 22.6587 48.0025 22.668 47.9839 22.668C47.8159 22.7333 47.7319 22.8453 47.7319 23.004V24.082C47.7599 25.174 47.7879 25.972 47.8159 26.476V26.546C47.8159 26.6767 47.7692 26.77 47.6759 26.826C47.4519 26.9753 47.1812 27.05 46.8639 27.05C46.8359 27.05 46.8125 27.0453 46.7939 27.036C46.6819 27.008 46.6259 26.9193 46.6259 26.77C46.6445 26.6953 46.6539 26.6393 46.6539 26.602L46.6819 26.434V26.42C46.6819 26.3267 46.6539 26.252 46.5979 26.196C46.5512 26.1493 46.4812 26.126 46.3879 26.126H41.5159C41.4225 26.126 41.3479 26.1493 41.2919 26.196C41.2452 26.252 41.2219 26.3267 41.2219 26.42V26.826C41.2219 26.882 41.1379 26.9473 40.9699 27.022C40.8112 27.0967 40.6152 27.134 40.3819 27.134C40.2979 27.134 40.2325 27.106 40.1859 27.05C40.1392 26.994 40.1159 26.9287 40.1159 26.854C40.1532 26.4527 40.1812 25.9487 40.1999 25.342V24.446C40.1999 23.6247 40.1625 22.8407 40.0879 22.094V22.038C40.0879 21.8887 40.1485 21.814 40.2699 21.814C40.3259 21.814 40.3725 21.8233 40.4099 21.842L41.2079 22.192C41.3105 22.2387 41.4272 22.262 41.5579 22.262H42.9579C43.0512 22.262 43.1212 22.2387 43.1679 22.192C43.2239 22.136 43.2519 22.0613 43.2519 21.968V19.938C43.2519 19.0047 43.2099 18.1693 43.1259 17.432V17.376C43.1259 17.2267 43.1959 17.152 43.3359 17.152C43.3825 17.152 43.4199 17.1567 43.4479 17.166C44.2879 17.3807 44.7079 17.5487 44.7079 17.67C44.7079 17.7167 44.6659 17.7633 44.5819 17.81L44.5259 17.852C44.3952 17.9453 44.3299 18.062 44.3299 18.202V19.112C44.3299 19.2053 44.3532 19.28 44.3999 19.336C44.4559 19.3827 44.5305 19.406 44.6239 19.406H46.7519C46.9012 19.406 47.0179 19.3453 47.1019 19.224L47.2979 18.93C47.3352 18.8833 47.3819 18.8133 47.4379 18.72C47.5032 18.6267 47.5545 18.5567 47.5919 18.51C47.6385 18.4633 47.6805 18.44 47.7179 18.44C47.7832 18.44 47.9605 18.5613 48.2499 18.804C48.5485 19.0467 48.7632 19.252 48.8939 19.42C48.9312 19.4667 48.9499 19.518 48.9499 19.574C48.9499 19.6393 48.9219 19.6953 48.8659 19.742C48.8192 19.7793 48.7352 19.798 48.6139 19.798H44.6239C44.5305 19.798 44.4559 19.826 44.3999 19.882C44.3532 19.9287 44.3299 19.9987 44.3299 20.092V21.968C44.3299 22.0613 44.3532 22.136 44.3999 22.192C44.4559 22.2387 44.5305 22.262 44.6239 22.262H46.4159ZM46.3879 25.72C46.4812 25.72 46.5512 25.6967 46.5979 25.65C46.6539 25.594 46.6819 25.5193 46.6819 25.426V22.962C46.6819 22.8687 46.6539 22.7987 46.5979 22.752C46.5512 22.696 46.4812 22.668 46.3879 22.668H41.5159C41.4225 22.668 41.3479 22.696 41.2919 22.752C41.2452 22.7987 41.2219 22.8687 41.2219 22.962V25.426C41.2219 25.5193 41.2452 25.594 41.2919 25.65C41.3479 25.6967 41.4225 25.72 41.5159 25.72H46.3879Z" fill="white"/>
</svg>
