<svg width="162" height="45" viewBox="0 0 162 45" fill="none" xmlns="http://www.w3.org/2000/svg">
<path d="M0 6C0 2.68629 2.68629 0 6 0H156C159.314 0 162 2.68629 162 6V39C162 42.3137 159.314 45 156 45H6C2.68629 45 0 42.3137 0 39V6Z" fill="#F9F9F9"/>
<path d="M117.359 14.6829C117.845 14.6829 118.308 14.7782 118.75 14.9689C119.192 15.1509 119.552 15.4326 119.829 15.8139C120.115 16.1952 120.258 16.6589 120.258 17.2049C120.258 17.7682 120.094 18.2666 119.764 18.6999C119.435 19.1246 119.006 19.4539 118.477 19.6879C117.949 19.9132 117.398 20.0259 116.826 20.0259C116.324 20.0259 115.886 19.9132 115.513 19.6879C115.141 19.4626 114.954 19.1679 114.954 18.8039C114.954 18.5092 115.071 18.2622 115.305 18.0629C115.548 17.8636 115.847 17.7639 116.202 17.7639C116.514 17.7639 116.813 17.8549 117.099 18.0369C117.385 18.2189 117.615 18.4746 117.788 18.8039C117.858 18.9166 117.931 18.9729 118.009 18.9729C118.061 18.9729 118.109 18.9556 118.152 18.9209C118.49 18.7042 118.763 18.4312 118.971 18.1019C119.179 17.7726 119.283 17.4172 119.283 17.0359C119.283 16.3772 119.075 15.8876 118.659 15.5669C118.243 15.2462 117.754 15.0859 117.19 15.0859C116.644 15.0859 116.133 15.2506 115.656 15.5799C115.188 15.9006 114.729 16.4552 114.278 17.2439C114.244 17.3046 114.174 17.4302 114.07 17.6209C113.966 17.8116 113.862 17.9459 113.758 18.0239C113.663 18.1019 113.555 18.1409 113.433 18.1409C113.269 18.1409 113.139 18.0889 113.043 17.9849C112.948 17.8809 112.9 17.7552 112.9 17.6079C112.9 17.3392 112.996 17.0619 113.186 16.7759C113.377 16.4899 113.702 16.0826 114.161 15.5539C115.565 13.9419 116.571 12.7416 117.177 11.9529C117.221 11.8922 117.273 11.8229 117.333 11.7449C117.403 11.6669 117.45 11.5976 117.476 11.5369C117.511 11.4762 117.528 11.4199 117.528 11.3679C117.528 11.2812 117.494 11.1989 117.424 11.1209C117.355 11.0342 117.286 10.9909 117.216 10.9909C117.112 10.9909 117 11.0689 116.878 11.2249C116.61 11.5802 116.324 11.8749 116.02 12.1089C115.717 12.3342 115.418 12.4469 115.123 12.4469C114.881 12.4469 114.677 12.3559 114.512 12.1739C114.356 11.9832 114.252 11.6972 114.2 11.3159L114.187 11.0819C114.187 11.0039 114.205 10.9649 114.239 10.9649C114.265 10.9649 114.33 11.0299 114.434 11.1599C114.556 11.3159 114.694 11.3939 114.85 11.3939C115.006 11.3939 115.24 11.3289 115.552 11.1989C115.873 11.0602 116.224 10.8782 116.605 10.6529C116.831 10.5056 117.034 10.4319 117.216 10.4319C117.381 10.4319 117.585 10.4796 117.827 10.5749C118.079 10.6702 118.295 10.8002 118.477 10.9649C118.659 11.1209 118.75 11.2942 118.75 11.4849C118.75 11.7362 118.594 11.9789 118.282 12.2129C117.251 13.0102 116.376 13.8466 115.656 14.7219C115.604 14.7739 115.578 14.8259 115.578 14.8779C115.578 14.9212 115.591 14.9559 115.617 14.9819C115.652 15.0079 115.695 15.0209 115.747 15.0209C115.791 15.0209 115.838 15.0079 115.89 14.9819C116.402 14.7826 116.891 14.6829 117.359 14.6829ZM116.761 19.3629C116.839 19.3196 116.896 19.2719 116.93 19.2199C116.974 19.1592 116.982 19.0986 116.956 19.0379C116.74 18.5959 116.432 18.3749 116.033 18.3749C115.877 18.3749 115.76 18.4139 115.682 18.4919C115.604 18.5612 115.565 18.6479 115.565 18.7519C115.565 18.9166 115.691 19.0596 115.942 19.1809C116.202 19.3022 116.475 19.3629 116.761 19.3629Z" fill="#421D12"/>
<path d="M108.064 11.8361C108.142 11.8968 108.19 11.9704 108.207 12.0571C108.216 12.0744 108.22 12.1091 108.22 12.1611C108.22 12.2651 108.194 12.3518 108.142 12.4211C108.099 12.4904 108.025 12.5641 107.921 12.6421C107.696 12.7981 107.289 12.9974 106.699 13.2401C106.552 13.3094 106.483 13.4178 106.491 13.5651L106.517 13.9811C106.526 14.1718 106.539 14.4664 106.556 14.8651C106.574 15.2638 106.582 15.5844 106.582 15.8271C106.582 16.8238 106.34 17.7251 105.854 18.5311C105.542 19.0511 105.144 19.4801 104.658 19.8181C104.182 20.1474 103.753 20.3858 103.371 20.5331L103.254 20.5591C103.194 20.5591 103.163 20.5331 103.163 20.4811C103.163 20.4464 103.211 20.4031 103.306 20.3511C103.948 20.0304 104.455 19.5234 104.827 18.8301C105.2 18.1281 105.451 17.3264 105.581 16.4251C105.633 16.0264 105.659 15.4848 105.659 14.8001L105.646 13.9421C105.629 13.7428 105.525 13.6604 105.334 13.6951C105.135 13.7384 104.975 13.7601 104.853 13.7601C104.541 13.7601 104.216 13.6821 103.878 13.5261C103.549 13.3614 103.293 13.1794 103.111 12.9801C103.059 12.9108 103.033 12.8588 103.033 12.8241C103.033 12.7894 103.051 12.7721 103.085 12.7721C103.111 12.7721 103.15 12.7851 103.202 12.8111C103.341 12.8631 103.514 12.9108 103.722 12.9541C103.93 12.9888 104.104 13.0061 104.242 13.0061C104.476 13.0061 104.849 12.9324 105.36 12.7851C105.516 12.7418 105.59 12.6378 105.581 12.4731L105.555 12.0441C105.529 11.4461 105.503 11.0691 105.477 10.9131C105.451 10.7051 105.378 10.5318 105.256 10.3931C105.135 10.2458 105.014 10.1461 104.892 10.0941C104.771 10.0334 104.71 9.98144 104.71 9.93811C104.71 9.89477 104.754 9.86444 104.84 9.84711C104.927 9.82111 105.027 9.80811 105.139 9.80811C105.495 9.80811 105.837 9.87744 106.166 10.0161C106.504 10.1548 106.673 10.3454 106.673 10.5881C106.673 10.6488 106.647 10.7744 106.595 10.9651L106.556 11.0951V11.1731C106.556 11.2944 106.613 11.3854 106.725 11.4461C106.959 11.5588 107.154 11.6324 107.31 11.6671C107.397 11.6931 107.492 11.7061 107.596 11.7061C107.614 11.7061 107.679 11.7148 107.791 11.7321C107.904 11.7494 107.995 11.7841 108.064 11.8361ZM102.149 14.0071C102.193 14.0071 102.214 14.0331 102.214 14.0851C102.214 14.1198 102.171 14.2324 102.084 14.4231C101.781 15.1164 101.512 15.8444 101.278 16.6071C101.053 17.3611 100.94 17.8811 100.94 18.1671C100.94 18.3318 100.958 18.4834 100.992 18.6221C101.036 18.7608 101.092 18.9168 101.161 19.0901C101.265 19.3241 101.317 19.5061 101.317 19.6361C101.317 19.7834 101.265 19.9004 101.161 19.9871C101.066 20.0651 100.966 20.1041 100.862 20.1041C100.715 20.1041 100.546 19.9914 100.355 19.7661C99.974 19.3241 99.7054 18.7434 99.5494 18.0241C99.3934 17.2961 99.3154 16.6244 99.3154 16.0091C99.3154 15.5931 99.3414 15.2074 99.3934 14.8521C99.4454 14.4968 99.5234 14.1024 99.6274 13.6691C99.7054 13.3051 99.766 12.9931 99.8094 12.7331C99.8527 12.4644 99.8744 12.1914 99.8744 11.9141C99.8744 11.5848 99.831 11.2814 99.7444 11.0041C99.6577 10.7268 99.5364 10.5058 99.3804 10.3411C99.311 10.2718 99.2764 10.2198 99.2764 10.1851C99.2764 10.1331 99.3067 10.1071 99.3674 10.1071C99.3934 10.1071 99.467 10.1331 99.5884 10.1851C99.9697 10.3671 100.286 10.6314 100.537 10.9781C100.789 11.3248 100.914 11.6888 100.914 12.0701C100.914 12.3301 100.884 12.5684 100.823 12.7851C100.763 13.0018 100.663 13.2921 100.524 13.6561C100.36 14.0634 100.234 14.4318 100.147 14.7611C100.061 15.0818 100.017 15.4544 100.017 15.8791C100.017 16.1478 100.043 16.4294 100.095 16.7241C100.147 17.0101 100.217 17.1531 100.303 17.1531C100.347 17.1531 100.39 17.1141 100.433 17.0361C100.485 16.9581 100.516 16.9104 100.524 16.8931L100.81 16.3471C101.408 15.2378 101.759 14.5704 101.863 14.3451C101.985 14.1198 102.08 14.0071 102.149 14.0071ZM107.05 12.1481C107.094 12.1221 107.115 12.0874 107.115 12.0441C107.115 11.9748 107.068 11.9184 106.972 11.8751L106.803 11.7711C106.743 11.7364 106.686 11.7191 106.634 11.7191C106.53 11.7191 106.47 11.7928 106.452 11.9401C106.444 12.0181 106.439 12.1394 106.439 12.3041C106.439 12.3388 106.465 12.3561 106.517 12.3561C106.604 12.3561 106.708 12.3258 106.829 12.2651L107.05 12.1481Z" fill="#421D12"/>
<path d="M90.3449 12.8631C91.3849 12.8631 91.9049 13.5521 91.9049 14.9301C91.9049 15.2767 91.8529 15.7404 91.7489 16.3211C91.6536 16.9017 91.5019 17.4737 91.2939 18.0371C91.0859 18.6004 90.8346 19.0337 90.5399 19.3371C90.3926 19.4931 90.2322 19.6231 90.0589 19.7271C89.8942 19.8224 89.7512 19.8701 89.6299 19.8701C89.3786 19.8701 89.1792 19.6621 89.0319 19.2461C88.9192 18.9167 88.7069 18.5484 88.3949 18.1411C88.3082 18.0197 88.2649 17.9417 88.2649 17.9071C88.2649 17.8897 88.2779 17.8811 88.3039 17.8811C88.3386 17.8811 88.4209 17.9244 88.5509 18.0111C88.6809 18.0891 88.7806 18.1454 88.8499 18.1801C88.9106 18.2147 88.9929 18.2667 89.0969 18.3361C89.2096 18.4054 89.3049 18.4574 89.3829 18.4921C89.4609 18.5267 89.5346 18.5441 89.6039 18.5441C89.8899 18.5441 90.1456 18.3057 90.3709 17.8291C90.6049 17.3524 90.7826 16.8021 90.9039 16.1781C91.0339 15.5454 91.0989 15.0341 91.0989 14.6441C91.0989 14.2281 91.0382 13.9161 90.9169 13.7081C90.7956 13.4914 90.5962 13.3831 90.3189 13.3831C89.9896 13.3831 89.5476 13.5087 88.9929 13.7601C88.8716 13.8207 88.7936 13.9161 88.7589 14.0461C88.3516 15.8227 87.7232 17.3957 86.8739 18.7651C86.7526 18.9731 86.6182 19.1377 86.4709 19.2591C86.3236 19.3804 86.1849 19.4411 86.0549 19.4411C85.9336 19.4411 85.8339 19.4021 85.7559 19.3241C85.6779 19.2374 85.6389 19.1247 85.6389 18.9861C85.6389 18.7087 85.7992 18.3664 86.1199 17.9591C86.9086 16.9104 87.4806 15.8227 87.8359 14.6961C87.8532 14.6441 87.8619 14.6051 87.8619 14.5791C87.8619 14.4664 87.8056 14.4101 87.6929 14.4101C87.6582 14.4101 87.6062 14.4231 87.5369 14.4491C86.9822 14.7177 86.6009 14.8521 86.3929 14.8521C86.2109 14.8521 86.0246 14.7914 85.8339 14.6701C85.6432 14.5401 85.4829 14.3797 85.3529 14.1891C85.2316 13.9984 85.1709 13.8077 85.1709 13.6171C85.1709 13.5304 85.1926 13.4871 85.2359 13.4871C85.2706 13.4871 85.3226 13.5087 85.3919 13.5521C85.4612 13.5867 85.5132 13.6127 85.5479 13.6301C85.7906 13.7427 86.0592 13.7991 86.3539 13.7991C86.8912 13.7731 87.4242 13.6691 87.9529 13.4871C88.0916 13.4351 88.1739 13.3397 88.1999 13.2011C88.2866 12.7331 88.3299 12.3431 88.3299 12.0311C88.3299 11.5804 88.2389 11.2467 88.0569 11.0301C87.9789 10.9261 87.8792 10.8221 87.7579 10.7181C87.6452 10.6141 87.5889 10.5447 87.5889 10.5101C87.5889 10.4581 87.6322 10.4191 87.7189 10.3931C87.8056 10.3584 87.9182 10.3411 88.0569 10.3411C88.2216 10.3411 88.3949 10.3627 88.5769 10.4061C88.7589 10.4494 88.8976 10.5101 88.9929 10.5881C89.2182 10.7267 89.3309 10.9174 89.3309 11.1601C89.3309 11.2641 89.2962 11.4634 89.2269 11.7581C89.1749 11.9141 89.1359 12.0787 89.1099 12.2521L89.0319 12.7721L89.0189 12.8631C89.0189 12.9324 89.0406 12.9844 89.0839 13.0191C89.1272 13.0451 89.1879 13.0494 89.2659 13.0321C89.6646 12.9194 90.0242 12.8631 90.3449 12.8631ZM93.0489 12.8241C93.7596 12.8414 94.3402 12.9714 94.7909 13.2141C95.2502 13.4567 95.5839 13.7427 95.7919 14.0721C95.9999 14.3927 96.1039 14.6961 96.1039 14.9821C96.1039 15.1987 96.0562 15.3937 95.9609 15.5671C95.8742 15.7317 95.7616 15.8617 95.6229 15.9571C95.4842 16.0524 95.3499 16.1001 95.2199 16.1001C95.1419 16.1001 95.0682 16.0827 94.9989 16.0481C94.9296 16.0047 94.8429 15.9484 94.7389 15.8791C94.5136 15.7057 94.0629 15.5801 93.3869 15.5021C93.2656 15.4847 93.2049 15.4587 93.2049 15.4241C93.2049 15.3894 93.2699 15.3634 93.3999 15.3461L93.9589 15.2811L94.2709 15.2421C94.5309 15.1901 94.7042 15.1381 94.7909 15.0861C94.8862 15.0341 94.9339 14.9387 94.9339 14.8001C94.9339 14.3927 94.7389 14.0201 94.3489 13.6821C93.9589 13.3354 93.5126 13.0927 93.0099 12.9541C92.9319 12.9281 92.8929 12.9021 92.8929 12.8761C92.8929 12.8414 92.9449 12.8241 93.0489 12.8241Z" fill="#421D12"/>
<path d="M80.387 12.525C80.699 12.525 80.972 12.6246 81.206 12.824C81.44 13.0233 81.557 13.2833 81.557 13.604C81.557 14.02 81.375 14.371 81.011 14.657C80.6557 14.9343 80.1834 15.1943 79.594 15.437L78.996 15.658C78.0167 16.0306 77.5617 16.204 77.631 16.178C77.4837 16.2473 77.41 16.3513 77.41 16.49C77.3927 16.672 77.3927 16.8583 77.41 17.049C77.41 17.127 77.41 17.283 77.41 17.517C77.4187 17.751 77.4187 17.9026 77.41 17.972C77.4014 18.128 77.3407 18.2666 77.228 18.388C77.124 18.5093 77.0027 18.57 76.864 18.57C76.734 18.57 76.617 18.5136 76.513 18.401C76.4177 18.2883 76.37 18.1583 76.37 18.011C76.37 17.9763 76.3874 17.777 76.422 17.413C76.422 17.361 76.4307 17.2656 76.448 17.127V17.075C76.448 16.9363 76.3917 16.867 76.279 16.867C76.2184 16.867 76.1664 16.8843 76.123 16.919C75.3257 17.4043 74.927 17.9243 74.927 18.479C74.927 19.1116 75.5467 19.428 76.786 19.428C77.0374 19.428 77.2627 19.4106 77.462 19.376C77.67 19.3413 77.8954 19.2936 78.138 19.233C78.1814 19.2243 78.2897 19.2026 78.463 19.168C78.6364 19.1246 78.801 19.103 78.957 19.103C79.1477 19.103 79.295 19.142 79.399 19.22C79.503 19.298 79.555 19.4063 79.555 19.545C79.555 19.8396 79.3037 20.0476 78.801 20.169C78.307 20.2903 77.774 20.351 77.202 20.351C76.1967 20.351 75.4817 20.195 75.057 19.883C74.641 19.5623 74.433 19.1506 74.433 18.648C74.433 18.1973 74.5977 17.79 74.927 17.426C75.2564 17.062 75.7244 16.711 76.331 16.373C76.461 16.295 76.526 16.191 76.526 16.061V15.866C76.526 15.4066 76.4524 15.06 76.305 14.826C76.1577 14.592 75.9844 14.475 75.785 14.475C75.5077 14.475 75.2304 14.631 74.953 14.943C74.6844 15.2463 74.394 15.632 74.082 16.1L73.939 16.321C73.913 16.3556 73.848 16.451 73.744 16.607C73.64 16.763 73.5404 16.8843 73.445 16.971C73.3497 17.0576 73.263 17.101 73.185 17.101C73.0204 17.101 72.8904 17.036 72.795 16.906C72.7084 16.776 72.665 16.6156 72.665 16.425C72.665 16.1736 72.7734 15.944 72.99 15.736L73.185 15.554C73.4277 15.3286 73.6357 15.125 73.809 14.943C73.991 14.7523 74.16 14.54 74.316 14.306C74.68 13.7426 74.9834 13.123 75.226 12.447C75.2434 12.395 75.252 12.356 75.252 12.33C75.252 12.2693 75.226 12.226 75.174 12.2C75.1307 12.1653 75.0657 12.1523 74.979 12.161C74.7017 12.1956 74.498 12.213 74.368 12.213C74.0734 12.213 73.8177 12.1566 73.601 12.044C73.393 11.9226 73.1417 11.732 72.847 11.472C72.8124 11.4373 72.795 11.407 72.795 11.381C72.795 11.355 72.8167 11.342 72.86 11.342C72.8947 11.342 72.9554 11.355 73.042 11.381C73.354 11.4936 73.6704 11.55 73.991 11.55C74.4157 11.55 74.8707 11.4806 75.356 11.342C75.4947 11.3073 75.577 11.212 75.603 11.056C75.629 10.9 75.642 10.7613 75.642 10.64C75.642 10.276 75.5034 9.99864 75.226 9.80797C75.1567 9.76464 75.122 9.7213 75.122 9.67797C75.1307 9.59997 75.1567 9.5393 75.2 9.49597C75.2434 9.44397 75.304 9.41797 75.382 9.41797C75.5034 9.41797 75.6724 9.44397 75.889 9.49597C76.1144 9.54797 76.2617 9.61297 76.331 9.69097C76.3917 9.7603 76.422 9.86864 76.422 10.016V10.042C76.422 10.1026 76.435 10.1676 76.461 10.237C76.4957 10.2976 76.5477 10.341 76.617 10.367C76.7297 10.393 76.8424 10.406 76.955 10.406C77.0677 10.406 77.163 10.393 77.241 10.367C77.345 10.3496 77.436 10.341 77.514 10.341C77.722 10.341 77.826 10.4233 77.826 10.588C77.826 10.7353 77.7524 10.887 77.605 11.043C77.4664 11.199 77.2844 11.342 77.059 11.472C76.825 11.602 76.5217 11.732 76.149 11.862C76.019 11.914 75.9324 12.0006 75.889 12.122C75.6897 12.7373 75.4644 13.3136 75.213 13.851C75.187 13.9116 75.174 13.968 75.174 14.02C75.174 14.0893 75.2087 14.124 75.278 14.124L75.382 14.098C75.538 14.0633 75.655 14.046 75.733 14.046C76.4264 14.046 76.89 14.3623 77.124 14.995C77.1674 15.0903 77.202 15.138 77.228 15.138C77.2714 15.138 77.3104 15.0946 77.345 15.008C77.5617 14.5226 77.8824 14.046 78.307 13.578C78.567 13.3006 78.8834 13.058 79.256 12.85C79.6374 12.6333 80.0144 12.525 80.387 12.525ZM76.409 10.562C76.3744 10.562 76.3354 10.6313 76.292 10.77C76.292 10.9 76.318 10.952 76.37 10.926L76.513 10.835C76.5737 10.8003 76.604 10.7656 76.604 10.731C76.604 10.6963 76.5694 10.6573 76.5 10.614L76.435 10.562H76.409ZM79.295 14.826C79.6937 14.592 80.01 14.3406 80.244 14.072C80.4867 13.7946 80.608 13.5563 80.608 13.357C80.608 13.0883 80.439 12.954 80.101 12.954C79.8757 12.954 79.62 13.032 79.334 13.188C79.048 13.3353 78.7794 13.5433 78.528 13.812C78.3547 14.0026 78.1857 14.2323 78.021 14.501C77.865 14.7696 77.735 15.0426 77.631 15.32C77.5964 15.398 77.579 15.4803 77.579 15.567C77.579 15.6103 77.5877 15.645 77.605 15.671C77.6224 15.697 77.6397 15.7013 77.657 15.684L77.943 15.541C78.489 15.2723 78.9397 15.034 79.295 14.826Z" fill="#421D12"/>
<path d="M67.3484 15.9961C67.4871 15.9961 67.5954 15.9397 67.6734 15.8271L67.7904 15.6711C67.8164 15.6364 67.8511 15.5887 67.8944 15.5281C67.9464 15.4674 67.9897 15.4241 68.0244 15.3981C68.0591 15.3634 68.0937 15.3461 68.1284 15.3461C68.1891 15.3461 68.3321 15.4371 68.5574 15.6191C68.7914 15.8011 68.9691 15.9657 69.0904 16.1131C69.1251 16.1564 69.1424 16.2041 69.1424 16.2561C69.1424 16.3167 69.0991 16.3774 69.0124 16.4381L68.8954 16.5031C68.8174 16.5377 68.7567 16.5767 68.7134 16.6201C68.6787 16.6634 68.6614 16.7241 68.6614 16.8021V17.9071C68.6874 18.9817 68.7134 19.7791 68.7394 20.2991V20.3511C68.7394 20.4724 68.6917 20.5634 68.5964 20.6241C68.4924 20.6934 68.3667 20.7541 68.2194 20.8061C68.0807 20.8581 67.9551 20.8841 67.8424 20.8841C67.8164 20.8841 67.7947 20.8797 67.7774 20.8711C67.6734 20.8451 67.6214 20.7671 67.6214 20.6371C67.6214 20.6024 67.6301 20.5504 67.6474 20.4811L67.6734 20.3381C67.6734 20.2514 67.6474 20.1821 67.5954 20.1301C67.5521 20.0867 67.4871 20.0651 67.4004 20.0651H64.7874C64.7007 20.0651 64.6314 20.0867 64.5794 20.1301C64.5361 20.1821 64.5144 20.2514 64.5144 20.3381V20.7021C64.5144 20.7627 64.4277 20.8321 64.2544 20.9101C64.0811 20.9967 63.8991 21.0401 63.7084 21.0401C63.6391 21.0401 63.5827 21.0141 63.5394 20.9621C63.4961 20.9101 63.4744 20.8494 63.4744 20.7801C63.5091 20.3727 63.5394 19.8181 63.5654 19.1161V18.1411C63.5654 17.3004 63.5264 16.5377 63.4484 15.8531V15.8011C63.4484 15.6711 63.5047 15.6061 63.6174 15.6061C63.6694 15.6061 63.7127 15.6147 63.7474 15.6321L64.4104 15.9311C64.5057 15.9744 64.6184 15.9961 64.7484 15.9961H65.3074C65.3941 15.9961 65.4591 15.9744 65.5024 15.9311C65.5544 15.8791 65.5804 15.8097 65.5804 15.7231V13.8251C65.5804 13.7384 65.5544 13.6734 65.5024 13.6301C65.4591 13.5781 65.3941 13.5521 65.3074 13.5521H64.6964C64.2717 13.5607 63.8211 13.6084 63.3444 13.6951H63.2794C63.1494 13.6951 63.0584 13.6344 63.0064 13.5131L62.9544 13.4091C62.9284 13.3571 62.9154 13.3051 62.9154 13.2531C62.9154 13.2011 62.9371 13.1621 62.9804 13.1361C63.0237 13.1014 63.0844 13.0884 63.1624 13.0971C63.4571 13.1231 63.9034 13.1447 64.5014 13.1621H65.3074C65.3941 13.1621 65.4591 13.1404 65.5024 13.0971C65.5544 13.0451 65.5804 12.9757 65.5804 12.8891V11.0951C65.5804 10.9044 65.4807 10.8221 65.2814 10.8481C64.6487 10.9607 64.0377 11.0344 63.4484 11.0691H63.3704C63.2491 11.0691 63.1841 11.0387 63.1754 10.9781V10.9651C63.1754 10.8957 63.2577 10.8437 63.4224 10.8091C64.1677 10.6357 64.9261 10.4061 65.6974 10.1201C66.4774 9.82542 67.1187 9.53075 67.6214 9.23608C67.6907 9.20142 67.7427 9.18408 67.7774 9.18408C67.8467 9.18408 67.9247 9.21875 68.0114 9.28808C68.5227 9.73875 68.7784 10.0074 68.7784 10.0941C68.7784 10.1547 68.7177 10.1764 68.5964 10.1591L68.4404 10.1461H68.3624C68.2931 10.1461 68.2064 10.1591 68.1024 10.1851C67.8077 10.2891 67.3701 10.4104 66.7894 10.5491C66.6334 10.5837 66.5554 10.6834 66.5554 10.8481V12.8891C66.5554 12.9757 66.5771 13.0451 66.6204 13.0971C66.6724 13.1404 66.7417 13.1621 66.8284 13.1621H67.6214C67.7601 13.1621 67.8684 13.1014 67.9464 12.9801L68.1024 12.7331C68.1457 12.6811 68.1934 12.6161 68.2454 12.5381C68.2974 12.4601 68.3407 12.4037 68.3754 12.3691C68.4101 12.3257 68.4447 12.3041 68.4794 12.3041C68.5487 12.3041 68.7047 12.4167 68.9474 12.6421C69.1987 12.8587 69.3764 13.0451 69.4804 13.2011C69.5237 13.2617 69.5454 13.3094 69.5454 13.3441C69.5454 13.3961 69.5237 13.4437 69.4804 13.4871C69.4197 13.5304 69.3417 13.5521 69.2464 13.5521H66.8284C66.7417 13.5521 66.6724 13.5781 66.6204 13.6301C66.5771 13.6734 66.5554 13.7384 66.5554 13.8251V15.7231C66.5554 15.8097 66.5771 15.8791 66.6204 15.9311C66.6724 15.9744 66.7417 15.9961 66.8284 15.9961H67.3484ZM60.7574 9.97708C60.8961 9.97708 61.0044 9.92075 61.0824 9.80808L61.2254 9.60008C61.2601 9.55675 61.2991 9.50041 61.3424 9.43108C61.3944 9.35308 61.4377 9.29675 61.4724 9.26208C61.5071 9.22742 61.5417 9.21008 61.5764 9.21008C61.6457 9.21008 61.7887 9.30542 62.0054 9.49608C62.2307 9.68675 62.3954 9.85142 62.4994 9.99008C62.5427 10.0507 62.5644 10.1027 62.5644 10.1461C62.5644 10.1981 62.5384 10.2457 62.4864 10.2891C62.4257 10.3237 62.3477 10.3411 62.2524 10.3411H60.8094C60.2807 10.3497 59.7087 10.3974 59.0934 10.4841H59.0154C58.8941 10.4841 58.8074 10.4277 58.7554 10.3151L58.7034 10.2241C58.6774 10.1721 58.6644 10.1201 58.6644 10.0681C58.6644 10.0161 58.6861 9.97708 58.7294 9.95108C58.7727 9.91642 58.8334 9.90342 58.9114 9.91208C59.1887 9.93808 59.6134 9.95975 60.1854 9.97708H60.7574ZM59.7174 11.9791C59.2841 11.9964 58.8767 12.0397 58.4954 12.1091C58.4694 12.1177 58.4391 12.1221 58.4044 12.1221C58.2917 12.1221 58.2094 12.0657 58.1574 11.9531L58.1054 11.8491C58.0794 11.7971 58.0664 11.7451 58.0664 11.6931C58.0664 11.6411 58.0881 11.6021 58.1314 11.5761C58.1747 11.5414 58.2354 11.5284 58.3134 11.5371C58.6081 11.5631 59.0544 11.5847 59.6524 11.6021H61.3944C61.5331 11.6021 61.6414 11.5457 61.7194 11.4331L61.8494 11.2381C61.8841 11.1947 61.9187 11.1427 61.9534 11.0821C61.9967 11.0214 62.0401 10.9694 62.0834 10.9261C62.1267 10.8827 62.1657 10.8611 62.2004 10.8611C62.2697 10.8611 62.4171 10.9521 62.6424 11.1341C62.8677 11.3161 63.0324 11.4764 63.1364 11.6151C63.1797 11.6757 63.2014 11.7277 63.2014 11.7711C63.2014 11.8144 63.1797 11.8577 63.1364 11.9011C63.0844 11.9531 63.0064 11.9791 62.9024 11.9791H59.7174ZM60.7834 13.2661C60.9221 13.2661 61.0304 13.2097 61.1084 13.0971L61.2254 12.9281C61.2514 12.8934 61.2861 12.8457 61.3294 12.7851C61.3814 12.7157 61.4247 12.6637 61.4594 12.6291C61.4941 12.5944 61.5287 12.5771 61.5634 12.5771C61.6327 12.5771 61.7714 12.6637 61.9794 12.8371C62.1874 13.0104 62.3391 13.1664 62.4344 13.3051C62.4691 13.3397 62.4864 13.3874 62.4864 13.4481C62.4864 13.5001 62.4647 13.5477 62.4214 13.5911C62.3521 13.6344 62.2697 13.6561 62.1744 13.6561H60.7574C60.2287 13.6647 59.6567 13.7124 59.0414 13.7991H58.9634C58.8421 13.7991 58.7554 13.7427 58.7034 13.6301L58.6514 13.5131C58.6254 13.4611 58.6124 13.4091 58.6124 13.3571C58.6124 13.2357 58.6947 13.1837 58.8594 13.2011C59.1541 13.2271 59.5917 13.2487 60.1724 13.2661H60.7834ZM60.7444 14.9301C60.8831 14.9301 60.9914 14.8694 61.0694 14.7481L61.1864 14.5791C61.2124 14.5444 61.2471 14.4924 61.2904 14.4231C61.3424 14.3537 61.3857 14.3017 61.4204 14.2671C61.4551 14.2324 61.4897 14.2151 61.5244 14.2151C61.5937 14.2151 61.7324 14.3061 61.9404 14.4881C62.1571 14.6614 62.3131 14.8174 62.4084 14.9561C62.4517 15.0167 62.4734 15.0687 62.4734 15.1121C62.4734 15.1641 62.4474 15.2117 62.3954 15.2551C62.3347 15.2984 62.2611 15.3201 62.1744 15.3201H60.7574C60.2287 15.3287 59.6567 15.3764 59.0414 15.4631H58.9634C58.8421 15.4631 58.7554 15.4067 58.7034 15.2941L58.6514 15.1771C58.6254 15.1251 58.6124 15.0731 58.6124 15.0211C58.6124 14.9691 58.6341 14.9301 58.6774 14.9041C58.7207 14.8694 58.7814 14.8564 58.8594 14.8651C59.1541 14.8911 59.5831 14.9127 60.1464 14.9301H60.7444ZM59.8214 20.0391C59.7347 20.0391 59.6654 20.0477 59.6134 20.0651C59.5701 20.0911 59.5484 20.1214 59.5484 20.1561C59.5484 20.2514 59.5527 20.3207 59.5614 20.3641V20.4551V20.5591C59.5614 20.6717 59.5311 20.7541 59.4704 20.8061C59.3924 20.8667 59.2884 20.9187 59.1584 20.9621C59.0284 21.0141 58.8941 21.0401 58.7554 21.0401C58.6947 21.0401 58.6427 21.0141 58.5994 20.9621C58.5647 20.9101 58.5474 20.8494 58.5474 20.7801C58.5821 20.4161 58.6081 19.9567 58.6254 19.4021V18.5701C58.6254 17.8334 58.5907 17.1184 58.5214 16.4251V16.3731C58.5214 16.2431 58.5777 16.1781 58.6904 16.1781C58.7424 16.1781 58.7857 16.1867 58.8204 16.2041L59.4444 16.4901C59.5571 16.5421 59.6697 16.5681 59.7824 16.5681H61.0044C61.1431 16.5681 61.2557 16.5117 61.3424 16.3991L61.4334 16.2821C61.4594 16.2474 61.5071 16.1911 61.5764 16.1131C61.6457 16.0351 61.7064 15.9961 61.7584 15.9961C61.8191 15.9961 61.9577 16.0741 62.1744 16.2301C62.3911 16.3861 62.5601 16.5291 62.6814 16.6591C62.7161 16.7024 62.7334 16.7501 62.7334 16.8021C62.7334 16.8627 62.6944 16.9191 62.6164 16.9711L62.4994 17.0231C62.3521 17.0924 62.2784 17.1964 62.2784 17.3351V18.2321C62.3044 19.1074 62.3261 19.7704 62.3434 20.2211V20.2861C62.3434 20.4074 62.3001 20.4941 62.2134 20.5461C62.1181 20.6154 62.0011 20.6717 61.8624 20.7151C61.7237 20.7671 61.5981 20.7931 61.4854 20.7931C61.4161 20.7931 61.3641 20.7627 61.3294 20.7021C61.3034 20.6501 61.2904 20.6067 61.2904 20.5721C61.2904 20.5374 61.2991 20.4854 61.3164 20.4161C61.3164 20.4247 61.3251 20.3857 61.3424 20.2991C61.3424 20.1257 61.2514 20.0391 61.0694 20.0391H59.8214ZM67.4004 19.6881C67.4871 19.6881 67.5521 19.6664 67.5954 19.6231C67.6474 19.5711 67.6734 19.5017 67.6734 19.4151V16.6591C67.6734 16.5724 67.6474 16.5074 67.5954 16.4641C67.5521 16.4121 67.4871 16.3861 67.4004 16.3861H64.7874C64.7007 16.3861 64.6314 16.4121 64.5794 16.4641C64.5361 16.5074 64.5144 16.5724 64.5144 16.6591V19.4151C64.5144 19.5017 64.5361 19.5711 64.5794 19.6231C64.6314 19.6664 64.7007 19.6881 64.7874 19.6881H67.4004ZM59.8214 16.9321C59.7347 16.9321 59.6654 16.9581 59.6134 17.0101C59.5701 17.0534 59.5484 17.1184 59.5484 17.2051V19.3891C59.5484 19.4757 59.5701 19.5451 59.6134 19.5971C59.6654 19.6404 59.7347 19.6621 59.8214 19.6621H61.0694C61.1561 19.6621 61.2211 19.6404 61.2644 19.5971C61.3164 19.5451 61.3424 19.4757 61.3424 19.3891V17.2051C61.3424 17.1184 61.3164 17.0534 61.2644 17.0101C61.2211 16.9581 61.1561 16.9321 61.0694 16.9321H59.8214Z" fill="#421D12"/>
<path d="M53.2947 9.86008C53.4334 9.86008 53.5417 9.80374 53.6197 9.69108L53.7757 9.47008C53.8104 9.42674 53.8537 9.37041 53.9057 9.30108C53.9664 9.22308 54.0141 9.16675 54.0487 9.13208C54.0834 9.09741 54.1181 9.08008 54.1527 9.08008C54.2221 9.08008 54.3824 9.17974 54.6337 9.37908C54.8937 9.56974 55.0844 9.73874 55.2057 9.88608C55.2491 9.92941 55.2707 9.97708 55.2707 10.0291C55.2707 10.0811 55.2447 10.1287 55.1927 10.1721C55.1234 10.2154 55.0411 10.2371 54.9457 10.2371H51.2407C51.1541 10.2371 51.0847 10.2631 51.0327 10.3151C50.9894 10.3584 50.9677 10.4234 50.9677 10.5101V11.0301C50.9677 11.1167 50.9894 11.1861 51.0327 11.2381C51.0847 11.2814 51.1541 11.3031 51.2407 11.3031H54.5297C54.6771 11.3031 54.7897 11.2511 54.8677 11.1471L54.9977 11.0041C55.0324 10.9694 55.0844 10.9087 55.1537 10.8221C55.2317 10.7354 55.2967 10.6921 55.3487 10.6921C55.4094 10.6921 55.5394 10.7917 55.7387 10.9911C55.9467 11.1817 56.1027 11.3594 56.2067 11.5241C56.2414 11.5587 56.2587 11.6021 56.2587 11.6541C56.2587 11.7321 56.2154 11.7841 56.1287 11.8101C56.1114 11.8187 56.0897 11.8231 56.0637 11.8231C55.9077 11.8664 55.7951 11.9271 55.7257 12.0051C55.3964 12.4037 55.0757 12.7374 54.7637 13.0061C54.6597 13.1014 54.5774 13.1317 54.5167 13.0971C54.4821 13.0797 54.4647 13.0451 54.4647 12.9931C54.4647 12.9497 54.4777 12.8891 54.5037 12.8111C54.5817 12.5857 54.6597 12.3041 54.7377 11.9661L54.7507 11.8881C54.7507 11.8187 54.7247 11.7667 54.6727 11.7321C54.6294 11.6887 54.5687 11.6671 54.4907 11.6671H51.2407C51.1541 11.6671 51.0847 11.6931 51.0327 11.7451C50.9894 11.7884 50.9677 11.8534 50.9677 11.9401V12.6681C50.9937 13.4307 51.0154 14.0114 51.0327 14.4101V14.4751C51.0327 14.5964 50.9894 14.6831 50.9027 14.7351C50.7121 14.8651 50.4521 14.9301 50.1227 14.9301C50.0447 14.9301 49.9841 14.9041 49.9407 14.8521C49.8974 14.8001 49.8757 14.7394 49.8757 14.6701C49.9191 14.1934 49.9494 13.5564 49.9667 12.7591V11.9401C49.9667 11.8534 49.9407 11.7884 49.8887 11.7451C49.8454 11.6931 49.7804 11.6671 49.6937 11.6671H46.6777C46.4871 11.6671 46.3917 11.7061 46.3917 11.7841C46.4004 11.8101 46.4047 11.8447 46.4047 11.8881C46.4047 12.2174 46.3484 12.5034 46.2357 12.7461C46.1231 12.9887 45.9801 13.1707 45.8067 13.2921C45.6681 13.3874 45.5164 13.4351 45.3517 13.4351C45.2044 13.4351 45.0831 13.3917 44.9877 13.3051C44.8924 13.2184 44.8447 13.0927 44.8447 12.9281C44.8447 12.8154 44.8794 12.7114 44.9487 12.6161C45.0267 12.5121 45.1264 12.4297 45.2477 12.3691C45.4471 12.2564 45.6161 12.0744 45.7547 11.8231C45.9021 11.5631 45.9844 11.2857 46.0017 10.9911C46.0017 10.8004 46.0321 10.7051 46.0927 10.7051C46.1621 10.7051 46.2141 10.7787 46.2487 10.9261L46.2877 11.0691C46.3311 11.2251 46.4307 11.3031 46.5867 11.3031H49.6937C49.7804 11.3031 49.8454 11.2814 49.8887 11.2381C49.9407 11.1861 49.9667 11.1167 49.9667 11.0301V10.5101C49.9667 10.4234 49.9407 10.3584 49.8887 10.3151C49.8454 10.2631 49.7804 10.2371 49.6937 10.2371H48.1857C47.6571 10.2457 47.0851 10.2934 46.4697 10.3801H46.3917C46.2704 10.3801 46.1837 10.3237 46.1317 10.2111L46.0797 10.1071C46.0537 10.0551 46.0407 10.0031 46.0407 9.95108C46.0407 9.89908 46.0624 9.86008 46.1057 9.83408C46.1491 9.79941 46.2097 9.78641 46.2877 9.79508C46.5824 9.82108 47.0287 9.84274 47.6267 9.86008H53.2947ZM52.3587 13.0581C52.1767 13.0754 52.0164 13.1057 51.8777 13.1491C51.8257 13.1664 51.7867 13.1751 51.7607 13.1751C51.6567 13.1751 51.5744 13.1187 51.5137 13.0061L51.4747 12.9281C51.4487 12.8761 51.4357 12.8241 51.4357 12.7721C51.4357 12.6594 51.5224 12.6117 51.6957 12.6291C51.8777 12.6464 52.1507 12.6637 52.5147 12.6811H52.8917C53.0304 12.6811 53.1431 12.6247 53.2297 12.5121L53.3077 12.4081C53.3337 12.3734 53.3641 12.3301 53.3987 12.2781C53.4421 12.2261 53.4767 12.1871 53.5027 12.1611C53.5374 12.1351 53.5721 12.1221 53.6067 12.1221C53.6674 12.1221 53.7844 12.1914 53.9577 12.3301C54.1311 12.4601 54.2654 12.5857 54.3607 12.7071C54.3954 12.7504 54.4127 12.8024 54.4127 12.8631C54.4127 12.9064 54.3954 12.9454 54.3607 12.9801C54.3087 13.0321 54.2264 13.0581 54.1137 13.0581H52.3587ZM47.5617 13.0581C47.3797 13.0754 47.2194 13.1057 47.0807 13.1491C47.0287 13.1664 46.9897 13.1751 46.9637 13.1751C46.8597 13.1751 46.7774 13.1187 46.7167 13.0061L46.6777 12.9281C46.6517 12.8761 46.6387 12.8241 46.6387 12.7721C46.6387 12.6594 46.7254 12.6117 46.8987 12.6291C47.0807 12.6464 47.3537 12.6637 47.7177 12.6811H48.0817C48.2291 12.6811 48.3417 12.6247 48.4197 12.5121L48.4847 12.4211C48.5107 12.3864 48.5541 12.3344 48.6147 12.2651C48.6754 12.1871 48.7317 12.1481 48.7837 12.1481C48.8531 12.1481 48.9701 12.2131 49.1347 12.3431C49.2994 12.4731 49.4251 12.5944 49.5117 12.7071C49.5464 12.7504 49.5637 12.7981 49.5637 12.8501C49.5637 12.9107 49.5421 12.9584 49.4987 12.9931C49.4381 13.0364 49.3644 13.0581 49.2777 13.0581H47.5617ZM53.1387 13.9941C53.2774 13.9941 53.3857 13.9377 53.4637 13.8251L53.5547 13.7081C53.5807 13.6734 53.6241 13.6171 53.6847 13.5391C53.7541 13.4524 53.8147 13.4091 53.8667 13.4091C53.9361 13.4091 54.0661 13.4827 54.2567 13.6301C54.4561 13.7687 54.5991 13.8987 54.6857 14.0201C54.7291 14.0807 54.7507 14.1284 54.7507 14.1631C54.7507 14.2151 54.7291 14.2627 54.6857 14.3061C54.6251 14.3494 54.5471 14.3711 54.4517 14.3711H53.4637C52.9611 14.3797 52.4237 14.4274 51.8517 14.5141H51.7737C51.6524 14.5141 51.5657 14.4577 51.5137 14.3451L51.4617 14.2411C51.4357 14.1891 51.4227 14.1371 51.4227 14.0851C51.4227 13.9724 51.5051 13.9247 51.6697 13.9421C51.8951 13.9594 52.2331 13.9767 52.6837 13.9941H53.1387ZM47.4057 14.3711C47.1977 14.3884 47.0114 14.4187 46.8467 14.4621C46.7947 14.4794 46.7557 14.4881 46.7297 14.4881C46.6257 14.4881 46.5434 14.4317 46.4827 14.3191L46.4437 14.2411C46.4177 14.1891 46.4047 14.1371 46.4047 14.0851C46.4047 13.9724 46.4871 13.9247 46.6517 13.9421C46.8771 13.9594 47.2064 13.9767 47.6397 13.9941H48.0817C48.2204 13.9941 48.3331 13.9377 48.4197 13.8251L48.4977 13.7211C48.5237 13.6864 48.5671 13.6344 48.6277 13.5651C48.6884 13.4871 48.7447 13.4481 48.7967 13.4481C48.8661 13.4481 48.9874 13.5131 49.1607 13.6431C49.3427 13.7731 49.4771 13.8944 49.5637 14.0071C49.6071 14.0677 49.6287 14.1197 49.6287 14.1631C49.6287 14.2151 49.6071 14.2627 49.5637 14.3061C49.4944 14.3494 49.4164 14.3711 49.3297 14.3711H47.4057ZM53.2427 15.3851C53.3814 15.3851 53.4897 15.3287 53.5677 15.2161L53.6717 15.0601C53.6977 15.0254 53.7324 14.9777 53.7757 14.9171C53.8277 14.8477 53.8667 14.8001 53.8927 14.7741C53.9274 14.7394 53.9621 14.7221 53.9967 14.7221C54.0661 14.7221 54.2091 14.8131 54.4257 14.9951C54.6511 15.1771 54.8201 15.3417 54.9327 15.4891C54.9674 15.5237 54.9847 15.5671 54.9847 15.6191C54.9847 15.6797 54.9501 15.7361 54.8807 15.7881L54.7637 15.8401C54.6164 15.9094 54.5427 16.0134 54.5427 16.1521V16.9711C54.5687 17.7944 54.5904 18.4054 54.6077 18.8041V18.8691C54.6077 18.9904 54.5644 19.0771 54.4777 19.1291C54.3737 19.1984 54.2481 19.2591 54.1007 19.3111C53.9621 19.3544 53.8321 19.3761 53.7107 19.3761C53.6674 19.3761 53.6284 19.3544 53.5937 19.3111C53.5677 19.2591 53.5547 19.1897 53.5547 19.1031C53.5547 19.0164 53.5287 18.9514 53.4767 18.9081C53.4334 18.8561 53.3684 18.8301 53.2817 18.8301H51.2277C51.1411 18.8301 51.0717 18.8561 51.0197 18.9081C50.9764 18.9514 50.9547 19.0164 50.9547 19.1031V19.4801C50.9547 19.6361 50.9634 19.7444 50.9807 19.8051C51.0067 19.8657 51.0544 19.9047 51.1237 19.9221C51.2017 19.9394 51.3361 19.9481 51.5267 19.9481H54.6077C54.7637 19.9481 54.8764 19.9394 54.9457 19.9221C55.0237 19.9047 55.0887 19.8657 55.1407 19.8051C55.2187 19.6751 55.3227 19.3631 55.4527 18.8691C55.4874 18.7044 55.5351 18.6221 55.5957 18.6221C55.6477 18.6221 55.6737 18.7131 55.6737 18.8951L55.6867 19.5581C55.6867 19.6967 55.7647 19.8051 55.9207 19.8831C56.0161 19.9264 56.0767 19.9654 56.1027 20.0001C56.1287 20.0347 56.1417 20.0867 56.1417 20.1561C56.1417 20.3727 56.0247 20.5331 55.7907 20.6371C55.5567 20.7497 55.1451 20.8061 54.5557 20.8061H51.5007C51.0587 20.8061 50.7337 20.7714 50.5257 20.7021C50.3177 20.6327 50.1704 20.5027 50.0837 20.3121C50.0057 20.1214 49.9667 19.8267 49.9667 19.4281V19.1031C49.9667 19.0164 49.9407 18.9514 49.8887 18.9081C49.8454 18.8561 49.7804 18.8301 49.6937 18.8301H47.7567C47.6701 18.8301 47.6007 18.8561 47.5487 18.9081C47.5054 18.9514 47.4837 19.0164 47.4837 19.1031V19.4411C47.4837 19.5017 47.3927 19.5754 47.2107 19.6621C47.0287 19.7401 46.8424 19.7791 46.6517 19.7791C46.5824 19.7791 46.5261 19.7531 46.4827 19.7011C46.4481 19.6491 46.4307 19.5884 46.4307 19.5191C46.4654 19.1551 46.4914 18.7001 46.5087 18.1541V17.3351C46.5087 16.6071 46.4741 15.8964 46.4047 15.2031V15.1511C46.4047 15.0904 46.4177 15.0427 46.4437 15.0081C46.4784 14.9734 46.5174 14.9561 46.5607 14.9561C46.6041 14.9561 46.6517 14.9691 46.7037 14.9951L47.4057 15.3071C47.5271 15.3591 47.6397 15.3851 47.7437 15.3851H53.2427ZM49.6937 16.8931C49.7804 16.8931 49.8454 16.8714 49.8887 16.8281C49.9407 16.7761 49.9667 16.7067 49.9667 16.6201V16.0221C49.9667 15.9354 49.9407 15.8704 49.8887 15.8271C49.8454 15.7751 49.7804 15.7491 49.6937 15.7491H47.7567C47.6701 15.7491 47.6007 15.7751 47.5487 15.8271C47.5054 15.8704 47.4837 15.9354 47.4837 16.0221V16.6201C47.4837 16.7067 47.5054 16.7761 47.5487 16.8281C47.6007 16.8714 47.6701 16.8931 47.7567 16.8931H49.6937ZM53.2817 16.8931C53.3684 16.8931 53.4334 16.8714 53.4767 16.8281C53.5287 16.7761 53.5547 16.7067 53.5547 16.6201V16.0221C53.5547 15.9354 53.5287 15.8704 53.4767 15.8271C53.4334 15.7751 53.3684 15.7491 53.2817 15.7491H51.2277C51.1411 15.7491 51.0717 15.7751 51.0197 15.8271C50.9764 15.8704 50.9547 15.9354 50.9547 16.0221V16.6201C50.9547 16.7067 50.9764 16.7761 51.0197 16.8281C51.0717 16.8714 51.1411 16.8931 51.2277 16.8931H53.2817ZM47.7567 17.2701C47.6701 17.2701 47.6007 17.2961 47.5487 17.3481C47.5054 17.3914 47.4837 17.4564 47.4837 17.5431V18.1801C47.4837 18.2667 47.5054 18.3361 47.5487 18.3881C47.6007 18.4314 47.6701 18.4531 47.7567 18.4531H49.6937C49.7804 18.4531 49.8454 18.4314 49.8887 18.3881C49.9407 18.3361 49.9667 18.2667 49.9667 18.1801V17.5431C49.9667 17.4564 49.9407 17.3914 49.8887 17.3481C49.8454 17.2961 49.7804 17.2701 49.6937 17.2701H47.7567ZM51.2277 17.2701C51.1411 17.2701 51.0717 17.2961 51.0197 17.3481C50.9764 17.3914 50.9547 17.4564 50.9547 17.5431V18.1801C50.9547 18.2667 50.9764 18.3361 51.0197 18.3881C51.0717 18.4314 51.1411 18.4531 51.2277 18.4531H53.2817C53.3684 18.4531 53.4334 18.4314 53.4767 18.3881C53.5287 18.3361 53.5547 18.2667 53.5547 18.1801V17.5431C53.5547 17.4564 53.5287 17.3914 53.4767 17.3481C53.4334 17.2961 53.3684 17.2701 53.2817 17.2701H51.2277Z" fill="#421D12"/>
<path d="M121.797 36.156C121.565 36.156 121.393 36.048 121.281 35.832C121.169 35.616 121.113 35.368 121.113 35.088C121.113 34.496 121.277 33.812 121.605 33.036C121.941 32.26 122.317 31.528 122.733 30.84C123.157 30.144 123.649 29.38 124.209 28.548C124.249 28.492 124.269 28.444 124.269 28.404C124.269 28.3 124.193 28.248 124.041 28.248H122.085C121.605 28.248 121.237 28.3 120.981 28.404C120.725 28.508 120.529 28.664 120.393 28.872C120.265 29.08 120.121 29.4 119.961 29.832C119.945 29.864 119.929 29.884 119.913 29.892C119.905 29.9 119.889 29.904 119.865 29.904L119.769 29.892C119.681 29.86 119.637 29.824 119.637 29.784L119.661 29.652L119.721 29.364C119.889 28.668 120.033 28.028 120.153 27.444C120.193 27.3 120.285 27.228 120.429 27.228H124.965C125.109 27.228 125.197 27.272 125.229 27.36L125.253 27.456C125.253 27.52 125.229 27.588 125.181 27.66C124.437 28.892 123.881 29.904 123.513 30.696C123.145 31.48 122.889 32.204 122.745 32.868C122.601 33.524 122.521 34.288 122.505 35.16C122.497 35.488 122.429 35.736 122.301 35.904C122.181 36.072 122.013 36.156 121.797 36.156Z" fill="#421D12"/>
<path d="M114.938 30.4921C115.418 30.4921 115.834 30.6081 116.186 30.8401C116.538 31.0721 116.806 31.3801 116.99 31.7641C117.182 32.1481 117.278 32.5641 117.278 33.0121C117.278 33.5801 117.166 34.1041 116.942 34.5841C116.718 35.0641 116.398 35.4481 115.982 35.7361C115.566 36.0241 115.086 36.1681 114.542 36.1681C113.974 36.1681 113.466 36.0081 113.018 35.6881C112.578 35.3681 112.234 34.9241 111.986 34.3561C111.746 33.7881 111.626 33.1361 111.626 32.4001C111.626 31.2801 111.794 30.3241 112.13 29.5321C112.466 28.7321 112.89 28.1321 113.402 27.7321C113.914 27.3321 114.43 27.1321 114.95 27.1321C115.366 27.1321 115.714 27.1961 115.994 27.3241C116.282 27.4441 116.494 27.6001 116.63 27.7921C116.766 27.9761 116.834 28.1561 116.834 28.3321C116.834 28.5241 116.77 28.6841 116.642 28.8121C116.514 28.9321 116.362 28.9921 116.186 28.9921C115.994 28.9921 115.826 28.9161 115.682 28.7641C115.538 28.6041 115.458 28.3961 115.442 28.1401C115.426 27.9401 115.374 27.7921 115.286 27.6961C115.206 27.6001 115.074 27.5521 114.89 27.5521C114.346 27.5521 113.914 27.8921 113.594 28.5721C113.282 29.2441 113.066 30.0561 112.946 31.0081C112.938 31.1361 112.986 31.2001 113.09 31.2001C113.178 31.2001 113.278 31.1561 113.39 31.0681C113.846 30.6841 114.362 30.4921 114.938 30.4921ZM114.542 35.7001C114.854 35.7001 115.122 35.5841 115.346 35.3521C115.578 35.1201 115.754 34.8121 115.874 34.4281C116.002 34.0361 116.066 33.6121 116.066 33.1561C116.066 32.3241 115.906 31.7681 115.586 31.4881C115.266 31.2081 114.918 31.0681 114.542 31.0681C114.246 31.0681 113.946 31.1641 113.642 31.3561C113.346 31.5481 113.106 31.8401 112.922 32.2321C112.882 32.3281 112.862 32.4321 112.862 32.5441C112.87 33.4081 112.994 34.1521 113.234 34.7761C113.474 35.3921 113.91 35.7001 114.542 35.7001Z" fill="#421D12"/>
<path d="M106.691 30.36C107.059 30.36 107.443 30.448 107.843 30.624C108.251 30.792 108.599 31.088 108.887 31.512C109.183 31.936 109.331 32.496 109.331 33.192C109.331 33.784 109.191 34.308 108.911 34.764C108.631 35.212 108.271 35.56 107.831 35.808C107.391 36.048 106.935 36.168 106.463 36.168C106.055 36.168 105.659 36.096 105.275 35.952C104.899 35.808 104.591 35.6 104.351 35.328C104.111 35.048 103.991 34.716 103.991 34.332C103.991 34.06 104.059 33.864 104.195 33.744C104.331 33.616 104.479 33.552 104.639 33.552C104.831 33.552 104.999 33.6 105.143 33.696C105.287 33.792 105.359 33.948 105.359 34.164C105.359 34.268 105.343 34.36 105.311 34.44C105.279 34.52 105.259 34.568 105.251 34.584C105.187 34.728 105.155 34.836 105.155 34.908C105.155 35.18 105.267 35.392 105.491 35.544C105.715 35.688 105.987 35.76 106.307 35.76C106.603 35.76 106.883 35.664 107.147 35.472C107.419 35.28 107.639 34.996 107.807 34.62C107.983 34.244 108.071 33.792 108.071 33.264C108.071 32.528 107.915 31.948 107.603 31.524C107.291 31.092 106.883 30.876 106.379 30.876C105.795 30.876 105.255 31.196 104.759 31.836C104.711 31.9 104.655 31.94 104.591 31.956H104.543C104.495 31.956 104.463 31.944 104.447 31.92H104.435C104.315 31.848 104.263 31.744 104.279 31.608L104.471 27.48C104.479 27.32 104.567 27.24 104.735 27.24H108.659C108.747 27.24 108.807 27.264 108.839 27.312C108.879 27.36 108.891 27.428 108.875 27.516L108.767 28.056C108.759 28.128 108.727 28.184 108.671 28.224C108.623 28.264 108.563 28.284 108.491 28.284H105.095C104.935 28.284 104.851 28.364 104.843 28.524L104.723 30.876C104.715 30.988 104.755 31.044 104.843 31.044C104.939 31.044 105.035 31 105.131 30.912C105.387 30.712 105.639 30.572 105.887 30.492C106.135 30.404 106.403 30.36 106.691 30.36Z" fill="#421D12"/>
<path d="M101.758 33.348C101.758 33.428 101.734 33.492 101.686 33.54C101.646 33.58 101.586 33.6 101.506 33.6H99.6338C99.5538 33.6 99.4898 33.58 99.4418 33.54C99.4018 33.492 99.3818 33.428 99.3818 33.348V33.024C99.3818 32.944 99.4018 32.884 99.4418 32.844C99.4898 32.796 99.5538 32.772 99.6338 32.772H101.506C101.586 32.772 101.646 32.796 101.686 32.844C101.734 32.884 101.758 32.944 101.758 33.024V33.348Z" fill="#421D12"/>
<path d="M94.8032 30.4921C95.2832 30.4921 95.6992 30.6081 96.0512 30.8401C96.4032 31.0721 96.6712 31.3801 96.8552 31.7641C97.0472 32.1481 97.1432 32.5641 97.1432 33.0121C97.1432 33.5801 97.0312 34.1041 96.8072 34.5841C96.5832 35.0641 96.2632 35.4481 95.8472 35.7361C95.4312 36.0241 94.9512 36.1681 94.4072 36.1681C93.8392 36.1681 93.3312 36.0081 92.8832 35.6881C92.4432 35.3681 92.0992 34.9241 91.8512 34.3561C91.6112 33.7881 91.4912 33.1361 91.4912 32.4001C91.4912 31.2801 91.6592 30.3241 91.9952 29.5321C92.3312 28.7321 92.7552 28.1321 93.2672 27.7321C93.7792 27.3321 94.2952 27.1321 94.8152 27.1321C95.2312 27.1321 95.5792 27.1961 95.8592 27.3241C96.1472 27.4441 96.3592 27.6001 96.4952 27.7921C96.6312 27.9761 96.6992 28.1561 96.6992 28.3321C96.6992 28.5241 96.6352 28.6841 96.5072 28.8121C96.3792 28.9321 96.2272 28.9921 96.0512 28.9921C95.8592 28.9921 95.6912 28.9161 95.5472 28.7641C95.4032 28.6041 95.3232 28.3961 95.3072 28.1401C95.2912 27.9401 95.2392 27.7921 95.1512 27.6961C95.0712 27.6001 94.9392 27.5521 94.7552 27.5521C94.2112 27.5521 93.7792 27.8921 93.4592 28.5721C93.1472 29.2441 92.9312 30.0561 92.8112 31.0081C92.8032 31.1361 92.8512 31.2001 92.9552 31.2001C93.0432 31.2001 93.1432 31.1561 93.2552 31.0681C93.7112 30.6841 94.2272 30.4921 94.8032 30.4921ZM94.4072 35.7001C94.7192 35.7001 94.9872 35.5841 95.2112 35.3521C95.4432 35.1201 95.6192 34.8121 95.7392 34.4281C95.8672 34.0361 95.9312 33.6121 95.9312 33.1561C95.9312 32.3241 95.7712 31.7681 95.4512 31.4881C95.1312 31.2081 94.7832 31.0681 94.4072 31.0681C94.1112 31.0681 93.8112 31.1641 93.5072 31.3561C93.2112 31.5481 92.9712 31.8401 92.7872 32.2321C92.7472 32.3281 92.7272 32.4321 92.7272 32.5441C92.7352 33.4081 92.8592 34.1521 93.0992 34.7761C93.3392 35.3921 93.7752 35.7001 94.4072 35.7001Z" fill="#421D12"/>
<path d="M86.5564 30.36C86.9244 30.36 87.3084 30.448 87.7084 30.624C88.1164 30.792 88.4644 31.088 88.7524 31.512C89.0484 31.936 89.1964 32.496 89.1964 33.192C89.1964 33.784 89.0564 34.308 88.7764 34.764C88.4964 35.212 88.1364 35.56 87.6964 35.808C87.2564 36.048 86.8004 36.168 86.3284 36.168C85.9204 36.168 85.5244 36.096 85.1404 35.952C84.7644 35.808 84.4564 35.6 84.2164 35.328C83.9764 35.048 83.8564 34.716 83.8564 34.332C83.8564 34.06 83.9244 33.864 84.0604 33.744C84.1964 33.616 84.3444 33.552 84.5044 33.552C84.6964 33.552 84.8644 33.6 85.0084 33.696C85.1524 33.792 85.2244 33.948 85.2244 34.164C85.2244 34.268 85.2084 34.36 85.1764 34.44C85.1444 34.52 85.1244 34.568 85.1164 34.584C85.0524 34.728 85.0204 34.836 85.0204 34.908C85.0204 35.18 85.1324 35.392 85.3564 35.544C85.5804 35.688 85.8524 35.76 86.1724 35.76C86.4684 35.76 86.7484 35.664 87.0124 35.472C87.2844 35.28 87.5044 34.996 87.6724 34.62C87.8484 34.244 87.9364 33.792 87.9364 33.264C87.9364 32.528 87.7804 31.948 87.4684 31.524C87.1564 31.092 86.7484 30.876 86.2444 30.876C85.6604 30.876 85.1204 31.196 84.6244 31.836C84.5764 31.9 84.5204 31.94 84.4564 31.956H84.4084C84.3604 31.956 84.3284 31.944 84.3124 31.92H84.3004C84.1804 31.848 84.1284 31.744 84.1444 31.608L84.3364 27.48C84.3444 27.32 84.4324 27.24 84.6004 27.24H88.5244C88.6124 27.24 88.6724 27.264 88.7044 27.312C88.7444 27.36 88.7564 27.428 88.7404 27.516L88.6324 28.056C88.6244 28.128 88.5924 28.184 88.5364 28.224C88.4884 28.264 88.4284 28.284 88.3564 28.284H84.9604C84.8004 28.284 84.7164 28.364 84.7084 28.524L84.5884 30.876C84.5804 30.988 84.6204 31.044 84.7084 31.044C84.8044 31.044 84.9004 31 84.9964 30.912C85.2524 30.712 85.5044 30.572 85.7524 30.492C86.0004 30.404 86.2684 30.36 86.5564 30.36Z" fill="#421D12"/>
<path d="M79.3013 30.4921C79.7813 30.4921 80.1973 30.6081 80.5493 30.8401C80.9013 31.0721 81.1693 31.3801 81.3533 31.7641C81.5453 32.1481 81.6413 32.5641 81.6413 33.0121C81.6413 33.5801 81.5293 34.1041 81.3053 34.5841C81.0813 35.0641 80.7613 35.4481 80.3453 35.7361C79.9293 36.0241 79.4493 36.1681 78.9053 36.1681C78.3373 36.1681 77.8293 36.0081 77.3813 35.6881C76.9413 35.3681 76.5973 34.9241 76.3493 34.3561C76.1093 33.7881 75.9893 33.1361 75.9893 32.4001C75.9893 31.2801 76.1573 30.3241 76.4933 29.5321C76.8293 28.7321 77.2533 28.1321 77.7653 27.7321C78.2773 27.3321 78.7933 27.1321 79.3133 27.1321C79.7293 27.1321 80.0773 27.1961 80.3573 27.3241C80.6453 27.4441 80.8573 27.6001 80.9933 27.7921C81.1293 27.9761 81.1973 28.1561 81.1973 28.3321C81.1973 28.5241 81.1333 28.6841 81.0053 28.8121C80.8773 28.9321 80.7253 28.9921 80.5493 28.9921C80.3573 28.9921 80.1893 28.9161 80.0453 28.7641C79.9013 28.6041 79.8213 28.3961 79.8053 28.1401C79.7893 27.9401 79.7373 27.7921 79.6493 27.6961C79.5693 27.6001 79.4373 27.5521 79.2533 27.5521C78.7093 27.5521 78.2773 27.8921 77.9573 28.5721C77.6453 29.2441 77.4293 30.0561 77.3093 31.0081C77.3013 31.1361 77.3493 31.2001 77.4533 31.2001C77.5413 31.2001 77.6413 31.1561 77.7533 31.0681C78.2093 30.6841 78.7253 30.4921 79.3013 30.4921ZM78.9053 35.7001C79.2173 35.7001 79.4853 35.5841 79.7093 35.3521C79.9413 35.1201 80.1173 34.8121 80.2373 34.4281C80.3653 34.0361 80.4293 33.6121 80.4293 33.1561C80.4293 32.3241 80.2693 31.7681 79.9493 31.4881C79.6293 31.2081 79.2813 31.0681 78.9053 31.0681C78.6093 31.0681 78.3093 31.1641 78.0053 31.3561C77.7093 31.5481 77.4693 31.8401 77.2853 32.2321C77.2453 32.3281 77.2253 32.4321 77.2253 32.5441C77.2333 33.4081 77.3573 34.1521 77.5973 34.7761C77.8373 35.3921 78.2733 35.7001 78.9053 35.7001Z" fill="#421D12"/>
<path d="M73.7197 33.348C73.7197 33.428 73.6958 33.492 73.6478 33.54C73.6078 33.58 73.5478 33.6 73.4678 33.6H71.5958C71.5158 33.6 71.4517 33.58 71.4037 33.54C71.3637 33.492 71.3438 33.428 71.3438 33.348V33.024C71.3438 32.944 71.3637 32.884 71.4037 32.844C71.4517 32.796 71.5158 32.772 71.5958 32.772H73.4678C73.5478 32.772 73.6078 32.796 73.6478 32.844C73.6958 32.884 73.7197 32.944 73.7197 33.024V33.348Z" fill="#421D12"/>
<path d="M66.2832 36.1681C65.8112 36.1681 65.3632 36.0001 64.9392 35.6641C64.5232 35.3281 64.1832 34.8201 63.9192 34.1401C63.6632 33.4601 63.5352 32.6321 63.5352 31.6561C63.5352 30.6881 63.6632 29.8641 63.9192 29.1841C64.1832 28.4961 64.5272 27.9841 64.9512 27.6481C65.3752 27.3041 65.8272 27.1321 66.3072 27.1321C66.7792 27.1321 67.2272 27.3041 67.6512 27.6481C68.0752 27.9841 68.4152 28.4961 68.6712 29.1841C68.9352 29.8641 69.0672 30.6881 69.0672 31.6561C69.0672 32.6321 68.9352 33.4601 68.6712 34.1401C68.4072 34.8121 68.0632 35.3201 67.6392 35.6641C67.2152 36.0001 66.7632 36.1681 66.2832 36.1681ZM66.3072 35.7481C66.7872 35.7481 67.1632 35.4081 67.4352 34.7281C67.7072 34.0481 67.8432 33.0241 67.8432 31.6561C67.8432 30.2881 67.7072 29.2641 67.4352 28.5841C67.1632 27.8961 66.7872 27.5521 66.3072 27.5521C65.8192 27.5521 65.4352 27.8961 65.1552 28.5841C64.8832 29.2641 64.7472 30.2881 64.7472 31.6561C64.7472 33.0241 64.8832 34.0481 65.1552 34.7281C65.4352 35.4081 65.8192 35.7481 66.3072 35.7481Z" fill="#421D12"/>
<path d="M60.7162 35.7841C60.6842 35.9281 60.5922 36.0001 60.4402 36.0001H56.1442C56.0082 36.0001 55.9242 35.9561 55.8922 35.8681C55.8762 35.8041 55.8682 35.7601 55.8682 35.7361C55.8682 35.6881 55.8802 35.6361 55.9042 35.5801C56.1362 34.9961 56.4322 34.4561 56.7922 33.9601C57.1522 33.4641 57.6242 32.8881 58.2082 32.2321C58.8082 31.5521 59.2362 31.0001 59.4922 30.5761C59.7562 30.1441 59.8882 29.6841 59.8882 29.1961C59.8882 28.7321 59.7602 28.3401 59.5042 28.0201C59.2562 27.7001 58.8762 27.5401 58.3642 27.5401C57.9882 27.5401 57.6682 27.6281 57.4042 27.8041C57.1482 27.9801 57.0202 28.2041 57.0202 28.4761C57.0202 28.5801 57.0362 28.6681 57.0682 28.7401C57.1082 28.8121 57.1642 28.8921 57.2362 28.9801C57.3082 29.0761 57.3602 29.1641 57.3922 29.2441C57.4322 29.3161 57.4522 29.4081 57.4522 29.5201C57.4522 29.7281 57.3842 29.8961 57.2482 30.0241C57.1202 30.1441 56.9522 30.2041 56.7442 30.2041C56.5682 30.2041 56.4042 30.1201 56.2522 29.9521C56.1002 29.7761 56.0242 29.5441 56.0242 29.2561C56.0242 28.9441 56.1202 28.6241 56.3122 28.2961C56.5122 27.9681 56.8002 27.6921 57.1762 27.4681C57.5602 27.2441 58.0202 27.1321 58.5562 27.1321C59.1402 27.1321 59.6202 27.2441 59.9962 27.4681C60.3802 27.6841 60.6602 27.9681 60.8362 28.3201C61.0122 28.6641 61.1002 29.0361 61.1002 29.4361C61.1002 29.7961 61.0322 30.1121 60.8962 30.3841C60.7682 30.6561 60.5962 30.8961 60.3802 31.1041C60.1722 31.3121 59.8642 31.5881 59.4562 31.9321C59.1362 32.1961 58.8642 32.4281 58.6402 32.6281C57.9282 33.2681 57.3642 33.9561 56.9482 34.6921C56.9162 34.7321 56.9002 34.7761 56.9002 34.8241C56.9002 34.8721 56.9202 34.9121 56.9602 34.9441C57.0082 34.9761 57.0642 34.9921 57.1282 34.9921H58.3282C58.9362 34.9921 59.3922 34.9601 59.6962 34.8961C60.0082 34.8241 60.2482 34.7001 60.4162 34.5241C60.5842 34.3481 60.7482 34.0641 60.9082 33.6721C60.9242 33.6241 60.9522 33.6001 60.9922 33.6001L61.0882 33.6241C61.1282 33.6401 61.1602 33.6561 61.1842 33.6721C61.2082 33.6881 61.2202 33.7121 61.2202 33.7441L61.2082 33.8041L60.7162 35.7841Z" fill="#421D12"/>
<path d="M48.9365 36C48.9045 36 48.8805 35.988 48.8645 35.964C48.8565 35.932 48.8525 35.888 48.8525 35.832C48.8525 35.776 48.8565 35.736 48.8645 35.712C48.8805 35.68 48.9045 35.664 48.9365 35.664H49.1165C50.0285 35.664 50.4845 35.392 50.4845 34.848V29.268C50.4845 29.004 50.4565 28.82 50.4005 28.716C50.3525 28.612 50.2445 28.548 50.0765 28.524C49.9165 28.492 49.6285 28.476 49.2125 28.476H48.9485C48.8925 28.476 48.8645 28.42 48.8645 28.308C48.8645 28.196 48.8925 28.14 48.9485 28.14C49.8605 28.108 50.6525 27.852 51.3245 27.372C51.3885 27.324 51.4405 27.3 51.4805 27.3C51.5205 27.3 51.5525 27.32 51.5765 27.36C51.6085 27.4 51.6245 27.452 51.6245 27.516V34.848C51.6245 35.392 52.0845 35.664 53.0045 35.664H53.1725C53.2045 35.664 53.2245 35.68 53.2325 35.712C53.2485 35.736 53.2565 35.776 53.2565 35.832C53.2565 35.944 53.2285 36 53.1725 36H48.9365Z" fill="#421D12"/>
<path d="M43.3125 36.1681C42.8405 36.1681 42.3925 36.0001 41.9685 35.6641C41.5525 35.3281 41.2125 34.8201 40.9485 34.1401C40.6925 33.4601 40.5645 32.6321 40.5645 31.6561C40.5645 30.6881 40.6925 29.8641 40.9485 29.1841C41.2125 28.4961 41.5565 27.9841 41.9805 27.6481C42.4045 27.3041 42.8565 27.1321 43.3365 27.1321C43.8085 27.1321 44.2565 27.3041 44.6805 27.6481C45.1045 27.9841 45.4445 28.4961 45.7005 29.1841C45.9645 29.8641 46.0965 30.6881 46.0965 31.6561C46.0965 32.6321 45.9645 33.4601 45.7005 34.1401C45.4365 34.8121 45.0925 35.3201 44.6685 35.6641C44.2445 36.0001 43.7925 36.1681 43.3125 36.1681ZM43.3365 35.7481C43.8165 35.7481 44.1925 35.4081 44.4645 34.7281C44.7365 34.0481 44.8725 33.0241 44.8725 31.6561C44.8725 30.2881 44.7365 29.2641 44.4645 28.5841C44.1925 27.8961 43.8165 27.5521 43.3365 27.5521C42.8485 27.5521 42.4645 27.8961 42.1845 28.5841C41.9125 29.2641 41.7765 30.2881 41.7765 31.6561C41.7765 33.0241 41.9125 34.0481 42.1845 34.7281C42.4645 35.4081 42.8485 35.7481 43.3365 35.7481Z" fill="#421D12"/>
<path d="M12.1445 19.7773L10.7471 21.1787C10.9469 21.8017 11.4457 22.5248 12.2246 23.3262C13.0036 24.1276 13.7638 24.6185 14.3867 24.8184L15.7871 23.417L18.6904 26.3174L17.2549 27.7529C17.2218 27.7513 13.8919 27.5832 11.0928 24.9922L10.8223 24.7324C7.95834 21.879 7.8125 18.3076 7.8125 18.3076L9.2461 16.875L12.1445 19.7773ZM14.6631 25.958L14.082 25.7715C13.9246 25.721 13.766 25.6547 13.6045 25.5801C14.2455 25.9349 14.8667 26.1853 15.416 26.3604C15.9859 26.5419 16.4718 26.6407 16.8096 26.6943C16.8368 26.6987 16.8634 26.7004 16.8887 26.7041L17.2754 26.3174L15.7871 24.8311L14.6631 25.958ZM8.85742 18.6758C8.86116 18.702 8.8638 18.7295 8.86817 18.7578C8.92008 19.0952 9.01778 19.5807 9.19727 20.1494C9.38309 20.7381 9.65479 21.4098 10.0518 22.0986C9.94666 21.8929 9.85943 21.6877 9.79395 21.4834L9.6084 20.9033L10.7314 19.7773L9.24512 18.2891L8.85742 18.6758Z" fill="#421D12"/>
</svg>
