<svg width="280" height="45" viewBox="0 0 280 45" fill="none" xmlns="http://www.w3.org/2000/svg">
<rect width="280" height="45" rx="3" fill="#D9D9D9"/>
<path d="M107.828 22.386C108.351 22.386 108.761 22.512 109.06 22.764C109.368 23.016 109.522 23.4127 109.522 23.954C109.522 24.458 109.34 24.976 108.976 25.508C108.612 26.04 108.155 26.4833 107.604 26.838C107.053 27.1927 106.521 27.37 106.008 27.37C105.644 27.37 105.345 27.2673 105.112 27.062C104.888 26.8567 104.776 26.5673 104.776 26.194C104.776 25.6807 105.009 25.0693 105.476 24.36C105.56 24.248 105.621 24.192 105.658 24.192C105.695 24.192 105.714 24.2153 105.714 24.262C105.714 24.3087 105.667 24.43 105.574 24.626C105.509 24.7753 105.448 24.962 105.392 25.186C105.336 25.4007 105.308 25.6013 105.308 25.788C105.308 26.2267 105.462 26.446 105.77 26.446C106.106 26.446 106.493 26.3013 106.932 26.012C107.371 25.7133 107.744 25.354 108.052 24.934C108.369 24.514 108.528 24.1313 108.528 23.786C108.528 23.1793 108.187 22.876 107.506 22.876C106.881 22.876 106.069 23.1047 105.07 23.562C104.687 23.73 104.263 23.9587 103.796 24.248C103.665 24.332 103.605 24.4533 103.614 24.612C103.661 25.4053 103.684 25.8907 103.684 26.068C103.684 26.3293 103.661 26.586 103.614 26.838C103.577 27.09 103.535 27.258 103.488 27.342C103.432 27.4447 103.343 27.5427 103.222 27.636C103.101 27.7293 103.012 27.776 102.956 27.776C102.779 27.776 102.653 27.6687 102.578 27.454C102.447 27.118 102.289 26.8287 102.102 26.586C102.009 26.474 101.822 26.3247 101.542 26.138C101.477 26.1007 101.411 26.082 101.346 26.082C101.262 26.082 101.192 26.1053 101.136 26.152C101.061 26.208 100.968 26.278 100.856 26.362C100.753 26.4367 100.665 26.4927 100.59 26.53C100.525 26.5673 100.455 26.586 100.38 26.586C100.147 26.586 99.9367 26.4787 99.75 26.264C99.5727 26.04 99.484 25.802 99.484 25.55C99.484 25.3633 99.5353 25.2233 99.638 25.13C99.75 25.0367 99.8527 24.99 99.946 24.99C100.002 24.99 100.095 25.018 100.226 25.074C100.366 25.13 100.455 25.158 100.492 25.158L100.604 25.144C100.996 25.0133 101.701 24.682 102.718 24.15C102.858 24.066 102.928 23.9493 102.928 23.8C102.928 23.0907 102.923 22.5727 102.914 22.246C102.914 22.162 102.895 22.0967 102.858 22.05C102.821 22.0033 102.769 21.98 102.704 21.98C102.676 21.98 102.634 21.9893 102.578 22.008L101.878 22.232C101.682 22.26 101.565 22.274 101.528 22.274C101.22 22.274 100.959 22.1993 100.744 22.05C100.389 21.8073 100.105 21.5413 99.89 21.252C99.8153 21.1773 99.778 21.1167 99.778 21.07C99.778 21.0327 99.8013 21.014 99.848 21.014C99.8947 21.014 99.974 21.042 100.086 21.098C100.254 21.1727 100.366 21.2193 100.422 21.238C100.739 21.3313 101.057 21.378 101.374 21.378C101.505 21.378 101.598 21.3733 101.654 21.364C101.915 21.336 102.251 21.252 102.662 21.112C102.83 21.056 102.914 20.944 102.914 20.776C102.895 20.3747 102.867 20.034 102.83 19.754C102.802 19.474 102.751 19.2593 102.676 19.11C102.611 18.9607 102.513 18.844 102.382 18.76C102.261 18.676 102.139 18.6107 102.018 18.564C101.906 18.5173 101.831 18.4847 101.794 18.466C101.766 18.4567 101.719 18.4427 101.654 18.424C101.598 18.4053 101.57 18.382 101.57 18.354C101.57 18.2887 101.659 18.2187 101.836 18.144C102.032 18.0787 102.195 18.046 102.326 18.046C102.541 18.046 102.755 18.088 102.97 18.172C103.194 18.256 103.367 18.354 103.488 18.466C103.628 18.5873 103.698 18.774 103.698 19.026C103.698 19.1007 103.689 19.1847 103.67 19.278C103.651 19.3713 103.637 19.4413 103.628 19.488C103.628 19.5253 103.623 19.5533 103.614 19.572C103.754 19.7307 103.889 19.852 104.02 19.936C104.263 20.104 104.487 20.2113 104.692 20.258C104.869 20.2953 105.005 20.3467 105.098 20.412C105.191 20.468 105.238 20.552 105.238 20.664C105.238 20.804 105.21 20.9113 105.154 20.986C105.098 21.0513 105.005 21.112 104.874 21.168C104.818 21.196 104.673 21.252 104.44 21.336L103.796 21.588C103.637 21.644 103.558 21.756 103.558 21.924V22.428C103.558 22.8293 103.563 23.128 103.572 23.324C103.591 23.492 103.661 23.576 103.782 23.576C103.829 23.576 103.88 23.562 103.936 23.534C104.365 23.3193 104.687 23.17 104.902 23.086C106.106 22.6193 107.081 22.386 107.828 22.386ZM103.726 20.034C103.707 20.0153 103.693 20.006 103.684 20.006C103.665 20.006 103.642 20.034 103.614 20.09C103.595 20.146 103.581 20.216 103.572 20.3V20.356C103.572 20.468 103.577 20.5613 103.586 20.636C103.605 20.7013 103.623 20.7293 103.642 20.72L103.712 20.678C103.74 20.6593 103.782 20.6313 103.838 20.594C103.903 20.5473 103.936 20.496 103.936 20.44C103.936 20.384 103.908 20.314 103.852 20.23C103.815 20.1647 103.773 20.0993 103.726 20.034ZM109.662 20.104C109.961 20.104 110.231 20.1693 110.474 20.3C110.717 20.4213 110.903 20.58 111.034 20.776C111.174 20.972 111.244 21.168 111.244 21.364C111.244 21.56 111.188 21.714 111.076 21.826C110.964 21.9287 110.829 21.98 110.67 21.98C110.465 21.98 110.306 21.9007 110.194 21.742C109.737 21.1633 109.298 20.874 108.878 20.874C108.691 20.874 108.491 20.9533 108.276 21.112C108.192 21.1587 108.099 21.224 107.996 21.308C107.893 21.392 107.828 21.434 107.8 21.434C107.744 21.434 107.716 21.406 107.716 21.35C107.716 21.3127 107.739 21.2613 107.786 21.196C108.094 20.7853 108.397 20.5007 108.696 20.342C108.995 20.1833 109.317 20.104 109.662 20.104ZM102.9 26.124C102.919 26.0307 102.928 25.7507 102.928 25.284C102.928 25.2 102.909 25.1347 102.872 25.088C102.835 25.032 102.788 25.004 102.732 25.004C102.685 25.004 102.629 25.0273 102.564 25.074L101.892 25.564C101.808 25.6293 101.766 25.6993 101.766 25.774C101.766 25.858 101.817 25.928 101.92 25.984C102.088 26.068 102.256 26.1473 102.424 26.222C102.601 26.2873 102.709 26.32 102.746 26.32C102.839 26.32 102.891 26.2547 102.9 26.124ZM116.83 17.15C116.979 17.15 117.096 17.0893 117.18 16.968L117.292 16.814C117.32 16.7767 117.357 16.7253 117.404 16.66C117.451 16.5947 117.488 16.548 117.516 16.52C117.553 16.4827 117.591 16.464 117.628 16.464C117.693 16.464 117.833 16.5573 118.048 16.744C118.272 16.9213 118.449 17.0893 118.58 17.248C118.617 17.2947 118.636 17.346 118.636 17.402C118.636 17.4767 118.589 17.542 118.496 17.598L118.44 17.626C118.356 17.6633 118.291 17.7053 118.244 17.752C118.207 17.7987 118.188 17.864 118.188 17.948V18.984C118.216 20.02 118.244 20.7853 118.272 21.28V21.336C118.272 21.4667 118.221 21.5647 118.118 21.63C118.006 21.6953 117.875 21.7513 117.726 21.798C117.577 21.8447 117.446 21.868 117.334 21.868C117.25 21.868 117.189 21.8353 117.152 21.77C117.124 21.714 117.11 21.6673 117.11 21.63C117.11 21.5833 117.119 21.532 117.138 21.476C117.157 21.364 117.166 21.2753 117.166 21.21C117.166 21.1727 117.138 21.1447 117.082 21.126C117.035 21.098 116.965 21.084 116.872 21.084H114.828C114.735 21.084 114.66 21.112 114.604 21.168C114.557 21.2147 114.534 21.2847 114.534 21.378V25.34C114.553 26.348 114.585 27.3793 114.632 28.434V28.518C114.632 28.6207 114.595 28.7093 114.52 28.784C114.427 28.8773 114.305 28.9567 114.156 29.022C114.016 29.0873 113.862 29.12 113.694 29.12C113.601 29.12 113.517 29.092 113.442 29.036C113.377 28.98 113.344 28.9147 113.344 28.84C113.381 28.2893 113.414 27.7573 113.442 27.244C113.47 26.7213 113.489 26.04 113.498 25.2V19.404C113.498 18.4987 113.456 17.682 113.372 16.954V16.898C113.372 16.7487 113.428 16.674 113.54 16.674C113.587 16.674 113.638 16.688 113.694 16.716L114.422 17.066C114.525 17.122 114.646 17.15 114.786 17.15H116.83ZM120.974 21.084C120.881 21.084 120.806 21.112 120.75 21.168C120.703 21.2147 120.68 21.2847 120.68 21.378V21.434C120.68 21.4993 120.582 21.574 120.386 21.658C120.199 21.7327 120.008 21.77 119.812 21.77C119.747 21.77 119.691 21.742 119.644 21.686C119.607 21.63 119.588 21.5647 119.588 21.49C119.625 21.1073 119.653 20.6313 119.672 20.062V19.208C119.672 18.452 119.635 17.7147 119.56 16.996V16.94C119.56 16.8 119.621 16.73 119.742 16.73C119.798 16.73 119.845 16.7393 119.882 16.758L120.582 17.066C120.703 17.122 120.825 17.15 120.946 17.15H123.06C123.209 17.15 123.326 17.0847 123.41 16.954L123.508 16.814C123.527 16.786 123.559 16.7393 123.606 16.674C123.653 16.6087 123.695 16.562 123.732 16.534C123.769 16.4967 123.807 16.478 123.844 16.478C123.909 16.478 124.068 16.576 124.32 16.772C124.581 16.9587 124.782 17.1267 124.922 17.276C124.959 17.3227 124.978 17.374 124.978 17.43C124.978 17.4953 124.936 17.556 124.852 17.612C124.824 17.6307 124.782 17.6493 124.726 17.668C124.558 17.724 124.474 17.836 124.474 18.004V27.65C124.474 28.0607 124.39 28.3687 124.222 28.574C124.063 28.7887 123.732 28.9333 123.228 29.008L123.144 29.022C123.013 29.022 122.925 28.938 122.878 28.77C122.831 28.5833 122.752 28.4433 122.64 28.35C122.481 28.2007 122.211 28.0887 121.828 28.014C121.641 27.986 121.548 27.9347 121.548 27.86C121.548 27.8133 121.618 27.79 121.758 27.79C121.749 27.79 122.038 27.804 122.626 27.832L123.102 27.86C123.223 27.86 123.307 27.8367 123.354 27.79C123.401 27.734 123.424 27.65 123.424 27.538V21.378C123.424 21.2847 123.396 21.2147 123.34 21.168C123.293 21.112 123.223 21.084 123.13 21.084H120.974ZM116.872 18.886C116.965 18.886 117.035 18.8627 117.082 18.816C117.138 18.76 117.166 18.6853 117.166 18.592V17.836C117.166 17.7427 117.138 17.6727 117.082 17.626C117.035 17.57 116.965 17.542 116.872 17.542H114.828C114.735 17.542 114.66 17.57 114.604 17.626C114.557 17.6727 114.534 17.7427 114.534 17.836V18.592C114.534 18.6853 114.557 18.76 114.604 18.816C114.66 18.8627 114.735 18.886 114.828 18.886H116.872ZM123.13 18.886C123.223 18.886 123.293 18.8627 123.34 18.816C123.396 18.76 123.424 18.6853 123.424 18.592V17.836C123.424 17.7427 123.396 17.6727 123.34 17.626C123.293 17.57 123.223 17.542 123.13 17.542H120.974C120.881 17.542 120.806 17.57 120.75 17.626C120.703 17.6727 120.68 17.7427 120.68 17.836V18.592C120.68 18.6853 120.703 18.76 120.75 18.816C120.806 18.8627 120.881 18.886 120.974 18.886H123.13ZM114.828 19.292C114.735 19.292 114.66 19.32 114.604 19.376C114.557 19.4227 114.534 19.4927 114.534 19.586V20.384C114.534 20.4773 114.557 20.552 114.604 20.608C114.66 20.6547 114.735 20.678 114.828 20.678H116.872C116.965 20.678 117.035 20.6547 117.082 20.608C117.138 20.552 117.166 20.4773 117.166 20.384V19.586C117.166 19.4927 117.138 19.4227 117.082 19.376C117.035 19.32 116.965 19.292 116.872 19.292H114.828ZM120.974 19.292C120.881 19.292 120.806 19.32 120.75 19.376C120.703 19.4227 120.68 19.4927 120.68 19.586V20.384C120.68 20.4773 120.703 20.552 120.75 20.608C120.806 20.6547 120.881 20.678 120.974 20.678H123.13C123.223 20.678 123.293 20.6547 123.34 20.608C123.396 20.552 123.424 20.4773 123.424 20.384V19.586C123.424 19.4927 123.396 19.4227 123.34 19.376C123.293 19.32 123.223 19.292 123.13 19.292H120.974ZM117.698 26.446C117.502 26.446 117.404 26.4833 117.404 26.558C117.404 26.6607 117.409 26.7353 117.418 26.782V26.88V26.992C117.418 27.104 117.381 27.188 117.306 27.244C117.213 27.3093 117.096 27.37 116.956 27.426C116.816 27.4727 116.671 27.496 116.522 27.496C116.457 27.496 116.401 27.468 116.354 27.412C116.317 27.356 116.298 27.2907 116.298 27.216C116.335 26.8613 116.363 26.404 116.382 25.844V25.018C116.382 24.1967 116.349 23.4873 116.284 22.89V22.834C116.284 22.694 116.345 22.624 116.466 22.624C116.522 22.624 116.569 22.6333 116.606 22.652L117.292 22.96C117.423 23.016 117.544 23.044 117.656 23.044H120.064C120.213 23.044 120.335 22.988 120.428 22.876L120.526 22.75C120.545 22.722 120.577 22.68 120.624 22.624C120.671 22.5587 120.713 22.512 120.75 22.484C120.787 22.456 120.825 22.442 120.862 22.442C120.927 22.442 121.072 22.526 121.296 22.694C121.529 22.8527 121.707 23.002 121.828 23.142C121.865 23.1887 121.884 23.24 121.884 23.296C121.884 23.3613 121.842 23.422 121.758 23.478L121.674 23.52C121.515 23.576 121.436 23.6833 121.436 23.842V24.71C121.464 25.5593 121.487 26.2033 121.506 26.642V26.712C121.506 26.8427 121.459 26.936 121.366 26.992C121.263 27.0667 121.137 27.132 120.988 27.188C120.839 27.244 120.703 27.272 120.582 27.272C120.498 27.272 120.437 27.2393 120.4 27.174C120.372 27.118 120.358 27.0713 120.358 27.034C120.358 26.9967 120.367 26.9407 120.386 26.866L120.414 26.726C120.414 26.5393 120.316 26.446 120.12 26.446H117.698ZM117.698 23.436C117.605 23.436 117.53 23.464 117.474 23.52C117.427 23.5667 117.404 23.6367 117.404 23.73V25.732C117.404 25.8253 117.427 25.9 117.474 25.956C117.53 26.0027 117.605 26.026 117.698 26.026H120.12C120.213 26.026 120.283 26.0027 120.33 25.956C120.386 25.9 120.414 25.8253 120.414 25.732V23.73C120.414 23.6367 120.386 23.5667 120.33 23.52C120.283 23.464 120.213 23.436 120.12 23.436H117.698ZM131.516 27.636C131.311 27.636 131.049 27.5613 130.732 27.412C130.424 27.2627 130.088 27.0293 129.724 26.712C128.809 25.8907 128.352 24.654 128.352 23.002C128.352 22.5633 128.389 22.0733 128.464 21.532C128.52 21.1027 128.548 20.8133 128.548 20.664C128.548 20.384 128.506 20.1367 128.422 19.922C128.338 19.7073 128.193 19.516 127.988 19.348C127.913 19.2827 127.876 19.236 127.876 19.208C127.876 19.18 127.904 19.1613 127.96 19.152C128.025 19.1333 128.091 19.124 128.156 19.124C128.399 19.124 128.646 19.1847 128.898 19.306C129.159 19.418 129.374 19.5767 129.542 19.782C129.719 19.9873 129.808 20.2067 129.808 20.44C129.808 20.5613 129.785 20.706 129.738 20.874C129.701 21.042 129.654 21.21 129.598 21.378C129.486 21.7513 129.397 22.078 129.332 22.358C129.276 22.6287 129.248 22.9413 129.248 23.296C129.248 23.7627 129.332 24.1967 129.5 24.598C129.677 24.99 129.883 25.3027 130.116 25.536C130.359 25.7693 130.573 25.886 130.76 25.886C130.881 25.886 130.961 25.7927 130.998 25.606C131.194 24.7847 131.376 24.1967 131.544 23.842C131.628 23.6647 131.698 23.576 131.754 23.576C131.782 23.576 131.796 23.604 131.796 23.66C131.796 23.66 131.782 23.744 131.754 23.912C131.651 24.388 131.6 24.8313 131.6 25.242C131.6 25.4287 131.628 25.69 131.684 26.026C131.712 26.1847 131.773 26.3713 131.866 26.586C131.969 26.8287 132.02 27.0153 132.02 27.146C132.02 27.2953 131.973 27.4167 131.88 27.51C131.796 27.594 131.675 27.636 131.516 27.636ZM137.396 24.038C137.2 24.038 137.051 23.9867 136.948 23.884C136.845 23.7813 136.771 23.6413 136.724 23.464C136.715 23.4267 136.668 23.2447 136.584 22.918C136.509 22.5913 136.379 22.2693 136.192 21.952C136.015 21.6347 135.814 21.4153 135.59 21.294C135.375 21.182 135.077 21.126 134.694 21.126H134.456C134.372 21.126 134.33 21.1027 134.33 21.056C134.33 21.0093 134.381 20.9673 134.484 20.93C134.764 20.8367 135.063 20.79 135.38 20.79C136.043 20.79 136.626 21.0093 137.13 21.448C137.475 21.756 137.718 22.078 137.858 22.414C138.007 22.75 138.082 23.0207 138.082 23.226C138.082 23.4407 138.012 23.632 137.872 23.8C137.741 23.9587 137.583 24.038 137.396 24.038ZM147.49 17.416C147.434 17.304 147.373 17.248 147.308 17.248C147.233 17.248 147.168 17.2947 147.112 17.388C146.468 18.34 145.595 19.278 144.494 20.202C143.393 21.126 142.254 21.8633 141.078 22.414C140.994 22.4513 140.924 22.4747 140.868 22.484C140.821 22.484 140.789 22.47 140.77 22.442V22.414C140.77 22.358 140.835 22.288 140.966 22.204C141.685 21.7467 142.413 21.1727 143.15 20.482C143.887 19.7913 144.531 19.082 145.082 18.354C145.614 17.6353 145.964 16.9587 146.132 16.324C146.188 16.128 146.309 16.058 146.496 16.114L147.756 16.492C147.821 16.5107 147.877 16.5433 147.924 16.59C147.971 16.6273 147.994 16.6693 147.994 16.716C147.994 16.772 147.961 16.8047 147.896 16.814C147.793 16.8887 147.742 16.9727 147.742 17.066C147.742 17.094 147.756 17.1313 147.784 17.178C148.353 17.9247 149.1 18.6013 150.024 19.208C150.948 19.8053 151.965 20.3233 153.076 20.762C153.235 20.8367 153.314 20.902 153.314 20.958C153.305 21.014 153.225 21.0747 153.076 21.14C152.805 21.2707 152.609 21.4713 152.488 21.742C152.423 21.854 152.343 21.91 152.25 21.91C152.213 21.91 152.157 21.896 152.082 21.868C151.093 21.3267 150.192 20.6733 149.38 19.908C148.568 19.1333 147.938 18.3027 147.49 17.416ZM145.908 21.756C145.413 21.7653 144.891 21.8167 144.34 21.91H144.256C144.135 21.91 144.041 21.8493 143.976 21.728L143.92 21.63C143.892 21.574 143.878 21.518 143.878 21.462C143.878 21.406 143.901 21.364 143.948 21.336C143.995 21.2987 144.06 21.2847 144.144 21.294C144.461 21.322 144.942 21.3453 145.586 21.364H148.036C148.185 21.364 148.302 21.3033 148.386 21.182L148.582 20.902C148.619 20.846 148.671 20.776 148.736 20.692C148.801 20.5987 148.853 20.5333 148.89 20.496C148.937 20.4493 148.979 20.426 149.016 20.426C149.081 20.426 149.254 20.5427 149.534 20.776C149.823 21.0093 150.038 21.21 150.178 21.378C150.225 21.4433 150.248 21.4993 150.248 21.546C150.248 21.602 150.225 21.644 150.178 21.672C150.122 21.728 150.029 21.756 149.898 21.756H145.908ZM144.508 28.042C144.415 28.042 144.34 28.0653 144.284 28.112C144.237 28.168 144.214 28.2427 144.214 28.336V28.742C144.214 28.798 144.111 28.8727 143.906 28.966C143.701 29.0593 143.491 29.106 143.276 29.106C143.201 29.106 143.141 29.078 143.094 29.022C143.047 28.966 143.024 28.9007 143.024 28.826C143.061 28.3873 143.089 27.832 143.108 27.16V26.18C143.108 25.284 143.066 24.4627 142.982 23.716V23.66C142.982 23.52 143.043 23.45 143.164 23.45C143.22 23.45 143.267 23.4593 143.304 23.478L144.13 23.842C144.251 23.898 144.373 23.926 144.494 23.926H149.45C149.599 23.926 149.721 23.87 149.814 23.758L149.94 23.59C149.968 23.562 150.005 23.5153 150.052 23.45C150.108 23.3847 150.155 23.338 150.192 23.31C150.229 23.2727 150.267 23.254 150.304 23.254C150.369 23.254 150.533 23.352 150.794 23.548C151.055 23.744 151.256 23.9167 151.396 24.066C151.443 24.1313 151.466 24.1827 151.466 24.22C151.466 24.2947 151.424 24.3553 151.34 24.402C151.312 24.4207 151.284 24.4347 151.256 24.444C151.228 24.4533 151.205 24.4627 151.186 24.472C151.018 24.528 150.934 24.6353 150.934 24.794V25.928C150.962 27.048 150.99 27.8647 151.018 28.378V28.434C151.018 28.574 150.967 28.6767 150.864 28.742C150.743 28.8073 150.598 28.8633 150.43 28.91C150.262 28.966 150.117 28.994 149.996 28.994H149.94C149.828 28.966 149.772 28.8727 149.772 28.714C149.791 28.6393 149.8 28.5833 149.8 28.546L149.828 28.364V28.336C149.828 28.2427 149.8 28.168 149.744 28.112C149.697 28.0653 149.627 28.042 149.534 28.042H144.508ZM144.508 24.332C144.415 24.332 144.34 24.36 144.284 24.416C144.237 24.4627 144.214 24.5327 144.214 24.626V27.342C144.214 27.4353 144.237 27.51 144.284 27.566C144.34 27.6127 144.415 27.636 144.508 27.636H149.534C149.627 27.636 149.697 27.6127 149.744 27.566C149.8 27.51 149.828 27.4353 149.828 27.342V24.626C149.828 24.5327 149.8 24.4627 149.744 24.416C149.697 24.36 149.627 24.332 149.534 24.332H144.508ZM162.792 20.398C163.417 20.398 163.973 20.5333 164.458 20.804C164.953 21.0747 165.335 21.4433 165.606 21.91C165.886 22.3767 166.026 22.8993 166.026 23.478C166.026 24.2713 165.774 24.9853 165.27 25.62C164.775 26.2453 164.131 26.7587 163.338 27.16C162.554 27.5613 161.719 27.846 160.832 28.014C160.711 28.042 160.613 28.056 160.538 28.056C160.445 28.056 160.398 28.0327 160.398 27.986C160.398 27.93 160.454 27.888 160.566 27.86C161.378 27.6453 162.106 27.2953 162.75 26.81C163.403 26.3247 163.912 25.7647 164.276 25.13C164.649 24.486 164.836 23.842 164.836 23.198C164.836 22.7407 164.729 22.344 164.514 22.008C164.309 21.6627 164.024 21.3967 163.66 21.21C163.296 21.0233 162.895 20.93 162.456 20.93C161.905 20.93 161.327 21.0793 160.72 21.378C160.113 21.6767 159.549 22.0967 159.026 22.638C158.933 22.7407 158.881 22.862 158.872 23.002V23.506C158.872 24.6727 158.97 25.7507 159.166 26.74C159.194 26.908 159.208 27.0527 159.208 27.174C159.208 27.4073 159.161 27.5847 159.068 27.706C158.984 27.8273 158.886 27.888 158.774 27.888C158.625 27.888 158.489 27.8273 158.368 27.706C158.256 27.5847 158.181 27.426 158.144 27.23C158.079 26.754 157.934 26.124 157.71 25.34C157.673 25.2 157.607 25.13 157.514 25.13C157.43 25.13 157.36 25.186 157.304 25.298L157.024 25.858C156.931 26.054 156.819 26.1987 156.688 26.292C156.567 26.3853 156.445 26.432 156.324 26.432C156.212 26.432 156.109 26.3853 156.016 26.292C155.923 26.1893 155.876 26.068 155.876 25.928V25.83C155.904 25.718 155.941 25.606 155.988 25.494C156.063 25.3167 156.179 25.1253 156.338 24.92C156.506 24.7053 156.753 24.4067 157.08 24.024C157.145 23.9493 157.178 23.87 157.178 23.786C157.178 23.7487 157.169 23.6927 157.15 23.618C156.823 22.7687 156.576 22.246 156.408 22.05C156.203 21.8073 156.1 21.63 156.1 21.518C156.1 21.4153 156.147 21.336 156.24 21.28C156.343 21.2147 156.445 21.182 156.548 21.182L156.828 21.196C157.024 21.196 157.183 21.182 157.304 21.154C157.425 21.126 157.556 21.0747 157.696 21C157.901 20.8787 158.135 20.72 158.396 20.524C158.508 20.44 158.569 20.3233 158.578 20.174C158.625 19.754 158.667 19.4087 158.704 19.138C158.769 18.6247 158.802 18.2513 158.802 18.018C158.802 17.5327 158.643 17.1313 158.326 16.814C158.298 16.7767 158.256 16.7347 158.2 16.688C158.144 16.6413 158.116 16.604 158.116 16.576C158.116 16.5293 158.163 16.506 158.256 16.506C158.433 16.506 158.653 16.5667 158.914 16.688C159.521 16.968 159.824 17.3227 159.824 17.752C159.824 17.9387 159.754 18.1813 159.614 18.48C159.465 18.788 159.371 19.0307 159.334 19.208C159.315 19.264 159.297 19.348 159.278 19.46L159.25 19.642C159.25 19.7633 159.287 19.81 159.362 19.782C159.418 19.754 159.479 19.74 159.544 19.74C159.675 19.74 159.829 19.8193 160.006 19.978C160.099 20.0433 160.146 20.146 160.146 20.286C160.146 20.5007 160.057 20.7293 159.88 20.972L159.852 21.014C159.768 21.126 159.698 21.252 159.642 21.392C159.595 21.532 159.6 21.5833 159.656 21.546C159.871 21.406 159.992 21.3267 160.02 21.308C160.991 20.7013 161.915 20.398 162.792 20.398ZM156.87 22.022C156.833 22.022 156.814 22.0547 156.814 22.12C156.814 22.1853 156.833 22.2693 156.87 22.372L157.248 23.268C157.285 23.38 157.332 23.4547 157.388 23.492C157.444 23.52 157.495 23.5107 157.542 23.464L157.682 23.282C157.981 22.8993 158.2 22.5727 158.34 22.302C158.405 22.19 158.443 22.0687 158.452 21.938L158.466 21.672V21.644C158.466 21.5787 158.447 21.5227 158.41 21.476C158.382 21.4293 158.345 21.406 158.298 21.406C158.242 21.406 158.177 21.4433 158.102 21.518C158.083 21.546 158.037 21.602 157.962 21.686C157.887 21.77 157.813 21.84 157.738 21.896C157.673 21.9427 157.603 21.98 157.528 22.008C157.416 22.0547 157.285 22.078 157.136 22.078C157.061 22.078 156.987 22.0593 156.912 22.022H156.87ZM158.34 24.08C158.331 23.688 158.317 23.506 158.298 23.534L158.228 23.632C158.144 23.7533 158.018 23.9633 157.85 24.262C157.803 24.3367 157.78 24.4067 157.78 24.472C157.78 24.5093 157.799 24.5747 157.836 24.668C157.995 25.06 158.111 25.3027 158.186 25.396C158.242 25.284 158.275 25.186 158.284 25.102C158.303 24.598 158.321 24.2573 158.34 24.08ZM180.544 20.496C180.637 20.552 180.717 20.6267 180.782 20.72C180.847 20.804 180.88 20.888 180.88 20.972C180.88 21.112 180.829 21.238 180.726 21.35C180.623 21.4527 180.502 21.504 180.362 21.504C180.297 21.504 180.18 21.49 180.012 21.462C179.34 21.35 178.785 21.294 178.346 21.294L177.59 21.308C177.394 21.3267 177.291 21.4247 177.282 21.602C177.198 22.3673 177.086 23.002 176.946 23.506C176.675 24.4953 176.283 24.99 175.77 24.99C175.611 24.99 175.509 24.962 175.462 24.906C175.415 24.8407 175.373 24.7333 175.336 24.584C175.299 24.3507 175.21 24.1267 175.07 23.912C174.939 23.688 174.776 23.4593 174.58 23.226C174.543 23.1793 174.505 23.142 174.468 23.114C174.44 23.086 174.417 23.058 174.398 23.03C174.379 23.002 174.37 22.9693 174.37 22.932C174.37 22.904 174.384 22.89 174.412 22.89C174.459 22.89 174.519 22.9133 174.594 22.96C174.65 22.9973 174.818 23.114 175.098 23.31C175.387 23.4967 175.588 23.59 175.7 23.59C175.784 23.59 175.854 23.562 175.91 23.506C176.162 23.2073 176.335 22.6147 176.428 21.728V21.672C176.428 21.5787 176.4 21.5133 176.344 21.476C176.297 21.4293 176.227 21.4153 176.134 21.434C175.07 21.5927 174.085 21.8493 173.18 22.204C173.031 22.2693 172.956 22.386 172.956 22.554C173.012 24.1593 173.105 25.2793 173.236 25.914C173.311 26.278 173.465 26.516 173.698 26.628C173.941 26.74 174.258 26.796 174.65 26.796C175.033 26.796 175.443 26.7727 175.882 26.726C176.33 26.67 176.736 26.5907 177.1 26.488C177.287 26.4507 177.417 26.432 177.492 26.432C177.707 26.432 177.889 26.488 178.038 26.6C178.197 26.7027 178.276 26.8333 178.276 26.992C178.276 27.2067 178.187 27.3607 178.01 27.454C177.833 27.538 177.599 27.6033 177.31 27.65C176.685 27.7433 176.045 27.79 175.392 27.79C174.048 27.79 173.194 27.5567 172.83 27.09C172.662 26.922 172.536 26.6513 172.452 26.278C172.377 25.9047 172.312 25.4333 172.256 24.864C172.2 24.2293 172.163 23.6273 172.144 23.058C172.125 22.8153 172.097 22.6987 172.06 22.708L171.99 22.75C171.607 22.9367 171.36 23.0627 171.248 23.128C170.977 23.2587 170.781 23.3473 170.66 23.394C170.548 23.4313 170.408 23.45 170.24 23.45C169.857 23.45 169.545 23.324 169.302 23.072C169.069 22.8107 168.952 22.5167 168.952 22.19C168.952 22.0967 168.961 22.0267 168.98 21.98C169.008 21.9333 169.036 21.91 169.064 21.91C169.101 21.91 169.171 21.9613 169.274 22.064C169.498 22.2693 169.769 22.372 170.086 22.372C170.291 22.372 170.571 22.3113 170.926 22.19L171.248 22.078C171.313 22.0593 171.393 22.036 171.486 22.008C171.579 21.9707 171.691 21.9333 171.822 21.896C171.981 21.84 172.06 21.7373 172.06 21.588C172.06 21.2427 172.037 20.8973 171.99 20.552C171.943 20.2067 171.892 19.9687 171.836 19.838C171.761 19.67 171.677 19.544 171.584 19.46C171.5 19.3667 171.393 19.292 171.262 19.236C171.085 19.1613 170.996 19.0913 170.996 19.026C170.996 18.942 171.094 18.872 171.29 18.816C171.495 18.7507 171.682 18.718 171.85 18.718C172.27 18.718 172.615 18.8533 172.886 19.124C173.007 19.2453 173.068 19.3853 173.068 19.544C173.068 19.6187 173.063 19.6887 173.054 19.754C173.045 19.81 173.035 19.866 173.026 19.922C172.979 20.1553 172.956 20.5847 172.956 21.21C172.956 21.3127 172.984 21.3873 173.04 21.434C173.105 21.4807 173.189 21.49 173.292 21.462C174.533 21.126 175.523 20.902 176.26 20.79C176.437 20.762 176.526 20.6593 176.526 20.482C176.535 20.4167 176.54 20.3187 176.54 20.188C176.549 19.7213 176.54 19.2967 176.512 18.914C176.465 18.438 176.251 18.1207 175.868 17.962C175.775 17.9153 175.728 17.8733 175.728 17.836C175.728 17.7613 175.789 17.7007 175.91 17.654C176.031 17.6073 176.153 17.584 176.274 17.584C176.433 17.584 176.61 17.6167 176.806 17.682C177.002 17.738 177.156 17.808 177.268 17.892C177.501 18.0693 177.618 18.2793 177.618 18.522C177.618 18.5873 177.581 18.8067 177.506 19.18L177.492 19.264C177.492 19.3853 177.553 19.4787 177.674 19.544C178.01 19.768 178.369 19.964 178.752 20.132C179.144 20.3 179.48 20.3887 179.76 20.398C179.863 20.4073 179.961 20.412 180.054 20.412C180.157 20.4027 180.25 20.4027 180.334 20.412C180.418 20.4213 180.488 20.4493 180.544 20.496ZM177.842 20.65C178.197 20.65 178.374 20.6033 178.374 20.51C178.374 20.4353 178.169 20.2627 177.758 19.992C177.693 19.9453 177.637 19.922 177.59 19.922C177.478 19.922 177.413 20.006 177.394 20.174L177.38 20.356V20.398C177.38 20.566 177.464 20.65 177.632 20.65H177.842Z" fill="#421D12"/>
<path d="M9.6155 30C9.15517 30 8.77083 29.8458 8.4625 29.5375C8.15417 29.2292 8 28.8448 8 28.3845V17.6155C8 17.1552 8.15417 16.7708 8.4625 16.4625C8.77083 16.1542 9.15517 16 9.6155 16H24.3845C24.8448 16 25.2292 16.1542 25.5375 16.4625C25.8458 16.7708 26 17.1552 26 17.6155V28.3845C26 28.8448 25.8458 29.2292 25.5375 29.5375C25.2292 29.8458 24.8448 30 24.3845 30H9.6155ZM17 23.1155L9 17.8845V28.3845C9 28.564 9.05767 28.7115 9.173 28.827C9.2885 28.9423 9.436 29 9.6155 29H24.3845C24.564 29 24.7115 28.9423 24.827 28.827C24.9423 28.7115 25 28.564 25 28.3845V17.8845L17 23.1155ZM17 22L24.6923 17H9.30775L17 22ZM9 17.8845V17V28.3845C9 28.564 9.05767 28.7115 9.173 28.827C9.2885 28.9423 9.436 29 9.6155 29H9V17.8845Z" fill="#421D12"/>
</svg>
