<svg width="280" height="45" viewBox="0 0 280 45" fill="none" xmlns="http://www.w3.org/2000/svg">
<rect width="280" height="45" rx="3" fill="#D9D9D9"/>
<path d="M108.01 10.08C108.159 10.08 108.276 10.0193 108.36 9.898L108.528 9.66C108.565 9.61333 108.612 9.55267 108.668 9.478C108.733 9.394 108.785 9.33333 108.822 9.296C108.859 9.25867 108.897 9.24 108.934 9.24C109.009 9.24 109.181 9.34733 109.452 9.562C109.732 9.76733 109.937 9.94933 110.068 10.108C110.115 10.1547 110.138 10.206 110.138 10.262C110.138 10.318 110.11 10.3693 110.054 10.416C109.979 10.4627 109.891 10.486 109.788 10.486H105.798C105.705 10.486 105.63 10.514 105.574 10.57C105.527 10.6167 105.504 10.6867 105.504 10.78V11.34C105.504 11.4333 105.527 11.508 105.574 11.564C105.63 11.6107 105.705 11.634 105.798 11.634H109.34C109.499 11.634 109.62 11.578 109.704 11.466L109.844 11.312C109.881 11.2747 109.937 11.2093 110.012 11.116C110.096 11.0227 110.166 10.976 110.222 10.976C110.287 10.976 110.427 11.0833 110.642 11.298C110.866 11.5033 111.034 11.6947 111.146 11.872C111.183 11.9093 111.202 11.956 111.202 12.012C111.202 12.096 111.155 12.152 111.062 12.18C111.043 12.1893 111.02 12.194 110.992 12.194C110.824 12.2407 110.703 12.306 110.628 12.39C110.273 12.8193 109.928 13.1787 109.592 13.468C109.48 13.5707 109.391 13.6033 109.326 13.566C109.289 13.5473 109.27 13.51 109.27 13.454C109.27 13.4073 109.284 13.342 109.312 13.258C109.396 13.0153 109.48 12.712 109.564 12.348L109.578 12.264C109.578 12.1893 109.55 12.1333 109.494 12.096C109.447 12.0493 109.382 12.026 109.298 12.026H105.798C105.705 12.026 105.63 12.054 105.574 12.11C105.527 12.1567 105.504 12.2267 105.504 12.32V13.104C105.532 13.9253 105.555 14.5507 105.574 14.98V15.05C105.574 15.1807 105.527 15.274 105.434 15.33C105.229 15.47 104.949 15.54 104.594 15.54C104.51 15.54 104.445 15.512 104.398 15.456C104.351 15.4 104.328 15.3347 104.328 15.26C104.375 14.7467 104.407 14.0607 104.426 13.202V12.32C104.426 12.2267 104.398 12.1567 104.342 12.11C104.295 12.054 104.225 12.026 104.132 12.026H100.884C100.679 12.026 100.576 12.068 100.576 12.152C100.585 12.18 100.59 12.2173 100.59 12.264C100.59 12.6187 100.529 12.9267 100.408 13.188C100.287 13.4493 100.133 13.6453 99.946 13.776C99.7967 13.8787 99.6333 13.93 99.456 13.93C99.2973 13.93 99.1667 13.8833 99.064 13.79C98.9613 13.6967 98.91 13.5613 98.91 13.384C98.91 13.2627 98.9473 13.1507 99.022 13.048C99.106 12.936 99.2133 12.8473 99.344 12.782C99.5587 12.6607 99.7407 12.4647 99.89 12.194C100.049 11.914 100.137 11.6153 100.156 11.298C100.156 11.0927 100.189 10.99 100.254 10.99C100.329 10.99 100.385 11.0693 100.422 11.228L100.464 11.382C100.511 11.55 100.618 11.634 100.786 11.634H104.132C104.225 11.634 104.295 11.6107 104.342 11.564C104.398 11.508 104.426 11.4333 104.426 11.34V10.78C104.426 10.6867 104.398 10.6167 104.342 10.57C104.295 10.514 104.225 10.486 104.132 10.486H102.508C101.939 10.4953 101.323 10.5467 100.66 10.64H100.576C100.445 10.64 100.352 10.5793 100.296 10.458L100.24 10.346C100.212 10.29 100.198 10.234 100.198 10.178C100.198 10.122 100.221 10.08 100.268 10.052C100.315 10.0147 100.38 10.0007 100.464 10.01C100.781 10.038 101.262 10.0613 101.906 10.08H108.01ZM107.002 13.524C106.806 13.5427 106.633 13.5753 106.484 13.622C106.428 13.6407 106.386 13.65 106.358 13.65C106.246 13.65 106.157 13.5893 106.092 13.468L106.05 13.384C106.022 13.328 106.008 13.272 106.008 13.216C106.008 13.0947 106.101 13.0433 106.288 13.062C106.484 13.0807 106.778 13.0993 107.17 13.118H107.576C107.725 13.118 107.847 13.0573 107.94 12.936L108.024 12.824C108.052 12.7867 108.085 12.74 108.122 12.684C108.169 12.628 108.206 12.586 108.234 12.558C108.271 12.53 108.309 12.516 108.346 12.516C108.411 12.516 108.537 12.5907 108.724 12.74C108.911 12.88 109.055 13.0153 109.158 13.146C109.195 13.1927 109.214 13.2487 109.214 13.314C109.214 13.3607 109.195 13.4027 109.158 13.44C109.102 13.496 109.013 13.524 108.892 13.524H107.002ZM101.836 13.524C101.64 13.5427 101.467 13.5753 101.318 13.622C101.262 13.6407 101.22 13.65 101.192 13.65C101.08 13.65 100.991 13.5893 100.926 13.468L100.884 13.384C100.856 13.328 100.842 13.272 100.842 13.216C100.842 13.0947 100.935 13.0433 101.122 13.062C101.318 13.0807 101.612 13.0993 102.004 13.118H102.396C102.555 13.118 102.676 13.0573 102.76 12.936L102.83 12.838C102.858 12.8007 102.905 12.7447 102.97 12.67C103.035 12.586 103.096 12.544 103.152 12.544C103.227 12.544 103.353 12.614 103.53 12.754C103.707 12.894 103.843 13.0247 103.936 13.146C103.973 13.1927 103.992 13.244 103.992 13.3C103.992 13.3653 103.969 13.4167 103.922 13.454C103.857 13.5007 103.777 13.524 103.684 13.524H101.836ZM107.842 14.532C107.991 14.532 108.108 14.4713 108.192 14.35L108.29 14.224C108.318 14.1867 108.365 14.126 108.43 14.042C108.505 13.9487 108.57 13.902 108.626 13.902C108.701 13.902 108.841 13.9813 109.046 14.14C109.261 14.2893 109.415 14.4293 109.508 14.56C109.555 14.6253 109.578 14.6767 109.578 14.714C109.578 14.77 109.555 14.8213 109.508 14.868C109.443 14.9147 109.359 14.938 109.256 14.938H108.192C107.651 14.9473 107.072 14.9987 106.456 15.092H106.372C106.241 15.092 106.148 15.0313 106.092 14.91L106.036 14.798C106.008 14.742 105.994 14.686 105.994 14.63C105.994 14.5087 106.083 14.4573 106.26 14.476C106.503 14.4947 106.867 14.5133 107.352 14.532H107.842ZM101.668 14.938C101.444 14.9567 101.243 14.9893 101.066 15.036C101.01 15.0547 100.968 15.064 100.94 15.064C100.828 15.064 100.739 15.0033 100.674 14.882L100.632 14.798C100.604 14.742 100.59 14.686 100.59 14.63C100.59 14.5087 100.679 14.4573 100.856 14.476C101.099 14.4947 101.453 14.5133 101.92 14.532H102.396C102.545 14.532 102.667 14.4713 102.76 14.35L102.844 14.238C102.872 14.2007 102.919 14.1447 102.984 14.07C103.049 13.986 103.11 13.944 103.166 13.944C103.241 13.944 103.371 14.014 103.558 14.154C103.754 14.294 103.899 14.4247 103.992 14.546C104.039 14.6113 104.062 14.6673 104.062 14.714C104.062 14.77 104.039 14.8213 103.992 14.868C103.917 14.9147 103.833 14.938 103.74 14.938H101.668ZM107.954 16.03C108.103 16.03 108.22 15.9693 108.304 15.848L108.416 15.68C108.444 15.6427 108.481 15.5913 108.528 15.526C108.584 15.4513 108.626 15.4 108.654 15.372C108.691 15.3347 108.729 15.316 108.766 15.316C108.841 15.316 108.995 15.414 109.228 15.61C109.471 15.806 109.653 15.9833 109.774 16.142C109.811 16.1793 109.83 16.226 109.83 16.282C109.83 16.3473 109.793 16.408 109.718 16.464L109.592 16.52C109.433 16.5947 109.354 16.7067 109.354 16.856V17.738C109.382 18.6247 109.405 19.2827 109.424 19.712V19.782C109.424 19.9127 109.377 20.006 109.284 20.062C109.172 20.1367 109.037 20.202 108.878 20.258C108.729 20.3047 108.589 20.328 108.458 20.328C108.411 20.328 108.369 20.3047 108.332 20.258C108.304 20.202 108.29 20.1273 108.29 20.034C108.29 19.9407 108.262 19.8707 108.206 19.824C108.159 19.768 108.089 19.74 107.996 19.74H105.784C105.691 19.74 105.616 19.768 105.56 19.824C105.513 19.8707 105.49 19.9407 105.49 20.034V20.44C105.49 20.608 105.499 20.7247 105.518 20.79C105.546 20.8553 105.597 20.8973 105.672 20.916C105.756 20.9347 105.901 20.944 106.106 20.944H109.424C109.592 20.944 109.713 20.9347 109.788 20.916C109.872 20.8973 109.942 20.8553 109.998 20.79C110.082 20.65 110.194 20.314 110.334 19.782C110.371 19.6047 110.423 19.516 110.488 19.516C110.544 19.516 110.572 19.614 110.572 19.81L110.586 20.524C110.586 20.6733 110.67 20.79 110.838 20.874C110.941 20.9207 111.006 20.9627 111.034 21C111.062 21.0373 111.076 21.0933 111.076 21.168C111.076 21.4013 110.95 21.574 110.698 21.686C110.446 21.8073 110.003 21.868 109.368 21.868H106.078C105.602 21.868 105.252 21.8307 105.028 21.756C104.804 21.6813 104.645 21.5413 104.552 21.336C104.468 21.1307 104.426 20.8133 104.426 20.384V20.034C104.426 19.9407 104.398 19.8707 104.342 19.824C104.295 19.768 104.225 19.74 104.132 19.74H102.046C101.953 19.74 101.878 19.768 101.822 19.824C101.775 19.8707 101.752 19.9407 101.752 20.034V20.398C101.752 20.4633 101.654 20.5427 101.458 20.636C101.262 20.72 101.061 20.762 100.856 20.762C100.781 20.762 100.721 20.734 100.674 20.678C100.637 20.622 100.618 20.5567 100.618 20.482C100.655 20.09 100.683 19.6 100.702 19.012V18.13C100.702 17.346 100.665 16.5807 100.59 15.834V15.778C100.59 15.7127 100.604 15.6613 100.632 15.624C100.669 15.5867 100.711 15.568 100.758 15.568C100.805 15.568 100.856 15.582 100.912 15.61L101.668 15.946C101.799 16.002 101.92 16.03 102.032 16.03H107.954ZM104.132 17.654C104.225 17.654 104.295 17.6307 104.342 17.584C104.398 17.528 104.426 17.4533 104.426 17.36V16.716C104.426 16.6227 104.398 16.5527 104.342 16.506C104.295 16.45 104.225 16.422 104.132 16.422H102.046C101.953 16.422 101.878 16.45 101.822 16.506C101.775 16.5527 101.752 16.6227 101.752 16.716V17.36C101.752 17.4533 101.775 17.528 101.822 17.584C101.878 17.6307 101.953 17.654 102.046 17.654H104.132ZM107.996 17.654C108.089 17.654 108.159 17.6307 108.206 17.584C108.262 17.528 108.29 17.4533 108.29 17.36V16.716C108.29 16.6227 108.262 16.5527 108.206 16.506C108.159 16.45 108.089 16.422 107.996 16.422H105.784C105.691 16.422 105.616 16.45 105.56 16.506C105.513 16.5527 105.49 16.6227 105.49 16.716V17.36C105.49 17.4533 105.513 17.528 105.56 17.584C105.616 17.6307 105.691 17.654 105.784 17.654H107.996ZM102.046 18.06C101.953 18.06 101.878 18.088 101.822 18.144C101.775 18.1907 101.752 18.2607 101.752 18.354V19.04C101.752 19.1333 101.775 19.208 101.822 19.264C101.878 19.3107 101.953 19.334 102.046 19.334H104.132C104.225 19.334 104.295 19.3107 104.342 19.264C104.398 19.208 104.426 19.1333 104.426 19.04V18.354C104.426 18.2607 104.398 18.1907 104.342 18.144C104.295 18.088 104.225 18.06 104.132 18.06H102.046ZM105.784 18.06C105.691 18.06 105.616 18.088 105.56 18.144C105.513 18.1907 105.49 18.2607 105.49 18.354V19.04C105.49 19.1333 105.513 19.208 105.56 19.264C105.616 19.3107 105.691 19.334 105.784 19.334H107.996C108.089 19.334 108.159 19.3107 108.206 19.264C108.262 19.208 108.29 19.1333 108.29 19.04V18.354C108.29 18.2607 108.262 18.1907 108.206 18.144C108.159 18.088 108.089 18.06 107.996 18.06H105.784ZM122.864 16.688C123.013 16.688 123.13 16.6273 123.214 16.506L123.34 16.338C123.368 16.3007 123.405 16.2493 123.452 16.184C123.508 16.1187 123.555 16.072 123.592 16.044C123.629 16.0067 123.667 15.988 123.704 15.988C123.769 15.988 123.923 16.086 124.166 16.282C124.418 16.478 124.609 16.6553 124.74 16.814C124.777 16.8607 124.796 16.912 124.796 16.968C124.796 17.0333 124.749 17.0987 124.656 17.164L124.53 17.234C124.446 17.2713 124.381 17.3133 124.334 17.36C124.297 17.4067 124.278 17.472 124.278 17.556V18.746C124.306 19.9033 124.334 20.762 124.362 21.322V21.378C124.362 21.5087 124.311 21.6067 124.208 21.672C124.096 21.7467 123.961 21.812 123.802 21.868C123.653 21.924 123.517 21.952 123.396 21.952C123.368 21.952 123.345 21.9473 123.326 21.938C123.214 21.91 123.158 21.826 123.158 21.686C123.158 21.6487 123.167 21.5927 123.186 21.518L123.214 21.364C123.214 21.2707 123.186 21.196 123.13 21.14C123.083 21.0933 123.013 21.07 122.92 21.07H120.106C120.013 21.07 119.938 21.0933 119.882 21.14C119.835 21.196 119.812 21.2707 119.812 21.364V21.756C119.812 21.8213 119.719 21.896 119.532 21.98C119.345 22.0733 119.149 22.12 118.944 22.12C118.869 22.12 118.809 22.092 118.762 22.036C118.715 21.98 118.692 21.9147 118.692 21.84C118.729 21.4013 118.762 20.804 118.79 20.048V18.998C118.79 18.0927 118.748 17.2713 118.664 16.534V16.478C118.664 16.338 118.725 16.268 118.846 16.268C118.902 16.268 118.949 16.2773 118.986 16.296L119.7 16.618C119.803 16.6647 119.924 16.688 120.064 16.688H120.666C120.759 16.688 120.829 16.6647 120.876 16.618C120.932 16.562 120.96 16.4873 120.96 16.394V14.35C120.96 14.2567 120.932 14.1867 120.876 14.14C120.829 14.084 120.759 14.056 120.666 14.056H120.008C119.551 14.0653 119.065 14.1167 118.552 14.21H118.482C118.342 14.21 118.244 14.1447 118.188 14.014L118.132 13.902C118.104 13.846 118.09 13.79 118.09 13.734C118.09 13.678 118.113 13.636 118.16 13.608C118.207 13.5707 118.272 13.5567 118.356 13.566C118.673 13.594 119.154 13.6173 119.798 13.636H120.666C120.759 13.636 120.829 13.6127 120.876 13.566C120.932 13.51 120.96 13.4353 120.96 13.342V11.41C120.96 11.2047 120.853 11.116 120.638 11.144C119.957 11.2653 119.299 11.3447 118.664 11.382H118.58C118.449 11.382 118.379 11.3493 118.37 11.284V11.27C118.37 11.1953 118.459 11.1393 118.636 11.102C119.439 10.9153 120.255 10.668 121.086 10.36C121.926 10.0427 122.617 9.72533 123.158 9.408C123.233 9.37067 123.289 9.352 123.326 9.352C123.401 9.352 123.485 9.38933 123.578 9.464C124.129 9.94933 124.404 10.2387 124.404 10.332C124.404 10.3973 124.339 10.4207 124.208 10.402L124.04 10.388H123.956C123.881 10.388 123.788 10.402 123.676 10.43C123.359 10.542 122.887 10.6727 122.262 10.822C122.094 10.8593 122.01 10.9667 122.01 11.144V13.342C122.01 13.4353 122.033 13.51 122.08 13.566C122.136 13.6127 122.211 13.636 122.304 13.636H123.158C123.307 13.636 123.424 13.5707 123.508 13.44L123.676 13.174C123.723 13.118 123.774 13.048 123.83 12.964C123.886 12.88 123.933 12.8193 123.97 12.782C124.007 12.7353 124.045 12.712 124.082 12.712C124.157 12.712 124.325 12.8333 124.586 13.076C124.857 13.3093 125.048 13.51 125.16 13.678C125.207 13.7433 125.23 13.7947 125.23 13.832C125.23 13.888 125.207 13.9393 125.16 13.986C125.095 14.0327 125.011 14.056 124.908 14.056H122.304C122.211 14.056 122.136 14.084 122.08 14.14C122.033 14.1867 122.01 14.2567 122.01 14.35V16.394C122.01 16.4873 122.033 16.562 122.08 16.618C122.136 16.6647 122.211 16.688 122.304 16.688H122.864ZM115.766 10.206C115.915 10.206 116.032 10.1453 116.116 10.024L116.27 9.8C116.307 9.75333 116.349 9.69267 116.396 9.618C116.452 9.534 116.499 9.47333 116.536 9.436C116.573 9.39867 116.611 9.38 116.648 9.38C116.723 9.38 116.877 9.48267 117.11 9.688C117.353 9.89333 117.53 10.0707 117.642 10.22C117.689 10.2853 117.712 10.3413 117.712 10.388C117.712 10.444 117.684 10.4953 117.628 10.542C117.563 10.5793 117.479 10.598 117.376 10.598H115.822C115.253 10.6073 114.637 10.6587 113.974 10.752H113.89C113.759 10.752 113.666 10.6913 113.61 10.57L113.554 10.472C113.526 10.416 113.512 10.36 113.512 10.304C113.512 10.248 113.535 10.206 113.582 10.178C113.629 10.1407 113.694 10.1267 113.778 10.136C114.077 10.164 114.534 10.1873 115.15 10.206H115.766ZM114.646 12.362C114.179 12.3807 113.741 12.4273 113.33 12.502C113.302 12.5113 113.269 12.516 113.232 12.516C113.111 12.516 113.022 12.4553 112.966 12.334L112.91 12.222C112.882 12.166 112.868 12.11 112.868 12.054C112.868 11.998 112.891 11.956 112.938 11.928C112.985 11.8907 113.05 11.8767 113.134 11.886C113.451 11.914 113.932 11.9373 114.576 11.956H116.452C116.601 11.956 116.718 11.8953 116.802 11.774L116.942 11.564C116.979 11.5173 117.017 11.4613 117.054 11.396C117.101 11.3307 117.147 11.2747 117.194 11.228C117.241 11.1813 117.283 11.158 117.32 11.158C117.395 11.158 117.553 11.256 117.796 11.452C118.039 11.648 118.216 11.8207 118.328 11.97C118.375 12.0353 118.398 12.0913 118.398 12.138C118.398 12.1847 118.375 12.2313 118.328 12.278C118.272 12.334 118.188 12.362 118.076 12.362H114.646ZM115.794 13.748C115.943 13.748 116.06 13.6873 116.144 13.566L116.27 13.384C116.298 13.3467 116.335 13.2953 116.382 13.23C116.438 13.1553 116.485 13.0993 116.522 13.062C116.559 13.0247 116.597 13.006 116.634 13.006C116.709 13.006 116.858 13.0993 117.082 13.286C117.306 13.4727 117.469 13.6407 117.572 13.79C117.609 13.8273 117.628 13.8787 117.628 13.944C117.628 14 117.605 14.0513 117.558 14.098C117.483 14.1447 117.395 14.168 117.292 14.168H115.766C115.197 14.1773 114.581 14.2287 113.918 14.322H113.834C113.703 14.322 113.61 14.2613 113.554 14.14L113.498 14.014C113.47 13.958 113.456 13.902 113.456 13.846C113.456 13.7153 113.545 13.6593 113.722 13.678C114.039 13.706 114.511 13.7293 115.136 13.748H115.794ZM115.752 15.54C115.901 15.54 116.018 15.4747 116.102 15.344L116.228 15.162C116.256 15.1247 116.293 15.0687 116.34 14.994C116.396 14.9193 116.443 14.8633 116.48 14.826C116.517 14.7887 116.555 14.77 116.592 14.77C116.667 14.77 116.816 14.868 117.04 15.064C117.273 15.2507 117.441 15.4187 117.544 15.568C117.591 15.6333 117.614 15.6893 117.614 15.736C117.614 15.792 117.586 15.8433 117.53 15.89C117.465 15.9367 117.385 15.96 117.292 15.96H115.766C115.197 15.9693 114.581 16.0207 113.918 16.114H113.834C113.703 16.114 113.61 16.0533 113.554 15.932L113.498 15.806C113.47 15.75 113.456 15.694 113.456 15.638C113.456 15.582 113.479 15.54 113.526 15.512C113.573 15.4747 113.638 15.4607 113.722 15.47C114.039 15.498 114.501 15.5213 115.108 15.54H115.752ZM114.758 21.042C114.665 21.042 114.59 21.0513 114.534 21.07C114.487 21.098 114.464 21.1307 114.464 21.168C114.464 21.2707 114.469 21.3453 114.478 21.392V21.49V21.602C114.478 21.7233 114.445 21.812 114.38 21.868C114.296 21.9333 114.184 21.9893 114.044 22.036C113.904 22.092 113.759 22.12 113.61 22.12C113.545 22.12 113.489 22.092 113.442 22.036C113.405 21.98 113.386 21.9147 113.386 21.84C113.423 21.448 113.451 20.9533 113.47 20.356V19.46C113.47 18.6667 113.433 17.8967 113.358 17.15V17.094C113.358 16.954 113.419 16.884 113.54 16.884C113.596 16.884 113.643 16.8933 113.68 16.912L114.352 17.22C114.473 17.276 114.595 17.304 114.716 17.304H116.032C116.181 17.304 116.303 17.2433 116.396 17.122L116.494 16.996C116.522 16.9587 116.573 16.898 116.648 16.814C116.723 16.73 116.788 16.688 116.844 16.688C116.909 16.688 117.059 16.772 117.292 16.94C117.525 17.108 117.707 17.262 117.838 17.402C117.875 17.4487 117.894 17.5 117.894 17.556C117.894 17.6213 117.852 17.682 117.768 17.738L117.642 17.794C117.483 17.8687 117.404 17.9807 117.404 18.13V19.096C117.432 20.0387 117.455 20.7527 117.474 21.238V21.308C117.474 21.4387 117.427 21.532 117.334 21.588C117.231 21.6627 117.105 21.7233 116.956 21.77C116.807 21.826 116.671 21.854 116.55 21.854C116.475 21.854 116.419 21.8213 116.382 21.756C116.354 21.7 116.34 21.6533 116.34 21.616C116.34 21.5787 116.349 21.5227 116.368 21.448C116.368 21.4573 116.377 21.4153 116.396 21.322C116.396 21.1353 116.298 21.042 116.102 21.042H114.758ZM122.92 20.664C123.013 20.664 123.083 20.6407 123.13 20.594C123.186 20.538 123.214 20.4633 123.214 20.37V17.402C123.214 17.3087 123.186 17.2387 123.13 17.192C123.083 17.136 123.013 17.108 122.92 17.108H120.106C120.013 17.108 119.938 17.136 119.882 17.192C119.835 17.2387 119.812 17.3087 119.812 17.402V20.37C119.812 20.4633 119.835 20.538 119.882 20.594C119.938 20.6407 120.013 20.664 120.106 20.664H122.92ZM114.758 17.696C114.665 17.696 114.59 17.724 114.534 17.78C114.487 17.8267 114.464 17.8967 114.464 17.99V20.342C114.464 20.4353 114.487 20.51 114.534 20.566C114.59 20.6127 114.665 20.636 114.758 20.636H116.102C116.195 20.636 116.265 20.6127 116.312 20.566C116.368 20.51 116.396 20.4353 116.396 20.342V17.99C116.396 17.8967 116.368 17.8267 116.312 17.78C116.265 17.724 116.195 17.696 116.102 17.696H114.758ZM136.626 12.95C136.962 12.95 137.256 13.0573 137.508 13.272C137.76 13.4867 137.886 13.7667 137.886 14.112C137.886 14.56 137.69 14.938 137.298 15.246C136.915 15.5447 136.407 15.8247 135.772 16.086L135.128 16.324C134.073 16.7253 133.583 16.912 133.658 16.884C133.499 16.9587 133.42 17.0707 133.42 17.22C133.401 17.416 133.401 17.6167 133.42 17.822C133.42 17.906 133.42 18.074 133.42 18.326C133.429 18.578 133.429 18.7413 133.42 18.816C133.411 18.984 133.345 19.1333 133.224 19.264C133.112 19.3947 132.981 19.46 132.832 19.46C132.692 19.46 132.566 19.3993 132.454 19.278C132.351 19.1567 132.3 19.0167 132.3 18.858C132.3 18.8207 132.319 18.606 132.356 18.214C132.356 18.158 132.365 18.0553 132.384 17.906V17.85C132.384 17.7007 132.323 17.626 132.202 17.626C132.137 17.626 132.081 17.6447 132.034 17.682C131.175 18.2047 130.746 18.7647 130.746 19.362C130.746 20.0433 131.413 20.384 132.748 20.384C133.019 20.384 133.261 20.3653 133.476 20.328C133.7 20.2907 133.943 20.2393 134.204 20.174C134.251 20.1647 134.367 20.1413 134.554 20.104C134.741 20.0573 134.918 20.034 135.086 20.034C135.291 20.034 135.45 20.076 135.562 20.16C135.674 20.244 135.73 20.3607 135.73 20.51C135.73 20.8273 135.459 21.0513 134.918 21.182C134.386 21.3127 133.812 21.378 133.196 21.378C132.113 21.378 131.343 21.21 130.886 20.874C130.438 20.5287 130.214 20.0853 130.214 19.544C130.214 19.0587 130.391 18.62 130.746 18.228C131.101 17.836 131.605 17.458 132.258 17.094C132.398 17.01 132.468 16.898 132.468 16.758V16.548C132.468 16.0533 132.389 15.68 132.23 15.428C132.071 15.176 131.885 15.05 131.67 15.05C131.371 15.05 131.073 15.218 130.774 15.554C130.485 15.8807 130.172 16.296 129.836 16.8L129.682 17.038C129.654 17.0753 129.584 17.178 129.472 17.346C129.36 17.514 129.253 17.6447 129.15 17.738C129.047 17.8313 128.954 17.878 128.87 17.878C128.693 17.878 128.553 17.808 128.45 17.668C128.357 17.528 128.31 17.3553 128.31 17.15C128.31 16.8793 128.427 16.632 128.66 16.408L128.87 16.212C129.131 15.9693 129.355 15.75 129.542 15.554C129.738 15.3487 129.92 15.12 130.088 14.868C130.48 14.2613 130.807 13.594 131.068 12.866C131.087 12.81 131.096 12.768 131.096 12.74C131.096 12.6747 131.068 12.628 131.012 12.6C130.965 12.5627 130.895 12.5487 130.802 12.558C130.503 12.5953 130.284 12.614 130.144 12.614C129.827 12.614 129.551 12.5533 129.318 12.432C129.094 12.3013 128.823 12.096 128.506 11.816C128.469 11.7787 128.45 11.746 128.45 11.718C128.45 11.69 128.473 11.676 128.52 11.676C128.557 11.676 128.623 11.69 128.716 11.718C129.052 11.8393 129.393 11.9 129.738 11.9C130.195 11.9 130.685 11.8253 131.208 11.676C131.357 11.6387 131.446 11.536 131.474 11.368C131.502 11.2 131.516 11.0507 131.516 10.92C131.516 10.528 131.367 10.2293 131.068 10.024C130.993 9.97733 130.956 9.93067 130.956 9.884C130.965 9.8 130.993 9.73467 131.04 9.688C131.087 9.632 131.152 9.604 131.236 9.604C131.367 9.604 131.549 9.632 131.782 9.688C132.025 9.744 132.183 9.814 132.258 9.898C132.323 9.97267 132.356 10.0893 132.356 10.248V10.276C132.356 10.3413 132.37 10.4113 132.398 10.486C132.435 10.5513 132.491 10.598 132.566 10.626C132.687 10.654 132.809 10.668 132.93 10.668C133.051 10.668 133.154 10.654 133.238 10.626C133.35 10.6073 133.448 10.598 133.532 10.598C133.756 10.598 133.868 10.6867 133.868 10.864C133.868 11.0227 133.789 11.186 133.63 11.354C133.481 11.522 133.285 11.676 133.042 11.816C132.79 11.956 132.463 12.096 132.062 12.236C131.922 12.292 131.829 12.3853 131.782 12.516C131.567 13.1787 131.325 13.7993 131.054 14.378C131.026 14.4433 131.012 14.504 131.012 14.56C131.012 14.6347 131.049 14.672 131.124 14.672L131.236 14.644C131.404 14.6067 131.53 14.588 131.614 14.588C132.361 14.588 132.86 14.9287 133.112 15.61C133.159 15.7127 133.196 15.764 133.224 15.764C133.271 15.764 133.313 15.7173 133.35 15.624C133.583 15.1013 133.929 14.588 134.386 14.084C134.666 13.7853 135.007 13.524 135.408 13.3C135.819 13.0667 136.225 12.95 136.626 12.95ZM132.342 10.836C132.305 10.836 132.263 10.9107 132.216 11.06C132.216 11.2 132.244 11.256 132.3 11.228L132.454 11.13C132.519 11.0927 132.552 11.0553 132.552 11.018C132.552 10.9807 132.515 10.9387 132.44 10.892L132.37 10.836H132.342ZM135.45 15.428C135.879 15.176 136.22 14.9053 136.472 14.616C136.733 14.3173 136.864 14.0607 136.864 13.846C136.864 13.5567 136.682 13.412 136.318 13.412C136.075 13.412 135.8 13.496 135.492 13.664C135.184 13.8227 134.895 14.0467 134.624 14.336C134.437 14.5413 134.255 14.7887 134.078 15.078C133.91 15.3673 133.77 15.6613 133.658 15.96C133.621 16.044 133.602 16.1327 133.602 16.226C133.602 16.2727 133.611 16.31 133.63 16.338C133.649 16.366 133.667 16.3707 133.686 16.352L133.994 16.198C134.582 15.9087 135.067 15.652 135.45 15.428ZM147.07 13.314C148.19 13.314 148.75 14.056 148.75 15.54C148.75 15.9133 148.694 16.4127 148.582 17.038C148.479 17.6633 148.316 18.2793 148.092 18.886C147.868 19.4927 147.597 19.9593 147.28 20.286C147.121 20.454 146.949 20.594 146.762 20.706C146.585 20.8087 146.431 20.86 146.3 20.86C146.029 20.86 145.815 20.636 145.656 20.188C145.535 19.8333 145.306 19.4367 144.97 18.998C144.877 18.8673 144.83 18.7833 144.83 18.746C144.83 18.7273 144.844 18.718 144.872 18.718C144.909 18.718 144.998 18.7647 145.138 18.858C145.278 18.942 145.385 19.0027 145.46 19.04C145.525 19.0773 145.614 19.1333 145.726 19.208C145.847 19.2827 145.95 19.3387 146.034 19.376C146.118 19.4133 146.197 19.432 146.272 19.432C146.58 19.432 146.855 19.1753 147.098 18.662C147.35 18.1487 147.541 17.556 147.672 16.884C147.812 16.2027 147.882 15.652 147.882 15.232C147.882 14.784 147.817 14.448 147.686 14.224C147.555 13.9907 147.341 13.874 147.042 13.874C146.687 13.874 146.211 14.0093 145.614 14.28C145.483 14.3453 145.399 14.448 145.362 14.588C144.923 16.5013 144.247 18.1953 143.332 19.67C143.201 19.894 143.057 20.0713 142.898 20.202C142.739 20.3327 142.59 20.398 142.45 20.398C142.319 20.398 142.212 20.356 142.128 20.272C142.044 20.1787 142.002 20.0573 142.002 19.908C142.002 19.6093 142.175 19.2407 142.52 18.802C143.369 17.6727 143.985 16.5013 144.368 15.288C144.387 15.232 144.396 15.19 144.396 15.162C144.396 15.0407 144.335 14.98 144.214 14.98C144.177 14.98 144.121 14.994 144.046 15.022C143.449 15.3113 143.038 15.456 142.814 15.456C142.618 15.456 142.417 15.3907 142.212 15.26C142.007 15.12 141.834 14.9473 141.694 14.742C141.563 14.5367 141.498 14.3313 141.498 14.126C141.498 14.0327 141.521 13.986 141.568 13.986C141.605 13.986 141.661 14.0093 141.736 14.056C141.811 14.0933 141.867 14.1213 141.904 14.14C142.165 14.2613 142.455 14.322 142.772 14.322C143.351 14.294 143.925 14.182 144.494 13.986C144.643 13.93 144.732 13.8273 144.76 13.678C144.853 13.174 144.9 12.754 144.9 12.418C144.9 11.9327 144.802 11.5733 144.606 11.34C144.522 11.228 144.415 11.116 144.284 11.004C144.163 10.892 144.102 10.8173 144.102 10.78C144.102 10.724 144.149 10.682 144.242 10.654C144.335 10.6167 144.457 10.598 144.606 10.598C144.783 10.598 144.97 10.6213 145.166 10.668C145.362 10.7147 145.511 10.78 145.614 10.864C145.857 11.0133 145.978 11.2187 145.978 11.48C145.978 11.592 145.941 11.8067 145.866 12.124C145.81 12.292 145.768 12.4693 145.74 12.656L145.656 13.216L145.642 13.314C145.642 13.3887 145.665 13.4447 145.712 13.482C145.759 13.51 145.824 13.5147 145.908 13.496C146.337 13.3747 146.725 13.314 147.07 13.314ZM149.982 13.272C150.747 13.2907 151.373 13.4307 151.858 13.692C152.353 13.9533 152.712 14.2613 152.936 14.616C153.16 14.9613 153.272 15.288 153.272 15.596C153.272 15.8293 153.221 16.0393 153.118 16.226C153.025 16.4033 152.903 16.5433 152.754 16.646C152.605 16.7487 152.46 16.8 152.32 16.8C152.236 16.8 152.157 16.7813 152.082 16.744C152.007 16.6973 151.914 16.6367 151.802 16.562C151.559 16.3753 151.074 16.24 150.346 16.156C150.215 16.1373 150.15 16.1093 150.15 16.072C150.15 16.0347 150.22 16.0067 150.36 15.988L150.962 15.918L151.298 15.876C151.578 15.82 151.765 15.764 151.858 15.708C151.961 15.652 152.012 15.5493 152.012 15.4C152.012 14.9613 151.802 14.56 151.382 14.196C150.962 13.8227 150.481 13.5613 149.94 13.412C149.856 13.384 149.814 13.356 149.814 13.328C149.814 13.2907 149.87 13.272 149.982 13.272ZM165.872 12.208C165.956 12.2733 166.007 12.3527 166.026 12.446C166.035 12.4647 166.04 12.502 166.04 12.558C166.04 12.67 166.012 12.7633 165.956 12.838C165.909 12.9127 165.83 12.992 165.718 13.076C165.475 13.244 165.037 13.4587 164.402 13.72C164.243 13.7947 164.169 13.9113 164.178 14.07L164.206 14.518C164.215 14.7233 164.229 15.0407 164.248 15.47C164.267 15.8993 164.276 16.2447 164.276 16.506C164.276 17.5793 164.015 18.55 163.492 19.418C163.156 19.978 162.727 20.44 162.204 20.804C161.691 21.1587 161.229 21.4153 160.818 21.574L160.692 21.602C160.627 21.602 160.594 21.574 160.594 21.518C160.594 21.4807 160.645 21.434 160.748 21.378C161.439 21.0327 161.985 20.4867 162.386 19.74C162.787 18.984 163.058 18.1207 163.198 17.15C163.254 16.7207 163.282 16.1373 163.282 15.4L163.268 14.476C163.249 14.2613 163.137 14.1727 162.932 14.21C162.717 14.2567 162.545 14.28 162.414 14.28C162.078 14.28 161.728 14.196 161.364 14.028C161.009 13.8507 160.734 13.6547 160.538 13.44C160.482 13.3653 160.454 13.3093 160.454 13.272C160.454 13.2347 160.473 13.216 160.51 13.216C160.538 13.216 160.58 13.23 160.636 13.258C160.785 13.314 160.972 13.3653 161.196 13.412C161.42 13.4493 161.607 13.468 161.756 13.468C162.008 13.468 162.409 13.3887 162.96 13.23C163.128 13.1833 163.207 13.0713 163.198 12.894L163.17 12.432C163.142 11.788 163.114 11.382 163.086 11.214C163.058 10.99 162.979 10.8033 162.848 10.654C162.717 10.4953 162.587 10.388 162.456 10.332C162.325 10.2667 162.26 10.2107 162.26 10.164C162.26 10.1173 162.307 10.0847 162.4 10.066C162.493 10.038 162.601 10.024 162.722 10.024C163.105 10.024 163.473 10.0987 163.828 10.248C164.192 10.3973 164.374 10.6027 164.374 10.864C164.374 10.9293 164.346 11.0647 164.29 11.27L164.248 11.41V11.494C164.248 11.6247 164.309 11.7227 164.43 11.788C164.682 11.9093 164.892 11.9887 165.06 12.026C165.153 12.054 165.256 12.068 165.368 12.068C165.387 12.068 165.457 12.0773 165.578 12.096C165.699 12.1147 165.797 12.152 165.872 12.208ZM159.502 14.546C159.549 14.546 159.572 14.574 159.572 14.63C159.572 14.6673 159.525 14.7887 159.432 14.994C159.105 15.7407 158.816 16.5247 158.564 17.346C158.321 18.158 158.2 18.718 158.2 19.026C158.2 19.2033 158.219 19.3667 158.256 19.516C158.303 19.6653 158.363 19.8333 158.438 20.02C158.55 20.272 158.606 20.468 158.606 20.608C158.606 20.7667 158.55 20.8927 158.438 20.986C158.335 21.07 158.228 21.112 158.116 21.112C157.957 21.112 157.775 20.9907 157.57 20.748C157.159 20.272 156.87 19.6467 156.702 18.872C156.534 18.088 156.45 17.3647 156.45 16.702C156.45 16.254 156.478 15.8387 156.534 15.456C156.59 15.0733 156.674 14.6487 156.786 14.182C156.87 13.79 156.935 13.454 156.982 13.174C157.029 12.8847 157.052 12.5907 157.052 12.292C157.052 11.9373 157.005 11.6107 156.912 11.312C156.819 11.0133 156.688 10.7753 156.52 10.598C156.445 10.5233 156.408 10.4673 156.408 10.43C156.408 10.374 156.441 10.346 156.506 10.346C156.534 10.346 156.613 10.374 156.744 10.43C157.155 10.626 157.495 10.9107 157.766 11.284C158.037 11.6573 158.172 12.0493 158.172 12.46C158.172 12.74 158.139 12.9967 158.074 13.23C158.009 13.4633 157.901 13.776 157.752 14.168C157.575 14.6067 157.439 15.0033 157.346 15.358C157.253 15.7033 157.206 16.1047 157.206 16.562C157.206 16.8513 157.234 17.1547 157.29 17.472C157.346 17.78 157.421 17.934 157.514 17.934C157.561 17.934 157.607 17.892 157.654 17.808C157.71 17.724 157.743 17.6727 157.752 17.654L158.06 17.066C158.704 15.8713 159.082 15.1527 159.194 14.91C159.325 14.6673 159.427 14.546 159.502 14.546ZM164.78 12.544C164.827 12.516 164.85 12.4787 164.85 12.432C164.85 12.3573 164.799 12.2967 164.696 12.25L164.514 12.138C164.449 12.1007 164.388 12.082 164.332 12.082C164.22 12.082 164.155 12.1613 164.136 12.32C164.127 12.404 164.122 12.5347 164.122 12.712C164.122 12.7493 164.15 12.768 164.206 12.768C164.299 12.768 164.411 12.7353 164.542 12.67L164.78 12.544ZM175.602 15.274C176.125 15.274 176.624 15.3767 177.1 15.582C177.576 15.778 177.963 16.0813 178.262 16.492C178.57 16.9027 178.724 17.402 178.724 17.99C178.724 18.5967 178.547 19.1333 178.192 19.6C177.837 20.0573 177.375 20.412 176.806 20.664C176.237 20.9067 175.644 21.028 175.028 21.028C174.487 21.028 174.015 20.9067 173.614 20.664C173.213 20.4213 173.012 20.104 173.012 19.712C173.012 19.3947 173.138 19.1287 173.39 18.914C173.651 18.6993 173.973 18.592 174.356 18.592C174.692 18.592 175.014 18.69 175.322 18.886C175.63 19.082 175.877 19.3573 176.064 19.712C176.139 19.8333 176.218 19.894 176.302 19.894C176.358 19.894 176.409 19.8753 176.456 19.838C176.82 19.6047 177.114 19.3107 177.338 18.956C177.562 18.6013 177.674 18.2187 177.674 17.808C177.674 17.0987 177.45 16.5713 177.002 16.226C176.554 15.8807 176.027 15.708 175.42 15.708C174.832 15.708 174.281 15.8853 173.768 16.24C173.264 16.5853 172.769 17.1827 172.284 18.032C172.247 18.0973 172.172 18.2327 172.06 18.438C171.948 18.6433 171.836 18.788 171.724 18.872C171.621 18.956 171.505 18.998 171.374 18.998C171.197 18.998 171.057 18.942 170.954 18.83C170.851 18.718 170.8 18.5827 170.8 18.424C170.8 18.1347 170.903 17.836 171.108 17.528C171.313 17.22 171.663 16.7813 172.158 16.212C173.67 14.476 174.753 13.1833 175.406 12.334C175.453 12.2687 175.509 12.194 175.574 12.11C175.649 12.026 175.7 11.9513 175.728 11.886C175.765 11.8207 175.784 11.76 175.784 11.704C175.784 11.6107 175.747 11.522 175.672 11.438C175.597 11.3447 175.523 11.298 175.448 11.298C175.336 11.298 175.215 11.382 175.084 11.55C174.795 11.9327 174.487 12.25 174.16 12.502C173.833 12.7447 173.511 12.866 173.194 12.866C172.933 12.866 172.713 12.768 172.536 12.572C172.368 12.3667 172.256 12.0587 172.2 11.648L172.186 11.396C172.186 11.312 172.205 11.27 172.242 11.27C172.27 11.27 172.34 11.34 172.452 11.48C172.583 11.648 172.732 11.732 172.9 11.732C173.068 11.732 173.32 11.662 173.656 11.522C174.001 11.3727 174.379 11.1767 174.79 10.934C175.033 10.7753 175.252 10.696 175.448 10.696C175.625 10.696 175.845 10.7473 176.106 10.85C176.377 10.9527 176.61 11.0927 176.806 11.27C177.002 11.438 177.1 11.6247 177.1 11.83C177.1 12.1007 176.932 12.362 176.596 12.614C175.485 13.4727 174.543 14.3733 173.768 15.316C173.712 15.372 173.684 15.428 173.684 15.484C173.684 15.5307 173.698 15.568 173.726 15.596C173.763 15.624 173.81 15.638 173.866 15.638C173.913 15.638 173.964 15.624 174.02 15.596C174.571 15.3813 175.098 15.274 175.602 15.274ZM174.958 20.314C175.042 20.2673 175.103 20.216 175.14 20.16C175.187 20.0947 175.196 20.0293 175.168 19.964C174.935 19.488 174.603 19.25 174.174 19.25C174.006 19.25 173.88 19.292 173.796 19.376C173.712 19.4507 173.67 19.544 173.67 19.656C173.67 19.8333 173.805 19.9873 174.076 20.118C174.356 20.2487 174.65 20.314 174.958 20.314Z" fill="#421D12"/>
<path d="M102.108 36.168C101.66 36.168 101.24 36 100.848 35.664C100.464 35.328 100.152 34.824 99.912 34.152C99.68 33.48 99.564 32.66 99.564 31.692C99.564 30.724 99.684 29.9 99.924 29.22C100.164 28.54 100.476 28.032 100.86 27.696C101.252 27.352 101.676 27.18 102.132 27.18C102.58 27.18 102.996 27.352 103.38 27.696C103.772 28.032 104.084 28.54 104.316 29.22C104.556 29.9 104.676 30.724 104.676 31.692C104.676 32.66 104.556 33.48 104.316 34.152C104.076 34.824 103.76 35.328 103.368 35.664C102.984 36 102.564 36.168 102.108 36.168ZM102.132 35.76C102.596 35.76 102.96 35.424 103.224 34.752C103.496 34.072 103.632 33.052 103.632 31.692C103.632 30.332 103.496 29.312 103.224 28.632C102.96 27.944 102.596 27.6 102.132 27.6C101.66 27.6 101.288 27.944 101.016 28.632C100.744 29.312 100.608 30.332 100.608 31.692C100.608 33.052 100.744 34.072 101.016 34.752C101.288 35.424 101.66 35.76 102.132 35.76ZM107.514 36C107.458 36 107.43 35.944 107.43 35.832C107.43 35.712 107.458 35.652 107.514 35.652H107.706C108.098 35.652 108.414 35.592 108.654 35.472C108.894 35.352 109.014 35.164 109.014 34.908V29.16C109.014 28.92 108.99 28.76 108.942 28.68C108.902 28.592 108.798 28.536 108.63 28.512C108.47 28.48 108.166 28.464 107.718 28.464H107.514C107.458 28.464 107.43 28.404 107.43 28.284C107.43 28.172 107.458 28.116 107.514 28.116C107.946 28.116 108.334 28.064 108.678 27.96C109.03 27.848 109.362 27.672 109.674 27.432C109.738 27.384 109.79 27.36 109.83 27.36C109.926 27.36 109.974 27.432 109.974 27.576V34.908C109.974 35.404 110.41 35.652 111.282 35.652H111.462C111.494 35.652 111.514 35.668 111.522 35.7C111.538 35.724 111.546 35.768 111.546 35.832C111.546 35.944 111.518 36 111.462 36H107.514ZM118.606 35.784C118.574 35.928 118.482 36 118.33 36H114.394C114.25 36 114.162 35.956 114.13 35.868C114.106 35.82 114.094 35.772 114.094 35.724C114.094 35.676 114.106 35.624 114.13 35.568C114.362 34.992 114.646 34.46 114.982 33.972C115.318 33.476 115.758 32.904 116.302 32.256C116.886 31.576 117.31 31.016 117.574 30.576C117.838 30.128 117.97 29.672 117.97 29.208C117.97 28.776 117.85 28.396 117.61 28.068C117.37 27.74 116.994 27.576 116.482 27.576C116.106 27.576 115.786 27.672 115.522 27.864C115.258 28.048 115.126 28.276 115.126 28.548C115.126 28.652 115.138 28.74 115.162 28.812C115.194 28.884 115.242 28.964 115.306 29.052C115.362 29.14 115.402 29.22 115.426 29.292C115.458 29.356 115.474 29.436 115.474 29.532C115.474 29.724 115.414 29.88 115.294 30C115.182 30.112 115.034 30.168 114.85 30.168C114.69 30.168 114.542 30.092 114.406 29.94C114.278 29.78 114.214 29.564 114.214 29.292C114.214 28.996 114.302 28.684 114.478 28.356C114.662 28.028 114.934 27.752 115.294 27.528C115.662 27.296 116.11 27.18 116.638 27.18C117.214 27.18 117.678 27.296 118.03 27.528C118.382 27.752 118.63 28.036 118.774 28.38C118.926 28.716 119.002 29.068 119.002 29.436C119.002 29.772 118.946 30.068 118.834 30.324C118.722 30.572 118.57 30.804 118.378 31.02C118.186 31.228 117.898 31.508 117.514 31.86C117.426 31.948 117.314 32.052 117.178 32.172C117.042 32.292 116.886 32.44 116.71 32.616C116.006 33.328 115.454 34.064 115.054 34.824C115.03 34.872 115.018 34.916 115.018 34.956C115.018 35.068 115.094 35.124 115.246 35.124H116.338C116.922 35.124 117.358 35.092 117.646 35.028C117.934 34.956 118.15 34.832 118.294 34.656C118.446 34.48 118.594 34.196 118.738 33.804C118.754 33.756 118.782 33.732 118.822 33.732C118.83 33.732 118.866 33.74 118.93 33.756C118.978 33.772 119.014 33.788 119.038 33.804C119.062 33.82 119.074 33.844 119.074 33.876L119.062 33.936L118.606 35.784ZM123.919 36.168C123.471 36.168 123.051 36 122.659 35.664C122.275 35.328 121.963 34.824 121.723 34.152C121.491 33.48 121.375 32.66 121.375 31.692C121.375 30.724 121.495 29.9 121.735 29.22C121.975 28.54 122.287 28.032 122.671 27.696C123.063 27.352 123.487 27.18 123.943 27.18C124.391 27.18 124.807 27.352 125.191 27.696C125.583 28.032 125.895 28.54 126.127 29.22C126.367 29.9 126.487 30.724 126.487 31.692C126.487 32.66 126.367 33.48 126.127 34.152C125.887 34.824 125.571 35.328 125.179 35.664C124.795 36 124.375 36.168 123.919 36.168ZM123.943 35.76C124.407 35.76 124.771 35.424 125.035 34.752C125.307 34.072 125.443 33.052 125.443 31.692C125.443 30.332 125.307 29.312 125.035 28.632C124.771 27.944 124.407 27.6 123.943 27.6C123.471 27.6 123.099 27.944 122.827 28.632C122.555 29.312 122.419 30.332 122.419 31.692C122.419 33.052 122.555 34.072 122.827 34.752C123.099 35.424 123.471 35.76 123.943 35.76ZM130.981 33.324C130.981 33.404 130.957 33.468 130.909 33.516C130.869 33.556 130.809 33.576 130.729 33.576H129.013C128.933 33.576 128.869 33.556 128.821 33.516C128.781 33.468 128.761 33.404 128.761 33.324V33.06C128.761 32.98 128.781 32.92 128.821 32.88C128.869 32.832 128.933 32.808 129.013 32.808H130.729C130.809 32.808 130.869 32.832 130.909 32.88C130.957 32.92 130.981 32.98 130.981 33.06V33.324ZM136.315 30.564C136.779 30.564 137.179 30.684 137.515 30.924C137.851 31.156 138.107 31.464 138.283 31.848C138.459 32.232 138.547 32.644 138.547 33.084C138.547 33.636 138.439 34.148 138.223 34.62C138.015 35.092 137.715 35.468 137.323 35.748C136.939 36.028 136.495 36.168 135.991 36.168C135.471 36.168 135.003 36.016 134.587 35.712C134.171 35.408 133.847 34.984 133.615 34.44C133.383 33.888 133.267 33.256 133.267 32.544C133.267 31.4 133.427 30.424 133.747 29.616C134.067 28.8 134.467 28.192 134.947 27.792C135.435 27.384 135.911 27.18 136.375 27.18C136.743 27.18 137.059 27.236 137.323 27.348C137.595 27.452 137.799 27.592 137.935 27.768C138.071 27.944 138.139 28.128 138.139 28.32C138.139 28.488 138.079 28.632 137.959 28.752C137.847 28.864 137.711 28.92 137.551 28.92C137.383 28.92 137.235 28.848 137.107 28.704C136.979 28.552 136.907 28.356 136.891 28.116C136.875 27.932 136.827 27.796 136.747 27.708C136.667 27.62 136.535 27.576 136.351 27.576C135.823 27.576 135.399 27.912 135.079 28.584C134.759 29.256 134.535 30.068 134.407 31.02C134.399 31.084 134.411 31.136 134.443 31.176C134.475 31.208 134.523 31.224 134.587 31.224C134.683 31.224 134.787 31.18 134.899 31.092C135.323 30.74 135.795 30.564 136.315 30.564ZM135.991 35.712C136.287 35.712 136.547 35.604 136.771 35.388C137.003 35.172 137.183 34.876 137.311 34.5C137.439 34.124 137.503 33.704 137.503 33.24C137.503 32.392 137.339 31.828 137.011 31.548C136.691 31.268 136.343 31.128 135.967 31.128C135.655 31.128 135.347 31.232 135.043 31.44C134.739 31.648 134.511 31.976 134.359 32.424C134.327 32.528 134.311 32.632 134.311 32.736C134.327 33.584 134.451 34.292 134.683 34.86C134.923 35.428 135.359 35.712 135.991 35.712ZM143.278 30.396C143.59 30.396 143.93 30.476 144.298 30.636C144.674 30.788 145.006 31.076 145.294 31.5C145.582 31.916 145.726 32.492 145.726 33.228C145.726 33.812 145.594 34.328 145.33 34.776C145.066 35.224 144.73 35.568 144.322 35.808C143.914 36.048 143.502 36.168 143.086 36.168C142.718 36.168 142.354 36.1 141.994 35.964C141.642 35.828 141.35 35.624 141.118 35.352C140.894 35.08 140.782 34.756 140.782 34.38C140.782 34.116 140.838 33.928 140.95 33.816C141.07 33.696 141.202 33.636 141.346 33.636C141.514 33.636 141.666 33.684 141.802 33.78C141.938 33.868 142.006 34.008 142.006 34.2C142.006 34.304 141.982 34.428 141.934 34.572C141.926 34.604 141.914 34.652 141.898 34.716C141.882 34.78 141.874 34.84 141.874 34.896C141.874 35.184 141.986 35.404 142.21 35.556C142.442 35.7 142.698 35.772 142.978 35.772C143.282 35.772 143.562 35.672 143.818 35.472C144.074 35.264 144.278 34.976 144.43 34.608C144.59 34.232 144.67 33.8 144.67 33.312C144.67 32.584 144.522 32 144.226 31.56C143.93 31.12 143.534 30.9 143.038 30.9C142.494 30.9 141.974 31.216 141.478 31.848C141.43 31.912 141.374 31.952 141.31 31.968H141.262C141.214 31.968 141.182 31.956 141.166 31.932H141.154C141.05 31.868 140.998 31.764 140.998 31.62L141.142 27.54C141.142 27.46 141.166 27.4 141.214 27.36C141.262 27.312 141.326 27.288 141.406 27.288H145.09C145.178 27.288 145.242 27.312 145.282 27.36C145.322 27.408 145.334 27.476 145.318 27.564L145.246 27.96C145.238 28.032 145.206 28.088 145.15 28.128C145.102 28.168 145.042 28.188 144.97 28.188H141.79C141.63 28.188 141.542 28.272 141.526 28.44L141.43 30.9C141.414 31.012 141.454 31.068 141.55 31.068C141.63 31.068 141.734 31.016 141.862 30.912C142.102 30.728 142.334 30.596 142.558 30.516C142.782 30.436 143.022 30.396 143.278 30.396ZM151.125 30.564C151.589 30.564 151.989 30.684 152.325 30.924C152.661 31.156 152.917 31.464 153.093 31.848C153.269 32.232 153.357 32.644 153.357 33.084C153.357 33.636 153.249 34.148 153.033 34.62C152.825 35.092 152.525 35.468 152.133 35.748C151.749 36.028 151.305 36.168 150.801 36.168C150.281 36.168 149.813 36.016 149.397 35.712C148.981 35.408 148.657 34.984 148.425 34.44C148.193 33.888 148.077 33.256 148.077 32.544C148.077 31.4 148.237 30.424 148.557 29.616C148.877 28.8 149.277 28.192 149.757 27.792C150.245 27.384 150.721 27.18 151.185 27.18C151.553 27.18 151.869 27.236 152.133 27.348C152.405 27.452 152.609 27.592 152.745 27.768C152.881 27.944 152.949 28.128 152.949 28.32C152.949 28.488 152.889 28.632 152.769 28.752C152.657 28.864 152.521 28.92 152.361 28.92C152.193 28.92 152.045 28.848 151.917 28.704C151.789 28.552 151.717 28.356 151.701 28.116C151.685 27.932 151.637 27.796 151.557 27.708C151.477 27.62 151.345 27.576 151.161 27.576C150.633 27.576 150.209 27.912 149.889 28.584C149.569 29.256 149.345 30.068 149.217 31.02C149.209 31.084 149.221 31.136 149.253 31.176C149.285 31.208 149.333 31.224 149.397 31.224C149.493 31.224 149.597 31.18 149.709 31.092C150.133 30.74 150.605 30.564 151.125 30.564ZM150.801 35.712C151.097 35.712 151.357 35.604 151.581 35.388C151.813 35.172 151.993 34.876 152.121 34.5C152.249 34.124 152.313 33.704 152.313 33.24C152.313 32.392 152.149 31.828 151.821 31.548C151.501 31.268 151.153 31.128 150.777 31.128C150.465 31.128 150.157 31.232 149.853 31.44C149.549 31.648 149.321 31.976 149.169 32.424C149.137 32.528 149.121 32.632 149.121 32.736C149.137 33.584 149.261 34.292 149.493 34.86C149.733 35.428 150.169 35.712 150.801 35.712ZM157.836 33.324C157.836 33.404 157.812 33.468 157.764 33.516C157.724 33.556 157.664 33.576 157.584 33.576H155.868C155.788 33.576 155.724 33.556 155.676 33.516C155.636 33.468 155.616 33.404 155.616 33.324V33.06C155.616 32.98 155.636 32.92 155.676 32.88C155.724 32.832 155.788 32.808 155.868 32.808H157.584C157.664 32.808 157.724 32.832 157.764 32.88C157.812 32.92 157.836 32.98 157.836 33.06V33.324ZM162.546 30.396C162.858 30.396 163.198 30.476 163.566 30.636C163.942 30.788 164.274 31.076 164.562 31.5C164.85 31.916 164.994 32.492 164.994 33.228C164.994 33.812 164.862 34.328 164.598 34.776C164.334 35.224 163.998 35.568 163.59 35.808C163.182 36.048 162.77 36.168 162.354 36.168C161.986 36.168 161.622 36.1 161.262 35.964C160.91 35.828 160.618 35.624 160.386 35.352C160.162 35.08 160.05 34.756 160.05 34.38C160.05 34.116 160.106 33.928 160.218 33.816C160.338 33.696 160.47 33.636 160.614 33.636C160.782 33.636 160.934 33.684 161.07 33.78C161.206 33.868 161.274 34.008 161.274 34.2C161.274 34.304 161.25 34.428 161.202 34.572C161.194 34.604 161.182 34.652 161.166 34.716C161.15 34.78 161.142 34.84 161.142 34.896C161.142 35.184 161.254 35.404 161.478 35.556C161.71 35.7 161.966 35.772 162.246 35.772C162.55 35.772 162.83 35.672 163.086 35.472C163.342 35.264 163.546 34.976 163.698 34.608C163.858 34.232 163.938 33.8 163.938 33.312C163.938 32.584 163.79 32 163.494 31.56C163.198 31.12 162.802 30.9 162.306 30.9C161.762 30.9 161.242 31.216 160.746 31.848C160.698 31.912 160.642 31.952 160.578 31.968H160.53C160.482 31.968 160.45 31.956 160.434 31.932H160.422C160.318 31.868 160.266 31.764 160.266 31.62L160.41 27.54C160.41 27.46 160.434 27.4 160.482 27.36C160.53 27.312 160.594 27.288 160.674 27.288H164.358C164.446 27.288 164.51 27.312 164.55 27.36C164.59 27.408 164.602 27.476 164.586 27.564L164.514 27.96C164.506 28.032 164.474 28.088 164.418 28.128C164.37 28.168 164.31 28.188 164.238 28.188H161.058C160.898 28.188 160.81 28.272 160.794 28.44L160.698 30.9C160.682 31.012 160.722 31.068 160.818 31.068C160.898 31.068 161.002 31.016 161.13 30.912C161.37 30.728 161.602 30.596 161.826 30.516C162.05 30.436 162.29 30.396 162.546 30.396ZM170.393 30.564C170.857 30.564 171.257 30.684 171.593 30.924C171.929 31.156 172.185 31.464 172.361 31.848C172.537 32.232 172.625 32.644 172.625 33.084C172.625 33.636 172.517 34.148 172.301 34.62C172.093 35.092 171.793 35.468 171.401 35.748C171.017 36.028 170.573 36.168 170.069 36.168C169.549 36.168 169.081 36.016 168.665 35.712C168.249 35.408 167.925 34.984 167.693 34.44C167.461 33.888 167.345 33.256 167.345 32.544C167.345 31.4 167.505 30.424 167.825 29.616C168.145 28.8 168.545 28.192 169.025 27.792C169.513 27.384 169.989 27.18 170.453 27.18C170.821 27.18 171.137 27.236 171.401 27.348C171.673 27.452 171.877 27.592 172.013 27.768C172.149 27.944 172.217 28.128 172.217 28.32C172.217 28.488 172.157 28.632 172.037 28.752C171.925 28.864 171.789 28.92 171.629 28.92C171.461 28.92 171.313 28.848 171.185 28.704C171.057 28.552 170.985 28.356 170.969 28.116C170.953 27.932 170.905 27.796 170.825 27.708C170.745 27.62 170.613 27.576 170.429 27.576C169.901 27.576 169.477 27.912 169.157 28.584C168.837 29.256 168.613 30.068 168.485 31.02C168.477 31.084 168.489 31.136 168.521 31.176C168.553 31.208 168.601 31.224 168.665 31.224C168.761 31.224 168.865 31.18 168.977 31.092C169.401 30.74 169.873 30.564 170.393 30.564ZM170.069 35.712C170.365 35.712 170.625 35.604 170.849 35.388C171.081 35.172 171.261 34.876 171.389 34.5C171.517 34.124 171.581 33.704 171.581 33.24C171.581 32.392 171.417 31.828 171.089 31.548C170.769 31.268 170.421 31.128 170.045 31.128C169.733 31.128 169.425 31.232 169.121 31.44C168.817 31.648 168.589 31.976 168.437 32.424C168.405 32.528 168.389 32.632 168.389 32.736C168.405 33.584 168.529 34.292 168.761 34.86C169.001 35.428 169.437 35.712 170.069 35.712ZM176.996 36.156C176.788 36.156 176.632 36.056 176.528 35.856C176.432 35.648 176.384 35.408 176.384 35.136C176.384 34.344 176.68 33.352 177.272 32.16C177.864 30.968 178.564 29.728 179.372 28.44C179.404 28.4 179.42 28.352 179.42 28.296C179.42 28.192 179.348 28.14 179.204 28.14H177.44C176.952 28.14 176.58 28.196 176.324 28.308C176.076 28.412 175.888 28.564 175.76 28.764C175.64 28.964 175.5 29.288 175.34 29.736C175.324 29.768 175.308 29.788 175.292 29.796C175.284 29.804 175.268 29.808 175.244 29.808L175.148 29.784C175.1 29.768 175.064 29.752 175.04 29.736C175.016 29.72 175.004 29.7 175.004 29.676L175.028 29.544L175.22 28.668C175.26 28.46 175.304 28.256 175.352 28.056C175.4 27.848 175.44 27.656 175.472 27.48C175.512 27.336 175.604 27.264 175.748 27.264H179.996C180.14 27.264 180.228 27.308 180.26 27.396C180.276 27.444 180.284 27.476 180.284 27.492C180.284 27.548 180.264 27.616 180.224 27.696C179.472 28.984 178.912 30.028 178.544 30.828C178.176 31.628 177.924 32.352 177.788 33C177.66 33.648 177.596 34.396 177.596 35.244C177.596 35.852 177.396 36.156 176.996 36.156Z" fill="#421D12"/>
<path d="M15.7236 18.6428L13.8389 20.5315L13.623 20.7473L13.7168 21.0374C14.0712 22.1427 14.9315 23.3668 16.1982 24.6702C17.4808 25.9897 18.7656 26.8333 19.8652 27.1858L20.1553 27.2786L20.3711 27.0627L22.2568 25.1721L26.1953 29.1067L24.415 30.887C24.4104 30.8865 24.4052 30.8865 24.4004 30.886C24.2444 30.8707 24.0134 30.8436 23.7207 30.7971C23.1346 30.7041 22.3025 30.5337 21.3301 30.2239C19.3836 29.6037 16.8866 28.4303 14.666 26.218C12.4465 24.0067 11.2778 21.5141 10.6641 19.5696C10.3575 18.5981 10.1908 17.766 10.1006 17.1799C10.0556 16.8873 10.0291 16.6562 10.0146 16.5002C10.0141 16.4944 10.0132 16.4883 10.0127 16.4827L11.791 14.7063L15.7236 18.6428Z" stroke="#421D12"/>
</svg>
