<svg width="330" height="147" viewBox="0 0 330 147" fill="none" xmlns="http://www.w3.org/2000/svg">
<path d="M32.4452 38.0234C20.74 42.1478 13.2324 45.0314 1.48438 50.957L18.427 62.5879L7.5161 84.3848C7.5161 84.3848 31.0317 72.7886 54.189 67.0833V48.3517L32.4413 38.0234H32.4452Z" fill="white"/>
<path d="M32.4476 36.5312C32.6973 36.5312 32.9338 36.5946 33.1424 36.7047L54.8319 47.004C55.3488 47.2498 55.6777 47.7693 55.6777 48.3398V67.0717C55.6776 67.7522 55.2117 68.3452 54.5484 68.5086C43.071 71.3363 31.479 75.6317 22.739 79.23C18.3733 81.0275 14.7278 82.6468 12.1759 83.8164C10.9003 84.4011 9.89835 84.8732 9.21647 85.1984C8.87551 85.361 8.61432 85.4874 8.43935 85.5723C8.35205 85.6147 8.28566 85.6463 8.24193 85.6677L8.18193 85.6976C8.18067 85.6982 8.17957 85.6993 8.17903 85.6995C7.60689 85.9817 6.91694 85.8683 6.46609 85.4181C6.01532 84.968 5.90354 84.2813 6.18834 83.7123L16.5231 63.0655L0.643064 52.1638C0.211423 51.8674 -0.0319049 51.3664 0.00337364 50.8455C0.0386682 50.3244 0.347526 49.8604 0.815326 49.6244C12.6308 43.6648 20.2003 40.7573 31.9221 36.6267C32.0854 36.5656 32.2611 36.5313 32.4437 36.5312H32.4476ZM32.3634 39.6123C21.7783 43.3495 14.6363 46.0905 4.39992 51.1461L19.2735 61.3568C19.8827 61.7751 20.0902 62.5765 19.7602 63.2361L10.7649 81.2047C10.8205 81.1792 10.8766 81.1536 10.9333 81.1276C13.5141 79.9447 17.1953 78.3087 21.6029 76.494C30.126 72.9849 41.4005 68.792 52.7048 65.9171V49.2727L32.3634 39.6123Z" fill="#EB5925"/>
<path d="M275.883 67.0908C299.036 72.8039 322.482 84.3613 322.482 84.3613L315.461 63.3066L328.513 50.9336C316.765 45.0079 309.258 42.1205 297.553 38L276.109 49.8899L275.883 67.0908Z" fill="white"/>
<path d="M296.975 36.6253C297.315 36.4816 297.699 36.4686 298.051 36.5925C309.79 40.725 317.362 43.6363 329.187 49.6008C329.618 49.8181 329.917 50.2305 329.987 50.7062C330.057 51.182 329.89 51.6622 329.541 51.9938L317.171 63.7194L323.895 83.8825C324.084 84.4494 323.912 85.0738 323.459 85.4659C323.007 85.8578 322.362 85.9409 321.825 85.676H321.824C321.823 85.6757 321.822 85.6746 321.821 85.674C321.818 85.6728 321.814 85.6707 321.809 85.6683C321.799 85.663 321.782 85.6556 321.761 85.6451C321.717 85.6238 321.651 85.591 321.564 85.5487C321.39 85.4641 321.129 85.3388 320.789 85.1768C320.109 84.8526 319.11 84.3816 317.838 83.7986C315.292 82.6325 311.656 81.0178 307.3 79.2248C298.578 75.6351 287.004 71.3475 275.528 68.5159C274.858 68.3505 274.39 67.7472 274.399 67.0597L274.625 49.8582C274.632 49.3282 274.923 48.842 275.388 48.5841L296.832 36.6946L296.975 36.6253ZM277.585 50.7535L277.386 65.9292C288.682 68.8069 299.933 72.9895 308.435 76.4888C312.833 78.2991 316.506 79.9304 319.08 81.1098C319.395 81.2542 319.694 81.3929 319.975 81.5233L314.053 63.7609C313.871 63.2169 314.022 62.6179 314.439 62.2228L325.96 51.2999C315.548 46.1386 308.37 43.374 297.691 39.6061L277.585 50.7535Z" fill="#EB5925"/>
<path d="M32.6836 67.7138C32.6836 67.7138 88.5696 43.9571 165.031 43.9571C241.493 43.9571 297.379 67.7138 297.379 67.7138V26.6789C267.477 11.4107 213.254 1.48438 165.031 1.48438C116.809 1.48438 62.5813 11.4107 32.6836 26.6789V67.7138Z" fill="white"/>
<path d="M165.029 0C213.375 0 267.863 9.94056 298.056 25.3575C298.552 25.6109 298.864 26.1198 298.864 26.6749V67.7094C298.864 68.2066 298.613 68.6709 298.196 68.9449C297.779 69.2188 297.253 69.2662 296.794 69.0711L296.792 69.0702C296.791 69.0696 296.788 69.0693 296.786 69.0682C296.78 69.0657 296.771 69.061 296.758 69.0557C296.733 69.0451 296.694 69.0291 296.642 69.0075C296.537 68.9641 296.379 68.8993 296.169 68.8138C295.748 68.6428 295.118 68.3905 294.287 68.0688C292.626 67.4254 290.161 66.5028 286.962 65.3955C280.564 63.1806 271.229 60.2244 259.511 57.2665C236.07 51.3498 203.109 45.4329 165.029 45.4329C126.949 45.4329 93.9876 51.3498 70.5474 57.2665C58.8292 60.2243 49.4952 63.1806 43.0968 65.3955C39.8978 66.5029 37.4325 67.4254 35.7709 68.0688C34.9403 68.3905 34.31 68.6429 33.8896 68.8138C33.6795 68.8992 33.5217 68.9641 33.4173 69.0075C33.3654 69.0291 33.3265 69.045 33.3012 69.0557C33.2885 69.061 33.279 69.0657 33.2731 69.0682C33.2701 69.0695 33.2676 69.0696 33.2663 69.0702L33.2654 69.0711C32.8063 69.2663 32.2796 69.2187 31.8631 68.9449C31.4464 68.6709 31.1953 68.2066 31.1953 67.7094V26.6749C31.1953 26.1197 31.5073 25.6109 32.0034 25.3575C62.1924 9.94054 116.683 4.7673e-05 165.029 0ZM165.029 2.96056C117.363 2.96061 63.9406 12.697 34.1683 27.5866V65.515C34.3339 65.4501 34.5089 65.3813 34.6938 65.3097C36.387 64.654 38.8856 63.7195 42.1204 62.5997C48.59 60.3602 58.007 57.3777 69.8177 54.3965C93.4358 48.4349 126.648 42.4724 165.029 42.4723C203.411 42.4723 236.623 48.4349 260.241 54.3965C272.052 57.3777 281.468 60.3602 287.938 62.5997C291.173 63.7195 293.672 64.654 295.365 65.3097C295.55 65.3813 295.725 65.4501 295.891 65.515V27.5866C266.115 12.6969 212.695 2.96056 165.029 2.96056Z" fill="#EB5925"/>
<path d="M55.6926 33.4922C57.071 40.2489 54.4426 44.8062 49.8049 47.3032L49.5869 47.1872C52.3516 43.5847 53.1187 40.8171 52.1685 35.3785C49.9568 36.0511 47.414 36.8241 45.1127 37.5702C44.6299 37.7828 44.112 38.0997 43.9095 38.2543L43.6953 37.1179C43.9796 37.0754 44.8168 36.913 45.358 36.7468C47.27 36.1438 49.6453 35.421 52.0517 34.7098C51.9855 34.3464 51.896 33.987 51.8298 33.6236L55.6887 33.4922H55.6926Z" fill="#772D2D"/>
<path d="M71.3373 31.6178C71.8396 36.0088 70.0835 40.7362 65.107 42.8969L64.8889 42.7539C66.9722 40.1332 68.3468 37.1375 67.9535 33.7515C65.7183 34.3313 63.1444 35 60.8081 35.6262C60.3174 35.8194 59.7878 36.1132 59.5776 36.2601L59.4023 35.1662C59.71 35.1314 60.5472 34.9806 61.0962 34.8376C63.0315 34.3119 65.438 33.6896 67.8678 33.0827C67.786 32.6807 67.7004 32.2749 67.5758 31.8845L71.3373 31.6255V31.6178ZM62.2644 31.2158C61.2714 31.4709 60.5588 31.8381 60.2629 32.0043L60.1305 30.8988C60.6212 30.8833 61.3922 30.7287 61.9412 30.5857L67.1085 29.2444C67.3849 28.5023 67.4901 28.2046 67.8055 27.6094C68.3 27.6828 69.6941 28.5293 70.0718 29.1942L62.2644 31.2158Z" fill="#772D2D"/>
<path d="M73.6327 28.5989C75.681 28.1776 78.212 28.5138 79.1777 29.3488L77.7019 31.6641C76.5259 30.2803 75.2059 29.457 73.6094 28.7844L73.6366 28.6027L73.6327 28.5989ZM77.1568 37.0099C81.3895 35.2512 84.2126 31.7376 86.5334 26.8672L86.7709 26.9252C86.6268 32.9629 82.8264 37.5086 78.4496 39.7428L77.1568 37.0099Z" fill="#772D2D"/>
<path d="M89.0038 27.3659C90.9313 27.0025 93.2521 27.3427 94.2178 28.1583L92.8744 30.3074C91.7179 28.9275 90.4212 27.992 88.9727 27.5668L89.0038 27.362V27.3659ZM90.7171 24.0725C92.8939 23.8638 95.3159 24.1615 96.2543 24.9423L95.0278 26.8749C93.8985 25.5143 92.1618 24.7219 90.6821 24.2581L90.7171 24.0764V24.0725ZM92.3487 33.5466C96.5464 31.8806 100.343 28.7265 101.827 24.2658L102.103 24.3277C102.193 30.0059 98.2714 34.6985 93.4896 36.6891L92.3526 33.5505L92.3487 33.5466Z" fill="#772D2D"/>
<path d="M104.695 26.6741C109.882 26.2837 112.121 25.932 116.992 25.0391L117.253 26.5968C112.542 27.0723 109.89 27.482 104.765 28.4522L104.691 26.6703L104.695 26.6741Z" fill="#772D2D"/>
<path d="M128.61 19.9812C128.368 22.4859 127.741 24.8361 126.635 26.8229C128.119 27.5844 129.856 28.2531 131.772 28.7478L130.253 31.4072C128.925 30.8931 127.075 29.7799 125.728 28.2221C124.116 30.3906 121.78 31.9638 118.555 32.5591L118.47 32.3736C122.294 30.1703 124.692 26.0923 124.953 21.2954C122.979 21.5002 120.857 21.7438 118.886 21.968C118.372 22.0878 117.823 22.2965 117.57 22.3893L117.582 21.2567C117.89 21.2683 118.723 21.2683 119.307 21.2065C120.954 21.0364 122.924 20.8083 124.969 20.6189C124.984 20.159 124.961 19.726 124.938 19.2738L128.61 19.9812ZM128.376 17.3295C129.56 17.7276 130.525 18.3886 130.942 19.0225L129.696 20.0894C129.424 19.181 128.816 18.1799 128.244 17.5421L128.376 17.3334V17.3295ZM130.004 16.3554C130.977 16.4482 131.966 16.8927 132.765 17.5692L131.686 18.7674C131.308 17.8938 130.631 17.0937 129.899 16.5796L130.008 16.3516L130.004 16.3554Z" fill="#772D2D"/>
<path d="M132.778 24.1486C132.708 23.1977 133.382 22.5212 134.336 22.4517C135.271 22.386 136.069 22.8266 136.147 23.9051C136.221 24.9178 135.609 25.5285 134.566 25.602C133.608 25.6715 132.845 25.0956 132.775 24.1486H132.778Z" fill="#772D2D"/>
<path d="M136.93 29.6605C139.655 27.0939 140.691 24.3108 140.263 20.256L143.487 20.0898C143.884 23.9281 141.809 28.5202 137.093 29.8228L136.93 29.6566V29.6605ZM150.979 27.7935C149.301 26.6223 148.596 23.557 149.013 20.5884L149.359 20.5266C150.048 22.8961 151.676 24.763 153.53 25.969L150.983 27.7896L150.979 27.7935ZM149.873 18.6596C149.815 17.558 150.59 16.8893 151.548 16.839C152.505 16.7888 153.343 17.3531 153.401 18.4779C153.452 19.4288 152.685 20.229 151.703 20.2753C150.765 20.3217 149.92 19.5873 149.873 18.6557V18.6596ZM152.681 18.5166C152.65 17.9561 152.128 17.5271 151.583 17.5541C151.037 17.5812 150.562 18.0605 150.59 18.6248C150.617 19.166 151.143 19.6144 151.688 19.5873C152.233 19.5602 152.708 19.0577 152.681 18.5166Z" fill="#772D2D"/>
<path d="M163.157 22.226C162.744 27.3167 160.124 29.4194 156.642 30.2273L156.51 30.0109C159.388 27.4752 159.742 25.6546 159.473 22.2569L156.833 22.2801C155.809 22.2878 155.026 22.4463 154.699 22.5352L154.843 21.4529C155.322 21.5573 156.109 21.5921 156.677 21.5882L165.007 21.5147C165.439 20.8615 165.63 20.5793 166.062 20.0768C166.545 20.2894 167.686 21.449 167.892 22.1835L163.161 22.226H163.157ZM158.652 18.0436C157.604 18.0514 156.821 18.233 156.518 18.3219L156.638 17.2164C157.141 17.3208 157.927 17.3556 158.492 17.3517L163.877 17.3054C164.329 16.6521 164.524 16.3893 164.956 15.8906C165.415 16.1032 166.58 17.2396 166.763 17.9741L158.652 18.0436Z" fill="#772D2D"/>
<path d="M174.625 24.4352C174.628 25.1077 174.535 28.9151 174.496 30.4072L171.922 30.3453L171.957 24.6284C170.567 25.2662 168.943 25.5948 167.113 25.5059L167.074 25.2469C170.571 24.1182 172.604 22.286 173.565 18.6719L176.435 19.8895C175.668 21.7101 174.387 23.2601 172.619 24.2767L174.621 24.4352H174.625Z" fill="#772D2D"/>
<path d="M178.883 20.1812C180.841 20.2662 183.022 21.1243 183.773 22.1409L181.97 23.9267C181.164 22.3226 180.117 21.1166 178.805 20.3706L178.883 20.1812ZM180.709 26.9572C185.179 26.2923 189.603 24.0852 192.075 20.0807L192.332 20.2044C191.106 25.7512 186.207 29.4272 181.09 30.2737L180.709 26.9572ZM181.312 17.3672C183.481 17.661 185.771 18.4997 186.503 19.4738L184.864 21.0741C184.077 19.4931 182.57 18.3258 181.238 17.5373L181.312 17.3672Z" fill="#772D2D"/>
<path d="M208.429 30.7006L195.603 29.456C194.582 29.3593 193.784 29.456 193.453 29.4908L193.71 28.4278C194.177 28.5824 194.956 28.6983 195.54 28.7563L199.535 29.139C199.703 27.1754 200.014 23.051 200.139 21.3232L197.861 21.1067C196.841 21.0101 196.047 21.0874 195.712 21.1415L195.969 20.0786C196.436 20.2332 197.215 20.3491 197.799 20.4071L204.765 21.072C205.263 20.4458 205.485 20.2061 205.964 19.75C206.424 19.9897 207.436 21.2807 207.561 22.0538L203.332 21.6286C203.169 23.5497 202.865 27.3687 202.729 29.4444L205.637 29.7227C206.136 29.1158 206.354 28.8762 206.837 28.4239C207.296 28.6636 208.312 29.9353 208.433 30.7083L208.429 30.7006Z" fill="#772D2D"/>
<path d="M218.906 21.3079C223.143 21.8878 225.187 25.0535 224.759 28.1419L224.712 28.486C224.295 30.5462 222.722 32.5175 219.887 33.5728L219.743 33.3331C222.251 30.9675 222.96 25.3821 220.588 23.1131C219.093 28.5014 215.764 32.0228 212.898 31.2613C211.071 30.7704 210.113 29.2861 210.3 27.28L210.343 26.9785C210.818 23.546 213.743 21.1958 217.613 21.219C218.053 21.2152 218.489 21.25 218.898 21.3079H218.906ZM217.956 22.1197C214.954 22.1661 212.87 25.4439 212.547 27.7825C212.38 28.9846 212.664 29.9393 213.521 30.121C215.063 30.4186 217.469 25.4594 217.956 22.1158V22.1197Z" fill="#772D2D"/>
<path d="M227.585 30.8565C229.754 32.8472 232.558 33.4966 236.257 33.0134L236.086 36.1714C235.194 36.2101 234.341 36.1482 233.547 36.0052C230.436 35.4525 228.107 33.6087 227.344 30.9686L227.585 30.8565ZM229.232 23.4273L229.606 22.4609C229.875 22.573 230.474 22.8127 231.004 22.9286C232.199 23.1838 234.474 23.7211 236.066 24.0921C236.195 23.7404 236.327 23.3886 236.436 23.0137L239.049 24.6217C238.111 26.2606 236.44 27.3043 234.306 27.8261L234.146 27.6019C234.847 26.7824 235.373 25.8393 235.852 24.6487C234.256 24.2777 231.935 23.7558 230.829 23.5162C230.295 23.4002 229.556 23.4427 229.228 23.4311L229.232 23.4273Z" fill="#772D2D"/>
<path d="M246.523 28.0962C245.176 30.8832 243.486 34.5282 242.906 35.8656L240.32 34.9302L243.704 27.5319C243.256 27.4353 242.867 27.3734 242.59 27.3154C242.057 27.1995 241.344 27.2922 241.013 27.2845L241.364 26.295C241.605 26.4148 242.232 26.6158 242.762 26.7279C243.081 26.7975 243.49 26.8632 243.981 26.9675C244.67 25.4562 245.223 24.2463 245.367 23.8984L248.206 24.5981C248.019 24.9344 247.477 26.0824 246.784 27.5242C247.322 27.6169 247.832 27.729 248.303 27.8295C248.794 27.4275 249.339 26.9675 249.868 26.5926C250.277 26.7704 251.297 28.3166 251.184 29.0471C250.694 28.9428 249.475 28.6992 248.821 28.5369C248.202 28.4055 247.388 28.2509 246.531 28.0885L246.523 28.0962ZM247.181 35.3941C248.677 37.2224 250.324 37.5548 252.871 37.1296L252.427 39.8702L251.959 39.7697C249.681 39.2788 247.275 38.1385 246.948 35.5448L247.181 35.3941ZM253.054 30.4812L254.965 31.8457C254.537 32.8816 252.773 34.0103 251.025 34.362L250.927 34.1842C251.488 33.5542 251.948 32.8777 252.392 31.9771L249.522 31.4243C248.988 31.3084 248.283 31.3779 247.976 31.3586L248.291 30.4309C248.556 30.5546 249.163 30.7286 249.697 30.8445C250.787 31.0571 251.582 31.2079 252.676 31.3973C252.804 31.1151 252.917 30.8059 253.054 30.4812ZM253.595 28.6258C253.618 27.702 253.361 26.5385 253.019 25.7538L253.209 25.5953C254.206 26.3414 254.895 27.2652 255.11 28.0189L253.595 28.6219V28.6258ZM255.063 25.1779C255.939 25.5644 256.761 26.295 257.302 27.1879L255.9 27.9919C255.818 27.0449 255.429 26.0746 254.891 25.3595L255.067 25.174L255.063 25.1779Z" fill="#772D2D"/>
<path d="M270.759 38.9664C270.191 41.1233 267.784 43.0714 264.089 42.7158L264.066 42.4645C266.04 41.9041 267.317 40.3115 267.753 38.6571C268.294 36.6046 267.484 34.4709 265.031 34.2815C264.369 34.2197 263.649 34.3047 262.929 34.4748L260.958 42.2867L258.349 41.8306L259.841 35.7504C258.735 36.3572 257.746 37.1071 257.053 37.7758L256.391 35.4991C257.609 34.7183 258.933 34.2351 260.273 33.9375L260.728 32.0435L258.598 31.4907C258.049 31.3477 257.333 31.34 257.018 31.3245L257.407 30.4432C257.648 30.5514 258.244 30.7718 258.793 30.9148L260.88 31.4559L261.889 27.2891L264.474 28.2515L263.135 33.5858C263.84 33.5664 264.529 33.5896 265.191 33.6515C269.778 34.038 271.367 36.6433 270.752 38.9702L270.759 38.9664Z" fill="#772D2D"/>
<path d="M278.125 38.594L278.211 38.8259C277.369 39.7652 276.505 40.4068 274.881 41.3577C274.465 39.483 274.585 36.6884 275.905 32.3359L278.401 33.2636C277.72 34.7093 276.91 36.9976 276.396 38.8568C277.155 38.8414 277.552 38.737 278.121 38.5978L278.125 38.594ZM285.43 35.6138C282.541 44.8327 280.142 45.6328 276.178 47.2872L276.01 47.0978C278.542 44.6356 280.267 42.9928 282.759 34.3111L285.434 35.6138H285.43Z" fill="#772D2D"/>
<path d="M259.4 91.3416C258.302 91.3115 257.437 91.0183 256.806 90.462C256.174 89.8906 255.866 89.1989 255.881 88.3869C255.881 87.8756 256.039 87.4019 256.355 86.9659C256.685 86.5298 257.159 86.1764 257.776 85.9058C258.392 85.6351 259.136 85.4998 260.009 85.4998C260.595 85.4998 261.167 85.5449 261.723 85.6351C261.693 84.9133 261.663 84.0637 261.633 83.0863C261.603 82.0939 261.573 81.0037 261.542 79.8158C260.565 79.8759 259.61 79.9135 258.678 79.9286C257.761 79.9436 256.986 79.9361 256.355 79.906L256.197 77.7858C256.783 77.8459 257.55 77.8835 258.497 77.8986C259.46 77.8986 260.46 77.876 261.497 77.8309C261.482 77.2144 261.467 76.5753 261.452 75.9137C261.452 75.2521 261.452 74.5829 261.452 73.9062H263.482C263.467 74.5378 263.46 75.1769 263.46 75.8235C263.46 76.455 263.46 77.0791 263.46 77.6956C264.392 77.6204 265.249 77.5377 266.031 77.4475C266.813 77.3422 267.392 77.2369 267.768 77.1317V79.2068C267.347 79.282 266.753 79.3647 265.986 79.4549C265.234 79.5301 264.407 79.6053 263.505 79.6804C263.535 80.9736 263.573 82.1766 263.618 83.2893C263.663 84.387 263.708 85.3343 263.753 86.1313C264.58 86.417 265.392 86.7854 266.189 87.2365C266.986 87.6726 267.776 88.1989 268.558 88.8154C268.452 88.9056 268.309 89.071 268.129 89.3116C267.949 89.5372 267.783 89.7703 267.633 90.0108C267.482 90.2514 267.377 90.4394 267.317 90.5747C266.159 89.5372 264.994 88.7327 263.821 88.1613C263.791 89.3191 263.377 90.1537 262.58 90.665C261.798 91.1762 260.738 91.4018 259.4 91.3416ZM251.324 91.7025C251.219 91.1311 251.136 90.3943 251.076 89.4921C251.016 88.5899 250.971 87.5824 250.941 86.4696C250.926 85.3419 250.926 84.184 250.941 82.9961C250.971 81.8082 251.016 80.6503 251.076 79.5226C251.136 78.3797 251.212 77.3347 251.302 76.3874C251.407 75.425 251.527 74.628 251.663 73.9965L253.67 74.4701C253.505 75.0115 253.362 75.7257 253.242 76.6129C253.136 77.5001 253.054 78.485 252.994 79.5677C252.933 80.6503 252.896 81.7631 252.881 82.9059C252.866 84.0487 252.873 85.1614 252.903 86.2441C252.933 87.3267 252.986 88.3117 253.061 89.1989C253.136 90.086 253.234 90.8078 253.355 91.3642L251.324 91.7025ZM259.535 89.5597C260.287 89.5597 260.851 89.4319 261.227 89.1763C261.603 88.9056 261.791 88.462 261.791 87.8455V87.4621C261.475 87.3869 261.159 87.3343 260.843 87.3042C260.527 87.2591 260.212 87.229 259.896 87.214C259.234 87.1989 258.715 87.3117 258.339 87.5523C257.964 87.7779 257.776 88.0636 257.776 88.4094C257.761 88.7402 257.911 89.0184 258.227 89.244C258.542 89.4545 258.979 89.5597 259.535 89.5597Z" fill="#772D2D"/>
<path d="M225.836 86.65C225.806 86.4996 225.739 86.3116 225.633 86.0861C225.543 85.8605 225.438 85.6425 225.318 85.432C225.212 85.2064 225.122 85.041 225.047 84.9357C226.235 84.7553 227.385 84.5072 228.498 84.1914C229.626 83.8606 230.701 83.4772 231.724 83.0411V78.4172H233.641V82.1389C234.889 81.4622 236.032 80.6878 237.069 79.8157C238.122 78.9285 239.032 77.9511 239.799 76.8834L241.445 77.8984C240.378 79.2969 239.205 80.4923 237.927 81.4848C236.663 82.4772 235.318 83.3268 233.889 84.0335C234.009 84.1087 234.205 84.1463 234.475 84.1463H238.197C238.573 84.1463 238.874 84.1012 239.1 84.011C239.325 83.9057 239.498 83.6952 239.618 83.3794C239.754 83.0486 239.844 82.5449 239.889 81.8682C240.1 81.9885 240.385 82.1163 240.746 82.2516C241.122 82.387 241.445 82.4922 241.716 82.5674C241.596 83.5599 241.415 84.2967 241.175 84.7779C240.934 85.244 240.611 85.5523 240.205 85.7026C239.799 85.853 239.28 85.9282 238.648 85.9282H233.866C233.22 85.9282 232.731 85.8605 232.4 85.7252C232.084 85.5748 231.881 85.3192 231.791 84.9583C230.844 85.3192 229.866 85.6425 228.859 85.9282C227.866 86.1988 226.859 86.4394 225.836 86.65ZM235.829 79.7705C235.618 79.4999 235.348 79.1991 235.017 78.8683C234.686 78.5375 234.34 78.2142 233.979 77.8984C233.618 77.5676 233.288 77.3045 232.987 77.109L234.024 76.1166H227.889V79.0939H225.836V74.4249H234.363V72.3047H236.573V74.4249H245.167V79.0262H243.137V76.1166H234.588C235.024 76.4323 235.483 76.8158 235.964 77.2669C236.445 77.703 236.844 78.1165 237.16 78.5074C237.085 78.5676 236.957 78.6804 236.776 78.8458C236.596 79.0112 236.415 79.1841 236.235 79.3645C236.054 79.53 235.919 79.6653 235.829 79.7705ZM227.979 92.6723V87.3041H230.032V90.9129H234.475V86.4018H236.528V90.9129H240.949V87.1011H242.979V92.6723H227.979ZM226.896 83.7403C226.776 83.5749 226.566 83.3569 226.265 83.0862C225.979 82.8005 225.739 82.605 225.543 82.4998C225.949 82.2291 226.378 81.8682 226.829 81.4171C227.295 80.966 227.724 80.4848 228.115 79.9735C228.521 79.4623 228.829 78.9961 229.039 78.5751L230.596 79.6127C230.34 80.0638 230.009 80.5449 229.603 81.0562C229.197 81.5675 228.761 82.0562 228.295 82.5223C227.829 82.9885 227.363 83.3945 226.896 83.7403ZM244.558 83.9433C244.303 83.5824 243.957 83.1689 243.521 82.7028C243.1 82.2366 242.656 81.7855 242.19 81.3494C241.739 80.8983 241.325 80.5374 240.949 80.2668L242.303 79.0488C242.679 79.3194 243.1 79.6728 243.566 80.1089C244.032 80.5299 244.483 80.9735 244.919 81.4396C245.355 81.9058 245.716 82.3193 246.002 82.6802C245.806 82.8005 245.558 82.996 245.257 83.2666C244.957 83.5223 244.724 83.7478 244.558 83.9433Z" fill="#772D2D"/>
<path d="M209.189 92.3149C209.054 92.1345 208.873 91.8939 208.648 91.5931C208.422 91.3074 208.196 91.0668 207.971 90.8714C208.993 90.3451 209.941 89.721 210.813 88.9993C211.7 88.2775 212.512 87.473 213.249 86.5858V77.5862H215.234V83.8341C216.196 82.2702 216.993 80.6161 217.625 78.8719C218.257 77.1125 218.715 75.3607 219.001 73.6164L220.896 74.0224C220.685 75.2705 220.392 76.5035 220.016 77.7215C219.655 78.9245 219.226 80.0823 218.73 81.1951L219.993 80.7214C220.279 81.2477 220.565 81.8717 220.851 82.5935C221.151 83.3002 221.43 84.007 221.685 84.7137C221.941 85.4205 222.136 86.037 222.272 86.5633C222.136 86.5933 221.948 86.6535 221.708 86.7437C221.467 86.8189 221.227 86.9091 220.986 87.0144C220.745 87.1046 220.55 87.1873 220.399 87.2625C220.279 86.7963 220.106 86.24 219.881 85.5934C219.655 84.9318 219.414 84.2701 219.159 83.6085C218.903 82.9318 218.663 82.3529 218.437 81.8717C217.986 82.8191 217.49 83.7288 216.948 84.6009C216.422 85.458 215.851 86.2776 215.234 87.0595V89.6759C215.234 89.9015 215.287 90.0594 215.392 90.1496C215.512 90.2398 215.738 90.2849 216.069 90.2849H217.399C217.73 90.2849 217.986 90.2398 218.166 90.1496C218.347 90.0594 218.49 89.8564 218.595 89.5406C218.7 89.2098 218.79 88.6835 218.866 87.9617C219.076 88.082 219.377 88.2098 219.768 88.3451C220.159 88.4805 220.49 88.5857 220.76 88.6609C220.64 89.7436 220.46 90.5405 220.219 91.0518C219.978 91.5631 219.655 91.8864 219.249 92.0217C218.843 92.1721 218.317 92.2472 217.67 92.2472H215.257C214.55 92.2472 214.039 92.142 213.723 91.9315C213.407 91.7209 213.249 91.33 213.249 90.7586V89.2699C212.632 89.8864 211.978 90.4503 211.287 90.9616C210.61 91.4728 209.911 91.9239 209.189 92.3149ZM205.061 92.8788V83.9919C204.685 84.819 204.279 85.6084 203.843 86.3603C203.407 87.1121 203.001 87.7286 202.625 88.2098C202.52 88.1046 202.362 87.9767 202.151 87.8264C201.941 87.676 201.73 87.5332 201.52 87.3978C201.309 87.2625 201.144 87.1647 201.023 87.1046C201.384 86.7136 201.76 86.2249 202.151 85.6385C202.542 85.0521 202.926 84.4205 203.302 83.7438C203.678 83.0521 204.016 82.368 204.317 81.6913C204.617 80.9996 204.843 80.3605 204.993 79.7741H201.655V77.9696H205.061V75.466C204.58 75.5712 204.099 75.669 203.617 75.7592C203.151 75.8494 202.7 75.9321 202.264 76.0073C202.219 75.7968 202.121 75.5111 201.971 75.1502C201.82 74.7743 201.7 74.4961 201.61 74.3157C202.347 74.2405 203.151 74.1127 204.023 73.9322C204.911 73.7367 205.76 73.5037 206.572 73.233C207.399 72.9623 208.076 72.6841 208.602 72.3984L209.685 73.9097C209.309 74.1051 208.888 74.2856 208.422 74.451C207.956 74.6164 207.475 74.7818 206.978 74.9472V77.9696H209.775V79.7741H206.978V81.2176C207.234 81.5334 207.52 81.8717 207.835 82.2326C208.151 82.5935 208.475 82.9318 208.805 83.2476C209.136 83.5634 209.429 83.8265 209.685 84.0371C209.881 83.3303 210.046 82.5935 210.181 81.8266C210.332 81.0597 210.429 80.3605 210.475 79.729L212.347 80.0222C212.287 80.774 212.166 81.5935 211.986 82.4807C211.82 83.3679 211.617 84.225 211.377 85.0521C211.151 85.864 210.918 86.5708 210.678 87.1723C210.542 87.0971 210.354 87.0144 210.114 86.9242C209.873 86.8189 209.632 86.7212 209.392 86.6309C209.151 86.5407 208.963 86.4806 208.828 86.4505C208.948 86.1949 209.076 85.8941 209.211 85.5483C209.347 85.1874 209.475 84.8039 209.595 84.3979C209.414 84.5483 209.219 84.7438 209.008 84.9844C208.813 85.2099 208.67 85.3829 208.58 85.5032C208.354 85.2926 208.099 85.037 207.813 84.7363C207.542 84.4205 207.264 84.0897 206.978 83.7438V92.8788H205.061ZM216.294 76.9998C215.963 76.684 215.55 76.3456 215.054 75.9848C214.572 75.6088 214.084 75.2555 213.587 74.9246C213.091 74.5938 212.648 74.3382 212.257 74.1578L213.542 72.6691C213.963 72.8796 214.422 73.1578 214.918 73.5037C215.429 73.8345 215.918 74.1803 216.384 74.5412C216.866 74.8871 217.264 75.2028 217.58 75.4885C217.384 75.6389 217.151 75.887 216.881 76.2329C216.61 76.5637 216.414 76.8193 216.294 76.9998Z" fill="#772D2D"/>
<path d="M189.766 91.0921C189.691 90.8214 189.525 90.4831 189.27 90.0771C189.029 89.656 188.788 89.3403 188.548 89.1297C189.901 88.9192 191.052 88.5283 191.999 87.9569C192.946 87.3855 193.676 86.6862 194.187 85.8592C194.713 85.0322 194.999 84.1375 195.044 83.1751C195.089 82.2729 194.961 81.4459 194.661 80.694C194.375 79.9271 193.961 79.258 193.42 78.6866C192.879 78.1152 192.247 77.6641 191.525 77.3332C190.818 76.9874 190.059 76.7919 189.247 76.7468C189.142 78.2054 188.924 79.679 188.593 81.1677C188.262 82.6563 187.811 84.0397 187.24 85.3179C186.683 86.596 186.014 87.6636 185.232 88.5208C184.706 89.0922 184.172 89.4305 183.63 89.5357C183.104 89.641 182.548 89.5733 181.961 89.3327C181.39 89.0922 180.879 88.7012 180.427 88.1599C179.976 87.6035 179.63 86.9419 179.39 86.175C179.149 85.4081 179.052 84.5811 179.097 83.6939C179.172 82.3706 179.48 81.1526 180.021 80.0399C180.578 78.9272 181.322 77.9723 182.255 77.1754C183.187 76.3634 184.255 75.7544 185.458 75.3484C186.661 74.9273 187.946 74.7544 189.315 74.8296C190.397 74.8897 191.42 75.1378 192.382 75.5739C193.345 76.01 194.194 76.6039 194.931 77.3558C195.668 78.1076 196.232 78.9873 196.623 79.9948C197.029 81.0023 197.202 82.115 197.142 83.333C197.037 85.2878 196.337 86.9419 195.044 88.2952C193.751 89.6485 191.991 90.5808 189.766 91.0921ZM182.548 87.2351C182.713 87.3403 182.909 87.393 183.134 87.393C183.36 87.3779 183.578 87.2576 183.788 87.0321C184.375 86.4156 184.901 85.5735 185.367 84.5059C185.849 83.4383 186.247 82.2428 186.563 80.9196C186.879 79.5963 187.082 78.2505 187.172 76.8821C186.029 77.0927 185.014 77.5287 184.127 78.1904C183.239 78.852 182.533 79.664 182.006 80.6263C181.48 81.5887 181.187 82.6413 181.127 83.7841C181.082 84.6111 181.202 85.3329 181.488 85.9494C181.773 86.5509 182.127 86.9795 182.548 87.2351Z" fill="#772D2D"/>
<path d="M163.645 91.8862C163.57 91.5704 163.442 91.2171 163.261 90.8261C163.096 90.4352 162.908 90.0968 162.698 89.8111C164.156 89.751 165.434 89.563 166.532 89.2472C167.63 88.9315 168.487 88.4803 169.104 87.8939C169.72 87.3075 170.028 86.5707 170.028 85.6835C170.028 84.661 169.713 83.8565 169.081 83.27C168.464 82.6686 167.577 82.3678 166.419 82.3678C165.186 82.3678 164.051 82.5558 163.013 82.9317C161.976 83.3076 161.021 83.864 160.149 84.6008C159.577 85.082 159.081 85.503 158.66 85.8639C158.239 86.2248 157.795 86.5782 157.329 86.924L155.953 85.2324C156.72 84.7813 157.562 84.1873 158.479 83.4505C159.412 82.7137 160.344 81.9092 161.276 81.0371C162.224 80.1499 163.096 79.2627 163.893 78.3755C164.705 77.4733 165.374 76.6312 165.901 75.8493C165.449 75.9546 164.931 76.0598 164.344 76.1651C163.758 76.2703 163.156 76.3756 162.54 76.4808C161.923 76.5711 161.329 76.6538 160.758 76.729C160.201 76.7891 159.728 76.8342 159.337 76.8643L158.773 74.8117C159.194 74.8117 159.713 74.7967 160.329 74.7666C160.946 74.7215 161.6 74.6614 162.291 74.5862C162.998 74.511 163.682 74.4208 164.344 74.3155C165.021 74.2103 165.63 74.0975 166.171 73.9772C166.728 73.8569 167.164 73.7291 167.479 73.5938L168.991 74.699C168.66 75.3305 168.216 76.0222 167.66 76.7741C167.119 77.5109 166.51 78.2702 165.833 79.0522C165.171 79.8191 164.479 80.5709 163.758 81.3077C164.194 81.0972 164.652 80.9468 165.134 80.8566C165.615 80.7513 166.066 80.6912 166.487 80.6762C167.645 80.6311 168.652 80.8115 169.51 81.2175C170.367 81.6235 171.028 82.2099 171.495 82.9768C171.976 83.7437 172.216 84.6459 172.216 85.6835C172.216 87.518 171.464 88.954 169.961 89.9916C168.457 91.0141 166.352 91.6456 163.645 91.8862Z" fill="#772D2D"/>
<path d="M147.154 91.0704C145.801 91.311 144.485 91.4764 143.207 91.5667C141.929 91.6569 140.733 91.6494 139.62 91.5441C138.508 91.4389 137.53 91.2208 136.688 90.89C135.846 90.5442 135.184 90.063 134.703 89.4465C134.237 88.8299 134.004 88.048 134.004 87.1007C134.004 85.8977 134.47 84.8527 135.402 83.9655C136.35 83.0783 137.598 82.3114 139.147 81.6648C138.741 80.7626 138.448 79.5897 138.267 78.1462C138.087 76.6876 138.026 75.0034 138.087 73.0938H140.342C140.252 73.9809 140.214 74.9207 140.229 75.9132C140.26 76.8906 140.342 77.8229 140.478 78.7101C140.613 79.5822 140.793 80.3265 141.019 80.943C141.771 80.6874 142.553 80.4468 143.365 80.2213C144.192 79.9807 145.034 79.7551 145.891 79.5446L146.365 81.7099C145.011 81.8904 143.718 82.161 142.485 82.5219C141.252 82.8678 140.162 83.2813 139.214 83.7625C138.267 84.2286 137.515 84.7399 136.959 85.2963C136.417 85.8526 136.147 86.4165 136.147 86.9879C136.147 87.6946 136.448 88.2585 137.049 88.6796C137.666 89.0856 138.5 89.3562 139.553 89.4916C140.62 89.6269 141.831 89.6344 143.184 89.5141C144.553 89.3938 145.989 89.1532 147.493 88.7923C147.387 89.078 147.305 89.454 147.245 89.9201C147.184 90.3712 147.154 90.7547 147.154 91.0704Z" fill="#772D2D"/>
<path d="M112.732 92.0717V85.1472C112.1 85.7336 111.506 86.3201 110.95 86.9065C110.393 87.493 109.897 88.0493 109.461 88.5756L107.859 87.1546C108.551 86.5381 109.311 85.8539 110.138 85.1021C110.965 84.3352 111.829 83.5833 112.732 82.8465V79.4858C112.025 79.6361 111.318 79.779 110.611 79.9143C109.92 80.0497 109.356 80.1474 108.92 80.2075L108.514 78.2903C108.784 78.2903 109.145 78.2603 109.596 78.2001C110.062 78.14 110.566 78.0573 111.108 77.952C111.664 77.8467 112.205 77.7415 112.732 77.6362V73.3281H114.671V77.1626C114.852 77.1174 114.98 77.0723 115.055 77.0272L116.228 77.8843L114.694 81.403C115.656 80.7414 116.626 80.2 117.604 79.779C118.596 79.3429 119.566 79.1249 120.514 79.1249C121.626 79.1249 122.611 79.3279 123.468 79.7339C124.341 80.1399 125.025 80.7338 125.521 81.5158C126.017 82.2826 126.265 83.2375 126.265 84.3803C126.265 86.0193 125.656 87.4253 124.438 88.5982C123.22 89.7711 121.446 90.5906 119.115 91.0567C119.025 90.771 118.867 90.4252 118.641 90.0192C118.431 89.5981 118.22 89.2673 118.01 89.0267C119.213 88.8613 120.273 88.5756 121.19 88.1696C122.123 87.7636 122.852 87.2448 123.378 86.6133C123.905 85.9817 124.168 85.2374 124.168 84.3803C124.168 83.1773 123.837 82.3052 123.175 81.7639C122.514 81.2225 121.626 80.9519 120.514 80.9519C119.641 80.9519 118.694 81.2 117.671 81.6962C116.664 82.1774 115.664 82.7939 114.671 83.5457V92.0717H112.732Z" fill="#772D2D"/>
<path d="M92.6344 91.0282C91.8374 91.0282 91.0404 90.8252 90.2434 90.4192C90.2735 90.2689 90.2885 90.0659 90.2885 89.8102C90.3035 89.5396 90.3111 89.2689 90.3111 88.9982C90.3111 88.7125 90.3035 88.4795 90.2885 88.299C90.6193 88.5095 90.9802 88.6674 91.3712 88.7727C91.7772 88.8629 92.1682 88.908 92.5441 88.908C93.0103 88.893 93.3863 88.7802 93.672 88.5697C93.9577 88.3592 94.1081 88.0434 94.1231 87.6224C94.1381 86.9156 93.9802 86.2916 93.6494 85.7503C93.3186 85.2089 92.8524 84.5849 92.2509 83.8782C91.7847 83.3218 91.3862 82.7729 91.0554 82.2316C90.7396 81.6903 90.5667 81.1114 90.5366 80.4948C90.5216 79.8783 90.702 79.1791 91.078 78.3972L92.9953 79.3445C92.7697 79.8107 92.6569 80.2167 92.6569 80.5625C92.672 80.9084 92.7923 81.2542 93.0178 81.6001C93.2434 81.9459 93.5592 82.3594 93.9652 82.8406C94.4765 83.427 94.9051 83.9684 95.2509 84.4646C95.5968 84.9458 95.8524 85.442 96.0178 85.9533C96.1983 86.4645 96.2885 87.066 96.2885 87.7577C96.2885 88.4344 96.1231 89.0208 95.7923 89.517C95.4614 89.9982 95.0178 90.3741 94.4614 90.6448C93.9051 90.9004 93.296 91.0282 92.6344 91.0282ZM102.198 88.9531C101.958 88.5772 101.627 88.1411 101.206 87.6449C100.785 87.1487 100.326 86.6525 99.8299 86.1563C99.3487 85.645 98.8675 85.1789 98.3863 84.7578C97.9201 84.3368 97.5066 84.0135 97.1457 83.7879L98.5893 82.3669C98.9351 82.6075 99.3412 82.9459 99.8073 83.3819C100.289 83.803 100.777 84.2616 101.273 84.7578C101.77 85.239 102.228 85.7202 102.649 86.2014C103.086 86.6675 103.424 87.0735 103.664 87.4194L102.198 88.9531ZM84.4464 89.6298L83.2734 87.7577C83.514 87.6073 83.8373 87.4118 84.2434 87.1713C84.6644 86.9307 85.1231 86.6675 85.6193 86.3818C86.1156 86.0961 86.6118 85.8179 87.108 85.5473C87.6193 85.2616 88.078 85.0059 88.484 84.7804C88.905 84.5398 89.2283 84.3593 89.4539 84.239C89.484 84.3443 89.5291 84.5247 89.5892 84.7804C89.6644 85.036 89.7396 85.2916 89.8148 85.5473C89.905 85.7879 89.9727 85.9608 90.0178 86.066C89.7321 86.2164 89.3411 86.442 88.8449 86.7427C88.3637 87.0434 87.8374 87.3743 87.2659 87.7351C86.7095 88.096 86.1757 88.4494 85.6644 88.7952C85.1682 89.1261 84.7622 89.4042 84.4464 89.6298ZM95.5667 78.0363C95.3111 77.8258 94.9577 77.5852 94.5066 77.3145C94.0705 77.0288 93.5893 76.7506 93.0629 76.48C92.5517 76.1943 92.0554 75.9462 91.5742 75.7356C91.093 75.5101 90.687 75.3522 90.3562 75.262L91.484 73.5703C91.7998 73.6906 92.1983 73.8711 92.6795 74.1116C93.1757 74.3522 93.687 74.6079 94.2133 74.8785C94.7396 75.1492 95.2284 75.4123 95.6795 75.668C96.1306 75.9236 96.4765 76.1341 96.7171 76.2995L95.5667 78.0363Z" fill="#772D2D"/>
<path d="M302.925 133.266C302.908 132.959 302.883 132.489 302.848 131.858C302.814 131.226 302.78 130.509 302.746 129.707C302.712 128.905 302.678 128.077 302.644 127.224C302.627 126.37 302.609 125.559 302.592 124.791C302.575 124.023 302.558 123.366 302.541 122.82C302.524 122.274 302.516 121.907 302.516 121.719V117.469H305.358V121.719C305.358 121.907 305.349 122.274 305.332 122.82C305.315 123.366 305.298 124.023 305.281 124.791C305.264 125.559 305.238 126.37 305.204 127.224C305.17 128.077 305.136 128.905 305.102 129.707C305.067 130.509 305.033 131.226 304.999 131.858C304.982 132.489 304.957 132.959 304.922 133.266H302.925ZM303.924 139.309C303.412 139.309 302.968 139.121 302.592 138.745C302.234 138.387 302.055 137.952 302.055 137.439C302.055 136.927 302.234 136.492 302.592 136.134C302.968 135.775 303.412 135.596 303.924 135.596C304.436 135.596 304.871 135.775 305.23 136.134C305.605 136.492 305.793 136.927 305.793 137.439C305.793 137.952 305.605 138.387 305.23 138.745C304.871 139.121 304.436 139.309 303.924 139.309Z" fill="#772D2D"/>
<path d="M284.052 139.509C283.864 139.184 283.599 138.834 283.258 138.459C282.917 138.083 282.592 137.785 282.285 137.563C284.572 136.59 286.348 135.147 287.611 133.236C288.891 131.324 289.531 129.037 289.531 126.374C289.531 125.162 289.386 124.215 289.096 123.532C288.806 122.832 288.422 122.346 287.944 122.073C287.466 121.782 286.936 121.663 286.356 121.714C285.707 121.765 285.084 122.158 284.487 122.892C283.889 123.609 283.437 124.616 283.13 125.913C282.84 127.193 282.797 128.712 283.002 130.471C282.848 130.471 282.618 130.505 282.311 130.573C282.003 130.624 281.713 130.684 281.44 130.752C281.167 130.803 280.971 130.855 280.851 130.906C280.766 130.291 280.689 129.523 280.621 128.601C280.552 127.68 280.501 126.698 280.467 125.657C280.45 124.599 280.441 123.549 280.441 122.508C280.441 121.45 280.458 120.468 280.493 119.563C280.527 118.659 280.578 117.916 280.646 117.336L283.053 117.566C282.951 118.01 282.857 118.591 282.771 119.307C282.703 120.024 282.652 120.792 282.618 121.612C282.584 122.431 282.558 123.216 282.541 123.967C282.899 122.738 283.463 121.714 284.231 120.895C284.999 120.058 285.853 119.623 286.791 119.589C287.747 119.538 288.618 119.751 289.403 120.229C290.188 120.707 290.811 121.458 291.272 122.482C291.733 123.489 291.963 124.787 291.963 126.374C291.963 129.481 291.264 132.118 289.864 134.285C288.481 136.436 286.544 138.177 284.052 139.509Z" fill="#772D2D"/>
<path d="M260.649 139.324C260.581 139.051 260.453 138.71 260.265 138.3C260.095 137.907 259.89 137.574 259.651 137.301C261.853 136.994 263.543 136.32 264.72 135.279C265.898 134.238 266.487 132.966 266.487 131.464C266.487 130.457 266.205 129.612 265.642 128.929C265.079 128.246 264.302 127.743 263.312 127.418C261.964 129.962 260.444 132.078 258.755 133.768C258.857 134.127 258.968 134.476 259.087 134.818C259.207 135.159 259.335 135.492 259.471 135.816C259.164 135.885 258.789 136.021 258.345 136.226C257.918 136.414 257.594 136.593 257.372 136.764C257.287 136.542 257.201 136.32 257.116 136.098C257.048 135.876 256.971 135.654 256.885 135.432C255.912 136.183 254.957 136.738 254.018 137.097C253.079 137.438 252.217 137.549 251.432 137.429C251.107 137.378 250.783 137.25 250.459 137.045C250.134 136.823 249.861 136.508 249.639 136.098C249.434 135.671 249.332 135.117 249.332 134.434C249.332 133.205 249.605 132.053 250.151 130.977C250.715 129.885 251.474 128.912 252.43 128.059C253.403 127.205 254.504 126.531 255.733 126.036C255.733 125.456 255.742 124.884 255.759 124.32C255.793 123.757 255.827 123.211 255.861 122.682C254.769 122.767 253.745 122.827 252.789 122.861C251.833 122.878 251.056 122.861 250.459 122.81L250.254 120.634C250.902 120.702 251.739 120.736 252.763 120.736C253.804 120.736 254.897 120.702 256.04 120.634C256.126 119.968 256.211 119.336 256.296 118.739C256.382 118.124 256.476 117.553 256.578 117.023L258.78 117.433C258.678 117.894 258.584 118.372 258.498 118.867C258.413 119.362 258.336 119.882 258.268 120.429C259.548 120.292 260.777 120.121 261.955 119.917C263.15 119.712 264.14 119.473 264.925 119.2L265.181 121.274C264.328 121.53 263.261 121.769 261.981 121.991C260.718 122.195 259.403 122.366 258.038 122.503C257.969 123.424 257.918 124.38 257.884 125.37C258.294 125.285 258.712 125.217 259.139 125.165C259.565 125.114 259.992 125.089 260.419 125.089C260.692 125.089 260.957 125.097 261.213 125.114C261.486 125.131 261.75 125.157 262.006 125.191C262.297 124.542 262.553 123.877 262.774 123.194L264.9 123.808C264.78 124.116 264.661 124.423 264.541 124.73C264.422 125.037 264.294 125.345 264.157 125.652C265.591 126.096 266.735 126.812 267.588 127.803C268.442 128.793 268.868 130.021 268.868 131.489C268.868 132.872 268.535 134.101 267.87 135.176C267.204 136.252 266.257 137.139 265.028 137.839C263.799 138.539 262.339 139.034 260.649 139.324ZM253.429 135.023C254.248 134.733 255.213 134.109 256.322 133.154C256.168 132.351 256.04 131.532 255.938 130.696C255.853 129.842 255.793 128.98 255.759 128.11C254.513 128.758 253.497 129.612 252.712 130.67C251.927 131.711 251.534 132.838 251.534 134.05C251.534 134.715 251.713 135.091 252.072 135.176C252.447 135.262 252.9 135.21 253.429 135.023ZM258.242 131.233C258.737 130.636 259.232 129.987 259.728 129.288C260.24 128.588 260.709 127.837 261.136 127.034C261.016 127.017 260.897 127.009 260.777 127.009C260.658 127.009 260.538 127.009 260.419 127.009C259.548 127.009 258.712 127.111 257.91 127.316C257.927 127.982 257.961 128.647 258.012 129.313C258.08 129.962 258.157 130.602 258.242 131.233Z" fill="#772D2D"/>
<path d="M223.573 137.942C223.454 137.277 223.36 136.457 223.291 135.484C223.223 134.494 223.172 133.419 223.138 132.258C223.121 131.081 223.121 129.869 223.138 128.623C223.172 127.377 223.223 126.156 223.291 124.961C223.377 123.766 223.479 122.665 223.599 121.658C223.718 120.634 223.863 119.764 224.034 119.047L226.338 119.533C226.168 120.148 226.014 120.942 225.877 121.914C225.758 122.87 225.656 123.929 225.57 125.089C225.502 126.233 225.451 127.419 225.417 128.648C225.4 129.86 225.4 131.038 225.417 132.181C225.451 133.308 225.502 134.332 225.57 135.254C225.656 136.176 225.758 136.927 225.877 137.507L223.573 137.942ZM233.636 136.432C232.475 136.363 231.536 136.141 230.819 135.766C230.102 135.373 229.641 134.793 229.437 134.025C229.095 133.137 229.121 132.011 229.513 130.645L231.587 131.209C231.468 131.584 231.408 131.934 231.408 132.258C231.425 132.566 231.493 132.839 231.613 133.078C231.886 133.658 232.705 133.999 234.071 134.102C234.839 134.153 235.693 134.144 236.631 134.076C237.57 133.991 238.492 133.871 239.397 133.718C240.301 133.564 241.078 133.385 241.727 133.18C241.693 133.351 241.658 133.607 241.624 133.948C241.607 134.272 241.59 134.605 241.573 134.947C241.573 135.271 241.573 135.527 241.573 135.715C240.72 135.937 239.815 136.107 238.859 136.227C237.92 136.346 236.998 136.423 236.094 136.457C235.206 136.474 234.387 136.466 233.636 136.432ZM230.307 123.988L230.179 121.582C230.811 121.65 231.579 121.693 232.483 121.71C233.388 121.727 234.336 121.71 235.326 121.658C236.316 121.607 237.263 121.53 238.168 121.428C239.072 121.309 239.841 121.172 240.472 121.018L240.395 123.399C239.73 123.519 238.953 123.63 238.065 123.732C237.178 123.818 236.256 123.886 235.3 123.937C234.344 123.988 233.431 124.022 232.56 124.04C231.69 124.04 230.939 124.022 230.307 123.988Z" fill="#772D2D"/>
<path d="M49.8681 123.645C48.3056 123.645 46.9146 124.023 46 124.287L46.3811 121.785C47.4005 122.002 48.5819 122.163 49.7157 122.163H52.5168C52.5739 121.473 52.6216 120.775 52.6216 120.029L58.9668 122.002C57.4043 128.508 54.0221 131.813 47.1338 133.144L46.9146 132.663C49.9825 130.047 51.6498 127.441 52.2881 123.655H49.8681V123.645ZM46.2668 142.729C49.4394 141.879 52.0213 140.708 54.0602 138.734L54.7081 139.055C54.2222 143.106 52.4501 145.505 50.2492 146.997L46.2668 142.729ZM53.7458 109.84C51.4878 109.84 49.6585 110.265 48.6867 110.482L49.0678 107.98C50.4112 108.197 52.1357 108.358 53.5838 108.358H55.737C55.6799 107.026 55.6322 105.638 55.6322 104.203L62.1395 105.053C62.1395 106.12 62.1395 107.234 62.1966 108.358H67.8941C67.8369 107.026 67.7892 105.591 67.7892 104.203L74.2965 105.053C74.2965 106.384 74.2965 107.234 74.3537 108.358H76.1258C76.9832 106.97 78.1742 105.053 78.6505 104.364C80.4226 105.695 82.5187 108.093 82.7378 109.85C81.6612 109.906 78.3838 109.85 77.1452 109.85H74.4013C74.4585 110.596 74.4585 111.502 74.5061 112.626L67.9989 112.947C67.9989 112.04 67.9417 110.973 67.8941 109.859H62.2443C62.2443 110.87 62.3014 111.833 62.3491 112.635L55.8418 112.956C55.8418 111.993 55.7847 110.983 55.7847 109.869H53.7458V109.84ZM73.9059 137.394H56.0038C53.7458 137.394 51.9165 137.818 50.9447 138.036L51.3258 135.533C52.6692 135.751 54.3937 135.911 55.8418 135.911H73.1056C74.0202 134.523 74.7729 133.352 75.3064 132.663C77.2405 133.994 78.8601 135.647 79.3937 137.403C78.3171 137.46 75.2016 137.403 73.9059 137.403V137.394ZM74.7157 117.149C72.1909 119.547 68.5896 120.822 66.0076 121.464C70.2569 125.411 69.609 131.426 65.4741 134.787C62.7873 133.617 60.7961 132.757 58.157 130.68L58.7477 129.934C61.3296 130.623 62.3491 130.68 62.7302 129.292C63.378 127.215 63.5876 124.438 62.5682 120.284L63.54 119.698C64.0735 120.019 64.6166 120.284 65.0453 120.661C65.96 119.594 66.9318 118.367 67.8464 116.875H60.4245C58.5381 116.875 56.928 117.3 56.0705 117.517L56.4516 115.015C57.471 115.232 58.9764 115.392 60.2721 115.392H68.6658C68.9897 114.75 69.3136 114.004 69.6376 113.258L74.7443 117.149H74.7157ZM59.0716 138.838C61.6536 140.274 63.1589 142.247 63.9687 145.231C61.6536 145.712 60.3674 146.033 58.2713 146.723C58.862 143.899 58.9668 142.304 58.7001 138.942L59.0812 138.838H59.0716ZM67.6178 138.574C70.5236 139.801 72.8864 142.408 73.963 144.598C72.1909 145.023 70.2569 145.561 68.5896 146.411C68.3704 143.852 67.8941 140.925 67.0842 138.848L67.6178 138.583V138.574ZM71.9242 123.862L72.5149 123.381C76.383 126.525 79.3937 127.215 83.9668 127.488C82.4615 129.197 81.3277 131.218 80.5274 133.031C76.221 131.483 73.5343 128.395 71.9242 123.862ZM74.3918 122.153C76.6498 120.444 77.9931 118.32 78.6982 116.186L83.4809 119.066C81.4897 121.464 77.6216 122.795 74.6585 123.013L74.3918 122.163V122.153ZM75.4112 138.621C78.5267 139.584 81.1658 141.019 83.157 143.522C81.5469 144.211 80.1463 145.231 78.641 146.402C77.5644 143.153 76.4878 140.859 74.9348 138.989L75.4207 138.612L75.4112 138.621Z" fill="#EB5925"/>
<path d="M107.483 108.41C105.759 131.006 107.912 140.921 115.438 143.055V143.584C114.419 143.744 113.447 143.848 112.533 143.848C102.043 143.848 99.7852 132.073 99.7852 120.289V119.439C99.8423 115.331 100.109 111.28 100.376 107.711L107.474 108.4L107.483 108.41Z" fill="#EB5925"/>
<path d="M127.918 124.972C128.89 121.724 129.318 118.627 128.89 115.7L129.538 115.483C132.015 118.098 133.244 121.932 132.929 125.662L127.927 124.972H127.918ZM140.447 108.722C141.094 134.094 136.416 141.072 128.995 145.972L128.404 145.548C133.244 137.078 134.968 133.027 134.425 107.759L140.447 108.722ZM140.285 131.214C143.838 133.508 146.039 135.69 147.602 139.533C145.934 139.589 143.19 140.543 141.58 141.61C141.209 137.776 141.047 134.944 139.703 131.695L140.294 131.214H140.285ZM147.868 116.077C146.735 118.844 143.838 122.631 141.304 123.858L140.818 123.377C142.219 120.015 142.809 116.767 143.019 114.161L147.859 116.077H147.868ZM146.525 145.17C150.231 142.394 151.737 138.824 152.489 134.302L158.463 136.218C156.853 141.704 151.737 144.688 146.897 145.708L146.525 145.179V145.17ZM167.981 119.326V121.941H168.143C168.953 120.77 169.972 119.165 170.458 118.533C172.182 119.807 173.735 121.837 174.059 123.433C172.983 123.49 170.239 123.433 169.057 123.433H167.981V130.251C168.734 129.08 169.543 127.588 170.02 127.002C171.744 128.277 173.297 130.307 173.621 131.903C172.544 131.96 169.801 131.903 168.619 131.903H152.861C150.546 131.903 148.669 132.328 147.802 132.545L148.173 130.043C149.088 130.203 150.488 130.364 151.727 130.421L151.565 123.443C149.364 123.499 147.583 123.868 146.782 124.085L147.154 121.582C148.23 121.8 150.107 121.96 151.508 121.96V118.655L157.529 119.345C157.529 120.034 157.472 120.94 157.472 121.96H162.093C162.036 120.685 162.036 119.505 161.988 118.551L167.962 119.354L167.981 119.326ZM154.642 113.141C152.327 113.141 150.45 113.566 149.583 113.783L149.964 111.281C151.089 111.498 153.032 111.658 154.48 111.658H156.367C156.31 109.789 156.31 108.032 156.31 105.898L162.712 106.541C162.655 108.41 162.655 109.949 162.655 111.658H164.913C165.723 110.487 166.742 108.882 167.228 108.25C168.953 109.524 170.506 111.555 170.83 113.15C169.753 113.207 167.009 113.15 165.828 113.15H162.655C162.712 114.378 162.712 115.766 162.76 117.466L156.576 117.947C156.519 116.134 156.415 114.586 156.415 113.15H154.642V113.141ZM162.274 130.411L162.112 123.433H157.491C157.491 125.935 157.548 128.655 157.548 130.411H162.283H162.274ZM171.42 137.125C173.459 140.005 174.431 141.544 175.022 143.999C173.678 144.905 171.63 145.548 170.02 145.755C168.943 145.916 167.657 146.02 166.361 146.02C164.37 146.02 162.331 145.802 161.035 145.491C160.607 143.357 160.387 137.606 160.502 134.245L166.094 135.095C165.932 136.483 165.932 139.788 166.199 140.958C167.705 141.119 168.886 141.062 169.905 140.798C170.925 140.581 171.087 139.995 170.658 137.333L171.411 137.115L171.42 137.125Z" fill="#EB5925"/>
<path d="M192.102 132.281C192.264 137.824 192.531 141.497 199.581 143.367V143.895C198.562 144.056 197.542 144.113 196.628 144.113C191.035 144.113 187.005 141.336 184.633 134.896L192.102 132.281ZM207.107 122.895L204.04 123.055C204.735 126.039 205.383 128.919 205.869 131.525C201.41 131.1 200.381 130.94 196.294 130.194L196.351 129.665L198.933 129.344C198.504 127.795 197.961 125.718 197.371 123.423C194.732 123.584 192.369 123.745 191.026 123.848C189.682 123.952 187.958 124.538 187.205 124.755L187.367 122.3C188.12 122.404 189.682 122.46 191.026 122.356C192.369 122.253 194.579 122.139 196.999 121.979C196.466 119.797 195.865 117.503 195.275 115.265C193.607 115.369 192.159 115.482 191.188 115.586C189.844 115.69 188.12 116.275 187.367 116.493L187.529 114.037C188.282 114.141 189.844 114.198 191.188 114.094C192.159 114.037 193.445 113.934 194.894 113.83C194.465 112.281 194.084 110.789 193.712 109.514L200.648 108.391C200.972 109.883 201.344 111.535 201.782 113.348C202.21 113.291 202.639 113.291 203.02 113.244C203.773 111.969 204.583 110.95 205.497 109.722C206.631 110.525 208.775 112.017 209.689 114.415C208.937 114.472 207.593 114.519 206.298 114.576C205.164 114.632 203.716 114.736 202.153 114.84L203.716 121.554C204.411 121.497 205.116 121.497 205.764 121.45C206.574 120.222 207.327 119.155 208.289 117.984C209.423 118.73 211.566 120.222 212.433 122.621C211.299 122.725 208.832 122.838 207.107 122.885V122.895Z" fill="#EB5925"/>
</svg>
