<svg width="15" height="15" viewBox="0 0 15 15" fill="none" xmlns="http://www.w3.org/2000/svg">
<g clip-path="url(#clip0_3162_21731)">
<path d="M3.75 5.21875H12.7125L12.075 8.30938L6.875 9.68125" stroke="#6B5C5C" stroke-linecap="round" stroke-linejoin="round"/>
<path d="M1.46484 2.01562H2.81172L4.64609 9.5125L3.93359 10.9906" stroke="#6B5C5C" stroke-linecap="round" stroke-linejoin="round"/>
<path d="M2.8125 13.125C3.50286 13.125 4.0625 12.5654 4.0625 11.875C4.0625 11.1846 3.50286 10.625 2.8125 10.625C2.12214 10.625 1.5625 11.1846 1.5625 11.875C1.5625 12.5654 2.12214 13.125 2.8125 13.125Z" stroke="#6B5C5C" stroke-linecap="round" stroke-linejoin="round"/>
<path d="M11.5625 13.125C12.2529 13.125 12.8125 12.5654 12.8125 11.875C12.8125 11.1846 12.2529 10.625 11.5625 10.625C10.8721 10.625 10.3125 11.1846 10.3125 11.875C10.3125 12.5654 10.8721 13.125 11.5625 13.125Z" stroke="#6B5C5C" stroke-linecap="round" stroke-linejoin="round"/>
</g>
<defs>
<clipPath id="clip0_3162_21731">
<rect width="15" height="15" fill="white"/>
</clipPath>
</defs>
</svg>
