<svg width="8" height="8" viewBox="0 0 8 8" fill="none" xmlns="http://www.w3.org/2000/svg">
<path d="M7.12 0.112C7.19467 0.0373332 7.27467 0 7.36 0C7.456 0 7.536 0.0373332 7.6 0.112L7.696 0.208C7.76 0.282667 7.792 0.362666 7.792 0.448C7.792 0.533333 7.75467 0.613333 7.68 0.688L4.704 3.664C4.62933 3.73867 4.592 3.81867 4.592 3.904C4.592 3.968 4.62933 4.048 4.704 4.144L7.68 7.12C7.75467 7.184 7.792 7.264 7.792 7.36C7.792 7.44533 7.75467 7.52533 7.68 7.6L7.6 7.696C7.536 7.77067 7.456 7.808 7.36 7.808C7.27467 7.808 7.19467 7.77067 7.12 7.696L4.144 4.704C4.08 4.62933 4 4.592 3.904 4.592C3.81867 4.592 3.73867 4.62933 3.664 4.704L0.672 7.696C0.597334 7.77067 0.517334 7.808 0.432 7.808C0.336 7.808 0.256 7.77067 0.192 7.696L0.096 7.6C0.032 7.51467 0 7.43467 0 7.36C0 7.27467 0.0373333 7.19467 0.112 7.12L3.088 4.144C3.16267 4.06933 3.2 3.98933 3.2 3.904C3.2 3.808 3.16267 3.728 3.088 3.664L0.112 0.688C0.0373333 0.592 0 0.512 0 0.448C0 0.384 0.0373333 0.304 0.112 0.208L0.192 0.112C0.256 0.0373332 0.336 0 0.432 0C0.517334 0 0.597334 0.0373332 0.672 0.112L3.664 3.088C3.76 3.16267 3.84 3.2 3.904 3.2C3.98933 3.2 4.06933 3.16267 4.144 3.088L7.12 0.112Z" fill="white"/>
</svg>
