<svg width="12" height="12" viewBox="0 0 12 12" fill="none" xmlns="http://www.w3.org/2000/svg">
<path d="M3 4.17188H10.17L9.66 6.64438L5.5 7.74187" stroke="#421D12" stroke-linecap="round" stroke-linejoin="round"/>
<path d="M1.17188 1.60938H2.24937L3.71688 7.60688L3.14688 8.78938" stroke="#421D12" stroke-linecap="round" stroke-linejoin="round"/>
<path d="M2.25 10.5C2.80228 10.5 3.25 10.0523 3.25 9.5C3.25 8.94772 2.80228 8.5 2.25 8.5C1.69772 8.5 1.25 8.94772 1.25 9.5C1.25 10.0523 1.69772 10.5 2.25 10.5Z" stroke="#421D12" stroke-linecap="round" stroke-linejoin="round"/>
<path d="M9.25 10.5C9.80228 10.5 10.25 10.0523 10.25 9.5C10.25 8.94772 9.80228 8.5 9.25 8.5C8.69772 8.5 8.25 8.94772 8.25 9.5C8.25 10.0523 8.69772 10.5 9.25 10.5Z" stroke="#421D12" stroke-linecap="round" stroke-linejoin="round"/>
</svg>
