<svg width="180" height="58" viewBox="0 0 180 58" fill="none" xmlns="http://www.w3.org/2000/svg">
<path d="M23.7066 9.7307H22.6255C22.4189 7.58941 21.7352 6.1672 20.5588 5.49605C19.6685 4.96872 17.9991 4.69706 15.5508 4.69706H11.5445V15.867H14.9308C16.775 15.867 17.9355 15.7871 18.3966 15.5953C19.3505 15.2597 19.8592 14.3648 19.9069 12.9267H20.988V20.7887H19.9069C19.7956 19.2227 19.4141 18.232 18.7464 17.8165C18.2694 17.5289 17.1088 17.401 15.2805 17.401H11.5445V26.925C11.5445 28.2673 11.767 29.1462 12.1963 29.5457C12.6255 29.9611 13.4999 30.1529 14.8195 30.1529V31.3194C11.2265 31.2395 7.88786 31.2395 4.86719 31.3194V30.1529C6.18674 30.1529 7.07704 29.9611 7.4904 29.5457C7.91965 29.1462 8.12633 28.2673 8.12633 26.925V7.62137C8.12633 6.26308 7.90375 5.38419 7.4904 4.9847C7.07704 4.5852 6.18674 4.37746 4.86719 4.37746V3.21094C8.55558 3.33878 23.7702 3.21094 23.7702 3.21094L23.7384 9.74668L23.7066 9.7307Z" fill="white"/>
<path d="M40.4002 17.3565H39.7802C39.5417 16.4456 38.715 15.9822 37.2841 15.9822C35.9805 15.9822 34.963 16.5255 34.2476 17.5802C33.6116 18.491 33.2778 19.6256 33.2778 20.9679V28.047C33.2778 29.0856 33.4368 29.7089 33.7547 29.9006C33.9614 30.0604 34.6132 30.1403 35.742 30.1403V31.3068C33.4686 31.195 30.7341 31.195 27.5703 31.3068V30.1403C28.8422 30.1403 29.6212 29.9805 29.9074 29.6609C30.1935 29.3573 30.3366 28.5743 30.3366 27.3598V18.7467C30.3366 17.4843 29.9074 16.8291 29.0965 16.8291C28.6514 16.8291 28.1426 16.9729 27.5862 17.2606V16.0941C29.7325 15.1672 31.4336 14.2244 32.6736 13.2656H33.0711V17.3245C34.4066 14.6079 36.0759 13.2656 38.0632 13.2656C38.715 13.2656 39.5099 13.4094 40.4161 13.6811V17.3245L40.4002 17.3565Z" fill="white"/>
<path d="M84.4881 31.3228C81.8967 31.211 79.1304 31.211 76.2369 31.3228V30.1563C77.4611 30.1563 78.2083 29.9166 78.4944 29.4532C78.6693 29.1496 78.7647 28.2867 78.7647 26.8804V20.6803C78.7647 17.2446 77.4452 15.5188 74.7902 15.5188C73.4547 15.5188 72.008 16.3178 70.434 17.9158V28.0629C70.434 29.1016 70.593 29.7248 70.911 29.9166C71.1495 30.0764 71.8013 30.1563 72.8983 30.1563V31.3228C70.6248 31.211 67.8903 31.211 64.7266 31.3228V30.1563C66.0143 30.1563 66.8092 29.9965 67.0795 29.6769C67.3498 29.3733 67.4929 28.5903 67.4929 27.3758V20.6483C67.4929 19.3859 67.4611 18.5869 67.4134 18.1714C67.2385 17.0528 66.8092 16.4935 66.1256 16.4935C65.7917 16.4935 65.3148 16.6374 64.7266 16.909V15.7425C66.5231 15.1512 68.2083 14.3203 69.8299 13.2656H70.2115V16.7173C72.3895 14.4162 74.3609 13.2656 76.1256 13.2656C79.9571 13.2656 81.8808 16.5095 81.8808 22.9814C81.8808 23.7004 81.849 24.6752 81.8013 25.8417C81.7536 27.0242 81.7218 27.7913 81.7218 28.1748C81.7218 29.1336 81.9603 29.7408 82.4213 29.9645C82.6598 30.0604 83.3434 30.1243 84.4881 30.1243V31.2909V31.3228Z" fill="white"/>
<path d="M103.327 29.1013C101.117 30.7632 98.9076 31.5941 96.6818 31.5941C94.2494 31.5941 92.1826 30.7152 90.4656 28.9415C88.7645 27.1677 87.9219 25.0584 87.9219 22.6135C87.9219 20.1685 88.8281 17.8675 90.6405 16.0298C92.4529 14.2081 94.6309 13.2812 97.1747 13.2812C98.9871 13.2812 101.022 13.7606 102.739 14.5437V18.1391L102.421 18.219C101.769 17.1803 100.927 16.3334 99.8774 15.6622C98.7645 15.0071 97.6198 14.6555 96.4115 14.6555C94.7899 14.6555 93.4386 15.2627 92.4052 16.4932C91.3718 17.7236 90.8472 19.1618 90.8472 20.8237C90.8472 23.0289 91.4672 25.0264 92.7231 26.7842C94.1222 28.7337 95.871 29.7085 97.9696 29.7085C99.623 29.7085 101.372 29.1492 103.184 28.0466L103.295 29.1013H103.327Z" fill="white"/>
<path d="M127.203 31.3204C124.087 31.2086 121.241 31.2086 118.634 31.3204V30.1539C119.921 30.1539 120.732 29.9142 121.034 29.4508C121.273 29.0833 121.384 28.1884 121.384 26.7183V20.3263C121.384 17.1144 120.144 15.5164 117.648 15.5164C116.535 15.5164 114.929 16.2675 112.815 17.7855V27.6291C112.815 28.7477 112.974 29.4508 113.308 29.7384C113.626 30.0261 114.357 30.1699 115.47 30.1699V31.3364C112.688 31.2246 109.794 31.2246 106.789 31.3364V30.1699C107.982 30.1699 108.793 29.9462 109.222 29.4828C109.651 29.0193 109.858 28.1564 109.858 26.878V5.73675C109.858 4.41043 109.381 3.73928 108.411 3.73928C107.966 3.73928 107.425 3.8831 106.773 4.17073V2.84441C108.538 2.15728 110.462 1.21447 112.529 0H112.926C112.847 0.910849 112.799 3.10008 112.799 6.5677V16.2355C114.214 15.1808 115.12 14.5097 115.565 14.27C116.646 13.6308 117.711 13.3112 118.729 13.3112C120.923 13.3112 122.465 14.0942 123.324 15.6442C123.975 16.7948 124.293 18.5366 124.293 20.8856C124.293 21.4449 124.277 22.2918 124.214 23.3945C124.166 24.513 124.15 25.296 124.15 25.7595C124.15 28.6838 124.945 30.1539 126.519 30.1539H127.187V31.3204H127.203Z" fill="white"/>
<path d="M140.782 31.3188H131.672V30.1522C132.96 30.1522 133.802 29.9445 134.184 29.529C134.565 29.1135 134.756 28.2187 134.756 26.8604V18.8705C134.756 17.5122 134.359 16.8411 133.548 16.8411C133.055 16.8411 132.499 16.9849 131.894 17.2725V16.106C134.088 15.307 135.901 14.3642 137.332 13.2776H137.729V26.8604C137.729 28.2187 137.92 29.0976 138.301 29.513C138.699 29.9285 139.526 30.1363 140.797 30.1363V31.3028L140.782 31.3188ZM138.158 7.34904C138.158 7.89235 137.983 8.35577 137.602 8.73928C137.22 9.1228 136.759 9.29858 136.219 9.29858C135.678 9.29858 135.217 9.1228 134.836 8.73928C134.454 8.35577 134.263 7.89235 134.263 7.34904C134.263 6.80573 134.438 6.32633 134.836 5.94282C135.217 5.5593 135.678 5.35156 136.219 5.35156C136.759 5.35156 137.236 5.54332 137.602 5.94282C137.983 6.34231 138.158 6.78975 138.158 7.34904Z" fill="white"/>
<path d="M156.78 26.2238C156.78 27.9497 156.144 29.292 154.873 30.2827C153.712 31.1616 152.233 31.5931 150.469 31.609C148.036 31.641 145.016 30.6023 145.016 30.6023V25.9522H146.113C146.462 28.8445 147.893 30.2987 150.437 30.2987C151.486 30.2987 152.345 30.075 153.012 29.6275C153.776 29.0842 154.141 28.3172 154.141 27.3424C154.141 26.1599 153.394 25.1692 151.884 24.3382C150.453 23.6031 149.038 22.8841 147.639 22.133C146.113 21.1103 145.365 19.8319 145.365 18.2819C145.365 16.7318 145.985 15.5174 147.273 14.5746C148.434 13.7436 149.817 13.3281 151.407 13.3281C152.488 13.3281 154.205 13.5998 156.272 14.1431V18.2179H155.508C155.143 16.9875 154.698 16.1086 154.141 15.5973C153.505 15.006 152.551 14.7024 151.311 14.7024C150.421 14.7024 149.69 14.8941 149.086 15.3256C148.354 15.821 148.004 16.4921 148.004 17.3231C148.004 18.4417 148.768 19.3845 150.294 20.1675C151.693 20.8706 153.092 21.5737 154.539 22.2768C156.033 23.2835 156.796 24.6099 156.796 26.2558L156.78 26.2238Z" fill="white"/>
<path d="M176.602 20.9672H163.788C163.867 23.524 164.424 25.6013 165.473 27.1514C166.713 29.037 168.526 29.9638 170.863 29.9638C172.993 29.9638 174.821 29.4205 176.332 28.3339V29.5483C174.138 30.9226 171.96 31.6097 169.75 31.6097C167.127 31.6097 164.964 30.7309 163.247 28.9571C161.53 27.1833 160.672 24.9781 160.672 22.3095C160.672 20.0244 161.499 17.947 163.184 16.0933C164.869 14.2397 166.825 13.2969 169.05 13.2969C171.451 13.2969 173.311 13.968 174.631 15.3263C175.934 16.6686 176.602 18.5542 176.602 20.9672ZM173.486 19.6249C173.486 18.1707 173.041 16.9882 172.182 16.0614C171.308 15.1346 170.163 14.6711 168.732 14.6711C167.445 14.6711 166.284 15.1825 165.298 16.1732C164.313 17.196 163.804 18.3465 163.788 19.6249H173.486Z" fill="white"/>
<path d="M60.1491 28.6856C59.5768 29.4366 59.1157 29.8041 58.7501 29.8041C57.9552 29.8041 57.6531 28.6536 57.6531 26.3685C57.6531 26.2406 57.6531 26.0968 57.6531 25.937C57.669 25.4097 57.7008 24.6906 57.7644 23.7957C57.8121 22.9009 57.8439 22.1498 57.8598 21.5266C57.8598 21.4627 57.8598 21.4467 57.8598 21.4467C57.8598 21.191 57.8598 20.9833 57.8598 20.7915C57.8598 18.4745 57.51 16.7486 56.8105 15.5981C55.9043 14.064 54.5052 13.3449 52.1682 13.3929C51.1507 13.4248 49.7835 13.7924 48.2413 14.7991C46.7628 15.7898 46.0156 16.7007 45.9202 17.8033C45.8884 18.2028 46.0315 19.0178 46.4925 19.9606L48.8296 18.826C48.4162 18.043 48.3526 17.6275 48.3526 17.1961C48.3526 16.6528 48.7978 15.9337 49.4973 15.4702C50.1968 15.0228 50.8327 14.7991 51.4051 14.7991C52.518 14.7991 53.3606 15.3104 53.9329 16.3172C54.4257 17.1481 54.6801 18.1549 54.6801 19.3214V20.7596C53.456 21.175 52.2477 21.5905 51.0235 22.006C49.2429 22.6452 47.9234 23.3323 47.0172 24.0354C45.7453 24.9623 45.1094 26.0649 45.1094 27.3113C45.1094 28.5577 45.5386 29.5485 46.3971 30.3634C47.2556 31.1784 48.289 31.5619 49.5132 31.5619C51.0394 31.5619 52.8359 30.8269 54.8868 29.3407L54.9345 29.2928C55.1253 29.7722 55.4273 30.2196 55.8407 30.5872C56.3812 31.0665 57.0172 31.3062 57.7167 31.3062C58.3685 31.3062 58.9726 31.0665 59.5609 30.5872C60.0855 30.1237 60.4989 29.5804 60.785 28.9732L60.1491 28.6376V28.6856ZM51.1984 29.5804C50.4194 29.5804 49.704 29.2768 49.0521 28.7015C48.4003 28.1263 48.0664 27.4551 48.0664 26.6721C48.0664 25.4736 48.925 24.5148 50.642 23.8117L54.696 22.1338V24.0194C54.6642 24.8344 54.6642 25.4896 54.696 25.969C54.696 26.4803 54.7278 26.9278 54.7755 27.3592V27.8706C53.297 29.0052 52.0887 29.5804 51.1984 29.5804Z" fill="white"/>
<path d="M0 37.5699V36.1797H180V37.5699H0Z" fill="white"/>
<path d="M27.9146 52.205C28.01 51.7097 28.0418 50.8947 28.0736 49.7601H28.5823C28.6141 50.5272 28.6459 50.9746 28.7254 51.1184C28.7731 51.2622 28.9162 51.4061 29.1547 51.5659C29.3772 51.7257 29.6952 51.8535 30.0768 51.9813C30.4742 52.0932 30.8399 52.1571 31.2055 52.1571C31.7302 52.1571 32.223 52.0293 32.6682 51.7896C33.1133 51.5499 33.4313 51.2303 33.638 50.8308C33.8288 50.4473 33.94 50.0158 33.94 49.5684C33.94 49.2328 33.8924 48.9292 33.797 48.6735C33.6857 48.4178 33.5426 48.2101 33.3359 48.0663C33.1133 47.9225 32.859 47.8106 32.5569 47.7467C32.3661 47.7147 31.9846 47.6668 31.4122 47.6029C30.824 47.523 30.347 47.4271 29.9337 47.3472C29.3931 47.1714 28.9957 46.9796 28.7413 46.74C28.4869 46.5322 28.2803 46.2286 28.1213 45.877C27.9623 45.5095 27.8828 45.126 27.8828 44.6945C27.8828 44.0873 28.0418 43.496 28.3598 42.9527C28.6777 42.4094 29.1547 41.978 29.7747 41.6744C30.4106 41.3707 31.0784 41.2109 31.8097 41.2109C32.2548 41.2109 32.7477 41.2749 33.2723 41.3867C33.797 41.5146 34.2739 41.6743 34.735 41.8981C34.6714 42.2336 34.6237 42.5373 34.576 42.8249C34.5442 43.1125 34.5283 43.528 34.5124 44.0873H33.9877C33.9718 43.2723 33.94 42.8409 33.9241 42.761C33.7811 42.5852 33.6221 42.4094 33.3995 42.2496C32.859 41.946 32.3025 41.8022 31.7143 41.8022C30.9512 41.8022 30.347 42.0259 29.9019 42.4893C29.4408 42.9527 29.2183 43.56 29.2183 44.295C29.2183 44.7425 29.2978 45.094 29.4726 45.3337C29.6316 45.5894 29.9178 45.7652 30.347 45.909C30.6332 46.0049 31.0943 46.1008 31.7461 46.1966C32.3979 46.2765 32.9861 46.3724 33.4949 46.4683C33.9877 46.6121 34.3534 46.7879 34.576 46.9956C34.8144 47.1874 35.0052 47.459 35.1483 47.7946C35.3073 48.1302 35.3868 48.4977 35.3868 48.9452C35.3868 49.9998 34.9575 50.8947 34.099 51.6777C33.2405 52.4607 32.1276 52.8283 30.7604 52.8283C29.727 52.8283 28.8049 52.6365 27.9623 52.221L27.9146 52.205Z" fill="white"/>
<path d="M37.5652 47.2045L37.1518 47.0926C37.1518 46.9648 37.1518 46.821 37.1518 46.5973C37.1518 46.3895 37.1518 46.2138 37.1518 46.0859C37.8196 45.6545 38.3601 45.3508 38.7735 45.207C39.1073 45.0952 39.4571 45.0312 39.8704 45.0312C40.4587 45.0312 40.9515 45.1591 41.3649 45.3668C41.7623 45.5905 42.0803 45.9101 42.2711 46.3256C42.4142 46.6133 42.4777 47.0287 42.4777 47.5241L42.4301 48.9623V51.2953C42.4301 51.551 42.43 51.7268 42.4936 51.8386C42.5254 51.9185 42.5731 51.9825 42.6526 52.0144C42.7003 52.0464 42.8116 52.0624 42.9865 52.0783L43.4952 52.1263V52.5577C43.066 52.5258 42.6844 52.5098 42.3665 52.5098C42.0485 52.5098 41.6351 52.5258 41.1105 52.5577L41.1423 51.1835C40.093 51.9825 39.4571 52.4459 39.2504 52.5418C39.0596 52.6376 38.8052 52.7016 38.5032 52.7016C37.8673 52.7016 37.3744 52.5418 37.0246 52.2062C36.6749 51.8706 36.5 51.4232 36.5 50.8479C36.5 50.4963 36.5636 50.1608 36.6749 49.8572C36.8021 49.5535 36.9452 49.3138 37.1041 49.1381C37.279 48.9623 37.4539 48.8344 37.6288 48.7545C37.9308 48.6107 38.4237 48.4669 39.1073 48.3071C39.7909 48.1473 40.4587 48.0195 41.1264 47.9396C41.1264 47.4282 41.0787 47.0447 40.9515 46.7731C40.8243 46.5014 40.6018 46.2777 40.3156 46.0859C40.0135 45.9101 39.6638 45.8143 39.2345 45.8143C38.9165 45.8143 38.6463 45.8622 38.4237 45.9421C38.1852 46.022 38.0421 46.1019 37.9944 46.1498L37.8514 46.4375C37.7083 46.7571 37.597 47.0127 37.5334 47.1725L37.5652 47.2045ZM41.1582 48.4349C40.4905 48.5468 39.9022 48.6746 39.4253 48.8185C38.9483 48.9623 38.6145 49.1061 38.4078 49.2499C38.2806 49.3458 38.1852 49.4896 38.1057 49.6494C37.9626 49.9051 37.899 50.1927 37.899 50.5123C37.899 50.8958 37.9944 51.1995 38.217 51.4232C38.4237 51.6469 38.7258 51.7428 39.1073 51.7428C39.4571 51.7428 39.8068 51.6469 40.1407 51.4392C40.4746 51.2474 40.8243 50.9438 41.1582 50.5283V48.403V48.4349Z" fill="white"/>
<path d="M44.1808 52.5715V52.1401H44.9121C45.0234 52.1401 45.1029 52.1081 45.1665 52.0761C45.2301 52.0442 45.2778 51.9962 45.3096 51.9483C45.3731 51.8524 45.4049 51.6607 45.4049 51.389C45.4049 51.3251 45.4367 50.574 45.4526 49.1518V45.892C45.4526 45.029 45.4526 44.1182 45.4049 43.1914C45.389 42.5682 45.3573 42.2166 45.3255 42.1367C45.3096 42.0888 45.2619 42.0408 45.1983 42.0408C45.1188 41.9929 44.769 41.9769 44.1172 41.9769V41.5135C45.2937 41.3537 46.1045 41.1779 46.5655 40.9542C46.6291 40.9222 46.6927 40.9062 46.7245 40.9062C46.7563 40.9062 46.7881 40.9063 46.804 40.9382C46.804 40.9542 46.8358 40.9861 46.8358 41.0341C46.8358 41.066 46.8358 41.114 46.8199 41.1939V41.4496C46.7881 42.3924 46.7722 43.1754 46.7563 43.8465V45.077V48.225L46.8358 48.2889C47.1061 48.1131 47.5035 47.7935 48.0282 47.3621C48.3779 47.0585 49.1569 46.3394 50.3811 45.1888C50.7786 45.2208 51.0329 45.2208 51.1442 45.2208C51.2555 45.2208 51.5099 45.2208 51.9232 45.1888V45.6363C51.6212 45.6523 51.4304 45.6682 51.3509 45.7002C51.2237 45.7481 51.017 45.86 50.6991 46.0677C50.2062 46.3713 49.6021 46.8348 48.9026 47.41L48.1076 48.0492C48.521 48.4807 49.2523 49.2158 50.2857 50.2385C51.0647 51.0375 51.5417 51.5009 51.6848 51.6287C51.8437 51.7565 52.0027 51.8364 52.1458 51.8524C52.3048 51.8844 52.5433 51.8844 52.8453 51.8844V52.2519C52.4638 52.3318 52.1458 52.3957 51.8755 52.4437C51.6053 52.5076 51.3032 52.5715 50.9534 52.6674C50.7786 52.5236 50.6037 52.3638 50.4447 52.22C50.2698 52.0602 49.9359 51.7246 49.4272 51.1813C48.362 50.0946 47.5035 49.2477 46.8199 48.6245L46.7404 48.6724V49.1199C46.7404 50.4941 46.7563 51.2292 46.7722 51.3411C46.7722 51.6127 46.804 51.7885 46.8676 51.9163C46.8994 51.9643 46.9153 51.9962 46.963 52.0442C47.0107 52.0761 47.0584 52.0921 47.1538 52.1241C47.1855 52.1241 47.4717 52.1241 48.0123 52.1401V52.5715C47.3286 52.5396 46.7086 52.5236 46.1363 52.5236C45.5639 52.5236 44.928 52.5396 44.1331 52.5715H44.1808Z" fill="white"/>
<path d="M54.4639 47.2045L54.0505 47.0926C54.0505 46.9648 54.0505 46.821 54.0505 46.5973C54.0505 46.3895 54.0505 46.2138 54.0505 46.0859C54.7183 45.6545 55.2588 45.3508 55.6722 45.207C56.006 45.0952 56.3558 45.0312 56.7532 45.0312C57.3415 45.0312 57.8502 45.1591 58.2477 45.3668C58.6451 45.5905 58.9631 45.9101 59.1539 46.3256C59.2811 46.6133 59.3447 47.0287 59.3447 47.5241L59.3129 48.9623V51.2953C59.3129 51.551 59.3288 51.7268 59.3764 51.8386C59.4082 51.9185 59.4559 51.9825 59.5354 52.0144C59.5831 52.0464 59.6944 52.0624 59.8534 52.0783L60.3621 52.1263V52.5577C59.9329 52.5258 59.5672 52.5098 59.2334 52.5098C58.8995 52.5098 58.502 52.5258 57.9774 52.5577L58.0251 51.1835C56.9599 51.9825 56.324 52.4459 56.1332 52.5418C55.9265 52.6376 55.6722 52.7016 55.386 52.7016C54.7501 52.7016 54.2572 52.5418 53.9075 52.2062C53.5577 51.8706 53.3828 51.4232 53.3828 50.8479C53.3828 50.4963 53.4464 50.1608 53.5577 49.8572C53.6849 49.5535 53.828 49.3138 54.0028 49.1381C54.1777 48.9623 54.3526 48.8344 54.5275 48.7545C54.8295 48.6107 55.3224 48.4669 55.9901 48.3071C56.6737 48.1473 57.3415 48.0195 58.0092 47.9396C58.0092 47.4282 57.9615 47.0447 57.8343 46.7731C57.7071 46.5014 57.5005 46.2777 57.1984 46.0859C56.9122 45.9101 56.5466 45.8143 56.1173 45.8143C55.8152 45.8143 55.545 45.8622 55.3065 45.9421C55.068 46.022 54.9249 46.1019 54.8772 46.1498L54.7501 46.4375C54.607 46.7571 54.5116 47.0127 54.448 47.1725L54.4639 47.2045ZM58.041 48.4349C57.3574 48.5468 56.785 48.6746 56.2922 48.8185C55.8311 48.9623 55.4814 49.1061 55.2747 49.2499C55.1475 49.3458 55.0521 49.4896 54.9726 49.6494C54.8296 49.9051 54.766 50.1927 54.766 50.5123C54.766 50.8958 54.8772 51.1995 55.0839 51.4232C55.2906 51.6469 55.5927 51.7428 55.9742 51.7428C56.324 51.7428 56.6737 51.6469 57.0076 51.4392C57.3574 51.2474 57.6912 50.9438 58.0251 50.5283V48.403L58.041 48.4349Z" fill="white"/>
<path d="M61.1094 46.1175V45.67C62.1269 45.5582 62.9695 45.3504 63.6531 45.0308L63.828 45.1427C63.7803 46.2613 63.7644 47.1082 63.7644 47.6995V49.1217C63.7962 50.4959 63.8121 51.231 63.8121 51.3429C63.8121 51.6145 63.8439 51.7903 63.8916 51.9181C63.9234 51.9661 63.9552 51.998 63.987 52.046C64.0347 52.0779 64.0982 52.0939 64.1777 52.1259C64.2095 52.1259 64.5116 52.1259 65.0521 52.1418V52.5733C64.2572 52.5413 63.6213 52.5254 63.1444 52.5254C62.731 52.5254 62.0474 52.5413 61.1094 52.5733V52.1418H61.8566C61.9679 52.1418 62.0474 52.1099 62.111 52.0779C62.1746 52.046 62.2223 51.998 62.2541 51.9501C62.3176 51.8542 62.3653 51.6625 62.3812 51.3908C62.3812 51.3269 62.3812 50.5758 62.413 49.1376V47.7794C62.413 46.9804 62.3971 46.517 62.3335 46.3731C62.3017 46.3092 62.254 46.2293 62.1587 46.1974C62.0792 46.1654 61.7294 46.1334 61.1253 46.1334L61.1094 46.1175ZM63.0172 41.5312C63.2556 41.5312 63.4782 41.6111 63.6372 41.7869C63.7962 41.9627 63.8916 42.1704 63.8916 42.4101C63.8916 42.6498 63.8121 42.8576 63.6372 43.0334C63.4623 43.2091 63.2556 43.289 63.0172 43.289C62.7787 43.289 62.5561 43.2091 62.3971 43.0334C62.2223 42.8576 62.1428 42.6498 62.1428 42.4101C62.1428 42.1704 62.2223 41.9467 62.3971 41.7869C62.572 41.6111 62.7787 41.5312 63.0172 41.5312Z" fill="white"/>
<path d="M69.7899 47.0755C69.7899 46.2606 69.9171 45.4935 70.1555 44.7904C70.4099 44.0873 70.8074 43.4641 71.3797 42.9048C71.952 42.3455 72.6039 41.914 73.3193 41.6424C74.0347 41.3548 74.8773 41.2109 75.7994 41.2109C76.6579 41.2109 77.4369 41.3388 78.1365 41.5785C78.836 41.8341 79.4083 42.1537 79.8694 42.5373C80.3145 42.9527 80.6802 43.3842 80.9346 43.8476C81.1253 44.1992 81.3002 44.6306 81.3956 45.11C81.5228 45.5894 81.5705 46.1167 81.5705 46.6441C81.5705 48.4019 80.9823 49.872 79.7899 51.0385C78.6134 52.221 77.119 52.7963 75.3384 52.7963C74.5117 52.7963 73.7485 52.6525 73.049 52.3968C72.3336 52.1252 71.7454 51.7257 71.2525 51.2143C70.7597 50.687 70.3781 50.0478 70.1237 49.2967C69.8694 48.5457 69.7422 47.8106 69.7422 47.0755H69.7899ZM71.4115 46.4363C71.4115 46.9317 71.4592 47.4431 71.5546 47.9544C71.6659 48.4658 71.7772 48.8972 71.9361 49.2807C72.1905 49.904 72.5085 50.4313 72.9059 50.8627C73.3034 51.2782 73.7644 51.6138 74.2573 51.8056C74.7501 51.9973 75.3066 52.1092 75.9107 52.1092C76.7533 52.1092 77.4846 51.9014 78.1047 51.5019C78.7247 51.1024 79.1858 50.5112 79.4878 49.7601C79.7899 49.0251 79.9489 48.1622 79.9489 47.1874C79.9489 46.3564 79.8376 45.5734 79.615 44.8863C79.4878 44.4548 79.297 44.0553 79.0745 43.7198C78.8519 43.3682 78.5816 43.0806 78.2796 42.8089C77.9775 42.5373 77.5641 42.3295 77.0713 42.1537C76.5784 41.978 76.0379 41.8821 75.4815 41.8821C74.6547 41.8821 73.9393 42.0579 73.2875 42.4254C72.6675 42.8089 72.2064 43.3363 71.8885 44.0394C71.5864 44.7585 71.4115 45.5415 71.4115 46.4363Z" fill="white"/>
<path d="M82.6972 50.2055H83.1742C83.1742 50.5251 83.1742 50.7648 83.2219 50.9406C83.2378 51.1164 83.3014 51.2921 83.3649 51.4679C83.4285 51.6277 83.5239 51.7715 83.6511 51.8994C83.7783 52.0112 83.9214 52.1071 84.0804 52.171C84.2394 52.235 84.3824 52.2829 84.5573 52.2989C84.7163 52.3308 84.9548 52.3308 85.2727 52.3308C85.8133 52.3308 86.2425 52.187 86.5923 51.8994C86.9421 51.6277 87.101 51.2282 87.101 50.7488C87.101 50.5411 87.0533 50.3334 86.9421 50.1576C86.8467 49.9978 86.6877 49.8699 86.481 49.7741C86.2743 49.6782 85.861 49.5663 85.1932 49.4065C84.5414 49.2627 84.1122 49.1508 83.9214 49.0709C83.6352 48.9751 83.3967 48.8312 83.2219 48.6874C83.047 48.5276 82.9198 48.3199 82.8085 48.0802C82.6972 47.8405 82.6495 47.5848 82.6495 47.2972C82.6495 46.8817 82.7608 46.4982 82.9834 46.1626C83.1901 45.8111 83.5398 45.5234 84.0009 45.3157C84.4619 45.108 84.9707 44.9961 85.5112 44.9961C85.8451 44.9961 86.2266 45.06 86.6559 45.1399C87.101 45.2198 87.4349 45.3317 87.7052 45.4755C87.6734 46.0508 87.6416 46.658 87.6257 47.2492H87.1805C87.1487 46.8657 87.1328 46.6101 87.101 46.4982C87.0692 46.3863 87.0215 46.2745 86.958 46.1786C86.9103 46.0827 86.799 45.9868 86.6718 45.875C86.5287 45.7631 86.3379 45.6832 86.1312 45.5873C85.9087 45.5074 85.6384 45.4595 85.3045 45.4595C84.8435 45.4595 84.4778 45.5873 84.2076 45.859C83.9214 46.1307 83.7942 46.4503 83.7942 46.8178C83.7942 47.0255 83.8419 47.2013 83.9214 47.3451C84.0009 47.5049 84.1122 47.6008 84.2394 47.6967C84.3824 47.7926 84.5732 47.8725 84.8117 47.9364L86.0994 48.272C86.7513 48.4318 87.2123 48.5756 87.4667 48.6874C87.7052 48.8153 87.9118 48.991 88.0549 49.2467C88.2139 49.5024 88.2934 49.806 88.2934 50.1576C88.2934 50.8607 88.0072 51.4839 87.419 52.0112C86.8308 52.5386 86.0518 52.8102 85.082 52.8102C84.6368 52.8102 84.0327 52.7303 83.2855 52.6185C82.8721 52.5386 82.6495 52.4746 82.6177 52.4427C82.6018 52.4267 82.5859 52.3947 82.5859 52.3628C82.5859 52.3148 82.5859 52.2829 82.6177 52.219C82.6654 51.9953 82.6972 51.7715 82.6972 51.5638C82.6972 51.3401 82.729 50.8926 82.7449 50.2055H82.6972Z" fill="white"/>
<path d="M90.4561 47.2006L90.0427 47.0887C90.0427 46.9609 90.0427 46.8171 90.0427 46.5934C90.0427 46.3856 90.0427 46.2098 90.0427 46.082C90.6946 45.6506 91.251 45.3469 91.6643 45.2031C91.9823 45.0913 92.348 45.0273 92.7454 45.0273C93.3337 45.0273 93.8424 45.1552 94.2399 45.3629C94.6373 45.5866 94.9394 45.9062 95.1461 46.3217C95.2891 46.6093 95.3527 47.0248 95.3527 47.5202L95.305 48.9584V51.2914C95.305 51.5471 95.3368 51.7229 95.3686 51.8347C95.4004 51.9146 95.464 51.9786 95.5117 52.0105C95.5753 52.0425 95.6707 52.0585 95.8297 52.0744L96.3384 52.1224V52.5538C95.9092 52.5219 95.5276 52.5059 95.2097 52.5059C94.9076 52.5059 94.4942 52.5219 93.9696 52.5538L94.0014 51.1796C92.9521 51.9786 92.3162 52.442 92.1254 52.5379C91.9187 52.6337 91.6802 52.6977 91.3782 52.6977C90.7422 52.6977 90.2494 52.5379 89.8996 52.2023C89.5499 51.8667 89.375 51.4193 89.375 50.844C89.375 50.4924 89.4386 50.1569 89.5499 49.8532C89.6771 49.5496 89.8202 49.3099 89.995 49.1342C90.1699 48.9584 90.3448 48.8305 90.5197 48.7506C90.8217 48.6068 91.3146 48.463 91.9823 48.3032C92.6659 48.1434 93.3337 48.0156 94.0014 47.9357C94.0014 47.4243 93.9537 47.0408 93.8265 46.7691C93.6993 46.4975 93.4926 46.2738 93.1906 46.082C92.8885 45.9062 92.5387 45.8104 92.1095 45.8104C91.8074 45.8104 91.5372 45.8583 91.2987 45.9382C91.0602 46.0181 90.933 46.098 90.8694 46.1459L90.7423 46.4336C90.5992 46.7532 90.4879 47.0088 90.4243 47.1686L90.4561 47.2006ZM94.0173 48.431C93.3496 48.5429 92.7613 48.6707 92.2844 48.8146C91.8074 48.9584 91.4736 49.1022 91.2669 49.246C91.1397 49.3419 91.0443 49.4857 90.9648 49.6455C90.8217 49.9012 90.7581 50.1888 90.7581 50.5084C90.7581 50.8919 90.8694 51.1956 91.0761 51.4193C91.2987 51.643 91.5849 51.7389 91.9823 51.7389C92.3162 51.7389 92.6659 51.643 92.9998 51.4352C93.3496 51.2435 93.6993 50.9399 94.0173 50.5244V48.3991V48.431Z" fill="white"/>
<path d="M97.055 52.5715V52.1401H97.7863C97.9135 52.1401 98.0089 52.1081 98.0565 52.0761C98.1201 52.0442 98.1519 51.9962 98.1996 51.9483C98.2632 51.8524 98.295 51.6607 98.3109 51.389C98.3109 51.3251 98.3427 50.574 98.3586 49.1518V45.892C98.3586 45.029 98.3586 44.1182 98.3268 43.1914C98.3109 42.5682 98.2791 42.2166 98.2473 42.1367C98.2155 42.0888 98.1837 42.0408 98.1201 42.0408C98.0248 41.9929 97.675 41.9769 97.0391 41.9769V41.5135C98.2155 41.3537 99.0263 41.1779 99.4874 40.9542C99.551 40.9222 99.5987 40.9062 99.6464 40.9062C99.6782 40.9062 99.71 40.9063 99.7259 40.9382C99.7418 40.9542 99.7577 40.9861 99.7577 41.0341C99.7577 41.066 99.7577 41.114 99.7418 41.1939V41.4496C99.71 42.3924 99.6941 43.1754 99.6941 43.8465V45.077L99.6782 48.225L99.7736 48.2889C100.06 48.1131 100.457 47.7935 100.966 47.3621C101.316 47.0585 102.095 46.3394 103.319 45.1888C103.732 45.2208 103.987 45.2208 104.082 45.2208C104.177 45.2208 104.448 45.2208 104.877 45.1888V45.6363C104.575 45.6523 104.384 45.6682 104.305 45.7002C104.193 45.7481 103.971 45.86 103.653 46.0677C103.16 46.3713 102.556 46.8348 101.856 47.41L101.045 48.0492C101.475 48.4807 102.206 49.2158 103.239 50.2385C104.018 51.0375 104.495 51.5009 104.638 51.6287C104.797 51.7565 104.956 51.8364 105.099 51.8524C105.258 51.8844 105.497 51.8844 105.799 51.8844V52.2519C105.417 52.3318 105.084 52.3957 104.829 52.4437C104.559 52.5076 104.257 52.5715 103.907 52.6674C103.732 52.5236 103.573 52.3638 103.398 52.22C103.239 52.0602 102.906 51.7246 102.381 51.1813C101.316 50.0946 100.441 49.2477 99.7736 48.6245L99.6782 48.6724V49.1199C99.6941 50.4941 99.71 51.2292 99.7259 51.3411C99.7259 51.6127 99.7577 51.7885 99.8054 51.9163C99.8372 51.9643 99.8689 51.9962 99.9166 52.0442C99.9484 52.0761 100.012 52.0921 100.092 52.1241C100.123 52.1241 100.409 52.1241 100.95 52.1401V52.5715C100.251 52.5396 99.6464 52.5236 99.074 52.5236C98.5017 52.5236 97.8817 52.5396 97.0709 52.5715H97.055Z" fill="white"/>
<path d="M107.346 47.2045L106.933 47.0926C106.933 46.9648 106.933 46.821 106.933 46.5973C106.933 46.3895 106.933 46.2138 106.933 46.0859C107.585 45.6545 108.141 45.3508 108.555 45.207C108.889 45.0952 109.238 45.0312 109.636 45.0312C110.224 45.0312 110.733 45.1591 111.13 45.3668C111.528 45.5905 111.83 45.9101 112.036 46.3256C112.18 46.6133 112.243 47.0287 112.243 47.5241L112.195 48.9623V51.2953C112.195 51.551 112.227 51.7268 112.275 51.8386C112.291 51.9185 112.354 51.9825 112.418 52.0144C112.466 52.0464 112.577 52.0624 112.752 52.0783L113.261 52.1263V52.5577C112.831 52.5258 112.45 52.5098 112.132 52.5098C111.814 52.5098 111.416 52.5258 110.892 52.5577L110.924 51.1835C109.858 51.9825 109.238 52.4459 109.032 52.5418C108.841 52.6376 108.586 52.7016 108.284 52.7016C107.649 52.7016 107.156 52.5418 106.806 52.2062C106.456 51.8706 106.281 51.4232 106.281 50.8479C106.281 50.4963 106.345 50.1608 106.472 49.8572C106.599 49.5535 106.742 49.3138 106.901 49.1381C107.076 48.9623 107.251 48.8344 107.426 48.7545C107.728 48.6107 108.221 48.4669 108.889 48.3071C109.572 48.1473 110.24 48.0195 110.908 47.9396C110.908 47.4282 110.86 47.0447 110.733 46.7731C110.606 46.5014 110.383 46.2777 110.097 46.0859C109.795 45.9101 109.445 45.8143 109.016 45.8143C108.714 45.8143 108.428 45.8622 108.205 45.9421C107.966 46.022 107.823 46.1019 107.776 46.1498L107.633 46.4375C107.49 46.7571 107.378 47.0127 107.331 47.1725L107.346 47.2045ZM110.908 48.4349C110.24 48.5468 109.652 48.6746 109.175 48.8185C108.698 48.9623 108.364 49.1061 108.173 49.2499C108.03 49.3458 107.935 49.4896 107.855 49.6494C107.712 49.9051 107.649 50.1927 107.649 50.5123C107.649 50.8958 107.76 51.1995 107.966 51.4232C108.189 51.6469 108.475 51.7428 108.857 51.7428C109.207 51.7428 109.556 51.6469 109.89 51.4392C110.224 51.2474 110.59 50.9438 110.908 50.5283V48.403V48.4349Z" fill="white"/>
<path d="M117.438 55.6077V55.0804L117.453 54.9685C117.453 54.8407 117.453 54.6649 117.438 54.4252L117.581 54.3133C117.74 54.4252 117.867 54.5051 118.01 54.537C118.137 54.585 118.28 54.601 118.423 54.601C118.709 54.601 118.932 54.553 119.075 54.4252C119.234 54.3293 119.345 54.1375 119.409 53.8978C119.472 53.6582 119.504 53.0349 119.504 52.0122V45.2048C119.504 44.4857 119.488 43.7986 119.457 43.1115C119.441 42.6161 119.409 42.3125 119.345 42.2326C119.298 42.1527 119.202 42.0728 119.059 42.0248C118.932 41.9929 118.55 41.9609 117.946 41.9449V41.4336C118.773 41.4656 119.536 41.4975 120.251 41.4975C121.015 41.4975 121.778 41.4656 122.573 41.4336V41.9449C121.968 41.9449 121.603 41.9929 121.46 42.0248C121.317 42.0728 121.221 42.1367 121.189 42.2166C121.126 42.3125 121.078 42.5682 121.062 42.9677C121.062 43.0635 121.062 43.8146 121.03 45.2048V50.8457C121.03 51.7086 120.951 52.3798 120.824 52.8751C120.681 53.3705 120.426 53.8339 120.077 54.2973C119.743 54.7288 119.361 55.0804 118.964 55.3041C118.566 55.5438 118.153 55.6556 117.787 55.6556C117.676 55.6556 117.581 55.6556 117.453 55.6077H117.438Z" fill="white"/>
<path d="M124.659 47.2045L124.246 47.0926C124.261 46.9648 124.261 46.821 124.261 46.5973C124.261 46.3895 124.261 46.2138 124.246 46.0859C124.913 45.6545 125.454 45.3508 125.867 45.207C126.201 45.0952 126.551 45.0312 126.948 45.0312C127.552 45.0312 128.029 45.1591 128.443 45.3668C128.84 45.5905 129.158 45.9101 129.349 46.3256C129.492 46.6133 129.54 47.0287 129.54 47.5241L129.508 48.9623V51.2953C129.508 51.551 129.524 51.7268 129.571 51.8386C129.603 51.9185 129.651 51.9825 129.715 52.0144C129.778 52.0464 129.889 52.0624 130.048 52.0783L130.557 52.1263V52.5577C130.128 52.5258 129.762 52.5098 129.428 52.5098C129.126 52.5098 128.697 52.5258 128.188 52.5577L128.236 51.1835C127.171 51.9825 126.535 52.4459 126.344 52.5418C126.153 52.6376 125.899 52.7016 125.597 52.7016C124.977 52.7016 124.468 52.5418 124.134 52.2062C123.769 51.8706 123.594 51.4232 123.594 50.8479C123.594 50.4963 123.657 50.1608 123.785 49.8572C123.912 49.5535 124.055 49.3138 124.23 49.1381C124.405 48.9623 124.579 48.8344 124.754 48.7545C125.056 48.6107 125.549 48.4669 126.217 48.3071C126.901 48.1473 127.568 48.0195 128.236 47.9396C128.236 47.4282 128.172 47.0447 128.061 46.7731C127.934 46.5014 127.727 46.2777 127.425 46.0859C127.123 45.9101 126.773 45.8143 126.344 45.8143C126.042 45.8143 125.772 45.8622 125.533 45.9421C125.295 46.022 125.168 46.1019 125.104 46.1498L124.961 46.4375C124.818 46.7571 124.723 47.0127 124.659 47.1725V47.2045ZM128.236 48.4349C127.552 48.5468 126.98 48.6746 126.503 48.8185C126.01 48.9623 125.692 49.1061 125.486 49.2499C125.358 49.3458 125.263 49.4896 125.168 49.6494C125.025 49.9051 124.977 50.1927 124.977 50.5123C124.977 50.8958 125.088 51.1995 125.295 51.4232C125.502 51.6469 125.804 51.7428 126.201 51.7428C126.551 51.7428 126.885 51.6469 127.234 51.4392C127.584 51.2474 127.918 50.9438 128.252 50.5283V48.403L128.236 48.4349Z" fill="white"/>
<path d="M131.219 46.1179V45.6704C131.314 45.6704 131.521 45.6385 131.807 45.6065C132.109 45.5586 132.459 45.4787 132.809 45.3668C133.19 45.255 133.476 45.1591 133.651 45.0632C133.715 45.0313 133.747 45.0312 133.778 45.0312C133.826 45.0312 133.858 45.0313 133.89 45.0632C133.89 45.0792 133.921 45.1271 133.921 45.207C133.921 45.223 133.921 45.2869 133.921 45.3828C133.906 45.5426 133.906 45.6864 133.906 45.7983V46.6292C134.796 45.7983 135.336 45.3508 135.559 45.239C135.845 45.1111 136.274 45.0312 136.831 45.0312C137.514 45.0312 138.071 45.1751 138.548 45.4787C139.025 45.7823 139.375 46.1658 139.597 46.6452C139.804 47.1246 139.915 47.636 139.915 48.1793C139.915 48.5148 139.883 48.8185 139.804 49.1221C139.724 49.4097 139.629 49.6974 139.518 49.9371C139.406 50.2087 139.279 50.4324 139.136 50.6561C138.993 50.8639 138.85 51.0397 138.739 51.1515C138.659 51.2154 138.468 51.3912 138.15 51.6309C137.848 51.8706 137.53 52.0783 137.181 52.2701C136.831 52.4459 136.592 52.5737 136.465 52.6217C136.163 52.7175 135.861 52.7495 135.527 52.7495C135.273 52.7495 135.018 52.7175 134.78 52.6536C134.526 52.5897 134.255 52.4938 133.937 52.334V53.5804C133.953 54.9068 133.985 55.6419 133.985 55.7697C133.985 56.0254 134.017 56.2171 134.08 56.345C134.112 56.3929 134.128 56.4408 134.192 56.4728C134.224 56.5207 134.287 56.5367 134.382 56.5527C134.414 56.5527 134.732 56.5847 135.305 56.5847V57.0161C134.669 56.9842 133.794 56.9842 132.729 56.9842C132.125 56.9842 131.68 56.9842 131.362 57.0161V56.5847H132.109C132.22 56.5687 132.3 56.5527 132.363 56.5207C132.427 56.4728 132.475 56.4408 132.507 56.3929C132.57 56.297 132.602 56.1053 132.618 55.8336C132.618 55.7537 132.634 55.0027 132.665 53.5804V50.8C132.665 49.8891 132.665 48.9623 132.634 48.0195C132.618 47.0607 132.586 46.5334 132.57 46.4535C132.538 46.3736 132.507 46.2937 132.443 46.2457C132.395 46.1978 132.316 46.1818 132.236 46.1658L131.282 46.1339L131.219 46.1179ZM133.906 50.9598C134.176 51.2474 134.51 51.4711 134.859 51.6149C135.209 51.7747 135.575 51.8706 135.972 51.8706C136.449 51.8706 136.879 51.7588 137.26 51.5031C137.642 51.2634 137.96 50.8958 138.182 50.4005C138.405 49.8891 138.516 49.3458 138.516 48.7545C138.516 48.1633 138.421 47.6839 138.198 47.2684C137.976 46.8529 137.673 46.5334 137.276 46.3096C136.894 46.1019 136.481 46.006 136.084 46.006C135.782 46.006 135.495 46.0699 135.209 46.1818C134.923 46.3096 134.653 46.4694 134.414 46.6931C134.176 46.9328 134.033 47.1406 133.953 47.3323C133.921 47.4282 133.906 47.62 133.906 47.9076V50.9438V50.9598Z" fill="white"/>
<path d="M142.253 47.201L141.855 47.0891V46.0664C142.507 45.6349 143.048 45.3313 143.477 45.1875C143.795 45.0756 144.16 45.0117 144.558 45.0117C145.162 45.0117 145.655 45.1396 146.068 45.3473C146.482 45.571 146.784 45.8906 146.974 46.3061C147.102 46.5937 147.165 47.0092 147.165 47.5046L147.133 48.9428V51.2758C147.133 51.5315 147.149 51.7073 147.197 51.8191C147.229 51.899 147.277 51.9629 147.34 51.9949C147.388 52.0269 147.499 52.0428 147.674 52.0588L148.167 52.1068V52.5382C147.753 52.5063 147.372 52.4903 147.054 52.4903C146.736 52.4903 146.323 52.5063 145.798 52.5382L145.83 51.1639C144.765 51.9629 144.145 52.4264 143.938 52.5222C143.747 52.6181 143.493 52.682 143.191 52.682C142.555 52.682 142.062 52.5222 141.712 52.1867C141.362 51.8511 141.188 51.4036 141.188 50.8284C141.188 50.4768 141.235 50.1412 141.362 49.8376C141.49 49.534 141.633 49.2943 141.808 49.1185C141.982 48.9428 142.157 48.8149 142.332 48.735C142.634 48.5912 143.127 48.4474 143.811 48.2876C144.478 48.1278 145.162 47.9999 145.83 47.92C145.83 47.4087 145.782 47.0252 145.655 46.7535C145.528 46.4819 145.321 46.2581 145.035 46.0664C144.733 45.8906 144.367 45.7947 143.954 45.7947C143.652 45.7947 143.381 45.8427 143.143 45.9226C142.92 46.0025 142.761 46.0824 142.714 46.1303L142.571 46.4179C142.428 46.7375 142.316 46.9932 142.253 47.153V47.201ZM145.83 48.4314C145.162 48.5433 144.59 48.6711 144.097 48.8149C143.62 48.9587 143.286 49.1026 143.079 49.2464C142.952 49.3422 142.857 49.4861 142.777 49.6459C142.65 49.9015 142.571 50.1892 142.571 50.5088C142.571 50.8923 142.682 51.1959 142.905 51.4196C143.111 51.6433 143.413 51.7392 143.779 51.7392C144.129 51.7392 144.478 51.6433 144.812 51.4356C145.146 51.2438 145.496 50.9402 145.83 50.5248V48.3994V48.4314Z" fill="white"/>
<path d="M148.773 52.5698V52.1384H149.521C149.616 52.1384 149.711 52.1064 149.775 52.0744C149.823 52.0425 149.87 51.9945 149.902 51.9466C149.966 51.8507 149.998 51.659 150.029 51.3873C150.029 51.3234 150.029 50.5723 150.077 49.1342V48.2073C150.077 47.7919 150.061 47.3444 150.045 46.849C150.045 46.5454 150.013 46.3537 149.982 46.2897C149.934 46.2418 149.886 46.1939 149.807 46.1619C149.727 46.1299 149.393 46.114 148.789 46.13V45.6825C149.839 45.5227 150.602 45.3469 151.095 45.1072C151.19 45.0593 151.269 45.0273 151.301 45.0273C151.333 45.0273 151.365 45.0433 151.397 45.0753C151.397 45.1072 151.413 45.1392 151.413 45.2031C151.413 45.2351 151.413 45.267 151.397 45.331C151.397 45.5067 151.381 45.9062 151.349 46.5135L152.812 45.267C153.241 45.1072 153.638 45.0273 154.02 45.0273C154.449 45.0273 154.831 45.1072 155.228 45.283C155.594 45.4588 155.88 45.6665 156.071 45.9222C156.246 46.1779 156.389 46.5135 156.452 46.913C156.5 47.1527 156.516 47.8078 156.516 48.8785V50.2687C156.516 50.9559 156.532 51.4193 156.564 51.659C156.595 51.8188 156.627 51.9146 156.691 51.9786C156.738 52.0425 156.834 52.0744 156.945 52.1064H157.772V52.5698C157.263 52.5379 156.834 52.5219 156.5 52.5219C156.214 52.5219 155.737 52.5379 155.053 52.5698C155.117 51.2914 155.165 50.4765 155.165 50.1409V48.8146C155.165 47.9836 155.133 47.4403 155.069 47.2006C154.974 46.8331 154.783 46.5454 154.465 46.3537C154.163 46.1459 153.781 46.0181 153.336 46.0181C152.939 46.0181 152.589 46.114 152.255 46.3057C151.953 46.4815 151.715 46.7052 151.587 46.9449C151.444 47.2006 151.365 47.6001 151.365 48.1754V49.1182C151.397 50.4924 151.413 51.2275 151.413 51.3394C151.428 51.611 151.444 51.7868 151.508 51.9146C151.524 51.9626 151.556 51.9945 151.603 52.0425C151.651 52.0744 151.715 52.0904 151.794 52.1224C151.826 52.1224 152.112 52.1224 152.653 52.1384V52.5698C152.001 52.5379 151.428 52.5219 150.936 52.5219C150.49 52.5219 149.775 52.5379 148.789 52.5698H148.773Z" fill="white"/>
</svg>
