<svg width="120" height="38" viewBox="0 0 120 38" fill="none" xmlns="http://www.w3.org/2000/svg">
<g clip-path="url(#clip0_2896_6840)">
<path d="M15.8018 6.48713H15.0811C14.9433 5.0596 14.4876 4.11147 13.7032 3.66403C13.1097 3.31248 11.9968 3.13137 10.3646 3.13137H7.6937V10.578H9.95125C11.1807 10.578 11.9544 10.5247 12.2618 10.3969C12.8977 10.1731 13.2369 9.57657 13.2687 8.61778H13.9894V13.8592H13.2687C13.1945 12.8151 12.9401 12.1546 12.495 11.8777C12.177 11.6859 11.4033 11.6007 10.1844 11.6007H7.6937V17.95C7.6937 18.8449 7.84208 19.4308 8.12825 19.6971C8.41442 19.9741 8.99735 20.1019 9.87706 20.1019V20.8796C7.48172 20.8264 5.25597 20.8264 3.24219 20.8796V20.1019C4.12189 20.1019 4.71543 19.9741 4.991 19.6971C5.27716 19.4308 5.41495 18.8449 5.41495 17.95V5.08091C5.41495 4.17539 5.26656 3.58946 4.991 3.32313C4.71543 3.0568 4.12189 2.91831 3.24219 2.91831V2.14062C5.70112 2.22585 15.8442 2.14062 15.8442 2.14062L15.823 6.49779L15.8018 6.48713Z" fill="#421D12"/>
<path d="M26.9283 11.571H26.5149C26.3559 10.9637 25.8048 10.6548 24.8509 10.6548C23.9818 10.6548 23.3035 11.017 22.8265 11.7201C22.4026 12.3273 22.18 13.0837 22.18 13.9786V18.698C22.18 19.3904 22.286 19.8059 22.4979 19.9337C22.6357 20.0403 23.0703 20.0935 23.8228 20.0935V20.8712C22.3072 20.7967 20.4842 20.7967 18.375 20.8712V20.0935C19.2229 20.0935 19.7422 19.987 19.933 19.7739C20.1238 19.5715 20.2192 19.0495 20.2192 18.2399V12.4978C20.2192 11.6562 19.933 11.2194 19.3925 11.2194C19.0957 11.2194 18.7566 11.3153 18.3856 11.5071V10.7294C19.8164 10.1115 20.9505 9.48294 21.7772 8.84375H22.0422V11.5497C22.9325 9.73862 24.0454 8.84375 25.3702 8.84375C25.8048 8.84375 26.3347 8.93963 26.9389 9.12073V11.5497L26.9283 11.571Z" fill="#421D12"/>
<path d="M56.3228 20.8819C54.5952 20.8073 52.751 20.8073 50.822 20.8819V20.1042C51.6381 20.1042 52.1362 19.9444 52.327 19.6355C52.4436 19.433 52.5072 18.8578 52.5072 17.9203V13.7868C52.5072 11.4964 51.6275 10.3459 49.8575 10.3459C48.9672 10.3459 48.0027 10.8785 46.9534 11.9438V18.7086C46.9534 19.4011 47.0594 19.8166 47.2714 19.9444C47.4304 20.0509 47.8649 20.1042 48.5962 20.1042V20.8819C47.0806 20.8073 45.2576 20.8073 43.1484 20.8819V20.1042C44.0069 20.1042 44.5369 19.9977 44.7171 19.7846C44.8972 19.5822 44.9926 19.0602 44.9926 18.2505V13.7655C44.9926 12.9239 44.9714 12.3913 44.9396 12.1143C44.8231 11.3686 44.5369 10.9957 44.0811 10.9957C43.8586 10.9957 43.5406 11.0916 43.1484 11.2727V10.495C44.3461 10.1008 45.4696 9.54686 46.5507 8.84375H46.805V11.1448C48.2571 9.61078 49.5713 8.84375 50.7478 8.84375C53.3021 8.84375 54.5846 11.0064 54.5846 15.3209C54.5846 15.8003 54.5634 16.4501 54.5316 17.2278C54.4998 18.0162 54.4786 18.5275 54.4786 18.7832C54.4786 19.4224 54.6376 19.8272 54.9449 19.9764C55.1039 20.0403 55.5597 20.0829 56.3228 20.0829V20.8606V20.8819Z" fill="#421D12"/>
<path d="M68.8796 19.3982C67.4064 20.5062 65.9332 21.0601 64.4493 21.0601C62.8277 21.0601 61.4499 20.4742 60.3052 19.2917C59.1711 18.1092 58.6094 16.703 58.6094 15.073C58.6094 13.4431 59.2135 11.909 60.4218 10.6839C61.63 9.46945 63.0821 8.85156 64.7779 8.85156C65.9862 8.85156 67.3428 9.17116 68.4875 9.69317V12.0901L68.2755 12.1434C67.841 11.4509 67.2792 10.8863 66.5797 10.4389C65.8378 10.0021 65.0747 9.76774 64.2692 9.76774C63.1881 9.76774 62.2872 10.1726 61.5982 10.9929C60.9093 11.8132 60.5596 12.7719 60.5596 13.8799C60.5596 15.35 60.9729 16.6817 61.8102 17.8535C62.7429 19.1532 63.9088 19.8031 65.3078 19.8031C66.4101 19.8031 67.576 19.4302 68.7843 18.6951L68.8584 19.3982H68.8796Z" fill="#421D12"/>
<path d="M84.7992 20.8803C82.7218 20.8057 80.8246 20.8057 79.0864 20.8803V20.1026C79.9449 20.1026 80.4855 19.9428 80.6868 19.6339C80.8458 19.3888 80.92 18.7923 80.92 17.8122V13.5509C80.92 11.4096 80.0933 10.3443 78.4293 10.3443C77.6874 10.3443 76.6169 10.845 75.2072 11.857V18.4194C75.2072 19.1651 75.3132 19.6339 75.5358 19.8256C75.7478 20.0174 76.2353 20.1133 76.9772 20.1133V20.8909C75.1224 20.8164 73.1935 20.8164 71.1903 20.8909V20.1133C71.9852 20.1133 72.5257 19.9641 72.8119 19.6552C73.0981 19.3462 73.2359 18.771 73.2359 17.9187V3.8245C73.2359 2.94029 72.9179 2.49285 72.2714 2.49285C71.9746 2.49285 71.6142 2.58873 71.1797 2.78049V1.89627C72.3562 1.43818 73.6386 0.809644 75.0165 0H75.2814C75.2284 0.607233 75.1966 2.06672 75.1966 4.37847V10.8237C76.1399 10.1206 76.7441 9.67312 77.0408 9.51332C77.7616 9.08719 78.4717 8.87412 79.15 8.87412C80.6126 8.87412 81.6407 9.39613 82.2131 10.4295C82.6476 11.1965 82.8596 12.3577 82.8596 13.9237C82.8596 14.2966 82.849 14.8612 82.8066 15.5963C82.7748 16.342 82.7642 16.864 82.7642 17.173C82.7642 19.1225 83.2942 20.1026 84.3434 20.1026H84.7886V20.8803H84.7992Z" fill="#421D12"/>
<path d="M93.8544 20.8818H87.7812V20.1041C88.6398 20.1041 89.2015 19.9656 89.4559 19.6886C89.7102 19.4116 89.8374 18.8151 89.8374 17.9095V12.5829C89.8374 11.6774 89.5725 11.23 89.0319 11.23C88.7033 11.23 88.3324 11.3258 87.9296 11.5176V10.7399C89.3923 10.2073 90.6005 9.57872 91.5544 8.85431H91.8194V17.9095C91.8194 18.8151 91.9466 19.401 92.201 19.678C92.4659 19.9549 93.0171 20.0934 93.865 20.0934V20.8711L93.8544 20.8818ZM92.1056 4.90196C92.1056 5.26417 91.989 5.57312 91.7346 5.82879C91.4802 6.08447 91.1729 6.20166 90.8125 6.20166C90.4522 6.20166 90.1448 6.08447 89.8904 5.82879C89.636 5.57312 89.5089 5.26417 89.5089 4.90196C89.5089 4.53975 89.6254 4.22016 89.8904 3.96448C90.1448 3.7088 90.4522 3.57031 90.8125 3.57031C91.1729 3.57031 91.4908 3.69815 91.7346 3.96448C91.989 4.23081 92.1056 4.5291 92.1056 4.90196Z" fill="#421D12"/>
<path d="M104.515 17.48C104.515 18.6305 104.091 19.5254 103.243 20.1859C102.469 20.7718 101.484 21.0594 100.307 21.0701C98.6857 21.0914 96.6719 20.3989 96.6719 20.3989V17.2988H97.4032C97.6364 19.2271 98.5903 20.1965 100.286 20.1965C100.986 20.1965 101.558 20.0474 102.003 19.7491C102.512 19.3869 102.756 18.8755 102.756 18.2257C102.756 17.4373 102.257 16.7768 101.251 16.2229C100.297 15.7328 99.3534 15.2534 98.4207 14.7527C97.4032 14.0709 96.9051 13.2187 96.9051 12.1853C96.9051 11.1519 97.3184 10.3423 98.1769 9.71376C98.9506 9.1598 99.8727 8.88281 100.933 8.88281C101.653 8.88281 102.798 9.06392 104.176 9.42613V12.1427H103.667C103.423 11.3224 103.127 10.7365 102.756 10.3956C102.332 10.0014 101.696 9.79899 100.869 9.79899C100.275 9.79899 99.7879 9.92683 99.3852 10.2145C98.8976 10.5447 98.6645 10.9921 98.6645 11.5461C98.6645 12.2918 99.1732 12.9204 100.191 13.4424C101.123 13.9111 102.056 14.3799 103.021 14.8486C104.017 15.5198 104.526 16.404 104.526 17.5013L104.515 17.48Z" fill="#421D12"/>
<path d="M117.729 13.9768H109.187C109.24 15.6813 109.611 17.0663 110.31 18.0996C111.137 19.3567 112.345 19.9746 113.903 19.9746C115.323 19.9746 116.542 19.6124 117.549 18.888V19.6976C116.087 20.6138 114.635 21.0719 113.161 21.0719C111.413 21.0719 109.971 20.4859 108.826 19.3034C107.682 18.1209 107.109 16.6508 107.109 14.8717C107.109 13.3483 107.661 11.9634 108.784 10.7276C109.907 9.49182 111.211 8.86328 112.695 8.86328C114.295 8.86328 115.535 9.31072 116.415 10.2162C117.284 11.1111 117.729 12.3682 117.729 13.9768ZM115.652 13.082C115.652 12.1125 115.355 11.3242 114.783 10.7063C114.2 10.0884 113.437 9.77946 112.483 9.77946C111.624 9.77946 110.851 10.1204 110.194 10.7809C109.537 11.4627 109.197 12.2297 109.187 13.082H115.652Z" fill="#421D12"/>
<path d="M40.0968 19.1224C39.7153 19.6231 39.4079 19.8681 39.1641 19.8681C38.6342 19.8681 38.4328 19.1011 38.4328 17.5777C38.4328 17.4925 38.4328 17.3966 38.4328 17.29C38.4434 16.9385 38.4646 16.4591 38.507 15.8625C38.5388 15.2659 38.56 14.7652 38.5706 14.3498C38.5706 14.3071 38.5706 14.2965 38.5706 14.2965C38.5706 14.126 38.5706 13.9876 38.5706 13.8597C38.5706 12.315 38.3374 11.1645 37.8711 10.3974C37.2669 9.37471 36.3342 8.89532 34.7762 8.92728C34.0979 8.94858 33.1864 9.19361 32.1583 9.86476C31.1726 10.5253 30.6744 11.1325 30.6109 11.8676C30.5897 12.1339 30.685 12.6772 30.9924 13.3057L32.5504 12.5494C32.2749 12.0274 32.2325 11.7504 32.2325 11.4627C32.2325 11.1005 32.5292 10.6211 32.9956 10.3122C33.4619 10.0139 33.8859 9.86476 34.2675 9.86476C35.0094 9.86476 35.5711 10.2057 35.9527 10.8768C36.2812 11.4308 36.4508 12.1019 36.4508 12.8796V13.8384C35.6347 14.1154 34.8292 14.3924 34.0131 14.6694C32.826 15.0955 31.9463 15.5536 31.3422 16.0223C30.4943 16.6402 30.0703 17.3753 30.0703 18.2062C30.0703 19.0372 30.3565 19.6977 30.9288 20.241C31.5012 20.7843 32.1901 21.04 33.0062 21.04C34.0237 21.04 35.2213 20.5499 36.5886 19.5592L36.6204 19.5272C36.7476 19.8468 36.949 20.1451 37.2245 20.3901C37.5849 20.7097 38.0088 20.8695 38.4752 20.8695C38.9097 20.8695 39.3125 20.7097 39.7046 20.3901C40.0544 20.0812 40.33 19.719 40.5208 19.3142L40.0968 19.0904V19.1224ZM34.1297 19.719C33.6103 19.719 33.1334 19.5166 32.6988 19.1331C32.2643 18.7495 32.0417 18.3021 32.0417 17.7801C32.0417 16.9811 32.614 16.3419 33.7587 15.8732L36.4614 14.7546V16.0117C36.4402 16.555 36.4402 16.9918 36.4614 17.3114C36.4614 17.6523 36.4826 17.9505 36.5144 18.2382V18.5791C35.5287 19.3355 34.7232 19.719 34.1297 19.719Z" fill="#421D12"/>
<path d="M0 25.044V24.1172H120V25.044H0Z" fill="#421D12"/>
<path d="M18.6149 34.806C18.6785 34.4757 18.6997 33.9324 18.7209 33.176H19.0601C19.0813 33.6874 19.1025 33.9857 19.1555 34.0816C19.1873 34.1774 19.2827 34.2733 19.4417 34.3798C19.59 34.4864 19.802 34.5716 20.0564 34.6568C20.3214 34.7314 20.5651 34.774 20.8089 34.774C21.1587 34.774 21.4872 34.6888 21.784 34.529C22.0808 34.3692 22.2927 34.1561 22.4305 33.8898C22.5577 33.6341 22.6319 33.3465 22.6319 33.0482C22.6319 32.8245 22.6001 32.6221 22.5365 32.4516C22.4623 32.2812 22.3669 32.1427 22.2291 32.0468C22.0808 31.9509 21.9112 31.8763 21.7098 31.8337C21.5826 31.8124 21.3282 31.7805 20.9467 31.7378C20.5545 31.6846 20.2366 31.6207 19.961 31.5674C19.6006 31.4502 19.3357 31.3224 19.1661 31.1626C18.9965 31.0241 18.8587 30.8217 18.7527 30.5873C18.6467 30.3423 18.5938 30.0866 18.5938 29.799C18.5938 29.3941 18.6997 29 18.9117 28.6378C19.1237 28.2756 19.4417 27.9879 19.855 27.7855C20.279 27.5831 20.7241 27.4766 21.2117 27.4766C21.5084 27.4766 21.837 27.5192 22.1868 27.5937C22.5365 27.679 22.8545 27.7855 23.1618 27.9346C23.1195 28.1584 23.0877 28.3608 23.0559 28.5525C23.0347 28.7443 23.0241 29.0213 23.0135 29.3941H22.6637C22.6531 28.8508 22.6319 28.5632 22.6213 28.5099C22.5259 28.3927 22.4199 28.2756 22.2715 28.169C21.9112 27.9666 21.5402 27.8707 21.1481 27.8707C20.6393 27.8707 20.2366 28.0199 19.9398 28.3288C19.6324 28.6378 19.4841 29.0426 19.4841 29.5326C19.4841 29.8309 19.537 30.0653 19.6536 30.2251C19.7596 30.3955 19.9504 30.5127 20.2366 30.6086C20.4273 30.6725 20.7347 30.7364 21.1693 30.8004C21.6038 30.8536 21.996 30.9175 22.3351 30.9815C22.6637 31.0773 22.9075 31.1945 23.0559 31.333C23.2148 31.4609 23.342 31.642 23.4374 31.8657C23.5434 32.0894 23.5964 32.3344 23.5964 32.6327C23.5964 33.3358 23.3102 33.9324 22.7379 34.4544C22.1656 34.9764 21.4236 35.2214 20.5121 35.2214C19.8232 35.2214 19.2085 35.0936 18.6467 34.8166L18.6149 34.806Z" fill="#421D12"/>
<path d="M25.0539 31.4723L24.7783 31.3977C24.7783 31.3125 24.7783 31.2166 24.7783 31.0675C24.7783 30.929 24.7783 30.8118 24.7783 30.7265C25.2235 30.4389 25.5838 30.2365 25.8594 30.1406C26.082 30.0661 26.3151 30.0234 26.5907 30.0234C26.9829 30.0234 27.3114 30.1087 27.587 30.2472C27.852 30.3963 28.0639 30.6094 28.1911 30.8863C28.2865 31.0781 28.3289 31.3551 28.3289 31.6853L28.2971 32.6441V34.1995C28.2971 34.3699 28.2971 34.4871 28.3395 34.5617C28.3607 34.615 28.3925 34.6576 28.4455 34.6789C28.4773 34.7002 28.5515 34.7109 28.6681 34.7215L29.0072 34.7535V35.0411C28.7211 35.0198 28.4667 35.0091 28.2547 35.0091C28.0427 35.0091 27.7672 35.0198 27.4174 35.0411L27.4386 34.1249C26.7391 34.6576 26.3151 34.9665 26.1773 35.0304C26.0502 35.0944 25.8806 35.137 25.6792 35.137C25.2552 35.137 24.9267 35.0304 24.6935 34.8067C24.4603 34.583 24.3438 34.2847 24.3438 33.9012C24.3438 33.6668 24.3861 33.4431 24.4603 33.2407C24.5451 33.0383 24.6405 32.8785 24.7465 32.7613C24.8631 32.6441 24.9797 32.5589 25.0963 32.5056C25.2976 32.4098 25.6262 32.3139 26.082 32.2073C26.5377 32.1008 26.9829 32.0156 27.428 31.9623C27.428 31.6214 27.3962 31.3657 27.3114 31.1846C27.2266 31.0035 27.0783 30.8544 26.8875 30.7265C26.6861 30.6094 26.4529 30.5454 26.1668 30.5454C25.9548 30.5454 25.7746 30.5774 25.6262 30.6307C25.4672 30.6839 25.3718 30.7372 25.34 30.7692L25.2447 30.9609C25.1493 31.174 25.0751 31.3444 25.0327 31.451L25.0539 31.4723ZM27.4492 32.2926C27.0041 32.3671 26.6119 32.4524 26.2939 32.5482C25.976 32.6441 25.7534 32.74 25.6156 32.8359C25.5308 32.8998 25.4672 32.9957 25.4142 33.1022C25.3188 33.2727 25.2764 33.4644 25.2764 33.6775C25.2764 33.9332 25.34 34.1356 25.4884 34.2847C25.6262 34.4339 25.8276 34.4978 26.082 34.4978C26.3151 34.4978 26.5483 34.4339 26.7709 34.2954C26.9935 34.1675 27.2266 33.9651 27.4492 33.6881V32.2713V32.2926Z" fill="#421D12"/>
<path d="M29.4643 35.0503V34.7626H29.9518C30.026 34.7626 30.079 34.7413 30.1214 34.72C30.1638 34.6987 30.1956 34.6668 30.2168 34.6348C30.2592 34.5709 30.2804 34.443 30.2804 34.2619C30.2804 34.2193 30.3016 33.7186 30.3122 32.7705V30.5972C30.3122 30.022 30.3122 29.4147 30.2804 28.7968C30.2698 28.3814 30.2486 28.147 30.2274 28.0937C30.2168 28.0618 30.185 28.0298 30.1426 28.0298C30.0896 27.9979 29.8564 27.9872 29.4219 27.9872V27.6783C30.2062 27.5717 30.7467 27.4545 31.0541 27.3054C31.0965 27.2841 31.1389 27.2734 31.1601 27.2734C31.1813 27.2734 31.2025 27.2734 31.2131 27.2947C31.2131 27.3054 31.2343 27.3267 31.2343 27.3587C31.2343 27.38 31.2343 27.4119 31.2237 27.4652V27.6356C31.2025 28.2642 31.1919 28.7862 31.1813 29.2336V30.0539V32.1526L31.2343 32.1952C31.4145 32.078 31.6794 31.865 32.0292 31.5773C32.2624 31.3749 32.7817 30.8955 33.5978 30.1285C33.8628 30.1498 34.0324 30.1498 34.1066 30.1498C34.1807 30.1498 34.3503 30.1498 34.6259 30.1285V30.4268C34.4245 30.4374 34.2973 30.4481 34.2443 30.4694C34.1596 30.5014 34.0218 30.5759 33.8098 30.7144C33.4812 30.9168 33.0785 31.2258 32.6121 31.6093L32.0822 32.0354C32.3578 32.3231 32.8453 32.8131 33.5342 33.4949C34.0536 34.0276 34.3715 34.3365 34.4669 34.4217C34.5729 34.507 34.6789 34.5602 34.7743 34.5709C34.8803 34.5922 35.0393 34.5922 35.2406 34.5922V34.8372C34.9863 34.8905 34.7743 34.9331 34.5941 34.9651C34.4139 35.0077 34.2125 35.0503 33.9794 35.1142C33.8628 35.0183 33.7462 34.9118 33.6402 34.8159C33.5236 34.7094 33.301 34.4857 32.9619 34.1235C32.2518 33.399 31.6794 32.8344 31.2237 32.4189L31.1707 32.4509V32.7492C31.1707 33.6654 31.1813 34.1554 31.1919 34.23C31.1919 34.4111 31.2131 34.5283 31.2555 34.6135C31.2767 34.6455 31.2873 34.6668 31.3191 34.6987C31.3509 34.72 31.3827 34.7307 31.4463 34.752C31.4674 34.752 31.6582 34.752 32.0186 34.7626V35.0503C31.5628 35.029 31.1495 35.0183 30.7679 35.0183C30.3864 35.0183 29.9624 35.029 29.4325 35.0503H29.4643Z" fill="#421D12"/>
<path d="M36.3145 31.4723L36.0389 31.3977C36.0389 31.3125 36.0389 31.2166 36.0389 31.0675C36.0389 30.929 36.0389 30.8118 36.0389 30.7265C36.4841 30.4389 36.8444 30.2365 37.12 30.1406C37.3426 30.0661 37.5757 30.0234 37.8407 30.0234C38.2329 30.0234 38.572 30.1087 38.837 30.2472C39.102 30.3963 39.3139 30.6094 39.4411 30.8863C39.5259 31.0781 39.5683 31.3551 39.5683 31.6853L39.5471 32.6441V34.1995C39.5471 34.3699 39.5577 34.4871 39.5895 34.5617C39.6107 34.615 39.6425 34.6576 39.6955 34.6789C39.7273 34.7002 39.8015 34.7109 39.9075 34.7215L40.2466 34.7535V35.0411C39.9605 35.0198 39.7167 35.0091 39.4941 35.0091C39.2715 35.0091 39.0066 35.0198 38.6568 35.0411L38.6886 34.1249C37.9785 34.6576 37.5545 34.9665 37.4273 35.0304C37.2896 35.0944 37.12 35.137 36.9292 35.137C36.5052 35.137 36.1767 35.0304 35.9435 34.8067C35.7103 34.583 35.5938 34.2847 35.5938 33.9012C35.5938 33.6668 35.6361 33.4431 35.7103 33.2407C35.7951 33.0383 35.8905 32.8785 36.0071 32.7613C36.1237 32.6441 36.2403 32.5589 36.3569 32.5056C36.5582 32.4098 36.8868 32.3139 37.332 32.2073C37.7877 32.1008 38.2329 32.0156 38.678 31.9623C38.678 31.6214 38.6462 31.3657 38.5614 31.1846C38.4766 31.0035 38.3388 30.8544 38.1375 30.7265C37.9467 30.6094 37.7029 30.5454 37.4167 30.5454C37.2154 30.5454 37.0352 30.5774 36.8762 30.6307C36.7172 30.6839 36.6218 30.7372 36.59 30.7692L36.5052 30.9609C36.4099 31.174 36.3463 31.3444 36.3039 31.451L36.3145 31.4723ZM38.6992 32.2926C38.2435 32.3671 37.8619 32.4524 37.5333 32.5482C37.226 32.6441 36.9928 32.74 36.855 32.8359C36.7702 32.8998 36.7066 32.9957 36.6536 33.1022C36.5582 33.2727 36.5158 33.4644 36.5158 33.6775C36.5158 33.9332 36.59 34.1356 36.7278 34.2847C36.8656 34.4339 37.067 34.4978 37.3214 34.4978C37.5545 34.4978 37.7877 34.4339 38.0103 34.2954C38.2435 34.1675 38.466 33.9651 38.6886 33.6881V32.2713L38.6992 32.2926Z" fill="#421D12"/>
<path d="M40.75 30.745V30.4467C41.4283 30.3721 41.9901 30.2336 42.4458 30.0206L42.5624 30.0951C42.5306 30.8409 42.52 31.4055 42.52 31.7996V32.7478C42.5412 33.664 42.5518 34.154 42.5518 34.2286C42.5518 34.4097 42.573 34.5269 42.6048 34.6121C42.626 34.644 42.6472 34.6654 42.6684 34.6973C42.7002 34.7186 42.7426 34.7293 42.7956 34.7506C42.8168 34.7506 43.0181 34.7506 43.3785 34.7612V35.0489C42.8486 35.0276 42.4246 35.0169 42.1067 35.0169C41.8311 35.0169 41.3753 35.0276 40.75 35.0489V34.7612H41.2481C41.3223 34.7612 41.3753 34.7399 41.4177 34.7186C41.4601 34.6973 41.4919 34.6654 41.5131 34.6334C41.5555 34.5695 41.5873 34.4416 41.5979 34.2605C41.5979 34.2179 41.5979 33.7172 41.6191 32.7584V31.8529C41.6191 31.3202 41.6085 31.0113 41.5661 30.9154C41.5449 30.8728 41.5131 30.8195 41.4495 30.7982C41.3965 30.7769 41.1634 30.7556 40.7606 30.7556L40.75 30.745ZM42.0219 27.6875C42.1808 27.6875 42.3292 27.7408 42.4352 27.858C42.5412 27.9751 42.6048 28.1136 42.6048 28.2734C42.6048 28.4332 42.5518 28.5717 42.4352 28.6889C42.3186 28.8061 42.1808 28.8594 42.0219 28.8594C41.8629 28.8594 41.7145 28.8061 41.6085 28.6889C41.4919 28.5717 41.4389 28.4332 41.4389 28.2734C41.4389 28.1136 41.4919 27.9645 41.6085 27.858C41.7251 27.7408 41.8629 27.6875 42.0219 27.6875Z" fill="#421D12"/>
<path d="M46.5318 31.3863C46.5318 30.843 46.6166 30.3316 46.7756 29.8629C46.9452 29.3941 47.2101 28.9787 47.5917 28.6058C47.9732 28.2329 48.4078 27.9453 48.8847 27.7642C49.3617 27.5724 49.9234 27.4766 50.5382 27.4766C51.1105 27.4766 51.6298 27.5618 52.0962 27.7216C52.5625 27.892 52.9441 28.1051 53.2515 28.3608C53.5482 28.6378 53.792 28.9254 53.9616 29.2343C54.0888 29.4687 54.2054 29.7563 54.2689 30.0759C54.3537 30.3955 54.3855 30.7471 54.3855 31.0987C54.3855 32.2705 53.9934 33.2506 53.1985 34.0283C52.4141 34.8166 51.4179 35.2001 50.2308 35.2001C49.6797 35.2001 49.1709 35.1043 48.7046 34.9338C48.2276 34.7527 47.8355 34.4864 47.5069 34.1455C47.1783 33.7939 46.924 33.3678 46.7544 32.8671C46.5848 32.3664 46.5 31.8763 46.5 31.3863H46.5318ZM47.6129 30.9602C47.6129 31.2904 47.6447 31.6313 47.7083 31.9722C47.7825 32.3131 47.8567 32.6008 47.9626 32.8564C48.1322 33.2719 48.3442 33.6235 48.6092 33.9111C48.8741 34.1881 49.1815 34.4118 49.5101 34.5396C49.8386 34.6675 50.2096 34.7421 50.6123 34.7421C51.1741 34.7421 51.6616 34.6036 52.075 34.3372C52.4883 34.0709 52.7957 33.6767 52.9971 33.176C53.1985 32.686 53.3045 32.1107 53.3045 31.4609C53.3045 30.9069 53.2303 30.3849 53.0819 29.9268C52.9971 29.6392 52.8699 29.3728 52.7215 29.1491C52.5731 28.9147 52.393 28.723 52.1916 28.5419C51.9902 28.3608 51.7146 28.2223 51.3861 28.1051C51.0575 27.9879 50.6971 27.924 50.3262 27.924C49.775 27.924 49.2981 28.0412 48.8635 28.2862C48.4502 28.5419 48.1428 28.8934 47.9308 29.3622C47.7295 29.8416 47.6129 30.3636 47.6129 30.9602Z" fill="#421D12"/>
<path d="M55.1367 33.4729H55.4547C55.4547 33.686 55.4547 33.8458 55.4865 33.963C55.497 34.0802 55.5394 34.1974 55.5818 34.3145C55.6242 34.4211 55.6878 34.517 55.7726 34.6022C55.8574 34.6768 55.9528 34.7407 56.0588 34.7833C56.1648 34.8259 56.2602 34.8579 56.3768 34.8685C56.4827 34.8898 56.6417 34.8898 56.8537 34.8898C57.2141 34.8898 57.5002 34.7939 57.7334 34.6022C57.9666 34.4211 58.0726 34.1548 58.0726 33.8352C58.0726 33.6967 58.0408 33.5582 57.9666 33.441C57.903 33.3345 57.797 33.2492 57.6592 33.1853C57.5214 33.1214 57.2459 33.0468 56.8007 32.9403C56.3662 32.8444 56.08 32.7698 55.9528 32.7166C55.762 32.6526 55.603 32.5568 55.4865 32.4609C55.3699 32.3544 55.2851 32.2159 55.2109 32.0561C55.1367 31.8963 55.1049 31.7258 55.1049 31.5341C55.1049 31.2571 55.1791 31.0014 55.3275 30.7777C55.4653 30.5433 55.6984 30.3516 56.0058 30.2131C56.3132 30.0746 56.6523 30 57.0127 30C57.2353 30 57.4896 30.0426 57.7758 30.0959C58.0726 30.1491 58.2951 30.2237 58.4753 30.3196C58.4541 30.7031 58.4329 31.1079 58.4223 31.5021H58.1256C58.1044 31.2464 58.0938 31.076 58.0726 31.0014C58.0514 30.9268 58.0196 30.8523 57.9772 30.7883C57.9454 30.7244 57.8712 30.6605 57.7864 30.5859C57.691 30.5114 57.5638 30.4581 57.426 30.3942C57.2777 30.3409 57.0975 30.3089 56.8749 30.3089C56.5675 30.3089 56.3238 30.3942 56.1436 30.5753C55.9528 30.7564 55.868 30.9694 55.868 31.2145C55.868 31.353 55.8998 31.4701 55.9528 31.566C56.0058 31.6726 56.08 31.7365 56.1648 31.8004C56.2602 31.8643 56.3874 31.9176 56.5463 31.9602L57.4048 32.1839C57.8394 32.2904 58.1468 32.3863 58.3163 32.4609C58.4753 32.5461 58.6131 32.6633 58.7085 32.8338C58.8145 33.0042 58.8675 33.2066 58.8675 33.441C58.8675 33.9097 58.6767 34.3252 58.2845 34.6768C57.8924 35.0283 57.373 35.2094 56.7265 35.2094C56.4297 35.2094 56.027 35.1562 55.5288 35.0816C55.2533 35.0283 55.1049 34.9857 55.0837 34.9644C55.0731 34.9537 55.0625 34.9324 55.0625 34.9111C55.0625 34.8792 55.0625 34.8579 55.0837 34.8153C55.1155 34.6661 55.1367 34.517 55.1367 34.3785C55.1367 34.2293 55.1579 33.931 55.1685 33.4729H55.1367Z" fill="#421D12"/>
<path d="M60.3145 31.4723L60.0389 31.3977C60.0389 31.3125 60.0389 31.2166 60.0389 31.0675C60.0389 30.929 60.0389 30.8118 60.0389 30.7265C60.4735 30.4389 60.8444 30.2365 61.12 30.1406C61.332 30.0661 61.5757 30.0234 61.8407 30.0234C62.2329 30.0234 62.572 30.1087 62.837 30.2472C63.102 30.3963 63.3033 30.6094 63.4411 30.8863C63.5365 31.0781 63.5789 31.3551 63.5789 31.6853L63.5471 32.6441V34.1995C63.5471 34.3699 63.5683 34.4871 63.5895 34.5617C63.6107 34.615 63.6531 34.6576 63.6849 34.6789C63.7273 34.7002 63.7909 34.7109 63.8969 34.7215L64.236 34.7535V35.0411C63.9499 35.0198 63.6955 35.0091 63.4835 35.0091C63.2821 35.0091 63.0066 35.0198 62.6568 35.0411L62.678 34.1249C61.9785 34.6576 61.5545 34.9665 61.4273 35.0304C61.2896 35.0944 61.1306 35.137 60.9292 35.137C60.5052 35.137 60.1767 35.0304 59.9435 34.8067C59.7103 34.583 59.5938 34.2847 59.5938 33.9012C59.5938 33.6668 59.6361 33.4431 59.7103 33.2407C59.7951 33.0383 59.8905 32.8785 60.0071 32.7613C60.1237 32.6441 60.2403 32.5589 60.3569 32.5056C60.5582 32.4098 60.8868 32.3139 61.332 32.2073C61.7877 32.1008 62.2329 32.0156 62.678 31.9623C62.678 31.6214 62.6462 31.3657 62.5614 31.1846C62.4766 31.0035 62.3388 30.8544 62.1375 30.7265C61.9361 30.6094 61.7029 30.5454 61.4167 30.5454C61.2154 30.5454 61.0352 30.5774 60.8762 30.6307C60.7172 30.6839 60.6324 30.7372 60.59 30.7692L60.5053 30.9609C60.4099 31.174 60.3357 31.3444 60.2933 31.451L60.3145 31.4723ZM62.6886 32.2926C62.2435 32.3671 61.8513 32.4524 61.5333 32.5482C61.2154 32.6441 60.9928 32.74 60.855 32.8359C60.7702 32.8998 60.7066 32.9957 60.6536 33.1022C60.5582 33.2727 60.5158 33.4644 60.5158 33.6775C60.5158 33.9332 60.59 34.1356 60.7278 34.2847C60.8762 34.4339 61.067 34.4978 61.332 34.4978C61.5545 34.4978 61.7877 34.4339 62.0103 34.2954C62.2435 34.1675 62.4766 33.9651 62.6886 33.6881V32.2713V32.2926Z" fill="#421D12"/>
<path d="M64.7137 35.0503V34.7626H65.2013C65.2861 34.7626 65.3497 34.7413 65.3814 34.72C65.4238 34.6987 65.445 34.6668 65.4768 34.6348C65.5192 34.5709 65.5404 34.443 65.551 34.2619C65.551 34.2193 65.5722 33.7186 65.5828 32.7705V30.5972C65.5828 30.022 65.5828 29.4147 65.5616 28.7968C65.551 28.3814 65.5298 28.147 65.5086 28.0937C65.4874 28.0618 65.4662 28.0298 65.4238 28.0298C65.3603 27.9979 65.1271 27.9872 64.7031 27.9872V27.6783C65.4874 27.5717 66.028 27.4545 66.3353 27.3054C66.3777 27.2841 66.4095 27.2734 66.4413 27.2734C66.4625 27.2734 66.4837 27.2734 66.4943 27.2947C66.5049 27.3054 66.5155 27.3267 66.5155 27.3587C66.5155 27.38 66.5155 27.4119 66.5049 27.4652V27.6356C66.4837 28.2642 66.4731 28.7862 66.4731 29.2336V30.0539L66.4625 32.1526L66.5261 32.1952C66.7169 32.078 66.9819 31.865 67.321 31.5773C67.5542 31.3749 68.0736 30.8955 68.8897 30.1285C69.1652 30.1498 69.3348 30.1498 69.3984 30.1498C69.462 30.1498 69.6422 30.1498 69.9284 30.1285V30.4268C69.727 30.4374 69.5998 30.4481 69.5468 30.4694C69.4726 30.5014 69.3242 30.5759 69.1122 30.7144C68.7837 30.9168 68.3809 31.2258 67.9146 31.6093L67.374 32.0354C67.6602 32.3231 68.1477 32.8131 68.8367 33.4949C69.356 34.0276 69.674 34.3365 69.7694 34.4217C69.8754 34.507 69.9813 34.5602 70.0767 34.5709C70.1827 34.5922 70.3417 34.5922 70.5431 34.5922V34.8372C70.2887 34.8905 70.0661 34.9331 69.8966 34.9651C69.7164 35.0077 69.515 35.0503 69.2818 35.1142C69.1652 35.0183 69.0592 34.9118 68.9427 34.8159C68.8367 34.7094 68.6141 34.4857 68.2643 34.1235C67.5542 33.399 66.9713 32.8344 66.5261 32.4189L66.4625 32.4509V32.7492C66.4731 33.6654 66.4837 34.1554 66.4943 34.23C66.4943 34.4111 66.5155 34.5283 66.5473 34.6135C66.5685 34.6455 66.5897 34.6668 66.6215 34.6987C66.6427 34.72 66.6851 34.7307 66.7381 34.752C66.7593 34.752 66.9501 34.752 67.3104 34.7626V35.0503C66.8441 35.029 66.4413 35.0183 66.0598 35.0183C65.6782 35.0183 65.2649 35.029 64.7243 35.0503H64.7137Z" fill="#421D12"/>
<path d="M71.5695 31.4723L71.2939 31.3977C71.2939 31.3125 71.2939 31.2166 71.2939 31.0675C71.2939 30.929 71.2939 30.8118 71.2939 30.7265C71.7285 30.4389 72.0994 30.2365 72.375 30.1406C72.5976 30.0661 72.8308 30.0234 73.0957 30.0234C73.4879 30.0234 73.8271 30.1087 74.092 30.2472C74.357 30.3963 74.5584 30.6094 74.6962 30.8863C74.7915 31.0781 74.8339 31.3551 74.8339 31.6853L74.8021 32.6441V34.1995C74.8021 34.3699 74.8233 34.4871 74.8551 34.5617C74.8657 34.615 74.9081 34.6576 74.9505 34.6789C74.9823 34.7002 75.0565 34.7109 75.1731 34.7215L75.5123 34.7535V35.0411C75.2261 35.0198 74.9717 35.0091 74.7597 35.0091C74.5478 35.0091 74.2828 35.0198 73.933 35.0411L73.9542 34.1249C73.2441 34.6576 72.8308 34.9665 72.693 35.0304C72.5658 35.0944 72.3962 35.137 72.1948 35.137C71.7709 35.137 71.4423 35.0304 71.2091 34.8067C70.976 34.583 70.8594 34.2847 70.8594 33.9012C70.8594 33.6668 70.9018 33.4431 70.9866 33.2407C71.0714 33.0383 71.1667 32.8785 71.2727 32.7613C71.3893 32.6441 71.5059 32.5589 71.6225 32.5056C71.8239 32.4098 72.1524 32.3139 72.5976 32.2073C73.0533 32.1008 73.4985 32.0156 73.9436 31.9623C73.9436 31.6214 73.9118 31.3657 73.8271 31.1846C73.7423 31.0035 73.5939 30.8544 73.4031 30.7265C73.2017 30.6094 72.9685 30.5454 72.6824 30.5454C72.481 30.5454 72.2902 30.5774 72.1418 30.6307C71.9829 30.6839 71.8875 30.7372 71.8557 30.7692L71.7603 30.9609C71.6649 31.174 71.5907 31.3444 71.5589 31.451L71.5695 31.4723ZM73.9436 32.2926C73.4985 32.3671 73.1063 32.4524 72.7884 32.5482C72.4704 32.6441 72.2478 32.74 72.1206 32.8359C72.0252 32.8998 71.9617 32.9957 71.9087 33.1022C71.8133 33.2727 71.7709 33.4644 71.7709 33.6775C71.7709 33.9332 71.8451 34.1356 71.9829 34.2847C72.1312 34.4339 72.322 34.4978 72.5764 34.4978C72.8096 34.4978 73.0427 34.4339 73.2653 34.2954C73.4879 34.1675 73.7317 33.9651 73.9436 33.6881V32.2713V32.2926Z" fill="#421D12"/>
<path d="M78.2969 37.0744V36.7228L78.3075 36.6483C78.3075 36.563 78.3075 36.4459 78.2969 36.2861L78.3923 36.2115C78.4982 36.2861 78.583 36.3393 78.6784 36.3606C78.7632 36.3926 78.8586 36.4032 78.954 36.4032C79.1448 36.4032 79.2932 36.3713 79.3886 36.2861C79.4945 36.2221 79.5687 36.0943 79.6111 35.9345C79.6535 35.7747 79.6747 35.3592 79.6747 34.6774V30.1392C79.6747 29.6598 79.6641 29.2017 79.6429 28.7436C79.6323 28.4133 79.6111 28.2109 79.5687 28.1577C79.5369 28.1044 79.4733 28.0511 79.378 28.0192C79.2932 27.9979 79.0388 27.9766 78.636 27.9659V27.625C79.1872 27.6463 79.6959 27.6676 80.1729 27.6676C80.6816 27.6676 81.1904 27.6463 81.7203 27.625V27.9659C81.3175 27.9659 81.0738 27.9979 80.9784 28.0192C80.883 28.0511 80.8194 28.0937 80.7982 28.147C80.7558 28.2109 80.724 28.3814 80.7134 28.6477C80.7134 28.7116 80.7134 29.2123 80.6922 30.1392V33.8997C80.6922 34.475 80.6392 34.9224 80.5544 35.2527C80.459 35.5829 80.2895 35.8919 80.0563 36.2008C79.8337 36.4885 79.5793 36.7228 79.3144 36.872C79.0494 37.0318 78.7738 37.1064 78.53 37.1064C78.4559 37.1064 78.3923 37.1064 78.3075 37.0744H78.2969Z" fill="#421D12"/>
<path d="M83.1086 31.4723L82.833 31.3977C82.8436 31.3125 82.8436 31.2166 82.8436 31.0675C82.8436 30.929 82.8436 30.8118 82.833 30.7265C83.2781 30.4389 83.6385 30.2365 83.9141 30.1406C84.1366 30.0661 84.3698 30.0234 84.6348 30.0234C85.0375 30.0234 85.3555 30.1087 85.6311 30.2472C85.8961 30.3963 86.108 30.6094 86.2352 30.8863C86.3306 31.0781 86.3624 31.3551 86.3624 31.6853L86.3412 32.6441V34.1995C86.3412 34.3699 86.3518 34.4871 86.3836 34.5617C86.4048 34.615 86.4366 34.6576 86.479 34.6789C86.5214 34.7002 86.5956 34.7109 86.7016 34.7215L87.0407 34.7535V35.0411C86.7546 35.0198 86.5108 35.0091 86.2882 35.0091C86.0868 35.0091 85.8007 35.0198 85.4615 35.0411L85.4933 34.1249C84.7832 34.6576 84.3592 34.9665 84.232 35.0304C84.1049 35.0944 83.9353 35.137 83.7339 35.137C83.3205 35.137 82.9814 35.0304 82.7588 34.8067C82.515 34.583 82.3984 34.2847 82.3984 33.9012C82.3984 33.6668 82.4408 33.4431 82.5256 33.2407C82.6104 33.0383 82.7058 32.8785 82.8224 32.7613C82.939 32.6441 83.0556 32.5589 83.1722 32.5056C83.3735 32.4098 83.7021 32.3139 84.1472 32.2073C84.603 32.1008 85.0482 32.0156 85.4933 31.9623C85.4933 31.6214 85.4509 31.3657 85.3767 31.1846C85.2919 31.0035 85.1541 30.8544 84.9528 30.7265C84.7514 30.6094 84.5182 30.5454 84.232 30.5454C84.0307 30.5454 83.8505 30.5774 83.6915 30.6307C83.5325 30.6839 83.4477 30.7372 83.4053 30.7692L83.3099 30.9609C83.2145 31.174 83.151 31.3444 83.1086 31.451V31.4723ZM85.4933 32.2926C85.0376 32.3671 84.656 32.4524 84.338 32.5482C84.0095 32.6441 83.7975 32.74 83.6597 32.8359C83.5749 32.8998 83.5113 32.9957 83.4477 33.1022C83.3523 33.2727 83.3205 33.4644 83.3205 33.6775C83.3205 33.9332 83.3947 34.1356 83.5325 34.2847C83.6703 34.4339 83.8717 34.4978 84.1366 34.4978C84.3698 34.4978 84.5924 34.4339 84.8256 34.2954C85.0587 34.1675 85.2813 33.9651 85.5039 33.6881V32.2713L85.4933 32.2926Z" fill="#421D12"/>
<path d="M87.4844 30.7479V30.4496C87.548 30.4496 87.6858 30.4283 87.8765 30.407C88.0779 30.375 88.3111 30.3217 88.5443 30.2472C88.7986 30.1726 88.9894 30.1087 89.106 30.0447C89.1484 30.0234 89.1696 30.0234 89.1908 30.0234C89.2226 30.0234 89.2438 30.0234 89.265 30.0447C89.265 30.0554 89.2862 30.0874 89.2862 30.1406C89.2862 30.1513 89.2862 30.1939 89.2862 30.2578C89.2756 30.3643 89.2756 30.4602 89.2756 30.5348V31.0888C89.8691 30.5348 90.2295 30.2365 90.3779 30.1619C90.5686 30.0767 90.8548 30.0234 91.2258 30.0234C91.6815 30.0234 92.0525 30.1193 92.3704 30.3217C92.6884 30.5241 92.9216 30.7798 93.07 31.0994C93.2077 31.419 93.2819 31.7599 93.2819 32.1221C93.2819 32.3458 93.2607 32.5482 93.2077 32.7507C93.1548 32.9424 93.0912 33.1342 93.017 33.294C92.9428 33.4751 92.858 33.6242 92.7626 33.7734C92.6672 33.9119 92.5718 34.029 92.4976 34.1036C92.4446 34.1462 92.3174 34.2634 92.1055 34.4232C91.9041 34.583 91.6921 34.7215 91.4589 34.8493C91.2258 34.9665 91.0668 35.0518 90.982 35.0837C90.7806 35.1476 90.5792 35.1689 90.3567 35.1689C90.1871 35.1689 90.0175 35.1476 89.8585 35.105C89.6889 35.0624 89.5088 34.9985 89.2968 34.892V35.7229C89.3074 36.6071 89.3286 37.0972 89.3286 37.1824C89.3286 37.3528 89.3498 37.4807 89.3922 37.5659C89.4134 37.5979 89.424 37.6298 89.4664 37.6511C89.4876 37.6831 89.5299 37.6937 89.5935 37.7044C89.6147 37.7044 89.8267 37.7257 90.2083 37.7257V38.0133C89.7843 37.992 89.2014 37.992 88.4913 37.992C88.0885 37.992 87.7917 37.992 87.5798 38.0133V37.7257H88.0779C88.1521 37.7151 88.2051 37.7044 88.2475 37.6831C88.2899 37.6511 88.3217 37.6298 88.3429 37.5979C88.3853 37.534 88.4065 37.4061 88.4171 37.225C88.4171 37.1717 88.4277 36.671 88.4489 35.7229V33.8692C88.4489 33.262 88.4489 32.6441 88.4277 32.0156C88.4171 31.3764 88.3959 31.0248 88.3853 30.9716C88.3641 30.9183 88.3429 30.865 88.3005 30.8331C88.2687 30.8011 88.2157 30.7905 88.1627 30.7798L87.5268 30.7585L87.4844 30.7479ZM89.2756 33.9758C89.4558 34.1675 89.6783 34.3167 89.9115 34.4126C90.1447 34.5191 90.3885 34.583 90.6534 34.583C90.9714 34.583 91.2576 34.5084 91.5119 34.338C91.7663 34.1782 91.9783 33.9332 92.1267 33.6029C92.275 33.262 92.3492 32.8998 92.3492 32.5056C92.3492 32.1115 92.2856 31.7919 92.1373 31.5149C91.9889 31.2379 91.7875 31.0248 91.5225 30.8757C91.2682 30.7372 90.9926 30.6733 90.7276 30.6733C90.5262 30.6733 90.3355 30.7159 90.1447 30.7905C89.9539 30.8757 89.7737 30.9822 89.6147 31.1314C89.4558 31.2912 89.3604 31.4297 89.3074 31.5575C89.2862 31.6214 89.2756 31.7493 89.2756 31.941V33.9651V33.9758Z" fill="#421D12"/>
<path d="M94.8351 31.4712L94.5702 31.3966V30.7148C95.0047 30.4272 95.3651 30.2248 95.6512 30.1289C95.8632 30.0543 96.107 30.0117 96.372 30.0117C96.7747 30.0117 97.1033 30.0969 97.3788 30.2354C97.6544 30.3846 97.8558 30.5976 97.983 30.8746C98.0678 31.0664 98.1102 31.3434 98.1102 31.6736L98.089 32.6324V34.1878C98.089 34.3582 98.0996 34.4754 98.1314 34.55C98.1526 34.6033 98.1844 34.6459 98.2268 34.6672C98.2585 34.6885 98.3327 34.6991 98.4493 34.7098L98.7779 34.7417V35.0294C98.5023 35.0081 98.2479 34.9974 98.036 34.9974C97.824 34.9974 97.5484 35.0081 97.1987 35.0294L97.2199 34.1132C96.5097 34.6459 96.0964 34.9548 95.9586 35.0187C95.8314 35.0826 95.6618 35.1253 95.4605 35.1253C95.0365 35.1253 94.7079 35.0187 94.4748 34.795C94.2416 34.5713 94.125 34.273 94.125 33.8895C94.125 33.6551 94.1568 33.4314 94.2416 33.229C94.3264 33.0266 94.4218 32.8668 94.5384 32.7496C94.6549 32.6324 94.7715 32.5472 94.8881 32.4939C95.0895 32.398 95.4181 32.3022 95.8738 32.1956C96.319 32.0891 96.7747 32.0039 97.2199 31.9506C97.2199 31.6097 97.1881 31.354 97.1033 31.1729C97.0185 30.9918 96.8807 30.8427 96.6899 30.7148C96.4885 30.5976 96.2448 30.5337 95.9692 30.5337C95.7678 30.5337 95.5876 30.5657 95.4287 30.619C95.2803 30.6722 95.1743 30.7255 95.1425 30.7574L95.0471 30.9492C94.9517 31.1623 94.8775 31.3327 94.8351 31.4392V31.4712ZM97.2199 32.2915C96.7747 32.3661 96.3932 32.4513 96.0646 32.5472C95.7466 32.6431 95.524 32.7389 95.3863 32.8348C95.3015 32.8987 95.2379 32.9946 95.1849 33.1011C95.1001 33.2716 95.0471 33.4634 95.0471 33.6764C95.0471 33.9321 95.1213 34.1345 95.2697 34.2837C95.4075 34.4328 95.6088 34.4967 95.8526 34.4967C96.0858 34.4967 96.319 34.4328 96.5415 34.2943C96.7641 34.1665 96.9973 33.9641 97.2199 33.6871V32.2702V32.2915Z" fill="#421D12"/>
<path d="M99.1875 35.0518V34.7641H99.6856C99.7492 34.7641 99.8128 34.7428 99.8552 34.7215C99.887 34.7002 99.9188 34.6682 99.94 34.6363C99.9824 34.5724 100.004 34.4445 100.025 34.2634C100.025 34.2208 100.025 33.7201 100.057 32.7613V32.1434C100.057 31.8664 100.046 31.5682 100.035 31.2379C100.035 31.0355 100.014 30.9077 99.993 30.865C99.9612 30.8331 99.9294 30.8011 99.8764 30.7798C99.8234 30.7585 99.6008 30.7479 99.1981 30.7585V30.4602C99.8976 30.3537 100.406 30.2365 100.735 30.0767C100.799 30.0447 100.852 30.0234 100.873 30.0234C100.894 30.0234 100.915 30.0341 100.936 30.0554C100.936 30.0767 100.947 30.098 100.947 30.1406C100.947 30.1619 100.947 30.1832 100.936 30.2258C100.936 30.343 100.926 30.6094 100.905 31.0142L101.88 30.1832C102.166 30.0767 102.431 30.0234 102.685 30.0234C102.971 30.0234 103.226 30.0767 103.491 30.1939C103.734 30.3111 103.925 30.4496 104.052 30.62C104.169 30.7905 104.264 31.0142 104.307 31.2805C104.339 31.4403 104.349 31.8771 104.349 32.5909V33.5177C104.349 33.9758 104.36 34.2847 104.381 34.4445C104.402 34.5511 104.423 34.615 104.466 34.6576C104.498 34.7002 104.561 34.7215 104.635 34.7428H105.186V35.0518C104.847 35.0304 104.561 35.0198 104.339 35.0198C104.148 35.0198 103.83 35.0304 103.374 35.0518C103.416 34.1995 103.448 33.6562 103.448 33.4325V32.5482C103.448 31.9943 103.427 31.6321 103.385 31.4723C103.321 31.2273 103.194 31.0355 102.982 30.9077C102.781 30.7692 102.526 30.6839 102.229 30.6839C101.964 30.6839 101.731 30.7479 101.509 30.8757C101.307 30.9929 101.148 31.142 101.063 31.3018C100.968 31.4723 100.915 31.7386 100.915 32.1221V32.7507C100.936 33.6668 100.947 34.1569 100.947 34.2315C100.958 34.4126 100.968 34.5297 101.011 34.615C101.021 34.6469 101.042 34.6682 101.074 34.7002C101.106 34.7215 101.148 34.7322 101.201 34.7535C101.222 34.7535 101.413 34.7535 101.774 34.7641V35.0518C101.339 35.0304 100.958 35.0198 100.629 35.0198C100.332 35.0198 99.8552 35.0304 99.1981 35.0518H99.1875Z" fill="#421D12"/>
</g>
<defs>
<clipPath id="clip0_2896_6840">
<rect width="120" height="38" fill="white"/>
</clipPath>
</defs>
</svg>
