<svg width="7" height="159" viewBox="0 0 7 159" fill="none" xmlns="http://www.w3.org/2000/svg">
<path d="M0.000155926 157.338C0.000155926 156.845 0.110156 156.425 0.330156 156.078C0.556823 155.731 0.850156 155.471 1.21016 155.298C1.57016 155.125 1.95682 155.038 2.37016 155.038C2.83016 155.038 3.25349 155.148 3.64016 155.368C4.03349 155.595 4.34349 155.895 4.57016 156.268C4.79682 156.641 4.91016 157.048 4.91016 157.488C4.91016 157.948 4.78349 158.295 4.53016 158.528C4.27682 158.768 3.94016 158.888 3.52016 158.888C3.44682 158.888 3.39349 158.878 3.36016 158.858C3.33349 158.845 3.32016 158.815 3.32016 158.768V158.058C3.37349 158.065 3.45349 158.068 3.56016 158.068C3.92682 158.068 4.20682 157.991 4.40016 157.838C4.59349 157.691 4.69016 157.468 4.69016 157.168C4.69016 156.768 4.51349 156.445 4.16016 156.198C3.81349 155.951 3.34349 155.828 2.75016 155.828C2.04349 155.828 1.46682 155.998 1.02016 156.338C0.573489 156.678 0.350156 157.145 0.350156 157.738C0.350156 158.165 0.453489 158.521 0.660156 158.808V158.818C0.660156 158.838 0.646822 158.855 0.620156 158.868C0.600156 158.888 0.580156 158.891 0.560156 158.878C0.186823 158.411 0.000155926 157.898 0.000155926 157.338ZM3.46016 155.518L3.51016 158.338H3.32016L3.31016 155.528L3.46016 155.518Z" fill="#421D12"/>
<path d="M4.01188 150.924C3.81854 150.924 3.64854 150.974 3.50188 151.074C3.35521 151.181 3.23187 151.308 3.13188 151.454C3.03854 151.608 2.92187 151.818 2.78187 152.084C2.64187 152.358 2.51521 152.578 2.40188 152.744C2.28854 152.918 2.14521 153.061 1.97187 153.174C1.80521 153.294 1.60521 153.354 1.37187 153.354C1.11854 153.354 0.885208 153.281 0.671875 153.134C0.465208 152.994 0.301875 152.794 0.181875 152.534C0.0618747 152.274 0.00187492 151.974 0.00187492 151.634C0.00187492 151.381 0.0352082 151.138 0.101875 150.904C0.161875 150.678 0.245208 150.491 0.351875 150.344C0.371875 150.311 0.395208 150.288 0.421875 150.274C0.448542 150.268 0.491875 150.261 0.551875 150.254L1.58187 150.164C1.60854 150.164 1.62521 150.181 1.63188 150.214C1.63854 150.248 1.62854 150.271 1.60187 150.284C1.21521 150.418 0.881875 150.621 0.601875 150.894C0.321875 151.174 0.181875 151.484 0.181875 151.824C0.181875 152.044 0.245208 152.234 0.371875 152.394C0.505208 152.554 0.708542 152.634 0.981875 152.634C1.19521 152.634 1.38187 152.581 1.54187 152.474C1.70854 152.368 1.84521 152.234 1.95187 152.074C2.06521 151.914 2.19187 151.708 2.33187 151.454C2.47187 151.194 2.59521 150.984 2.70187 150.824C2.81521 150.664 2.95187 150.528 3.11188 150.414C3.27854 150.308 3.47187 150.254 3.69187 150.254C4.07188 150.254 4.37188 150.408 4.59188 150.714C4.81188 151.028 4.92188 151.401 4.92188 151.834C4.92188 152.214 4.84521 152.574 4.69187 152.914C4.66521 152.968 4.63854 153.004 4.61188 153.024C4.59187 153.044 4.55854 153.058 4.51187 153.064L3.62188 153.104C3.59521 153.104 3.57854 153.088 3.57188 153.054C3.56521 153.021 3.57187 152.998 3.59187 152.984C3.73854 152.951 3.90188 152.874 4.08188 152.754C4.26854 152.634 4.42521 152.481 4.55187 152.294C4.68521 152.108 4.75188 151.898 4.75188 151.664C4.75188 151.424 4.68188 151.241 4.54188 151.114C4.40854 150.988 4.23188 150.924 4.01188 150.924Z" fill="#421D12"/>
<path d="M0.930781 147.575C0.730781 147.575 0.580781 147.592 0.480781 147.625C0.387448 147.659 0.324114 147.722 0.290781 147.815C0.257448 147.915 0.240781 148.072 0.240781 148.285C0.240781 148.305 0.220781 148.315 0.180781 148.315C0.140781 148.315 0.120781 148.305 0.120781 148.285C0.120781 148.092 0.124115 147.942 0.130781 147.835L0.140781 147.195L0.130781 146.575C0.124115 146.462 0.120781 146.305 0.120781 146.105C0.120781 146.092 0.140781 146.085 0.180781 146.085C0.220781 146.085 0.240781 146.092 0.240781 146.105C0.240781 146.319 0.257448 146.475 0.290781 146.575C0.324114 146.675 0.387448 146.742 0.480781 146.775C0.580781 146.815 0.730781 146.835 0.930781 146.835H3.99078C4.19078 146.835 4.33745 146.815 4.43078 146.775C4.52411 146.742 4.58745 146.675 4.62078 146.575C4.66078 146.475 4.68078 146.319 4.68078 146.105C4.68078 146.092 4.70078 146.085 4.74078 146.085C4.78078 146.085 4.80078 146.092 4.80078 146.105L4.79078 146.575C4.77745 146.829 4.77078 147.035 4.77078 147.195C4.77078 147.362 4.77745 147.579 4.79078 147.845L4.80078 148.285C4.80078 148.305 4.78078 148.315 4.74078 148.315C4.70078 148.315 4.68078 148.305 4.68078 148.285C4.68078 148.079 4.66078 147.925 4.62078 147.825C4.58078 147.732 4.51078 147.665 4.41078 147.625C4.31745 147.592 4.17078 147.575 3.97078 147.575H0.930781Z" fill="#421D12"/>
<path d="M3.97078 142.925C4.17078 142.925 4.31745 142.909 4.41078 142.875C4.51078 142.842 4.58078 142.775 4.62078 142.675C4.66078 142.575 4.68078 142.422 4.68078 142.215C4.68078 142.195 4.70078 142.185 4.74078 142.185C4.78078 142.185 4.80078 142.195 4.80078 142.215L4.79078 142.665C4.77745 142.919 4.77078 143.132 4.77078 143.305C4.77078 143.459 4.77745 143.662 4.79078 143.915L4.80078 144.385C4.80078 144.399 4.78078 144.405 4.74078 144.405C4.70078 144.405 4.68078 144.399 4.68078 144.385C4.68078 144.172 4.66078 144.015 4.62078 143.915C4.58745 143.815 4.52411 143.745 4.43078 143.705C4.33745 143.672 4.19078 143.655 3.99078 143.655H0.930781C0.730781 143.655 0.580781 143.672 0.480781 143.705C0.387448 143.745 0.324114 143.815 0.290781 143.915C0.257448 144.015 0.240781 144.172 0.240781 144.385C0.240781 144.399 0.220781 144.405 0.180781 144.405C0.140781 144.405 0.120781 144.399 0.120781 144.385C0.120781 144.185 0.124115 144.029 0.130781 143.915L0.140781 143.305L0.130781 142.665C0.124115 142.559 0.120781 142.409 0.120781 142.215C0.120781 142.195 0.140781 142.185 0.180781 142.185C0.220781 142.185 0.240781 142.195 0.240781 142.215C0.240781 142.429 0.257448 142.582 0.290781 142.675C0.324114 142.775 0.387448 142.842 0.480781 142.875C0.580781 142.909 0.730781 142.925 0.930781 142.925H3.97078ZM2.58078 139.865V143.255H2.38078V139.865H2.58078ZM3.99078 139.525C4.19078 139.525 4.33745 139.505 4.43078 139.465C4.52411 139.432 4.58745 139.365 4.62078 139.265C4.66078 139.172 4.68078 139.022 4.68078 138.815C4.68078 138.795 4.70078 138.785 4.74078 138.785C4.78078 138.785 4.80078 138.795 4.80078 138.815L4.79078 139.265C4.77745 139.519 4.77078 139.725 4.77078 139.885C4.77078 140.045 4.77745 140.259 4.79078 140.525L4.80078 140.965C4.80078 140.985 4.78078 140.995 4.74078 140.995C4.70078 140.995 4.68078 140.985 4.68078 140.965C4.68078 140.759 4.66078 140.605 4.62078 140.505C4.58078 140.412 4.51078 140.345 4.41078 140.305C4.31745 140.272 4.17078 140.255 3.97078 140.255H0.930781C0.730781 140.255 0.580781 140.272 0.480781 140.305C0.387448 140.339 0.324114 140.402 0.290781 140.495C0.257448 140.595 0.240781 140.752 0.240781 140.965C0.240781 140.985 0.220781 140.995 0.180781 140.995C0.140781 140.995 0.120781 140.985 0.120781 140.965C0.120781 140.772 0.124115 140.622 0.130781 140.515L0.140781 139.885L0.130781 139.265C0.124115 139.152 0.120781 138.995 0.120781 138.795C0.120781 138.782 0.140781 138.775 0.180781 138.775C0.220781 138.775 0.240781 138.782 0.240781 138.795C0.240781 139.009 0.257448 139.165 0.290781 139.265C0.324114 139.365 0.387448 139.432 0.480781 139.465C0.580781 139.505 0.730781 139.525 0.930781 139.525H3.99078Z" fill="#421D12"/>
<path d="M4.92188 135.204C4.92188 135.457 4.89521 135.727 4.84188 136.014C4.79521 136.307 4.72521 136.544 4.63188 136.724C4.61188 136.771 4.59188 136.801 4.57188 136.814C4.55188 136.827 4.51521 136.837 4.46187 136.844L3.43188 136.924C3.41188 136.924 3.39854 136.904 3.39188 136.864C3.38521 136.831 3.39521 136.811 3.42188 136.804C4.30854 136.491 4.75188 135.897 4.75188 135.024C4.75188 134.684 4.66188 134.384 4.48187 134.124C4.30187 133.864 4.04854 133.661 3.72187 133.514C3.40187 133.374 3.03854 133.304 2.63188 133.304C2.21854 133.304 1.82188 133.377 1.44187 133.524C1.06854 133.671 0.761875 133.891 0.521875 134.184C0.281875 134.484 0.161875 134.847 0.161875 135.274C0.161875 135.661 0.271875 135.987 0.491875 136.254C0.711875 136.527 1.05521 136.744 1.52187 136.904C1.54854 136.911 1.55854 136.931 1.55188 136.964C1.54521 136.997 1.53188 137.014 1.51188 137.014L0.451875 136.904C0.398541 136.897 0.361875 136.887 0.341875 136.874C0.321875 136.861 0.298542 136.824 0.271875 136.764C0.0918749 136.251 0.00187492 135.717 0.00187492 135.164C0.00187492 134.531 0.128542 134.007 0.381875 133.594C0.635208 133.187 0.951875 132.894 1.33187 132.714C1.71187 132.534 2.09521 132.444 2.48187 132.444C2.94187 132.444 3.35521 132.564 3.72187 132.804C4.09521 133.044 4.38854 133.374 4.60187 133.794C4.81521 134.221 4.92188 134.691 4.92188 135.204Z" fill="#421D12"/>
<path d="M0.951875 126.897C0.751875 126.897 0.601875 126.91 0.501875 126.937C0.408542 126.97 0.341875 127.03 0.301875 127.117C0.261875 127.21 0.241875 127.354 0.241875 127.547C0.241875 127.56 0.221875 127.567 0.181875 127.567C0.141875 127.567 0.121875 127.56 0.121875 127.547C0.121875 127.36 0.125208 127.214 0.131875 127.107L0.141875 126.507L0.131875 125.917C0.125208 125.81 0.121875 125.664 0.121875 125.477C0.121875 125.464 0.141875 125.457 0.181875 125.457C0.221875 125.457 0.241875 125.464 0.241875 125.477C0.241875 125.677 0.258542 125.824 0.291875 125.917C0.331875 126.01 0.398541 126.074 0.491875 126.107C0.585208 126.147 0.731875 126.167 0.931875 126.167H3.99188C4.19188 126.167 4.33854 126.15 4.43187 126.117C4.52521 126.084 4.58854 126.02 4.62188 125.927C4.66188 125.84 4.68188 125.7 4.68188 125.507C4.68188 125.487 4.70188 125.477 4.74187 125.477C4.78188 125.477 4.80188 125.487 4.80188 125.507L4.79187 126.157L4.80188 126.707C4.80188 126.787 4.78854 126.837 4.76187 126.857C4.74187 126.884 4.69188 126.897 4.61188 126.897H0.951875ZM3.61187 126.537C4.06521 126.884 4.39521 127.237 4.60187 127.597C4.81521 127.957 4.92188 128.347 4.92188 128.767C4.92188 129.247 4.78521 129.637 4.51187 129.937C4.24521 130.244 3.82188 130.397 3.24187 130.397H0.931875C0.731875 130.397 0.581875 130.41 0.481875 130.437C0.388542 130.464 0.325208 130.514 0.291875 130.587C0.258542 130.66 0.241875 130.777 0.241875 130.937C0.241875 130.95 0.221875 130.957 0.181875 130.957C0.141875 130.957 0.121875 130.95 0.121875 130.937C0.121875 130.77 0.125208 130.64 0.131875 130.547L0.141875 130.017L0.131875 129.407C0.125208 129.307 0.121875 129.17 0.121875 128.997C0.121875 128.984 0.141875 128.977 0.181875 128.977C0.221875 128.977 0.241875 128.984 0.241875 128.997C0.241875 129.19 0.261875 129.334 0.301875 129.427C0.341875 129.527 0.408542 129.594 0.501875 129.627C0.601875 129.66 0.751875 129.677 0.951875 129.677H2.94187C3.58188 129.677 4.02188 129.57 4.26188 129.357C4.50854 129.15 4.63188 128.85 4.63188 128.457C4.63188 128.13 4.54521 127.827 4.37187 127.547C4.20521 127.267 3.91521 126.97 3.50188 126.657L3.61187 126.537Z" fill="#421D12"/>
<path d="M0.0406246 123.012C0.0406246 122.932 0.0772919 122.845 0.150625 122.752C0.223959 122.665 0.337291 122.589 0.490624 122.522C0.643958 122.462 0.837292 122.432 1.07063 122.432H3.49062C3.89729 122.432 4.19396 122.379 4.38063 122.272C4.56729 122.165 4.66062 121.995 4.66062 121.762C4.66062 121.489 4.56396 121.282 4.37062 121.142C4.17729 121.009 3.93063 120.905 3.63063 120.832C3.34396 120.759 3.20063 120.609 3.20063 120.382C3.20063 120.255 3.23396 120.152 3.30063 120.072C3.37396 119.999 3.46729 119.962 3.58062 119.962C3.75396 119.962 3.94396 120.082 4.15062 120.322C4.35729 120.569 4.53062 120.862 4.67062 121.202C4.81729 121.549 4.89062 121.865 4.89062 122.152C4.89062 122.459 4.79729 122.702 4.61063 122.882C4.43062 123.069 4.15729 123.162 3.79062 123.162H1.41062C1.09062 123.162 0.870625 123.209 0.750625 123.302C0.630625 123.395 0.570624 123.522 0.570624 123.682C0.570624 123.789 0.607292 123.932 0.680625 124.112V124.122C0.680625 124.149 0.663958 124.165 0.630625 124.172C0.603958 124.185 0.583958 124.179 0.570624 124.152L0.0606251 123.092L0.0406246 123.012ZM0.0506248 120.802C0.0506248 120.555 0.120625 120.352 0.260625 120.192C0.400625 120.032 0.567292 119.952 0.760625 119.952C0.993958 119.952 1.18729 120.032 1.34063 120.192C1.50063 120.352 1.65062 120.625 1.79062 121.012L2.37062 122.612L2.23062 122.642L1.76062 121.402C1.67396 121.182 1.57062 121.025 1.45062 120.932C1.33729 120.839 1.20062 120.792 1.04062 120.792C0.873958 120.792 0.733958 120.842 0.620625 120.942C0.507291 121.049 0.450624 121.175 0.450624 121.322C0.450624 121.462 0.500625 121.629 0.600625 121.822L1.05062 122.712L0.910625 122.722L0.390625 121.812C0.263958 121.585 0.173958 121.395 0.120625 121.242C0.0739579 121.095 0.0506248 120.949 0.0506248 120.802Z" fill="#421D12"/>
<path d="M0.240078 115.481C0.240078 115.501 0.220078 115.511 0.180078 115.511C0.140078 115.511 0.120078 115.501 0.120078 115.481C0.120078 115.294 0.123412 115.148 0.130078 115.041L0.140078 114.401L0.130078 113.781C0.123412 113.668 0.120078 113.511 0.120078 113.311C0.120078 113.298 0.140078 113.291 0.180078 113.291C0.220078 113.291 0.240078 113.298 0.240078 113.311C0.240078 113.524 0.256745 113.681 0.290078 113.781C0.323412 113.881 0.386745 113.948 0.480078 113.981C0.580078 114.021 0.730078 114.041 0.930078 114.041H3.99008C4.19008 114.041 4.33674 114.021 4.43008 113.981C4.52341 113.948 4.58674 113.881 4.62008 113.781C4.66008 113.688 4.68008 113.538 4.68008 113.331C4.68008 113.311 4.70008 113.301 4.74008 113.301C4.78008 113.301 4.80008 113.311 4.80008 113.331L4.79008 113.791C4.77674 114.044 4.77008 114.248 4.77008 114.401C4.77008 114.528 4.77341 114.641 4.78008 114.741C4.78674 114.848 4.79341 114.938 4.80008 115.011C4.82008 115.224 4.83008 115.421 4.83008 115.601C4.83008 116.061 4.74674 116.411 4.58008 116.651C4.41341 116.898 4.17341 117.021 3.86008 117.021C3.58674 117.021 3.33341 116.934 3.10008 116.761C2.86674 116.594 2.68008 116.364 2.54008 116.071C2.40674 115.778 2.34008 115.454 2.34008 115.101C2.34008 114.888 2.35341 114.704 2.38008 114.551L2.59008 114.541C2.54341 114.708 2.52008 114.918 2.52008 115.171C2.52008 115.571 2.61008 115.848 2.79008 116.001C2.97008 116.161 3.23674 116.241 3.59008 116.241C4.31008 116.241 4.67008 115.944 4.67008 115.351C4.67008 115.111 4.62008 114.954 4.52008 114.881C4.42674 114.814 4.24341 114.781 3.97008 114.781H0.930078C0.723411 114.781 0.573412 114.798 0.480078 114.831C0.386745 114.864 0.323412 114.928 0.290078 115.021C0.256745 115.114 0.240078 115.268 0.240078 115.481ZM0.240078 118.481C0.240078 118.501 0.220078 118.511 0.180078 118.511C0.140078 118.511 0.120078 118.501 0.120078 118.481V117.171C0.120078 117.058 0.326745 116.851 0.740078 116.551C1.15341 116.251 1.72008 115.894 2.44008 115.481L2.65008 116.101C2.02341 116.481 1.53674 116.801 1.19008 117.061C0.850078 117.321 0.606745 117.561 0.460078 117.781C0.313412 118.001 0.240078 118.234 0.240078 118.481Z" fill="#421D12"/>
<path d="M0.121094 107.254C0.121094 107.234 0.141094 107.224 0.181094 107.224C0.221094 107.224 0.241094 107.234 0.241094 107.254C0.241094 107.501 0.25776 107.681 0.291094 107.794C0.324427 107.907 0.387761 107.984 0.481094 108.024C0.581094 108.071 0.731094 108.094 0.931094 108.094H5.56109C5.76109 108.094 5.90776 108.074 6.00109 108.034C6.09443 107.994 6.15776 107.917 6.19109 107.804C6.23109 107.697 6.25109 107.524 6.25109 107.284C6.25109 107.264 6.27109 107.254 6.31109 107.254C6.35109 107.254 6.37109 107.264 6.37109 107.284V111.364C6.37109 111.431 6.34109 111.464 6.28109 111.464L5.02109 111.484C5.00109 111.484 4.98776 111.464 4.98109 111.424C4.98109 111.391 4.99109 111.371 5.01109 111.364C5.37776 111.317 5.65776 111.187 5.85109 110.974C6.04443 110.761 6.14109 110.481 6.14109 110.134V109.624C6.14109 109.337 6.09776 109.141 6.01109 109.034C5.93109 108.934 5.77776 108.884 5.55109 108.884H0.971094C0.75776 108.884 0.601094 108.911 0.501094 108.964C0.407761 109.024 0.341094 109.134 0.301094 109.294C0.261094 109.454 0.241094 109.707 0.241094 110.054C0.241094 110.067 0.221094 110.074 0.181094 110.074C0.141094 110.074 0.121094 110.067 0.121094 110.054C0.121094 109.781 0.124427 109.567 0.131094 109.414L0.141094 108.474L0.131094 107.774C0.124427 107.647 0.121094 107.474 0.121094 107.254ZM2.30109 110.864C2.58776 110.864 2.79776 110.777 2.93109 110.604C3.07109 110.431 3.14109 110.154 3.14109 109.774V108.504H3.37109V109.804C3.37109 110.164 3.43109 110.427 3.55109 110.594C3.67109 110.767 3.85109 110.854 4.09109 110.854C4.10443 110.854 4.11109 110.874 4.11109 110.914C4.11109 110.954 4.10443 110.974 4.09109 110.974L3.25109 110.964C3.05109 110.964 2.90109 110.967 2.80109 110.974L2.30109 110.984C2.28776 110.984 2.28109 110.964 2.28109 110.924C2.28109 110.884 2.28776 110.864 2.30109 110.864Z" fill="#421D12"/>
<path d="M4.01188 99.7368C3.81854 99.7368 3.64854 99.7868 3.50188 99.8868C3.35521 99.9935 3.23187 100.12 3.13188 100.267C3.03854 100.42 2.92187 100.63 2.78187 100.897C2.64187 101.17 2.51521 101.39 2.40188 101.557C2.28854 101.73 2.14521 101.873 1.97187 101.987C1.80521 102.107 1.60521 102.167 1.37187 102.167C1.11854 102.167 0.885208 102.093 0.671875 101.947C0.465208 101.807 0.301875 101.607 0.181875 101.347C0.0618747 101.087 0.00187492 100.787 0.00187492 100.447C0.00187492 100.193 0.0352082 99.9501 0.101875 99.7168C0.161875 99.4901 0.245208 99.3035 0.351875 99.1568C0.371875 99.1235 0.395208 99.1001 0.421875 99.0868C0.448542 99.0801 0.491875 99.0735 0.551875 99.0668L1.58187 98.9768C1.60854 98.9768 1.62521 98.9935 1.63188 99.0268C1.63854 99.0601 1.62854 99.0835 1.60187 99.0968C1.21521 99.2301 0.881875 99.4335 0.601875 99.7068C0.321875 99.9868 0.181875 100.297 0.181875 100.637C0.181875 100.857 0.245208 101.047 0.371875 101.207C0.505208 101.367 0.708542 101.447 0.981875 101.447C1.19521 101.447 1.38187 101.393 1.54187 101.287C1.70854 101.18 1.84521 101.047 1.95187 100.887C2.06521 100.727 2.19187 100.52 2.33187 100.267C2.47187 100.007 2.59521 99.7968 2.70187 99.6368C2.81521 99.4768 2.95187 99.3401 3.11188 99.2268C3.27854 99.1201 3.47187 99.0668 3.69187 99.0668C4.07188 99.0668 4.37188 99.2201 4.59188 99.5268C4.81188 99.8401 4.92188 100.213 4.92188 100.647C4.92188 101.027 4.84521 101.387 4.69187 101.727C4.66521 101.78 4.63854 101.817 4.61188 101.837C4.59187 101.857 4.55854 101.87 4.51187 101.877L3.62188 101.917C3.59521 101.917 3.57854 101.9 3.57188 101.867C3.56521 101.833 3.57187 101.81 3.59187 101.797C3.73854 101.763 3.90188 101.687 4.08188 101.567C4.26854 101.447 4.42521 101.293 4.55187 101.107C4.68521 100.92 4.75188 100.71 4.75188 100.477C4.75188 100.237 4.68188 100.053 4.54188 99.9268C4.40854 99.8001 4.23188 99.7368 4.01188 99.7368Z" fill="#421D12"/>
<path d="M0.00117159 95.9374C0.00117159 95.5507 0.107838 95.2274 0.321171 94.9674C0.534505 94.714 0.887838 94.5874 1.38117 94.5874H4.00117C4.22117 94.5874 4.36117 94.554 4.42117 94.4874C4.48117 94.4274 4.51117 94.2874 4.51117 94.0674C4.51117 94.0474 4.5345 94.0374 4.58117 94.0374C4.62784 94.0374 4.65117 94.0474 4.65117 94.0674C4.65117 94.3607 4.72117 94.6074 4.86117 94.8074C5.00784 95.014 5.1945 95.134 5.42117 95.1674C5.44117 95.1674 5.45117 95.1874 5.45117 95.2274C5.45117 95.2474 5.44451 95.2674 5.43117 95.2874C5.4245 95.3074 5.41784 95.3174 5.41117 95.3174H1.67117C1.23117 95.3174 0.901171 95.4007 0.681171 95.5674C0.467838 95.734 0.361171 95.9907 0.361171 96.3374C0.361171 96.6974 0.451172 97.0107 0.631172 97.2774L0.641171 97.2974C0.641171 97.3174 0.624505 97.334 0.591171 97.3474C0.564505 97.3607 0.544505 97.3574 0.531171 97.3374C0.337838 97.064 0.201171 96.8207 0.121171 96.6074C0.0411715 96.4007 0.00117159 96.1774 0.00117159 95.9374ZM4.27117 97.0374C4.4045 96.4974 4.47117 95.8507 4.47117 95.0974H4.68117C4.68117 95.5974 4.71117 96.254 4.77117 97.0674C4.77117 97.0874 4.74784 97.104 4.70117 97.1174C4.66117 97.1307 4.61117 97.1374 4.55117 97.1374C4.4845 97.1374 4.41784 97.124 4.35117 97.0974C4.29117 97.0774 4.2645 97.0574 4.27117 97.0374Z" fill="#421D12"/>
<path d="M0.000155926 90.914C0.000155926 90.4207 0.110156 90.0007 0.330156 89.654C0.556823 89.3073 0.850156 89.0473 1.21016 88.874C1.57016 88.7007 1.95682 88.614 2.37016 88.614C2.83016 88.614 3.25349 88.724 3.64016 88.944C4.03349 89.1707 4.34349 89.4707 4.57016 89.844C4.79682 90.2174 4.91016 90.624 4.91016 91.064C4.91016 91.524 4.78349 91.8707 4.53016 92.104C4.27682 92.344 3.94016 92.464 3.52016 92.464C3.44682 92.464 3.39349 92.454 3.36016 92.434C3.33349 92.4207 3.32016 92.3907 3.32016 92.344V91.634C3.37349 91.6407 3.45349 91.644 3.56016 91.644C3.92682 91.644 4.20682 91.5674 4.40016 91.414C4.59349 91.2674 4.69016 91.044 4.69016 90.744C4.69016 90.344 4.51349 90.0207 4.16016 89.774C3.81349 89.5274 3.34349 89.404 2.75016 89.404C2.04349 89.404 1.46682 89.574 1.02016 89.914C0.573489 90.254 0.350156 90.7207 0.350156 91.314C0.350156 91.7407 0.453489 92.0974 0.660156 92.384V92.394C0.660156 92.414 0.646822 92.4307 0.620156 92.444C0.600156 92.464 0.580156 92.4674 0.560156 92.454C0.186823 91.9874 0.000155926 91.474 0.000155926 90.914ZM3.46016 89.094L3.51016 91.914H3.32016L3.31016 89.104L3.46016 89.094Z" fill="#421D12"/>
<path d="M0.000155926 85.4707C0.000155926 84.9773 0.110156 84.5573 0.330156 84.2107C0.556823 83.864 0.850156 83.604 1.21016 83.4307C1.57016 83.2573 1.95682 83.1707 2.37016 83.1707C2.83016 83.1707 3.25349 83.2807 3.64016 83.5007C4.03349 83.7273 4.34349 84.0273 4.57016 84.4007C4.79682 84.774 4.91016 85.1807 4.91016 85.6207C4.91016 86.0807 4.78349 86.4273 4.53016 86.6607C4.27682 86.9007 3.94016 87.0207 3.52016 87.0207C3.44682 87.0207 3.39349 87.0107 3.36016 86.9907C3.33349 86.9773 3.32016 86.9473 3.32016 86.9007V86.1907C3.37349 86.1973 3.45349 86.2007 3.56016 86.2007C3.92682 86.2007 4.20682 86.124 4.40016 85.9707C4.59349 85.824 4.69016 85.6007 4.69016 85.3007C4.69016 84.9007 4.51349 84.5773 4.16016 84.3307C3.81349 84.084 3.34349 83.9607 2.75016 83.9607C2.04349 83.9607 1.46682 84.1307 1.02016 84.4707C0.573489 84.8107 0.350156 85.2773 0.350156 85.8707C0.350156 86.2973 0.453489 86.654 0.660156 86.9407V86.9507C0.660156 86.9707 0.646822 86.9873 0.620156 87.0007C0.600156 87.0207 0.580156 87.024 0.560156 87.0107C0.186823 86.544 0.000155926 86.0307 0.000155926 85.4707ZM3.46016 83.6507L3.51016 86.4707H3.32016L3.31016 83.6607L3.46016 83.6507Z" fill="#421D12"/>
<path d="M4.80078 81.8751C4.80078 81.8951 4.78078 81.9051 4.74078 81.9051C4.70078 81.9051 4.68078 81.8951 4.68078 81.8751C4.68078 81.6618 4.61411 81.4785 4.48078 81.3251C4.34745 81.1785 4.11745 81.0385 3.79078 80.9051L0.130781 79.4651C0.104115 79.4585 0.0907807 79.4218 0.0907807 79.3551C0.0907807 79.2951 0.104115 79.2551 0.130781 79.2351L3.97078 77.4151C4.26411 77.2685 4.45411 77.1551 4.54078 77.0751C4.63411 77.0018 4.68078 76.8985 4.68078 76.7651C4.68078 76.7518 4.70078 76.7451 4.74078 76.7451C4.78078 76.7451 4.80078 76.7518 4.80078 76.7651L4.79078 77.0751C4.77745 77.2485 4.77078 77.3918 4.77078 77.5051C4.77078 77.6051 4.77745 77.7351 4.79078 77.8951L4.80078 78.1651C4.80078 78.1785 4.78078 78.1851 4.74078 78.1851C4.70078 78.1851 4.68078 78.1785 4.68078 78.1651C4.68078 78.0918 4.67411 78.0385 4.66078 78.0051C4.64745 77.9718 4.62078 77.9551 4.58078 77.9551C4.54078 77.9551 4.47411 77.9718 4.38078 78.0051C4.29411 78.0451 4.19078 78.0951 4.07078 78.1551L0.940781 79.6851L0.270781 79.3351L3.83078 80.6651C4.03078 80.7385 4.19078 80.7751 4.31078 80.7751C4.55745 80.7751 4.68078 80.6485 4.68078 80.3951C4.68078 80.3818 4.70078 80.3751 4.74078 80.3751C4.78078 80.3751 4.80078 80.3818 4.80078 80.3951L4.79078 80.6651C4.77745 80.8118 4.77078 80.9418 4.77078 81.0551C4.77078 81.1685 4.77745 81.3118 4.79078 81.4851L4.80078 81.8751ZM0.130781 77.3551C0.104115 77.3485 0.0907807 77.3118 0.0907807 77.2451C0.0907807 77.1785 0.104115 77.1418 0.130781 77.1351L3.97078 75.2951C4.25078 75.1618 4.43745 75.0451 4.53078 74.9451C4.63078 74.8451 4.68078 74.7085 4.68078 74.5351C4.68078 74.5151 4.70078 74.5051 4.74078 74.5051C4.78078 74.5051 4.80078 74.5151 4.80078 74.5351C4.80078 74.6218 4.79411 74.7585 4.78078 74.9451L4.77078 75.3451C4.77078 75.5185 4.77745 75.7051 4.79078 75.9051C4.79745 75.9785 4.80078 76.0685 4.80078 76.1751C4.80078 76.1885 4.78078 76.1951 4.74078 76.1951C4.70078 76.1951 4.68078 76.1885 4.68078 76.1751C4.68078 76.0085 4.61078 75.9251 4.47078 75.9251C4.38411 75.9251 4.25078 75.9651 4.07078 76.0451L0.940781 77.5751L0.280781 77.2351L2.70078 78.1951L2.55078 78.3551L0.130781 77.3551ZM3.96078 78.8151C4.18078 78.9018 4.34745 78.9451 4.46078 78.9451C4.60745 78.9451 4.68078 78.8651 4.68078 78.7051C4.68078 78.6918 4.70078 78.6851 4.74078 78.6851C4.78078 78.6851 4.80078 78.6918 4.80078 78.7051C4.80078 78.7651 4.79411 78.8451 4.78078 78.9451C4.77411 79.0451 4.77078 79.1418 4.77078 79.2351C4.77078 79.3551 4.77745 79.4818 4.79078 79.6151L4.80078 79.9351C4.80078 79.9551 4.78078 79.9651 4.74078 79.9651C4.70078 79.9651 4.68078 79.9551 4.68078 79.9351C4.68078 79.7085 4.62745 79.5285 4.52078 79.3951C4.41411 79.2685 4.20745 79.1385 3.90078 79.0051L2.55078 78.4751L2.70078 78.3551L3.96078 78.8151Z" fill="#421D12"/>
<path d="M5.25047 70.1049C4.99714 70.1049 4.7738 70.1682 4.58047 70.2949C4.3938 70.4215 4.23047 70.5749 4.09047 70.7549C3.95714 70.9349 3.7938 71.1849 3.60047 71.5049C3.3938 71.8382 3.2138 72.1015 3.06047 72.2949C2.9138 72.4949 2.73047 72.6649 2.51047 72.8049C2.29047 72.9449 2.03047 73.0149 1.73047 73.0149C1.4038 73.0149 1.10714 72.9282 0.840468 72.7549C0.580468 72.5882 0.373802 72.3449 0.220469 72.0249C0.0738018 71.7115 0.000468254 71.3449 0.000468254 70.9249C0.000468254 70.6582 0.033802 70.3949 0.100469 70.1349C0.160469 69.8749 0.250468 69.6482 0.370468 69.4549C0.390468 69.4215 0.413802 69.3982 0.440469 69.3849C0.467135 69.3715 0.507135 69.3649 0.560469 69.3649L1.99047 69.2649C2.01713 69.2582 2.0338 69.2715 2.04047 69.3049C2.04713 69.3449 2.03714 69.3682 2.01047 69.3749C1.5038 69.5349 1.0738 69.7582 0.720469 70.0449C0.367135 70.3315 0.190469 70.7049 0.190469 71.1649C0.190469 71.4782 0.273802 71.7415 0.440469 71.9549C0.613802 72.1682 0.893801 72.2749 1.28047 72.2749C1.5738 72.2749 1.83047 72.2082 2.05047 72.0749C2.27047 71.9415 2.4538 71.7782 2.60047 71.5848C2.7538 71.3915 2.92714 71.1349 3.12047 70.8149C3.32047 70.5015 3.49047 70.2515 3.63047 70.0649C3.77714 69.8849 3.9538 69.7315 4.16047 69.6049C4.3738 69.4782 4.62047 69.4149 4.90047 69.4149C5.24047 69.4149 5.53047 69.5049 5.77047 69.6849C6.01047 69.8715 6.18714 70.1115 6.30047 70.4048C6.42047 70.7048 6.48047 71.0182 6.48047 71.3449C6.48047 71.7849 6.4038 72.1882 6.25047 72.5549C6.2038 72.6549 6.1438 72.7049 6.07047 72.7049L4.82047 72.7549C4.7938 72.7549 4.77714 72.7349 4.77047 72.6949C4.77047 72.6615 4.7838 72.6415 4.81047 72.6349C5.17047 72.5615 5.51047 72.4049 5.83047 72.1649C6.15047 71.9315 6.31047 71.5948 6.31047 71.1548C6.31047 70.8215 6.21047 70.5615 6.01047 70.3749C5.81047 70.1949 5.55714 70.1049 5.25047 70.1049Z" fill="#421D12"/>
<path d="M0.0803123 61.2877C0.0803123 61.1077 0.090312 60.901 0.110312 60.6677C0.116979 60.5877 0.123646 60.4877 0.130312 60.3677C0.136979 60.2477 0.140312 60.111 0.140312 59.9577L0.130312 59.3377C0.123646 59.2243 0.120312 59.0677 0.120312 58.8677C0.120312 58.8543 0.140312 58.8477 0.180312 58.8477C0.220312 58.8477 0.240312 58.8543 0.240312 58.8677C0.240312 59.0877 0.256979 59.2477 0.290312 59.3477C0.323646 59.4477 0.386979 59.5143 0.480312 59.5477C0.580312 59.581 0.730312 59.5977 0.930312 59.5977H3.99031C4.19031 59.5977 4.33698 59.581 4.43031 59.5477C4.52365 59.5143 4.58698 59.4477 4.62031 59.3477C4.66031 59.2477 4.68031 59.0943 4.68031 58.8877C4.68031 58.8677 4.70031 58.8577 4.74031 58.8577C4.78031 58.8577 4.80031 58.8677 4.80031 58.8877L4.79031 59.3377C4.77698 59.591 4.77031 59.7977 4.77031 59.9577C4.77031 60.1643 4.78031 60.371 4.80031 60.5777C4.81365 60.8443 4.82031 61.0443 4.82031 61.1777C4.82031 61.7377 4.72031 62.221 4.52031 62.6277C4.32031 63.0343 4.04365 63.3443 3.69031 63.5577C3.33698 63.771 2.93698 63.8777 2.49031 63.8777C2.03031 63.8777 1.61698 63.7677 1.25031 63.5477C0.883646 63.3277 0.596979 63.021 0.390312 62.6277C0.183646 62.2343 0.0803123 61.7877 0.0803123 61.2877ZM0.250312 61.1777C0.250312 61.7577 0.433645 62.2077 0.800312 62.5277C1.16698 62.8543 1.69365 63.0177 2.38031 63.0177C3.04031 63.0177 3.58365 62.8577 4.01031 62.5377C4.44365 62.2177 4.66031 61.7343 4.66031 61.0877C4.66031 60.8077 4.61031 60.611 4.51031 60.4977C4.41031 60.3843 4.23031 60.3277 3.97031 60.3277H1.04031C0.753646 60.3277 0.550312 60.3843 0.430312 60.4977C0.310312 60.611 0.250312 60.8377 0.250312 61.1777Z" fill="#421D12"/>
<path d="M0.951875 53.3306C0.751875 53.3306 0.601875 53.344 0.501875 53.3706C0.408542 53.404 0.341875 53.464 0.301875 53.5506C0.261875 53.644 0.241875 53.7873 0.241875 53.9806C0.241875 53.994 0.221875 54.0006 0.181875 54.0006C0.141875 54.0006 0.121875 53.994 0.121875 53.9806C0.121875 53.794 0.125208 53.6473 0.131875 53.5406L0.141875 52.9406L0.131875 52.3506C0.125208 52.244 0.121875 52.0973 0.121875 51.9106C0.121875 51.8973 0.141875 51.8906 0.181875 51.8906C0.221875 51.8906 0.241875 51.8973 0.241875 51.9106C0.241875 52.1106 0.258542 52.2573 0.291875 52.3506C0.331875 52.444 0.398541 52.5073 0.491875 52.5406C0.585208 52.5806 0.731875 52.6006 0.931875 52.6006H3.99188C4.19188 52.6006 4.33854 52.584 4.43187 52.5506C4.52521 52.5173 4.58854 52.454 4.62188 52.3606C4.66188 52.274 4.68188 52.134 4.68188 51.9406C4.68188 51.9206 4.70188 51.9106 4.74187 51.9106C4.78188 51.9106 4.80188 51.9206 4.80188 51.9406L4.79187 52.5906L4.80188 53.1406C4.80188 53.2206 4.78854 53.2706 4.76187 53.2906C4.74187 53.3173 4.69188 53.3306 4.61188 53.3306H0.951875ZM3.61187 52.9706C4.06521 53.3173 4.39521 53.6706 4.60187 54.0306C4.81521 54.3906 4.92188 54.7806 4.92188 55.2006C4.92188 55.6806 4.78521 56.0706 4.51187 56.3706C4.24521 56.6773 3.82188 56.8306 3.24187 56.8306H0.931875C0.731875 56.8306 0.581875 56.844 0.481875 56.8706C0.388542 56.8973 0.325208 56.9473 0.291875 57.0206C0.258542 57.094 0.241875 57.2106 0.241875 57.3706C0.241875 57.384 0.221875 57.3906 0.181875 57.3906C0.141875 57.3906 0.121875 57.384 0.121875 57.3706C0.121875 57.204 0.125208 57.074 0.131875 56.9806L0.141875 56.4506L0.131875 55.8406C0.125208 55.7406 0.121875 55.604 0.121875 55.4306C0.121875 55.4173 0.141875 55.4106 0.181875 55.4106C0.221875 55.4106 0.241875 55.4173 0.241875 55.4306C0.241875 55.624 0.261875 55.7673 0.301875 55.8606C0.341875 55.9606 0.408542 56.0273 0.501875 56.0606C0.601875 56.094 0.751875 56.1106 0.951875 56.1106H2.94187C3.58188 56.1106 4.02188 56.004 4.26188 55.7906C4.50854 55.584 4.63188 55.284 4.63188 54.8906C4.63188 54.564 4.54521 54.2606 4.37187 53.9806C4.20521 53.7006 3.91521 53.404 3.50188 53.0906L3.61187 52.9706Z" fill="#421D12"/>
<path d="M0.0406246 49.4455C0.0406246 49.3655 0.0772919 49.2788 0.150625 49.1855C0.223959 49.0988 0.337291 49.0222 0.490624 48.9555C0.643958 48.8955 0.837292 48.8655 1.07063 48.8655H3.49062C3.89729 48.8655 4.19396 48.8122 4.38063 48.7055C4.56729 48.5988 4.66062 48.4288 4.66062 48.1955C4.66062 47.9222 4.56396 47.7155 4.37062 47.5755C4.17729 47.4422 3.93063 47.3388 3.63063 47.2655C3.34396 47.1922 3.20063 47.0422 3.20063 46.8155C3.20063 46.6888 3.23396 46.5855 3.30063 46.5055C3.37396 46.4322 3.46729 46.3955 3.58062 46.3955C3.75396 46.3955 3.94396 46.5155 4.15062 46.7555C4.35729 47.0022 4.53062 47.2955 4.67062 47.6355C4.81729 47.9822 4.89062 48.2988 4.89062 48.5855C4.89062 48.8922 4.79729 49.1355 4.61063 49.3155C4.43062 49.5022 4.15729 49.5955 3.79062 49.5955H1.41062C1.09062 49.5955 0.870625 49.6422 0.750625 49.7355C0.630625 49.8288 0.570624 49.9555 0.570624 50.1155C0.570624 50.2222 0.607292 50.3655 0.680625 50.5455V50.5555C0.680625 50.5822 0.663958 50.5988 0.630625 50.6055C0.603958 50.6188 0.583958 50.6122 0.570624 50.5855L0.0606251 49.5255L0.0406246 49.4455ZM0.0506248 47.2355C0.0506248 46.9888 0.120625 46.7855 0.260625 46.6255C0.400625 46.4655 0.567292 46.3855 0.760625 46.3855C0.993958 46.3855 1.18729 46.4655 1.34063 46.6255C1.50063 46.7855 1.65062 47.0588 1.79062 47.4455L2.37062 49.0455L2.23062 49.0755L1.76062 47.8355C1.67396 47.6155 1.57062 47.4588 1.45062 47.3655C1.33729 47.2722 1.20062 47.2255 1.04062 47.2255C0.873958 47.2255 0.733958 47.2755 0.620625 47.3755C0.507291 47.4822 0.450624 47.6088 0.450624 47.7555C0.450624 47.8955 0.500625 48.0622 0.600625 48.2555L1.05062 49.1455L0.910625 49.1555L0.390625 48.2455C0.263958 48.0188 0.173958 47.8288 0.120625 47.6755C0.0739579 47.5288 0.0506248 47.3822 0.0506248 47.2355Z" fill="#421D12"/>
<path d="M4.01188 38.6782C3.81854 38.6782 3.64854 38.7282 3.50188 38.8282C3.35521 38.9349 3.23187 39.0615 3.13188 39.2082C3.03854 39.3615 2.92187 39.5715 2.78187 39.8382C2.64187 40.1115 2.51521 40.3315 2.40188 40.4982C2.28854 40.6715 2.14521 40.8149 1.97187 40.9282C1.80521 41.0482 1.60521 41.1082 1.37187 41.1082C1.11854 41.1082 0.885208 41.0349 0.671875 40.8882C0.465208 40.7482 0.301875 40.5482 0.181875 40.2882C0.0618747 40.0282 0.00187492 39.7282 0.00187492 39.3882C0.00187492 39.1349 0.0352082 38.8915 0.101875 38.6582C0.161875 38.4315 0.245208 38.2449 0.351875 38.0982C0.371875 38.0649 0.395208 38.0415 0.421875 38.0282C0.448542 38.0215 0.491875 38.0149 0.551875 38.0082L1.58187 37.9182C1.60854 37.9182 1.62521 37.9349 1.63188 37.9682C1.63854 38.0015 1.62854 38.0249 1.60187 38.0382C1.21521 38.1715 0.881875 38.3749 0.601875 38.6482C0.321875 38.9282 0.181875 39.2382 0.181875 39.5782C0.181875 39.7982 0.245208 39.9882 0.371875 40.1482C0.505208 40.3082 0.708542 40.3882 0.981875 40.3882C1.19521 40.3882 1.38187 40.3349 1.54187 40.2282C1.70854 40.1215 1.84521 39.9882 1.95187 39.8282C2.06521 39.6682 2.19187 39.4615 2.33187 39.2082C2.47187 38.9482 2.59521 38.7382 2.70187 38.5782C2.81521 38.4182 2.95187 38.2815 3.11188 38.1682C3.27854 38.0615 3.47187 38.0082 3.69187 38.0082C4.07188 38.0082 4.37188 38.1615 4.59188 38.4682C4.81188 38.7815 4.92188 39.1549 4.92188 39.5882C4.92188 39.9682 4.84521 40.3282 4.69187 40.6682C4.66521 40.7215 4.63854 40.7582 4.61188 40.7782C4.59187 40.7982 4.55854 40.8115 4.51187 40.8182L3.62188 40.8582C3.59521 40.8582 3.57854 40.8415 3.57188 40.8082C3.56521 40.7749 3.57187 40.7515 3.59187 40.7382C3.73854 40.7049 3.90188 40.6282 4.08188 40.5082C4.26854 40.3882 4.42521 40.2349 4.55187 40.0482C4.68521 39.8615 4.75188 39.6515 4.75188 39.4182C4.75188 39.1782 4.68188 38.9949 4.54188 38.8682C4.40854 38.7415 4.23188 38.6782 4.01188 38.6782Z" fill="#421D12"/>
<path d="M0.240078 33.5474C0.240078 33.5674 0.220078 33.5774 0.180078 33.5774C0.140078 33.5774 0.120078 33.5674 0.120078 33.5474C0.120078 33.3608 0.123412 33.2141 0.130078 33.1074L0.140078 32.4674L0.130078 31.8474C0.123412 31.7341 0.120078 31.5774 0.120078 31.3774C0.120078 31.3641 0.140078 31.3574 0.180078 31.3574C0.220078 31.3574 0.240078 31.3641 0.240078 31.3774C0.240078 31.5908 0.256745 31.7474 0.290078 31.8474C0.323412 31.9474 0.386745 32.0141 0.480078 32.0474C0.580078 32.0874 0.730078 32.1074 0.930078 32.1074H3.99008C4.19008 32.1074 4.33674 32.0874 4.43008 32.0474C4.52341 32.0141 4.58674 31.9474 4.62008 31.8474C4.66008 31.7541 4.68008 31.6041 4.68008 31.3974C4.68008 31.3774 4.70008 31.3674 4.74008 31.3674C4.78008 31.3674 4.80008 31.3774 4.80008 31.3974L4.79008 31.8574C4.77674 32.1108 4.77008 32.3141 4.77008 32.4674C4.77008 32.5941 4.77341 32.7074 4.78008 32.8074C4.78674 32.9141 4.79341 33.0041 4.80008 33.0774C4.82008 33.2908 4.83008 33.4874 4.83008 33.6674C4.83008 34.1274 4.74674 34.4774 4.58008 34.7174C4.41341 34.9641 4.17341 35.0874 3.86008 35.0874C3.58674 35.0874 3.33341 35.0008 3.10008 34.8274C2.86674 34.6608 2.68008 34.4308 2.54008 34.1374C2.40674 33.8441 2.34008 33.5208 2.34008 33.1674C2.34008 32.9541 2.35341 32.7708 2.38008 32.6174L2.59008 32.6074C2.54341 32.7741 2.52008 32.9841 2.52008 33.2374C2.52008 33.6374 2.61008 33.9141 2.79008 34.0674C2.97008 34.2274 3.23674 34.3074 3.59008 34.3074C4.31008 34.3074 4.67008 34.0108 4.67008 33.4174C4.67008 33.1774 4.62008 33.0208 4.52008 32.9474C4.42674 32.8808 4.24341 32.8474 3.97008 32.8474H0.930078C0.723411 32.8474 0.573412 32.8641 0.480078 32.8974C0.386745 32.9308 0.323412 32.9941 0.290078 33.0874C0.256745 33.1808 0.240078 33.3341 0.240078 33.5474ZM0.240078 36.5474C0.240078 36.5674 0.220078 36.5774 0.180078 36.5774C0.140078 36.5774 0.120078 36.5674 0.120078 36.5474V35.2374C0.120078 35.1241 0.326745 34.9174 0.740078 34.6174C1.15341 34.3174 1.72008 33.9608 2.44008 33.5474L2.65008 34.1674C2.02341 34.5474 1.53674 34.8674 1.19008 35.1274C0.850078 35.3874 0.606745 35.6274 0.460078 35.8474C0.313412 36.0674 0.240078 36.3008 0.240078 36.5474Z" fill="#421D12"/>
<path d="M0.000155926 28.2441C0.000155926 27.7508 0.110156 27.3308 0.330156 26.9841C0.556823 26.6374 0.850156 26.3774 1.21016 26.2041C1.57016 26.0308 1.95682 25.9441 2.37016 25.9441C2.83016 25.9441 3.25349 26.0541 3.64016 26.2741C4.03349 26.5008 4.34349 26.8008 4.57016 27.1741C4.79682 27.5474 4.91016 27.9541 4.91016 28.3941C4.91016 28.8541 4.78349 29.2008 4.53016 29.4341C4.27682 29.6741 3.94016 29.7941 3.52016 29.7941C3.44682 29.7941 3.39349 29.7841 3.36016 29.7641C3.33349 29.7508 3.32016 29.7208 3.32016 29.6741V28.9641C3.37349 28.9708 3.45349 28.9741 3.56016 28.9741C3.92682 28.9741 4.20682 28.8974 4.40016 28.7441C4.59349 28.5974 4.69016 28.3741 4.69016 28.0741C4.69016 27.6741 4.51349 27.3508 4.16016 27.1041C3.81349 26.8574 3.34349 26.7341 2.75016 26.7341C2.04349 26.7341 1.46682 26.9041 1.02016 27.2441C0.573489 27.5841 0.350156 28.0508 0.350156 28.6441C0.350156 29.0708 0.453489 29.4274 0.660156 29.7141V29.7241C0.660156 29.7441 0.646822 29.7608 0.620156 29.7741C0.600156 29.7941 0.580156 29.7974 0.560156 29.7841C0.186823 29.3174 0.000155926 28.8041 0.000155926 28.2441ZM3.46016 26.4241L3.51016 29.2441H3.32016L3.31016 26.4341L3.46016 26.4241Z" fill="#421D12"/>
<path d="M4.80078 24.6486C4.80078 24.6686 4.78078 24.6786 4.74078 24.6786C4.70078 24.6786 4.68078 24.6686 4.68078 24.6486C4.68078 24.4352 4.61411 24.2519 4.48078 24.0986C4.34745 23.9519 4.11745 23.8119 3.79078 23.6786L0.130781 22.2386C0.104115 22.2319 0.0907807 22.1952 0.0907807 22.1286C0.0907807 22.0686 0.104115 22.0286 0.130781 22.0086L3.97078 20.1886C4.26411 20.0419 4.45411 19.9286 4.54078 19.8486C4.63411 19.7752 4.68078 19.6719 4.68078 19.5386C4.68078 19.5252 4.70078 19.5186 4.74078 19.5186C4.78078 19.5186 4.80078 19.5252 4.80078 19.5386L4.79078 19.8486C4.77745 20.0219 4.77078 20.1652 4.77078 20.2786C4.77078 20.3786 4.77745 20.5086 4.79078 20.6686L4.80078 20.9386C4.80078 20.9519 4.78078 20.9586 4.74078 20.9586C4.70078 20.9586 4.68078 20.9519 4.68078 20.9386C4.68078 20.8652 4.67411 20.8119 4.66078 20.7786C4.64745 20.7452 4.62078 20.7286 4.58078 20.7286C4.54078 20.7286 4.47411 20.7452 4.38078 20.7786C4.29411 20.8186 4.19078 20.8686 4.07078 20.9286L0.940781 22.4586L0.270781 22.1086L3.83078 23.4386C4.03078 23.5119 4.19078 23.5486 4.31078 23.5486C4.55745 23.5486 4.68078 23.4219 4.68078 23.1686C4.68078 23.1552 4.70078 23.1486 4.74078 23.1486C4.78078 23.1486 4.80078 23.1552 4.80078 23.1686L4.79078 23.4386C4.77745 23.5852 4.77078 23.7152 4.77078 23.8286C4.77078 23.9419 4.77745 24.0852 4.79078 24.2586L4.80078 24.6486ZM0.130781 20.1286C0.104115 20.1219 0.0907807 20.0852 0.0907807 20.0186C0.0907807 19.9519 0.104115 19.9152 0.130781 19.9086L3.97078 18.0686C4.25078 17.9352 4.43745 17.8186 4.53078 17.7186C4.63078 17.6186 4.68078 17.4819 4.68078 17.3086C4.68078 17.2886 4.70078 17.2786 4.74078 17.2786C4.78078 17.2786 4.80078 17.2886 4.80078 17.3086C4.80078 17.3952 4.79411 17.5319 4.78078 17.7186L4.77078 18.1186C4.77078 18.2919 4.77745 18.4786 4.79078 18.6786C4.79745 18.7519 4.80078 18.8419 4.80078 18.9486C4.80078 18.9619 4.78078 18.9686 4.74078 18.9686C4.70078 18.9686 4.68078 18.9619 4.68078 18.9486C4.68078 18.7819 4.61078 18.6986 4.47078 18.6986C4.38411 18.6986 4.25078 18.7386 4.07078 18.8186L0.940781 20.3486L0.280781 20.0086L2.70078 20.9686L2.55078 21.1286L0.130781 20.1286ZM3.96078 21.5886C4.18078 21.6752 4.34745 21.7186 4.46078 21.7186C4.60745 21.7186 4.68078 21.6386 4.68078 21.4786C4.68078 21.4652 4.70078 21.4586 4.74078 21.4586C4.78078 21.4586 4.80078 21.4652 4.80078 21.4786C4.80078 21.5386 4.79411 21.6186 4.78078 21.7186C4.77411 21.8186 4.77078 21.9152 4.77078 22.0086C4.77078 22.1286 4.77745 22.2552 4.79078 22.3886L4.80078 22.7086C4.80078 22.7286 4.78078 22.7386 4.74078 22.7386C4.70078 22.7386 4.68078 22.7286 4.68078 22.7086C4.68078 22.4819 4.62745 22.3019 4.52078 22.1686C4.41411 22.0419 4.20745 21.9119 3.90078 21.7786L2.55078 21.2486L2.70078 21.1286L3.96078 21.5886Z" fill="#421D12"/>
<path d="M0.00187492 13.3365C0.00187492 12.8698 0.111875 12.4532 0.331875 12.0865C0.551875 11.7198 0.848541 11.4332 1.22187 11.2265C1.59521 11.0265 2.00187 10.9265 2.44187 10.9265C2.95521 10.9265 3.39854 11.0598 3.77187 11.3265C4.15187 11.5932 4.43854 11.9332 4.63188 12.3465C4.82521 12.7665 4.92188 13.1932 4.92188 13.6265C4.92188 14.0932 4.80521 14.5065 4.57188 14.8665C4.34521 15.2265 4.04854 15.5032 3.68187 15.6965C3.31521 15.8898 2.93188 15.9865 2.53187 15.9865C2.08521 15.9865 1.66521 15.8665 1.27187 15.6265C0.885208 15.3865 0.575208 15.0632 0.341875 14.6565C0.115208 14.2565 0.00187492 13.8165 0.00187492 13.3365ZM0.211875 13.5865C0.211875 14.0598 0.395208 14.4398 0.761875 14.7265C1.13521 15.0132 1.64521 15.1565 2.29187 15.1565C2.73187 15.1565 3.13521 15.0798 3.50188 14.9265C3.86854 14.7798 4.15854 14.5665 4.37187 14.2865C4.59188 14.0065 4.70188 13.6732 4.70188 13.2865C4.70188 12.7998 4.52854 12.4232 4.18187 12.1565C3.83521 11.8898 3.34521 11.7565 2.71187 11.7565C2.24521 11.7565 1.82188 11.8298 1.44187 11.9765C1.06188 12.1298 0.761875 12.3432 0.541875 12.6165C0.321875 12.8965 0.211875 13.2198 0.211875 13.5865Z" fill="#421D12"/>
<path d="M0.970781 6.69805C0.784114 6.69805 0.644114 6.71471 0.550781 6.74805C0.457447 6.78805 0.390781 6.85805 0.350781 6.95805C0.317448 7.05805 0.300781 7.21138 0.300781 7.41805V7.90805C0.300781 8.26138 0.414114 8.55805 0.640781 8.79805C0.867448 9.04471 1.17745 9.21805 1.57078 9.31805C1.58411 9.31805 1.58745 9.33805 1.58078 9.37805C1.58078 9.41805 1.57411 9.43805 1.56078 9.43805C1.24078 9.39138 0.810781 9.36805 0.270781 9.36805C0.217448 9.36805 0.177448 9.35471 0.150781 9.32805C0.130781 9.30805 0.120781 9.26805 0.120781 9.20805V5.26805C0.120781 5.25471 0.140781 5.24805 0.180781 5.24805C0.220781 5.24805 0.240781 5.25471 0.240781 5.26805C0.240781 5.47471 0.257448 5.62471 0.290781 5.71805C0.324114 5.81138 0.387448 5.87471 0.480781 5.90805C0.580781 5.94138 0.730781 5.95805 0.930781 5.95805H3.99078C4.19078 5.95805 4.33745 5.94138 4.43078 5.90805C4.52411 5.87471 4.58745 5.80805 4.62078 5.70805C4.66078 5.61471 4.68078 5.46805 4.68078 5.26805C4.68078 5.25471 4.70078 5.24805 4.74078 5.24805C4.78078 5.24805 4.80078 5.25471 4.80078 5.26805L4.79078 5.72805C4.77745 5.99471 4.77078 6.20138 4.77078 6.34805C4.77078 6.50805 4.77745 6.72138 4.79078 6.98805L4.80078 7.42805C4.80078 7.44138 4.78078 7.44805 4.74078 7.44805C4.70078 7.44805 4.68078 7.44138 4.68078 7.42805C4.68078 7.21471 4.66078 7.05805 4.62078 6.95805C4.58745 6.85805 4.52078 6.78805 4.42078 6.74805C4.32745 6.71471 4.18078 6.69805 3.98078 6.69805H0.970781Z" fill="#421D12"/>
<path d="M0.120781 0.02C0.120781 0.00666666 0.140781 0 0.180781 0C0.220781 0 0.240781 0.00666666 0.240781 0.02C0.240781 0.233333 0.257448 0.386667 0.290781 0.48C0.324114 0.58 0.387448 0.646667 0.480781 0.68C0.580781 0.72 0.730781 0.74 0.930781 0.74H3.99078C4.19078 0.74 4.33745 0.72 4.43078 0.68C4.52411 0.646667 4.58745 0.58 4.62078 0.48C4.66078 0.38 4.68078 0.226667 4.68078 0.02C4.68078 0.00666666 4.70078 0 4.74078 0C4.78078 0 4.80078 0.00666666 4.80078 0.02V3.54C4.80078 3.60667 4.77411 3.64 4.72078 3.64L4.10078 3.65C3.97411 3.65667 3.81411 3.66 3.62078 3.66C3.60078 3.66 3.59078 3.64 3.59078 3.6C3.59078 3.56 3.60078 3.54 3.62078 3.54C3.95411 3.46667 4.21078 3.33 4.39078 3.13C4.57745 2.93667 4.67078 2.68667 4.67078 2.38V2.16C4.67078 1.96 4.65078 1.81 4.61078 1.71C4.57745 1.61667 4.51411 1.55333 4.42078 1.52C4.32745 1.48667 4.18078 1.47 3.98078 1.47H0.970781C0.757448 1.47 0.600781 1.49333 0.500781 1.54C0.407448 1.58667 0.340781 1.67333 0.300781 1.8C0.260781 1.93333 0.240781 2.14 0.240781 2.42C0.240781 2.44 0.220781 2.45 0.180781 2.45C0.140781 2.45 0.120781 2.44 0.120781 2.42C0.120781 2.18 0.124115 1.99333 0.130781 1.86L0.140781 1.1L0.130781 0.52C0.124115 0.406667 0.120781 0.24 0.120781 0.02ZM2.14078 3.11C2.14078 3.07667 2.16078 2.92333 2.20078 2.65C2.24745 2.37667 2.27078 1.87 2.27078 1.13H2.50078C2.50078 1.87 2.51411 2.37667 2.54078 2.65C2.57411 2.92333 2.59078 3.07667 2.59078 3.11C2.59078 3.13 2.56745 3.14333 2.52078 3.15C2.48078 3.16333 2.43411 3.17 2.38078 3.17C2.32078 3.17 2.26411 3.16333 2.21078 3.15C2.16411 3.14333 2.14078 3.13 2.14078 3.11Z" fill="#421D12"/>
</svg>
