<svg width="10" height="223" viewBox="0 0 10 223" fill="none" xmlns="http://www.w3.org/2000/svg">
<path d="M0.000999451 220.273C0.000999451 219.582 0.155 218.994 0.463 218.509C0.780333 218.023 1.191 217.659 1.695 217.417C2.199 217.174 2.74033 217.053 3.319 217.053C3.963 217.053 4.55567 217.207 5.097 217.515C5.64767 217.832 6.08167 218.252 6.399 218.775C6.71633 219.297 6.875 219.867 6.875 220.483C6.875 221.127 6.69767 221.612 6.343 221.939C5.98833 222.275 5.517 222.443 4.929 222.443C4.82633 222.443 4.75167 222.429 4.705 222.401C4.66767 222.382 4.649 222.34 4.649 222.275V221.281C4.72367 221.29 4.83567 221.295 4.985 221.295C5.49833 221.295 5.89033 221.187 6.161 220.973C6.43167 220.767 6.567 220.455 6.567 220.035C6.567 219.475 6.31967 219.022 5.825 218.677C5.33967 218.331 4.68167 218.159 3.851 218.159C2.86167 218.159 2.05433 218.397 1.429 218.873C0.803667 219.349 0.491 220.002 0.491 220.833C0.491 221.43 0.635666 221.929 0.925 222.331V222.345C0.925 222.373 0.906333 222.396 0.868999 222.415C0.840999 222.443 0.813 222.447 0.785 222.429C0.262333 221.775 0.000999451 221.057 0.000999451 220.273ZM4.845 217.725L4.915 221.673H4.649L4.635 217.739L4.845 217.725Z" fill="#421D12"/>
<path d="M5.61467 211.294C5.34401 211.294 5.10601 211.364 4.90067 211.504C4.69534 211.653 4.52267 211.831 4.38267 212.036C4.25201 212.251 4.08867 212.545 3.89267 212.918C3.69667 213.301 3.51934 213.609 3.36067 213.842C3.20201 214.085 3.00134 214.285 2.75867 214.444C2.52534 214.612 2.24534 214.696 1.91867 214.696C1.564 214.696 1.23734 214.593 0.938672 214.388C0.649338 214.192 0.420672 213.912 0.252672 213.548C0.0846717 213.184 0.000671387 212.764 0.000671387 212.288C0.000671387 211.933 0.0473384 211.593 0.140672 211.266C0.224672 210.949 0.341338 210.687 0.490672 210.482C0.518672 210.435 0.551338 210.403 0.588672 210.384C0.626005 210.375 0.686672 210.365 0.770672 210.356L2.21267 210.23C2.25001 210.23 2.27334 210.253 2.28267 210.3C2.29201 210.347 2.27801 210.379 2.24067 210.398C1.69934 210.585 1.23267 210.869 0.840672 211.252C0.448672 211.644 0.252672 212.078 0.252672 212.554C0.252672 212.862 0.341338 213.128 0.518672 213.352C0.705338 213.576 0.990005 213.688 1.37267 213.688C1.67134 213.688 1.93267 213.613 2.15667 213.464C2.39 213.315 2.58134 213.128 2.73067 212.904C2.88934 212.68 3.06667 212.391 3.26267 212.036C3.45867 211.672 3.63134 211.378 3.78067 211.154C3.93934 210.93 4.13067 210.739 4.35467 210.58C4.58801 210.431 4.85867 210.356 5.16667 210.356C5.69867 210.356 6.11867 210.571 6.42667 211C6.73467 211.439 6.88867 211.961 6.88867 212.568C6.88867 213.1 6.78134 213.604 6.56667 214.08C6.52934 214.155 6.49201 214.206 6.45467 214.234C6.42667 214.262 6.38001 214.281 6.31467 214.29L5.06867 214.346C5.03134 214.346 5.00801 214.323 4.99867 214.276C4.98934 214.229 4.99867 214.197 5.02667 214.178C5.23201 214.131 5.46067 214.024 5.71267 213.856C5.97401 213.688 6.19334 213.473 6.37067 213.212C6.55734 212.951 6.65067 212.657 6.65067 212.33C6.65067 211.994 6.55267 211.737 6.35667 211.56C6.17001 211.383 5.92267 211.294 5.61467 211.294Z" fill="#421D12"/>
<path d="M1.3027 206.606C1.0227 206.606 0.812703 206.629 0.672703 206.676C0.542036 206.722 0.45337 206.811 0.406703 206.942C0.360036 207.082 0.336703 207.301 0.336703 207.6C0.336703 207.628 0.308703 207.642 0.252703 207.642C0.196703 207.642 0.168703 207.628 0.168703 207.6C0.168703 207.329 0.17337 207.119 0.182703 206.97L0.196703 206.074L0.182703 205.206C0.17337 205.047 0.168703 204.828 0.168703 204.548C0.168703 204.529 0.196703 204.52 0.252703 204.52C0.308703 204.52 0.336703 204.529 0.336703 204.548C0.336703 204.846 0.360036 205.066 0.406703 205.206C0.45337 205.346 0.542036 205.439 0.672703 205.486C0.812703 205.542 1.0227 205.57 1.3027 205.57H5.5867C5.8667 205.57 6.07204 205.542 6.2027 205.486C6.33337 205.439 6.42204 205.346 6.4687 205.206C6.5247 205.066 6.5527 204.846 6.5527 204.548C6.5527 204.529 6.5807 204.52 6.6367 204.52C6.6927 204.52 6.7207 204.529 6.7207 204.548L6.7067 205.206C6.68804 205.56 6.6787 205.85 6.6787 206.074C6.6787 206.307 6.68804 206.61 6.7067 206.984L6.7207 207.6C6.7207 207.628 6.6927 207.642 6.6367 207.642C6.5807 207.642 6.5527 207.628 6.5527 207.6C6.5527 207.31 6.5247 207.096 6.4687 206.956C6.4127 206.825 6.3147 206.732 6.1747 206.676C6.04404 206.629 5.8387 206.606 5.5587 206.606H1.3027Z" fill="#421D12"/>
<path d="M5.5587 200.095C5.8387 200.095 6.04404 200.072 6.1747 200.025C6.3147 199.979 6.4127 199.885 6.4687 199.745C6.5247 199.605 6.5527 199.391 6.5527 199.101C6.5527 199.073 6.5807 199.059 6.6367 199.059C6.6927 199.059 6.7207 199.073 6.7207 199.101L6.7067 199.731C6.68804 200.086 6.6787 200.385 6.6787 200.627C6.6787 200.842 6.68804 201.127 6.7067 201.481L6.7207 202.139C6.7207 202.158 6.6927 202.167 6.6367 202.167C6.5807 202.167 6.5527 202.158 6.5527 202.139C6.5527 201.841 6.5247 201.621 6.4687 201.481C6.42204 201.341 6.33337 201.243 6.2027 201.187C6.07204 201.141 5.8667 201.117 5.5867 201.117H1.3027C1.0227 201.117 0.812703 201.141 0.672703 201.187C0.542036 201.243 0.45337 201.341 0.406703 201.481C0.360036 201.621 0.336703 201.841 0.336703 202.139C0.336703 202.158 0.308703 202.167 0.252703 202.167C0.196703 202.167 0.168703 202.158 0.168703 202.139C0.168703 201.859 0.17337 201.64 0.182703 201.481L0.196703 200.627L0.182703 199.731C0.17337 199.582 0.168703 199.372 0.168703 199.101C0.168703 199.073 0.196703 199.059 0.252703 199.059C0.308703 199.059 0.336703 199.073 0.336703 199.101C0.336703 199.4 0.360036 199.615 0.406703 199.745C0.45337 199.885 0.542036 199.979 0.672703 200.025C0.812703 200.072 1.0227 200.095 1.3027 200.095H5.5587ZM3.6127 195.811V200.557H3.3327V195.811H3.6127ZM5.5867 195.335C5.8667 195.335 6.07204 195.307 6.2027 195.251C6.33337 195.205 6.42204 195.111 6.4687 194.971C6.5247 194.841 6.5527 194.631 6.5527 194.341C6.5527 194.313 6.5807 194.299 6.6367 194.299C6.6927 194.299 6.7207 194.313 6.7207 194.341L6.7067 194.971C6.68804 195.326 6.6787 195.615 6.6787 195.839C6.6787 196.063 6.68804 196.362 6.7067 196.735L6.7207 197.351C6.7207 197.379 6.6927 197.393 6.6367 197.393C6.5807 197.393 6.5527 197.379 6.5527 197.351C6.5527 197.062 6.5247 196.847 6.4687 196.707C6.4127 196.577 6.3147 196.483 6.1747 196.427C6.04404 196.381 5.8387 196.357 5.5587 196.357H1.3027C1.0227 196.357 0.812703 196.381 0.672703 196.427C0.542036 196.474 0.45337 196.563 0.406703 196.693C0.360036 196.833 0.336703 197.053 0.336703 197.351C0.336703 197.379 0.308703 197.393 0.252703 197.393C0.196703 197.393 0.168703 197.379 0.168703 197.351C0.168703 197.081 0.17337 196.871 0.182703 196.721L0.196703 195.839L0.182703 194.971C0.17337 194.813 0.168703 194.593 0.168703 194.313C0.168703 194.295 0.196703 194.285 0.252703 194.285C0.308703 194.285 0.336703 194.295 0.336703 194.313C0.336703 194.612 0.360036 194.831 0.406703 194.971C0.45337 195.111 0.542036 195.205 0.672703 195.251C0.812703 195.307 1.0227 195.335 1.3027 195.335H5.5867Z" fill="#421D12"/>
<path d="M6.88867 189.286C6.88867 189.64 6.85134 190.018 6.77667 190.42C6.71134 190.83 6.61334 191.162 6.48267 191.414C6.45467 191.479 6.42667 191.521 6.39867 191.54C6.37067 191.558 6.31934 191.572 6.24467 191.582L4.80267 191.694C4.77467 191.694 4.75601 191.666 4.74667 191.61C4.73734 191.563 4.75134 191.535 4.78867 191.526C6.03001 191.087 6.65067 190.256 6.65067 189.034C6.65067 188.558 6.52467 188.138 6.27267 187.774C6.02067 187.41 5.66601 187.125 5.20867 186.92C4.76067 186.724 4.25201 186.626 3.68267 186.626C3.10401 186.626 2.54867 186.728 2.01667 186.934C1.49401 187.139 1.06467 187.447 0.728672 187.858C0.392672 188.278 0.224672 188.786 0.224672 189.384C0.224672 189.925 0.378672 190.382 0.686672 190.756C0.994672 191.138 1.47534 191.442 2.12867 191.666C2.16601 191.675 2.18 191.703 2.17067 191.75C2.16134 191.796 2.14267 191.82 2.11467 191.82L0.630672 191.666C0.556005 191.656 0.504672 191.642 0.476672 191.624C0.448672 191.605 0.416005 191.554 0.378672 191.47C0.126672 190.751 0.000671387 190.004 0.000671387 189.23C0.000671387 188.343 0.178005 187.61 0.532671 187.032C0.887338 186.462 1.33067 186.052 1.86267 185.8C2.39467 185.548 2.93134 185.422 3.47267 185.422C4.11667 185.422 4.69534 185.59 5.20867 185.926C5.73134 186.262 6.14201 186.724 6.44067 187.312C6.73934 187.909 6.88867 188.567 6.88867 189.286Z" fill="#421D12"/>
<path d="M1.33067 177.656C1.05067 177.656 0.840672 177.674 0.700672 177.712C0.570005 177.758 0.476671 177.842 0.420671 177.964C0.364671 178.094 0.336672 178.295 0.336672 178.566C0.336672 178.584 0.308672 178.594 0.252672 178.594C0.196672 178.594 0.168672 178.584 0.168672 178.566C0.168672 178.304 0.173338 178.099 0.182672 177.95L0.196671 177.11L0.182672 176.284C0.173338 176.134 0.168672 175.929 0.168672 175.668C0.168672 175.649 0.196672 175.64 0.252672 175.64C0.308672 175.64 0.336672 175.649 0.336672 175.668C0.336672 175.948 0.360005 176.153 0.406672 176.284C0.462672 176.414 0.556005 176.503 0.686672 176.55C0.817338 176.606 1.02267 176.634 1.30267 176.634H5.58667C5.86667 176.634 6.07201 176.61 6.20267 176.564C6.33334 176.517 6.42201 176.428 6.46867 176.298C6.52467 176.176 6.55267 175.98 6.55267 175.71C6.55267 175.682 6.58067 175.668 6.63667 175.668C6.69267 175.668 6.72067 175.682 6.72067 175.71L6.70667 176.62L6.72067 177.39C6.72067 177.502 6.70201 177.572 6.66467 177.6C6.63667 177.637 6.56667 177.656 6.45467 177.656H1.33067ZM5.05467 177.152C5.68934 177.637 6.15134 178.132 6.44067 178.636C6.73934 179.14 6.88867 179.686 6.88867 180.274C6.88867 180.946 6.69734 181.492 6.31467 181.912C5.94134 182.341 5.34867 182.556 4.53667 182.556H1.30267C1.02267 182.556 0.812672 182.574 0.672672 182.612C0.542005 182.649 0.453338 182.719 0.406672 182.822C0.360005 182.924 0.336672 183.088 0.336672 183.312C0.336672 183.33 0.308672 183.34 0.252672 183.34C0.196672 183.34 0.168672 183.33 0.168672 183.312C0.168672 183.078 0.173338 182.896 0.182672 182.766L0.196671 182.024L0.182672 181.17C0.173338 181.03 0.168672 180.838 0.168672 180.596C0.168672 180.577 0.196672 180.568 0.252672 180.568C0.308672 180.568 0.336672 180.577 0.336672 180.596C0.336672 180.866 0.364671 181.067 0.420671 181.198C0.476671 181.338 0.570005 181.431 0.700672 181.478C0.840672 181.524 1.05067 181.548 1.33067 181.548H4.11667C5.01267 181.548 5.62867 181.398 5.96467 181.1C6.31001 180.81 6.48267 180.39 6.48267 179.84C6.48267 179.382 6.36134 178.958 6.11867 178.566C5.88534 178.174 5.47934 177.758 4.90067 177.32L5.05467 177.152Z" fill="#421D12"/>
<path d="M0.0576553 172.217C0.0576553 172.105 0.108989 171.983 0.211656 171.853C0.314322 171.731 0.472989 171.624 0.687656 171.531C0.902323 171.447 1.17299 171.405 1.49966 171.405H4.88766C5.45699 171.405 5.87232 171.33 6.13366 171.181C6.39499 171.031 6.52566 170.793 6.52566 170.467C6.52566 170.084 6.39032 169.795 6.11966 169.599C5.84899 169.412 5.50366 169.267 5.08366 169.165C4.68232 169.062 4.48166 168.852 4.48166 168.535C4.48166 168.357 4.52832 168.213 4.62166 168.101C4.72432 167.998 4.85499 167.947 5.01366 167.947C5.25632 167.947 5.52232 168.115 5.81166 168.451C6.10099 168.796 6.34366 169.207 6.53966 169.683C6.74499 170.168 6.84766 170.611 6.84766 171.013C6.84766 171.442 6.71699 171.783 6.45566 172.035C6.20366 172.296 5.82099 172.427 5.30766 172.427H1.97566C1.52766 172.427 1.21966 172.492 1.05166 172.623C0.883656 172.753 0.799656 172.931 0.799656 173.155C0.799656 173.304 0.850989 173.505 0.953656 173.757V173.771C0.953656 173.808 0.930323 173.831 0.883656 173.841C0.846323 173.859 0.818323 173.85 0.799656 173.813L0.0856562 172.329L0.0576553 172.217ZM0.0716562 169.123C0.0716562 168.777 0.169656 168.493 0.365656 168.269C0.561656 168.045 0.794989 167.933 1.06566 167.933C1.39232 167.933 1.66299 168.045 1.87766 168.269C2.10166 168.493 2.31166 168.875 2.50766 169.417L3.31966 171.657L3.12366 171.699L2.46566 169.963C2.34432 169.655 2.19966 169.435 2.03166 169.305C1.87299 169.174 1.68166 169.109 1.45766 169.109C1.22432 169.109 1.02832 169.179 0.869656 169.319C0.710989 169.468 0.631656 169.645 0.631656 169.851C0.631656 170.047 0.701656 170.28 0.841656 170.551L1.47166 171.797L1.27566 171.811L0.547656 170.537C0.370322 170.219 0.244322 169.953 0.169656 169.739C0.104322 169.533 0.0716562 169.328 0.0716562 169.123Z" fill="#421D12"/>
<path d="M0.337672 161.673C0.337672 161.701 0.309672 161.715 0.253672 161.715C0.197672 161.715 0.169672 161.701 0.169672 161.673C0.169672 161.412 0.174338 161.207 0.183671 161.057L0.197671 160.161L0.183671 159.293C0.174338 159.135 0.169672 158.915 0.169672 158.635C0.169672 158.617 0.197672 158.607 0.253672 158.607C0.309672 158.607 0.337672 158.617 0.337672 158.635C0.337672 158.934 0.361005 159.153 0.407671 159.293C0.454338 159.433 0.543005 159.527 0.673672 159.573C0.813672 159.629 1.02367 159.657 1.30367 159.657H5.58767C5.86767 159.657 6.07301 159.629 6.20367 159.573C6.33434 159.527 6.42301 159.433 6.46967 159.293C6.52567 159.163 6.55367 158.953 6.55367 158.663C6.55367 158.635 6.58167 158.621 6.63767 158.621C6.69367 158.621 6.72167 158.635 6.72167 158.663L6.70767 159.307C6.68901 159.662 6.67967 159.947 6.67967 160.161C6.67967 160.339 6.68434 160.497 6.69367 160.637C6.70301 160.787 6.71234 160.913 6.72167 161.015C6.74967 161.314 6.76367 161.589 6.76367 161.841C6.76367 162.485 6.64701 162.975 6.41367 163.311C6.18034 163.657 5.84434 163.829 5.40567 163.829C5.023 163.829 4.66834 163.708 4.34167 163.465C4.01501 163.232 3.75367 162.91 3.55767 162.499C3.371 162.089 3.27767 161.636 3.27767 161.141C3.27767 160.843 3.29634 160.586 3.33367 160.371L3.62767 160.357C3.56234 160.591 3.52967 160.885 3.52967 161.239C3.52967 161.799 3.65567 162.187 3.90767 162.401C4.15967 162.625 4.533 162.737 5.02767 162.737C6.03567 162.737 6.53967 162.322 6.53967 161.491C6.53967 161.155 6.46967 160.936 6.32967 160.833C6.19901 160.74 5.94234 160.693 5.55967 160.693H1.30367C1.01434 160.693 0.804338 160.717 0.673672 160.763C0.543005 160.81 0.454338 160.899 0.407671 161.029C0.361005 161.16 0.337672 161.375 0.337672 161.673ZM0.337672 165.873C0.337672 165.901 0.309672 165.915 0.253672 165.915C0.197672 165.915 0.169672 165.901 0.169672 165.873V164.039C0.169672 163.881 0.459005 163.591 1.03767 163.171C1.61634 162.751 2.40967 162.252 3.41767 161.673L3.71167 162.541C2.83434 163.073 2.15301 163.521 1.66767 163.885C1.19167 164.249 0.851005 164.585 0.645671 164.893C0.440338 165.201 0.337672 165.528 0.337672 165.873Z" fill="#421D12"/>
<path d="M0.167969 150.156C0.167969 150.128 0.195968 150.114 0.251968 150.114C0.307968 150.114 0.335969 150.128 0.335969 150.156C0.335969 150.501 0.359302 150.753 0.405969 150.912C0.452635 151.07 0.541302 151.178 0.671968 151.234C0.811968 151.299 1.02197 151.332 1.30197 151.332H7.78397C8.06397 151.332 8.2693 151.304 8.39997 151.248C8.53064 151.192 8.6193 151.084 8.66597 150.926C8.72197 150.776 8.74997 150.534 8.74997 150.198C8.74997 150.17 8.77797 150.156 8.83397 150.156C8.88997 150.156 8.91797 150.17 8.91797 150.198V155.91C8.91797 156.003 8.87597 156.05 8.79197 156.05L7.02797 156.078C6.99997 156.078 6.9813 156.05 6.97197 155.994C6.97197 155.947 6.98597 155.919 7.01397 155.91C7.5273 155.844 7.9193 155.662 8.18997 155.364C8.46064 155.065 8.59597 154.673 8.59597 154.188V153.474C8.59597 153.072 8.5353 152.797 8.41397 152.648C8.30197 152.508 8.0873 152.438 7.76997 152.438H1.35797C1.0593 152.438 0.839968 152.475 0.699968 152.55C0.569302 152.634 0.475969 152.788 0.419969 153.012C0.363969 153.236 0.335969 153.59 0.335969 154.076C0.335969 154.094 0.307968 154.104 0.251968 154.104C0.195968 154.104 0.167969 154.094 0.167969 154.076C0.167969 153.693 0.172635 153.394 0.181969 153.18L0.195969 151.864L0.181969 150.884C0.172635 150.706 0.167969 150.464 0.167969 150.156ZM3.21997 155.21C3.6213 155.21 3.9153 155.088 4.10197 154.846C4.29797 154.603 4.39597 154.216 4.39597 153.684V151.906H4.71797V153.726C4.71797 154.23 4.80197 154.598 4.96997 154.832C5.13797 155.074 5.38997 155.196 5.72597 155.196C5.74464 155.196 5.75397 155.224 5.75397 155.28C5.75397 155.336 5.74464 155.364 5.72597 155.364L4.54997 155.35C4.26997 155.35 4.05997 155.354 3.91997 155.364L3.21997 155.378C3.2013 155.378 3.19197 155.35 3.19197 155.294C3.19197 155.238 3.2013 155.21 3.21997 155.21Z" fill="#421D12"/>
<path d="M5.61467 139.632C5.34401 139.632 5.10601 139.702 4.90067 139.842C4.69534 139.991 4.52267 140.168 4.38267 140.374C4.25201 140.588 4.08867 140.882 3.89267 141.256C3.69667 141.638 3.51934 141.946 3.36067 142.18C3.20201 142.422 3.00134 142.623 2.75867 142.782C2.52534 142.95 2.24534 143.034 1.91867 143.034C1.564 143.034 1.23734 142.931 0.938672 142.726C0.649338 142.53 0.420672 142.25 0.252672 141.886C0.0846717 141.522 0.000671387 141.102 0.000671387 140.626C0.000671387 140.271 0.0473384 139.93 0.140672 139.604C0.224672 139.286 0.341338 139.025 0.490672 138.82C0.518672 138.773 0.551338 138.74 0.588672 138.722C0.626005 138.712 0.686672 138.703 0.770672 138.694L2.21267 138.568C2.25001 138.568 2.27334 138.591 2.28267 138.638C2.29201 138.684 2.27801 138.717 2.24067 138.736C1.69934 138.922 1.23267 139.207 0.840672 139.59C0.448672 139.982 0.252672 140.416 0.252672 140.892C0.252672 141.2 0.341338 141.466 0.518672 141.69C0.705338 141.914 0.990005 142.026 1.37267 142.026C1.67134 142.026 1.93267 141.951 2.15667 141.802C2.39 141.652 2.58134 141.466 2.73067 141.242C2.88934 141.018 3.06667 140.728 3.26267 140.374C3.45867 140.01 3.63134 139.716 3.78067 139.492C3.93934 139.268 4.13067 139.076 4.35467 138.918C4.58801 138.768 4.85867 138.694 5.16667 138.694C5.69867 138.694 6.11867 138.908 6.42667 139.338C6.73467 139.776 6.88867 140.299 6.88867 140.906C6.88867 141.438 6.78134 141.942 6.56667 142.418C6.52934 142.492 6.49201 142.544 6.45467 142.572C6.42667 142.6 6.38001 142.618 6.31467 142.628L5.06867 142.684C5.03134 142.684 5.00801 142.66 4.99867 142.614C4.98934 142.567 4.99867 142.534 5.02667 142.516C5.23201 142.469 5.46067 142.362 5.71267 142.194C5.97401 142.026 6.19334 141.811 6.37067 141.55C6.55734 141.288 6.65067 140.994 6.65067 140.668C6.65067 140.332 6.55267 140.075 6.35667 139.898C6.17001 139.72 5.92267 139.632 5.61467 139.632Z" fill="#421D12"/>
<path d="M0.000858307 134.312C0.000858307 133.771 0.150192 133.318 0.448859 132.954C0.747525 132.599 1.24219 132.422 1.93286 132.422H5.60086C5.90886 132.422 6.10486 132.375 6.18886 132.282C6.27286 132.198 6.31486 132.002 6.31486 131.694C6.31486 131.666 6.34753 131.652 6.41286 131.652C6.47819 131.652 6.51086 131.666 6.51086 131.694C6.51086 132.105 6.60886 132.45 6.80486 132.73C7.01019 133.019 7.27153 133.187 7.58886 133.234C7.61686 133.234 7.63086 133.262 7.63086 133.318C7.63086 133.346 7.62153 133.374 7.60286 133.402C7.59353 133.43 7.58419 133.444 7.57486 133.444H2.33886C1.72286 133.444 1.26086 133.561 0.952858 133.794C0.654192 134.027 0.504858 134.387 0.504858 134.872C0.504858 135.376 0.630859 135.815 0.882859 136.188L0.896859 136.216C0.896859 136.244 0.873525 136.267 0.826859 136.286C0.789525 136.305 0.761525 136.3 0.742858 136.272C0.472192 135.889 0.280859 135.549 0.168859 135.25C0.0568585 134.961 0.000858307 134.648 0.000858307 134.312ZM5.97886 135.852C6.16553 135.096 6.25886 134.191 6.25886 133.136H6.55286C6.55286 133.836 6.59486 134.755 6.67886 135.894C6.67886 135.922 6.64619 135.945 6.58086 135.964C6.52486 135.983 6.45486 135.992 6.37086 135.992C6.27753 135.992 6.18419 135.973 6.09086 135.936C6.00686 135.908 5.96953 135.88 5.97886 135.852Z" fill="#421D12"/>
<path d="M0.000999451 127.28C0.000999451 126.589 0.155 126.001 0.463 125.516C0.780333 125.03 1.191 124.666 1.695 124.424C2.199 124.181 2.74033 124.06 3.319 124.06C3.963 124.06 4.55567 124.214 5.097 124.522C5.64767 124.839 6.08167 125.259 6.399 125.782C6.71633 126.304 6.875 126.874 6.875 127.49C6.875 128.134 6.69767 128.619 6.343 128.946C5.98833 129.282 5.517 129.45 4.929 129.45C4.82633 129.45 4.75167 129.436 4.705 129.408C4.66767 129.389 4.649 129.347 4.649 129.282V128.288C4.72367 128.297 4.83567 128.302 4.985 128.302C5.49833 128.302 5.89033 128.194 6.161 127.98C6.43167 127.774 6.567 127.462 6.567 127.042C6.567 126.482 6.31967 126.029 5.825 125.684C5.33967 125.338 4.68167 125.166 3.851 125.166C2.86167 125.166 2.05433 125.404 1.429 125.88C0.803667 126.356 0.491 127.009 0.491 127.84C0.491 128.437 0.635666 128.936 0.925 129.338V129.352C0.925 129.38 0.906333 129.403 0.868999 129.422C0.840999 129.45 0.813 129.454 0.785 129.436C0.262333 128.782 0.000999451 128.064 0.000999451 127.28ZM4.845 124.732L4.915 128.68H4.649L4.635 124.746L4.845 124.732Z" fill="#421D12"/>
<path d="M0.000999451 119.659C0.000999451 118.968 0.155 118.38 0.463 117.895C0.780333 117.409 1.191 117.045 1.695 116.803C2.199 116.56 2.74033 116.439 3.319 116.439C3.963 116.439 4.55567 116.593 5.097 116.901C5.64767 117.218 6.08167 117.638 6.399 118.161C6.71633 118.683 6.875 119.253 6.875 119.869C6.875 120.513 6.69767 120.998 6.343 121.325C5.98833 121.661 5.517 121.829 4.929 121.829C4.82633 121.829 4.75167 121.815 4.705 121.787C4.66767 121.768 4.649 121.726 4.649 121.661V120.667C4.72367 120.676 4.83567 120.681 4.985 120.681C5.49833 120.681 5.89033 120.573 6.161 120.359C6.43167 120.153 6.567 119.841 6.567 119.421C6.567 118.861 6.31967 118.408 5.825 118.063C5.33967 117.717 4.68167 117.545 3.851 117.545C2.86167 117.545 2.05433 117.783 1.429 118.259C0.803667 118.735 0.491 119.388 0.491 120.219C0.491 120.816 0.635666 121.315 0.925 121.717V121.731C0.925 121.759 0.906333 121.782 0.868999 121.801C0.840999 121.829 0.813 121.833 0.785 121.815C0.262333 121.161 0.000999451 120.443 0.000999451 119.659ZM4.845 117.111L4.915 121.059H4.649L4.635 117.125L4.845 117.111Z" fill="#421D12"/>
<path d="M6.7207 114.625C6.7207 114.653 6.6927 114.667 6.6367 114.667C6.5807 114.667 6.5527 114.653 6.5527 114.625C6.5527 114.326 6.45937 114.07 6.2727 113.855C6.08604 113.65 5.76404 113.454 5.3067 113.267L0.182703 111.251C0.14537 111.242 0.126703 111.19 0.126703 111.097C0.126703 111.013 0.14537 110.957 0.182703 110.929L5.5587 108.381C5.96937 108.176 6.23537 108.017 6.3567 107.905C6.48737 107.802 6.5527 107.658 6.5527 107.471C6.5527 107.452 6.5807 107.443 6.6367 107.443C6.6927 107.443 6.7207 107.452 6.7207 107.471L6.7067 107.905C6.68804 108.148 6.6787 108.348 6.6787 108.507C6.6787 108.647 6.68804 108.829 6.7067 109.053L6.7207 109.431C6.7207 109.45 6.6927 109.459 6.6367 109.459C6.5807 109.459 6.5527 109.45 6.5527 109.431C6.5527 109.328 6.54337 109.254 6.5247 109.207C6.50604 109.16 6.4687 109.137 6.4127 109.137C6.3567 109.137 6.26337 109.16 6.1327 109.207C6.01137 109.263 5.8667 109.333 5.6987 109.417L1.3167 111.559L0.378703 111.069L5.3627 112.931C5.6427 113.034 5.8667 113.085 6.0347 113.085C6.38004 113.085 6.5527 112.908 6.5527 112.553C6.5527 112.534 6.5807 112.525 6.6367 112.525C6.6927 112.525 6.7207 112.534 6.7207 112.553L6.7067 112.931C6.68804 113.136 6.6787 113.318 6.6787 113.477C6.6787 113.636 6.68804 113.836 6.7067 114.079L6.7207 114.625ZM0.182703 108.297C0.14537 108.288 0.126703 108.236 0.126703 108.143C0.126703 108.05 0.14537 107.998 0.182703 107.989L5.5587 105.413C5.9507 105.226 6.21204 105.063 6.3427 104.923C6.4827 104.783 6.5527 104.592 6.5527 104.349C6.5527 104.321 6.5807 104.307 6.6367 104.307C6.6927 104.307 6.7207 104.321 6.7207 104.349C6.7207 104.47 6.71137 104.662 6.6927 104.923L6.6787 105.483C6.6787 105.726 6.68804 105.987 6.7067 106.267C6.71604 106.37 6.7207 106.496 6.7207 106.645C6.7207 106.664 6.6927 106.673 6.6367 106.673C6.5807 106.673 6.5527 106.664 6.5527 106.645C6.5527 106.412 6.4547 106.295 6.2587 106.295C6.13737 106.295 5.9507 106.351 5.6987 106.463L1.3167 108.605L0.392703 108.129L3.7807 109.473L3.5707 109.697L0.182703 108.297ZM5.5447 110.341C5.8527 110.462 6.08604 110.523 6.2447 110.523C6.45004 110.523 6.5527 110.411 6.5527 110.187C6.5527 110.168 6.5807 110.159 6.6367 110.159C6.6927 110.159 6.7207 110.168 6.7207 110.187C6.7207 110.271 6.71137 110.383 6.6927 110.523C6.68337 110.663 6.6787 110.798 6.6787 110.929C6.6787 111.097 6.68804 111.274 6.7067 111.461L6.7207 111.909C6.7207 111.937 6.6927 111.951 6.6367 111.951C6.5807 111.951 6.5527 111.937 6.5527 111.909C6.5527 111.592 6.47804 111.34 6.3287 111.153C6.17937 110.976 5.89004 110.794 5.4607 110.607L3.5707 109.865L3.7807 109.697L5.5447 110.341Z" fill="#421D12"/>
<path d="M7.35027 98.1468C6.9956 98.1468 6.68293 98.2355 6.41227 98.4128C6.15093 98.5902 5.92227 98.8048 5.72627 99.0568C5.5396 99.3088 5.31093 99.6588 5.04027 100.107C4.75093 100.574 4.49893 100.942 4.28427 101.213C4.07893 101.493 3.82227 101.731 3.51427 101.927C3.20627 102.123 2.84227 102.221 2.42227 102.221C1.96493 102.221 1.5496 102.099 1.17626 101.857C0.812265 101.623 0.522931 101.283 0.308265 100.835C0.102931 100.396 0.000265121 99.8828 0.000265121 99.2948C0.000265121 98.9215 0.0469321 98.5528 0.140265 98.1888C0.224265 97.8248 0.350265 97.5075 0.518265 97.2368C0.546265 97.1902 0.578932 97.1575 0.616265 97.1388C0.653599 97.1202 0.709599 97.1108 0.784266 97.1108L2.78627 96.9708C2.8236 96.9615 2.84693 96.9802 2.85627 97.0268C2.8656 97.0828 2.8516 97.1155 2.81427 97.1248C2.10493 97.3488 1.50293 97.6615 1.00827 98.0628C0.513599 98.4642 0.266265 98.9868 0.266265 99.6308C0.266265 100.07 0.382932 100.438 0.616265 100.737C0.858932 101.036 1.25093 101.185 1.79226 101.185C2.20293 101.185 2.56227 101.092 2.87027 100.905C3.17827 100.718 3.43493 100.489 3.64027 100.219C3.85493 99.9482 4.0976 99.5888 4.36827 99.1408C4.64827 98.7022 4.88627 98.3522 5.08227 98.0908C5.2876 97.8388 5.53493 97.6242 5.82427 97.4468C6.12293 97.2695 6.46827 97.1808 6.86027 97.1808C7.33627 97.1808 7.74227 97.3068 8.07827 97.5588C8.41427 97.8202 8.6616 98.1562 8.82027 98.5668C8.98827 98.9868 9.07227 99.4255 9.07227 99.8828C9.07227 100.499 8.96493 101.064 8.75027 101.577C8.68493 101.717 8.60093 101.787 8.49827 101.787L6.74827 101.857C6.71093 101.857 6.6876 101.829 6.67827 101.773C6.67827 101.726 6.69693 101.698 6.73427 101.689C7.23827 101.586 7.71427 101.367 8.16227 101.031C8.61027 100.704 8.83427 100.233 8.83427 99.6168C8.83427 99.1502 8.69427 98.7862 8.41427 98.5248C8.13427 98.2728 7.7796 98.1468 7.35027 98.1468Z" fill="#421D12"/>
<path d="M0.112047 85.8027C0.112047 85.5507 0.126047 85.2614 0.154047 84.9347C0.16338 84.8227 0.172713 84.6827 0.182046 84.5147C0.19138 84.3467 0.196046 84.1554 0.196046 83.9407L0.182046 83.0727C0.172713 82.9141 0.168046 82.6947 0.168046 82.4147C0.168046 82.3961 0.196047 82.3867 0.252047 82.3867C0.308047 82.3867 0.336047 82.3961 0.336047 82.4147C0.336047 82.7227 0.35938 82.9467 0.406046 83.0867C0.452713 83.2267 0.54138 83.3201 0.672047 83.3667C0.812047 83.4134 1.02205 83.4367 1.30205 83.4367H5.58605C5.86605 83.4367 6.07138 83.4134 6.20205 83.3667C6.33271 83.3201 6.42138 83.2267 6.46805 83.0867C6.52405 82.9467 6.55205 82.7321 6.55205 82.4427C6.55205 82.4147 6.58005 82.4007 6.63605 82.4007C6.69205 82.4007 6.72005 82.4147 6.72005 82.4427L6.70605 83.0727C6.68738 83.4274 6.67805 83.7167 6.67805 83.9407C6.67805 84.2301 6.69205 84.5194 6.72005 84.8087C6.73871 85.1821 6.74805 85.4621 6.74805 85.6487C6.74805 86.4327 6.60805 87.1094 6.32805 87.6787C6.04805 88.2481 5.66071 88.6821 5.16605 88.9807C4.67138 89.2794 4.11138 89.4287 3.48605 89.4287C2.84205 89.4287 2.26338 89.2747 1.75005 88.9667C1.23671 88.6587 0.83538 88.2294 0.546046 87.6787C0.256713 87.1281 0.112047 86.5027 0.112047 85.8027ZM0.350047 85.6487C0.350047 86.4607 0.606713 87.0907 1.12005 87.5387C1.63338 87.9961 2.37071 88.2247 3.33205 88.2247C4.25605 88.2247 5.01671 88.0007 5.61405 87.5527C6.22071 87.1047 6.52405 86.4281 6.52405 85.5227C6.52405 85.1307 6.45405 84.8554 6.31405 84.6967C6.17405 84.5381 5.92205 84.4587 5.55805 84.4587H1.45605C1.05471 84.4587 0.770047 84.5381 0.602046 84.6967C0.434046 84.8554 0.350047 85.1727 0.350047 85.6487Z" fill="#421D12"/>
<path d="M1.33067 74.6627C1.05067 74.6627 0.840672 74.6814 0.700672 74.7187C0.570005 74.7654 0.476671 74.8494 0.420671 74.9707C0.364671 75.1014 0.336672 75.3021 0.336672 75.5727C0.336672 75.5914 0.308672 75.6007 0.252672 75.6007C0.196672 75.6007 0.168672 75.5914 0.168672 75.5727C0.168672 75.3114 0.173338 75.1061 0.182672 74.9567L0.196671 74.1167L0.182672 73.2907C0.173338 73.1414 0.168672 72.9361 0.168672 72.6747C0.168672 72.6561 0.196672 72.6467 0.252672 72.6467C0.308672 72.6467 0.336672 72.6561 0.336672 72.6747C0.336672 72.9547 0.360005 73.1601 0.406672 73.2907C0.462672 73.4214 0.556005 73.5101 0.686672 73.5567C0.817338 73.6127 1.02267 73.6407 1.30267 73.6407H5.58667C5.86667 73.6407 6.07201 73.6174 6.20267 73.5707C6.33334 73.5241 6.42201 73.4354 6.46867 73.3047C6.52467 73.1834 6.55267 72.9874 6.55267 72.7167C6.55267 72.6887 6.58067 72.6747 6.63667 72.6747C6.69267 72.6747 6.72067 72.6887 6.72067 72.7167L6.70667 73.6267L6.72067 74.3967C6.72067 74.5087 6.70201 74.5787 6.66467 74.6067C6.63667 74.6441 6.56667 74.6627 6.45467 74.6627H1.33067ZM5.05467 74.1587C5.68934 74.6441 6.15134 75.1387 6.44067 75.6427C6.73934 76.1467 6.88867 76.6927 6.88867 77.2807C6.88867 77.9527 6.69734 78.4987 6.31467 78.9187C5.94134 79.3481 5.34867 79.5627 4.53667 79.5627H1.30267C1.02267 79.5627 0.812672 79.5814 0.672672 79.6187C0.542005 79.6561 0.453338 79.7261 0.406672 79.8287C0.360005 79.9314 0.336672 80.0947 0.336672 80.3187C0.336672 80.3374 0.308672 80.3467 0.252672 80.3467C0.196672 80.3467 0.168672 80.3374 0.168672 80.3187C0.168672 80.0854 0.173338 79.9034 0.182672 79.7727L0.196671 79.0307L0.182672 78.1767C0.173338 78.0367 0.168672 77.8454 0.168672 77.6027C0.168672 77.5841 0.196672 77.5747 0.252672 77.5747C0.308672 77.5747 0.336672 77.5841 0.336672 77.6027C0.336672 77.8734 0.364671 78.0741 0.420671 78.2047C0.476671 78.3447 0.570005 78.4381 0.700672 78.4847C0.840672 78.5314 1.05067 78.5547 1.33067 78.5547H4.11667C5.01267 78.5547 5.62867 78.4054 5.96467 78.1067C6.31001 77.8174 6.48267 77.3974 6.48267 76.8467C6.48267 76.3894 6.36134 75.9647 6.11867 75.5727C5.88534 75.1807 5.47934 74.7654 4.90067 74.3267L5.05467 74.1587Z" fill="#421D12"/>
<path d="M0.0576553 69.2235C0.0576553 69.1115 0.108989 68.9901 0.211656 68.8595C0.314322 68.7381 0.472989 68.6308 0.687656 68.5375C0.902323 68.4535 1.17299 68.4115 1.49966 68.4115H4.88766C5.45699 68.4115 5.87232 68.3368 6.13366 68.1875C6.39499 68.0381 6.52566 67.8001 6.52566 67.4735C6.52566 67.0908 6.39032 66.8015 6.11966 66.6055C5.84899 66.4188 5.50366 66.2741 5.08366 66.1715C4.68232 66.0688 4.48166 65.8588 4.48166 65.5415C4.48166 65.3641 4.52832 65.2195 4.62166 65.1075C4.72432 65.0048 4.85499 64.9535 5.01366 64.9535C5.25632 64.9535 5.52232 65.1215 5.81166 65.4575C6.10099 65.8028 6.34366 66.2135 6.53966 66.6895C6.74499 67.1748 6.84766 67.6181 6.84766 68.0195C6.84766 68.4488 6.71699 68.7895 6.45566 69.0415C6.20366 69.3028 5.82099 69.4335 5.30766 69.4335H1.97566C1.52766 69.4335 1.21966 69.4988 1.05166 69.6295C0.883656 69.7601 0.799656 69.9375 0.799656 70.1615C0.799656 70.3108 0.850989 70.5115 0.953656 70.7635V70.7775C0.953656 70.8148 0.930323 70.8381 0.883656 70.8475C0.846323 70.8661 0.818323 70.8568 0.799656 70.8195L0.0856562 69.3355L0.0576553 69.2235ZM0.0716562 66.1295C0.0716562 65.7841 0.169656 65.4995 0.365656 65.2755C0.561656 65.0515 0.794989 64.9395 1.06566 64.9395C1.39232 64.9395 1.66299 65.0515 1.87766 65.2755C2.10166 65.4995 2.31166 65.8821 2.50766 66.4235L3.31966 68.6635L3.12366 68.7055L2.46566 66.9695C2.34432 66.6615 2.19966 66.4421 2.03166 66.3115C1.87299 66.1808 1.68166 66.1155 1.45766 66.1155C1.22432 66.1155 1.02832 66.1855 0.869656 66.3255C0.710989 66.4748 0.631656 66.6521 0.631656 66.8575C0.631656 67.0535 0.701656 67.2868 0.841656 67.5575L1.47166 68.8035L1.27566 68.8175L0.547656 67.5435C0.370322 67.2261 0.244322 66.9601 0.169656 66.7455C0.104322 66.5401 0.0716562 66.3348 0.0716562 66.1295Z" fill="#421D12"/>
<path d="M5.61467 54.1494C5.34401 54.1494 5.10601 54.2194 4.90067 54.3594C4.69534 54.5088 4.52267 54.6861 4.38267 54.8914C4.25201 55.1061 4.08867 55.4001 3.89267 55.7734C3.69667 56.1561 3.51934 56.4641 3.36067 56.6974C3.20201 56.9401 3.00134 57.1408 2.75867 57.2994C2.52534 57.4674 2.24534 57.5514 1.91867 57.5514C1.564 57.5514 1.23734 57.4488 0.938672 57.2435C0.649338 57.0475 0.420672 56.7675 0.252672 56.4035C0.0846717 56.0394 0.000671387 55.6194 0.000671387 55.1434C0.000671387 54.7888 0.0473384 54.4481 0.140672 54.1214C0.224672 53.8041 0.341338 53.5428 0.490672 53.3374C0.518672 53.2908 0.551338 53.2581 0.588672 53.2394C0.626005 53.2301 0.686672 53.2208 0.770672 53.2114L2.21267 53.0854C2.25001 53.0854 2.27334 53.1088 2.28267 53.1554C2.29201 53.2021 2.27801 53.2348 2.24067 53.2534C1.69934 53.4401 1.23267 53.7248 0.840672 54.1074C0.448672 54.4994 0.252672 54.9334 0.252672 55.4094C0.252672 55.7174 0.341338 55.9834 0.518672 56.2074C0.705338 56.4314 0.990005 56.5434 1.37267 56.5434C1.67134 56.5434 1.93267 56.4688 2.15667 56.3194C2.39 56.1701 2.58134 55.9834 2.73067 55.7594C2.88934 55.5354 3.06667 55.2461 3.26267 54.8914C3.45867 54.5274 3.63134 54.2334 3.78067 54.0094C3.93934 53.7854 4.13067 53.5941 4.35467 53.4354C4.58801 53.2861 4.85867 53.2114 5.16667 53.2114C5.69867 53.2114 6.11867 53.4261 6.42667 53.8554C6.73467 54.2941 6.88867 54.8168 6.88867 55.4234C6.88867 55.9554 6.78134 56.4594 6.56667 56.9354C6.52934 57.0101 6.49201 57.0614 6.45467 57.0894C6.42667 57.1174 6.38001 57.1361 6.31467 57.1454L5.06867 57.2015C5.03134 57.2015 5.00801 57.1781 4.99867 57.1315C4.98934 57.0848 4.99867 57.0521 5.02667 57.0334C5.23201 56.9868 5.46067 56.8794 5.71267 56.7114C5.97401 56.5434 6.19334 56.3288 6.37067 56.0674C6.55734 55.8061 6.65067 55.5121 6.65067 55.1854C6.65067 54.8494 6.55267 54.5928 6.35667 54.4154C6.17001 54.2381 5.92267 54.1494 5.61467 54.1494Z" fill="#421D12"/>
<path d="M0.337672 46.9664C0.337672 46.9944 0.309672 47.0084 0.253672 47.0084C0.197672 47.0084 0.169672 46.9944 0.169672 46.9664C0.169672 46.7051 0.174338 46.4997 0.183671 46.3504L0.197671 45.4544L0.183671 44.5864C0.174338 44.4277 0.169672 44.2084 0.169672 43.9284C0.169672 43.9097 0.197672 43.9004 0.253672 43.9004C0.309672 43.9004 0.337672 43.9097 0.337672 43.9284C0.337672 44.2271 0.361005 44.4464 0.407671 44.5864C0.454338 44.7264 0.543005 44.8197 0.673672 44.8664C0.813672 44.9224 1.02367 44.9504 1.30367 44.9504H5.58767C5.86767 44.9504 6.07301 44.9224 6.20367 44.8664C6.33434 44.8197 6.42301 44.7264 6.46967 44.5864C6.52567 44.4557 6.55367 44.2457 6.55367 43.9564C6.55367 43.9284 6.58167 43.9144 6.63767 43.9144C6.69367 43.9144 6.72167 43.9284 6.72167 43.9564L6.70767 44.6004C6.68901 44.9551 6.67967 45.2397 6.67967 45.4544C6.67967 45.6317 6.68434 45.7904 6.69367 45.9304C6.70301 46.0797 6.71234 46.2057 6.72167 46.3084C6.74967 46.6071 6.76367 46.8824 6.76367 47.1344C6.76367 47.7784 6.64701 48.2684 6.41367 48.6044C6.18034 48.9497 5.84434 49.1224 5.40567 49.1224C5.023 49.1224 4.66834 49.0011 4.34167 48.7584C4.01501 48.5251 3.75367 48.2031 3.55767 47.7924C3.371 47.3817 3.27767 46.9291 3.27767 46.4344C3.27767 46.1357 3.29634 45.8791 3.33367 45.6644L3.62767 45.6504C3.56234 45.8837 3.52967 46.1777 3.52967 46.5324C3.52967 47.0924 3.65567 47.4797 3.90767 47.6944C4.15967 47.9184 4.533 48.0304 5.02767 48.0304C6.03567 48.0304 6.53967 47.6151 6.53967 46.7844C6.53967 46.4484 6.46967 46.2291 6.32967 46.1264C6.19901 46.0331 5.94234 45.9864 5.55967 45.9864H1.30367C1.01434 45.9864 0.804338 46.0097 0.673672 46.0564C0.543005 46.1031 0.454338 46.1917 0.407671 46.3224C0.361005 46.4531 0.337672 46.6677 0.337672 46.9664ZM0.337672 51.1664C0.337672 51.1944 0.309672 51.2084 0.253672 51.2084C0.197672 51.2084 0.169672 51.1944 0.169672 51.1664V49.3324C0.169672 49.1737 0.459005 48.8844 1.03767 48.4644C1.61634 48.0444 2.40967 47.5451 3.41767 46.9664L3.71167 47.8344C2.83434 48.3664 2.15301 48.8144 1.66767 49.1784C1.19167 49.5424 0.851005 49.8784 0.645671 50.1864C0.440338 50.4944 0.337672 50.8211 0.337672 51.1664Z" fill="#421D12"/>
<path d="M0.000999451 39.5415C0.000999451 38.8509 0.155 38.2629 0.463 37.7775C0.780333 37.2922 1.191 36.9282 1.695 36.6855C2.199 36.4429 2.74033 36.3215 3.319 36.3215C3.963 36.3215 4.55567 36.4755 5.097 36.7835C5.64767 37.1009 6.08167 37.5209 6.399 38.0435C6.71633 38.5662 6.875 39.1355 6.875 39.7515C6.875 40.3955 6.69767 40.8809 6.343 41.2075C5.98833 41.5435 5.517 41.7115 4.929 41.7115C4.82633 41.7115 4.75167 41.6975 4.705 41.6695C4.66767 41.6509 4.649 41.6089 4.649 41.5435V40.5495C4.72367 40.5589 4.83567 40.5635 4.985 40.5635C5.49833 40.5635 5.89033 40.4562 6.161 40.2415C6.43167 40.0362 6.567 39.7235 6.567 39.3035C6.567 38.7435 6.31967 38.2909 5.825 37.9455C5.33967 37.6002 4.68167 37.4275 3.851 37.4275C2.86167 37.4275 2.05433 37.6655 1.429 38.1415C0.803667 38.6175 0.491 39.2709 0.491 40.1015C0.491 40.6989 0.635666 41.1982 0.925 41.5995V41.6135C0.925 41.6415 0.906333 41.6649 0.868999 41.6835C0.840999 41.7115 0.813 41.7162 0.785 41.6975C0.262333 41.0442 0.000999451 40.3255 0.000999451 39.5415ZM4.845 36.9935L4.915 40.9415H4.649L4.635 37.0075L4.845 36.9935Z" fill="#421D12"/>
<path d="M6.7207 34.5079C6.7207 34.5359 6.6927 34.5499 6.6367 34.5499C6.5807 34.5499 6.5527 34.5359 6.5527 34.5079C6.5527 34.2093 6.45937 33.9526 6.2727 33.7379C6.08604 33.5326 5.76404 33.3366 5.3067 33.1499L0.182703 31.1339C0.14537 31.1246 0.126703 31.0733 0.126703 30.9799C0.126703 30.8959 0.14537 30.8399 0.182703 30.8119L5.5587 28.2639C5.96937 28.0586 6.23537 27.8999 6.3567 27.7879C6.48737 27.6853 6.5527 27.5406 6.5527 27.3539C6.5527 27.3353 6.5807 27.3259 6.6367 27.3259C6.6927 27.3259 6.7207 27.3353 6.7207 27.3539L6.7067 27.7879C6.68804 28.0306 6.6787 28.2313 6.6787 28.3899C6.6787 28.5299 6.68804 28.7119 6.7067 28.9359L6.7207 29.3139C6.7207 29.3326 6.6927 29.3419 6.6367 29.3419C6.5807 29.3419 6.5527 29.3326 6.5527 29.3139C6.5527 29.2113 6.54337 29.1366 6.5247 29.0899C6.50604 29.0433 6.4687 29.0199 6.4127 29.0199C6.3567 29.0199 6.26337 29.0433 6.1327 29.0899C6.01137 29.1459 5.8667 29.2159 5.6987 29.2999L1.3167 31.4419L0.378703 30.9519L5.3627 32.8139C5.6427 32.9166 5.8667 32.9679 6.0347 32.9679C6.38004 32.9679 6.5527 32.7906 6.5527 32.4359C6.5527 32.4173 6.5807 32.4079 6.6367 32.4079C6.6927 32.4079 6.7207 32.4173 6.7207 32.4359L6.7067 32.8139C6.68804 33.0193 6.6787 33.2013 6.6787 33.3599C6.6787 33.5186 6.68804 33.7193 6.7067 33.9619L6.7207 34.5079ZM0.182703 28.1799C0.14537 28.1706 0.126703 28.1193 0.126703 28.0259C0.126703 27.9326 0.14537 27.8813 0.182703 27.8719L5.5587 25.2959C5.9507 25.1093 6.21204 24.9459 6.3427 24.8059C6.4827 24.6659 6.5527 24.4746 6.5527 24.2319C6.5527 24.2039 6.5807 24.1899 6.6367 24.1899C6.6927 24.1899 6.7207 24.2039 6.7207 24.2319C6.7207 24.3533 6.71137 24.5446 6.6927 24.8059L6.6787 25.3659C6.6787 25.6086 6.68804 25.8699 6.7067 26.1499C6.71604 26.2526 6.7207 26.3786 6.7207 26.5279C6.7207 26.5466 6.6927 26.5559 6.6367 26.5559C6.5807 26.5559 6.5527 26.5466 6.5527 26.5279C6.5527 26.2946 6.4547 26.1779 6.2587 26.1779C6.13737 26.1779 5.9507 26.2339 5.6987 26.3459L1.3167 28.4879L0.392703 28.0119L3.7807 29.3559L3.5707 29.5799L0.182703 28.1799ZM5.5447 30.2239C5.8527 30.3453 6.08604 30.4059 6.2447 30.4059C6.45004 30.4059 6.5527 30.2939 6.5527 30.0699C6.5527 30.0513 6.5807 30.0419 6.6367 30.0419C6.6927 30.0419 6.7207 30.0513 6.7207 30.0699C6.7207 30.1539 6.71137 30.2659 6.6927 30.4059C6.68337 30.5459 6.6787 30.6813 6.6787 30.8119C6.6787 30.9799 6.68804 31.1573 6.7067 31.3439L6.7207 31.7919C6.7207 31.8199 6.6927 31.8339 6.6367 31.8339C6.5807 31.8339 6.5527 31.8199 6.5527 31.7919C6.5527 31.4746 6.47804 31.2226 6.3287 31.0359C6.17937 30.8586 5.89004 30.6766 5.4607 30.4899L3.5707 29.7479L3.7807 29.5799L5.5447 30.2239Z" fill="#421D12"/>
<path d="M0.000671387 18.6709C0.000671387 18.0175 0.154672 17.4342 0.462672 16.9209C0.770672 16.4075 1.186 16.0062 1.70867 15.7169C2.23134 15.4369 2.80067 15.2969 3.41667 15.2969C4.13534 15.2969 4.75601 15.4835 5.27867 15.8569C5.81067 16.2302 6.21201 16.7062 6.48267 17.2849C6.75334 17.8729 6.88867 18.4702 6.88867 19.0769C6.88867 19.7302 6.72534 20.3089 6.39867 20.8129C6.08134 21.3169 5.66601 21.7042 5.15267 21.9749C4.63934 22.2455 4.10267 22.3809 3.54267 22.3809C2.91734 22.3809 2.32934 22.2129 1.77867 21.8769C1.23734 21.5409 0.803338 21.0882 0.476672 20.5189C0.159338 19.9589 0.000671387 19.3429 0.000671387 18.6709ZM0.294672 19.0209C0.294672 19.6835 0.551338 20.2155 1.06467 20.6169C1.58734 21.0182 2.30134 21.2189 3.20667 21.2189C3.82267 21.2189 4.38734 21.1115 4.90067 20.8969C5.41401 20.6915 5.82001 20.3929 6.11867 20.0009C6.42667 19.6089 6.58067 19.1422 6.58067 18.6009C6.58067 17.9195 6.33801 17.3922 5.85267 17.0189C5.36734 16.6455 4.68134 16.4589 3.79467 16.4589C3.14134 16.4589 2.54867 16.5615 2.01667 16.7669C1.48467 16.9815 1.06467 17.2802 0.756671 17.6629C0.448671 18.0549 0.294672 18.5075 0.294672 19.0209Z" fill="#421D12"/>
<path d="M1.3587 9.37717C1.09737 9.37717 0.90137 9.4005 0.770703 9.44717C0.640037 9.50317 0.546703 9.60117 0.490703 9.74117C0.444036 9.88117 0.420703 10.0958 0.420703 10.3852V11.0712C0.420703 11.5658 0.579369 11.9812 0.896703 12.3172C1.21404 12.6625 1.64804 12.9052 2.1987 13.0452C2.21737 13.0452 2.22204 13.0732 2.2127 13.1292C2.2127 13.1852 2.20337 13.2132 2.1847 13.2132C1.7367 13.1478 1.1347 13.1152 0.378703 13.1152C0.304036 13.1152 0.248036 13.0965 0.210703 13.0592C0.182703 13.0312 0.168703 12.9752 0.168703 12.8912V7.37517C0.168703 7.3565 0.196703 7.34717 0.252703 7.34717C0.308703 7.34717 0.336703 7.3565 0.336703 7.37517C0.336703 7.6645 0.360036 7.8745 0.406703 8.00517C0.45337 8.13584 0.542036 8.2245 0.672703 8.27117C0.812703 8.31783 1.0227 8.34117 1.3027 8.34117H5.5867C5.8667 8.34117 6.07204 8.31783 6.2027 8.27117C6.33337 8.2245 6.42204 8.13117 6.4687 7.99117C6.5247 7.8605 6.5527 7.65517 6.5527 7.37517C6.5527 7.3565 6.5807 7.34717 6.6367 7.34717C6.6927 7.34717 6.7207 7.3565 6.7207 7.37517L6.7067 8.01917C6.68804 8.3925 6.6787 8.68184 6.6787 8.88717C6.6787 9.11117 6.68804 9.40983 6.7067 9.78317L6.7207 10.3992C6.7207 10.4178 6.6927 10.4272 6.6367 10.4272C6.5807 10.4272 6.5527 10.4178 6.5527 10.3992C6.5527 10.1005 6.5247 9.88117 6.4687 9.74117C6.42204 9.60117 6.3287 9.50317 6.1887 9.44717C6.05804 9.4005 5.8527 9.37717 5.5727 9.37717H1.3587Z" fill="#421D12"/>
<path d="M0.168703 0.028C0.168703 0.00933334 0.196703 0 0.252703 0C0.308703 0 0.336703 0.00933334 0.336703 0.028C0.336703 0.326667 0.360036 0.541333 0.406703 0.672C0.45337 0.812 0.542036 0.905333 0.672703 0.952C0.812703 1.008 1.0227 1.036 1.3027 1.036H5.5867C5.8667 1.036 6.07204 1.008 6.2027 0.952C6.33337 0.905333 6.42204 0.812 6.4687 0.672C6.5247 0.532 6.5527 0.317333 6.5527 0.028C6.5527 0.00933334 6.5807 0 6.6367 0C6.6927 0 6.7207 0.00933334 6.7207 0.028V4.956C6.7207 5.04933 6.68337 5.096 6.6087 5.096L5.7407 5.11C5.56337 5.11933 5.33937 5.124 5.0687 5.124C5.0407 5.124 5.0267 5.096 5.0267 5.04C5.0267 4.984 5.0407 4.956 5.0687 4.956C5.53537 4.85333 5.8947 4.662 6.1467 4.382C6.40804 4.11133 6.5387 3.76133 6.5387 3.332V3.024C6.5387 2.744 6.5107 2.534 6.4547 2.394C6.40804 2.26333 6.31937 2.17467 6.1887 2.128C6.05804 2.08133 5.8527 2.058 5.5727 2.058H1.3587C1.06004 2.058 0.840703 2.09067 0.700703 2.156C0.570036 2.22133 0.476703 2.34267 0.420703 2.52C0.364703 2.70667 0.336703 2.996 0.336703 3.388C0.336703 3.416 0.308703 3.43 0.252703 3.43C0.196703 3.43 0.168703 3.416 0.168703 3.388C0.168703 3.052 0.17337 2.79067 0.182703 2.604L0.196703 1.54L0.182703 0.728C0.17337 0.569333 0.168703 0.336 0.168703 0.028ZM2.9967 4.354C2.9967 4.30733 3.0247 4.09267 3.0807 3.71C3.14604 3.32733 3.1787 2.618 3.1787 1.582H3.5007C3.5007 2.618 3.51937 3.32733 3.5567 3.71C3.60337 4.09267 3.6267 4.30733 3.6267 4.354C3.6267 4.382 3.59404 4.40067 3.5287 4.41C3.4727 4.42867 3.40737 4.438 3.3327 4.438C3.2487 4.438 3.16937 4.42867 3.0947 4.41C3.02937 4.40067 2.9967 4.382 2.9967 4.354Z" fill="#421D12"/>
</svg>
